<?xml version="1.0" encoding="UTF-8" standalone="no"?>
<svg width="538.747px" height="46.25px" viewBox="0 0 538.747 46.25"
 xmlns="http://www.w3.org/2000/svg" xmlns:xlink="http://www.w3.org/1999/xlink" version="1.2" baseProfile="tiny">
<title>BeÌcsi klasszika</title>
<desc>Generated by MuseScore 2.3.2</desc>
<polyline class="StaffLines" fill="none" stroke="#000000" stroke-width="0.40" stroke-linejoin="bevel" points="0,30 538.747,30"/>
<polyline class="BarLine" fill="none" stroke="#000000" stroke-width="0.80" stroke-linejoin="bevel" points="536.047,20 536.047,40"/>
<polyline class="BarLine" fill="none" stroke="#000000" stroke-width="0.80" stroke-linejoin="bevel" points="538.347,20 538.347,40"/>
<polyline class="BarLine" fill="none" stroke="#000000" stroke-width="0.80" stroke-linejoin="bevel" points="423.523,20 423.523,40"/>
<polyline class="BarLine" fill="none" stroke="#000000" stroke-width="0.80" stroke-linejoin="bevel" points="268.448,20 268.448,40"/>
<polyline class="BarLine" fill="none" stroke="#000000" stroke-width="0.80" stroke-linejoin="bevel" points="270.748,20 270.748,40"/>
<polyline class="BarLine" fill="none" stroke="#000000" stroke-width="0.80" stroke-linejoin="bevel" points="155.744,20 155.744,40"/>
<polyline class="Stem" fill="none" stroke="#000000" stroke-width="0.65" stroke-linecap="round" stroke-linejoin="bevel" points="495.378,30.9391 495.378,43.125"/>
<polyline class="Stem" fill="none" stroke="#000000" stroke-width="0.65" stroke-linecap="round" stroke-linejoin="bevel" points="430.248,30.784 430.248,43.125"/>
<polyline class="Stem" fill="none" stroke="#000000" stroke-width="0.65" stroke-linecap="round" stroke-linejoin="bevel" points="401.336,30.9391 401.336,45"/>
<polyline class="Stem" fill="none" stroke="#000000" stroke-width="0.65" stroke-linecap="round" stroke-linejoin="bevel" points="379.223,30.9391 379.223,45"/>
<polyline class="Stem" fill="none" stroke="#000000" stroke-width="0.65" stroke-linecap="round" stroke-linejoin="bevel" points="357.111,30.9391 357.111,45"/>
<polyline class="Stem" fill="none" stroke="#000000" stroke-width="0.65" stroke-linecap="round" stroke-linejoin="bevel" points="334.998,30.9391 334.998,45"/>
<polyline class="Stem" fill="none" stroke="#000000" stroke-width="0.65" stroke-linecap="round" stroke-linejoin="bevel" points="312.886,30.9391 312.886,45"/>
<polyline class="Stem" fill="none" stroke="#000000" stroke-width="0.65" stroke-linecap="round" stroke-linejoin="bevel" points="290.773,30.9391 290.773,45"/>
<polyline class="Stem" fill="none" stroke="#000000" stroke-width="0.65" stroke-linecap="round" stroke-linejoin="bevel" points="203.021,30.784 203.021,43.125"/>
<polyline class="Stem" fill="none" stroke="#000000" stroke-width="0.65" stroke-linecap="round" stroke-linejoin="bevel" points="162.469,30.9391 162.469,43.125"/>
<polyline class="Stem" fill="none" stroke="#000000" stroke-width="0.65" stroke-linecap="round" stroke-linejoin="bevel" points="119.666,30.9391 119.666,43.125"/>
<polyline class="Stem" fill="none" stroke="#000000" stroke-width="0.65" stroke-linecap="round" stroke-linejoin="bevel" points="97.164,30.9391 97.164,45"/>
<polyline class="Stem" fill="none" stroke="#000000" stroke-width="0.65" stroke-linecap="round" stroke-linejoin="bevel" points="74.6622,30.9391 74.6622,45"/>
<polyline class="Stem" fill="none" stroke="#000000" stroke-width="0.65" stroke-linecap="round" stroke-linejoin="bevel" points="38.6594,30.9391 38.6594,43.125"/>
<path class="Note" d="M499.448,27.2461 C500.073,27.2461 500.6,27.4089 501.03,27.7344 C501.434,28.086 501.635,28.5287 501.635,29.0625 C501.635,29.961 501.173,30.8008 500.249,31.5821 C499.311,32.3633 498.309,32.7539 497.241,32.7539 C496.616,32.7539 496.089,32.5912 495.659,32.2656 C495.255,31.9141 495.053,31.4714 495.053,30.9375 C495.053,30.0391 495.522,29.1992 496.46,28.418 C497.371,27.6367 498.367,27.2461 499.448,27.2461"/>
<path class="Note" d="M436.232,28.6914 C436.232,28.4701 436.147,28.2813 435.978,28.125 C435.808,27.9557 435.613,27.8711 435.392,27.8711 C435.001,27.8711 434.213,28.2617 433.029,29.043 C431.805,29.8373 431.056,30.4037 430.782,30.7422 C430.639,30.9245 430.568,31.1133 430.568,31.3086 C430.568,31.53 430.652,31.7188 430.821,31.875 C430.978,32.0443 431.173,32.1289 431.407,32.1289 C431.785,32.1289 432.579,31.7383 433.79,30.9571 C434.988,30.1758 435.73,29.6094 436.017,29.2578 C436.16,29.0886 436.232,28.8998 436.232,28.6914 M435.196,27.2461 C436.316,27.2461 436.876,27.7279 436.876,28.6914 C436.876,29.1602 436.739,29.7071 436.466,30.3321 C436.193,30.944 435.828,31.4128 435.372,31.7383 C434.37,32.4154 433.113,32.7539 431.603,32.7539 C430.483,32.7539 429.923,32.2722 429.923,31.3086 C429.923,30.8789 430.06,30.3386 430.333,29.6875 C430.594,29.0625 430.958,28.5873 431.427,28.2617 C432.43,27.5847 433.686,27.2461 435.196,27.2461"/>
<path class="Note" d="M405.405,27.2461 C406.03,27.2461 406.557,27.4089 406.987,27.7344 C407.391,28.086 407.593,28.5287 407.593,29.0625 C407.593,29.961 407.13,30.8008 406.206,31.5821 C405.268,32.3633 404.266,32.7539 403.198,32.7539 C402.573,32.7539 402.046,32.5912 401.616,32.2656 C401.212,31.9141 401.011,31.4714 401.011,30.9375 C401.011,30.0391 401.479,29.1992 402.417,28.418 C403.328,27.6367 404.324,27.2461 405.405,27.2461"/>
<path class="Note" d="M383.293,27.2461 C383.918,27.2461 384.445,27.4089 384.875,27.7344 C385.278,28.086 385.48,28.5287 385.48,29.0625 C385.48,29.961 385.018,30.8008 384.093,31.5821 C383.156,32.3633 382.153,32.7539 381.086,32.7539 C380.461,32.7539 379.933,32.5912 379.504,32.2656 C379.1,31.9141 378.898,31.4714 378.898,30.9375 C378.898,30.0391 379.367,29.1992 380.304,28.418 C381.216,27.6367 382.212,27.2461 383.293,27.2461"/>
<path class="Note" d="M361.18,27.2461 C361.805,27.2461 362.332,27.4089 362.762,27.7344 C363.166,28.086 363.368,28.5287 363.368,29.0625 C363.368,29.961 362.905,30.8008 361.981,31.5821 C361.043,32.3633 360.041,32.7539 358.973,32.7539 C358.348,32.7539 357.821,32.5912 357.391,32.2656 C356.987,31.9141 356.786,31.4714 356.786,30.9375 C356.786,30.0391 357.254,29.1992 358.192,28.418 C359.103,27.6367 360.099,27.2461 361.18,27.2461"/>
<path class="Note" d="M339.068,27.2461 C339.693,27.2461 340.22,27.4089 340.65,27.7344 C341.053,28.086 341.255,28.5287 341.255,29.0625 C341.255,29.961 340.793,30.8008 339.868,31.5821 C338.931,32.3633 337.928,32.7539 336.861,32.7539 C336.236,32.7539 335.708,32.5912 335.279,32.2656 C334.875,31.9141 334.673,31.4714 334.673,30.9375 C334.673,30.0391 335.142,29.1992 336.079,28.418 C336.991,27.6367 337.987,27.2461 339.068,27.2461"/>
<path class="Note" d="M316.955,27.2461 C317.58,27.2461 318.108,27.4089 318.537,27.7344 C318.941,28.086 319.143,28.5287 319.143,29.0625 C319.143,29.961 318.68,30.8008 317.756,31.5821 C316.818,32.3633 315.816,32.7539 314.748,32.7539 C314.123,32.7539 313.596,32.5912 313.166,32.2656 C312.762,31.9141 312.561,31.4714 312.561,30.9375 C312.561,30.0391 313.029,29.1992 313.967,28.418 C314.878,27.6367 315.874,27.2461 316.955,27.2461"/>
<path class="Note" d="M294.843,27.2461 C295.468,27.2461 295.995,27.4089 296.425,27.7344 C296.828,28.086 297.03,28.5287 297.03,29.0625 C297.03,29.961 296.568,30.8008 295.643,31.5821 C294.706,32.3633 293.703,32.7539 292.636,32.7539 C292.011,32.7539 291.483,32.5912 291.054,32.2656 C290.65,31.9141 290.448,31.4714 290.448,30.9375 C290.448,30.0391 290.917,29.1992 291.854,28.418 C292.766,27.6367 293.762,27.2461 294.843,27.2461"/>
<path class="Note" d="M209.004,28.6914 C209.004,28.4701 208.92,28.2813 208.75,28.125 C208.581,27.9557 208.386,27.8711 208.164,27.8711 C207.774,27.8711 206.986,28.2617 205.801,29.043 C204.577,29.8373 203.828,30.4037 203.555,30.7422 C203.412,30.9245 203.34,31.1133 203.34,31.3086 C203.34,31.53 203.425,31.7188 203.594,31.875 C203.75,32.0443 203.946,32.1289 204.18,32.1289 C204.558,32.1289 205.352,31.7383 206.563,30.9571 C207.761,30.1758 208.503,29.6094 208.789,29.2578 C208.933,29.0886 209.004,28.8998 209.004,28.6914 M207.969,27.2461 C209.089,27.2461 209.649,27.7279 209.649,28.6914 C209.649,29.1602 209.512,29.7071 209.239,30.3321 C208.965,30.944 208.601,31.4128 208.145,31.7383 C207.142,32.4154 205.886,32.7539 204.375,32.7539 C203.256,32.7539 202.696,32.2722 202.696,31.3086 C202.696,30.8789 202.832,30.3386 203.106,29.6875 C203.366,29.0625 203.731,28.5873 204.2,28.2617 C205.202,27.5847 206.459,27.2461 207.969,27.2461"/>
<path class="Note" d="M166.538,27.2461 C167.163,27.2461 167.691,27.4089 168.12,27.7344 C168.524,28.086 168.726,28.5287 168.726,29.0625 C168.726,29.961 168.263,30.8008 167.339,31.5821 C166.401,32.3633 165.399,32.7539 164.331,32.7539 C163.706,32.7539 163.179,32.5912 162.749,32.2656 C162.345,31.9141 162.144,31.4714 162.144,30.9375 C162.144,30.0391 162.612,29.1992 163.55,28.418 C164.461,27.6367 165.457,27.2461 166.538,27.2461"/>
<path class="Note" d="M123.735,27.2461 C124.36,27.2461 124.888,27.4089 125.317,27.7344 C125.721,28.086 125.923,28.5287 125.923,29.0625 C125.923,29.961 125.461,30.8008 124.536,31.5821 C123.599,32.3633 122.596,32.7539 121.528,32.7539 C120.903,32.7539 120.376,32.5912 119.946,32.2656 C119.543,31.9141 119.341,31.4714 119.341,30.9375 C119.341,30.0391 119.81,29.1992 120.747,28.418 C121.658,27.6367 122.655,27.2461 123.735,27.2461"/>
<path class="Note" d="M101.234,27.2461 C101.859,27.2461 102.386,27.4089 102.816,27.7344 C103.219,28.086 103.421,28.5287 103.421,29.0625 C103.421,29.961 102.959,30.8008 102.034,31.5821 C101.097,32.3633 100.094,32.7539 99.0265,32.7539 C98.4015,32.7539 97.8742,32.5912 97.4445,32.2656 C97.0408,31.9141 96.839,31.4714 96.839,30.9375 C96.839,30.0391 97.3078,29.1992 98.2453,28.418 C99.1567,27.6367 100.153,27.2461 101.234,27.2461"/>
<path class="Note" d="M78.7318,27.2461 C79.3568,27.2461 79.8841,27.4089 80.3138,27.7344 C80.7174,28.086 80.9193,28.5287 80.9193,29.0625 C80.9193,29.961 80.457,30.8008 79.5325,31.5821 C78.595,32.3633 77.5924,32.7539 76.5247,32.7539 C75.8997,32.7539 75.3724,32.5912 74.9427,32.2656 C74.5391,31.9141 74.3372,31.4714 74.3372,30.9375 C74.3372,30.0391 74.806,29.1992 75.7435,28.418 C76.6549,27.6367 77.651,27.2461 78.7318,27.2461"/>
<path class="Note" d="M42.7289,27.2461 C43.3539,27.2461 43.8813,27.4089 44.311,27.7344 C44.7146,28.086 44.9164,28.5287 44.9164,29.0625 C44.9164,29.961 44.4542,30.8008 43.5297,31.5821 C42.5922,32.3633 41.5896,32.7539 40.5219,32.7539 C39.8969,32.7539 39.3696,32.5912 38.9399,32.2656 C38.5362,31.9141 38.3344,31.4714 38.3344,30.9375 C38.3344,30.0391 38.8031,29.1992 39.7406,28.418 C40.6521,27.6367 41.6482,27.2461 42.7289,27.2461"/>
<path class="Clef" d="M13.0047,35 L11.1688,35 C11.0255,35 10.9539,34.9349 10.9539,34.8047 L10.9539,25.1953 C10.9539,25.0651 11.0255,25 11.1688,25 L13.0047,25 C13.1349,25 13.2,25.0651 13.2,25.1953 L13.2,34.8047 C13.2,34.9349 13.1349,35 13.0047,35 M8.59063,35 L6.73516,35 C6.60495,35 6.53985,34.9349 6.53985,34.8047 L6.53985,25.1953 C6.53985,25.0651 6.60495,25 6.73516,25 L8.59063,25 C8.73386,25 8.80547,25.0651 8.80547,25.1953 L8.80547,34.8047 C8.80547,34.9349 8.73386,35 8.59063,35"/>
<path class="TimeSig" d="M279.655,24.707 C279.655,24.8373 279.727,24.961 279.87,25.0781 C280.078,25.2344 280.241,25.3516 280.358,25.4297 C280.515,25.5208 280.677,25.7292 280.847,26.0547 C280.99,26.3672 281.061,26.7513 281.061,27.207 C281.061,28.1055 280.729,28.7956 280.065,29.2774 C279.388,29.7591 278.529,30 277.487,30 C276.641,30 275.925,29.7917 275.339,29.375 C274.714,28.9844 274.401,28.4375 274.401,27.7344 C274.401,27.3958 274.531,27.0833 274.792,26.7969 C275.065,26.5495 275.378,26.4258 275.729,26.4258 C276.094,26.4258 276.393,26.556 276.628,26.8164 C276.888,27.0638 277.018,27.3698 277.018,27.7344 C277.018,27.9037 276.888,28.086 276.628,28.2813 C276.354,28.4636 276.218,28.6393 276.218,28.8086 C276.218,29.056 276.341,29.2383 276.589,29.3555 C276.849,29.4727 277.149,29.5313 277.487,29.5313 C277.943,29.5313 278.268,29.3099 278.464,28.8672 C278.646,28.3854 278.737,27.832 278.737,27.207 L278.737,26.875 C278.737,26.4974 278.724,26.1654 278.698,25.8789 C278.672,25.6576 278.581,25.4557 278.425,25.2735 C278.281,25.0912 278.054,25 277.741,25 L276.14,25 C275.957,25 275.866,24.9024 275.866,24.707 C275.866,24.5378 275.957,24.4401 276.14,24.4141 L277.741,24.4141 C278.106,24.4141 278.366,24.2969 278.522,24.0625 C278.653,23.8802 278.724,23.5547 278.737,23.086 L278.737,22.4414 L278.737,22.2852 C278.737,21.0742 278.295,20.4688 277.409,20.4688 C276.628,20.4688 276.231,20.6836 276.218,21.1133 C276.218,21.2565 276.341,21.4128 276.589,21.582 C276.823,21.7513 276.94,21.9076 276.94,22.0508 C276.94,22.3763 276.823,22.6563 276.589,22.8906 C276.367,23.112 276.094,23.2227 275.768,23.2227 C275.456,23.2227 275.189,23.112 274.968,22.8906 C274.746,22.6432 274.636,22.3633 274.636,22.0508 C274.636,21.4388 274.909,20.9375 275.456,20.5469 C276.029,20.1823 276.68,20 277.409,20 C278.386,20 279.193,20.1888 279.831,20.5664 C280.469,20.931 280.788,21.5039 280.788,22.2852 C280.788,22.8451 280.729,23.2682 280.612,23.5547 C280.495,23.8542 280.365,24.0365 280.222,24.1016 C280.065,24.1667 279.935,24.2448 279.831,24.336 C279.714,24.4401 279.655,24.5638 279.655,24.707"/>
<path class="TimeSig" d="M278.19,30.2539 C278.581,30.2539 278.913,30.2084 279.186,30.1172 C279.46,30.0261 279.636,29.9805 279.714,29.9805 C279.805,29.9805 279.877,30.0065 279.929,30.0586 C279.968,30.0977 279.994,30.1433 280.007,30.1953 C280.007,30.2214 279.994,30.2604 279.968,30.3125 L274.284,36.9141 L277.624,36.9141 L277.624,34.2969 C277.624,34.1276 277.67,33.9844 277.761,33.8672 C277.917,33.737 278.047,33.6589 278.151,33.6328 C278.321,33.5547 278.529,33.3724 278.776,33.086 C278.985,32.8516 279.232,32.4414 279.518,31.8555 C279.558,31.7774 279.616,31.7383 279.694,31.7383 C279.851,31.7383 279.942,31.8294 279.968,32.0117 L279.968,36.9141 L281.393,36.9141 C281.576,36.9141 281.68,37.0117 281.706,37.2071 C281.706,37.4024 281.602,37.5 281.393,37.5 L279.968,37.5 L279.968,37.6563 C279.968,38.1771 280.098,38.6198 280.358,38.9844 C280.658,39.349 281.009,39.5313 281.413,39.5313 C281.569,39.5313 281.647,39.6094 281.647,39.7656 C281.647,39.9219 281.569,40 281.413,40 C281.14,40 280.697,39.961 280.085,39.8828 C279.525,39.7917 279.089,39.7461 278.776,39.7461 C278.451,39.7461 278.015,39.7917 277.468,39.8828 C276.882,39.961 276.446,40 276.159,40 C276.003,40 275.925,39.9219 275.925,39.7656 C275.925,39.6094 276.003,39.5313 276.159,39.5313 C276.563,39.5313 276.914,39.349 277.214,38.9844 C277.487,38.6198 277.624,38.1771 277.624,37.6563 L277.624,37.5 L274.284,37.5 C274.063,37.5 273.906,37.4479 273.815,37.3438 C273.711,37.2656 273.659,37.1615 273.659,37.0313 C273.659,36.9922 273.757,36.8555 273.952,36.6211 C274.173,36.3607 274.408,36.0417 274.655,35.6641 C274.942,35.2214 275.215,34.7656 275.476,34.2969 C275.762,33.763 275.99,33.1511 276.159,32.461 C276.354,31.7578 276.452,31.0417 276.452,30.3125 C276.452,30.1042 276.543,30 276.726,30 C276.765,30 276.849,30.0196 276.979,30.0586 C277.018,30.0716 277.1,30.0912 277.224,30.1172 C277.347,30.1433 277.448,30.1693 277.526,30.1953 C277.761,30.2344 277.982,30.2539 278.19,30.2539"/>
<path class="TimeSig" d="M27.5414,24.707 C27.5414,24.8373 27.613,24.961 27.7563,25.0781 C27.9646,25.2344 28.1274,25.3516 28.2445,25.4297 C28.4008,25.5208 28.5636,25.7292 28.7328,26.0547 C28.8761,26.3672 28.9477,26.7513 28.9477,27.207 C28.9477,28.1055 28.6156,28.7956 27.9516,29.2774 C27.2745,29.7591 26.4151,30 25.3735,30 C24.5271,30 23.811,29.7917 23.225,29.375 C22.6,28.9844 22.2875,28.4375 22.2875,27.7344 C22.2875,27.3958 22.4177,27.0833 22.6781,26.7969 C22.9516,26.5495 23.2641,26.4258 23.6156,26.4258 C23.9802,26.4258 24.2797,26.556 24.5141,26.8164 C24.7745,27.0638 24.9047,27.3698 24.9047,27.7344 C24.9047,27.9037 24.7745,28.086 24.5141,28.2813 C24.2406,28.4636 24.1039,28.6393 24.1039,28.8086 C24.1039,29.056 24.2276,29.2383 24.475,29.3555 C24.7354,29.4727 25.0349,29.5313 25.3735,29.5313 C25.8292,29.5313 26.1547,29.3099 26.35,28.8672 C26.5323,28.3854 26.6235,27.832 26.6235,27.207 L26.6235,26.875 C26.6235,26.4974 26.6104,26.1654 26.5844,25.8789 C26.5583,25.6576 26.4672,25.4557 26.311,25.2735 C26.1677,25.0912 25.9399,25 25.6274,25 L24.0258,25 C23.8435,25 23.7524,24.9024 23.7524,24.707 C23.7524,24.5378 23.8435,24.4401 24.0258,24.4141 L25.6274,24.4141 C25.9919,24.4141 26.2524,24.2969 26.4086,24.0625 C26.5388,23.8802 26.6104,23.5547 26.6235,23.086 L26.6235,22.4414 L26.6235,22.2852 C26.6235,21.0742 26.1807,20.4688 25.2953,20.4688 C24.5141,20.4688 24.1169,20.6836 24.1039,21.1133 C24.1039,21.2565 24.2276,21.4128 24.475,21.582 C24.7094,21.7513 24.8266,21.9076 24.8266,22.0508 C24.8266,22.3763 24.7094,22.6563 24.475,22.8906 C24.2537,23.112 23.9802,23.2227 23.6547,23.2227 C23.3422,23.2227 23.0753,23.112 22.8539,22.8906 C22.6326,22.6432 22.5219,22.3633 22.5219,22.0508 C22.5219,21.4388 22.7953,20.9375 23.3422,20.5469 C23.9151,20.1823 24.5662,20 25.2953,20 C26.2719,20 27.0792,20.1888 27.7172,20.5664 C28.3552,20.931 28.6742,21.5039 28.6742,22.2852 C28.6742,22.8451 28.6156,23.2682 28.4985,23.5547 C28.3813,23.8542 28.2511,24.0365 28.1078,24.1016 C27.9516,24.1667 27.8214,24.2448 27.7172,24.336 C27.6,24.4401 27.5414,24.5638 27.5414,24.707"/>
<path class="TimeSig" d="M26.0766,30.2539 C26.4672,30.2539 26.7992,30.2084 27.0727,30.1172 C27.3461,30.0261 27.5219,29.9805 27.6,29.9805 C27.6912,29.9805 27.7628,30.0065 27.8149,30.0586 C27.8539,30.0977 27.88,30.1433 27.893,30.1953 C27.893,30.2214 27.88,30.2604 27.8539,30.3125 L22.1703,36.9141 L25.5102,36.9141 L25.5102,34.2969 C25.5102,34.1276 25.5557,33.9844 25.6469,33.8672 C25.8031,33.737 25.9333,33.6589 26.0375,33.6328 C26.2068,33.5547 26.4151,33.3724 26.6625,33.086 C26.8708,32.8516 27.1182,32.4414 27.4047,31.8555 C27.4438,31.7774 27.5024,31.7383 27.5805,31.7383 C27.7367,31.7383 27.8279,31.8294 27.8539,32.0117 L27.8539,36.9141 L29.2797,36.9141 C29.462,36.9141 29.5662,37.0117 29.5922,37.2071 C29.5922,37.4024 29.488,37.5 29.2797,37.5 L27.8539,37.5 L27.8539,37.6563 C27.8539,38.1771 27.9841,38.6198 28.2445,38.9844 C28.544,39.349 28.8956,39.5313 29.2992,39.5313 C29.4555,39.5313 29.5336,39.6094 29.5336,39.7656 C29.5336,39.9219 29.4555,40 29.2992,40 C29.0258,40 28.5831,39.961 27.9711,39.8828 C27.4112,39.7917 26.975,39.7461 26.6625,39.7461 C26.337,39.7461 25.9008,39.7917 25.3539,39.8828 C24.768,39.961 24.3318,40 24.0453,40 C23.8891,40 23.811,39.9219 23.811,39.7656 C23.811,39.6094 23.8891,39.5313 24.0453,39.5313 C24.449,39.5313 24.8005,39.349 25.1,38.9844 C25.3735,38.6198 25.5102,38.1771 25.5102,37.6563 L25.5102,37.5 L22.1703,37.5 C21.949,37.5 21.7927,37.4479 21.7016,37.3438 C21.5974,37.2656 21.5453,37.1615 21.5453,37.0313 C21.5453,36.9922 21.643,36.8555 21.8383,36.6211 C22.0596,36.3607 22.294,36.0417 22.5414,35.6641 C22.8279,35.2214 23.1013,34.7656 23.3617,34.2969 C23.6482,33.763 23.8761,33.1511 24.0453,32.461 C24.2406,31.7578 24.3383,31.0417 24.3383,30.3125 C24.3383,30.1042 24.4294,30 24.6117,30 C24.6508,30 24.7354,30.0196 24.8656,30.0586 C24.9047,30.0716 24.9861,30.0912 25.1098,30.1172 C25.2335,30.1433 25.3344,30.1693 25.4125,30.1953 C25.6469,30.2344 25.8682,30.2539 26.0766,30.2539"/>
<path class="Beam" fill-rule="evenodd" d="M378.898,43.75 L401.661,43.75 L401.661,46.25 L378.898,46.25 L378.898,43.75 "/>
<path class="Beam" fill-rule="evenodd" d="M334.673,43.75 L357.436,43.75 L357.436,46.25 L334.673,46.25 L334.673,43.75 "/>
<path class="Beam" fill-rule="evenodd" d="M290.448,43.75 L313.211,43.75 L313.211,46.25 L290.448,46.25 L290.448,43.75 "/>
<path class="Beam" fill-rule="evenodd" d="M74.3372,43.75 L97.489,43.75 L97.489,46.25 L74.3372,46.25 L74.3372,43.75 "/>
<path class="StaffText" d="M297.508,18.81 L297.508,19 L294.958,19 L294.958,18.81 C295.225,18.8033 295.408,18.7767 295.508,18.73 C295.608,18.6833 295.658,18.5967 295.658,18.47 C295.658,18.31 295.595,18.0867 295.468,17.8 L295.058,16.84 L292.438,16.84 L291.978,18.01 C291.925,18.15 291.898,18.28 291.898,18.4 C291.898,18.6733 292.125,18.81 292.578,18.81 L292.578,19 L290.598,19 L290.598,18.81 C290.845,18.7967 291.037,18.7017 291.173,18.525 C291.31,18.3483 291.532,17.8967 291.838,17.17 L293.918,12.26 L294.118,12.26 L296.608,17.94 C296.768,18.3067 296.902,18.54 297.008,18.64 C297.115,18.74 297.282,18.7967 297.508,18.81 M292.608,16.43 L294.918,16.43 L293.758,13.68 L292.608,16.43 M297.751,12.77 L297.751,12.61 C298.411,12.45 298.941,12.3033 299.341,12.17 L299.381,12.19 L299.381,18.16 C299.381,18.4333 299.426,18.6117 299.516,18.695 C299.606,18.7783 299.811,18.83 300.131,18.85 L300.131,19 L297.771,19 L297.771,18.85 C298.085,18.8233 298.291,18.7633 298.391,18.67 C298.491,18.5767 298.541,18.3967 298.541,18.13 L298.541,13.36 C298.541,13.1267 298.511,12.9667 298.451,12.88 C298.391,12.7933 298.281,12.75 298.121,12.75 C297.988,12.75 297.865,12.7567 297.751,12.77 M300.329,12.77 L300.329,12.61 C300.989,12.45 301.519,12.3033 301.919,12.17 L301.959,12.19 L301.959,18.16 C301.959,18.4333 302.004,18.6117 302.094,18.695 C302.184,18.7783 302.389,18.83 302.709,18.85 L302.709,19 L300.349,19 L300.349,18.85 C300.663,18.8233 300.869,18.7633 300.969,18.67 C301.069,18.5767 301.119,18.3967 301.119,18.13 L301.119,13.36 C301.119,13.1267 301.089,12.9667 301.029,12.88 C300.969,12.7933 300.859,12.75 300.699,12.75 C300.566,12.75 300.443,12.7567 300.329,12.77 M303.778,16.23 C303.791,16.65 303.848,17.0117 303.948,17.315 C304.048,17.6183 304.178,17.845 304.338,17.995 C304.498,18.145 304.659,18.2517 304.823,18.315 C304.986,18.3783 305.158,18.41 305.338,18.41 C305.658,18.41 305.936,18.33 306.173,18.17 C306.409,18.01 306.648,17.74 306.888,17.36 L307.048,17.43 C306.841,17.97 306.554,18.3833 306.188,18.67 C305.821,18.9567 305.401,19.1 304.928,19.1 C304.354,19.1 303.899,18.8983 303.563,18.495 C303.226,18.0917 303.058,17.5467 303.058,16.86 C303.058,16.12 303.253,15.525 303.643,15.075 C304.033,14.625 304.534,14.4 305.148,14.4 C305.654,14.4 306.048,14.5517 306.328,14.855 C306.608,15.1583 306.784,15.6167 306.858,16.23 L303.778,16.23 M303.798,15.91 L305.838,15.91 C305.771,15.4767 305.668,15.1767 305.528,15.01 C305.388,14.8433 305.164,14.76 304.858,14.76 C304.258,14.76 303.904,15.1433 303.798,15.91 M307.845,18.46 C307.845,18.3333 307.89,18.2167 307.98,18.11 C308.07,18.0033 308.322,17.7567 308.735,17.37 C308.402,17.2033 308.163,17.0167 308.02,16.81 C307.877,16.6033 307.805,16.3433 307.805,16.03 C307.805,15.5767 307.967,15.1917 308.29,14.875 C308.613,14.5583 309.008,14.4 309.475,14.4 C309.735,14.4 310.013,14.455 310.31,14.565 C310.607,14.675 310.852,14.73 311.045,14.73 L311.815,14.73 L311.815,15.12 L310.985,15.12 C311.112,15.4067 311.175,15.6867 311.175,15.96 C311.175,16.42 311.02,16.7933 310.71,17.08 C310.4,17.3667 310.035,17.51 309.615,17.51 C309.535,17.51 309.345,17.4933 309.045,17.46 C308.912,17.5 308.778,17.59 308.645,17.73 C308.512,17.87 308.445,17.99 308.445,18.09 C308.445,18.25 308.705,18.34 309.225,18.36 L310.515,18.42 C310.882,18.4333 311.175,18.5367 311.395,18.73 C311.615,18.9233 311.725,19.1767 311.725,19.49 C311.725,19.97 311.45,20.3717 310.9,20.695 C310.35,21.0183 309.758,21.18 309.125,21.18 C308.652,21.18 308.245,21.085 307.905,20.895 C307.565,20.705 307.395,20.4767 307.395,20.21 C307.395,20.0233 307.47,19.8383 307.62,19.655 C307.77,19.4717 308.022,19.25 308.375,18.99 C308.168,18.89 308.028,18.8033 307.955,18.73 C307.882,18.6567 307.845,18.5667 307.845,18.46 M308.585,19.02 C308.378,19.2667 308.245,19.4433 308.185,19.55 C308.125,19.6567 308.095,19.7667 308.095,19.88 C308.095,20.1 308.228,20.2767 308.495,20.41 C308.762,20.5433 309.115,20.61 309.555,20.61 C310.122,20.61 310.578,20.52 310.925,20.34 C311.272,20.16 311.445,19.9267 311.445,19.64 C311.445,19.46 311.352,19.3333 311.165,19.26 C310.978,19.1867 310.658,19.15 310.205,19.15 C309.532,19.15 308.992,19.1067 308.585,19.02 M310.405,16.35 C310.405,16.2367 310.392,16.1 310.365,15.94 C310.338,15.78 310.292,15.5983 310.225,15.395 C310.158,15.1917 310.052,15.0217 309.905,14.885 C309.758,14.7483 309.582,14.68 309.375,14.68 C309.142,14.68 308.96,14.7633 308.83,14.93 C308.7,15.0967 308.635,15.3267 308.635,15.62 C308.635,16.1933 308.742,16.61 308.955,16.87 C309.168,17.13 309.402,17.26 309.655,17.26 C309.888,17.26 310.072,17.1783 310.205,17.015 C310.338,16.8517 310.405,16.63 310.405,16.35 M314.911,15.38 C314.811,15.38 314.688,15.3217 314.541,15.205 C314.395,15.0883 314.298,15.03 314.251,15.03 C314.118,15.03 313.968,15.1267 313.801,15.32 C313.635,15.5133 313.551,15.69 313.551,15.85 L313.551,18.1 C313.551,18.3867 313.608,18.58 313.721,18.68 C313.835,18.78 314.061,18.8367 314.401,18.85 L314.401,19 L312.001,19 L312.001,18.85 C312.321,18.79 312.52,18.7233 312.596,18.65 C312.673,18.5767 312.711,18.4133 312.711,18.16 L312.711,15.66 C312.711,15.44 312.686,15.285 312.636,15.195 C312.586,15.105 312.498,15.06 312.371,15.06 C312.265,15.06 312.148,15.0733 312.021,15.1 L312.021,14.94 C312.555,14.7667 313.048,14.5867 313.501,14.4 L313.551,14.42 L313.551,15.34 C313.798,14.9867 314.008,14.7417 314.181,14.605 C314.355,14.4683 314.545,14.4 314.751,14.4 C314.925,14.4 315.06,14.4467 315.156,14.54 C315.253,14.6333 315.301,14.7633 315.301,14.93 C315.301,15.07 315.266,15.18 315.196,15.26 C315.126,15.34 315.031,15.38 314.911,15.38 M317.799,14.4 C318.439,14.4 318.965,14.6133 319.379,15.04 C319.792,15.4667 319.999,16.0067 319.999,16.66 C319.999,17.3533 319.785,17.9333 319.359,18.4 C318.932,18.8667 318.405,19.1 317.779,19.1 C317.152,19.1 316.63,18.875 316.214,18.425 C315.797,17.975 315.589,17.4133 315.589,16.74 C315.589,16.0533 315.794,15.4917 316.204,15.055 C316.614,14.6183 317.145,14.4 317.799,14.4 M316.489,16.25 C316.489,16.9633 316.619,17.57 316.879,18.07 C317.139,18.57 317.479,18.82 317.899,18.82 C318.272,18.82 318.565,18.66 318.779,18.34 C318.992,18.02 319.099,17.5767 319.099,17.01 C319.099,16.3233 318.965,15.7633 318.699,15.33 C318.432,14.8967 318.089,14.68 317.669,14.68 C317.315,14.68 317.03,14.8233 316.814,15.11 C316.597,15.3967 316.489,15.7767 316.489,16.25"/>
<path class="StaffText" d="M294.018,8.61 C294.192,8.61 294.353,8.6 294.503,8.58 C294.653,8.56 294.785,8.53833 294.898,8.515 C295.012,8.49167 295.122,8.45333 295.228,8.4 C295.335,8.34667 295.422,8.30333 295.488,8.27 C295.555,8.23667 295.623,8.18167 295.693,8.105 C295.763,8.02833 295.817,7.97333 295.853,7.94 C295.89,7.90667 295.932,7.845 295.978,7.755 C296.025,7.665 296.055,7.60667 296.068,7.58 C296.082,7.55333 296.108,7.495 296.148,7.405 C296.188,7.315 296.208,7.26667 296.208,7.26 L296.458,7.26 L295.978,9 L290.598,9 L290.598,8.81 C290.965,8.78333 291.202,8.715 291.308,8.605 C291.415,8.495 291.468,8.26333 291.468,7.91 L291.468,3.47 C291.468,3.11667 291.415,2.885 291.308,2.775 C291.202,2.665 290.965,2.59667 290.598,2.57 L290.598,2.38 L293.418,2.38 L293.418,2.57 C293.025,2.59667 292.772,2.665 292.658,2.775 C292.545,2.885 292.488,3.11667 292.488,3.47 L292.488,8.2 C292.488,8.37333 292.54,8.485 292.643,8.535 C292.747,8.585 292.982,8.61 293.348,8.61 L294.018,8.61 M299.578,2.81 C299.718,2.81 299.838,2.86 299.938,2.96 C300.038,3.06 300.088,3.17667 300.088,3.31 C300.088,3.44333 300.038,3.55833 299.938,3.655 C299.838,3.75167 299.718,3.8 299.578,3.8 C299.444,3.8 299.331,3.75167 299.238,3.655 C299.144,3.55833 299.098,3.44 299.098,3.3 C299.098,3.17333 299.146,3.06 299.243,2.96 C299.339,2.86 299.451,2.81 299.578,2.81 M297.588,2.81 C297.728,2.81 297.848,2.86 297.948,2.96 C298.048,3.06 298.098,3.17667 298.098,3.31 C298.098,3.44333 298.048,3.55833 297.948,3.655 C297.848,3.75167 297.728,3.8 297.588,3.8 C297.454,3.8 297.341,3.75167 297.248,3.655 C297.154,3.55833 297.108,3.44 297.108,3.3 C297.108,3.17333 297.156,3.06 297.253,2.96 C297.349,2.86 297.461,2.81 297.588,2.81 M296.808,8.03 C296.808,7.91 296.821,7.79833 296.848,7.695 C296.874,7.59167 296.921,7.495 296.988,7.405 C297.054,7.315 297.118,7.23333 297.178,7.16 C297.238,7.08667 297.328,7.01167 297.448,6.935 C297.568,6.85833 297.668,6.795 297.748,6.745 C297.828,6.695 297.949,6.635 298.113,6.565 C298.276,6.495 298.401,6.44167 298.488,6.405 C298.574,6.36833 298.711,6.31333 298.898,6.24 C299.084,6.16667 299.221,6.11333 299.308,6.08 L299.308,5.47 C299.308,4.91667 299.054,4.64 298.548,4.64 C298.348,4.64 298.178,4.68833 298.038,4.785 C297.898,4.88167 297.828,4.99667 297.828,5.13 C297.828,5.18333 297.836,5.25667 297.853,5.35 C297.869,5.44333 297.878,5.50333 297.878,5.53 C297.878,5.64333 297.833,5.74167 297.743,5.825 C297.653,5.90833 297.548,5.95 297.428,5.95 C297.314,5.95 297.214,5.90667 297.128,5.82 C297.041,5.73333 296.998,5.63333 296.998,5.52 C296.998,5.20667 297.159,4.94167 297.483,4.725 C297.806,4.50833 298.204,4.4 298.678,4.4 C299.224,4.4 299.601,4.53167 299.808,4.795 C300.014,5.05833 300.118,5.46 300.118,6 L300.118,7.95 C300.118,8.17 300.139,8.32167 300.183,8.405 C300.226,8.48833 300.304,8.53 300.418,8.53 C300.558,8.53 300.704,8.46667 300.858,8.34 L300.858,8.6 C300.684,8.79333 300.533,8.925 300.403,8.995 C300.273,9.065 300.124,9.1 299.958,9.1 C299.751,9.1 299.599,9.04333 299.503,8.93 C299.406,8.81667 299.344,8.63 299.318,8.37 C298.744,8.85667 298.258,9.1 297.858,9.1 C297.551,9.1 297.299,9 297.103,8.8 C296.906,8.6 296.808,8.34333 296.808,8.03 M299.308,7.77 L299.308,6.32 C298.708,6.54 298.288,6.75333 298.048,6.96 C297.808,7.16667 297.688,7.41667 297.688,7.71 C297.688,7.98333 297.754,8.18667 297.888,8.32 C298.021,8.45333 298.164,8.52 298.318,8.52 C298.544,8.52 298.788,8.44333 299.048,8.29 C299.154,8.23 299.224,8.16667 299.258,8.1 C299.291,8.03333 299.308,7.92333 299.308,7.77 M301.001,5.02 L301.001,4.85 C301.495,4.70333 301.955,4.55333 302.381,4.4 L302.451,4.42 L302.451,5.21 C302.791,4.89 303.06,4.675 303.256,4.565 C303.453,4.455 303.668,4.4 303.901,4.4 C304.268,4.4 304.556,4.53167 304.766,4.795 C304.976,5.05833 305.081,5.42667 305.081,5.9 L305.081,8.19 C305.081,8.43667 305.121,8.60167 305.201,8.685 C305.281,8.76833 305.445,8.82333 305.691,8.85 L305.691,9 L303.611,9 L303.611,8.85 C303.865,8.83 304.033,8.76333 304.116,8.65 C304.2,8.53667 304.241,8.32333 304.241,8.01 L304.241,5.92 C304.241,5.27333 303.998,4.95 303.511,4.95 C303.345,4.95 303.191,4.98833 303.051,5.065 C302.911,5.14167 302.721,5.29333 302.481,5.52 L302.481,8.33 C302.481,8.51 302.528,8.63667 302.621,8.71 C302.715,8.78333 302.888,8.83 303.141,8.85 L303.141,9 L301.021,9 L301.021,8.85 C301.275,8.83 301.441,8.77167 301.521,8.675 C301.601,8.57833 301.641,8.38667 301.641,8.1 L301.641,5.62 C301.641,5.37333 301.615,5.205 301.561,5.115 C301.508,5.025 301.411,4.98 301.271,4.98 C301.145,4.98 301.055,4.99333 301.001,5.02 M309.196,9.1 L309.156,9.07 L309.156,8.43 C308.836,8.87667 308.41,9.1 307.876,9.1 C307.323,9.1 306.876,8.90167 306.536,8.505 C306.196,8.10833 306.026,7.59 306.026,6.95 C306.026,6.24333 306.23,5.64167 306.636,5.145 C307.043,4.64833 307.533,4.4 308.106,4.4 C308.466,4.4 308.816,4.54333 309.156,4.83 L309.156,3.27 C309.156,3.06333 309.126,2.92667 309.066,2.86 C309.006,2.79333 308.883,2.76 308.696,2.76 C308.603,2.76 308.53,2.76333 308.476,2.77 L308.476,2.61 C309.083,2.45 309.573,2.30333 309.946,2.17 L309.996,2.19 L309.996,7.86 C309.996,8.09333 310.025,8.24667 310.081,8.32 C310.138,8.39333 310.256,8.43 310.436,8.43 C310.47,8.43 310.546,8.42667 310.666,8.42 L310.666,8.58 L309.196,9.1 M308.266,8.58 C308.52,8.58 308.731,8.50833 308.901,8.365 C309.071,8.22167 309.156,8.09333 309.156,7.98 L309.156,5.68 C309.156,5.41333 309.053,5.18 308.846,4.98 C308.64,4.78 308.403,4.68 308.136,4.68 C307.756,4.68 307.453,4.85 307.226,5.19 C307,5.53 306.886,5.98333 306.886,6.55 C306.886,7.16333 307.013,7.655 307.266,8.025 C307.52,8.395 307.853,8.58 308.266,8.58 M310.861,2.77 L310.861,2.61 C311.521,2.45 312.051,2.30333 312.451,2.17 L312.491,2.19 L312.491,8.16 C312.491,8.43333 312.536,8.61167 312.626,8.695 C312.716,8.77833 312.921,8.83 313.241,8.85 L313.241,9 L310.881,9 L310.881,8.85 C311.194,8.82333 311.401,8.76333 311.501,8.67 C311.601,8.57667 311.651,8.39667 311.651,8.13 L311.651,3.36 C311.651,3.12667 311.621,2.96667 311.561,2.88 C311.501,2.79333 311.391,2.75 311.231,2.75 C311.097,2.75 310.974,2.75667 310.861,2.77 M314.309,6.23 C314.322,6.65 314.379,7.01167 314.479,7.315 C314.579,7.61833 314.709,7.845 314.869,7.995 C315.029,8.145 315.19,8.25167 315.354,8.315 C315.517,8.37833 315.689,8.41 315.869,8.41 C316.189,8.41 316.467,8.33 316.704,8.17 C316.94,8.01 317.179,7.74 317.419,7.36 L317.579,7.43 C317.372,7.97 317.085,8.38333 316.719,8.67 C316.352,8.95667 315.932,9.1 315.459,9.1 C314.885,9.1 314.43,8.89833 314.094,8.495 C313.757,8.09167 313.589,7.54667 313.589,6.86 C313.589,6.12 313.784,5.525 314.174,5.075 C314.564,4.625 315.065,4.4 315.679,4.4 C316.185,4.4 316.579,4.55167 316.859,4.855 C317.139,5.15833 317.315,5.61667 317.389,6.23 L314.309,6.23 M314.329,5.91 L316.369,5.91 C316.302,5.47667 316.199,5.17667 316.059,5.01 C315.919,4.84333 315.695,4.76 315.389,4.76 C314.789,4.76 314.435,5.14333 314.329,5.91 M320.786,5.38 C320.686,5.38 320.563,5.32167 320.416,5.205 C320.27,5.08833 320.173,5.03 320.126,5.03 C319.993,5.03 319.843,5.12667 319.676,5.32 C319.51,5.51333 319.426,5.69 319.426,5.85 L319.426,8.1 C319.426,8.38667 319.483,8.58 319.596,8.68 C319.71,8.78 319.936,8.83667 320.276,8.85 L320.276,9 L317.876,9 L317.876,8.85 C318.196,8.79 318.395,8.72333 318.471,8.65 C318.548,8.57667 318.586,8.41333 318.586,8.16 L318.586,5.66 C318.586,5.44 318.561,5.285 318.511,5.195 C318.461,5.105 318.373,5.06 318.246,5.06 C318.14,5.06 318.023,5.07333 317.896,5.1 L317.896,4.94 C318.43,4.76667 318.923,4.58667 319.376,4.4 L319.426,4.42 L319.426,5.34 C319.673,4.98667 319.883,4.74167 320.056,4.605 C320.23,4.46833 320.42,4.4 320.626,4.4 C320.8,4.4 320.935,4.44667 321.031,4.54 C321.128,4.63333 321.176,4.76333 321.176,4.93 C321.176,5.07 321.141,5.18 321.071,5.26 C321.001,5.34 320.906,5.38 320.786,5.38"/>
<path class="StaffText" d="M45.3944,18.81 L45.3944,19 L42.8444,19 L42.8444,18.81 C43.1111,18.8033 43.2944,18.7767 43.3944,18.73 C43.4944,18.6833 43.5444,18.5967 43.5444,18.47 C43.5444,18.31 43.4811,18.0867 43.3544,17.8 L42.9444,16.84 L40.3244,16.84 L39.8644,18.01 C39.8111,18.15 39.7844,18.28 39.7844,18.4 C39.7844,18.6733 40.0111,18.81 40.4644,18.81 L40.4644,19 L38.4844,19 L38.4844,18.81 C38.7311,18.7967 38.9227,18.7017 39.0594,18.525 C39.1961,18.3483 39.4177,17.8967 39.7244,17.17 L41.8044,12.26 L42.0044,12.26 L44.4944,17.94 C44.6544,18.3067 44.7877,18.54 44.8944,18.64 C45.0011,18.74 45.1677,18.7967 45.3944,18.81 M40.4944,16.43 L42.8044,16.43 L41.6444,13.68 L40.4944,16.43 M45.6375,12.77 L45.6375,12.61 C46.2975,12.45 46.8275,12.3033 47.2275,12.17 L47.2675,12.19 L47.2675,18.16 C47.2675,18.4333 47.3125,18.6117 47.4025,18.695 C47.4925,18.7783 47.6975,18.83 48.0175,18.85 L48.0175,19 L45.6575,19 L45.6575,18.85 C45.9709,18.8233 46.1775,18.7633 46.2775,18.67 C46.3775,18.5767 46.4275,18.3967 46.4275,18.13 L46.4275,13.36 C46.4275,13.1267 46.3975,12.9667 46.3375,12.88 C46.2775,12.7933 46.1675,12.75 46.0075,12.75 C45.8742,12.75 45.7509,12.7567 45.6375,12.77 M48.2156,12.77 L48.2156,12.61 C48.8756,12.45 49.4056,12.3033 49.8056,12.17 L49.8456,12.19 L49.8456,18.16 C49.8456,18.4333 49.8906,18.6117 49.9806,18.695 C50.0706,18.7783 50.2756,18.83 50.5956,18.85 L50.5956,19 L48.2356,19 L48.2356,18.85 C48.549,18.8233 48.7556,18.7633 48.8556,18.67 C48.9556,18.5767 49.0056,18.3967 49.0056,18.13 L49.0056,13.36 C49.0056,13.1267 48.9756,12.9667 48.9156,12.88 C48.8556,12.7933 48.7456,12.75 48.5856,12.75 C48.4523,12.75 48.329,12.7567 48.2156,12.77 M51.6638,16.23 C51.6771,16.65 51.7338,17.0117 51.8338,17.315 C51.9338,17.6183 52.0638,17.845 52.2238,17.995 C52.3838,18.145 52.5454,18.2517 52.7088,18.315 C52.8721,18.3783 53.0438,18.41 53.2238,18.41 C53.5438,18.41 53.8221,18.33 54.0588,18.17 C54.2954,18.01 54.5338,17.74 54.7738,17.36 L54.9338,17.43 C54.7271,17.97 54.4404,18.3833 54.0738,18.67 C53.7071,18.9567 53.2871,19.1 52.8138,19.1 C52.2404,19.1 51.7854,18.8983 51.4488,18.495 C51.1121,18.0917 50.9438,17.5467 50.9438,16.86 C50.9438,16.12 51.1388,15.525 51.5288,15.075 C51.9188,14.625 52.4204,14.4 53.0338,14.4 C53.5404,14.4 53.9338,14.5517 54.2138,14.855 C54.4938,15.1583 54.6704,15.6167 54.7438,16.23 L51.6638,16.23 M51.6838,15.91 L53.7238,15.91 C53.6571,15.4767 53.5538,15.1767 53.4138,15.01 C53.2738,14.8433 53.0504,14.76 52.7438,14.76 C52.1438,14.76 51.7904,15.1433 51.6838,15.91 M55.7313,18.46 C55.7313,18.3333 55.7763,18.2167 55.8663,18.11 C55.9563,18.0033 56.2079,17.7567 56.6213,17.37 C56.2879,17.2033 56.0496,17.0167 55.9063,16.81 C55.7629,16.6033 55.6913,16.3433 55.6913,16.03 C55.6913,15.5767 55.8529,15.1917 56.1763,14.875 C56.4996,14.5583 56.8946,14.4 57.3613,14.4 C57.6213,14.4 57.8996,14.455 58.1963,14.565 C58.4929,14.675 58.7379,14.73 58.9313,14.73 L59.7013,14.73 L59.7013,15.12 L58.8713,15.12 C58.9979,15.4067 59.0613,15.6867 59.0613,15.96 C59.0613,16.42 58.9063,16.7933 58.5963,17.08 C58.2863,17.3667 57.9213,17.51 57.5013,17.51 C57.4213,17.51 57.2313,17.4933 56.9313,17.46 C56.7979,17.5 56.6646,17.59 56.5313,17.73 C56.3979,17.87 56.3313,17.99 56.3313,18.09 C56.3313,18.25 56.5913,18.34 57.1113,18.36 L58.4013,18.42 C58.7679,18.4333 59.0613,18.5367 59.2813,18.73 C59.5013,18.9233 59.6113,19.1767 59.6113,19.49 C59.6113,19.97 59.3363,20.3717 58.7863,20.695 C58.2363,21.0183 57.6446,21.18 57.0113,21.18 C56.5379,21.18 56.1313,21.085 55.7913,20.895 C55.4513,20.705 55.2813,20.4767 55.2813,20.21 C55.2813,20.0233 55.3563,19.8383 55.5063,19.655 C55.6563,19.4717 55.9079,19.25 56.2613,18.99 C56.0546,18.89 55.9146,18.8033 55.8413,18.73 C55.7679,18.6567 55.7313,18.5667 55.7313,18.46 M56.4713,19.02 C56.2646,19.2667 56.1313,19.4433 56.0713,19.55 C56.0113,19.6567 55.9813,19.7667 55.9813,19.88 C55.9813,20.1 56.1146,20.2767 56.3813,20.41 C56.6479,20.5433 57.0013,20.61 57.4413,20.61 C58.0079,20.61 58.4646,20.52 58.8113,20.34 C59.1579,20.16 59.3313,19.9267 59.3313,19.64 C59.3313,19.46 59.2379,19.3333 59.0513,19.26 C58.8646,19.1867 58.5446,19.15 58.0913,19.15 C57.4179,19.15 56.8779,19.1067 56.4713,19.02 M58.2913,16.35 C58.2913,16.2367 58.2779,16.1 58.2513,15.94 C58.2246,15.78 58.1779,15.5983 58.1113,15.395 C58.0446,15.1917 57.9379,15.0217 57.7913,14.885 C57.6446,14.7483 57.4679,14.68 57.2613,14.68 C57.0279,14.68 56.8463,14.7633 56.7163,14.93 C56.5863,15.0967 56.5213,15.3267 56.5213,15.62 C56.5213,16.1933 56.6279,16.61 56.8413,16.87 C57.0546,17.13 57.2879,17.26 57.5413,17.26 C57.7746,17.26 57.9579,17.1783 58.0913,17.015 C58.2246,16.8517 58.2913,16.63 58.2913,16.35 M62.7975,15.38 C62.6975,15.38 62.5742,15.3217 62.4275,15.205 C62.2809,15.0883 62.1842,15.03 62.1375,15.03 C62.0042,15.03 61.8542,15.1267 61.6875,15.32 C61.5209,15.5133 61.4375,15.69 61.4375,15.85 L61.4375,18.1 C61.4375,18.3867 61.4942,18.58 61.6075,18.68 C61.7209,18.78 61.9475,18.8367 62.2875,18.85 L62.2875,19 L59.8875,19 L59.8875,18.85 C60.2075,18.79 60.4059,18.7233 60.4825,18.65 C60.5592,18.5767 60.5975,18.4133 60.5975,18.16 L60.5975,15.66 C60.5975,15.44 60.5725,15.285 60.5225,15.195 C60.4725,15.105 60.3842,15.06 60.2575,15.06 C60.1509,15.06 60.0342,15.0733 59.9075,15.1 L59.9075,14.94 C60.4409,14.7667 60.9342,14.5867 61.3875,14.4 L61.4375,14.42 L61.4375,15.34 C61.6842,14.9867 61.8942,14.7417 62.0675,14.605 C62.2409,14.4683 62.4309,14.4 62.6375,14.4 C62.8109,14.4 62.9459,14.4467 63.0425,14.54 C63.1392,14.6333 63.1875,14.7633 63.1875,14.93 C63.1875,15.07 63.1525,15.18 63.0825,15.26 C63.0125,15.34 62.9175,15.38 62.7975,15.38 M65.685,14.4 C66.325,14.4 66.8517,14.6133 67.265,15.04 C67.6784,15.4667 67.885,16.0067 67.885,16.66 C67.885,17.3533 67.6717,17.9333 67.245,18.4 C66.8184,18.8667 66.2917,19.1 65.665,19.1 C65.0384,19.1 64.5167,18.875 64.1,18.425 C63.6834,17.975 63.475,17.4133 63.475,16.74 C63.475,16.0533 63.68,15.4917 64.09,15.055 C64.5,14.6183 65.0317,14.4 65.685,14.4 M64.375,16.25 C64.375,16.9633 64.505,17.57 64.765,18.07 C65.025,18.57 65.365,18.82 65.785,18.82 C66.1584,18.82 66.4517,18.66 66.665,18.34 C66.8784,18.02 66.985,17.5767 66.985,17.01 C66.985,16.3233 66.8517,15.7633 66.585,15.33 C66.3184,14.8967 65.975,14.68 65.555,14.68 C65.2017,14.68 64.9167,14.8233 64.7,15.11 C64.4834,15.3967 64.375,15.7767 64.375,16.25"/>
<path class="StaffText" d="M45.1044,3.27 L42.5444,9 L42.4044,9 L39.8944,3.5 L39.8944,7.53 C39.8944,8.03667 39.9544,8.37167 40.0744,8.535 C40.1944,8.69833 40.4477,8.79 40.8344,8.81 L40.8344,9 L38.4844,9 L38.4844,8.81 C38.8977,8.78333 39.1627,8.69167 39.2794,8.535 C39.3961,8.37833 39.4544,8.04333 39.4544,7.53 L39.4544,3.47 C39.4544,3.10333 39.3994,2.86833 39.2894,2.765 C39.1794,2.66167 38.9177,2.59667 38.5044,2.57 L38.5044,2.38 L40.4844,2.38 L42.7944,7.43 L45.0044,2.38 L46.9944,2.38 L46.9944,2.57 C46.6211,2.60333 46.3827,2.67333 46.2794,2.78 C46.1761,2.88667 46.1244,3.11667 46.1244,3.47 L46.1244,7.91 C46.1244,8.26333 46.1777,8.495 46.2844,8.605 C46.3911,8.715 46.6277,8.78333 46.9944,8.81 L46.9944,9 L44.1944,9 L44.1944,8.81 C44.5877,8.78333 44.8377,8.71167 44.9444,8.595 C45.0511,8.47833 45.1044,8.21333 45.1044,7.8 L45.1044,3.27 M48.1013,6.23 C48.1146,6.65 48.1713,7.01167 48.2713,7.315 C48.3713,7.61833 48.5013,7.845 48.6613,7.995 C48.8213,8.145 48.9829,8.25167 49.1463,8.315 C49.3096,8.37833 49.4813,8.41 49.6613,8.41 C49.9813,8.41 50.2596,8.33 50.4963,8.17 C50.7329,8.01 50.9713,7.74 51.2113,7.36 L51.3713,7.43 C51.1646,7.97 50.8779,8.38333 50.5113,8.67 C50.1446,8.95667 49.7246,9.1 49.2513,9.1 C48.6779,9.1 48.2229,8.89833 47.8863,8.495 C47.5496,8.09167 47.3813,7.54667 47.3813,6.86 C47.3813,6.12 47.5763,5.525 47.9663,5.075 C48.3563,4.625 48.8579,4.4 49.4713,4.4 C49.9779,4.4 50.3713,4.55167 50.6513,4.855 C50.9313,5.15833 51.1079,5.61667 51.1813,6.23 L48.1013,6.23 M48.1213,5.91 L50.1613,5.91 C50.0946,5.47667 49.9913,5.17667 49.8513,5.01 C49.7113,4.84333 49.4879,4.76 49.1813,4.76 C48.5813,4.76 48.2279,5.14333 48.1213,5.91 M51.6688,5.02 L51.6688,4.85 C52.1621,4.70333 52.6221,4.55333 53.0488,4.4 L53.1188,4.42 L53.1188,5.21 C53.4588,4.89 53.7271,4.675 53.9238,4.565 C54.1204,4.455 54.3354,4.4 54.5688,4.4 C54.9354,4.4 55.2238,4.53167 55.4338,4.795 C55.6438,5.05833 55.7488,5.42667 55.7488,5.9 L55.7488,8.19 C55.7488,8.43667 55.7888,8.60167 55.8688,8.685 C55.9488,8.76833 56.1121,8.82333 56.3588,8.85 L56.3588,9 L54.2788,9 L54.2788,8.85 C54.5321,8.83 54.7004,8.76333 54.7838,8.65 C54.8671,8.53667 54.9088,8.32333 54.9088,8.01 L54.9088,5.92 C54.9088,5.27333 54.6654,4.95 54.1788,4.95 C54.0121,4.95 53.8588,4.98833 53.7188,5.065 C53.5788,5.14167 53.3888,5.29333 53.1488,5.52 L53.1488,8.33 C53.1488,8.51 53.1954,8.63667 53.2888,8.71 C53.3821,8.78333 53.5554,8.83 53.8088,8.85 L53.8088,9 L51.6888,9 L51.6888,8.85 C51.9421,8.83 52.1088,8.77167 52.1888,8.675 C52.2688,8.57833 52.3088,8.38667 52.3088,8.1 L52.3088,5.62 C52.3088,5.37333 52.2821,5.205 52.2288,5.115 C52.1754,5.025 52.0788,4.98 51.9388,4.98 C51.8121,4.98 51.7221,4.99333 51.6688,5.02 M61.2438,8.5 L61.2438,8.64 C60.7238,8.78 60.2671,8.93 59.8738,9.09 L59.8338,9.07 L59.8338,8.24 C59.8138,8.26 59.7554,8.32 59.6588,8.42 C59.5621,8.52 59.4938,8.58833 59.4538,8.625 C59.4138,8.66167 59.3454,8.71833 59.2488,8.795 C59.1521,8.87167 59.0671,8.92667 58.9938,8.96 C58.9204,8.99333 58.8271,9.025 58.7138,9.055 C58.6004,9.085 58.4871,9.1 58.3738,9.1 C58.0071,9.1 57.7138,8.98167 57.4938,8.745 C57.2738,8.50833 57.1638,8.19333 57.1638,7.8 L57.1638,5.28 C57.1638,5.04667 57.1204,4.885 57.0338,4.795 C56.9471,4.705 56.7838,4.65333 56.5438,4.64 L56.5438,4.5 L58.0038,4.5 L58.0038,7.76 C58.0038,7.96667 58.0738,8.145 58.2138,8.295 C58.3538,8.445 58.5204,8.52 58.7138,8.52 C58.7871,8.52 58.8738,8.51 58.9738,8.49 C59.0738,8.47 59.1888,8.43167 59.3188,8.375 C59.4488,8.31833 59.5588,8.22833 59.6488,8.105 C59.7388,7.98167 59.7838,7.83 59.7838,7.65 L59.7838,5.3 C59.7838,5.05333 59.7388,4.89 59.6488,4.81 C59.5588,4.73 59.3571,4.68333 59.0438,4.67 L59.0438,4.5 L60.6238,4.5 L60.6238,7.93 C60.6238,8.16333 60.6604,8.31667 60.7338,8.39 C60.8071,8.46333 60.9604,8.5 61.1938,8.5 L61.2438,8.5 M62.3044,6.23 C62.3177,6.65 62.3744,7.01167 62.4744,7.315 C62.5744,7.61833 62.7044,7.845 62.8644,7.995 C63.0244,8.145 63.1861,8.25167 63.3494,8.315 C63.5127,8.37833 63.6844,8.41 63.8644,8.41 C64.1844,8.41 64.4627,8.33 64.6994,8.17 C64.9361,8.01 65.1744,7.74 65.4144,7.36 L65.5744,7.43 C65.3677,7.97 65.0811,8.38333 64.7144,8.67 C64.3477,8.95667 63.9277,9.1 63.4544,9.1 C62.8811,9.1 62.4261,8.89833 62.0894,8.495 C61.7527,8.09167 61.5844,7.54667 61.5844,6.86 C61.5844,6.12 61.7794,5.525 62.1694,5.075 C62.5594,4.625 63.0611,4.4 63.6744,4.4 C64.1811,4.4 64.5744,4.55167 64.8544,4.855 C65.1344,5.15833 65.3111,5.61667 65.3844,6.23 L62.3044,6.23 M62.3244,5.91 L64.3644,5.91 C64.2977,5.47667 64.1944,5.17667 64.0544,5.01 C63.9144,4.84333 63.6911,4.76 63.3844,4.76 C62.7844,4.76 62.4311,5.14333 62.3244,5.91 M68.3619,4.5 L68.3619,4.82 L67.3519,4.82 L67.3519,7.68 C67.3519,7.99333 67.3919,8.22167 67.4719,8.365 C67.5519,8.50833 67.6852,8.58 67.8719,8.58 C68.0786,8.58 68.2786,8.46333 68.4719,8.23 L68.6019,8.34 C68.2819,8.84667 67.8819,9.1 67.4019,9.1 C66.8086,9.1 66.5119,8.67667 66.5119,7.83 L66.5119,4.82 L65.9819,4.82 C65.9552,4.8 65.9419,4.77667 65.9419,4.75 C65.9419,4.71667 65.9519,4.69 65.9719,4.67 C65.9919,4.65 66.0302,4.62167 66.0869,4.585 C66.1436,4.54833 66.2119,4.49833 66.2919,4.435 C66.3719,4.37167 66.4819,4.25667 66.6219,4.09 C66.7619,3.92333 66.9152,3.72333 67.0819,3.49 C67.1886,3.33667 67.2552,3.24333 67.2819,3.21 C67.3286,3.21 67.3519,3.25333 67.3519,3.34 L67.3519,4.5 L68.3619,4.5 "/>
</svg>
