<?xml version="1.0" encoding="UTF-8" standalone="no"?>
<svg width="538.752px" height="65.7638px" viewBox="0 0 538.752 65.7638"
 xmlns="http://www.w3.org/2000/svg" xmlns:xlink="http://www.w3.org/1999/xlink" version="1.2" baseProfile="tiny">
<title>Walking bass</title>
<desc>Generated by MuseScore 2.3.2</desc>
<polyline class="StaffLines" fill="none" stroke="#000000" stroke-width="0.36" stroke-linejoin="bevel" points="0,18.1417 538.752,18.1417"/>
<polyline class="StaffLines" fill="none" stroke="#000000" stroke-width="0.36" stroke-linejoin="bevel" points="0,22.6772 538.752,22.6772"/>
<polyline class="StaffLines" fill="none" stroke="#000000" stroke-width="0.36" stroke-linejoin="bevel" points="0,27.2126 538.752,27.2126"/>
<polyline class="StaffLines" fill="none" stroke="#000000" stroke-width="0.36" stroke-linejoin="bevel" points="0,31.748 538.752,31.748"/>
<polyline class="StaffLines" fill="none" stroke="#000000" stroke-width="0.36" stroke-linejoin="bevel" points="0,36.2835 538.752,36.2835"/>
<polyline class="BarLine" fill="none" stroke="#000000" stroke-width="0.73" stroke-linejoin="bevel" points="538.389,18.1417 538.389,36.2835"/>
<polyline class="BarLine" fill="none" stroke="#000000" stroke-width="0.73" stroke-linejoin="bevel" points="410.601,18.1417 410.601,36.2835"/>
<polyline class="BarLine" fill="none" stroke="#000000" stroke-width="0.73" stroke-linejoin="bevel" points="281.839,18.1417 281.839,36.2835"/>
<polyline class="BarLine" fill="none" stroke="#000000" stroke-width="0.73" stroke-linejoin="bevel" points="153.077,18.1417 153.077,36.2835"/>
<path class="Accidental" transform="matrix(0.907087,0,0,0.907087,502.601,27.2126)" d="M0.917969,-0.820312 L0.917969,0.722656 C0.917969,1.26953 0.94401,1.70573 0.996094,2.03125 C1.42578,1.66667 1.73177,1.39323 1.91406,1.21094 C2.1224,1.0026 2.33073,0.716146 2.53906,0.351562 C2.7474,-0.0130208 2.85156,-0.377604 2.85156,-0.742188 C2.85156,-1.10677 2.77344,-1.41927 2.61719,-1.67969 C2.46094,-1.9401 2.2526,-2.07031 1.99219,-2.07031 C1.67969,-2.07031 1.41927,-1.95312 1.21094,-1.71875 C1.01562,-1.45833 0.917969,-1.15885 0.917969,-0.820312 M0.0976562,2.75391 L-0.15625,-9.14062 C0.0260417,-9.24479 0.208333,-9.29688 0.390625,-9.29688 C0.572917,-9.29688 0.755208,-9.24479 0.9375,-9.14062 L0.78125,-2.24609 C1.3151,-2.70182 1.92708,-2.92969 2.61719,-2.92969 C3.125,-2.92969 3.54818,-2.72135 3.88672,-2.30469 C4.22526,-1.88802 4.39453,-1.41276 4.39453,-0.878906 C4.39453,-0.540365 4.28385,-0.182292 4.0625,0.195312 C3.85417,0.546875 3.63281,0.820312 3.39844,1.01562 C3.26823,1.11979 2.9362,1.38021 2.40234,1.79688 C2.24609,1.91406 2.06055,2.05078 1.8457,2.20703 C1.63086,2.36328 1.4974,2.46094 1.44531,2.5 C1.35417,2.55208 1.26953,2.65625 1.19141,2.8125 C1.10026,2.94271 0.996094,3.05339 0.878906,3.14453 C0.78776,3.22266 0.677083,3.26172 0.546875,3.26172 C0.416667,3.26172 0.3125,3.21615 0.234375,3.125 C0.143229,3.03385 0.0976562,2.91016 0.0976562,2.75391"/>
<path class="Accidental" transform="matrix(0.907087,0,0,0.907087,373.596,38.5512)" d="M4.31641,6.23047 C4.31641,6.47786 4.19271,6.60156 3.94531,6.60156 C3.69792,6.60156 3.57422,6.47786 3.57422,6.23047 L3.57422,3.33984 L1.91406,3.96484 L1.91406,7.12891 C1.91406,7.3763 1.79036,7.5 1.54297,7.5 C1.29557,7.5 1.17188,7.3763 1.17188,7.12891 L1.17188,4.21875 L0.546875,4.45312 C0.533854,4.46615 0.481771,4.47266 0.390625,4.47266 C0.286458,4.47266 0.195312,4.43359 0.117188,4.35547 C0.0390625,4.27734 0,4.1862 0,4.08203 L0,2.87109 C0,2.67578 0.0846354,2.55208 0.253906,2.5 L1.17188,2.1875 L1.17188,-1.01562 L0.546875,-0.800781 C0.533854,-0.78776 0.481771,-0.78125 0.390625,-0.78125 C0.286458,-0.78125 0.195312,-0.820312 0.117188,-0.898438 C0.0390625,-0.976562 0,-1.06771 0,-1.17188 L0,-2.38281 C0,-2.5651 0.0846354,-2.68229 0.253906,-2.73438 L1.17188,-3.08594 L1.17188,-6.23047 C1.17188,-6.47786 1.29557,-6.60156 1.54297,-6.60156 C1.79036,-6.60156 1.91406,-6.47786 1.91406,-6.23047 L1.91406,-3.33984 L3.57422,-3.96484 L3.57422,-7.12891 C3.57422,-7.3763 3.69792,-7.5 3.94531,-7.5 C4.19271,-7.5 4.31641,-7.3763 4.31641,-7.12891 L4.31641,-4.21875 L4.96094,-4.45312 C4.97396,-4.46615 5.01953,-4.47266 5.09766,-4.47266 C5.1888,-4.47266 5.28646,-4.43359 5.39062,-4.35547 C5.46875,-4.27734 5.50781,-4.1862 5.50781,-4.08203 L5.50781,-2.87109 C5.50781,-2.6888 5.41667,-2.5651 5.23438,-2.5 L4.31641,-2.1875 L4.31641,1.01562 L4.96094,0.800781 C4.97396,0.78776 5.01953,0.78125 5.09766,0.78125 C5.1888,0.78125 5.28646,0.820312 5.39062,0.898438 C5.46875,0.976562 5.50781,1.06771 5.50781,1.17188 L5.50781,2.38281 C5.50781,2.55208 5.41667,2.66927 5.23438,2.73438 L4.31641,3.08594 L4.31641,6.23047 M3.57422,-1.89453 L1.91406,-1.30859 L1.91406,1.89453 L3.57422,1.30859 L3.57422,-1.89453 "/>
<path class="Accidental" transform="matrix(0.907087,0,0,0.907087,244.834,29.4803)" d="M4.31641,6.23047 C4.31641,6.47786 4.19271,6.60156 3.94531,6.60156 C3.69792,6.60156 3.57422,6.47786 3.57422,6.23047 L3.57422,3.33984 L1.91406,3.96484 L1.91406,7.12891 C1.91406,7.3763 1.79036,7.5 1.54297,7.5 C1.29557,7.5 1.17188,7.3763 1.17188,7.12891 L1.17188,4.21875 L0.546875,4.45312 C0.533854,4.46615 0.481771,4.47266 0.390625,4.47266 C0.286458,4.47266 0.195312,4.43359 0.117188,4.35547 C0.0390625,4.27734 0,4.1862 0,4.08203 L0,2.87109 C0,2.67578 0.0846354,2.55208 0.253906,2.5 L1.17188,2.1875 L1.17188,-1.01562 L0.546875,-0.800781 C0.533854,-0.78776 0.481771,-0.78125 0.390625,-0.78125 C0.286458,-0.78125 0.195312,-0.820312 0.117188,-0.898438 C0.0390625,-0.976562 0,-1.06771 0,-1.17188 L0,-2.38281 C0,-2.5651 0.0846354,-2.68229 0.253906,-2.73438 L1.17188,-3.08594 L1.17188,-6.23047 C1.17188,-6.47786 1.29557,-6.60156 1.54297,-6.60156 C1.79036,-6.60156 1.91406,-6.47786 1.91406,-6.23047 L1.91406,-3.33984 L3.57422,-3.96484 L3.57422,-7.12891 C3.57422,-7.3763 3.69792,-7.5 3.94531,-7.5 C4.19271,-7.5 4.31641,-7.3763 4.31641,-7.12891 L4.31641,-4.21875 L4.96094,-4.45312 C4.97396,-4.46615 5.01953,-4.47266 5.09766,-4.47266 C5.1888,-4.47266 5.28646,-4.43359 5.39062,-4.35547 C5.46875,-4.27734 5.50781,-4.1862 5.50781,-4.08203 L5.50781,-2.87109 C5.50781,-2.6888 5.41667,-2.5651 5.23438,-2.5 L4.31641,-2.1875 L4.31641,1.01562 L4.96094,0.800781 C4.97396,0.78776 5.01953,0.78125 5.09766,0.78125 C5.1888,0.78125 5.28646,0.820312 5.39062,0.898438 C5.46875,0.976562 5.50781,1.06771 5.50781,1.17188 L5.50781,2.38281 C5.50781,2.55208 5.41667,2.66927 5.23438,2.73438 L4.31641,3.08594 L4.31641,6.23047 M3.57422,-1.89453 L1.91406,-1.30859 L1.91406,1.89453 L3.57422,1.30859 L3.57422,-1.89453 "/>
<path class="Accidental" transform="matrix(0.907087,0,0,0.907087,118.242,31.748)" d="M0.917969,-0.820312 L0.917969,0.722656 C0.917969,1.26953 0.94401,1.70573 0.996094,2.03125 C1.42578,1.66667 1.73177,1.39323 1.91406,1.21094 C2.1224,1.0026 2.33073,0.716146 2.53906,0.351562 C2.7474,-0.0130208 2.85156,-0.377604 2.85156,-0.742188 C2.85156,-1.10677 2.77344,-1.41927 2.61719,-1.67969 C2.46094,-1.9401 2.2526,-2.07031 1.99219,-2.07031 C1.67969,-2.07031 1.41927,-1.95312 1.21094,-1.71875 C1.01562,-1.45833 0.917969,-1.15885 0.917969,-0.820312 M0.0976562,2.75391 L-0.15625,-9.14062 C0.0260417,-9.24479 0.208333,-9.29688 0.390625,-9.29688 C0.572917,-9.29688 0.755208,-9.24479 0.9375,-9.14062 L0.78125,-2.24609 C1.3151,-2.70182 1.92708,-2.92969 2.61719,-2.92969 C3.125,-2.92969 3.54818,-2.72135 3.88672,-2.30469 C4.22526,-1.88802 4.39453,-1.41276 4.39453,-0.878906 C4.39453,-0.540365 4.28385,-0.182292 4.0625,0.195312 C3.85417,0.546875 3.63281,0.820312 3.39844,1.01562 C3.26823,1.11979 2.9362,1.38021 2.40234,1.79688 C2.24609,1.91406 2.06055,2.05078 1.8457,2.20703 C1.63086,2.36328 1.4974,2.46094 1.44531,2.5 C1.35417,2.55208 1.26953,2.65625 1.19141,2.8125 C1.10026,2.94271 0.996094,3.05339 0.878906,3.14453 C0.78776,3.22266 0.677083,3.26172 0.546875,3.26172 C0.416667,3.26172 0.3125,3.21615 0.234375,3.125 C0.143229,3.03385 0.0976562,2.91016 0.0976562,2.75391"/>
<polyline class="Stem" fill="none" stroke="#000000" stroke-width="0.59" stroke-linecap="round" stroke-linejoin="bevel" points="507.916,28.0644 507.916,41.3858"/>
<polyline class="Stem" fill="none" stroke="#000000" stroke-width="0.59" stroke-linecap="round" stroke-linejoin="bevel" points="477.511,28.0644 477.511,41.3858"/>
<polyline class="Stem" fill="none" stroke="#000000" stroke-width="0.59" stroke-linecap="round" stroke-linejoin="bevel" points="452.488,30.8962 452.488,16.4409"/>
<polyline class="Stem" fill="none" stroke="#000000" stroke-width="0.59" stroke-linecap="round" stroke-linejoin="bevel" points="422.083,35.4316 422.083,20.4094"/>
<polyline class="Stem" fill="none" stroke="#000000" stroke-width="0.59" stroke-linecap="round" stroke-linejoin="bevel" points="385.266,37.6994 385.266,22.6772"/>
<polyline class="Stem" fill="none" stroke="#000000" stroke-width="0.59" stroke-linecap="round" stroke-linejoin="bevel" points="354.618,37.6994 354.618,22.6772"/>
<polyline class="Stem" fill="none" stroke="#000000" stroke-width="0.59" stroke-linecap="round" stroke-linejoin="bevel" points="323.969,33.1639 323.969,18.1417"/>
<polyline class="Stem" fill="none" stroke="#000000" stroke-width="0.59" stroke-linecap="round" stroke-linejoin="bevel" points="287.939,28.0644 287.939,41.3858"/>
<polyline class="Stem" fill="none" stroke="#000000" stroke-width="0.59" stroke-linecap="round" stroke-linejoin="bevel" points="256.504,28.6285 256.504,14.7402"/>
<polyline class="Stem" fill="none" stroke="#000000" stroke-width="0.59" stroke-linecap="round" stroke-linejoin="bevel" points="225.856,28.6285 225.856,14.7402"/>
<polyline class="Stem" fill="none" stroke="#000000" stroke-width="0.59" stroke-linecap="round" stroke-linejoin="bevel" points="195.208,30.8962 195.208,16.4409"/>
<polyline class="Stem" fill="none" stroke="#000000" stroke-width="0.59" stroke-linecap="round" stroke-linejoin="bevel" points="164.559,33.1639 164.559,18.1417"/>
<polyline class="Stem" fill="none" stroke="#000000" stroke-width="0.59" stroke-linecap="round" stroke-linejoin="bevel" points="128.938,30.8962 128.938,16.4409"/>
<polyline class="Stem" fill="none" stroke="#000000" stroke-width="0.59" stroke-linecap="round" stroke-linejoin="bevel" points="99.4859,28.6285 99.4859,14.7402"/>
<polyline class="Stem" fill="none" stroke="#000000" stroke-width="0.59" stroke-linecap="round" stroke-linejoin="bevel" points="70.0333,35.4316 70.0333,20.4094"/>
<polyline class="Stem" fill="none" stroke="#000000" stroke-width="0.59" stroke-linecap="round" stroke-linejoin="bevel" points="40.5808,28.6285 40.5808,14.7402"/>
<path class="Note" transform="matrix(0.907087,0,0,0.907087,507.621,27.2126)" d="M4.39453,-2.75391 C5.01953,-2.75391 5.54688,-2.59115 5.97656,-2.26562 C6.38021,-1.91406 6.58203,-1.47135 6.58203,-0.9375 C6.58203,-0.0390625 6.11979,0.800781 5.19531,1.58203 C4.25781,2.36328 3.25521,2.75391 2.1875,2.75391 C1.5625,2.75391 1.03516,2.59115 0.605469,2.26562 C0.201823,1.91406 0,1.47135 0,0.9375 C0,0.0390625 0.46875,-0.800781 1.40625,-1.58203 C2.31771,-2.36328 3.3138,-2.75391 4.39453,-2.75391"/>
<path class="Note" transform="matrix(0.907087,0,0,0.907087,477.216,27.2126)" d="M4.39453,-2.75391 C5.01953,-2.75391 5.54688,-2.59115 5.97656,-2.26562 C6.38021,-1.91406 6.58203,-1.47135 6.58203,-0.9375 C6.58203,-0.0390625 6.11979,0.800781 5.19531,1.58203 C4.25781,2.36328 3.25521,2.75391 2.1875,2.75391 C1.5625,2.75391 1.03516,2.59115 0.605469,2.26562 C0.201823,1.91406 0,1.47135 0,0.9375 C0,0.0390625 0.46875,-0.800781 1.40625,-1.58203 C2.31771,-2.36328 3.3138,-2.75391 4.39453,-2.75391"/>
<path class="Note" transform="matrix(0.907087,0,0,0.907087,446.811,31.748)" d="M4.39453,-2.75391 C5.01953,-2.75391 5.54688,-2.59115 5.97656,-2.26562 C6.38021,-1.91406 6.58203,-1.47135 6.58203,-0.9375 C6.58203,-0.0390625 6.11979,0.800781 5.19531,1.58203 C4.25781,2.36328 3.25521,2.75391 2.1875,2.75391 C1.5625,2.75391 1.03516,2.59115 0.605469,2.26562 C0.201823,1.91406 0,1.47135 0,0.9375 C0,0.0390625 0.46875,-0.800781 1.40625,-1.58203 C2.31771,-2.36328 3.3138,-2.75391 4.39453,-2.75391"/>
<path class="Note" transform="matrix(0.907087,0,0,0.907087,416.406,36.2835)" d="M4.39453,-2.75391 C5.01953,-2.75391 5.54688,-2.59115 5.97656,-2.26562 C6.38021,-1.91406 6.58203,-1.47135 6.58203,-0.9375 C6.58203,-0.0390625 6.11979,0.800781 5.19531,1.58203 C4.25781,2.36328 3.25521,2.75391 2.1875,2.75391 C1.5625,2.75391 1.03516,2.59115 0.605469,2.26562 C0.201823,1.91406 0,1.47135 0,0.9375 C0,0.0390625 0.46875,-0.800781 1.40625,-1.58203 C2.31771,-2.36328 3.3138,-2.75391 4.39453,-2.75391"/>
<path class="Note" transform="matrix(0.907087,0,0,0.907087,379.59,38.5512)" d="M4.39453,-2.75391 C5.01953,-2.75391 5.54688,-2.59115 5.97656,-2.26562 C6.38021,-1.91406 6.58203,-1.47135 6.58203,-0.9375 C6.58203,-0.0390625 6.11979,0.800781 5.19531,1.58203 C4.25781,2.36328 3.25521,2.75391 2.1875,2.75391 C1.5625,2.75391 1.03516,2.59115 0.605469,2.26562 C0.201823,1.91406 0,1.47135 0,0.9375 C0,0.0390625 0.46875,-0.800781 1.40625,-1.58203 C2.31771,-2.36328 3.3138,-2.75391 4.39453,-2.75391"/>
<path class="Note" transform="matrix(0.907087,0,0,0.907087,348.941,38.5512)" d="M4.39453,-2.75391 C5.01953,-2.75391 5.54688,-2.59115 5.97656,-2.26562 C6.38021,-1.91406 6.58203,-1.47135 6.58203,-0.9375 C6.58203,-0.0390625 6.11979,0.800781 5.19531,1.58203 C4.25781,2.36328 3.25521,2.75391 2.1875,2.75391 C1.5625,2.75391 1.03516,2.59115 0.605469,2.26562 C0.201823,1.91406 0,1.47135 0,0.9375 C0,0.0390625 0.46875,-0.800781 1.40625,-1.58203 C2.31771,-2.36328 3.3138,-2.75391 4.39453,-2.75391"/>
<path class="Note" transform="matrix(0.907087,0,0,0.907087,318.293,34.0157)" d="M4.39453,-2.75391 C5.01953,-2.75391 5.54688,-2.59115 5.97656,-2.26562 C6.38021,-1.91406 6.58203,-1.47135 6.58203,-0.9375 C6.58203,-0.0390625 6.11979,0.800781 5.19531,1.58203 C4.25781,2.36328 3.25521,2.75391 2.1875,2.75391 C1.5625,2.75391 1.03516,2.59115 0.605469,2.26562 C0.201823,1.91406 0,1.47135 0,0.9375 C0,0.0390625 0.46875,-0.800781 1.40625,-1.58203 C2.31771,-2.36328 3.3138,-2.75391 4.39453,-2.75391"/>
<path class="Note" transform="matrix(0.907087,0,0,0.907087,287.645,27.2126)" d="M4.39453,-2.75391 C5.01953,-2.75391 5.54688,-2.59115 5.97656,-2.26562 C6.38021,-1.91406 6.58203,-1.47135 6.58203,-0.9375 C6.58203,-0.0390625 6.11979,0.800781 5.19531,1.58203 C4.25781,2.36328 3.25521,2.75391 2.1875,2.75391 C1.5625,2.75391 1.03516,2.59115 0.605469,2.26562 C0.201823,1.91406 0,1.47135 0,0.9375 C0,0.0390625 0.46875,-0.800781 1.40625,-1.58203 C2.31771,-2.36328 3.3138,-2.75391 4.39453,-2.75391"/>
<path class="Note" transform="matrix(0.907087,0,0,0.907087,250.828,29.4803)" d="M4.39453,-2.75391 C5.01953,-2.75391 5.54688,-2.59115 5.97656,-2.26562 C6.38021,-1.91406 6.58203,-1.47135 6.58203,-0.9375 C6.58203,-0.0390625 6.11979,0.800781 5.19531,1.58203 C4.25781,2.36328 3.25521,2.75391 2.1875,2.75391 C1.5625,2.75391 1.03516,2.59115 0.605469,2.26562 C0.201823,1.91406 0,1.47135 0,0.9375 C0,0.0390625 0.46875,-0.800781 1.40625,-1.58203 C2.31771,-2.36328 3.3138,-2.75391 4.39453,-2.75391"/>
<path class="Note" transform="matrix(0.907087,0,0,0.907087,220.18,29.4803)" d="M4.39453,-2.75391 C5.01953,-2.75391 5.54688,-2.59115 5.97656,-2.26562 C6.38021,-1.91406 6.58203,-1.47135 6.58203,-0.9375 C6.58203,-0.0390625 6.11979,0.800781 5.19531,1.58203 C4.25781,2.36328 3.25521,2.75391 2.1875,2.75391 C1.5625,2.75391 1.03516,2.59115 0.605469,2.26562 C0.201823,1.91406 0,1.47135 0,0.9375 C0,0.0390625 0.46875,-0.800781 1.40625,-1.58203 C2.31771,-2.36328 3.3138,-2.75391 4.39453,-2.75391"/>
<path class="Note" transform="matrix(0.907087,0,0,0.907087,189.531,31.748)" d="M4.39453,-2.75391 C5.01953,-2.75391 5.54688,-2.59115 5.97656,-2.26562 C6.38021,-1.91406 6.58203,-1.47135 6.58203,-0.9375 C6.58203,-0.0390625 6.11979,0.800781 5.19531,1.58203 C4.25781,2.36328 3.25521,2.75391 2.1875,2.75391 C1.5625,2.75391 1.03516,2.59115 0.605469,2.26562 C0.201823,1.91406 0,1.47135 0,0.9375 C0,0.0390625 0.46875,-0.800781 1.40625,-1.58203 C2.31771,-2.36328 3.3138,-2.75391 4.39453,-2.75391"/>
<path class="Note" transform="matrix(0.907087,0,0,0.907087,158.883,34.0157)" d="M4.39453,-2.75391 C5.01953,-2.75391 5.54688,-2.59115 5.97656,-2.26562 C6.38021,-1.91406 6.58203,-1.47135 6.58203,-0.9375 C6.58203,-0.0390625 6.11979,0.800781 5.19531,1.58203 C4.25781,2.36328 3.25521,2.75391 2.1875,2.75391 C1.5625,2.75391 1.03516,2.59115 0.605469,2.26562 C0.201823,1.91406 0,1.47135 0,0.9375 C0,0.0390625 0.46875,-0.800781 1.40625,-1.58203 C2.31771,-2.36328 3.3138,-2.75391 4.39453,-2.75391"/>
<path class="Note" transform="matrix(0.907087,0,0,0.907087,123.262,31.748)" d="M4.39453,-2.75391 C5.01953,-2.75391 5.54688,-2.59115 5.97656,-2.26562 C6.38021,-1.91406 6.58203,-1.47135 6.58203,-0.9375 C6.58203,-0.0390625 6.11979,0.800781 5.19531,1.58203 C4.25781,2.36328 3.25521,2.75391 2.1875,2.75391 C1.5625,2.75391 1.03516,2.59115 0.605469,2.26562 C0.201823,1.91406 0,1.47135 0,0.9375 C0,0.0390625 0.46875,-0.800781 1.40625,-1.58203 C2.31771,-2.36328 3.3138,-2.75391 4.39453,-2.75391"/>
<path class="Note" transform="matrix(0.907087,0,0,0.907087,93.8095,29.4803)" d="M4.39453,-2.75391 C5.01953,-2.75391 5.54688,-2.59115 5.97656,-2.26562 C6.38021,-1.91406 6.58203,-1.47135 6.58203,-0.9375 C6.58203,-0.0390625 6.11979,0.800781 5.19531,1.58203 C4.25781,2.36328 3.25521,2.75391 2.1875,2.75391 C1.5625,2.75391 1.03516,2.59115 0.605469,2.26562 C0.201823,1.91406 0,1.47135 0,0.9375 C0,0.0390625 0.46875,-0.800781 1.40625,-1.58203 C2.31771,-2.36328 3.3138,-2.75391 4.39453,-2.75391"/>
<path class="Note" transform="matrix(0.907087,0,0,0.907087,64.357,36.2835)" d="M4.39453,-2.75391 C5.01953,-2.75391 5.54688,-2.59115 5.97656,-2.26562 C6.38021,-1.91406 6.58203,-1.47135 6.58203,-0.9375 C6.58203,-0.0390625 6.11979,0.800781 5.19531,1.58203 C4.25781,2.36328 3.25521,2.75391 2.1875,2.75391 C1.5625,2.75391 1.03516,2.59115 0.605469,2.26562 C0.201823,1.91406 0,1.47135 0,0.9375 C0,0.0390625 0.46875,-0.800781 1.40625,-1.58203 C2.31771,-2.36328 3.3138,-2.75391 4.39453,-2.75391"/>
<path class="Note" transform="matrix(0.907087,0,0,0.907087,34.9044,29.4803)" d="M4.39453,-2.75391 C5.01953,-2.75391 5.54688,-2.59115 5.97656,-2.26562 C6.38021,-1.91406 6.58203,-1.47135 6.58203,-0.9375 C6.58203,-0.0390625 6.11979,0.800781 5.19531,1.58203 C4.25781,2.36328 3.25521,2.75391 2.1875,2.75391 C1.5625,2.75391 1.03516,2.59115 0.605469,2.26562 C0.201823,1.91406 0,1.47135 0,0.9375 C0,0.0390625 0.46875,-0.800781 1.40625,-1.58203 C2.31771,-2.36328 3.3138,-2.75391 4.39453,-2.75391"/>
<path class="Clef" transform="matrix(0.907087,0,0,0.907087,2.90268,22.6772)" d="M11.4258,-1.77734 C11.2305,-1.97266 11.1328,-2.21354 11.1328,-2.5 C11.1328,-2.78646 11.2305,-3.02734 11.4258,-3.22266 C11.6211,-3.41797 11.862,-3.51562 12.1484,-3.51562 C12.4349,-3.51562 12.6758,-3.41797 12.8711,-3.22266 C13.0664,-3.02734 13.1641,-2.78646 13.1641,-2.5 C13.1641,-2.21354 13.0664,-1.97266 12.8711,-1.77734 C12.6758,-1.58203 12.4349,-1.48438 12.1484,-1.48438 C11.862,-1.48438 11.6211,-1.58203 11.4258,-1.77734 M11.4258,3.22266 C11.2305,3.02734 11.1328,2.78646 11.1328,2.5 C11.1328,2.21354 11.2305,1.97266 11.4258,1.77734 C11.6211,1.58203 11.862,1.48438 12.1484,1.48438 C12.4349,1.48438 12.6758,1.58203 12.8711,1.77734 C13.0664,1.97266 13.1641,2.21354 13.1641,2.5 C13.1641,2.78646 13.0664,3.02734 12.8711,3.22266 C12.6758,3.41797 12.4349,3.51562 12.1484,3.51562 C11.862,3.51562 11.6211,3.41797 11.4258,3.22266 M4.64844,-5.25391 C6.38021,-5.25391 7.79948,-4.81771 8.90625,-3.94531 C9.97396,-3.03385 10.5078,-1.79688 10.5078,-0.234375 C10.5078,0.820312 10.2995,1.78385 9.88281,2.65625 C9.49219,3.56771 8.97786,4.375 8.33984,5.07812 C7.6888,5.79427 6.90104,6.47135 5.97656,7.10938 C5.07812,7.73438 4.15365,8.29427 3.20312,8.78906 C1.27604,9.76562 0.208333,10.2539 0,10.2539 C-0.169271,10.2539 -0.253906,10.1693 -0.253906,10 C-0.253906,9.9349 -0.227865,9.8763 -0.175781,9.82422 C0.488281,9.43359 1.30208,8.93229 2.26562,8.32031 C2.89062,7.91667 3.61979,7.35677 4.45312,6.64062 C5.26042,5.96354 5.88542,5.32552 6.32812,4.72656 C6.78385,4.14062 7.20052,3.41146 7.57812,2.53906 C7.90365,1.66667 8.06641,0.807292 8.06641,-0.0390625 C8.06641,-1.30208 7.75391,-2.40234 7.12891,-3.33984 C6.50391,-4.27734 5.67708,-4.74609 4.64844,-4.74609 C3.91927,-4.74609 3.29427,-4.51172 2.77344,-4.04297 C2.21354,-3.5612 1.8099,-2.95573 1.5625,-2.22656 C1.8099,-2.33073 2.03776,-2.38281 2.24609,-2.38281 C2.79297,-2.38281 3.26172,-2.1875 3.65234,-1.79688 C4.04297,-1.38021 4.23828,-0.904948 4.23828,-0.371094 C4.23828,0.188802 4.04948,0.690104 3.67188,1.13281 C3.26823,1.53646 2.79297,1.73828 2.24609,1.73828 C1.66016,1.73828 1.13281,1.53646 0.664062,1.13281 C0.221354,0.690104 0,0.188802 0,-0.371094 C0,-1.71224 0.455729,-2.85807 1.36719,-3.80859 C2.26562,-4.77214 3.35938,-5.25391 4.64844,-5.25391"/>
<path class="TimeSig" transform="matrix(0.907087,0,0,0.907087,19.1183,27.2126)" d="M7.1875,-0.546875 C6.84896,-0.546875 6.51042,-0.677083 6.17188,-0.9375 C5.84635,-1.1849 5.68359,-1.54948 5.68359,-2.03125 C5.68359,-2.4349 5.82031,-2.79297 6.09375,-3.10547 C6.35417,-3.41797 6.69922,-3.57422 7.12891,-3.57422 C7.27214,-3.57422 7.36328,-3.56771 7.40234,-3.55469 C6.80339,-4.32292 6.0026,-4.72005 5,-4.74609 L4.74609,-4.74609 L4.74609,4.74609 C4.78516,4.74609 4.83073,4.7526 4.88281,4.76562 C4.88281,4.76562 4.92188,4.76562 5,4.76562 C5.78125,4.76562 6.44531,4.47917 6.99219,3.90625 C7.55208,3.34635 7.94271,2.6237 8.16406,1.73828 C8.20312,1.60807 8.28125,1.54297 8.39844,1.54297 C8.56771,1.54297 8.65234,1.62109 8.65234,1.77734 C8.65234,1.86849 8.61328,2.04427 8.53516,2.30469 C8.45703,2.55208 8.32031,2.83854 8.125,3.16406 C7.96875,3.47656 7.7474,3.80859 7.46094,4.16016 C7.20052,4.45964 6.84896,4.72005 6.40625,4.94141 C5.98958,5.14974 5.52083,5.25391 5,5.25391 C4.94792,5.25391 4.90885,5.2474 4.88281,5.23438 C4.88281,5.23438 4.83724,5.23438 4.74609,5.23438 L4.74609,6.79688 C4.74609,6.92708 4.67448,6.99219 4.53125,6.99219 L4.19922,6.99219 C4.06901,6.99219 4.00391,6.92708 4.00391,6.79688 L4.00391,5.17578 C2.63672,4.95443 1.6276,4.375 0.976562,3.4375 C0.325521,2.47396 0,1.32812 0,0 C0,-1.36719 0.325521,-2.51302 0.976562,-3.4375 C1.58854,-4.375 2.59766,-4.95443 4.00391,-5.17578 L4.00391,-6.79688 C4.00391,-6.92708 4.06901,-6.99219 4.19922,-6.99219 L4.53125,-6.99219 C4.66146,-6.99219 4.73307,-6.92708 4.74609,-6.79688 L4.74609,-5.23438 L5,-5.23438 C6.06771,-5.23438 6.91406,-4.86979 7.53906,-4.14062 C8.1901,-3.41146 8.51562,-2.6888 8.51562,-1.97266 C8.51562,-1.55599 8.38542,-1.21745 8.125,-0.957031 C7.89062,-0.683594 7.57812,-0.546875 7.1875,-0.546875 M4.00391,4.60938 L4.00391,-4.60938 C3.47005,-4.41406 3.125,-4.03646 2.96875,-3.47656 C2.8125,-2.90365 2.73438,-2.08333 2.73438,-1.01562 L2.73438,0 L2.73438,1.01562 C2.73438,2.08333 2.8125,2.90365 2.96875,3.47656 C3.125,4.03646 3.47005,4.41406 4.00391,4.60938"/>
<polyline class="FiguredBass" fill="none" stroke="#000000" stroke-width="0.43" stroke-linecap="round" stroke-linejoin="bevel" points="507.621,63.7638 513.621,63.7638"/>
<polyline class="FiguredBass" fill="none" stroke="#000000" stroke-width="0.43" stroke-linecap="round" stroke-linejoin="bevel" points="477.216,63.7638 483.216,63.7638"/>
<polyline class="FiguredBass" fill="none" stroke="#000000" stroke-width="0.43" stroke-linecap="round" stroke-linejoin="bevel" points="446.811,63.7638 452.811,63.7638"/>
<path class="FiguredBass" d="M417.171,56.8067 C417.191,56.8067 417.233,56.7644 417.298,56.6798 C417.578,56.2827 417.969,56.0841 418.47,56.0841 C418.874,56.0841 419.255,56.2338 419.613,56.5333 C419.971,56.8328 420.267,56.9825 420.501,56.9825 C420.755,56.9825 420.996,56.9077 421.224,56.7579 C421.452,56.6082 421.633,56.4584 421.766,56.3087 C421.9,56.159 421.986,56.0841 422.025,56.0841 C422.09,56.0841 422.149,56.1053 422.201,56.1476 C422.253,56.1899 422.279,56.2436 422.279,56.3087 C422.279,56.3543 422.145,56.5789 421.878,56.9825 C421.611,57.3862 421.315,57.8533 420.99,58.3839 C420.664,58.9145 420.368,59.5769 420.101,60.3712 C419.834,61.1655 419.701,61.9239 419.701,62.6466 C419.701,62.9265 419.73,63.2488 419.789,63.6134 C419.834,63.8933 419.834,64.0528 419.789,64.0919 C419.756,64.1245 419.701,64.1407 419.623,64.1407 C419.59,64.1407 419.439,64.0984 419.168,64.0138 C418.898,63.9291 418.639,63.8868 418.392,63.8868 C418.171,63.8868 417.915,63.9291 417.625,64.0138 C417.336,64.0984 417.175,64.1407 417.142,64.1407 C417.07,64.1407 417.012,64.1114 416.966,64.0528 C416.921,63.9942 416.914,63.9324 416.947,63.8673 C417.331,62.9493 417.798,62.0558 418.348,61.1866 C418.898,60.3175 419.587,59.3165 420.414,58.1837 C420.101,58.353 419.785,58.4376 419.466,58.4376 C419.128,58.4376 418.786,58.2862 418.441,57.9835 C418.096,57.6808 417.813,57.5294 417.591,57.5294 C417.429,57.5294 417.287,57.6222 417.166,57.8077 C417.046,57.9933 416.986,58.2716 416.986,58.6427 L416.986,59.8439 C416.986,60.0066 416.911,60.088 416.761,60.088 C416.598,60.088 416.517,60.0066 416.517,59.8439 L416.517,56.3282 C416.517,56.1655 416.598,56.0841 416.761,56.0841 C416.911,56.0841 416.986,56.1655 416.986,56.3282 L416.986,56.5528 C416.986,56.6049 416.999,56.6505 417.025,56.6896 C417.103,56.7677 417.152,56.8067 417.171,56.8067"/>
<polyline class="FiguredBass" fill="none" stroke="#000000" stroke-width="0.43" stroke-linecap="round" stroke-linejoin="bevel" points="379.59,63.7638 385.59,63.7638"/>
<polyline class="FiguredBass" fill="none" stroke="#000000" stroke-width="0.43" stroke-linecap="round" stroke-linejoin="bevel" points="348.941,63.7638 354.941,63.7638"/>
<polyline class="FiguredBass" fill="none" stroke="#000000" stroke-width="0.43" stroke-linecap="round" stroke-linejoin="bevel" points="318.293,63.7638 324.293,63.7638"/>
<path class="FiguredBass" d="M288.41,56.8067 C288.429,56.8067 288.471,56.7644 288.536,56.6798 C288.816,56.2827 289.207,56.0841 289.708,56.0841 C290.112,56.0841 290.493,56.2338 290.851,56.5333 C291.209,56.8328 291.505,56.9825 291.74,56.9825 C291.994,56.9825 292.234,56.9077 292.462,56.7579 C292.69,56.6082 292.871,56.4584 293.004,56.3087 C293.138,56.159 293.224,56.0841 293.263,56.0841 C293.328,56.0841 293.387,56.1053 293.439,56.1476 C293.491,56.1899 293.517,56.2436 293.517,56.3087 C293.517,56.3543 293.383,56.5789 293.117,56.9825 C292.85,57.3862 292.553,57.8533 292.228,58.3839 C291.902,58.9145 291.606,59.5769 291.339,60.3712 C291.072,61.1655 290.939,61.9239 290.939,62.6466 C290.939,62.9265 290.968,63.2488 291.027,63.6134 C291.072,63.8933 291.072,64.0528 291.027,64.0919 C290.994,64.1245 290.939,64.1407 290.861,64.1407 C290.828,64.1407 290.677,64.0984 290.407,64.0138 C290.136,63.9291 289.878,63.8868 289.63,63.8868 C289.409,63.8868 289.153,63.9291 288.864,64.0138 C288.574,64.0984 288.413,64.1407 288.38,64.1407 C288.309,64.1407 288.25,64.1114 288.204,64.0528 C288.159,63.9942 288.152,63.9324 288.185,63.8673 C288.569,62.9493 289.036,62.0558 289.586,61.1866 C290.136,60.3175 290.825,59.3165 291.652,58.1837 C291.339,58.353 291.023,58.4376 290.704,58.4376 C290.366,58.4376 290.024,58.2862 289.679,57.9835 C289.334,57.6808 289.051,57.5294 288.829,57.5294 C288.667,57.5294 288.525,57.6222 288.405,57.8077 C288.284,57.9933 288.224,58.2716 288.224,58.6427 L288.224,59.8439 C288.224,60.0066 288.149,60.088 287.999,60.088 C287.837,60.088 287.755,60.0066 287.755,59.8439 L287.755,56.3282 C287.755,56.1655 287.837,56.0841 287.999,56.0841 C288.149,56.0841 288.224,56.1655 288.224,56.3282 L288.224,56.5528 C288.224,56.6049 288.237,56.6505 288.263,56.6896 C288.341,56.7677 288.39,56.8067 288.41,56.8067"/>
<polyline class="FiguredBass" fill="none" stroke="#000000" stroke-width="0.43" stroke-linecap="round" stroke-linejoin="bevel" points="250.828,63.7638 256.828,63.7638"/>
<polyline class="FiguredBass" fill="none" stroke="#000000" stroke-width="0.43" stroke-linecap="round" stroke-linejoin="bevel" points="220.18,63.7638 226.18,63.7638"/>
<polyline class="FiguredBass" fill="none" stroke="#000000" stroke-width="0.43" stroke-linecap="round" stroke-linejoin="bevel" points="189.531,63.7638 195.531,63.7638"/>
<path class="FiguredBass" d="M159.648,45.8067 C159.667,45.8067 159.71,45.7644 159.775,45.6798 C160.055,45.2827 160.445,45.0841 160.947,45.0841 C161.35,45.0841 161.731,45.2338 162.089,45.5333 C162.447,45.8328 162.743,45.9825 162.978,45.9825 C163.232,45.9825 163.473,45.9077 163.7,45.7579 C163.928,45.6082 164.109,45.4584 164.242,45.3087 C164.376,45.159 164.462,45.0841 164.501,45.0841 C164.566,45.0841 164.625,45.1053 164.677,45.1476 C164.729,45.1899 164.755,45.2436 164.755,45.3087 C164.755,45.3543 164.622,45.5789 164.355,45.9825 C164.088,46.3862 163.792,46.8533 163.466,47.3839 C163.141,47.9145 162.844,48.5769 162.577,49.3712 C162.31,50.1655 162.177,50.9239 162.177,51.6466 C162.177,51.9265 162.206,52.2488 162.265,52.6134 C162.31,52.8933 162.31,53.0528 162.265,53.0919 C162.232,53.1245 162.177,53.1407 162.099,53.1407 C162.066,53.1407 161.915,53.0984 161.645,53.0138 C161.375,52.9291 161.116,52.8868 160.868,52.8868 C160.647,52.8868 160.391,52.9291 160.102,53.0138 C159.812,53.0984 159.651,53.1407 159.618,53.1407 C159.547,53.1407 159.488,53.1114 159.443,53.0528 C159.397,52.9942 159.391,52.9324 159.423,52.8673 C159.807,51.9493 160.274,51.0558 160.824,50.1866 C161.375,49.3175 162.063,48.3165 162.89,47.1837 C162.577,47.353 162.262,47.4376 161.943,47.4376 C161.604,47.4376 161.262,47.2862 160.917,46.9835 C160.572,46.6808 160.289,46.5294 160.068,46.5294 C159.905,46.5294 159.763,46.6222 159.643,46.8077 C159.522,46.9933 159.462,47.2716 159.462,47.6427 L159.462,48.8439 C159.462,49.0066 159.387,49.088 159.238,49.088 C159.075,49.088 158.993,49.0066 158.993,48.8439 L158.993,45.3282 C158.993,45.1655 159.075,45.0841 159.238,45.0841 C159.387,45.0841 159.462,45.1655 159.462,45.3282 L159.462,45.5528 C159.462,45.6049 159.475,45.6505 159.501,45.6896 C159.579,45.7677 159.628,45.8067 159.648,45.8067"/>
<path class="FiguredBass" d="M159.22,64.4142 C159.051,64.31 158.875,64.1847 158.693,64.0382 C158.51,63.8917 158.304,63.6883 158.072,63.4278 C157.841,63.1674 157.638,62.8891 157.462,62.5929 C157.286,62.2967 157.138,61.9402 157.018,61.5235 C156.897,61.1069 156.837,60.6739 156.837,60.2247 C156.837,59.756 156.897,59.3116 157.018,58.8917 C157.138,58.4718 157.28,58.1235 157.443,57.8468 C157.605,57.5701 157.812,57.3032 158.063,57.046 C158.313,56.7888 158.52,56.5984 158.683,56.4747 C158.846,56.351 159.034,56.2208 159.249,56.0841 L159.337,56.2403 C159.051,56.4747 158.82,56.6863 158.644,56.8751 C158.468,57.0639 158.299,57.3097 158.136,57.6124 C157.973,57.9151 157.856,58.2765 157.784,58.6964 C157.713,59.1163 157.677,59.616 157.677,60.1954 C157.677,60.8009 157.713,61.3217 157.784,61.7579 C157.856,62.1941 157.973,62.5668 158.136,62.8761 C158.299,63.1853 158.468,63.4376 158.644,63.6329 C158.82,63.8282 159.051,64.0366 159.337,64.2579 L159.22,64.4142 M161.464,63.0763 L161.464,65.1173 C161.464,65.3191 161.362,65.42 161.156,65.42 C160.951,65.42 160.849,65.3191 160.849,65.1173 L160.849,63.34 L160.536,63.4669 C160.504,63.4799 160.461,63.4864 160.409,63.4864 C160.325,63.4864 160.25,63.4539 160.185,63.3888 C160.12,63.3237 160.087,63.2488 160.087,63.1642 L160.087,62.1681 C160.087,62.0248 160.155,61.9239 160.292,61.8653 L160.849,61.631 L160.849,59.5802 L160.536,59.7071 C160.517,59.7136 160.491,59.7169 160.458,59.7169 C160.445,59.7169 160.429,59.7169 160.409,59.7169 C160.312,59.7039 160.234,59.6681 160.175,59.6095 C160.116,59.5509 160.087,59.4825 160.087,59.4044 L160.087,58.4083 C160.087,58.2716 160.155,58.1739 160.292,58.1153 L160.849,57.881 L160.849,55.8009 C160.849,55.5991 160.951,55.4982 161.156,55.4982 C161.362,55.4982 161.464,55.5991 161.464,55.8009 L161.464,57.6271 L162.724,57.0997 L162.724,55.0587 C162.724,54.8569 162.825,54.756 163.027,54.756 C163.228,54.756 163.329,54.8569 163.329,55.0587 L163.329,56.8556 L163.671,56.7091 C163.704,56.6961 163.739,56.6896 163.779,56.6896 C163.863,56.6896 163.94,56.7221 164.008,56.7872 C164.076,56.8523 164.111,56.9272 164.111,57.0118 L164.111,58.0079 C164.111,58.1511 164.039,58.2521 163.896,58.3107 L163.329,58.545 L163.329,60.6056 L163.671,60.4689 C163.691,60.4623 163.713,60.4591 163.739,60.4591 C163.752,60.4591 163.766,60.4591 163.779,60.4591 C163.889,60.4786 163.972,60.5144 164.028,60.5665 C164.083,60.6186 164.111,60.687 164.111,60.7716 L164.111,61.7677 C164.111,61.9044 164.039,62.0021 163.896,62.0607 L163.329,62.295 L163.329,64.3751 C163.329,64.5769 163.228,64.6778 163.027,64.6778 C162.825,64.6778 162.724,64.5769 162.724,64.3751 L162.724,62.5489 L161.464,63.0763 M161.464,61.3771 L162.724,60.8595 L162.724,58.7989 L161.464,59.3263 L161.464,61.3771 M164.972,56.0841 C165.141,56.1883 165.317,56.3136 165.499,56.4601 C165.682,56.6066 165.888,56.81 166.119,57.0704 C166.35,57.3308 166.554,57.6092 166.73,57.9054 C166.905,58.2016 167.054,58.5581 167.174,58.9747 C167.294,59.3914 167.355,59.8243 167.355,60.2735 C167.355,60.7423 167.294,61.1866 167.174,61.6066 C167.054,62.0265 166.912,62.3748 166.749,62.6515 C166.586,62.9282 166.38,63.1951 166.129,63.4523 C165.878,63.7094 165.672,63.8998 165.509,64.0235 C165.346,64.1472 165.157,64.2775 164.943,64.4142 L164.855,64.2579 C165.141,64.0301 165.372,63.8185 165.548,63.6232 C165.724,63.4278 165.893,63.1788 166.056,62.8761 C166.219,62.5733 166.336,62.212 166.407,61.7921 C166.479,61.3722 166.515,60.8758 166.515,60.3028 C166.515,59.5151 166.443,58.8575 166.3,58.3302 C166.157,57.8028 165.978,57.3992 165.763,57.1192 C165.548,56.8393 165.245,56.5463 164.855,56.2403 L164.972,56.0841 "/>
<polyline class="FiguredBass" fill="none" stroke="#000000" stroke-width="0.43" stroke-linecap="round" stroke-linejoin="bevel" points="123.262,63.7638 129.262,63.7638"/>
<polyline class="FiguredBass" fill="none" stroke="#000000" stroke-width="0.43" stroke-linecap="round" stroke-linejoin="bevel" points="93.8095,63.7638 99.8095,63.7638"/>
<polyline class="FiguredBass" fill="none" stroke="#000000" stroke-width="0.43" stroke-linecap="round" stroke-linejoin="bevel" points="64.357,63.7638 70.357,63.7638"/>
<path class="StaffText" d="M37.9824,8.09 L37.9464,8.063 L37.9464,7.487 C37.6584,7.889 37.2744,8.09 36.7944,8.09 C36.2964,8.09 35.8944,7.9115 35.5884,7.5545 C35.2824,7.1975 35.1294,6.731 35.1294,6.155 C35.1294,5.519 35.3124,4.9775 35.6784,4.5305 C36.0444,4.0835 36.4854,3.86 37.0014,3.86 C37.3254,3.86 37.6404,3.989 37.9464,4.247 L37.9464,2.843 C37.9464,2.657 37.9194,2.534 37.8654,2.474 C37.8114,2.414 37.7004,2.384 37.5324,2.384 C37.4484,2.384 37.3824,2.387 37.3344,2.393 L37.3344,2.249 C37.8804,2.105 38.3214,1.973 38.6574,1.853 L38.7024,1.871 L38.7024,6.974 C38.7024,7.184 38.7279,7.322 38.7789,7.388 C38.8299,7.454 38.9364,7.487 39.0984,7.487 C39.1284,7.487 39.1974,7.484 39.3054,7.478 L39.3054,7.622 L37.9824,8.09 M37.1454,7.622 C37.3734,7.622 37.5639,7.5575 37.7169,7.4285 C37.8699,7.2995 37.9464,7.184 37.9464,7.082 L37.9464,5.012 C37.9464,4.772 37.8534,4.562 37.6674,4.382 C37.4814,4.202 37.2684,4.112 37.0284,4.112 C36.6864,4.112 36.4134,4.265 36.2094,4.571 C36.0054,4.877 35.9034,5.285 35.9034,5.795 C35.9034,6.347 36.0174,6.7895 36.2454,7.1225 C36.4734,7.4555 36.7734,7.622 37.1454,7.622 M39.7398,5.687 L41.9538,5.687 L41.9538,6.254 L39.7398,6.254 L39.7398,5.687 M42.4632,2.393 L42.4632,2.249 C43.0572,2.105 43.5342,1.973 43.8942,1.853 L43.9302,1.871 L43.9302,7.244 C43.9302,7.49 43.9707,7.6505 44.0517,7.7255 C44.1327,7.8005 44.3172,7.847 44.6052,7.865 L44.6052,8 L42.4812,8 L42.4812,7.865 C42.7632,7.841 42.9492,7.787 43.0392,7.703 C43.1292,7.619 43.1742,7.457 43.1742,7.217 L43.1742,2.924 C43.1742,2.714 43.1472,2.57 43.0932,2.492 C43.0392,2.414 42.9402,2.375 42.7962,2.375 C42.6762,2.375 42.5652,2.381 42.4632,2.393 M45.0367,5.687 L47.2507,5.687 L47.2507,6.254 L45.0367,6.254 L45.0367,5.687 M50.379,4.742 C50.289,4.742 50.178,4.6895 50.046,4.5845 C49.914,4.4795 49.827,4.427 49.785,4.427 C49.665,4.427 49.53,4.514 49.38,4.688 C49.23,4.862 49.155,5.021 49.155,5.165 L49.155,7.19 C49.155,7.448 49.206,7.622 49.308,7.712 C49.41,7.802 49.614,7.853 49.92,7.865 L49.92,8 L47.76,8 L47.76,7.865 C48.048,7.811 48.2265,7.751 48.2955,7.685 C48.3645,7.619 48.399,7.472 48.399,7.244 L48.399,4.994 C48.399,4.796 48.3765,4.6565 48.3315,4.5755 C48.2865,4.4945 48.207,4.454 48.093,4.454 C47.997,4.454 47.892,4.466 47.778,4.49 L47.778,4.346 C48.258,4.19 48.702,4.028 49.11,3.86 L49.155,3.878 L49.155,4.706 C49.377,4.388 49.566,4.1675 49.722,4.0445 C49.878,3.9215 50.049,3.86 50.235,3.86 C50.391,3.86 50.5125,3.902 50.5995,3.986 C50.6865,4.07 50.73,4.187 50.73,4.337 C50.73,4.463 50.6985,4.562 50.6355,4.634 C50.5725,4.706 50.487,4.742 50.379,4.742 M51.1148,5.687 L53.3288,5.687 L53.3288,6.254 L51.1148,6.254 L51.1148,5.687 M56.1602,4.04 C56.1662,4.04 56.2142,4.01 56.3042,3.95 L56.4032,3.95 L56.4392,5.174 L56.3042,5.174 C56.2022,4.772 56.0762,4.487 55.9262,4.319 C55.7762,4.151 55.5722,4.067 55.3142,4.067 C55.1102,4.067 54.9437,4.124 54.8147,4.238 C54.6857,4.352 54.6212,4.499 54.6212,4.679 C54.6212,4.937 54.7502,5.141 55.0082,5.291 L55.9802,5.867 C56.2502,6.029 56.4437,6.1925 56.5607,6.3575 C56.6777,6.5225 56.7362,6.716 56.7362,6.938 C56.7362,7.25 56.6117,7.52 56.3627,7.748 C56.1137,7.976 55.8152,8.09 55.4672,8.09 C55.3172,8.09 55.1162,8.063 54.8642,8.009 C54.6122,7.955 54.4562,7.928 54.3962,7.928 C54.3062,7.928 54.2372,7.964 54.1892,8.036 L54.0722,8.036 L54.0722,6.632 L54.2162,6.632 C54.3122,7.052 54.4262,7.349 54.5582,7.523 C54.7502,7.769 55.0172,7.892 55.3592,7.892 C55.5872,7.892 55.7687,7.8335 55.9037,7.7165 C56.0387,7.5995 56.1062,7.442 56.1062,7.244 C56.1062,6.974 55.9502,6.749 55.6382,6.569 L55.1162,6.272 C54.7322,6.056 54.4607,5.849 54.3017,5.651 C54.1427,5.453 54.0632,5.228 54.0632,4.976 C54.0632,4.652 54.1787,4.3865 54.4097,4.1795 C54.6407,3.9725 54.9332,3.869 55.2872,3.869 C55.4852,3.869 55.6712,3.8975 55.8452,3.9545 C56.0192,4.0115 56.1242,4.04 56.1602,4.04 M61.536,5.426 L61.536,3.446 L62.13,3.446 L62.13,5.426 L64.101,5.426 L64.101,6.02 L62.13,6.02 L62.13,8 L61.536,8 L61.536,6.02 L59.565,6.02 L59.565,5.426 L61.536,5.426 M69.6225,5.21 C69.4605,4.73 69.336,4.4285 69.249,4.3055 C69.162,4.1825 69.0195,4.109 68.8215,4.085 L68.8215,3.95 L70.6485,3.95 L70.6485,4.085 C70.4385,4.115 70.299,4.151 70.23,4.193 C70.161,4.235 70.1265,4.307 70.1265,4.409 C70.1265,4.487 70.1775,4.664 70.2795,4.94 L71.0355,6.956 L71.8455,4.958 C71.9475,4.706 71.9985,4.508 71.9985,4.364 C71.9985,4.286 71.9715,4.2275 71.9175,4.1885 C71.8635,4.1495 71.7585,4.115 71.6025,4.085 L71.6025,3.95 L72.7095,3.95 L72.7095,4.085 C72.6195,4.115 72.555,4.157 72.516,4.211 C72.477,4.265 72.4185,4.385 72.3405,4.571 L71.0985,7.685 C70.9785,7.979 70.8945,8.126 70.8465,8.126 C70.7985,8.126 70.7265,7.997 70.6305,7.739 L69.8115,5.615 L68.8035,7.775 C68.6955,8.009 68.6205,8.126 68.5785,8.126 C68.5305,8.126 68.4525,7.994 68.3445,7.73 L67.1295,4.652 C67.0395,4.424 66.9645,4.2755 66.9045,4.2065 C66.8445,4.1375 66.7605,4.097 66.6525,4.085 L66.6525,3.95 L68.2725,3.95 L68.2725,4.085 C68.1165,4.103 68.0085,4.133 67.9485,4.175 C67.8885,4.217 67.8585,4.286 67.8585,4.382 C67.8585,4.472 67.8765,4.562 67.9125,4.652 L68.8035,7.001 L69.6225,5.21 M72.9732,7.127 C72.9732,7.019 72.9852,6.9185 73.0092,6.8255 C73.0332,6.7325 73.0752,6.6455 73.1352,6.5645 C73.1952,6.4835 73.2522,6.41 73.3062,6.344 C73.3602,6.278 73.4412,6.2105 73.5492,6.1415 C73.6572,6.0725 73.7472,6.0155 73.8192,5.9705 C73.8912,5.9255 74.0007,5.8715 74.1477,5.8085 C74.2947,5.7455 74.4072,5.6975 74.4852,5.6645 C74.5632,5.6315 74.6862,5.582 74.8542,5.516 C75.0222,5.45 75.1452,5.402 75.2232,5.372 L75.2232,4.823 C75.2232,4.325 74.9952,4.076 74.5392,4.076 C74.3592,4.076 74.2062,4.1195 74.0802,4.2065 C73.9542,4.2935 73.8912,4.397 73.8912,4.517 C73.8912,4.565 73.8987,4.631 73.9137,4.715 C73.9287,4.799 73.9362,4.853 73.9362,4.877 C73.9362,4.979 73.8957,5.0675 73.8147,5.1425 C73.7337,5.2175 73.6392,5.255 73.5312,5.255 C73.4292,5.255 73.3392,5.216 73.2612,5.138 C73.1832,5.06 73.1442,4.97 73.1442,4.868 C73.1442,4.586 73.2897,4.3475 73.5807,4.1525 C73.8717,3.9575 74.2302,3.86 74.6562,3.86 C75.1482,3.86 75.4872,3.9785 75.6732,4.2155 C75.8592,4.4525 75.9522,4.814 75.9522,5.3 L75.9522,7.055 C75.9522,7.253 75.9717,7.3895 76.0107,7.4645 C76.0497,7.5395 76.1202,7.577 76.2222,7.577 C76.3482,7.577 76.4802,7.52 76.6182,7.406 L76.6182,7.64 C76.4622,7.814 76.3257,7.9325 76.2087,7.9955 C76.0917,8.0585 75.9582,8.09 75.8082,8.09 C75.6222,8.09 75.4857,8.039 75.3987,7.937 C75.3117,7.835 75.2562,7.667 75.2322,7.433 C74.7162,7.871 74.2782,8.09 73.9182,8.09 C73.6422,8.09 73.4157,8 73.2387,7.82 C73.0617,7.64 72.9732,7.409 72.9732,7.127 M75.2232,6.893 L75.2232,5.588 C74.6832,5.786 74.3052,5.978 74.0892,6.164 C73.8732,6.35 73.7652,6.575 73.7652,6.839 C73.7652,7.085 73.8252,7.268 73.9452,7.388 C74.0652,7.508 74.1942,7.568 74.3322,7.568 C74.5362,7.568 74.7552,7.499 74.9892,7.361 C75.0852,7.307 75.1482,7.25 75.1782,7.19 C75.2082,7.13 75.2232,7.031 75.2232,6.893 M76.7444,2.393 L76.7444,2.249 C77.3384,2.105 77.8154,1.973 78.1754,1.853 L78.2114,1.871 L78.2114,7.244 C78.2114,7.49 78.2519,7.6505 78.3329,7.7255 C78.4139,7.8005 78.5984,7.847 78.8864,7.865 L78.8864,8 L76.7624,8 L76.7624,7.865 C77.0444,7.841 77.2304,7.787 77.3204,7.703 C77.4104,7.619 77.4554,7.457 77.4554,7.217 L77.4554,2.924 C77.4554,2.714 77.4284,2.57 77.3744,2.492 C77.3204,2.414 77.2214,2.375 77.0774,2.375 C76.9574,2.375 76.8464,2.381 76.7444,2.393 M79.0569,2.393 L79.0569,2.249 C79.5669,2.123 80.0319,1.991 80.4519,1.853 L80.4879,1.871 L80.4879,5.651 L81.7209,4.553 C81.8589,4.433 81.9279,4.331 81.9279,4.247 C81.9279,4.187 81.8964,4.145 81.8334,4.121 C81.7704,4.097 81.6519,4.082 81.4779,4.076 L81.4779,3.95 L83.3139,3.95 L83.3139,4.085 C83.1759,4.085 83.0664,4.0925 82.9854,4.1075 C82.9044,4.1225 82.7889,4.163 82.6389,4.229 C82.4889,4.295 82.3134,4.409 82.1124,4.571 C81.9114,4.733 81.6639,4.949 81.3699,5.219 L81.1089,5.462 L82.4859,7.208 C82.6719,7.436 82.8444,7.5995 83.0034,7.6985 C83.1624,7.7975 83.3409,7.853 83.5389,7.865 L83.5389,8 L81.5769,8 L81.5769,7.865 C81.8169,7.865 81.9369,7.82 81.9369,7.73 C81.9369,7.706 81.9279,7.6775 81.9099,7.6445 C81.8919,7.6115 81.8634,7.5725 81.8244,7.5275 C81.7854,7.4825 81.7599,7.448 81.7479,7.424 L80.4879,5.741 L80.4879,7.28 C80.4879,7.496 80.5224,7.634 80.5914,7.694 C80.6604,7.754 80.8509,7.811 81.1629,7.865 L81.1629,8 L79.0569,8 L79.0569,7.865 C79.3809,7.811 79.5744,7.7555 79.6374,7.6985 C79.7004,7.6415 79.7319,7.496 79.7319,7.262 L79.7319,2.924 C79.7319,2.708 79.7049,2.5625 79.6509,2.4875 C79.5969,2.4125 79.4949,2.375 79.3449,2.375 C79.2609,2.375 79.1649,2.381 79.0569,2.393 M84.1343,4.463 C84.0023,4.463 83.8763,4.472 83.7563,4.49 L83.7563,4.355 C84.1763,4.235 84.6413,4.07 85.1513,3.86 L85.1873,3.887 L85.1873,7.082 C85.1873,7.406 85.2248,7.6115 85.2998,7.6985 C85.3748,7.7855 85.5593,7.841 85.8533,7.865 L85.8533,8 L83.7203,8 L83.7203,7.865 C84.0323,7.847 84.2288,7.793 84.3098,7.703 C84.3908,7.613 84.4313,7.406 84.4313,7.082 L84.4313,4.994 C84.4313,4.796 84.4088,4.658 84.3638,4.58 C84.3188,4.502 84.2423,4.463 84.1343,4.463 M84.7283,1.853 C84.8603,1.853 84.9713,1.898 85.0613,1.988 C85.1513,2.078 85.1963,2.186 85.1963,2.312 C85.1963,2.444 85.1513,2.5535 85.0613,2.6405 C84.9713,2.7275 84.8603,2.771 84.7283,2.771 C84.6023,2.771 84.4958,2.726 84.4088,2.636 C84.3218,2.546 84.2783,2.438 84.2783,2.312 C84.2783,2.186 84.3233,2.078 84.4133,1.988 C84.5033,1.898 84.6083,1.853 84.7283,1.853 M86.1663,4.418 L86.1663,4.265 C86.6103,4.133 87.0243,3.998 87.4083,3.86 L87.4713,3.878 L87.4713,4.589 C87.7773,4.301 88.0188,4.1075 88.1958,4.0085 C88.3728,3.9095 88.5663,3.86 88.7763,3.86 C89.1063,3.86 89.3658,3.9785 89.5548,4.2155 C89.7438,4.4525 89.8383,4.784 89.8383,5.21 L89.8383,7.271 C89.8383,7.493 89.8743,7.6415 89.9463,7.7165 C90.0183,7.7915 90.1653,7.841 90.3873,7.865 L90.3873,8 L88.5153,8 L88.5153,7.865 C88.7433,7.847 88.8948,7.787 88.9698,7.685 C89.0448,7.583 89.0823,7.391 89.0823,7.109 L89.0823,5.228 C89.0823,4.646 88.8633,4.355 88.4253,4.355 C88.2753,4.355 88.1373,4.3895 88.0113,4.4585 C87.8853,4.5275 87.7143,4.664 87.4983,4.868 L87.4983,7.397 C87.4983,7.559 87.5403,7.673 87.6243,7.739 C87.7083,7.805 87.8643,7.847 88.0923,7.865 L88.0923,8 L86.1843,8 L86.1843,7.865 C86.4123,7.847 86.5623,7.7945 86.6343,7.7075 C86.7063,7.6205 86.7423,7.448 86.7423,7.19 L86.7423,4.958 C86.7423,4.736 86.7183,4.5845 86.6703,4.5035 C86.6223,4.4225 86.5353,4.382 86.4093,4.382 C86.2953,4.382 86.2143,4.394 86.1663,4.418 M91.0069,7.514 C91.0069,7.4 91.0474,7.295 91.1284,7.199 C91.2094,7.103 91.4359,6.881 91.8079,6.533 C91.5079,6.383 91.2934,6.215 91.1644,6.029 C91.0354,5.843 90.9709,5.609 90.9709,5.327 C90.9709,4.919 91.1164,4.5725 91.4074,4.2875 C91.6984,4.0025 92.0539,3.86 92.4739,3.86 C92.7079,3.86 92.9584,3.9095 93.2254,4.0085 C93.4924,4.1075 93.7129,4.157 93.8869,4.157 L94.5799,4.157 L94.5799,4.508 L93.8329,4.508 C93.9469,4.766 94.0039,5.018 94.0039,5.264 C94.0039,5.678 93.8644,6.014 93.5854,6.272 C93.3064,6.53 92.9779,6.659 92.5999,6.659 C92.5279,6.659 92.3569,6.644 92.0869,6.614 C91.9669,6.65 91.8469,6.731 91.7269,6.857 C91.6069,6.983 91.5469,7.091 91.5469,7.181 C91.5469,7.325 91.7809,7.406 92.2489,7.424 L93.4099,7.478 C93.7399,7.49 94.0039,7.583 94.2019,7.757 C94.3999,7.931 94.4989,8.159 94.4989,8.441 C94.4989,8.873 94.2514,9.2345 93.7564,9.5255 C93.2614,9.8165 92.7289,9.962 92.1589,9.962 C91.7329,9.962 91.3669,9.8765 91.0609,9.7055 C90.7549,9.5345 90.6019,9.329 90.6019,9.089 C90.6019,8.921 90.6694,8.7545 90.8044,8.5895 C90.9394,8.4245 91.1659,8.225 91.4839,7.991 C91.2979,7.901 91.1719,7.823 91.1059,7.757 C91.0399,7.691 91.0069,7.61 91.0069,7.514 M91.6729,8.018 C91.4869,8.24 91.3669,8.399 91.3129,8.495 C91.2589,8.591 91.2319,8.69 91.2319,8.792 C91.2319,8.99 91.3519,9.149 91.5919,9.269 C91.8319,9.389 92.1499,9.449 92.5459,9.449 C93.0559,9.449 93.4669,9.368 93.7789,9.206 C94.0909,9.044 94.2469,8.834 94.2469,8.576 C94.2469,8.414 94.1629,8.3 93.9949,8.234 C93.8269,8.168 93.5389,8.135 93.1309,8.135 C92.5249,8.135 92.0389,8.096 91.6729,8.018 M93.3109,5.615 C93.3109,5.513 93.2989,5.39 93.2749,5.246 C93.2509,5.102 93.2089,4.9385 93.1489,4.7555 C93.0889,4.5725 92.9929,4.4195 92.8609,4.2965 C92.7289,4.1735 92.5699,4.112 92.3839,4.112 C92.1739,4.112 92.0104,4.187 91.8934,4.337 C91.7764,4.487 91.7179,4.694 91.7179,4.958 C91.7179,5.474 91.8139,5.849 92.0059,6.083 C92.1979,6.317 92.4079,6.434 92.6359,6.434 C92.8459,6.434 93.0109,6.3605 93.1309,6.2135 C93.2509,6.0665 93.3109,5.867 93.3109,5.615 M98.3444,1.871 L98.3444,4.625 C98.4344,4.403 98.5964,4.22 98.8304,4.076 C99.0644,3.932 99.3194,3.86 99.5954,3.86 C100.045,3.86 100.422,4.0475 100.725,4.4225 C101.028,4.7975 101.179,5.261 101.179,5.813 C101.179,6.455 100.977,6.995 100.572,7.433 C100.167,7.871 99.6674,8.09 99.0734,8.09 C98.7134,8.09 98.3759,8.0285 98.0609,7.9055 C97.7459,7.7825 97.5884,7.652 97.5884,7.514 L97.5884,2.843 C97.5884,2.657 97.5599,2.534 97.5029,2.474 C97.4459,2.414 97.3274,2.384 97.1474,2.384 C97.0814,2.384 97.0304,2.387 96.9944,2.393 L96.9944,2.249 C97.4564,2.135 97.8914,2.003 98.2994,1.853 L98.3444,1.871 M98.3444,5.102 L98.3444,7.37 C98.3444,7.484 98.4314,7.5845 98.6054,7.6715 C98.7794,7.7585 98.9834,7.802 99.2174,7.802 C99.5894,7.802 99.8774,7.664 100.081,7.388 C100.285,7.112 100.387,6.725 100.387,6.227 C100.387,5.681 100.284,5.2445 100.077,4.9175 C99.8699,4.5905 99.5894,4.427 99.2354,4.427 C99.0014,4.427 98.7944,4.496 98.6144,4.634 C98.4344,4.772 98.3444,4.928 98.3444,5.102 M101.629,7.127 C101.629,7.019 101.641,6.9185 101.665,6.8255 C101.689,6.7325 101.731,6.6455 101.791,6.5645 C101.851,6.4835 101.908,6.41 101.962,6.344 C102.016,6.278 102.097,6.2105 102.205,6.1415 C102.313,6.0725 102.403,6.0155 102.475,5.9705 C102.547,5.9255 102.657,5.8715 102.804,5.8085 C102.951,5.7455 103.063,5.6975 103.141,5.6645 C103.219,5.6315 103.342,5.582 103.51,5.516 C103.678,5.45 103.801,5.402 103.879,5.372 L103.879,4.823 C103.879,4.325 103.651,4.076 103.195,4.076 C103.015,4.076 102.862,4.1195 102.736,4.2065 C102.61,4.2935 102.547,4.397 102.547,4.517 C102.547,4.565 102.555,4.631 102.57,4.715 C102.585,4.799 102.592,4.853 102.592,4.877 C102.592,4.979 102.552,5.0675 102.471,5.1425 C102.39,5.2175 102.295,5.255 102.187,5.255 C102.085,5.255 101.995,5.216 101.917,5.138 C101.839,5.06 101.8,4.97 101.8,4.868 C101.8,4.586 101.946,4.3475 102.237,4.1525 C102.528,3.9575 102.886,3.86 103.312,3.86 C103.804,3.86 104.143,3.9785 104.329,4.2155 C104.515,4.4525 104.608,4.814 104.608,5.3 L104.608,7.055 C104.608,7.253 104.628,7.3895 104.667,7.4645 C104.706,7.5395 104.776,7.577 104.878,7.577 C105.004,7.577 105.136,7.52 105.274,7.406 L105.274,7.64 C105.118,7.814 104.982,7.9325 104.865,7.9955 C104.748,8.0585 104.614,8.09 104.464,8.09 C104.278,8.09 104.142,8.039 104.055,7.937 C103.968,7.835 103.912,7.667 103.888,7.433 C103.372,7.871 102.934,8.09 102.574,8.09 C102.298,8.09 102.072,8 101.895,7.82 C101.718,7.64 101.629,7.409 101.629,7.127 M103.879,6.893 L103.879,5.588 C103.339,5.786 102.961,5.978 102.745,6.164 C102.529,6.35 102.421,6.575 102.421,6.839 C102.421,7.085 102.481,7.268 102.601,7.388 C102.721,7.508 102.85,7.568 102.988,7.568 C103.192,7.568 103.411,7.499 103.645,7.361 C103.741,7.307 103.804,7.25 103.834,7.19 C103.864,7.13 103.879,7.031 103.879,6.893 M107.723,4.04 C107.729,4.04 107.777,4.01 107.867,3.95 L107.966,3.95 L108.002,5.174 L107.867,5.174 C107.765,4.772 107.639,4.487 107.489,4.319 C107.339,4.151 107.135,4.067 106.877,4.067 C106.673,4.067 106.506,4.124 106.377,4.238 C106.248,4.352 106.184,4.499 106.184,4.679 C106.184,4.937 106.313,5.141 106.571,5.291 L107.543,5.867 C107.813,6.029 108.006,6.1925 108.123,6.3575 C108.24,6.5225 108.299,6.716 108.299,6.938 C108.299,7.25 108.174,7.52 107.925,7.748 C107.676,7.976 107.378,8.09 107.03,8.09 C106.88,8.09 106.679,8.063 106.427,8.009 C106.175,7.955 106.019,7.928 105.959,7.928 C105.869,7.928 105.8,7.964 105.752,8.036 L105.635,8.036 L105.635,6.632 L105.779,6.632 C105.875,7.052 105.989,7.349 106.121,7.523 C106.313,7.769 106.58,7.892 106.922,7.892 C107.15,7.892 107.331,7.8335 107.466,7.7165 C107.601,7.5995 107.669,7.442 107.669,7.244 C107.669,6.974 107.513,6.749 107.201,6.569 L106.679,6.272 C106.295,6.056 106.023,5.849 105.864,5.651 C105.705,5.453 105.626,5.228 105.626,4.976 C105.626,4.652 105.741,4.3865 105.972,4.1795 C106.203,3.9725 106.496,3.869 106.85,3.869 C107.048,3.869 107.234,3.8975 107.408,3.9545 C107.582,4.0115 107.687,4.04 107.723,4.04 M111.02,4.04 C111.026,4.04 111.074,4.01 111.164,3.95 L111.263,3.95 L111.299,5.174 L111.164,5.174 C111.062,4.772 110.936,4.487 110.786,4.319 C110.636,4.151 110.432,4.067 110.174,4.067 C109.97,4.067 109.803,4.124 109.674,4.238 C109.545,4.352 109.481,4.499 109.481,4.679 C109.481,4.937 109.61,5.141 109.868,5.291 L110.84,5.867 C111.11,6.029 111.303,6.1925 111.42,6.3575 C111.537,6.5225 111.596,6.716 111.596,6.938 C111.596,7.25 111.471,7.52 111.222,7.748 C110.973,7.976 110.675,8.09 110.327,8.09 C110.177,8.09 109.976,8.063 109.724,8.009 C109.472,7.955 109.316,7.928 109.256,7.928 C109.166,7.928 109.097,7.964 109.049,8.036 L108.932,8.036 L108.932,6.632 L109.076,6.632 C109.172,7.052 109.286,7.349 109.418,7.523 C109.61,7.769 109.877,7.892 110.219,7.892 C110.447,7.892 110.628,7.8335 110.763,7.7165 C110.898,7.5995 110.966,7.442 110.966,7.244 C110.966,6.974 110.81,6.749 110.498,6.569 L109.976,6.272 C109.592,6.056 109.32,5.849 109.161,5.651 C109.002,5.453 108.923,5.228 108.923,4.976 C108.923,4.652 109.038,4.3865 109.269,4.1795 C109.5,3.9725 109.793,3.869 110.147,3.869 C110.345,3.869 110.531,3.8975 110.705,3.9545 C110.879,4.0115 110.984,4.04 111.02,4.04"/>
</svg>
