<?xml version="1.0" encoding="UTF-8" standalone="no"?>
<svg width="269.292px" height="199.182px" viewBox="0 0 269.292 199.182"
 xmlns="http://www.w3.org/2000/svg" xmlns:xlink="http://www.w3.org/1999/xlink" version="1.2" baseProfile="tiny">
<title>Saját</title>
<desc>Generated by MuseScore 2.3.2</desc>
<polyline class="StaffLines" fill="none" stroke="#000000" stroke-width="0.33" stroke-linejoin="bevel" points="0,22.1953 269.291,22.1953"/>
<polyline class="StaffLines" fill="none" stroke="#000000" stroke-width="0.33" stroke-linejoin="bevel" points="0,26.3055 269.291,26.3055"/>
<polyline class="StaffLines" fill="none" stroke="#000000" stroke-width="0.33" stroke-linejoin="bevel" points="0,30.4157 269.291,30.4157"/>
<polyline class="StaffLines" fill="none" stroke="#000000" stroke-width="0.33" stroke-linejoin="bevel" points="0,34.526 269.291,34.526"/>
<polyline class="StaffLines" fill="none" stroke="#000000" stroke-width="0.33" stroke-linejoin="bevel" points="0,38.6362 269.291,38.6362"/>
<polyline class="StaffLines" fill="none" stroke="#000000" stroke-width="0.33" stroke-linejoin="bevel" points="0,73.5732 269.291,73.5732"/>
<polyline class="StaffLines" fill="none" stroke="#000000" stroke-width="0.33" stroke-linejoin="bevel" points="0,77.6835 269.291,77.6835"/>
<polyline class="StaffLines" fill="none" stroke="#000000" stroke-width="0.33" stroke-linejoin="bevel" points="0,81.7937 269.291,81.7937"/>
<polyline class="StaffLines" fill="none" stroke="#000000" stroke-width="0.33" stroke-linejoin="bevel" points="0,85.9039 269.291,85.9039"/>
<polyline class="StaffLines" fill="none" stroke="#000000" stroke-width="0.33" stroke-linejoin="bevel" points="0,90.0142 269.291,90.0142"/>
<polyline class="StaffLines" fill="none" stroke="#000000" stroke-width="0.33" stroke-linejoin="bevel" points="0,124.951 269.291,124.951"/>
<polyline class="StaffLines" fill="none" stroke="#000000" stroke-width="0.33" stroke-linejoin="bevel" points="0,129.061 269.291,129.061"/>
<polyline class="StaffLines" fill="none" stroke="#000000" stroke-width="0.33" stroke-linejoin="bevel" points="0,133.172 269.291,133.172"/>
<polyline class="StaffLines" fill="none" stroke="#000000" stroke-width="0.33" stroke-linejoin="bevel" points="0,137.282 269.291,137.282"/>
<polyline class="StaffLines" fill="none" stroke="#000000" stroke-width="0.33" stroke-linejoin="bevel" points="0,141.392 269.291,141.392"/>
<polyline class="StaffLines" fill="none" stroke="#000000" stroke-width="0.33" stroke-linejoin="bevel" points="0,176.329 269.291,176.329"/>
<polyline class="StaffLines" fill="none" stroke="#000000" stroke-width="0.33" stroke-linejoin="bevel" points="0,180.439 269.291,180.439"/>
<polyline class="StaffLines" fill="none" stroke="#000000" stroke-width="0.33" stroke-linejoin="bevel" points="0,184.55 269.291,184.55"/>
<polyline class="StaffLines" fill="none" stroke="#000000" stroke-width="0.33" stroke-linejoin="bevel" points="0,188.66 269.291,188.66"/>
<polyline class="StaffLines" fill="none" stroke="#000000" stroke-width="0.33" stroke-linejoin="bevel" points="0,192.77 269.291,192.77"/>
<polyline class="BarLine" fill="none" stroke="#000000" stroke-width="0.66" stroke-linejoin="bevel" points="265.263,176.329 265.263,192.77"/>
<polyline class="BarLine" fill="none" stroke="#000000" stroke-width="2.06" stroke-linejoin="bevel" points="268.264,176.329 268.264,192.77"/>
<polyline class="BarLine" fill="none" stroke="#000000" stroke-width="0.66" stroke-linejoin="bevel" points="150.44,176.329 150.44,192.77"/>
<polyline class="BarLine" fill="none" stroke="#000000" stroke-width="0.66" stroke-linejoin="bevel" points="268.963,124.951 268.963,141.392"/>
<polyline class="BarLine" fill="none" stroke="#000000" stroke-width="0.66" stroke-linejoin="bevel" points="142.374,124.951 142.374,141.392"/>
<polyline class="BarLine" fill="none" stroke="#000000" stroke-width="0.66" stroke-linejoin="bevel" points="268.963,73.5732 268.963,90.0142"/>
<polyline class="BarLine" fill="none" stroke="#000000" stroke-width="0.66" stroke-linejoin="bevel" points="151.959,73.5732 151.959,90.0142"/>
<polyline class="BarLine" fill="none" stroke="#000000" stroke-width="0.66" stroke-linejoin="bevel" points="268.963,22.1953 268.963,38.6362"/>
<polyline class="BarLine" fill="none" stroke="#000000" stroke-width="0.66" stroke-linejoin="bevel" points="157.901,22.1953 157.901,38.6362"/>
<polyline class="LedgerLine" fill="none" stroke="#000000" stroke-width="0.66" stroke-linecap="square" stroke-linejoin="bevel" points="203.099,196.88 210.976,196.88"/>
<polyline class="LedgerLine" fill="none" stroke="#000000" stroke-width="0.66" stroke-linecap="square" stroke-linejoin="bevel" points="154.468,196.88 162.642,196.88"/>
<polyline class="LedgerLine" fill="none" stroke="#000000" stroke-width="0.66" stroke-linecap="square" stroke-linejoin="bevel" points="18.9379,196.88 26.8154,196.88"/>
<polyline class="LedgerLine" fill="none" stroke="#000000" stroke-width="0.66" stroke-linecap="square" stroke-linejoin="bevel" points="208.888,42.7465 216.765,42.7465"/>
<polyline class="LedgerLine" fill="none" stroke="#000000" stroke-width="0.66" stroke-linecap="square" stroke-linejoin="bevel" points="161.929,42.7465 170.103,42.7465"/>
<polyline class="LedgerLine" fill="none" stroke="#000000" stroke-width="0.66" stroke-linecap="square" stroke-linejoin="bevel" points="30.1614,42.7465 38.039,42.7465"/>
<polyline class="Stem" fill="none" stroke="#000000" stroke-width="0.53" stroke-linecap="round" stroke-linejoin="bevel" points="209.476,196.108 209.476,182.494"/>
<polyline class="Stem" fill="none" stroke="#000000" stroke-width="0.53" stroke-linecap="round" stroke-linejoin="bevel" points="161.142,196.249 161.142,182.494"/>
<polyline class="Stem" fill="none" stroke="#000000" stroke-width="0.53" stroke-linecap="round" stroke-linejoin="bevel" points="118.784,194.053 118.784,180.439"/>
<polyline class="Stem" fill="none" stroke="#000000" stroke-width="0.53" stroke-linecap="round" stroke-linejoin="bevel" points="100.09,191.998 100.09,178.384"/>
<polyline class="Stem" fill="none" stroke="#000000" stroke-width="0.53" stroke-linecap="round" stroke-linejoin="bevel" points="81.3965,189.943 81.3965,179.412"/>
<polyline class="Stem" fill="none" stroke="#000000" stroke-width="0.53" stroke-linecap="round" stroke-linejoin="bevel" points="62.7027,191.998 62.7027,181.124"/>
<polyline class="Stem" fill="none" stroke="#000000" stroke-width="0.53" stroke-linecap="round" stroke-linejoin="bevel" points="44.009,194.053 44.009,182.837"/>
<polyline class="Stem" fill="none" stroke="#000000" stroke-width="0.53" stroke-linecap="round" stroke-linejoin="bevel" points="25.3152,196.108 25.3152,184.55"/>
<polyline class="Stem" fill="none" stroke="#000000" stroke-width="0.53" stroke-linecap="round" stroke-linejoin="bevel" points="220.001,142.675 220.001,129.061"/>
<polyline class="Stem" fill="none" stroke="#000000" stroke-width="0.53" stroke-linecap="round" stroke-linejoin="bevel" points="203.196,140.62 203.196,124.951"/>
<polyline class="Stem" fill="none" stroke="#000000" stroke-width="0.53" stroke-linecap="round" stroke-linejoin="bevel" points="186.39,138.565 186.39,124.951"/>
<polyline class="Stem" fill="none" stroke="#000000" stroke-width="0.53" stroke-linecap="round" stroke-linejoin="bevel" points="169.585,134.455 169.585,124.951"/>
<polyline class="Stem" fill="none" stroke="#000000" stroke-width="0.53" stroke-linecap="round" stroke-linejoin="bevel" points="152.78,136.51 152.78,124.951"/>
<polyline class="Stem" fill="none" stroke="#000000" stroke-width="0.53" stroke-linecap="round" stroke-linejoin="bevel" points="112.982,134.455 112.982,121.869"/>
<polyline class="Stem" fill="none" stroke="#000000" stroke-width="0.53" stroke-linecap="round" stroke-linejoin="bevel" points="90.5719,133.944 90.5719,147.557"/>
<polyline class="Stem" fill="none" stroke="#000000" stroke-width="0.53" stroke-linecap="round" stroke-linejoin="bevel" points="77.9155,130.345 77.9155,117.758"/>
<polyline class="Stem" fill="none" stroke="#000000" stroke-width="0.53" stroke-linecap="round" stroke-linejoin="bevel" points="60.3821,132.4 60.3821,119.128"/>
<polyline class="Stem" fill="none" stroke="#000000" stroke-width="0.53" stroke-linecap="round" stroke-linejoin="bevel" points="42.8486,134.455 42.8486,120.498"/>
<polyline class="Stem" fill="none" stroke="#000000" stroke-width="0.53" stroke-linecap="round" stroke-linejoin="bevel" points="25.3152,136.51 25.3152,121.869"/>
<polyline class="Stem" fill="none" stroke="#000000" stroke-width="0.53" stroke-linecap="round" stroke-linejoin="bevel" points="211.964,85.132 211.964,72.0319"/>
<polyline class="Stem" fill="none" stroke="#000000" stroke-width="0.53" stroke-linecap="round" stroke-linejoin="bevel" points="162.661,85.2726 162.661,72.0319"/>
<polyline class="Stem" fill="none" stroke="#000000" stroke-width="0.53" stroke-linecap="round" stroke-linejoin="bevel" points="119.877,83.0769 119.877,70.4906"/>
<polyline class="Stem" fill="none" stroke="#000000" stroke-width="0.53" stroke-linecap="round" stroke-linejoin="bevel" points="96.0872,82.5657 96.0872,96.1795"/>
<polyline class="Stem" fill="none" stroke="#000000" stroke-width="0.53" stroke-linecap="round" stroke-linejoin="bevel" points="82.052,78.9666 82.052,66.3803"/>
<polyline class="Stem" fill="none" stroke="#000000" stroke-width="0.53" stroke-linecap="round" stroke-linejoin="bevel" points="63.1397,81.0217 63.1397,67.7504"/>
<polyline class="Stem" fill="none" stroke="#000000" stroke-width="0.53" stroke-linecap="round" stroke-linejoin="bevel" points="44.2275,83.0769 44.2275,69.1205"/>
<polyline class="Stem" fill="none" stroke="#000000" stroke-width="0.53" stroke-linecap="round" stroke-linejoin="bevel" points="25.3152,85.132 25.3152,70.4906"/>
<polyline class="Stem" fill="none" stroke="#000000" stroke-width="0.53" stroke-linecap="round" stroke-linejoin="bevel" points="215.265,41.9745 215.265,28.3606"/>
<polyline class="Stem" fill="none" stroke="#000000" stroke-width="0.53" stroke-linecap="round" stroke-linejoin="bevel" points="168.603,42.1151 168.603,28.3606"/>
<polyline class="Stem" fill="none" stroke="#000000" stroke-width="0.53" stroke-linecap="round" stroke-linejoin="bevel" points="127.301,39.9194 127.301,26.3055"/>
<polyline class="Stem" fill="none" stroke="#000000" stroke-width="0.53" stroke-linecap="round" stroke-linejoin="bevel" points="109.149,37.8643 109.149,24.2504"/>
<polyline class="Stem" fill="none" stroke="#000000" stroke-width="0.53" stroke-linecap="round" stroke-linejoin="bevel" points="90.9963,35.8091 90.9963,25.278"/>
<polyline class="Stem" fill="none" stroke="#000000" stroke-width="0.53" stroke-linecap="round" stroke-linejoin="bevel" points="72.8437,37.8643 72.8437,26.9906"/>
<polyline class="Stem" fill="none" stroke="#000000" stroke-width="0.53" stroke-linecap="round" stroke-linejoin="bevel" points="54.6912,39.9194 54.6912,28.7031"/>
<polyline class="Stem" fill="none" stroke="#000000" stroke-width="0.53" stroke-linecap="round" stroke-linejoin="bevel" points="36.5387,41.9745 36.5387,30.4157"/>
<path class="Note" transform="matrix(0.822047,0,0,0.822047,204.332,196.88)" d="M4.39453,-2.75391 C5.01953,-2.75391 5.54688,-2.59115 5.97656,-2.26562 C6.38021,-1.91406 6.58203,-1.47135 6.58203,-0.9375 C6.58203,-0.0390625 6.11979,0.800781 5.19531,1.58203 C4.25781,2.36328 3.25521,2.75391 2.1875,2.75391 C1.5625,2.75391 1.03516,2.59115 0.605469,2.26562 C0.201823,1.91406 0,1.47135 0,0.9375 C0,0.0390625 0.46875,-0.800781 1.40625,-1.58203 C2.31771,-2.36328 3.3138,-2.75391 4.39453,-2.75391"/>
<path class="Note" transform="matrix(0.822047,0,0,0.822047,155.701,196.88)" d="M6.30859,-1.30859 C6.30859,-1.52995 6.22396,-1.71875 6.05469,-1.875 C5.88542,-2.04427 5.6901,-2.12891 5.46875,-2.12891 C5.07812,-2.12891 4.29036,-1.73828 3.10547,-0.957031 C1.88151,-0.16276 1.13281,0.403646 0.859375,0.742188 C0.716146,0.924479 0.644531,1.11328 0.644531,1.30859 C0.644531,1.52995 0.729167,1.71875 0.898438,1.875 C1.05469,2.04427 1.25,2.12891 1.48438,2.12891 C1.86198,2.12891 2.65625,1.73828 3.86719,0.957031 C5.0651,0.175781 5.80729,-0.390625 6.09375,-0.742188 C6.23698,-0.911458 6.30859,-1.10026 6.30859,-1.30859 M5.27344,-2.75391 C6.39323,-2.75391 6.95312,-2.27214 6.95312,-1.30859 C6.95312,-0.839844 6.81641,-0.292969 6.54297,0.332031 C6.26953,0.94401 5.90495,1.41276 5.44922,1.73828 C4.44661,2.41536 3.1901,2.75391 1.67969,2.75391 C0.559896,2.75391 0,2.27214 0,1.30859 C0,0.878906 0.136719,0.338542 0.410156,-0.3125 C0.670573,-0.9375 1.03516,-1.41276 1.50391,-1.73828 C2.50651,-2.41536 3.76302,-2.75391 5.27344,-2.75391"/>
<path class="Note" transform="matrix(0.822047,0,0,0.822047,113.64,194.825)" d="M4.39453,-2.75391 C5.01953,-2.75391 5.54688,-2.59115 5.97656,-2.26562 C6.38021,-1.91406 6.58203,-1.47135 6.58203,-0.9375 C6.58203,-0.0390625 6.11979,0.800781 5.19531,1.58203 C4.25781,2.36328 3.25521,2.75391 2.1875,2.75391 C1.5625,2.75391 1.03516,2.59115 0.605469,2.26562 C0.201823,1.91406 0,1.47135 0,0.9375 C0,0.0390625 0.46875,-0.800781 1.40625,-1.58203 C2.31771,-2.36328 3.3138,-2.75391 4.39453,-2.75391"/>
<path class="Note" transform="matrix(0.822047,0,0,0.822047,94.946,192.77)" d="M4.39453,-2.75391 C5.01953,-2.75391 5.54688,-2.59115 5.97656,-2.26562 C6.38021,-1.91406 6.58203,-1.47135 6.58203,-0.9375 C6.58203,-0.0390625 6.11979,0.800781 5.19531,1.58203 C4.25781,2.36328 3.25521,2.75391 2.1875,2.75391 C1.5625,2.75391 1.03516,2.59115 0.605469,2.26562 C0.201823,1.91406 0,1.47135 0,0.9375 C0,0.0390625 0.46875,-0.800781 1.40625,-1.58203 C2.31771,-2.36328 3.3138,-2.75391 4.39453,-2.75391"/>
<path class="Note" transform="matrix(0.822047,0,0,0.822047,76.2522,190.715)" d="M4.39453,-2.75391 C5.01953,-2.75391 5.54688,-2.59115 5.97656,-2.26562 C6.38021,-1.91406 6.58203,-1.47135 6.58203,-0.9375 C6.58203,-0.0390625 6.11979,0.800781 5.19531,1.58203 C4.25781,2.36328 3.25521,2.75391 2.1875,2.75391 C1.5625,2.75391 1.03516,2.59115 0.605469,2.26562 C0.201823,1.91406 0,1.47135 0,0.9375 C0,0.0390625 0.46875,-0.800781 1.40625,-1.58203 C2.31771,-2.36328 3.3138,-2.75391 4.39453,-2.75391"/>
<path class="Note" transform="matrix(0.822047,0,0,0.822047,57.5585,192.77)" d="M4.39453,-2.75391 C5.01953,-2.75391 5.54688,-2.59115 5.97656,-2.26562 C6.38021,-1.91406 6.58203,-1.47135 6.58203,-0.9375 C6.58203,-0.0390625 6.11979,0.800781 5.19531,1.58203 C4.25781,2.36328 3.25521,2.75391 2.1875,2.75391 C1.5625,2.75391 1.03516,2.59115 0.605469,2.26562 C0.201823,1.91406 0,1.47135 0,0.9375 C0,0.0390625 0.46875,-0.800781 1.40625,-1.58203 C2.31771,-2.36328 3.3138,-2.75391 4.39453,-2.75391"/>
<path class="Note" transform="matrix(0.822047,0,0,0.822047,38.8647,194.825)" d="M4.39453,-2.75391 C5.01953,-2.75391 5.54688,-2.59115 5.97656,-2.26562 C6.38021,-1.91406 6.58203,-1.47135 6.58203,-0.9375 C6.58203,-0.0390625 6.11979,0.800781 5.19531,1.58203 C4.25781,2.36328 3.25521,2.75391 2.1875,2.75391 C1.5625,2.75391 1.03516,2.59115 0.605469,2.26562 C0.201823,1.91406 0,1.47135 0,0.9375 C0,0.0390625 0.46875,-0.800781 1.40625,-1.58203 C2.31771,-2.36328 3.3138,-2.75391 4.39453,-2.75391"/>
<path class="Note" transform="matrix(0.822047,0,0,0.822047,20.171,196.88)" d="M4.39453,-2.75391 C5.01953,-2.75391 5.54688,-2.59115 5.97656,-2.26562 C6.38021,-1.91406 6.58203,-1.47135 6.58203,-0.9375 C6.58203,-0.0390625 6.11979,0.800781 5.19531,1.58203 C4.25781,2.36328 3.25521,2.75391 2.1875,2.75391 C1.5625,2.75391 1.03516,2.59115 0.605469,2.26562 C0.201823,1.91406 0,1.47135 0,0.9375 C0,0.0390625 0.46875,-0.800781 1.40625,-1.58203 C2.31771,-2.36328 3.3138,-2.75391 4.39453,-2.75391"/>
<path class="Note" transform="matrix(0.822047,0,0,0.822047,214.857,143.447)" d="M4.39453,-2.75391 C5.01953,-2.75391 5.54688,-2.59115 5.97656,-2.26562 C6.38021,-1.91406 6.58203,-1.47135 6.58203,-0.9375 C6.58203,-0.0390625 6.11979,0.800781 5.19531,1.58203 C4.25781,2.36328 3.25521,2.75391 2.1875,2.75391 C1.5625,2.75391 1.03516,2.59115 0.605469,2.26562 C0.201823,1.91406 0,1.47135 0,0.9375 C0,0.0390625 0.46875,-0.800781 1.40625,-1.58203 C2.31771,-2.36328 3.3138,-2.75391 4.39453,-2.75391"/>
<path class="Note" transform="matrix(0.822047,0,0,0.822047,198.051,141.392)" d="M4.39453,-2.75391 C5.01953,-2.75391 5.54688,-2.59115 5.97656,-2.26562 C6.38021,-1.91406 6.58203,-1.47135 6.58203,-0.9375 C6.58203,-0.0390625 6.11979,0.800781 5.19531,1.58203 C4.25781,2.36328 3.25521,2.75391 2.1875,2.75391 C1.5625,2.75391 1.03516,2.59115 0.605469,2.26562 C0.201823,1.91406 0,1.47135 0,0.9375 C0,0.0390625 0.46875,-0.800781 1.40625,-1.58203 C2.31771,-2.36328 3.3138,-2.75391 4.39453,-2.75391"/>
<path class="Note" transform="matrix(0.822047,0,0,0.822047,181.246,139.337)" d="M4.39453,-2.75391 C5.01953,-2.75391 5.54688,-2.59115 5.97656,-2.26562 C6.38021,-1.91406 6.58203,-1.47135 6.58203,-0.9375 C6.58203,-0.0390625 6.11979,0.800781 5.19531,1.58203 C4.25781,2.36328 3.25521,2.75391 2.1875,2.75391 C1.5625,2.75391 1.03516,2.59115 0.605469,2.26562 C0.201823,1.91406 0,1.47135 0,0.9375 C0,0.0390625 0.46875,-0.800781 1.40625,-1.58203 C2.31771,-2.36328 3.3138,-2.75391 4.39453,-2.75391"/>
<path class="Note" transform="matrix(0.822047,0,0,0.822047,164.441,135.227)" d="M4.39453,-2.75391 C5.01953,-2.75391 5.54688,-2.59115 5.97656,-2.26562 C6.38021,-1.91406 6.58203,-1.47135 6.58203,-0.9375 C6.58203,-0.0390625 6.11979,0.800781 5.19531,1.58203 C4.25781,2.36328 3.25521,2.75391 2.1875,2.75391 C1.5625,2.75391 1.03516,2.59115 0.605469,2.26562 C0.201823,1.91406 0,1.47135 0,0.9375 C0,0.0390625 0.46875,-0.800781 1.40625,-1.58203 C2.31771,-2.36328 3.3138,-2.75391 4.39453,-2.75391"/>
<path class="Note" transform="matrix(0.822047,0,0,0.822047,147.635,137.282)" d="M4.39453,-2.75391 C5.01953,-2.75391 5.54688,-2.59115 5.97656,-2.26562 C6.38021,-1.91406 6.58203,-1.47135 6.58203,-0.9375 C6.58203,-0.0390625 6.11979,0.800781 5.19531,1.58203 C4.25781,2.36328 3.25521,2.75391 2.1875,2.75391 C1.5625,2.75391 1.03516,2.59115 0.605469,2.26562 C0.201823,1.91406 0,1.47135 0,0.9375 C0,0.0390625 0.46875,-0.800781 1.40625,-1.58203 C2.31771,-2.36328 3.3138,-2.75391 4.39453,-2.75391"/>
<path class="Note" transform="matrix(0.822047,0,0,0.822047,107.838,135.227)" d="M4.39453,-2.75391 C5.01953,-2.75391 5.54688,-2.59115 5.97656,-2.26562 C6.38021,-1.91406 6.58203,-1.47135 6.58203,-0.9375 C6.58203,-0.0390625 6.11979,0.800781 5.19531,1.58203 C4.25781,2.36328 3.25521,2.75391 2.1875,2.75391 C1.5625,2.75391 1.03516,2.59115 0.605469,2.26562 C0.201823,1.91406 0,1.47135 0,0.9375 C0,0.0390625 0.46875,-0.800781 1.40625,-1.58203 C2.31771,-2.36328 3.3138,-2.75391 4.39453,-2.75391"/>
<path class="Note" transform="matrix(0.822047,0,0,0.822047,90.3047,133.172)" d="M4.39453,-2.75391 C5.01953,-2.75391 5.54688,-2.59115 5.97656,-2.26562 C6.38021,-1.91406 6.58203,-1.47135 6.58203,-0.9375 C6.58203,-0.0390625 6.11979,0.800781 5.19531,1.58203 C4.25781,2.36328 3.25521,2.75391 2.1875,2.75391 C1.5625,2.75391 1.03516,2.59115 0.605469,2.26562 C0.201823,1.91406 0,1.47135 0,0.9375 C0,0.0390625 0.46875,-0.800781 1.40625,-1.58203 C2.31771,-2.36328 3.3138,-2.75391 4.39453,-2.75391"/>
<path class="Note" transform="matrix(0.822047,0,0,0.822047,72.7713,131.117)" d="M4.39453,-2.75391 C5.01953,-2.75391 5.54688,-2.59115 5.97656,-2.26562 C6.38021,-1.91406 6.58203,-1.47135 6.58203,-0.9375 C6.58203,-0.0390625 6.11979,0.800781 5.19531,1.58203 C4.25781,2.36328 3.25521,2.75391 2.1875,2.75391 C1.5625,2.75391 1.03516,2.59115 0.605469,2.26562 C0.201823,1.91406 0,1.47135 0,0.9375 C0,0.0390625 0.46875,-0.800781 1.40625,-1.58203 C2.31771,-2.36328 3.3138,-2.75391 4.39453,-2.75391"/>
<path class="Note" transform="matrix(0.822047,0,0,0.822047,55.2378,133.172)" d="M4.39453,-2.75391 C5.01953,-2.75391 5.54688,-2.59115 5.97656,-2.26562 C6.38021,-1.91406 6.58203,-1.47135 6.58203,-0.9375 C6.58203,-0.0390625 6.11979,0.800781 5.19531,1.58203 C4.25781,2.36328 3.25521,2.75391 2.1875,2.75391 C1.5625,2.75391 1.03516,2.59115 0.605469,2.26562 C0.201823,1.91406 0,1.47135 0,0.9375 C0,0.0390625 0.46875,-0.800781 1.40625,-1.58203 C2.31771,-2.36328 3.3138,-2.75391 4.39453,-2.75391"/>
<path class="Note" transform="matrix(0.822047,0,0,0.822047,37.7044,135.227)" d="M4.39453,-2.75391 C5.01953,-2.75391 5.54688,-2.59115 5.97656,-2.26562 C6.38021,-1.91406 6.58203,-1.47135 6.58203,-0.9375 C6.58203,-0.0390625 6.11979,0.800781 5.19531,1.58203 C4.25781,2.36328 3.25521,2.75391 2.1875,2.75391 C1.5625,2.75391 1.03516,2.59115 0.605469,2.26562 C0.201823,1.91406 0,1.47135 0,0.9375 C0,0.0390625 0.46875,-0.800781 1.40625,-1.58203 C2.31771,-2.36328 3.3138,-2.75391 4.39453,-2.75391"/>
<path class="Note" transform="matrix(0.822047,0,0,0.822047,20.171,137.282)" d="M4.39453,-2.75391 C5.01953,-2.75391 5.54688,-2.59115 5.97656,-2.26562 C6.38021,-1.91406 6.58203,-1.47135 6.58203,-0.9375 C6.58203,-0.0390625 6.11979,0.800781 5.19531,1.58203 C4.25781,2.36328 3.25521,2.75391 2.1875,2.75391 C1.5625,2.75391 1.03516,2.59115 0.605469,2.26562 C0.201823,1.91406 0,1.47135 0,0.9375 C0,0.0390625 0.46875,-0.800781 1.40625,-1.58203 C2.31771,-2.36328 3.3138,-2.75391 4.39453,-2.75391"/>
<path class="Note" transform="matrix(0.822047,0,0,0.822047,206.819,85.9039)" d="M4.39453,-2.75391 C5.01953,-2.75391 5.54688,-2.59115 5.97656,-2.26562 C6.38021,-1.91406 6.58203,-1.47135 6.58203,-0.9375 C6.58203,-0.0390625 6.11979,0.800781 5.19531,1.58203 C4.25781,2.36328 3.25521,2.75391 2.1875,2.75391 C1.5625,2.75391 1.03516,2.59115 0.605469,2.26562 C0.201823,1.91406 0,1.47135 0,0.9375 C0,0.0390625 0.46875,-0.800781 1.40625,-1.58203 C2.31771,-2.36328 3.3138,-2.75391 4.39453,-2.75391"/>
<path class="Note" transform="matrix(0.822047,0,0,0.822047,157.22,85.9039)" d="M6.30859,-1.30859 C6.30859,-1.52995 6.22396,-1.71875 6.05469,-1.875 C5.88542,-2.04427 5.6901,-2.12891 5.46875,-2.12891 C5.07812,-2.12891 4.29036,-1.73828 3.10547,-0.957031 C1.88151,-0.16276 1.13281,0.403646 0.859375,0.742188 C0.716146,0.924479 0.644531,1.11328 0.644531,1.30859 C0.644531,1.52995 0.729167,1.71875 0.898438,1.875 C1.05469,2.04427 1.25,2.12891 1.48438,2.12891 C1.86198,2.12891 2.65625,1.73828 3.86719,0.957031 C5.0651,0.175781 5.80729,-0.390625 6.09375,-0.742188 C6.23698,-0.911458 6.30859,-1.10026 6.30859,-1.30859 M5.27344,-2.75391 C6.39323,-2.75391 6.95312,-2.27214 6.95312,-1.30859 C6.95312,-0.839844 6.81641,-0.292969 6.54297,0.332031 C6.26953,0.94401 5.90495,1.41276 5.44922,1.73828 C4.44661,2.41536 3.1901,2.75391 1.67969,2.75391 C0.559896,2.75391 0,2.27214 0,1.30859 C0,0.878906 0.136719,0.338542 0.410156,-0.3125 C0.670573,-0.9375 1.03516,-1.41276 1.50391,-1.73828 C2.50651,-2.41536 3.76302,-2.75391 5.27344,-2.75391"/>
<path class="Note" transform="matrix(0.822047,0,0,0.822047,114.732,83.8488)" d="M4.39453,-2.75391 C5.01953,-2.75391 5.54688,-2.59115 5.97656,-2.26562 C6.38021,-1.91406 6.58203,-1.47135 6.58203,-0.9375 C6.58203,-0.0390625 6.11979,0.800781 5.19531,1.58203 C4.25781,2.36328 3.25521,2.75391 2.1875,2.75391 C1.5625,2.75391 1.03516,2.59115 0.605469,2.26562 C0.201823,1.91406 0,1.47135 0,0.9375 C0,0.0390625 0.46875,-0.800781 1.40625,-1.58203 C2.31771,-2.36328 3.3138,-2.75391 4.39453,-2.75391"/>
<path class="Note" transform="matrix(0.822047,0,0,0.822047,95.82,81.7937)" d="M4.39453,-2.75391 C5.01953,-2.75391 5.54688,-2.59115 5.97656,-2.26562 C6.38021,-1.91406 6.58203,-1.47135 6.58203,-0.9375 C6.58203,-0.0390625 6.11979,0.800781 5.19531,1.58203 C4.25781,2.36328 3.25521,2.75391 2.1875,2.75391 C1.5625,2.75391 1.03516,2.59115 0.605469,2.26562 C0.201823,1.91406 0,1.47135 0,0.9375 C0,0.0390625 0.46875,-0.800781 1.40625,-1.58203 C2.31771,-2.36328 3.3138,-2.75391 4.39453,-2.75391"/>
<path class="Note" transform="matrix(0.822047,0,0,0.822047,76.9078,79.7386)" d="M4.39453,-2.75391 C5.01953,-2.75391 5.54688,-2.59115 5.97656,-2.26562 C6.38021,-1.91406 6.58203,-1.47135 6.58203,-0.9375 C6.58203,-0.0390625 6.11979,0.800781 5.19531,1.58203 C4.25781,2.36328 3.25521,2.75391 2.1875,2.75391 C1.5625,2.75391 1.03516,2.59115 0.605469,2.26562 C0.201823,1.91406 0,1.47135 0,0.9375 C0,0.0390625 0.46875,-0.800781 1.40625,-1.58203 C2.31771,-2.36328 3.3138,-2.75391 4.39453,-2.75391"/>
<path class="Note" transform="matrix(0.822047,0,0,0.822047,57.9955,81.7937)" d="M4.39453,-2.75391 C5.01953,-2.75391 5.54688,-2.59115 5.97656,-2.26562 C6.38021,-1.91406 6.58203,-1.47135 6.58203,-0.9375 C6.58203,-0.0390625 6.11979,0.800781 5.19531,1.58203 C4.25781,2.36328 3.25521,2.75391 2.1875,2.75391 C1.5625,2.75391 1.03516,2.59115 0.605469,2.26562 C0.201823,1.91406 0,1.47135 0,0.9375 C0,0.0390625 0.46875,-0.800781 1.40625,-1.58203 C2.31771,-2.36328 3.3138,-2.75391 4.39453,-2.75391"/>
<path class="Note" transform="matrix(0.822047,0,0,0.822047,39.0832,83.8488)" d="M4.39453,-2.75391 C5.01953,-2.75391 5.54688,-2.59115 5.97656,-2.26562 C6.38021,-1.91406 6.58203,-1.47135 6.58203,-0.9375 C6.58203,-0.0390625 6.11979,0.800781 5.19531,1.58203 C4.25781,2.36328 3.25521,2.75391 2.1875,2.75391 C1.5625,2.75391 1.03516,2.59115 0.605469,2.26562 C0.201823,1.91406 0,1.47135 0,0.9375 C0,0.0390625 0.46875,-0.800781 1.40625,-1.58203 C2.31771,-2.36328 3.3138,-2.75391 4.39453,-2.75391"/>
<path class="Note" transform="matrix(0.822047,0,0,0.822047,20.171,85.9039)" d="M4.39453,-2.75391 C5.01953,-2.75391 5.54688,-2.59115 5.97656,-2.26562 C6.38021,-1.91406 6.58203,-1.47135 6.58203,-0.9375 C6.58203,-0.0390625 6.11979,0.800781 5.19531,1.58203 C4.25781,2.36328 3.25521,2.75391 2.1875,2.75391 C1.5625,2.75391 1.03516,2.59115 0.605469,2.26562 C0.201823,1.91406 0,1.47135 0,0.9375 C0,0.0390625 0.46875,-0.800781 1.40625,-1.58203 C2.31771,-2.36328 3.3138,-2.75391 4.39453,-2.75391"/>
<path class="Note" transform="matrix(0.822047,0,0,0.822047,210.121,42.7465)" d="M4.39453,-2.75391 C5.01953,-2.75391 5.54688,-2.59115 5.97656,-2.26562 C6.38021,-1.91406 6.58203,-1.47135 6.58203,-0.9375 C6.58203,-0.0390625 6.11979,0.800781 5.19531,1.58203 C4.25781,2.36328 3.25521,2.75391 2.1875,2.75391 C1.5625,2.75391 1.03516,2.59115 0.605469,2.26562 C0.201823,1.91406 0,1.47135 0,0.9375 C0,0.0390625 0.46875,-0.800781 1.40625,-1.58203 C2.31771,-2.36328 3.3138,-2.75391 4.39453,-2.75391"/>
<path class="Note" transform="matrix(0.822047,0,0,0.822047,163.162,42.7465)" d="M6.30859,-1.30859 C6.30859,-1.52995 6.22396,-1.71875 6.05469,-1.875 C5.88542,-2.04427 5.6901,-2.12891 5.46875,-2.12891 C5.07812,-2.12891 4.29036,-1.73828 3.10547,-0.957031 C1.88151,-0.16276 1.13281,0.403646 0.859375,0.742188 C0.716146,0.924479 0.644531,1.11328 0.644531,1.30859 C0.644531,1.52995 0.729167,1.71875 0.898438,1.875 C1.05469,2.04427 1.25,2.12891 1.48438,2.12891 C1.86198,2.12891 2.65625,1.73828 3.86719,0.957031 C5.0651,0.175781 5.80729,-0.390625 6.09375,-0.742188 C6.23698,-0.911458 6.30859,-1.10026 6.30859,-1.30859 M5.27344,-2.75391 C6.39323,-2.75391 6.95312,-2.27214 6.95312,-1.30859 C6.95312,-0.839844 6.81641,-0.292969 6.54297,0.332031 C6.26953,0.94401 5.90495,1.41276 5.44922,1.73828 C4.44661,2.41536 3.1901,2.75391 1.67969,2.75391 C0.559896,2.75391 0,2.27214 0,1.30859 C0,0.878906 0.136719,0.338542 0.410156,-0.3125 C0.670573,-0.9375 1.03516,-1.41276 1.50391,-1.73828 C2.50651,-2.41536 3.76302,-2.75391 5.27344,-2.75391"/>
<path class="Note" transform="matrix(0.822047,0,0,0.822047,122.157,40.6913)" d="M4.39453,-2.75391 C5.01953,-2.75391 5.54688,-2.59115 5.97656,-2.26562 C6.38021,-1.91406 6.58203,-1.47135 6.58203,-0.9375 C6.58203,-0.0390625 6.11979,0.800781 5.19531,1.58203 C4.25781,2.36328 3.25521,2.75391 2.1875,2.75391 C1.5625,2.75391 1.03516,2.59115 0.605469,2.26562 C0.201823,1.91406 0,1.47135 0,0.9375 C0,0.0390625 0.46875,-0.800781 1.40625,-1.58203 C2.31771,-2.36328 3.3138,-2.75391 4.39453,-2.75391"/>
<path class="Note" transform="matrix(0.822047,0,0,0.822047,104.005,38.6362)" d="M4.39453,-2.75391 C5.01953,-2.75391 5.54688,-2.59115 5.97656,-2.26562 C6.38021,-1.91406 6.58203,-1.47135 6.58203,-0.9375 C6.58203,-0.0390625 6.11979,0.800781 5.19531,1.58203 C4.25781,2.36328 3.25521,2.75391 2.1875,2.75391 C1.5625,2.75391 1.03516,2.59115 0.605469,2.26562 C0.201823,1.91406 0,1.47135 0,0.9375 C0,0.0390625 0.46875,-0.800781 1.40625,-1.58203 C2.31771,-2.36328 3.3138,-2.75391 4.39453,-2.75391"/>
<path class="Note" transform="matrix(0.822047,0,0,0.822047,85.852,36.5811)" d="M4.39453,-2.75391 C5.01953,-2.75391 5.54688,-2.59115 5.97656,-2.26562 C6.38021,-1.91406 6.58203,-1.47135 6.58203,-0.9375 C6.58203,-0.0390625 6.11979,0.800781 5.19531,1.58203 C4.25781,2.36328 3.25521,2.75391 2.1875,2.75391 C1.5625,2.75391 1.03516,2.59115 0.605469,2.26562 C0.201823,1.91406 0,1.47135 0,0.9375 C0,0.0390625 0.46875,-0.800781 1.40625,-1.58203 C2.31771,-2.36328 3.3138,-2.75391 4.39453,-2.75391"/>
<path class="Note" transform="matrix(0.822047,0,0,0.822047,67.6995,38.6362)" d="M4.39453,-2.75391 C5.01953,-2.75391 5.54688,-2.59115 5.97656,-2.26562 C6.38021,-1.91406 6.58203,-1.47135 6.58203,-0.9375 C6.58203,-0.0390625 6.11979,0.800781 5.19531,1.58203 C4.25781,2.36328 3.25521,2.75391 2.1875,2.75391 C1.5625,2.75391 1.03516,2.59115 0.605469,2.26562 C0.201823,1.91406 0,1.47135 0,0.9375 C0,0.0390625 0.46875,-0.800781 1.40625,-1.58203 C2.31771,-2.36328 3.3138,-2.75391 4.39453,-2.75391"/>
<path class="Note" transform="matrix(0.822047,0,0,0.822047,49.547,40.6913)" d="M4.39453,-2.75391 C5.01953,-2.75391 5.54688,-2.59115 5.97656,-2.26562 C6.38021,-1.91406 6.58203,-1.47135 6.58203,-0.9375 C6.58203,-0.0390625 6.11979,0.800781 5.19531,1.58203 C4.25781,2.36328 3.25521,2.75391 2.1875,2.75391 C1.5625,2.75391 1.03516,2.59115 0.605469,2.26562 C0.201823,1.91406 0,1.47135 0,0.9375 C0,0.0390625 0.46875,-0.800781 1.40625,-1.58203 C2.31771,-2.36328 3.3138,-2.75391 4.39453,-2.75391"/>
<path class="Note" transform="matrix(0.822047,0,0,0.822047,31.3945,42.7465)" d="M4.39453,-2.75391 C5.01953,-2.75391 5.54688,-2.59115 5.97656,-2.26562 C6.38021,-1.91406 6.58203,-1.47135 6.58203,-0.9375 C6.58203,-0.0390625 6.11979,0.800781 5.19531,1.58203 C4.25781,2.36328 3.25521,2.75391 2.1875,2.75391 C1.5625,2.75391 1.03516,2.59115 0.605469,2.26562 C0.201823,1.91406 0,1.47135 0,0.9375 C0,0.0390625 0.46875,-0.800781 1.40625,-1.58203 C2.31771,-2.36328 3.3138,-2.75391 4.39453,-2.75391"/>
<path class="Clef" transform="matrix(0.822047,0,0,0.822047,2.63055,188.66)" d="M7.34375,-5.11719 C7.34375,-5.11719 7.38281,-5.11719 7.46094,-5.11719 C7.51302,-5.13021 7.55859,-5.13672 7.59766,-5.13672 C9.05599,-5.13672 10.2539,-4.6224 11.1914,-3.59375 C12.1289,-2.57812 12.5977,-1.39323 12.5977,-0.0390625 C12.5977,1.64062 11.901,3.00781 10.5078,4.0625 C10.1432,4.34896 9.66797,4.58333 9.08203,4.76562 C9.14714,5.61198 9.17969,6.29557 9.17969,6.81641 C9.17969,6.92057 9.16667,7.29818 9.14062,7.94922 C9.08854,9.16016 8.67188,10.2083 7.89062,11.0938 C7.13542,11.9661 6.19792,12.4023 5.07812,12.4023 C4.02344,12.4023 3.125,12.0312 2.38281,11.2891 C1.64062,10.5339 1.26953,9.6224 1.26953,8.55469 C1.26953,7.99479 1.48438,7.51953 1.91406,7.12891 C2.35677,6.73828 2.87109,6.54297 3.45703,6.54297 C3.97786,6.54297 4.41406,6.74479 4.76562,7.14844 C5.13021,7.52604 5.3125,7.99479 5.3125,8.55469 C5.3125,9.0625 5.13021,9.4987 4.76562,9.86328 C4.40104,10.2279 3.96484,10.4102 3.45703,10.4102 C3.2487,10.4102 3.04688,10.3711 2.85156,10.293 C3.42448,11.1393 4.1862,11.5625 5.13672,11.5625 C6.03516,11.5625 6.77083,11.1979 7.34375,10.4688 C7.94271,9.71354 8.26823,8.83464 8.32031,7.83203 C8.34635,7.20703 8.35938,6.84896 8.35938,6.75781 C8.35938,6.02865 8.33333,5.42969 8.28125,4.96094 C7.63021,5.0651 7.05078,5.11719 6.54297,5.11719 C4.73307,5.11719 3.1901,4.40104 1.91406,2.96875 C0.664062,1.52344 0.0390625,-0.195312 0.0390625,-2.1875 C0.0390625,-2.60417 0.078125,-3.02734 0.15625,-3.45703 C0.234375,-3.80859 0.332031,-4.19271 0.449219,-4.60938 C0.514323,-4.84375 0.690104,-5.22135 0.976562,-5.74219 C1.08073,-5.89844 1.19792,-6.09375 1.32812,-6.32812 C1.45833,-6.5625 1.54948,-6.71875 1.60156,-6.79688 C1.73177,-7.05729 1.98568,-7.40885 2.36328,-7.85156 C2.46745,-7.96875 2.57487,-8.09896 2.68555,-8.24219 C2.79622,-8.38542 2.89062,-8.5026 2.96875,-8.59375 C3.04688,-8.6849 3.10547,-8.75651 3.14453,-8.80859 C3.18359,-8.86068 3.47656,-9.20573 4.02344,-9.84375 C4.15365,-9.97396 4.2806,-10.1139 4.4043,-10.2637 C4.52799,-10.4134 4.62891,-10.5306 4.70703,-10.6152 C4.78516,-10.6999 4.84375,-10.7617 4.88281,-10.8008 C4.41406,-12.3503 4.12109,-13.5872 4.00391,-14.5117 C3.91276,-15.2539 3.86719,-16.2695 3.86719,-17.5586 C3.86719,-18.6914 4.1276,-19.7526 4.64844,-20.7422 C5.15625,-21.7708 5.86589,-22.6107 6.77734,-23.2617 C6.84245,-23.3008 6.90755,-23.3203 6.97266,-23.3203 C7.0638,-23.3203 7.12891,-23.3008 7.16797,-23.2617 C7.87109,-22.4154 8.47656,-21.3151 8.98438,-19.9609 C9.50521,-18.6068 9.76562,-17.3763 9.76562,-16.2695 C9.76562,-15.0195 9.46615,-13.8477 8.86719,-12.7539 C8.1901,-11.5951 7.31771,-10.3971 6.25,-9.16016 C6.52344,-8.30078 6.88802,-6.95312 7.34375,-5.11719 M9.00391,3.96484 C9.68099,3.71745 10.2083,3.29427 10.5859,2.69531 C11.0026,2.1224 11.2109,1.47786 11.2109,0.761719 C11.2109,-0.16276 10.8984,-0.983073 10.2734,-1.69922 C9.63542,-2.44141 8.82161,-2.85807 7.83203,-2.94922 C8.39193,-0.201823 8.78255,2.10286 9.00391,3.96484 M1.44531,-0.546875 C1.44531,0.742188 1.96615,1.875 3.00781,2.85156 C4.07552,3.80208 5.27344,4.27734 6.60156,4.27734 C7.14844,4.27734 7.68229,4.23828 8.20312,4.16016 C7.99479,2.18099 7.58464,-0.188802 6.97266,-2.94922 C6.23047,-2.87109 5.63802,-2.61068 5.19531,-2.16797 C4.76562,-1.71224 4.55078,-1.19792 4.55078,-0.625 C4.55078,0.364583 5.07812,1.16536 6.13281,1.77734 C6.22396,1.86849 6.26953,1.96615 6.26953,2.07031 C6.26953,2.17448 6.22396,2.27214 6.13281,2.36328 C6.05469,2.45443 5.95703,2.5 5.83984,2.5 C5.82682,2.5 5.76823,2.48698 5.66406,2.46094 C4.92188,2.05729 4.34896,1.53646 3.94531,0.898438 C3.56771,0.221354 3.37891,-0.46224 3.37891,-1.15234 C3.37891,-2.05078 3.65885,-2.86458 4.21875,-3.59375 C4.80469,-4.32292 5.56641,-4.79167 6.50391,-5 C6.13932,-6.45833 5.83984,-7.59766 5.60547,-8.41797 C5.39714,-8.18359 5.14648,-7.90039 4.85352,-7.56836 C4.56055,-7.23633 4.38802,-7.03776 4.33594,-6.97266 C3.86719,-6.36068 3.50911,-5.88542 3.26172,-5.54688 C2.81901,-4.9349 2.49349,-4.40755 2.28516,-3.96484 C2.0638,-3.47005 1.86849,-2.92969 1.69922,-2.34375 C1.52995,-1.78385 1.44531,-1.1849 1.44531,-0.546875 M7.96875,-20.4102 C6.99219,-19.9284 6.22396,-19.2383 5.66406,-18.3398 C5.09115,-17.4154 4.80469,-16.4193 4.80469,-15.3516 C4.80469,-14.4141 5.03906,-13.151 5.50781,-11.5625 C6.44531,-12.6953 7.14844,-13.7435 7.61719,-14.707 C8.11198,-15.7227 8.35938,-16.7839 8.35938,-17.8906 C8.35938,-18.724 8.22917,-19.5638 7.96875,-20.4102"/>
<path class="Clef" transform="matrix(0.822047,0,0,0.822047,2.63055,137.282)" d="M7.34375,-5.11719 C7.34375,-5.11719 7.38281,-5.11719 7.46094,-5.11719 C7.51302,-5.13021 7.55859,-5.13672 7.59766,-5.13672 C9.05599,-5.13672 10.2539,-4.6224 11.1914,-3.59375 C12.1289,-2.57812 12.5977,-1.39323 12.5977,-0.0390625 C12.5977,1.64062 11.901,3.00781 10.5078,4.0625 C10.1432,4.34896 9.66797,4.58333 9.08203,4.76562 C9.14714,5.61198 9.17969,6.29557 9.17969,6.81641 C9.17969,6.92057 9.16667,7.29818 9.14062,7.94922 C9.08854,9.16016 8.67188,10.2083 7.89062,11.0938 C7.13542,11.9661 6.19792,12.4023 5.07812,12.4023 C4.02344,12.4023 3.125,12.0312 2.38281,11.2891 C1.64062,10.5339 1.26953,9.6224 1.26953,8.55469 C1.26953,7.99479 1.48438,7.51953 1.91406,7.12891 C2.35677,6.73828 2.87109,6.54297 3.45703,6.54297 C3.97786,6.54297 4.41406,6.74479 4.76562,7.14844 C5.13021,7.52604 5.3125,7.99479 5.3125,8.55469 C5.3125,9.0625 5.13021,9.4987 4.76562,9.86328 C4.40104,10.2279 3.96484,10.4102 3.45703,10.4102 C3.2487,10.4102 3.04688,10.3711 2.85156,10.293 C3.42448,11.1393 4.1862,11.5625 5.13672,11.5625 C6.03516,11.5625 6.77083,11.1979 7.34375,10.4688 C7.94271,9.71354 8.26823,8.83464 8.32031,7.83203 C8.34635,7.20703 8.35938,6.84896 8.35938,6.75781 C8.35938,6.02865 8.33333,5.42969 8.28125,4.96094 C7.63021,5.0651 7.05078,5.11719 6.54297,5.11719 C4.73307,5.11719 3.1901,4.40104 1.91406,2.96875 C0.664062,1.52344 0.0390625,-0.195312 0.0390625,-2.1875 C0.0390625,-2.60417 0.078125,-3.02734 0.15625,-3.45703 C0.234375,-3.80859 0.332031,-4.19271 0.449219,-4.60938 C0.514323,-4.84375 0.690104,-5.22135 0.976562,-5.74219 C1.08073,-5.89844 1.19792,-6.09375 1.32812,-6.32812 C1.45833,-6.5625 1.54948,-6.71875 1.60156,-6.79688 C1.73177,-7.05729 1.98568,-7.40885 2.36328,-7.85156 C2.46745,-7.96875 2.57487,-8.09896 2.68555,-8.24219 C2.79622,-8.38542 2.89062,-8.5026 2.96875,-8.59375 C3.04688,-8.6849 3.10547,-8.75651 3.14453,-8.80859 C3.18359,-8.86068 3.47656,-9.20573 4.02344,-9.84375 C4.15365,-9.97396 4.2806,-10.1139 4.4043,-10.2637 C4.52799,-10.4134 4.62891,-10.5306 4.70703,-10.6152 C4.78516,-10.6999 4.84375,-10.7617 4.88281,-10.8008 C4.41406,-12.3503 4.12109,-13.5872 4.00391,-14.5117 C3.91276,-15.2539 3.86719,-16.2695 3.86719,-17.5586 C3.86719,-18.6914 4.1276,-19.7526 4.64844,-20.7422 C5.15625,-21.7708 5.86589,-22.6107 6.77734,-23.2617 C6.84245,-23.3008 6.90755,-23.3203 6.97266,-23.3203 C7.0638,-23.3203 7.12891,-23.3008 7.16797,-23.2617 C7.87109,-22.4154 8.47656,-21.3151 8.98438,-19.9609 C9.50521,-18.6068 9.76562,-17.3763 9.76562,-16.2695 C9.76562,-15.0195 9.46615,-13.8477 8.86719,-12.7539 C8.1901,-11.5951 7.31771,-10.3971 6.25,-9.16016 C6.52344,-8.30078 6.88802,-6.95312 7.34375,-5.11719 M9.00391,3.96484 C9.68099,3.71745 10.2083,3.29427 10.5859,2.69531 C11.0026,2.1224 11.2109,1.47786 11.2109,0.761719 C11.2109,-0.16276 10.8984,-0.983073 10.2734,-1.69922 C9.63542,-2.44141 8.82161,-2.85807 7.83203,-2.94922 C8.39193,-0.201823 8.78255,2.10286 9.00391,3.96484 M1.44531,-0.546875 C1.44531,0.742188 1.96615,1.875 3.00781,2.85156 C4.07552,3.80208 5.27344,4.27734 6.60156,4.27734 C7.14844,4.27734 7.68229,4.23828 8.20312,4.16016 C7.99479,2.18099 7.58464,-0.188802 6.97266,-2.94922 C6.23047,-2.87109 5.63802,-2.61068 5.19531,-2.16797 C4.76562,-1.71224 4.55078,-1.19792 4.55078,-0.625 C4.55078,0.364583 5.07812,1.16536 6.13281,1.77734 C6.22396,1.86849 6.26953,1.96615 6.26953,2.07031 C6.26953,2.17448 6.22396,2.27214 6.13281,2.36328 C6.05469,2.45443 5.95703,2.5 5.83984,2.5 C5.82682,2.5 5.76823,2.48698 5.66406,2.46094 C4.92188,2.05729 4.34896,1.53646 3.94531,0.898438 C3.56771,0.221354 3.37891,-0.46224 3.37891,-1.15234 C3.37891,-2.05078 3.65885,-2.86458 4.21875,-3.59375 C4.80469,-4.32292 5.56641,-4.79167 6.50391,-5 C6.13932,-6.45833 5.83984,-7.59766 5.60547,-8.41797 C5.39714,-8.18359 5.14648,-7.90039 4.85352,-7.56836 C4.56055,-7.23633 4.38802,-7.03776 4.33594,-6.97266 C3.86719,-6.36068 3.50911,-5.88542 3.26172,-5.54688 C2.81901,-4.9349 2.49349,-4.40755 2.28516,-3.96484 C2.0638,-3.47005 1.86849,-2.92969 1.69922,-2.34375 C1.52995,-1.78385 1.44531,-1.1849 1.44531,-0.546875 M7.96875,-20.4102 C6.99219,-19.9284 6.22396,-19.2383 5.66406,-18.3398 C5.09115,-17.4154 4.80469,-16.4193 4.80469,-15.3516 C4.80469,-14.4141 5.03906,-13.151 5.50781,-11.5625 C6.44531,-12.6953 7.14844,-13.7435 7.61719,-14.707 C8.11198,-15.7227 8.35938,-16.7839 8.35938,-17.8906 C8.35938,-18.724 8.22917,-19.5638 7.96875,-20.4102"/>
<path class="Clef" transform="matrix(0.822047,0,0,0.822047,2.63055,85.9039)" d="M7.34375,-5.11719 C7.34375,-5.11719 7.38281,-5.11719 7.46094,-5.11719 C7.51302,-5.13021 7.55859,-5.13672 7.59766,-5.13672 C9.05599,-5.13672 10.2539,-4.6224 11.1914,-3.59375 C12.1289,-2.57812 12.5977,-1.39323 12.5977,-0.0390625 C12.5977,1.64062 11.901,3.00781 10.5078,4.0625 C10.1432,4.34896 9.66797,4.58333 9.08203,4.76562 C9.14714,5.61198 9.17969,6.29557 9.17969,6.81641 C9.17969,6.92057 9.16667,7.29818 9.14062,7.94922 C9.08854,9.16016 8.67188,10.2083 7.89062,11.0938 C7.13542,11.9661 6.19792,12.4023 5.07812,12.4023 C4.02344,12.4023 3.125,12.0312 2.38281,11.2891 C1.64062,10.5339 1.26953,9.6224 1.26953,8.55469 C1.26953,7.99479 1.48438,7.51953 1.91406,7.12891 C2.35677,6.73828 2.87109,6.54297 3.45703,6.54297 C3.97786,6.54297 4.41406,6.74479 4.76562,7.14844 C5.13021,7.52604 5.3125,7.99479 5.3125,8.55469 C5.3125,9.0625 5.13021,9.4987 4.76562,9.86328 C4.40104,10.2279 3.96484,10.4102 3.45703,10.4102 C3.2487,10.4102 3.04688,10.3711 2.85156,10.293 C3.42448,11.1393 4.1862,11.5625 5.13672,11.5625 C6.03516,11.5625 6.77083,11.1979 7.34375,10.4688 C7.94271,9.71354 8.26823,8.83464 8.32031,7.83203 C8.34635,7.20703 8.35938,6.84896 8.35938,6.75781 C8.35938,6.02865 8.33333,5.42969 8.28125,4.96094 C7.63021,5.0651 7.05078,5.11719 6.54297,5.11719 C4.73307,5.11719 3.1901,4.40104 1.91406,2.96875 C0.664062,1.52344 0.0390625,-0.195312 0.0390625,-2.1875 C0.0390625,-2.60417 0.078125,-3.02734 0.15625,-3.45703 C0.234375,-3.80859 0.332031,-4.19271 0.449219,-4.60938 C0.514323,-4.84375 0.690104,-5.22135 0.976562,-5.74219 C1.08073,-5.89844 1.19792,-6.09375 1.32812,-6.32812 C1.45833,-6.5625 1.54948,-6.71875 1.60156,-6.79688 C1.73177,-7.05729 1.98568,-7.40885 2.36328,-7.85156 C2.46745,-7.96875 2.57487,-8.09896 2.68555,-8.24219 C2.79622,-8.38542 2.89062,-8.5026 2.96875,-8.59375 C3.04688,-8.6849 3.10547,-8.75651 3.14453,-8.80859 C3.18359,-8.86068 3.47656,-9.20573 4.02344,-9.84375 C4.15365,-9.97396 4.2806,-10.1139 4.4043,-10.2637 C4.52799,-10.4134 4.62891,-10.5306 4.70703,-10.6152 C4.78516,-10.6999 4.84375,-10.7617 4.88281,-10.8008 C4.41406,-12.3503 4.12109,-13.5872 4.00391,-14.5117 C3.91276,-15.2539 3.86719,-16.2695 3.86719,-17.5586 C3.86719,-18.6914 4.1276,-19.7526 4.64844,-20.7422 C5.15625,-21.7708 5.86589,-22.6107 6.77734,-23.2617 C6.84245,-23.3008 6.90755,-23.3203 6.97266,-23.3203 C7.0638,-23.3203 7.12891,-23.3008 7.16797,-23.2617 C7.87109,-22.4154 8.47656,-21.3151 8.98438,-19.9609 C9.50521,-18.6068 9.76562,-17.3763 9.76562,-16.2695 C9.76562,-15.0195 9.46615,-13.8477 8.86719,-12.7539 C8.1901,-11.5951 7.31771,-10.3971 6.25,-9.16016 C6.52344,-8.30078 6.88802,-6.95312 7.34375,-5.11719 M9.00391,3.96484 C9.68099,3.71745 10.2083,3.29427 10.5859,2.69531 C11.0026,2.1224 11.2109,1.47786 11.2109,0.761719 C11.2109,-0.16276 10.8984,-0.983073 10.2734,-1.69922 C9.63542,-2.44141 8.82161,-2.85807 7.83203,-2.94922 C8.39193,-0.201823 8.78255,2.10286 9.00391,3.96484 M1.44531,-0.546875 C1.44531,0.742188 1.96615,1.875 3.00781,2.85156 C4.07552,3.80208 5.27344,4.27734 6.60156,4.27734 C7.14844,4.27734 7.68229,4.23828 8.20312,4.16016 C7.99479,2.18099 7.58464,-0.188802 6.97266,-2.94922 C6.23047,-2.87109 5.63802,-2.61068 5.19531,-2.16797 C4.76562,-1.71224 4.55078,-1.19792 4.55078,-0.625 C4.55078,0.364583 5.07812,1.16536 6.13281,1.77734 C6.22396,1.86849 6.26953,1.96615 6.26953,2.07031 C6.26953,2.17448 6.22396,2.27214 6.13281,2.36328 C6.05469,2.45443 5.95703,2.5 5.83984,2.5 C5.82682,2.5 5.76823,2.48698 5.66406,2.46094 C4.92188,2.05729 4.34896,1.53646 3.94531,0.898438 C3.56771,0.221354 3.37891,-0.46224 3.37891,-1.15234 C3.37891,-2.05078 3.65885,-2.86458 4.21875,-3.59375 C4.80469,-4.32292 5.56641,-4.79167 6.50391,-5 C6.13932,-6.45833 5.83984,-7.59766 5.60547,-8.41797 C5.39714,-8.18359 5.14648,-7.90039 4.85352,-7.56836 C4.56055,-7.23633 4.38802,-7.03776 4.33594,-6.97266 C3.86719,-6.36068 3.50911,-5.88542 3.26172,-5.54688 C2.81901,-4.9349 2.49349,-4.40755 2.28516,-3.96484 C2.0638,-3.47005 1.86849,-2.92969 1.69922,-2.34375 C1.52995,-1.78385 1.44531,-1.1849 1.44531,-0.546875 M7.96875,-20.4102 C6.99219,-19.9284 6.22396,-19.2383 5.66406,-18.3398 C5.09115,-17.4154 4.80469,-16.4193 4.80469,-15.3516 C4.80469,-14.4141 5.03906,-13.151 5.50781,-11.5625 C6.44531,-12.6953 7.14844,-13.7435 7.61719,-14.707 C8.11198,-15.7227 8.35938,-16.7839 8.35938,-17.8906 C8.35938,-18.724 8.22917,-19.5638 7.96875,-20.4102"/>
<path class="Clef" transform="matrix(0.822047,0,0,0.822047,2.63055,34.526)" d="M7.34375,-5.11719 C7.34375,-5.11719 7.38281,-5.11719 7.46094,-5.11719 C7.51302,-5.13021 7.55859,-5.13672 7.59766,-5.13672 C9.05599,-5.13672 10.2539,-4.6224 11.1914,-3.59375 C12.1289,-2.57812 12.5977,-1.39323 12.5977,-0.0390625 C12.5977,1.64062 11.901,3.00781 10.5078,4.0625 C10.1432,4.34896 9.66797,4.58333 9.08203,4.76562 C9.14714,5.61198 9.17969,6.29557 9.17969,6.81641 C9.17969,6.92057 9.16667,7.29818 9.14062,7.94922 C9.08854,9.16016 8.67188,10.2083 7.89062,11.0938 C7.13542,11.9661 6.19792,12.4023 5.07812,12.4023 C4.02344,12.4023 3.125,12.0312 2.38281,11.2891 C1.64062,10.5339 1.26953,9.6224 1.26953,8.55469 C1.26953,7.99479 1.48438,7.51953 1.91406,7.12891 C2.35677,6.73828 2.87109,6.54297 3.45703,6.54297 C3.97786,6.54297 4.41406,6.74479 4.76562,7.14844 C5.13021,7.52604 5.3125,7.99479 5.3125,8.55469 C5.3125,9.0625 5.13021,9.4987 4.76562,9.86328 C4.40104,10.2279 3.96484,10.4102 3.45703,10.4102 C3.2487,10.4102 3.04688,10.3711 2.85156,10.293 C3.42448,11.1393 4.1862,11.5625 5.13672,11.5625 C6.03516,11.5625 6.77083,11.1979 7.34375,10.4688 C7.94271,9.71354 8.26823,8.83464 8.32031,7.83203 C8.34635,7.20703 8.35938,6.84896 8.35938,6.75781 C8.35938,6.02865 8.33333,5.42969 8.28125,4.96094 C7.63021,5.0651 7.05078,5.11719 6.54297,5.11719 C4.73307,5.11719 3.1901,4.40104 1.91406,2.96875 C0.664062,1.52344 0.0390625,-0.195312 0.0390625,-2.1875 C0.0390625,-2.60417 0.078125,-3.02734 0.15625,-3.45703 C0.234375,-3.80859 0.332031,-4.19271 0.449219,-4.60938 C0.514323,-4.84375 0.690104,-5.22135 0.976562,-5.74219 C1.08073,-5.89844 1.19792,-6.09375 1.32812,-6.32812 C1.45833,-6.5625 1.54948,-6.71875 1.60156,-6.79688 C1.73177,-7.05729 1.98568,-7.40885 2.36328,-7.85156 C2.46745,-7.96875 2.57487,-8.09896 2.68555,-8.24219 C2.79622,-8.38542 2.89062,-8.5026 2.96875,-8.59375 C3.04688,-8.6849 3.10547,-8.75651 3.14453,-8.80859 C3.18359,-8.86068 3.47656,-9.20573 4.02344,-9.84375 C4.15365,-9.97396 4.2806,-10.1139 4.4043,-10.2637 C4.52799,-10.4134 4.62891,-10.5306 4.70703,-10.6152 C4.78516,-10.6999 4.84375,-10.7617 4.88281,-10.8008 C4.41406,-12.3503 4.12109,-13.5872 4.00391,-14.5117 C3.91276,-15.2539 3.86719,-16.2695 3.86719,-17.5586 C3.86719,-18.6914 4.1276,-19.7526 4.64844,-20.7422 C5.15625,-21.7708 5.86589,-22.6107 6.77734,-23.2617 C6.84245,-23.3008 6.90755,-23.3203 6.97266,-23.3203 C7.0638,-23.3203 7.12891,-23.3008 7.16797,-23.2617 C7.87109,-22.4154 8.47656,-21.3151 8.98438,-19.9609 C9.50521,-18.6068 9.76562,-17.3763 9.76562,-16.2695 C9.76562,-15.0195 9.46615,-13.8477 8.86719,-12.7539 C8.1901,-11.5951 7.31771,-10.3971 6.25,-9.16016 C6.52344,-8.30078 6.88802,-6.95312 7.34375,-5.11719 M9.00391,3.96484 C9.68099,3.71745 10.2083,3.29427 10.5859,2.69531 C11.0026,2.1224 11.2109,1.47786 11.2109,0.761719 C11.2109,-0.16276 10.8984,-0.983073 10.2734,-1.69922 C9.63542,-2.44141 8.82161,-2.85807 7.83203,-2.94922 C8.39193,-0.201823 8.78255,2.10286 9.00391,3.96484 M1.44531,-0.546875 C1.44531,0.742188 1.96615,1.875 3.00781,2.85156 C4.07552,3.80208 5.27344,4.27734 6.60156,4.27734 C7.14844,4.27734 7.68229,4.23828 8.20312,4.16016 C7.99479,2.18099 7.58464,-0.188802 6.97266,-2.94922 C6.23047,-2.87109 5.63802,-2.61068 5.19531,-2.16797 C4.76562,-1.71224 4.55078,-1.19792 4.55078,-0.625 C4.55078,0.364583 5.07812,1.16536 6.13281,1.77734 C6.22396,1.86849 6.26953,1.96615 6.26953,2.07031 C6.26953,2.17448 6.22396,2.27214 6.13281,2.36328 C6.05469,2.45443 5.95703,2.5 5.83984,2.5 C5.82682,2.5 5.76823,2.48698 5.66406,2.46094 C4.92188,2.05729 4.34896,1.53646 3.94531,0.898438 C3.56771,0.221354 3.37891,-0.46224 3.37891,-1.15234 C3.37891,-2.05078 3.65885,-2.86458 4.21875,-3.59375 C4.80469,-4.32292 5.56641,-4.79167 6.50391,-5 C6.13932,-6.45833 5.83984,-7.59766 5.60547,-8.41797 C5.39714,-8.18359 5.14648,-7.90039 4.85352,-7.56836 C4.56055,-7.23633 4.38802,-7.03776 4.33594,-6.97266 C3.86719,-6.36068 3.50911,-5.88542 3.26172,-5.54688 C2.81901,-4.9349 2.49349,-4.40755 2.28516,-3.96484 C2.0638,-3.47005 1.86849,-2.92969 1.69922,-2.34375 C1.52995,-1.78385 1.44531,-1.1849 1.44531,-0.546875 M7.96875,-20.4102 C6.99219,-19.9284 6.22396,-19.2383 5.66406,-18.3398 C5.09115,-17.4154 4.80469,-16.4193 4.80469,-15.3516 C4.80469,-14.4141 5.03906,-13.151 5.50781,-11.5625 C6.44531,-12.6953 7.14844,-13.7435 7.61719,-14.707 C8.11198,-15.7227 8.35938,-16.7839 8.35938,-17.8906 C8.35938,-18.724 8.22917,-19.5638 7.96875,-20.4102"/>
<path class="TimeSig" transform="matrix(0.822047,0,0,0.822047,17.0883,30.4157)" d="M7.1875,-0.546875 C6.84896,-0.546875 6.51042,-0.677083 6.17188,-0.9375 C5.84635,-1.1849 5.68359,-1.54948 5.68359,-2.03125 C5.68359,-2.4349 5.82031,-2.79297 6.09375,-3.10547 C6.35417,-3.41797 6.69922,-3.57422 7.12891,-3.57422 C7.27214,-3.57422 7.36328,-3.56771 7.40234,-3.55469 C6.80339,-4.32292 6.0026,-4.72005 5,-4.74609 C4.24479,-4.74609 3.67188,-4.53125 3.28125,-4.10156 C3.15104,-3.93229 3.03385,-3.65885 2.92969,-3.28125 C2.82552,-2.90365 2.77344,-2.5651 2.77344,-2.26562 C2.7474,-2.05729 2.73438,-1.64062 2.73438,-1.01562 L2.73438,1.01562 C2.73438,1.64062 2.7474,2.0638 2.77344,2.28516 C2.82552,3.13151 2.99479,3.73698 3.28125,4.10156 C3.6849,4.54427 4.25781,4.76562 5,4.76562 C5.78125,4.76562 6.44531,4.47917 6.99219,3.90625 C7.55208,3.34635 7.94271,2.6237 8.16406,1.73828 C8.20312,1.60807 8.28125,1.54297 8.39844,1.54297 C8.56771,1.54297 8.65234,1.62109 8.65234,1.77734 C8.65234,1.86849 8.61328,2.04427 8.53516,2.30469 C8.35286,2.89062 7.99479,3.50911 7.46094,4.16016 C6.82292,4.88932 6.0026,5.25391 5,5.25391 C4.41406,5.25391 3.8151,5.16927 3.20312,5 C2.60417,4.79167 2.07682,4.50521 1.62109,4.14062 C1.11328,3.73698 0.716146,3.1901 0.429688,2.5 C0.143229,1.74479 0,0.911458 0,0 C0,-1.58854 0.429688,-2.85156 1.28906,-3.78906 C2.1224,-4.7526 3.35938,-5.23438 5,-5.23438 C6.06771,-5.23438 6.91406,-4.86979 7.53906,-4.14062 C8.1901,-3.41146 8.51562,-2.6888 8.51562,-1.97266 C8.51562,-1.55599 8.38542,-1.21745 8.125,-0.957031 C7.89062,-0.683594 7.57812,-0.546875 7.1875,-0.546875"/>
<path class="Rest" transform="matrix(0.822047,0,0,0.822047,234.633,184.55)" d="M-0.117188,-1.5625 C-0.117188,-1.79688 0.0130208,-2.05729 0.273438,-2.34375 C0.46875,-2.55208 0.755208,-2.79948 1.13281,-3.08594 C1.41927,-3.28125 1.69922,-3.57422 1.97266,-3.96484 C2.23307,-4.34245 2.36328,-4.7526 2.36328,-5.19531 C2.36328,-5.71615 2.19401,-6.17839 1.85547,-6.58203 L1.15234,-7.42188 C1.10026,-7.47396 1.07422,-7.53906 1.07422,-7.61719 C1.07422,-7.69531 1.11328,-7.76693 1.19141,-7.83203 C1.28255,-7.89714 1.36068,-7.92969 1.42578,-7.92969 C1.51693,-7.92969 1.58854,-7.89062 1.64062,-7.8125 L4.66797,-4.21875 C4.79818,-4.04948 4.86328,-3.88021 4.86328,-3.71094 C4.86328,-3.47656 4.73307,-3.21615 4.47266,-2.92969 C4.30339,-2.7474 4.02344,-2.5 3.63281,-2.1875 C3.33333,-2.00521 3.04688,-1.71224 2.77344,-1.30859 C2.51302,-0.93099 2.38281,-0.520833 2.38281,-0.078125 C2.38281,0.46875 2.53906,0.93099 2.85156,1.30859 L4.53125,3.28125 C4.57031,3.32031 4.60286,3.38542 4.62891,3.47656 C4.62891,3.56771 4.59635,3.64583 4.53125,3.71094 C4.4401,3.77604 4.36198,3.80859 4.29688,3.80859 C4.27083,3.80859 4.16667,3.73698 3.98438,3.59375 C3.78906,3.4375 3.52865,3.28776 3.20312,3.14453 C2.83854,3.0013 2.48047,2.92969 2.12891,2.92969 C1.80339,2.92969 1.53646,3.02083 1.32812,3.20312 C1.14583,3.38542 1.05469,3.73698 1.05469,4.25781 C1.05469,5.05208 1.24349,5.67708 1.62109,6.13281 C1.66016,6.1849 1.66667,6.25 1.64062,6.32812 C1.61458,6.38021 1.56901,6.40625 1.50391,6.40625 C1.41276,6.40625 1.21094,6.17188 0.898438,5.70312 C0.572917,5.20833 0.266927,4.64193 -0.0195312,4.00391 C-0.31901,3.32682 -0.46875,2.76693 -0.46875,2.32422 C-0.46875,1.76432 -0.201823,1.48438 0.332031,1.48438 C0.94401,1.48438 1.73828,1.69271 2.71484,2.10938 L0.078125,-1.05469 C-0.0520833,-1.22396 -0.117188,-1.39323 -0.117188,-1.5625"/>
<path class="Rest" transform="matrix(0.822047,0,0,0.822047,241.745,133.172)" d="M-0.117188,-1.5625 C-0.117188,-1.79688 0.0130208,-2.05729 0.273438,-2.34375 C0.46875,-2.55208 0.755208,-2.79948 1.13281,-3.08594 C1.41927,-3.28125 1.69922,-3.57422 1.97266,-3.96484 C2.23307,-4.34245 2.36328,-4.7526 2.36328,-5.19531 C2.36328,-5.71615 2.19401,-6.17839 1.85547,-6.58203 L1.15234,-7.42188 C1.10026,-7.47396 1.07422,-7.53906 1.07422,-7.61719 C1.07422,-7.69531 1.11328,-7.76693 1.19141,-7.83203 C1.28255,-7.89714 1.36068,-7.92969 1.42578,-7.92969 C1.51693,-7.92969 1.58854,-7.89062 1.64062,-7.8125 L4.66797,-4.21875 C4.79818,-4.04948 4.86328,-3.88021 4.86328,-3.71094 C4.86328,-3.47656 4.73307,-3.21615 4.47266,-2.92969 C4.30339,-2.7474 4.02344,-2.5 3.63281,-2.1875 C3.33333,-2.00521 3.04688,-1.71224 2.77344,-1.30859 C2.51302,-0.93099 2.38281,-0.520833 2.38281,-0.078125 C2.38281,0.46875 2.53906,0.93099 2.85156,1.30859 L4.53125,3.28125 C4.57031,3.32031 4.60286,3.38542 4.62891,3.47656 C4.62891,3.56771 4.59635,3.64583 4.53125,3.71094 C4.4401,3.77604 4.36198,3.80859 4.29688,3.80859 C4.27083,3.80859 4.16667,3.73698 3.98438,3.59375 C3.78906,3.4375 3.52865,3.28776 3.20312,3.14453 C2.83854,3.0013 2.48047,2.92969 2.12891,2.92969 C1.80339,2.92969 1.53646,3.02083 1.32812,3.20312 C1.14583,3.38542 1.05469,3.73698 1.05469,4.25781 C1.05469,5.05208 1.24349,5.67708 1.62109,6.13281 C1.66016,6.1849 1.66667,6.25 1.64062,6.32812 C1.61458,6.38021 1.56901,6.40625 1.50391,6.40625 C1.41276,6.40625 1.21094,6.17188 0.898438,5.70312 C0.572917,5.20833 0.266927,4.64193 -0.0195312,4.00391 C-0.31901,3.32682 -0.46875,2.76693 -0.46875,2.32422 C-0.46875,1.76432 -0.201823,1.48438 0.332031,1.48438 C0.94401,1.48438 1.73828,1.69271 2.71484,2.10938 L0.078125,-1.05469 C-0.0520833,-1.22396 -0.117188,-1.39323 -0.117188,-1.5625"/>
<path class="Rest" transform="matrix(0.822047,0,0,0.822047,237.727,81.7937)" d="M-0.117188,-1.5625 C-0.117188,-1.79688 0.0130208,-2.05729 0.273438,-2.34375 C0.46875,-2.55208 0.755208,-2.79948 1.13281,-3.08594 C1.41927,-3.28125 1.69922,-3.57422 1.97266,-3.96484 C2.23307,-4.34245 2.36328,-4.7526 2.36328,-5.19531 C2.36328,-5.71615 2.19401,-6.17839 1.85547,-6.58203 L1.15234,-7.42188 C1.10026,-7.47396 1.07422,-7.53906 1.07422,-7.61719 C1.07422,-7.69531 1.11328,-7.76693 1.19141,-7.83203 C1.28255,-7.89714 1.36068,-7.92969 1.42578,-7.92969 C1.51693,-7.92969 1.58854,-7.89062 1.64062,-7.8125 L4.66797,-4.21875 C4.79818,-4.04948 4.86328,-3.88021 4.86328,-3.71094 C4.86328,-3.47656 4.73307,-3.21615 4.47266,-2.92969 C4.30339,-2.7474 4.02344,-2.5 3.63281,-2.1875 C3.33333,-2.00521 3.04688,-1.71224 2.77344,-1.30859 C2.51302,-0.93099 2.38281,-0.520833 2.38281,-0.078125 C2.38281,0.46875 2.53906,0.93099 2.85156,1.30859 L4.53125,3.28125 C4.57031,3.32031 4.60286,3.38542 4.62891,3.47656 C4.62891,3.56771 4.59635,3.64583 4.53125,3.71094 C4.4401,3.77604 4.36198,3.80859 4.29688,3.80859 C4.27083,3.80859 4.16667,3.73698 3.98438,3.59375 C3.78906,3.4375 3.52865,3.28776 3.20312,3.14453 C2.83854,3.0013 2.48047,2.92969 2.12891,2.92969 C1.80339,2.92969 1.53646,3.02083 1.32812,3.20312 C1.14583,3.38542 1.05469,3.73698 1.05469,4.25781 C1.05469,5.05208 1.24349,5.67708 1.62109,6.13281 C1.66016,6.1849 1.66667,6.25 1.64062,6.32812 C1.61458,6.38021 1.56901,6.40625 1.50391,6.40625 C1.41276,6.40625 1.21094,6.17188 0.898438,5.70312 C0.572917,5.20833 0.266927,4.64193 -0.0195312,4.00391 C-0.31901,3.32682 -0.46875,2.76693 -0.46875,2.32422 C-0.46875,1.76432 -0.201823,1.48438 0.332031,1.48438 C0.94401,1.48438 1.73828,1.69271 2.71484,2.10938 L0.078125,-1.05469 C-0.0520833,-1.22396 -0.117188,-1.39323 -0.117188,-1.5625"/>
<path class="Rest" transform="matrix(0.822047,0,0,0.822047,239.377,30.4157)" d="M-0.117188,-1.5625 C-0.117188,-1.79688 0.0130208,-2.05729 0.273438,-2.34375 C0.46875,-2.55208 0.755208,-2.79948 1.13281,-3.08594 C1.41927,-3.28125 1.69922,-3.57422 1.97266,-3.96484 C2.23307,-4.34245 2.36328,-4.7526 2.36328,-5.19531 C2.36328,-5.71615 2.19401,-6.17839 1.85547,-6.58203 L1.15234,-7.42188 C1.10026,-7.47396 1.07422,-7.53906 1.07422,-7.61719 C1.07422,-7.69531 1.11328,-7.76693 1.19141,-7.83203 C1.28255,-7.89714 1.36068,-7.92969 1.42578,-7.92969 C1.51693,-7.92969 1.58854,-7.89062 1.64062,-7.8125 L4.66797,-4.21875 C4.79818,-4.04948 4.86328,-3.88021 4.86328,-3.71094 C4.86328,-3.47656 4.73307,-3.21615 4.47266,-2.92969 C4.30339,-2.7474 4.02344,-2.5 3.63281,-2.1875 C3.33333,-2.00521 3.04688,-1.71224 2.77344,-1.30859 C2.51302,-0.93099 2.38281,-0.520833 2.38281,-0.078125 C2.38281,0.46875 2.53906,0.93099 2.85156,1.30859 L4.53125,3.28125 C4.57031,3.32031 4.60286,3.38542 4.62891,3.47656 C4.62891,3.56771 4.59635,3.64583 4.53125,3.71094 C4.4401,3.77604 4.36198,3.80859 4.29688,3.80859 C4.27083,3.80859 4.16667,3.73698 3.98438,3.59375 C3.78906,3.4375 3.52865,3.28776 3.20312,3.14453 C2.83854,3.0013 2.48047,2.92969 2.12891,2.92969 C1.80339,2.92969 1.53646,3.02083 1.32812,3.20312 C1.14583,3.38542 1.05469,3.73698 1.05469,4.25781 C1.05469,5.05208 1.24349,5.67708 1.62109,6.13281 C1.66016,6.1849 1.66667,6.25 1.64062,6.32812 C1.61458,6.38021 1.56901,6.40625 1.50391,6.40625 C1.41276,6.40625 1.21094,6.17188 0.898438,5.70312 C0.572917,5.20833 0.266927,4.64193 -0.0195312,4.00391 C-0.31901,3.32682 -0.46875,2.76693 -0.46875,2.32422 C-0.46875,1.76432 -0.201823,1.48438 0.332031,1.48438 C0.94401,1.48438 1.73828,1.69271 2.71484,2.10938 L0.078125,-1.05469 C-0.0520833,-1.22396 -0.117188,-1.39323 -0.117188,-1.5625"/>
<path class="Beam" fill-rule="evenodd" d="M25.048,183.571 L81.6636,178.384 L81.6636,180.439 L25.048,185.626 L25.048,183.571 "/>
<path class="Beam" fill-rule="evenodd" d="M152.512,123.924 L203.463,123.924 L203.463,125.979 L152.512,125.979 L152.512,123.924 "/>
<path class="Beam" fill-rule="evenodd" d="M25.048,120.883 L78.1827,116.731 L78.1827,118.786 L25.048,122.938 L25.048,120.883 "/>
<path class="Beam" fill-rule="evenodd" d="M25.048,69.5017 L82.3192,65.3528 L82.3192,67.4079 L25.048,71.5568 L25.048,69.5017 "/>
<path class="Beam" fill-rule="evenodd" d="M36.2716,29.4386 L91.2634,24.2504 L91.2634,26.3055 L36.2716,31.4937 L36.2716,29.4386 "/>
<path class="Hook" transform="matrix(0.822047,0,0,0.822047,99.823,178.384)" d="M0,5 L0,0 L0.625,0 C0.625,0.742188 0.768229,1.48438 1.05469,2.22656 C1.36719,3.03385 1.71224,3.73698 2.08984,4.33594 C2.36328,4.76562 2.77344,5.42318 3.32031,6.30859 C3.73698,6.98568 4.08854,7.69531 4.375,8.4375 C4.66146,9.17969 4.80469,9.92188 4.80469,10.6641 C4.80469,12.0182 4.52474,13.3984 3.96484,14.8047 C3.8737,14.9609 3.75,15.0391 3.59375,15.0391 C3.46354,15.0391 3.34635,14.987 3.24219,14.8828 C3.16406,14.8047 3.125,14.707 3.125,14.5898 L3.125,14.4922 C3.6849,13.2031 3.96484,11.9271 3.96484,10.6641 C3.96484,10.013 3.76953,9.3099 3.37891,8.55469 C2.98828,7.78646 2.59115,7.17448 2.1875,6.71875 C1.73177,6.1849 1.21094,5.61198 0.625,5 L0,5 "/>
<path class="Hook" transform="matrix(0.822047,0,0,0.822047,90.3047,147.557)" d="M4.55078,-14.4727 C4.85026,-14.4727 5.16927,-13.9844 5.50781,-13.0078 C5.83333,-12.0443 5.99609,-11.1263 5.99609,-10.2539 C5.99609,-9.51172 5.8138,-8.77604 5.44922,-8.04688 C5.07161,-7.26562 4.6224,-6.58854 4.10156,-6.01562 L2.5,-4.21875 C2.00521,-3.64583 1.5625,-2.98177 1.17188,-2.22656 C0.807292,-1.4974 0.625,-0.755208 0.625,0 L0,0 L0,-5 L0.625,-5 C0.976562,-5.22135 1.4974,-5.57292 2.1875,-6.05469 C2.5,-6.28906 2.96875,-6.67969 3.59375,-7.22656 C4.10156,-7.69531 4.48568,-8.17708 4.74609,-8.67188 C5.01953,-9.19271 5.15625,-9.72005 5.15625,-10.2539 C5.15625,-11.4909 4.79818,-12.7214 4.08203,-13.9453 C4.08203,-13.9453 4.08203,-13.9714 4.08203,-14.0234 C4.08203,-14.1406 4.12109,-14.2383 4.19922,-14.3164 C4.30339,-14.4206 4.42057,-14.4727 4.55078,-14.4727"/>
<path class="Hook" transform="matrix(0.822047,0,0,0.822047,95.82,96.1795)" d="M4.55078,-14.4727 C4.85026,-14.4727 5.16927,-13.9844 5.50781,-13.0078 C5.83333,-12.0443 5.99609,-11.1263 5.99609,-10.2539 C5.99609,-9.51172 5.8138,-8.77604 5.44922,-8.04688 C5.07161,-7.26562 4.6224,-6.58854 4.10156,-6.01562 L2.5,-4.21875 C2.00521,-3.64583 1.5625,-2.98177 1.17188,-2.22656 C0.807292,-1.4974 0.625,-0.755208 0.625,0 L0,0 L0,-5 L0.625,-5 C0.976562,-5.22135 1.4974,-5.57292 2.1875,-6.05469 C2.5,-6.28906 2.96875,-6.67969 3.59375,-7.22656 C4.10156,-7.69531 4.48568,-8.17708 4.74609,-8.67188 C5.01953,-9.19271 5.15625,-9.72005 5.15625,-10.2539 C5.15625,-11.4909 4.79818,-12.7214 4.08203,-13.9453 C4.08203,-13.9453 4.08203,-13.9714 4.08203,-14.0234 C4.08203,-14.1406 4.12109,-14.2383 4.19922,-14.3164 C4.30339,-14.4206 4.42057,-14.4727 4.55078,-14.4727"/>
<path class="Hook" transform="matrix(0.822047,0,0,0.822047,108.882,24.2504)" d="M0,5 L0,0 L0.625,0 C0.625,0.742188 0.768229,1.48438 1.05469,2.22656 C1.36719,3.03385 1.71224,3.73698 2.08984,4.33594 C2.36328,4.76562 2.77344,5.42318 3.32031,6.30859 C3.73698,6.98568 4.08854,7.69531 4.375,8.4375 C4.66146,9.17969 4.80469,9.92188 4.80469,10.6641 C4.80469,12.0182 4.52474,13.3984 3.96484,14.8047 C3.8737,14.9609 3.75,15.0391 3.59375,15.0391 C3.46354,15.0391 3.34635,14.987 3.24219,14.8828 C3.16406,14.8047 3.125,14.707 3.125,14.5898 L3.125,14.4922 C3.6849,13.2031 3.96484,11.9271 3.96484,10.6641 C3.96484,10.013 3.76953,9.3099 3.37891,8.55469 C2.98828,7.78646 2.59115,7.17448 2.1875,6.71875 C1.73177,6.1849 1.21094,5.61198 0.625,5 L0,5 "/>
<path class="NoteDot" transform="matrix(0.822047,0,0,0.822047,120.49,194.825)" d="M0.332031,0.800781 C0.110677,0.579427 0,0.3125 0,0 C0,-0.3125 0.110677,-0.579427 0.332031,-0.800781 C0.553385,-1.02214 0.820312,-1.13281 1.13281,-1.13281 C1.44531,-1.13281 1.71224,-1.02214 1.93359,-0.800781 C2.15495,-0.579427 2.26562,-0.3125 2.26562,0 C2.26562,0.3125 2.15495,0.579427 1.93359,0.800781 C1.71224,1.02214 1.44531,1.13281 1.13281,1.13281 C0.820312,1.13281 0.553385,1.02214 0.332031,0.800781"/>
<path class="NoteDot" transform="matrix(0.822047,0,0,0.822047,114.688,135.227)" d="M0.332031,0.800781 C0.110677,0.579427 0,0.3125 0,0 C0,-0.3125 0.110677,-0.579427 0.332031,-0.800781 C0.553385,-1.02214 0.820312,-1.13281 1.13281,-1.13281 C1.44531,-1.13281 1.71224,-1.02214 1.93359,-0.800781 C2.15495,-0.579427 2.26562,-0.3125 2.26562,0 C2.26562,0.3125 2.15495,0.579427 1.93359,0.800781 C1.71224,1.02214 1.44531,1.13281 1.13281,1.13281 C0.820312,1.13281 0.553385,1.02214 0.332031,0.800781"/>
<path class="NoteDot" transform="matrix(0.822047,0,0,0.822047,121.582,83.8488)" d="M0.332031,0.800781 C0.110677,0.579427 0,0.3125 0,0 C0,-0.3125 0.110677,-0.579427 0.332031,-0.800781 C0.553385,-1.02214 0.820312,-1.13281 1.13281,-1.13281 C1.44531,-1.13281 1.71224,-1.02214 1.93359,-0.800781 C2.15495,-0.579427 2.26562,-0.3125 2.26562,0 C2.26562,0.3125 2.15495,0.579427 1.93359,0.800781 C1.71224,1.02214 1.44531,1.13281 1.13281,1.13281 C0.820312,1.13281 0.553385,1.02214 0.332031,0.800781"/>
<path class="NoteDot" transform="matrix(0.822047,0,0,0.822047,129.007,40.6913)" d="M0.332031,0.800781 C0.110677,0.579427 0,0.3125 0,0 C0,-0.3125 0.110677,-0.579427 0.332031,-0.800781 C0.553385,-1.02214 0.820312,-1.13281 1.13281,-1.13281 C1.44531,-1.13281 1.71224,-1.02214 1.93359,-0.800781 C2.15495,-0.579427 2.26562,-0.3125 2.26562,0 C2.26562,0.3125 2.15495,0.579427 1.93359,0.800781 C1.71224,1.02214 1.44531,1.13281 1.13281,1.13281 C0.820312,1.13281 0.553385,1.02214 0.332031,0.800781"/>
</svg>
