<?xml version="1.0" encoding="UTF-8" standalone="no"?>
<svg width="304.186px" height="196.283px" viewBox="0 0 304.186 196.283"
 xmlns="http://www.w3.org/2000/svg" xmlns:xlink="http://www.w3.org/1999/xlink" version="1.2" baseProfile="tiny">
<title>Közjátékok</title>
<desc>Generated by MuseScore 2.3.2</desc>
<polyline class="StaffLines" fill="none" stroke="#000000" stroke-width="0.34" stroke-linejoin="bevel" points="7.14331,22.9606 304.186,22.9606"/>
<polyline class="StaffLines" fill="none" stroke="#000000" stroke-width="0.34" stroke-linejoin="bevel" points="7.14331,27.2126 304.186,27.2126"/>
<polyline class="StaffLines" fill="none" stroke="#000000" stroke-width="0.34" stroke-linejoin="bevel" points="7.14331,31.4646 304.186,31.4646"/>
<polyline class="StaffLines" fill="none" stroke="#000000" stroke-width="0.34" stroke-linejoin="bevel" points="7.14331,35.7165 304.186,35.7165"/>
<polyline class="StaffLines" fill="none" stroke="#000000" stroke-width="0.34" stroke-linejoin="bevel" points="7.14331,39.9685 304.186,39.9685"/>
<polyline class="StaffLines" fill="none" stroke="#000000" stroke-width="0.34" stroke-linejoin="bevel" points="7.14331,61.2283 304.186,61.2283"/>
<polyline class="StaffLines" fill="none" stroke="#000000" stroke-width="0.34" stroke-linejoin="bevel" points="7.14331,65.4803 304.186,65.4803"/>
<polyline class="StaffLines" fill="none" stroke="#000000" stroke-width="0.34" stroke-linejoin="bevel" points="7.14331,69.7323 304.186,69.7323"/>
<polyline class="StaffLines" fill="none" stroke="#000000" stroke-width="0.34" stroke-linejoin="bevel" points="7.14331,73.9843 304.186,73.9843"/>
<polyline class="StaffLines" fill="none" stroke="#000000" stroke-width="0.34" stroke-linejoin="bevel" points="7.14331,78.2362 304.186,78.2362"/>
<polyline class="StaffLines" fill="none" stroke="#000000" stroke-width="0.34" stroke-linejoin="bevel" points="7.14331,116.504 304.186,116.504"/>
<polyline class="StaffLines" fill="none" stroke="#000000" stroke-width="0.34" stroke-linejoin="bevel" points="7.14331,120.756 304.186,120.756"/>
<polyline class="StaffLines" fill="none" stroke="#000000" stroke-width="0.34" stroke-linejoin="bevel" points="7.14331,125.008 304.186,125.008"/>
<polyline class="StaffLines" fill="none" stroke="#000000" stroke-width="0.34" stroke-linejoin="bevel" points="7.14331,129.26 304.186,129.26"/>
<polyline class="StaffLines" fill="none" stroke="#000000" stroke-width="0.34" stroke-linejoin="bevel" points="7.14331,133.512 304.186,133.512"/>
<polyline class="StaffLines" fill="none" stroke="#000000" stroke-width="0.34" stroke-linejoin="bevel" points="7.14331,154.772 304.186,154.772"/>
<polyline class="StaffLines" fill="none" stroke="#000000" stroke-width="0.34" stroke-linejoin="bevel" points="7.14331,159.024 304.186,159.024"/>
<polyline class="StaffLines" fill="none" stroke="#000000" stroke-width="0.34" stroke-linejoin="bevel" points="7.14331,163.276 304.186,163.276"/>
<polyline class="StaffLines" fill="none" stroke="#000000" stroke-width="0.34" stroke-linejoin="bevel" points="7.14331,167.528 304.186,167.528"/>
<polyline class="StaffLines" fill="none" stroke="#000000" stroke-width="0.34" stroke-linejoin="bevel" points="7.14331,171.78 304.186,171.78"/>
<path class="SlurSegment" stroke="#000000" stroke-width="0.30" stroke-linecap="round" stroke-linejoin="round" fill-rule="evenodd" d="M169.923,66.5433 C183.109,60.6756 222.667,60.6756 235.853,66.5433 C222.667,61.3559 183.109,61.3559 169.923,66.5433"/>
<path class="SlurSegment" stroke="#000000" stroke-width="0.30" stroke-linecap="round" stroke-linejoin="round" fill-rule="evenodd" d="M32.7742,64.4173 C45.5504,58.5496 83.8789,58.5496 96.6551,64.4173 C83.8789,59.2299 45.5504,59.2299 32.7742,64.4173"/>
<path class="SlurSegment" stroke="#000000" stroke-width="0.30" stroke-linecap="round" stroke-linejoin="round" fill-rule="evenodd" d="M98.3805,41.0315 C112.344,46.2189 154.234,46.2189 168.198,41.0315 C154.234,46.8992 112.344,46.8992 98.3805,41.0315"/>
<polyline class="BarLine" stroke="#000000" stroke-width="0.68" stroke-linejoin="bevel" points="7.48346,116.504 7.48346,171.78"/>
<polyline class="BarLine" stroke="#000000" stroke-width="0.68" stroke-linejoin="bevel" points="7.48346,22.9606 7.48346,78.2362"/>
<polyline class="BarLine" stroke="#000000" stroke-width="0.68" stroke-linejoin="bevel" points="269.799,116.504 269.799,171.78"/>
<polyline class="BarLine" stroke="#000000" stroke-width="0.68" stroke-linejoin="bevel" points="144.443,116.504 144.443,171.78"/>
<polyline class="BarLine" stroke="#000000" stroke-width="0.68" stroke-linejoin="bevel" points="301.89,22.9606 301.89,78.2362"/>
<polyline class="BarLine" stroke="#000000" stroke-width="0.68" stroke-linejoin="bevel" points="303.846,22.9606 303.846,78.2362"/>
<polyline class="BarLine" stroke="#000000" stroke-width="0.68" stroke-linejoin="bevel" points="160.642,22.9606 160.642,78.2362"/>
<polyline class="LedgerLine" stroke="#000000" stroke-width="0.68" stroke-linecap="square" stroke-linejoin="bevel" points="70.8481,137.764 78.9972,137.764"/>
<polyline class="LedgerLine" stroke="#000000" stroke-width="0.68" stroke-linecap="square" stroke-linejoin="bevel" points="27.6604,137.764 35.8095,137.764"/>
<polyline class="Stem" stroke="#000000" stroke-width="0.55" stroke-linecap="round" stroke-linejoin="bevel" points="275.518,161.948 275.518,174.969"/>
<polyline class="Stem" stroke="#000000" stroke-width="0.55" stroke-linecap="round" stroke-linejoin="bevel" points="275.518,123.68 275.518,136.701"/>
<polyline class="Stem" stroke="#000000" stroke-width="0.55" stroke-linecap="round" stroke-linejoin="bevel" points="254.788,164.074 254.788,176.031"/>
<polyline class="Stem" stroke="#000000" stroke-width="0.55" stroke-linecap="round" stroke-linejoin="bevel" points="239.842,159.822 239.842,176.031"/>
<polyline class="Stem" stroke="#000000" stroke-width="0.55" stroke-linecap="round" stroke-linejoin="bevel" points="239.842,125.806 239.842,138.295"/>
<polyline class="Stem" stroke="#000000" stroke-width="0.55" stroke-linecap="round" stroke-linejoin="bevel" points="224.895,161.948 224.895,176.031"/>
<polyline class="Stem" stroke="#000000" stroke-width="0.55" stroke-linecap="round" stroke-linejoin="bevel" points="209.949,164.074 209.949,176.031"/>
<polyline class="Stem" stroke="#000000" stroke-width="0.55" stroke-linecap="round" stroke-linejoin="bevel" points="195.002,166.2 195.002,177.094"/>
<polyline class="Stem" stroke="#000000" stroke-width="0.55" stroke-linecap="round" stroke-linejoin="bevel" points="180.055,161.948 180.055,177.094"/>
<polyline class="Stem" stroke="#000000" stroke-width="0.55" stroke-linecap="round" stroke-linejoin="bevel" points="179.902,123.549 179.902,136.701"/>
<polyline class="Stem" stroke="#000000" stroke-width="0.55" stroke-linecap="round" stroke-linejoin="bevel" points="165.109,164.074 165.109,177.094"/>
<polyline class="Stem" stroke="#000000" stroke-width="0.55" stroke-linecap="round" stroke-linejoin="bevel" points="170.154,128.461 170.154,116.504"/>
<polyline class="Stem" stroke="#000000" stroke-width="0.55" stroke-linecap="round" stroke-linejoin="bevel" points="150.162,166.2 150.162,177.094"/>
<polyline class="Stem" stroke="#000000" stroke-width="0.55" stroke-linecap="round" stroke-linejoin="bevel" points="155.207,132.713 155.207,120.756"/>
<polyline class="Stem" stroke="#000000" stroke-width="0.55" stroke-linecap="round" stroke-linejoin="bevel" points="135.029,134.839 135.029,120.756"/>
<polyline class="Stem" stroke="#000000" stroke-width="0.55" stroke-linecap="round" stroke-linejoin="bevel" points="120.633,130.587 120.633,120.756"/>
<polyline class="Stem" stroke="#000000" stroke-width="0.55" stroke-linecap="round" stroke-linejoin="bevel" points="106.237,132.713 106.237,120.756"/>
<polyline class="Stem" stroke="#000000" stroke-width="0.55" stroke-linecap="round" stroke-linejoin="bevel" points="91.8412,134.839 91.8412,120.756"/>
<polyline class="Stem" stroke="#000000" stroke-width="0.55" stroke-linecap="round" stroke-linejoin="bevel" points="77.4453,136.965 77.4453,121.819"/>
<polyline class="Stem" stroke="#000000" stroke-width="0.55" stroke-linecap="round" stroke-linejoin="bevel" points="63.0494,132.713 63.0494,121.819"/>
<polyline class="Stem" stroke="#000000" stroke-width="0.55" stroke-linecap="round" stroke-linejoin="bevel" points="48.6535,134.839 48.6535,121.819"/>
<polyline class="Stem" stroke="#000000" stroke-width="0.55" stroke-linecap="round" stroke-linejoin="bevel" points="34.2576,136.965 34.2576,121.819"/>
<polyline class="Stem" stroke="#000000" stroke-width="0.55" stroke-linecap="round" stroke-linejoin="bevel" points="289.957,73.1857 289.957,58.0394"/>
<polyline class="Stem" stroke="#000000" stroke-width="0.55" stroke-linecap="round" stroke-linejoin="bevel" points="273.043,68.9337 273.043,56.622"/>
<polyline class="Stem" stroke="#000000" stroke-width="0.55" stroke-linecap="round" stroke-linejoin="bevel" points="256.129,71.0597 256.129,55.2047"/>
<polyline class="Stem" stroke="#000000" stroke-width="0.55" stroke-linecap="round" stroke-linejoin="bevel" points="239.216,68.9337 239.216,53.7874"/>
<polyline class="Stem" stroke="#000000" stroke-width="0.55" stroke-linecap="round" stroke-linejoin="bevel" points="239.369,39.3154 239.369,25.0866"/>
<polyline class="Stem" stroke="#000000" stroke-width="0.55" stroke-linecap="round" stroke-linejoin="bevel" points="222.302,41.2959 222.302,26.1496"/>
<polyline class="Stem" stroke="#000000" stroke-width="0.55" stroke-linecap="round" stroke-linejoin="bevel" points="205.388,37.0439 205.388,25.4409"/>
<polyline class="Stem" stroke="#000000" stroke-width="0.55" stroke-linecap="round" stroke-linejoin="bevel" points="188.474,39.1699 188.474,24.7323"/>
<polyline class="Stem" stroke="#000000" stroke-width="0.55" stroke-linecap="round" stroke-linejoin="bevel" points="166.361,70.399 166.361,83.0197"/>
<polyline class="Stem" stroke="#000000" stroke-width="0.55" stroke-linecap="round" stroke-linejoin="bevel" points="171.56,37.0439 171.56,24.0236"/>
<polyline class="Stem" stroke="#000000" stroke-width="0.55" stroke-linecap="round" stroke-linejoin="bevel" points="144.177,72.6568 144.177,83.5512"/>
<polyline class="Stem" stroke="#000000" stroke-width="0.55" stroke-linecap="round" stroke-linejoin="bevel" points="127.775,68.4049 127.775,82.8425"/>
<polyline class="Stem" stroke="#000000" stroke-width="0.55" stroke-linecap="round" stroke-linejoin="bevel" points="111.374,70.5309 111.374,82.1339"/>
<polyline class="Stem" stroke="#000000" stroke-width="0.55" stroke-linecap="round" stroke-linejoin="bevel" points="94.9722,68.4049 94.9722,81.4252"/>
<polyline class="Stem" stroke="#000000" stroke-width="0.55" stroke-linecap="round" stroke-linejoin="bevel" points="100.171,37.1894 100.171,22.9606"/>
<polyline class="Stem" stroke="#000000" stroke-width="0.55" stroke-linecap="round" stroke-linejoin="bevel" points="83.6158,39.1699 83.6158,24.0236"/>
<polyline class="Stem" stroke="#000000" stroke-width="0.55" stroke-linecap="round" stroke-linejoin="bevel" points="67.2142,34.918 67.2142,22.6063"/>
<polyline class="Stem" stroke="#000000" stroke-width="0.55" stroke-linecap="round" stroke-linejoin="bevel" points="50.8126,37.0439 50.8126,21.189"/>
<polyline class="Stem" stroke="#000000" stroke-width="0.55" stroke-linecap="round" stroke-linejoin="bevel" points="29.2124,68.273 29.2124,81.4252"/>
<polyline class="Stem" stroke="#000000" stroke-width="0.55" stroke-linecap="round" stroke-linejoin="bevel" points="34.411,34.918 34.411,19.7717"/>
<path class="Note" transform="matrix(0.850394,0,0,0.850394,275.241,161.15)" d="M4.39453,-2.75391 C5.01953,-2.75391 5.54688,-2.59115 5.97656,-2.26562 C6.38021,-1.91406 6.58203,-1.47135 6.58203,-0.9375 C6.58203,-0.0390625 6.11979,0.800781 5.19531,1.58203 C4.25781,2.36328 3.25521,2.75391 2.1875,2.75391 C1.5625,2.75391 1.03516,2.59115 0.605469,2.26562 C0.201823,1.91406 0,1.47135 0,0.9375 C0,0.0390625 0.46875,-0.800781 1.40625,-1.58203 C2.31771,-2.36328 3.3138,-2.75391 4.39453,-2.75391"/>
<path class="Note" transform="matrix(0.850394,0,0,0.850394,275.241,122.882)" d="M4.39453,-2.75391 C5.01953,-2.75391 5.54688,-2.59115 5.97656,-2.26562 C6.38021,-1.91406 6.58203,-1.47135 6.58203,-0.9375 C6.58203,-0.0390625 6.11979,0.800781 5.19531,1.58203 C4.25781,2.36328 3.25521,2.75391 2.1875,2.75391 C1.5625,2.75391 1.03516,2.59115 0.605469,2.26562 C0.201823,1.91406 0,1.47135 0,0.9375 C0,0.0390625 0.46875,-0.800781 1.40625,-1.58203 C2.31771,-2.36328 3.3138,-2.75391 4.39453,-2.75391"/>
<path class="Note" transform="matrix(0.850394,0,0,0.850394,254.512,163.276)" d="M4.39453,-2.75391 C5.01953,-2.75391 5.54688,-2.59115 5.97656,-2.26562 C6.38021,-1.91406 6.58203,-1.47135 6.58203,-0.9375 C6.58203,-0.0390625 6.11979,0.800781 5.19531,1.58203 C4.25781,2.36328 3.25521,2.75391 2.1875,2.75391 C1.5625,2.75391 1.03516,2.59115 0.605469,2.26562 C0.201823,1.91406 0,1.47135 0,0.9375 C0,0.0390625 0.46875,-0.800781 1.40625,-1.58203 C2.31771,-2.36328 3.3138,-2.75391 4.39453,-2.75391"/>
<path class="Note" transform="matrix(0.850394,0,0,0.850394,239.565,159.024)" d="M4.39453,-2.75391 C5.01953,-2.75391 5.54688,-2.59115 5.97656,-2.26562 C6.38021,-1.91406 6.58203,-1.47135 6.58203,-0.9375 C6.58203,-0.0390625 6.11979,0.800781 5.19531,1.58203 C4.25781,2.36328 3.25521,2.75391 2.1875,2.75391 C1.5625,2.75391 1.03516,2.59115 0.605469,2.26562 C0.201823,1.91406 0,1.47135 0,0.9375 C0,0.0390625 0.46875,-0.800781 1.40625,-1.58203 C2.31771,-2.36328 3.3138,-2.75391 4.39453,-2.75391"/>
<path class="Note" transform="matrix(0.850394,0,0,0.850394,239.565,125.008)" d="M4.39453,-2.75391 C5.01953,-2.75391 5.54688,-2.59115 5.97656,-2.26562 C6.38021,-1.91406 6.58203,-1.47135 6.58203,-0.9375 C6.58203,-0.0390625 6.11979,0.800781 5.19531,1.58203 C4.25781,2.36328 3.25521,2.75391 2.1875,2.75391 C1.5625,2.75391 1.03516,2.59115 0.605469,2.26562 C0.201823,1.91406 0,1.47135 0,0.9375 C0,0.0390625 0.46875,-0.800781 1.40625,-1.58203 C2.31771,-2.36328 3.3138,-2.75391 4.39453,-2.75391"/>
<path class="Note" transform="matrix(0.850394,0,0,0.850394,224.619,161.15)" d="M4.39453,-2.75391 C5.01953,-2.75391 5.54688,-2.59115 5.97656,-2.26562 C6.38021,-1.91406 6.58203,-1.47135 6.58203,-0.9375 C6.58203,-0.0390625 6.11979,0.800781 5.19531,1.58203 C4.25781,2.36328 3.25521,2.75391 2.1875,2.75391 C1.5625,2.75391 1.03516,2.59115 0.605469,2.26562 C0.201823,1.91406 0,1.47135 0,0.9375 C0,0.0390625 0.46875,-0.800781 1.40625,-1.58203 C2.31771,-2.36328 3.3138,-2.75391 4.39453,-2.75391"/>
<path class="Note" transform="matrix(0.850394,0,0,0.850394,209.672,163.276)" d="M4.39453,-2.75391 C5.01953,-2.75391 5.54688,-2.59115 5.97656,-2.26562 C6.38021,-1.91406 6.58203,-1.47135 6.58203,-0.9375 C6.58203,-0.0390625 6.11979,0.800781 5.19531,1.58203 C4.25781,2.36328 3.25521,2.75391 2.1875,2.75391 C1.5625,2.75391 1.03516,2.59115 0.605469,2.26562 C0.201823,1.91406 0,1.47135 0,0.9375 C0,0.0390625 0.46875,-0.800781 1.40625,-1.58203 C2.31771,-2.36328 3.3138,-2.75391 4.39453,-2.75391"/>
<path class="Note" transform="matrix(0.850394,0,0,0.850394,194.726,165.402)" d="M4.39453,-2.75391 C5.01953,-2.75391 5.54688,-2.59115 5.97656,-2.26562 C6.38021,-1.91406 6.58203,-1.47135 6.58203,-0.9375 C6.58203,-0.0390625 6.11979,0.800781 5.19531,1.58203 C4.25781,2.36328 3.25521,2.75391 2.1875,2.75391 C1.5625,2.75391 1.03516,2.59115 0.605469,2.26562 C0.201823,1.91406 0,1.47135 0,0.9375 C0,0.0390625 0.46875,-0.800781 1.40625,-1.58203 C2.31771,-2.36328 3.3138,-2.75391 4.39453,-2.75391"/>
<path class="Note" transform="matrix(0.850394,0,0,0.850394,179.779,161.15)" d="M4.39453,-2.75391 C5.01953,-2.75391 5.54688,-2.59115 5.97656,-2.26562 C6.38021,-1.91406 6.58203,-1.47135 6.58203,-0.9375 C6.58203,-0.0390625 6.11979,0.800781 5.19531,1.58203 C4.25781,2.36328 3.25521,2.75391 2.1875,2.75391 C1.5625,2.75391 1.03516,2.59115 0.605469,2.26562 C0.201823,1.91406 0,1.47135 0,0.9375 C0,0.0390625 0.46875,-0.800781 1.40625,-1.58203 C2.31771,-2.36328 3.3138,-2.75391 4.39453,-2.75391"/>
<path class="Note" transform="matrix(0.850394,0,0,0.850394,179.626,122.882)" d="M6.30859,-1.30859 C6.30859,-1.52995 6.22396,-1.71875 6.05469,-1.875 C5.88542,-2.04427 5.6901,-2.12891 5.46875,-2.12891 C5.07812,-2.12891 4.29036,-1.73828 3.10547,-0.957031 C1.88151,-0.16276 1.13281,0.403646 0.859375,0.742188 C0.716146,0.924479 0.644531,1.11328 0.644531,1.30859 C0.644531,1.52995 0.729167,1.71875 0.898438,1.875 C1.05469,2.04427 1.25,2.12891 1.48438,2.12891 C1.86198,2.12891 2.65625,1.73828 3.86719,0.957031 C5.0651,0.175781 5.80729,-0.390625 6.09375,-0.742188 C6.23698,-0.911458 6.30859,-1.10026 6.30859,-1.30859 M5.27344,-2.75391 C6.39323,-2.75391 6.95312,-2.27214 6.95312,-1.30859 C6.95312,-0.839844 6.81641,-0.292969 6.54297,0.332031 C6.26953,0.94401 5.90495,1.41276 5.44922,1.73828 C4.44661,2.41536 3.1901,2.75391 1.67969,2.75391 C0.559896,2.75391 0,2.27214 0,1.30859 C0,0.878906 0.136719,0.338542 0.410156,-0.3125 C0.670573,-0.9375 1.03516,-1.41276 1.50391,-1.73828 C2.50651,-2.41536 3.76302,-2.75391 5.27344,-2.75391"/>
<path class="Note" transform="matrix(0.850394,0,0,0.850394,164.832,163.276)" d="M4.39453,-2.75391 C5.01953,-2.75391 5.54688,-2.59115 5.97656,-2.26562 C6.38021,-1.91406 6.58203,-1.47135 6.58203,-0.9375 C6.58203,-0.0390625 6.11979,0.800781 5.19531,1.58203 C4.25781,2.36328 3.25521,2.75391 2.1875,2.75391 C1.5625,2.75391 1.03516,2.59115 0.605469,2.26562 C0.201823,1.91406 0,1.47135 0,0.9375 C0,0.0390625 0.46875,-0.800781 1.40625,-1.58203 C2.31771,-2.36328 3.3138,-2.75391 4.39453,-2.75391"/>
<path class="Note" transform="matrix(0.850394,0,0,0.850394,164.832,129.26)" d="M4.39453,-2.75391 C5.01953,-2.75391 5.54688,-2.59115 5.97656,-2.26562 C6.38021,-1.91406 6.58203,-1.47135 6.58203,-0.9375 C6.58203,-0.0390625 6.11979,0.800781 5.19531,1.58203 C4.25781,2.36328 3.25521,2.75391 2.1875,2.75391 C1.5625,2.75391 1.03516,2.59115 0.605469,2.26562 C0.201823,1.91406 0,1.47135 0,0.9375 C0,0.0390625 0.46875,-0.800781 1.40625,-1.58203 C2.31771,-2.36328 3.3138,-2.75391 4.39453,-2.75391"/>
<path class="Note" transform="matrix(0.850394,0,0,0.850394,149.886,165.402)" d="M4.39453,-2.75391 C5.01953,-2.75391 5.54688,-2.59115 5.97656,-2.26562 C6.38021,-1.91406 6.58203,-1.47135 6.58203,-0.9375 C6.58203,-0.0390625 6.11979,0.800781 5.19531,1.58203 C4.25781,2.36328 3.25521,2.75391 2.1875,2.75391 C1.5625,2.75391 1.03516,2.59115 0.605469,2.26562 C0.201823,1.91406 0,1.47135 0,0.9375 C0,0.0390625 0.46875,-0.800781 1.40625,-1.58203 C2.31771,-2.36328 3.3138,-2.75391 4.39453,-2.75391"/>
<path class="Note" transform="matrix(0.850394,0,0,0.850394,149.886,133.512)" d="M4.39453,-2.75391 C5.01953,-2.75391 5.54688,-2.59115 5.97656,-2.26562 C6.38021,-1.91406 6.58203,-1.47135 6.58203,-0.9375 C6.58203,-0.0390625 6.11979,0.800781 5.19531,1.58203 C4.25781,2.36328 3.25521,2.75391 2.1875,2.75391 C1.5625,2.75391 1.03516,2.59115 0.605469,2.26562 C0.201823,1.91406 0,1.47135 0,0.9375 C0,0.0390625 0.46875,-0.800781 1.40625,-1.58203 C2.31771,-2.36328 3.3138,-2.75391 4.39453,-2.75391"/>
<path class="Note" transform="matrix(0.850394,0,0,0.850394,129.707,135.638)" d="M4.39453,-2.75391 C5.01953,-2.75391 5.54688,-2.59115 5.97656,-2.26562 C6.38021,-1.91406 6.58203,-1.47135 6.58203,-0.9375 C6.58203,-0.0390625 6.11979,0.800781 5.19531,1.58203 C4.25781,2.36328 3.25521,2.75391 2.1875,2.75391 C1.5625,2.75391 1.03516,2.59115 0.605469,2.26562 C0.201823,1.91406 0,1.47135 0,0.9375 C0,0.0390625 0.46875,-0.800781 1.40625,-1.58203 C2.31771,-2.36328 3.3138,-2.75391 4.39453,-2.75391"/>
<path class="Note" transform="matrix(0.850394,0,0,0.850394,115.311,131.386)" d="M4.39453,-2.75391 C5.01953,-2.75391 5.54688,-2.59115 5.97656,-2.26562 C6.38021,-1.91406 6.58203,-1.47135 6.58203,-0.9375 C6.58203,-0.0390625 6.11979,0.800781 5.19531,1.58203 C4.25781,2.36328 3.25521,2.75391 2.1875,2.75391 C1.5625,2.75391 1.03516,2.59115 0.605469,2.26562 C0.201823,1.91406 0,1.47135 0,0.9375 C0,0.0390625 0.46875,-0.800781 1.40625,-1.58203 C2.31771,-2.36328 3.3138,-2.75391 4.39453,-2.75391"/>
<path class="Note" transform="matrix(0.850394,0,0,0.850394,100.915,133.512)" d="M4.39453,-2.75391 C5.01953,-2.75391 5.54688,-2.59115 5.97656,-2.26562 C6.38021,-1.91406 6.58203,-1.47135 6.58203,-0.9375 C6.58203,-0.0390625 6.11979,0.800781 5.19531,1.58203 C4.25781,2.36328 3.25521,2.75391 2.1875,2.75391 C1.5625,2.75391 1.03516,2.59115 0.605469,2.26562 C0.201823,1.91406 0,1.47135 0,0.9375 C0,0.0390625 0.46875,-0.800781 1.40625,-1.58203 C2.31771,-2.36328 3.3138,-2.75391 4.39453,-2.75391"/>
<path class="Note" transform="matrix(0.850394,0,0,0.850394,86.5196,135.638)" d="M4.39453,-2.75391 C5.01953,-2.75391 5.54688,-2.59115 5.97656,-2.26562 C6.38021,-1.91406 6.58203,-1.47135 6.58203,-0.9375 C6.58203,-0.0390625 6.11979,0.800781 5.19531,1.58203 C4.25781,2.36328 3.25521,2.75391 2.1875,2.75391 C1.5625,2.75391 1.03516,2.59115 0.605469,2.26562 C0.201823,1.91406 0,1.47135 0,0.9375 C0,0.0390625 0.46875,-0.800781 1.40625,-1.58203 C2.31771,-2.36328 3.3138,-2.75391 4.39453,-2.75391"/>
<path class="Note" transform="matrix(0.850394,0,0,0.850394,72.1237,137.764)" d="M4.39453,-2.75391 C5.01953,-2.75391 5.54688,-2.59115 5.97656,-2.26562 C6.38021,-1.91406 6.58203,-1.47135 6.58203,-0.9375 C6.58203,-0.0390625 6.11979,0.800781 5.19531,1.58203 C4.25781,2.36328 3.25521,2.75391 2.1875,2.75391 C1.5625,2.75391 1.03516,2.59115 0.605469,2.26562 C0.201823,1.91406 0,1.47135 0,0.9375 C0,0.0390625 0.46875,-0.800781 1.40625,-1.58203 C2.31771,-2.36328 3.3138,-2.75391 4.39453,-2.75391"/>
<path class="Note" transform="matrix(0.850394,0,0,0.850394,57.7278,133.512)" d="M4.39453,-2.75391 C5.01953,-2.75391 5.54688,-2.59115 5.97656,-2.26562 C6.38021,-1.91406 6.58203,-1.47135 6.58203,-0.9375 C6.58203,-0.0390625 6.11979,0.800781 5.19531,1.58203 C4.25781,2.36328 3.25521,2.75391 2.1875,2.75391 C1.5625,2.75391 1.03516,2.59115 0.605469,2.26562 C0.201823,1.91406 0,1.47135 0,0.9375 C0,0.0390625 0.46875,-0.800781 1.40625,-1.58203 C2.31771,-2.36328 3.3138,-2.75391 4.39453,-2.75391"/>
<path class="Note" transform="matrix(0.850394,0,0,0.850394,43.3319,135.638)" d="M4.39453,-2.75391 C5.01953,-2.75391 5.54688,-2.59115 5.97656,-2.26562 C6.38021,-1.91406 6.58203,-1.47135 6.58203,-0.9375 C6.58203,-0.0390625 6.11979,0.800781 5.19531,1.58203 C4.25781,2.36328 3.25521,2.75391 2.1875,2.75391 C1.5625,2.75391 1.03516,2.59115 0.605469,2.26562 C0.201823,1.91406 0,1.47135 0,0.9375 C0,0.0390625 0.46875,-0.800781 1.40625,-1.58203 C2.31771,-2.36328 3.3138,-2.75391 4.39453,-2.75391"/>
<path class="Note" transform="matrix(0.850394,0,0,0.850394,28.936,137.764)" d="M4.39453,-2.75391 C5.01953,-2.75391 5.54688,-2.59115 5.97656,-2.26562 C6.38021,-1.91406 6.58203,-1.47135 6.58203,-0.9375 C6.58203,-0.0390625 6.11979,0.800781 5.19531,1.58203 C4.25781,2.36328 3.25521,2.75391 2.1875,2.75391 C1.5625,2.75391 1.03516,2.59115 0.605469,2.26562 C0.201823,1.91406 0,1.47135 0,0.9375 C0,0.0390625 0.46875,-0.800781 1.40625,-1.58203 C2.31771,-2.36328 3.3138,-2.75391 4.39453,-2.75391"/>
<path class="Note" transform="matrix(0.850394,0,0,0.850394,284.636,73.9843)" d="M4.39453,-2.75391 C5.01953,-2.75391 5.54688,-2.59115 5.97656,-2.26562 C6.38021,-1.91406 6.58203,-1.47135 6.58203,-0.9375 C6.58203,-0.0390625 6.11979,0.800781 5.19531,1.58203 C4.25781,2.36328 3.25521,2.75391 2.1875,2.75391 C1.5625,2.75391 1.03516,2.59115 0.605469,2.26562 C0.201823,1.91406 0,1.47135 0,0.9375 C0,0.0390625 0.46875,-0.800781 1.40625,-1.58203 C2.31771,-2.36328 3.3138,-2.75391 4.39453,-2.75391"/>
<path class="Note" transform="matrix(0.850394,0,0,0.850394,267.722,69.7323)" d="M4.39453,-2.75391 C5.01953,-2.75391 5.54688,-2.59115 5.97656,-2.26562 C6.38021,-1.91406 6.58203,-1.47135 6.58203,-0.9375 C6.58203,-0.0390625 6.11979,0.800781 5.19531,1.58203 C4.25781,2.36328 3.25521,2.75391 2.1875,2.75391 C1.5625,2.75391 1.03516,2.59115 0.605469,2.26562 C0.201823,1.91406 0,1.47135 0,0.9375 C0,0.0390625 0.46875,-0.800781 1.40625,-1.58203 C2.31771,-2.36328 3.3138,-2.75391 4.39453,-2.75391"/>
<path class="Note" transform="matrix(0.850394,0,0,0.850394,250.808,71.8583)" d="M4.39453,-2.75391 C5.01953,-2.75391 5.54688,-2.59115 5.97656,-2.26562 C6.38021,-1.91406 6.58203,-1.47135 6.58203,-0.9375 C6.58203,-0.0390625 6.11979,0.800781 5.19531,1.58203 C4.25781,2.36328 3.25521,2.75391 2.1875,2.75391 C1.5625,2.75391 1.03516,2.59115 0.605469,2.26562 C0.201823,1.91406 0,1.47135 0,0.9375 C0,0.0390625 0.46875,-0.800781 1.40625,-1.58203 C2.31771,-2.36328 3.3138,-2.75391 4.39453,-2.75391"/>
<path class="Note" transform="matrix(0.850394,0,0,0.850394,233.894,69.7323)" d="M4.39453,-2.75391 C5.01953,-2.75391 5.54688,-2.59115 5.97656,-2.26562 C6.38021,-1.91406 6.58203,-1.47135 6.58203,-0.9375 C6.58203,-0.0390625 6.11979,0.800781 5.19531,1.58203 C4.25781,2.36328 3.25521,2.75391 2.1875,2.75391 C1.5625,2.75391 1.03516,2.59115 0.605469,2.26562 C0.201823,1.91406 0,1.47135 0,0.9375 C0,0.0390625 0.46875,-0.800781 1.40625,-1.58203 C2.31771,-2.36328 3.3138,-2.75391 4.39453,-2.75391"/>
<path class="Note" transform="matrix(0.850394,0,0,0.850394,233.74,39.9685)" d="M6.30859,-1.30859 C6.30859,-1.52995 6.22396,-1.71875 6.05469,-1.875 C5.88542,-2.04427 5.6901,-2.12891 5.46875,-2.12891 C5.07812,-2.12891 4.29036,-1.73828 3.10547,-0.957031 C1.88151,-0.16276 1.13281,0.403646 0.859375,0.742188 C0.716146,0.924479 0.644531,1.11328 0.644531,1.30859 C0.644531,1.52995 0.729167,1.71875 0.898438,1.875 C1.05469,2.04427 1.25,2.12891 1.48438,2.12891 C1.86198,2.12891 2.65625,1.73828 3.86719,0.957031 C5.0651,0.175781 5.80729,-0.390625 6.09375,-0.742188 C6.23698,-0.911458 6.30859,-1.10026 6.30859,-1.30859 M5.27344,-2.75391 C6.39323,-2.75391 6.95312,-2.27214 6.95312,-1.30859 C6.95312,-0.839844 6.81641,-0.292969 6.54297,0.332031 C6.26953,0.94401 5.90495,1.41276 5.44922,1.73828 C4.44661,2.41536 3.1901,2.75391 1.67969,2.75391 C0.559896,2.75391 0,2.27214 0,1.30859 C0,0.878906 0.136719,0.338542 0.410156,-0.3125 C0.670573,-0.9375 1.03516,-1.41276 1.50391,-1.73828 C2.50651,-2.41536 3.76302,-2.75391 5.27344,-2.75391"/>
<path class="Note" transform="matrix(0.850394,0,0,0.850394,216.98,42.0945)" d="M4.39453,-2.75391 C5.01953,-2.75391 5.54688,-2.59115 5.97656,-2.26562 C6.38021,-1.91406 6.58203,-1.47135 6.58203,-0.9375 C6.58203,-0.0390625 6.11979,0.800781 5.19531,1.58203 C4.25781,2.36328 3.25521,2.75391 2.1875,2.75391 C1.5625,2.75391 1.03516,2.59115 0.605469,2.26562 C0.201823,1.91406 0,1.47135 0,0.9375 C0,0.0390625 0.46875,-0.800781 1.40625,-1.58203 C2.31771,-2.36328 3.3138,-2.75391 4.39453,-2.75391"/>
<path class="Note" transform="matrix(0.850394,0,0,0.850394,200.066,37.8425)" d="M4.39453,-2.75391 C5.01953,-2.75391 5.54688,-2.59115 5.97656,-2.26562 C6.38021,-1.91406 6.58203,-1.47135 6.58203,-0.9375 C6.58203,-0.0390625 6.11979,0.800781 5.19531,1.58203 C4.25781,2.36328 3.25521,2.75391 2.1875,2.75391 C1.5625,2.75391 1.03516,2.59115 0.605469,2.26562 C0.201823,1.91406 0,1.47135 0,0.9375 C0,0.0390625 0.46875,-0.800781 1.40625,-1.58203 C2.31771,-2.36328 3.3138,-2.75391 4.39453,-2.75391"/>
<path class="Note" transform="matrix(0.850394,0,0,0.850394,183.152,39.9685)" d="M4.39453,-2.75391 C5.01953,-2.75391 5.54688,-2.59115 5.97656,-2.26562 C6.38021,-1.91406 6.58203,-1.47135 6.58203,-0.9375 C6.58203,-0.0390625 6.11979,0.800781 5.19531,1.58203 C4.25781,2.36328 3.25521,2.75391 2.1875,2.75391 C1.5625,2.75391 1.03516,2.59115 0.605469,2.26562 C0.201823,1.91406 0,1.47135 0,0.9375 C0,0.0390625 0.46875,-0.800781 1.40625,-1.58203 C2.31771,-2.36328 3.3138,-2.75391 4.39453,-2.75391"/>
<path class="Note" transform="matrix(0.850394,0,0,0.850394,166.085,69.7323)" d="M6.30859,-1.30859 C6.30859,-1.52995 6.22396,-1.71875 6.05469,-1.875 C5.88542,-2.04427 5.6901,-2.12891 5.46875,-2.12891 C5.07812,-2.12891 4.29036,-1.73828 3.10547,-0.957031 C1.88151,-0.16276 1.13281,0.403646 0.859375,0.742188 C0.716146,0.924479 0.644531,1.11328 0.644531,1.30859 C0.644531,1.52995 0.729167,1.71875 0.898438,1.875 C1.05469,2.04427 1.25,2.12891 1.48438,2.12891 C1.86198,2.12891 2.65625,1.73828 3.86719,0.957031 C5.0651,0.175781 5.80729,-0.390625 6.09375,-0.742188 C6.23698,-0.911458 6.30859,-1.10026 6.30859,-1.30859 M5.27344,-2.75391 C6.39323,-2.75391 6.95312,-2.27214 6.95312,-1.30859 C6.95312,-0.839844 6.81641,-0.292969 6.54297,0.332031 C6.26953,0.94401 5.90495,1.41276 5.44922,1.73828 C4.44661,2.41536 3.1901,2.75391 1.67969,2.75391 C0.559896,2.75391 0,2.27214 0,1.30859 C0,0.878906 0.136719,0.338542 0.410156,-0.3125 C0.670573,-0.9375 1.03516,-1.41276 1.50391,-1.73828 C2.50651,-2.41536 3.76302,-2.75391 5.27344,-2.75391"/>
<path class="Note" transform="matrix(0.850394,0,0,0.850394,166.238,37.8425)" d="M4.39453,-2.75391 C5.01953,-2.75391 5.54688,-2.59115 5.97656,-2.26562 C6.38021,-1.91406 6.58203,-1.47135 6.58203,-0.9375 C6.58203,-0.0390625 6.11979,0.800781 5.19531,1.58203 C4.25781,2.36328 3.25521,2.75391 2.1875,2.75391 C1.5625,2.75391 1.03516,2.59115 0.605469,2.26562 C0.201823,1.91406 0,1.47135 0,0.9375 C0,0.0390625 0.46875,-0.800781 1.40625,-1.58203 C2.31771,-2.36328 3.3138,-2.75391 4.39453,-2.75391"/>
<path class="Note" transform="matrix(0.850394,0,0,0.850394,143.901,71.8583)" d="M4.39453,-2.75391 C5.01953,-2.75391 5.54688,-2.59115 5.97656,-2.26562 C6.38021,-1.91406 6.58203,-1.47135 6.58203,-0.9375 C6.58203,-0.0390625 6.11979,0.800781 5.19531,1.58203 C4.25781,2.36328 3.25521,2.75391 2.1875,2.75391 C1.5625,2.75391 1.03516,2.59115 0.605469,2.26562 C0.201823,1.91406 0,1.47135 0,0.9375 C0,0.0390625 0.46875,-0.800781 1.40625,-1.58203 C2.31771,-2.36328 3.3138,-2.75391 4.39453,-2.75391"/>
<path class="Note" transform="matrix(0.850394,0,0,0.850394,127.499,67.6063)" d="M4.39453,-2.75391 C5.01953,-2.75391 5.54688,-2.59115 5.97656,-2.26562 C6.38021,-1.91406 6.58203,-1.47135 6.58203,-0.9375 C6.58203,-0.0390625 6.11979,0.800781 5.19531,1.58203 C4.25781,2.36328 3.25521,2.75391 2.1875,2.75391 C1.5625,2.75391 1.03516,2.59115 0.605469,2.26562 C0.201823,1.91406 0,1.47135 0,0.9375 C0,0.0390625 0.46875,-0.800781 1.40625,-1.58203 C2.31771,-2.36328 3.3138,-2.75391 4.39453,-2.75391"/>
<path class="Note" transform="matrix(0.850394,0,0,0.850394,111.097,69.7323)" d="M4.39453,-2.75391 C5.01953,-2.75391 5.54688,-2.59115 5.97656,-2.26562 C6.38021,-1.91406 6.58203,-1.47135 6.58203,-0.9375 C6.58203,-0.0390625 6.11979,0.800781 5.19531,1.58203 C4.25781,2.36328 3.25521,2.75391 2.1875,2.75391 C1.5625,2.75391 1.03516,2.59115 0.605469,2.26562 C0.201823,1.91406 0,1.47135 0,0.9375 C0,0.0390625 0.46875,-0.800781 1.40625,-1.58203 C2.31771,-2.36328 3.3138,-2.75391 4.39453,-2.75391"/>
<path class="Note" transform="matrix(0.850394,0,0,0.850394,94.6958,67.6063)" d="M4.39453,-2.75391 C5.01953,-2.75391 5.54688,-2.59115 5.97656,-2.26562 C6.38021,-1.91406 6.58203,-1.47135 6.58203,-0.9375 C6.58203,-0.0390625 6.11979,0.800781 5.19531,1.58203 C4.25781,2.36328 3.25521,2.75391 2.1875,2.75391 C1.5625,2.75391 1.03516,2.59115 0.605469,2.26562 C0.201823,1.91406 0,1.47135 0,0.9375 C0,0.0390625 0.46875,-0.800781 1.40625,-1.58203 C2.31771,-2.36328 3.3138,-2.75391 4.39453,-2.75391"/>
<path class="Note" transform="matrix(0.850394,0,0,0.850394,94.5423,37.8425)" d="M6.30859,-1.30859 C6.30859,-1.52995 6.22396,-1.71875 6.05469,-1.875 C5.88542,-2.04427 5.6901,-2.12891 5.46875,-2.12891 C5.07812,-2.12891 4.29036,-1.73828 3.10547,-0.957031 C1.88151,-0.16276 1.13281,0.403646 0.859375,0.742188 C0.716146,0.924479 0.644531,1.11328 0.644531,1.30859 C0.644531,1.52995 0.729167,1.71875 0.898438,1.875 C1.05469,2.04427 1.25,2.12891 1.48438,2.12891 C1.86198,2.12891 2.65625,1.73828 3.86719,0.957031 C5.0651,0.175781 5.80729,-0.390625 6.09375,-0.742188 C6.23698,-0.911458 6.30859,-1.10026 6.30859,-1.30859 M5.27344,-2.75391 C6.39323,-2.75391 6.95312,-2.27214 6.95312,-1.30859 C6.95312,-0.839844 6.81641,-0.292969 6.54297,0.332031 C6.26953,0.94401 5.90495,1.41276 5.44922,1.73828 C4.44661,2.41536 3.1901,2.75391 1.67969,2.75391 C0.559896,2.75391 0,2.27214 0,1.30859 C0,0.878906 0.136719,0.338542 0.410156,-0.3125 C0.670573,-0.9375 1.03516,-1.41276 1.50391,-1.73828 C2.50651,-2.41536 3.76302,-2.75391 5.27344,-2.75391"/>
<path class="Note" transform="matrix(0.850394,0,0,0.850394,78.2942,39.9685)" d="M4.39453,-2.75391 C5.01953,-2.75391 5.54688,-2.59115 5.97656,-2.26562 C6.38021,-1.91406 6.58203,-1.47135 6.58203,-0.9375 C6.58203,-0.0390625 6.11979,0.800781 5.19531,1.58203 C4.25781,2.36328 3.25521,2.75391 2.1875,2.75391 C1.5625,2.75391 1.03516,2.59115 0.605469,2.26562 C0.201823,1.91406 0,1.47135 0,0.9375 C0,0.0390625 0.46875,-0.800781 1.40625,-1.58203 C2.31771,-2.36328 3.3138,-2.75391 4.39453,-2.75391"/>
<path class="Note" transform="matrix(0.850394,0,0,0.850394,61.8926,35.7165)" d="M4.39453,-2.75391 C5.01953,-2.75391 5.54688,-2.59115 5.97656,-2.26562 C6.38021,-1.91406 6.58203,-1.47135 6.58203,-0.9375 C6.58203,-0.0390625 6.11979,0.800781 5.19531,1.58203 C4.25781,2.36328 3.25521,2.75391 2.1875,2.75391 C1.5625,2.75391 1.03516,2.59115 0.605469,2.26562 C0.201823,1.91406 0,1.47135 0,0.9375 C0,0.0390625 0.46875,-0.800781 1.40625,-1.58203 C2.31771,-2.36328 3.3138,-2.75391 4.39453,-2.75391"/>
<path class="Note" transform="matrix(0.850394,0,0,0.850394,45.491,37.8425)" d="M4.39453,-2.75391 C5.01953,-2.75391 5.54688,-2.59115 5.97656,-2.26562 C6.38021,-1.91406 6.58203,-1.47135 6.58203,-0.9375 C6.58203,-0.0390625 6.11979,0.800781 5.19531,1.58203 C4.25781,2.36328 3.25521,2.75391 2.1875,2.75391 C1.5625,2.75391 1.03516,2.59115 0.605469,2.26562 C0.201823,1.91406 0,1.47135 0,0.9375 C0,0.0390625 0.46875,-0.800781 1.40625,-1.58203 C2.31771,-2.36328 3.3138,-2.75391 4.39453,-2.75391"/>
<path class="Note" transform="matrix(0.850394,0,0,0.850394,28.936,67.6063)" d="M6.30859,-1.30859 C6.30859,-1.52995 6.22396,-1.71875 6.05469,-1.875 C5.88542,-2.04427 5.6901,-2.12891 5.46875,-2.12891 C5.07812,-2.12891 4.29036,-1.73828 3.10547,-0.957031 C1.88151,-0.16276 1.13281,0.403646 0.859375,0.742188 C0.716146,0.924479 0.644531,1.11328 0.644531,1.30859 C0.644531,1.52995 0.729167,1.71875 0.898438,1.875 C1.05469,2.04427 1.25,2.12891 1.48438,2.12891 C1.86198,2.12891 2.65625,1.73828 3.86719,0.957031 C5.0651,0.175781 5.80729,-0.390625 6.09375,-0.742188 C6.23698,-0.911458 6.30859,-1.10026 6.30859,-1.30859 M5.27344,-2.75391 C6.39323,-2.75391 6.95312,-2.27214 6.95312,-1.30859 C6.95312,-0.839844 6.81641,-0.292969 6.54297,0.332031 C6.26953,0.94401 5.90495,1.41276 5.44922,1.73828 C4.44661,2.41536 3.1901,2.75391 1.67969,2.75391 C0.559896,2.75391 0,2.27214 0,1.30859 C0,0.878906 0.136719,0.338542 0.410156,-0.3125 C0.670573,-0.9375 1.03516,-1.41276 1.50391,-1.73828 C2.50651,-2.41536 3.76302,-2.75391 5.27344,-2.75391"/>
<path class="Note" transform="matrix(0.850394,0,0,0.850394,29.0894,35.7165)" d="M4.39453,-2.75391 C5.01953,-2.75391 5.54688,-2.59115 5.97656,-2.26562 C6.38021,-1.91406 6.58203,-1.47135 6.58203,-0.9375 C6.58203,-0.0390625 6.11979,0.800781 5.19531,1.58203 C4.25781,2.36328 3.25521,2.75391 2.1875,2.75391 C1.5625,2.75391 1.03516,2.59115 0.605469,2.26562 C0.201823,1.91406 0,1.47135 0,0.9375 C0,0.0390625 0.46875,-0.800781 1.40625,-1.58203 C2.31771,-2.36328 3.3138,-2.75391 4.39453,-2.75391"/>
<path class="Clef" transform="matrix(0.850394,0,0,0.850394,10.5449,159.024)" d="M11.4258,-1.77734 C11.2305,-1.97266 11.1328,-2.21354 11.1328,-2.5 C11.1328,-2.78646 11.2305,-3.02734 11.4258,-3.22266 C11.6211,-3.41797 11.862,-3.51562 12.1484,-3.51562 C12.4349,-3.51562 12.6758,-3.41797 12.8711,-3.22266 C13.0664,-3.02734 13.1641,-2.78646 13.1641,-2.5 C13.1641,-2.21354 13.0664,-1.97266 12.8711,-1.77734 C12.6758,-1.58203 12.4349,-1.48438 12.1484,-1.48438 C11.862,-1.48438 11.6211,-1.58203 11.4258,-1.77734 M11.4258,3.22266 C11.2305,3.02734 11.1328,2.78646 11.1328,2.5 C11.1328,2.21354 11.2305,1.97266 11.4258,1.77734 C11.6211,1.58203 11.862,1.48438 12.1484,1.48438 C12.4349,1.48438 12.6758,1.58203 12.8711,1.77734 C13.0664,1.97266 13.1641,2.21354 13.1641,2.5 C13.1641,2.78646 13.0664,3.02734 12.8711,3.22266 C12.6758,3.41797 12.4349,3.51562 12.1484,3.51562 C11.862,3.51562 11.6211,3.41797 11.4258,3.22266 M4.64844,-5.25391 C6.38021,-5.25391 7.79948,-4.81771 8.90625,-3.94531 C9.97396,-3.03385 10.5078,-1.79688 10.5078,-0.234375 C10.5078,0.820312 10.2995,1.78385 9.88281,2.65625 C9.49219,3.56771 8.97786,4.375 8.33984,5.07812 C7.6888,5.79427 6.90104,6.47135 5.97656,7.10938 C5.07812,7.73438 4.15365,8.29427 3.20312,8.78906 C1.27604,9.76562 0.208333,10.2539 0,10.2539 C-0.169271,10.2539 -0.253906,10.1693 -0.253906,10 C-0.253906,9.9349 -0.227865,9.8763 -0.175781,9.82422 C0.488281,9.43359 1.30208,8.93229 2.26562,8.32031 C2.89062,7.91667 3.61979,7.35677 4.45312,6.64062 C5.26042,5.96354 5.88542,5.32552 6.32812,4.72656 C6.78385,4.14062 7.20052,3.41146 7.57812,2.53906 C7.90365,1.66667 8.06641,0.807292 8.06641,-0.0390625 C8.06641,-1.30208 7.75391,-2.40234 7.12891,-3.33984 C6.50391,-4.27734 5.67708,-4.74609 4.64844,-4.74609 C3.91927,-4.74609 3.29427,-4.51172 2.77344,-4.04297 C2.21354,-3.5612 1.8099,-2.95573 1.5625,-2.22656 C1.8099,-2.33073 2.03776,-2.38281 2.24609,-2.38281 C2.79297,-2.38281 3.26172,-2.1875 3.65234,-1.79688 C4.04297,-1.38021 4.23828,-0.904948 4.23828,-0.371094 C4.23828,0.188802 4.04948,0.690104 3.67188,1.13281 C3.26823,1.53646 2.79297,1.73828 2.24609,1.73828 C1.66016,1.73828 1.13281,1.53646 0.664062,1.13281 C0.221354,0.690104 0,0.188802 0,-0.371094 C0,-1.71224 0.455729,-2.85807 1.36719,-3.80859 C2.26562,-4.77214 3.35938,-5.25391 4.64844,-5.25391"/>
<path class="Clef" transform="matrix(0.850394,0,0,0.850394,10.5449,129.26)" d="M7.34375,-5.11719 C7.34375,-5.11719 7.38281,-5.11719 7.46094,-5.11719 C7.51302,-5.13021 7.55859,-5.13672 7.59766,-5.13672 C9.05599,-5.13672 10.2539,-4.6224 11.1914,-3.59375 C12.1289,-2.57812 12.5977,-1.39323 12.5977,-0.0390625 C12.5977,1.64062 11.901,3.00781 10.5078,4.0625 C10.1432,4.34896 9.66797,4.58333 9.08203,4.76562 C9.14714,5.61198 9.17969,6.29557 9.17969,6.81641 C9.17969,6.92057 9.16667,7.29818 9.14062,7.94922 C9.08854,9.16016 8.67188,10.2083 7.89062,11.0938 C7.13542,11.9661 6.19792,12.4023 5.07812,12.4023 C4.02344,12.4023 3.125,12.0312 2.38281,11.2891 C1.64062,10.5339 1.26953,9.6224 1.26953,8.55469 C1.26953,7.99479 1.48438,7.51953 1.91406,7.12891 C2.35677,6.73828 2.87109,6.54297 3.45703,6.54297 C3.97786,6.54297 4.41406,6.74479 4.76562,7.14844 C5.13021,7.52604 5.3125,7.99479 5.3125,8.55469 C5.3125,9.0625 5.13021,9.4987 4.76562,9.86328 C4.40104,10.2279 3.96484,10.4102 3.45703,10.4102 C3.2487,10.4102 3.04688,10.3711 2.85156,10.293 C3.42448,11.1393 4.1862,11.5625 5.13672,11.5625 C6.03516,11.5625 6.77083,11.1979 7.34375,10.4688 C7.94271,9.71354 8.26823,8.83464 8.32031,7.83203 C8.34635,7.20703 8.35938,6.84896 8.35938,6.75781 C8.35938,6.02865 8.33333,5.42969 8.28125,4.96094 C7.63021,5.0651 7.05078,5.11719 6.54297,5.11719 C4.73307,5.11719 3.1901,4.40104 1.91406,2.96875 C0.664062,1.52344 0.0390625,-0.195312 0.0390625,-2.1875 C0.0390625,-2.60417 0.078125,-3.02734 0.15625,-3.45703 C0.234375,-3.80859 0.332031,-4.19271 0.449219,-4.60938 C0.514323,-4.84375 0.690104,-5.22135 0.976562,-5.74219 C1.08073,-5.89844 1.19792,-6.09375 1.32812,-6.32812 C1.45833,-6.5625 1.54948,-6.71875 1.60156,-6.79688 C1.73177,-7.05729 1.98568,-7.40885 2.36328,-7.85156 C2.46745,-7.96875 2.57487,-8.09896 2.68555,-8.24219 C2.79622,-8.38542 2.89062,-8.5026 2.96875,-8.59375 C3.04688,-8.6849 3.10547,-8.75651 3.14453,-8.80859 C3.18359,-8.86068 3.47656,-9.20573 4.02344,-9.84375 C4.15365,-9.97396 4.2806,-10.1139 4.4043,-10.2637 C4.52799,-10.4134 4.62891,-10.5306 4.70703,-10.6152 C4.78516,-10.6999 4.84375,-10.7617 4.88281,-10.8008 C4.41406,-12.3503 4.12109,-13.5872 4.00391,-14.5117 C3.91276,-15.2539 3.86719,-16.2695 3.86719,-17.5586 C3.86719,-18.6914 4.1276,-19.7526 4.64844,-20.7422 C5.15625,-21.7708 5.86589,-22.6107 6.77734,-23.2617 C6.84245,-23.3008 6.90755,-23.3203 6.97266,-23.3203 C7.0638,-23.3203 7.12891,-23.3008 7.16797,-23.2617 C7.87109,-22.4154 8.47656,-21.3151 8.98438,-19.9609 C9.50521,-18.6068 9.76562,-17.3763 9.76562,-16.2695 C9.76562,-15.0195 9.46615,-13.8477 8.86719,-12.7539 C8.1901,-11.5951 7.31771,-10.3971 6.25,-9.16016 C6.52344,-8.30078 6.88802,-6.95312 7.34375,-5.11719 M9.00391,3.96484 C9.68099,3.71745 10.2083,3.29427 10.5859,2.69531 C11.0026,2.1224 11.2109,1.47786 11.2109,0.761719 C11.2109,-0.16276 10.8984,-0.983073 10.2734,-1.69922 C9.63542,-2.44141 8.82161,-2.85807 7.83203,-2.94922 C8.39193,-0.201823 8.78255,2.10286 9.00391,3.96484 M1.44531,-0.546875 C1.44531,0.742188 1.96615,1.875 3.00781,2.85156 C4.07552,3.80208 5.27344,4.27734 6.60156,4.27734 C7.14844,4.27734 7.68229,4.23828 8.20312,4.16016 C7.99479,2.18099 7.58464,-0.188802 6.97266,-2.94922 C6.23047,-2.87109 5.63802,-2.61068 5.19531,-2.16797 C4.76562,-1.71224 4.55078,-1.19792 4.55078,-0.625 C4.55078,0.364583 5.07812,1.16536 6.13281,1.77734 C6.22396,1.86849 6.26953,1.96615 6.26953,2.07031 C6.26953,2.17448 6.22396,2.27214 6.13281,2.36328 C6.05469,2.45443 5.95703,2.5 5.83984,2.5 C5.82682,2.5 5.76823,2.48698 5.66406,2.46094 C4.92188,2.05729 4.34896,1.53646 3.94531,0.898438 C3.56771,0.221354 3.37891,-0.46224 3.37891,-1.15234 C3.37891,-2.05078 3.65885,-2.86458 4.21875,-3.59375 C4.80469,-4.32292 5.56641,-4.79167 6.50391,-5 C6.13932,-6.45833 5.83984,-7.59766 5.60547,-8.41797 C5.39714,-8.18359 5.14648,-7.90039 4.85352,-7.56836 C4.56055,-7.23633 4.38802,-7.03776 4.33594,-6.97266 C3.86719,-6.36068 3.50911,-5.88542 3.26172,-5.54688 C2.81901,-4.9349 2.49349,-4.40755 2.28516,-3.96484 C2.0638,-3.47005 1.86849,-2.92969 1.69922,-2.34375 C1.52995,-1.78385 1.44531,-1.1849 1.44531,-0.546875 M7.96875,-20.4102 C6.99219,-19.9284 6.22396,-19.2383 5.66406,-18.3398 C5.09115,-17.4154 4.80469,-16.4193 4.80469,-15.3516 C4.80469,-14.4141 5.03906,-13.151 5.50781,-11.5625 C6.44531,-12.6953 7.14844,-13.7435 7.61719,-14.707 C8.11198,-15.7227 8.35938,-16.7839 8.35938,-17.8906 C8.35938,-18.724 8.22917,-19.5638 7.96875,-20.4102"/>
<path class="Clef" transform="matrix(0.850394,0,0,0.850394,10.5449,65.4803)" d="M11.4258,-1.77734 C11.2305,-1.97266 11.1328,-2.21354 11.1328,-2.5 C11.1328,-2.78646 11.2305,-3.02734 11.4258,-3.22266 C11.6211,-3.41797 11.862,-3.51562 12.1484,-3.51562 C12.4349,-3.51562 12.6758,-3.41797 12.8711,-3.22266 C13.0664,-3.02734 13.1641,-2.78646 13.1641,-2.5 C13.1641,-2.21354 13.0664,-1.97266 12.8711,-1.77734 C12.6758,-1.58203 12.4349,-1.48438 12.1484,-1.48438 C11.862,-1.48438 11.6211,-1.58203 11.4258,-1.77734 M11.4258,3.22266 C11.2305,3.02734 11.1328,2.78646 11.1328,2.5 C11.1328,2.21354 11.2305,1.97266 11.4258,1.77734 C11.6211,1.58203 11.862,1.48438 12.1484,1.48438 C12.4349,1.48438 12.6758,1.58203 12.8711,1.77734 C13.0664,1.97266 13.1641,2.21354 13.1641,2.5 C13.1641,2.78646 13.0664,3.02734 12.8711,3.22266 C12.6758,3.41797 12.4349,3.51562 12.1484,3.51562 C11.862,3.51562 11.6211,3.41797 11.4258,3.22266 M4.64844,-5.25391 C6.38021,-5.25391 7.79948,-4.81771 8.90625,-3.94531 C9.97396,-3.03385 10.5078,-1.79688 10.5078,-0.234375 C10.5078,0.820312 10.2995,1.78385 9.88281,2.65625 C9.49219,3.56771 8.97786,4.375 8.33984,5.07812 C7.6888,5.79427 6.90104,6.47135 5.97656,7.10938 C5.07812,7.73438 4.15365,8.29427 3.20312,8.78906 C1.27604,9.76562 0.208333,10.2539 0,10.2539 C-0.169271,10.2539 -0.253906,10.1693 -0.253906,10 C-0.253906,9.9349 -0.227865,9.8763 -0.175781,9.82422 C0.488281,9.43359 1.30208,8.93229 2.26562,8.32031 C2.89062,7.91667 3.61979,7.35677 4.45312,6.64062 C5.26042,5.96354 5.88542,5.32552 6.32812,4.72656 C6.78385,4.14062 7.20052,3.41146 7.57812,2.53906 C7.90365,1.66667 8.06641,0.807292 8.06641,-0.0390625 C8.06641,-1.30208 7.75391,-2.40234 7.12891,-3.33984 C6.50391,-4.27734 5.67708,-4.74609 4.64844,-4.74609 C3.91927,-4.74609 3.29427,-4.51172 2.77344,-4.04297 C2.21354,-3.5612 1.8099,-2.95573 1.5625,-2.22656 C1.8099,-2.33073 2.03776,-2.38281 2.24609,-2.38281 C2.79297,-2.38281 3.26172,-2.1875 3.65234,-1.79688 C4.04297,-1.38021 4.23828,-0.904948 4.23828,-0.371094 C4.23828,0.188802 4.04948,0.690104 3.67188,1.13281 C3.26823,1.53646 2.79297,1.73828 2.24609,1.73828 C1.66016,1.73828 1.13281,1.53646 0.664062,1.13281 C0.221354,0.690104 0,0.188802 0,-0.371094 C0,-1.71224 0.455729,-2.85807 1.36719,-3.80859 C2.26562,-4.77214 3.35938,-5.25391 4.64844,-5.25391"/>
<path class="Clef" transform="matrix(0.850394,0,0,0.850394,10.5449,35.7165)" d="M7.34375,-5.11719 C7.34375,-5.11719 7.38281,-5.11719 7.46094,-5.11719 C7.51302,-5.13021 7.55859,-5.13672 7.59766,-5.13672 C9.05599,-5.13672 10.2539,-4.6224 11.1914,-3.59375 C12.1289,-2.57812 12.5977,-1.39323 12.5977,-0.0390625 C12.5977,1.64062 11.901,3.00781 10.5078,4.0625 C10.1432,4.34896 9.66797,4.58333 9.08203,4.76562 C9.14714,5.61198 9.17969,6.29557 9.17969,6.81641 C9.17969,6.92057 9.16667,7.29818 9.14062,7.94922 C9.08854,9.16016 8.67188,10.2083 7.89062,11.0938 C7.13542,11.9661 6.19792,12.4023 5.07812,12.4023 C4.02344,12.4023 3.125,12.0312 2.38281,11.2891 C1.64062,10.5339 1.26953,9.6224 1.26953,8.55469 C1.26953,7.99479 1.48438,7.51953 1.91406,7.12891 C2.35677,6.73828 2.87109,6.54297 3.45703,6.54297 C3.97786,6.54297 4.41406,6.74479 4.76562,7.14844 C5.13021,7.52604 5.3125,7.99479 5.3125,8.55469 C5.3125,9.0625 5.13021,9.4987 4.76562,9.86328 C4.40104,10.2279 3.96484,10.4102 3.45703,10.4102 C3.2487,10.4102 3.04688,10.3711 2.85156,10.293 C3.42448,11.1393 4.1862,11.5625 5.13672,11.5625 C6.03516,11.5625 6.77083,11.1979 7.34375,10.4688 C7.94271,9.71354 8.26823,8.83464 8.32031,7.83203 C8.34635,7.20703 8.35938,6.84896 8.35938,6.75781 C8.35938,6.02865 8.33333,5.42969 8.28125,4.96094 C7.63021,5.0651 7.05078,5.11719 6.54297,5.11719 C4.73307,5.11719 3.1901,4.40104 1.91406,2.96875 C0.664062,1.52344 0.0390625,-0.195312 0.0390625,-2.1875 C0.0390625,-2.60417 0.078125,-3.02734 0.15625,-3.45703 C0.234375,-3.80859 0.332031,-4.19271 0.449219,-4.60938 C0.514323,-4.84375 0.690104,-5.22135 0.976562,-5.74219 C1.08073,-5.89844 1.19792,-6.09375 1.32812,-6.32812 C1.45833,-6.5625 1.54948,-6.71875 1.60156,-6.79688 C1.73177,-7.05729 1.98568,-7.40885 2.36328,-7.85156 C2.46745,-7.96875 2.57487,-8.09896 2.68555,-8.24219 C2.79622,-8.38542 2.89062,-8.5026 2.96875,-8.59375 C3.04688,-8.6849 3.10547,-8.75651 3.14453,-8.80859 C3.18359,-8.86068 3.47656,-9.20573 4.02344,-9.84375 C4.15365,-9.97396 4.2806,-10.1139 4.4043,-10.2637 C4.52799,-10.4134 4.62891,-10.5306 4.70703,-10.6152 C4.78516,-10.6999 4.84375,-10.7617 4.88281,-10.8008 C4.41406,-12.3503 4.12109,-13.5872 4.00391,-14.5117 C3.91276,-15.2539 3.86719,-16.2695 3.86719,-17.5586 C3.86719,-18.6914 4.1276,-19.7526 4.64844,-20.7422 C5.15625,-21.7708 5.86589,-22.6107 6.77734,-23.2617 C6.84245,-23.3008 6.90755,-23.3203 6.97266,-23.3203 C7.0638,-23.3203 7.12891,-23.3008 7.16797,-23.2617 C7.87109,-22.4154 8.47656,-21.3151 8.98438,-19.9609 C9.50521,-18.6068 9.76562,-17.3763 9.76562,-16.2695 C9.76562,-15.0195 9.46615,-13.8477 8.86719,-12.7539 C8.1901,-11.5951 7.31771,-10.3971 6.25,-9.16016 C6.52344,-8.30078 6.88802,-6.95312 7.34375,-5.11719 M9.00391,3.96484 C9.68099,3.71745 10.2083,3.29427 10.5859,2.69531 C11.0026,2.1224 11.2109,1.47786 11.2109,0.761719 C11.2109,-0.16276 10.8984,-0.983073 10.2734,-1.69922 C9.63542,-2.44141 8.82161,-2.85807 7.83203,-2.94922 C8.39193,-0.201823 8.78255,2.10286 9.00391,3.96484 M1.44531,-0.546875 C1.44531,0.742188 1.96615,1.875 3.00781,2.85156 C4.07552,3.80208 5.27344,4.27734 6.60156,4.27734 C7.14844,4.27734 7.68229,4.23828 8.20312,4.16016 C7.99479,2.18099 7.58464,-0.188802 6.97266,-2.94922 C6.23047,-2.87109 5.63802,-2.61068 5.19531,-2.16797 C4.76562,-1.71224 4.55078,-1.19792 4.55078,-0.625 C4.55078,0.364583 5.07812,1.16536 6.13281,1.77734 C6.22396,1.86849 6.26953,1.96615 6.26953,2.07031 C6.26953,2.17448 6.22396,2.27214 6.13281,2.36328 C6.05469,2.45443 5.95703,2.5 5.83984,2.5 C5.82682,2.5 5.76823,2.48698 5.66406,2.46094 C4.92188,2.05729 4.34896,1.53646 3.94531,0.898438 C3.56771,0.221354 3.37891,-0.46224 3.37891,-1.15234 C3.37891,-2.05078 3.65885,-2.86458 4.21875,-3.59375 C4.80469,-4.32292 5.56641,-4.79167 6.50391,-5 C6.13932,-6.45833 5.83984,-7.59766 5.60547,-8.41797 C5.39714,-8.18359 5.14648,-7.90039 4.85352,-7.56836 C4.56055,-7.23633 4.38802,-7.03776 4.33594,-6.97266 C3.86719,-6.36068 3.50911,-5.88542 3.26172,-5.54688 C2.81901,-4.9349 2.49349,-4.40755 2.28516,-3.96484 C2.0638,-3.47005 1.86849,-2.92969 1.69922,-2.34375 C1.52995,-1.78385 1.44531,-1.1849 1.44531,-0.546875 M7.96875,-20.4102 C6.99219,-19.9284 6.22396,-19.2383 5.66406,-18.3398 C5.09115,-17.4154 4.80469,-16.4193 4.80469,-15.3516 C4.80469,-14.4141 5.03906,-13.151 5.50781,-11.5625 C6.44531,-12.6953 7.14844,-13.7435 7.61719,-14.707 C8.11198,-15.7227 8.35938,-16.7839 8.35938,-17.8906 C8.35938,-18.724 8.22917,-19.5638 7.96875,-20.4102"/>
<path class="Rest" transform="matrix(0.850394,0,0,0.850394,79.8267,159.024)" d="M7.30469,3.125 L0.195312,3.125 C0.0651042,3.125 0,3.0599 0,2.92969 L0,0.195312 C0,0.0651042 0.0651042,0 0.195312,0 L7.30469,0 C7.4349,0 7.5,0.0651042 7.5,0.195312 L7.5,2.92969 C7.5,3.0599 7.4349,3.125 7.30469,3.125"/>
<path class="Beam" fill-rule="evenodd" d="M209.672,174.969 L255.065,174.969 L255.065,177.094 L209.672,177.094 L209.672,174.969 "/>
<path class="Beam" fill-rule="evenodd" d="M149.886,176.031 L195.278,176.031 L195.278,178.157 L149.886,178.157 L149.886,176.031 "/>
<path class="Beam" fill-rule="evenodd" d="M154.931,119.85 L170.43,115.441 L170.43,117.567 L154.931,121.976 L154.931,119.85 "/>
<path class="Beam" fill-rule="evenodd" d="M91.5648,119.693 L135.305,119.693 L135.305,121.819 L91.5648,121.819 L91.5648,119.693 "/>
<path class="Beam" fill-rule="evenodd" d="M33.9812,120.756 L77.7216,120.756 L77.7216,122.882 L33.9812,122.882 L33.9812,120.756 "/>
<path class="Beam" fill-rule="evenodd" d="M238.939,52.6781 L290.234,56.9764 L290.234,59.1024 L238.939,54.8041 L238.939,52.6781 "/>
<path class="Beam" fill-rule="evenodd" d="M171.284,22.9375 L222.578,25.0866 L222.578,27.2126 L171.284,25.0635 L171.284,22.9375 "/>
<path class="Beam" fill-rule="evenodd" d="M94.6958,80.3622 L144.453,82.5121 L144.453,84.6381 L94.6958,82.4882 L94.6958,80.3622 "/>
<path class="Beam" fill-rule="evenodd" d="M34.1347,18.6609 L83.8922,22.9606 L83.8922,25.0866 L34.1347,20.7869 L34.1347,18.6609 "/>
<path class="FiguredBass" d="M277.839,181.867 C277.502,181.867 277.277,182.003 277.165,182.274 C277.054,182.545 276.998,182.929 276.998,183.426 L276.998,184.233 C277.235,184.137 277.44,184.087 277.613,184.082 C278.206,184.082 278.672,184.213 279.011,184.475 C279.351,184.737 279.52,185.127 279.52,185.644 C279.52,186.162 279.348,186.552 279.004,186.817 C278.66,187.081 278.197,187.213 277.613,187.213 C277.016,187.213 276.549,186.936 276.212,186.383 C275.875,185.829 275.706,185.171 275.706,184.41 C275.706,183.654 275.902,182.998 276.294,182.442 C276.686,181.886 277.201,181.608 277.839,181.608 C278.258,181.608 278.62,181.714 278.926,181.926 C279.231,182.137 279.384,182.417 279.384,182.763 C279.384,182.963 279.311,183.137 279.165,183.282 C279.019,183.428 278.845,183.501 278.642,183.501 C278.439,183.501 278.265,183.428 278.119,183.282 C277.973,183.137 277.9,182.963 277.9,182.763 C277.9,182.567 277.973,182.394 278.119,182.243 C278.169,182.184 278.24,182.134 278.331,182.093 C278.308,182.034 278.263,181.988 278.194,181.956 C278.094,181.897 277.975,181.867 277.839,181.867 M278.174,184.663 C278.092,184.449 277.912,184.342 277.634,184.342 C277.356,184.342 277.184,184.449 277.118,184.663 C277.052,184.878 277.018,185.203 277.018,185.641 C277.018,186.156 277.052,186.502 277.118,186.68 C277.184,186.858 277.356,186.947 277.634,186.947 C277.912,186.947 278.092,186.839 278.174,186.625 C278.256,186.411 278.297,186.084 278.297,185.644 C278.297,185.205 278.256,184.878 278.174,184.663"/>
<path class="FiguredBass" d="M275.914,194.283 L275.914,190.572 L276.588,190.572 L276.588,191.269 C276.916,190.749 277.337,190.49 277.852,190.49 C278.349,190.49 278.688,190.749 278.868,191.269 C279.187,190.747 279.601,190.486 280.112,190.486 C280.44,190.486 280.694,190.582 280.874,190.775 C281.054,190.967 281.144,191.237 281.144,191.583 L281.144,194.283 L280.467,194.283 L280.467,191.689 C280.467,191.265 280.3,191.053 279.965,191.053 C279.616,191.053 279.25,191.301 278.868,191.795 L278.868,194.283 L278.191,194.283 L278.191,191.689 C278.191,191.263 278.02,191.05 277.678,191.05 C277.339,191.05 276.975,191.298 276.588,191.795 L276.588,194.283 L275.914,194.283 "/>
<path class="FiguredBass" d="M242.462,181.461 C242.125,181.461 241.9,181.597 241.789,181.868 C241.677,182.139 241.621,182.523 241.621,183.02 L241.621,183.826 C241.858,183.731 242.063,183.681 242.236,183.676 C242.829,183.676 243.295,183.807 243.634,184.069 C243.974,184.331 244.144,184.721 244.144,185.238 C244.144,185.755 243.972,186.146 243.627,186.41 C243.283,186.675 242.82,186.807 242.236,186.807 C241.639,186.807 241.172,186.53 240.835,185.976 C240.498,185.423 240.329,184.765 240.329,184.004 C240.329,183.248 240.525,182.591 240.917,182.035 C241.309,181.479 241.824,181.201 242.462,181.201 C242.881,181.201 243.244,181.307 243.549,181.519 C243.854,181.731 244.007,182.01 244.007,182.357 C244.007,182.557 243.934,182.73 243.788,182.876 C243.642,183.022 243.468,183.095 243.265,183.095 C243.062,183.095 242.888,183.022 242.742,182.876 C242.596,182.73 242.523,182.557 242.523,182.357 C242.523,182.161 242.596,181.988 242.742,181.837 C242.792,181.778 242.863,181.728 242.954,181.687 C242.931,181.628 242.886,181.582 242.817,181.55 C242.717,181.491 242.599,181.461 242.462,181.461 M242.797,184.257 C242.715,184.043 242.535,183.936 242.257,183.936 C241.979,183.936 241.807,184.043 241.741,184.257 C241.675,184.471 241.642,184.797 241.642,185.235 C241.642,185.75 241.675,186.096 241.741,186.274 C241.807,186.451 241.979,186.54 242.257,186.54 C242.535,186.54 242.715,186.433 242.797,186.219 C242.879,186.005 242.92,185.678 242.92,185.238 C242.92,184.798 242.879,184.471 242.797,184.257"/>
<polyline class="FiguredBass" fill="none" stroke="#000000" stroke-width="0.40" stroke-linecap="round" stroke-linejoin="bevel" points="239.565,195.283 245.565,195.283"/>
<path class="FiguredBass" d="M210.568,182.114 C210.581,182.114 210.611,182.084 210.657,182.025 C210.852,181.747 211.126,181.608 211.477,181.608 C211.759,181.608 212.026,181.713 212.277,181.922 C212.527,182.132 212.735,182.237 212.899,182.237 C213.076,182.237 213.245,182.184 213.405,182.079 C213.564,181.975 213.691,181.87 213.784,181.765 C213.877,181.66 213.938,181.608 213.965,181.608 C214.011,181.608 214.052,181.622 214.088,181.652 C214.125,181.682 214.143,181.719 214.143,181.765 C214.143,181.797 214.049,181.954 213.863,182.237 C213.676,182.519 213.468,182.846 213.24,183.218 C213.013,183.589 212.805,184.053 212.618,184.609 C212.432,185.165 212.338,185.696 212.338,186.201 C212.338,186.397 212.359,186.623 212.4,186.878 C212.432,187.074 212.432,187.186 212.4,187.213 C212.377,187.236 212.338,187.247 212.283,187.247 C212.261,187.247 212.155,187.218 211.966,187.158 C211.776,187.099 211.595,187.07 211.422,187.07 C211.267,187.07 211.088,187.099 210.886,187.158 C210.683,187.218 210.57,187.247 210.547,187.247 C210.497,187.247 210.456,187.227 210.424,187.186 C210.392,187.145 210.388,187.101 210.41,187.056 C210.679,186.413 211.006,185.788 211.391,185.179 C211.776,184.571 212.258,183.87 212.837,183.077 C212.618,183.196 212.397,183.255 212.174,183.255 C211.937,183.255 211.698,183.149 211.456,182.937 C211.215,182.725 211.017,182.619 210.862,182.619 C210.748,182.619 210.649,182.684 210.564,182.814 C210.48,182.944 210.438,183.139 210.438,183.399 L210.438,184.24 C210.438,184.353 210.385,184.41 210.281,184.41 C210.167,184.41 210.11,184.353 210.11,184.24 L210.11,181.779 C210.11,181.665 210.167,181.608 210.281,181.608 C210.385,181.608 210.438,181.665 210.438,181.779 L210.438,181.936 C210.438,181.972 210.447,182.004 210.465,182.032 C210.52,182.086 210.554,182.114 210.568,182.114"/>
<path class="FiguredBass" d="M210.345,194.283 L210.345,190.572 L211.019,190.572 L211.019,191.269 C211.285,190.749 211.673,190.49 212.181,190.49 C212.249,190.49 212.321,190.495 212.396,190.507 L212.396,191.136 C212.28,191.097 212.178,191.077 212.089,191.077 C211.663,191.077 211.306,191.33 211.019,191.836 L211.019,194.283 L210.345,194.283 "/>
<path class="FiguredBass" d="M152.941,187.283 L152.941,186.586 C152.668,187.108 152.256,187.369 151.704,187.369 C151.258,187.369 150.906,187.206 150.65,186.88 C150.393,186.554 150.265,186.109 150.265,185.544 C150.265,184.926 150.41,184.429 150.701,184.053 C150.992,183.678 151.374,183.49 151.848,183.49 C152.288,183.49 152.652,183.658 152.941,183.995 L152.941,181.886 L153.618,181.886 L153.618,187.283 L152.941,187.283 M152.941,184.457 C152.593,184.149 152.262,183.995 151.95,183.995 C151.305,183.995 150.983,184.489 150.983,185.475 C150.983,186.344 151.27,186.778 151.844,186.778 C152.218,186.778 152.584,186.574 152.941,186.166 L152.941,184.457 "/>
<path class="FiguredBass" d="M237.098,93.2636 C236.656,93.2636 236.335,93.1405 236.134,92.8945 C236.061,92.8033 235.968,92.719 235.854,92.6415 C235.74,92.5641 235.615,92.5253 235.478,92.5253 C235.3,92.5253 235.141,92.5811 235,92.6928 C234.858,92.8044 234.788,92.9537 234.788,93.1405 C234.788,93.2226 234.747,93.2636 234.665,93.2636 C234.573,93.2636 234.528,93.2226 234.528,93.1405 C234.528,92.8626 234.593,92.6085 234.723,92.3783 C234.853,92.1482 235.015,91.9545 235.211,91.7973 C235.407,91.6401 235.619,91.4714 235.847,91.2914 C236.075,91.1114 236.286,90.9371 236.48,90.7685 C236.673,90.5999 236.835,90.3868 236.965,90.1293 C237.095,89.8718 237.16,89.5904 237.16,89.2851 C237.16,88.9023 237.097,88.5787 236.972,88.3144 C236.846,88.0501 236.649,87.9179 236.38,87.9179 C236.225,87.9179 236.091,87.9555 235.977,88.0307 C235.863,88.1059 235.806,88.205 235.806,88.328 C235.806,88.4238 235.871,88.5491 236.001,88.704 C236.131,88.859 236.196,88.9889 236.196,89.0937 C236.196,89.3124 236.122,89.4959 235.974,89.644 C235.826,89.7921 235.647,89.8661 235.437,89.8661 C235.218,89.8661 235.035,89.7898 234.887,89.6371 C234.739,89.4845 234.665,89.3033 234.665,89.0937 C234.665,88.6744 234.832,88.3303 235.167,88.0614 C235.502,87.7926 235.906,87.6581 236.38,87.6581 C236.941,87.6581 237.43,87.8097 237.847,88.1127 C238.264,88.4158 238.472,88.8066 238.472,89.2851 C238.472,89.6086 238.414,89.8889 238.298,90.1259 C238.182,90.3629 238.015,90.5543 237.799,90.7001 C237.582,90.846 237.366,90.9701 237.149,91.0727 C236.933,91.1752 236.679,91.2857 236.387,91.4042 C236.096,91.5227 235.861,91.6389 235.683,91.7529 C235.779,91.7301 235.877,91.7187 235.977,91.7187 C236.314,91.7187 236.665,91.828 237.03,92.0468 C237.394,92.2655 237.681,92.3749 237.891,92.3749 C238.01,92.3749 238.106,92.3533 238.182,92.31 C238.257,92.2667 238.306,92.2188 238.329,92.1664 C238.351,92.114 238.378,92.065 238.407,92.0195 C238.437,91.9739 238.47,91.9511 238.506,91.9511 C238.598,91.9511 238.643,91.9967 238.643,92.0878 C238.643,92.2838 238.502,92.5287 238.219,92.8227 C237.937,93.1166 237.563,93.2636 237.098,93.2636"/>
<path class="FiguredBass" d="M168.836,88.3241 C168.499,88.3241 168.274,88.4597 168.163,88.7309 C168.051,89.002 167.995,89.386 167.995,89.8827 L167.995,90.6894 C168.232,90.5937 168.437,90.5435 168.61,90.539 C169.203,90.539 169.669,90.67 170.008,90.9321 C170.348,91.1941 170.518,91.5837 170.518,92.101 C170.518,92.6182 170.346,93.009 170.001,93.2734 C169.657,93.5377 169.194,93.6698 168.61,93.6698 C168.013,93.6698 167.546,93.393 167.209,92.8393 C166.872,92.2856 166.703,91.6282 166.703,90.8671 C166.703,90.1106 166.899,89.4544 167.291,88.8984 C167.683,88.3424 168.198,88.0644 168.836,88.0644 C169.255,88.0644 169.618,88.1703 169.923,88.3822 C170.228,88.5942 170.381,88.8733 170.381,89.2196 C170.381,89.4202 170.308,89.5933 170.162,89.7392 C170.016,89.885 169.842,89.9579 169.639,89.9579 C169.436,89.9579 169.262,89.885 169.116,89.7392 C168.97,89.5933 168.897,89.4202 168.897,89.2196 C168.897,89.0237 168.97,88.8505 169.116,88.7001 C169.166,88.6409 169.237,88.5907 169.328,88.5497 C169.305,88.4905 169.26,88.4449 169.191,88.413 C169.091,88.3538 168.973,88.3241 168.836,88.3241 M169.171,91.12 C169.089,90.9058 168.909,90.7988 168.631,90.7988 C168.353,90.7988 168.181,90.9058 168.115,91.12 C168.049,91.3342 168.016,91.6601 168.016,92.0976 C168.016,92.6126 168.049,92.9589 168.115,93.1366 C168.181,93.3144 168.353,93.4032 168.631,93.4032 C168.909,93.4032 169.089,93.2961 169.171,93.082 C169.253,92.8678 169.294,92.5408 169.294,92.101 C169.294,91.6612 169.253,91.3342 169.171,91.12"/>
<path class="FiguredBass" d="M166.912,100.74 L166.912,97.0282 L167.585,97.0282 L167.585,97.7255 C167.852,97.206 168.239,96.9462 168.747,96.9462 C168.815,96.9462 168.887,96.9519 168.962,96.9633 L168.962,97.5922 C168.846,97.5535 168.744,97.5341 168.655,97.5341 C168.229,97.5341 167.872,97.787 167.585,98.2929 L167.585,100.74 L166.912,100.74 "/>
<path class="FiguredBass" d="M97.9001,93.2636 C97.458,93.2636 97.1367,93.1405 96.9362,92.8945 C96.8633,92.8033 96.7699,92.719 96.6559,92.6415 C96.542,92.5641 96.4167,92.5253 96.2799,92.5253 C96.1022,92.5253 95.9427,92.5811 95.8014,92.6928 C95.6602,92.8044 95.5895,92.9537 95.5895,93.1405 C95.5895,93.2226 95.5485,93.2636 95.4665,93.2636 C95.3753,93.2636 95.3297,93.2226 95.3297,93.1405 C95.3297,92.8626 95.3947,92.6085 95.5246,92.3783 C95.6545,92.1482 95.8174,91.9545 96.0133,91.7973 C96.2093,91.6401 96.4212,91.4714 96.6491,91.2914 C96.8769,91.1114 97.0877,90.9371 97.2814,90.7685 C97.4751,90.5999 97.6369,90.3868 97.7668,90.1293 C97.8966,89.8718 97.9616,89.5904 97.9616,89.2851 C97.9616,88.9023 97.8989,88.5787 97.7736,88.3144 C97.6483,88.0501 97.4512,87.9179 97.1823,87.9179 C97.0273,87.9179 96.8929,87.9555 96.779,88.0307 C96.665,88.1059 96.6081,88.205 96.6081,88.328 C96.6081,88.4238 96.673,88.5491 96.8029,88.704 C96.9328,88.859 96.9977,88.9889 96.9977,89.0937 C96.9977,89.3124 96.9237,89.4959 96.7756,89.644 C96.6274,89.7921 96.4486,89.8661 96.2389,89.8661 C96.0202,89.8661 95.8367,89.7898 95.6886,89.6371 C95.5405,89.4845 95.4665,89.3033 95.4665,89.0937 C95.4665,88.6744 95.6339,88.3303 95.9689,88.0614 C96.3039,87.7926 96.7083,87.6581 97.1823,87.6581 C97.7428,87.6581 98.2316,87.8097 98.6486,88.1127 C99.0656,88.4158 99.2741,88.8066 99.2741,89.2851 C99.2741,89.6086 99.216,89.8889 99.0998,90.1259 C98.9836,90.3629 98.8172,90.5543 98.6007,90.7001 C98.3843,90.846 98.1678,90.9701 97.9513,91.0727 C97.7349,91.1752 97.4808,91.2857 97.1891,91.4042 C96.8975,91.5227 96.6628,91.6389 96.485,91.7529 C96.5807,91.7301 96.6787,91.7187 96.779,91.7187 C97.1162,91.7187 97.4671,91.828 97.8317,92.0468 C98.1963,92.2655 98.4834,92.3749 98.693,92.3749 C98.8115,92.3749 98.9084,92.3533 98.9836,92.31 C99.0588,92.2667 99.1077,92.2188 99.1305,92.1664 C99.1533,92.114 99.1795,92.065 99.2091,92.0195 C99.2388,91.9739 99.2718,91.9511 99.3083,91.9511 C99.3994,91.9511 99.445,91.9967 99.445,92.0878 C99.445,92.2838 99.3037,92.5287 99.0212,92.8227 C98.7386,93.1166 98.3649,93.2636 97.9001,93.2636"/>
<path class="FiguredBass" d="M31.6871,88.3241 C31.3499,88.3241 31.1254,88.4597 31.0138,88.7309 C30.9021,89.002 30.8463,89.386 30.8463,89.8827 L30.8463,90.6894 C31.0833,90.5937 31.2883,90.5435 31.4615,90.539 C32.054,90.539 32.5199,90.67 32.8595,90.9321 C33.199,91.1941 33.3687,91.5837 33.3687,92.101 C33.3687,92.6182 33.1967,93.009 32.8526,93.2734 C32.5086,93.5377 32.0448,93.6698 31.4615,93.6698 C30.8645,93.6698 30.3974,93.393 30.0601,92.8393 C29.7229,92.2856 29.5543,91.6282 29.5543,90.8671 C29.5543,90.1106 29.7503,89.4544 30.1422,88.8984 C30.5341,88.3424 31.0491,88.0644 31.6871,88.0644 C32.1064,88.0644 32.4687,88.1703 32.774,88.3822 C33.0794,88.5942 33.232,88.8733 33.232,89.2196 C33.232,89.4202 33.1591,89.5933 33.0133,89.7392 C32.8674,89.885 32.6931,89.9579 32.4903,89.9579 C32.2875,89.9579 32.1132,89.885 31.9674,89.7392 C31.8215,89.5933 31.7486,89.4202 31.7486,89.2196 C31.7486,89.0237 31.8215,88.8505 31.9674,88.7001 C32.0175,88.6409 32.0881,88.5907 32.1793,88.5497 C32.1565,88.4905 32.1109,88.4449 32.0426,88.413 C31.9423,88.3538 31.8238,88.3241 31.6871,88.3241 M32.0221,91.12 C31.94,90.9058 31.76,90.7988 31.482,90.7988 C31.204,90.7988 31.032,90.9058 30.9659,91.12 C30.8998,91.3342 30.8668,91.6601 30.8668,92.0976 C30.8668,92.6126 30.8998,92.9589 30.9659,93.1366 C31.032,93.3144 31.204,93.4032 31.482,93.4032 C31.76,93.4032 31.94,93.2961 32.0221,93.082 C32.1041,92.8678 32.1451,92.5408 32.1451,92.101 C32.1451,91.6612 32.1041,91.3342 32.0221,91.12"/>
<path class="FiguredBass" d="M29.7628,100.74 L29.7628,97.0282 L30.4361,97.0282 L30.4361,97.7255 C30.7642,97.206 31.1858,96.9462 31.7008,96.9462 C32.1975,96.9462 32.5359,97.206 32.7159,97.7255 C33.0349,97.2037 33.4496,96.9428 33.96,96.9428 C34.2882,96.9428 34.5422,97.0391 34.7223,97.2316 C34.9023,97.4242 34.9923,97.6936 34.9923,98.04 L34.9923,100.74 L34.3155,100.74 L34.3155,98.1459 C34.3155,97.7221 34.148,97.5102 33.8131,97.5102 C33.4644,97.5102 33.0987,97.7574 32.7159,98.2519 L32.7159,100.74 L32.0392,100.74 L32.0392,98.1459 C32.0392,97.7198 31.8683,97.5068 31.5265,97.5068 C31.1869,97.5068 30.8235,97.7551 30.4361,98.2519 L30.4361,100.74 L29.7628,100.74 "/>
<path class="StaffText" d="M293.818,143.753 C293.956,143.753 294.074,143.804 294.173,143.906 C294.272,144.008 294.322,144.128 294.322,144.266 C294.322,144.398 294.271,144.512 294.169,144.608 C294.067,144.704 293.947,144.752 293.809,144.752 C293.677,144.752 293.563,144.704 293.467,144.608 C293.371,144.512 293.323,144.398 293.323,144.266 C293.323,144.128 293.372,144.008 293.471,143.906 C293.57,143.804 293.686,143.753 293.818,143.753 M296.068,143.753 C296.206,143.753 296.324,143.804 296.423,143.906 C296.522,144.008 296.572,144.128 296.572,144.266 C296.572,144.398 296.521,144.512 296.419,144.608 C296.317,144.704 296.197,144.752 296.059,144.752 C295.927,144.752 295.813,144.704 295.717,144.608 C295.621,144.512 295.573,144.398 295.573,144.266 C295.573,144.128 295.622,144.008 295.721,143.906 C295.82,143.804 295.936,143.753 296.068,143.753 M298.318,143.753 C298.456,143.753 298.574,143.804 298.673,143.906 C298.772,144.008 298.822,144.128 298.822,144.266 C298.822,144.398 298.771,144.512 298.669,144.608 C298.567,144.704 298.447,144.752 298.309,144.752 C298.177,144.752 298.063,144.704 297.967,144.608 C297.871,144.512 297.823,144.398 297.823,144.266 C297.823,144.128 297.872,144.008 297.971,143.906 C298.07,143.804 298.186,143.753 298.318,143.753"/>
<path class="StaffText" d="M291.505,50.3166 C291.643,50.3166 291.762,50.3676 291.861,50.4696 C291.96,50.5716 292.009,50.6916 292.009,50.8296 C292.009,50.9616 291.958,51.0756 291.856,51.1716 C291.754,51.2676 291.634,51.3156 291.496,51.3156 C291.364,51.3156 291.25,51.2676 291.154,51.1716 C291.058,51.0756 291.01,50.9616 291.01,50.8296 C291.01,50.6916 291.06,50.5716 291.159,50.4696 C291.258,50.3676 291.373,50.3166 291.505,50.3166 M293.755,50.3166 C293.893,50.3166 294.012,50.3676 294.111,50.4696 C294.21,50.5716 294.259,50.6916 294.259,50.8296 C294.259,50.9616 294.208,51.0756 294.106,51.1716 C294.004,51.2676 293.884,51.3156 293.746,51.3156 C293.614,51.3156 293.5,51.2676 293.404,51.1716 C293.308,51.0756 293.26,50.9616 293.26,50.8296 C293.26,50.6916 293.31,50.5716 293.409,50.4696 C293.508,50.3676 293.623,50.3166 293.755,50.3166 M296.005,50.3166 C296.143,50.3166 296.262,50.3676 296.361,50.4696 C296.46,50.5716 296.509,50.6916 296.509,50.8296 C296.509,50.9616 296.458,51.0756 296.356,51.1716 C296.254,51.2676 296.134,51.3156 295.996,51.3156 C295.864,51.3156 295.75,51.2676 295.654,51.1716 C295.558,51.0756 295.51,50.9616 295.51,50.8296 C295.51,50.6916 295.56,50.5716 295.659,50.4696 C295.758,50.3676 295.873,50.3166 296.005,50.3166"/>
<path class="Bracket" fill-rule="evenodd" d="M5.36477,136.17 C5.36477,131.716 1.94376,127.388 1.94376,123.121 C1.94376,120.973 2.87676,118.886 5.75352,117.018 C5.7924,116.994 5.81183,116.955 5.81183,116.932 C5.81183,116.862 5.59802,116.8 5.44252,116.8 C5.36477,116.8 5.22871,116.808 5.13152,116.862 C1.39951,119.26 0.155501,122.031 0.155501,124.834 C0.155501,129.35 3.80976,133.709 3.80976,138.038 C3.80976,140.187 2.87676,142.211 -1.08802e-14,144.079 L-1.08802e-14,144.142 L-1.08802e-14,144.204 C2.87676,146.072 3.80976,148.097 3.80976,150.245 C3.80976,154.574 0.155501,158.934 0.155501,163.449 C0.155501,166.252 1.39951,169.024 5.13152,171.421 C5.22871,171.476 5.36477,171.484 5.44252,171.484 C5.59802,171.484 5.81183,171.421 5.81183,171.351 C5.81183,171.328 5.7924,171.289 5.75352,171.266 C2.87676,169.397 1.94376,167.311 1.94376,165.162 C1.94376,160.896 5.36477,156.567 5.36477,152.114 C5.36477,149.28 4.12076,146.571 0.466502,144.142 C4.12076,141.713 5.36477,139.003 5.36477,136.17"/>
<path class="Bracket" fill-rule="evenodd" d="M5.36477,42.6263 C5.36477,38.1731 1.94376,33.8445 1.94376,29.5781 C1.94376,27.4294 2.87676,25.3429 5.75352,23.4745 C5.7924,23.4511 5.81183,23.4122 5.81183,23.3888 C5.81183,23.3188 5.59802,23.2565 5.44252,23.2565 C5.36477,23.2565 5.22871,23.2643 5.13152,23.3188 C1.39951,25.7166 0.155501,28.4882 0.155501,31.2909 C0.155501,35.8064 3.80976,40.1661 3.80976,44.4948 C3.80976,46.6435 2.87676,48.6677 -1.08802e-14,50.5361 L-1.08802e-14,50.5984 L-1.08802e-14,50.6607 C2.87676,52.5292 3.80976,54.5534 3.80976,56.7021 C3.80976,61.0307 0.155501,65.3905 0.155501,69.906 C0.155501,72.7087 1.39951,75.4802 5.13152,77.8781 C5.22871,77.9326 5.36477,77.9404 5.44252,77.9404 C5.59802,77.9404 5.81183,77.8781 5.81183,77.808 C5.81183,77.7847 5.7924,77.7457 5.75352,77.7224 C2.87676,75.8539 1.94376,73.7675 1.94376,71.6187 C1.94376,67.3524 5.36477,63.0238 5.36477,58.5706 C5.36477,55.7367 4.12076,53.0274 0.466502,50.5984 C4.12076,48.1694 5.36477,45.4601 5.36477,42.6263"/>
</svg>
