<?xml version="1.0" encoding="UTF-8" standalone="no"?>
<svg width="536.647px" height="232.2px" viewBox="0 0 536.647 232.2"
 xmlns="http://www.w3.org/2000/svg" xmlns:xlink="http://www.w3.org/1999/xlink" version="1.2" baseProfile="tiny">
<title>Akkordinga</title>
<desc>Generated by MuseScore 2.3.2</desc>
<polyline class="StaffLines" fill="none" stroke="#000000" stroke-width="0.40" stroke-linejoin="bevel" points="8.40001,27 536.647,27"/>
<polyline class="StaffLines" fill="none" stroke="#000000" stroke-width="0.40" stroke-linejoin="bevel" points="8.40001,32 536.647,32"/>
<polyline class="StaffLines" fill="none" stroke="#000000" stroke-width="0.40" stroke-linejoin="bevel" points="8.40001,37 536.647,37"/>
<polyline class="StaffLines" fill="none" stroke="#000000" stroke-width="0.40" stroke-linejoin="bevel" points="8.40001,42 536.647,42"/>
<polyline class="StaffLines" fill="none" stroke="#000000" stroke-width="0.40" stroke-linejoin="bevel" points="8.40001,47 536.647,47"/>
<polyline class="StaffLines" fill="none" stroke="#000000" stroke-width="0.40" stroke-linejoin="bevel" points="8.40001,79.5001 536.647,79.5001"/>
<polyline class="StaffLines" fill="none" stroke="#000000" stroke-width="0.40" stroke-linejoin="bevel" points="8.40001,84.5001 536.647,84.5001"/>
<polyline class="StaffLines" fill="none" stroke="#000000" stroke-width="0.40" stroke-linejoin="bevel" points="8.40001,89.5001 536.647,89.5001"/>
<polyline class="StaffLines" fill="none" stroke="#000000" stroke-width="0.40" stroke-linejoin="bevel" points="8.40001,94.5001 536.647,94.5001"/>
<polyline class="StaffLines" fill="none" stroke="#000000" stroke-width="0.40" stroke-linejoin="bevel" points="8.40001,99.5001 536.647,99.5001"/>
<polyline class="StaffLines" fill="none" stroke="#000000" stroke-width="0.40" stroke-linejoin="bevel" points="8.40001,154.5 212.185,154.5"/>
<polyline class="StaffLines" fill="none" stroke="#000000" stroke-width="0.40" stroke-linejoin="bevel" points="8.40001,159.5 212.185,159.5"/>
<polyline class="StaffLines" fill="none" stroke="#000000" stroke-width="0.40" stroke-linejoin="bevel" points="8.40001,164.5 212.185,164.5"/>
<polyline class="StaffLines" fill="none" stroke="#000000" stroke-width="0.40" stroke-linejoin="bevel" points="8.40001,169.5 212.185,169.5"/>
<polyline class="StaffLines" fill="none" stroke="#000000" stroke-width="0.40" stroke-linejoin="bevel" points="8.40001,174.5 212.185,174.5"/>
<polyline class="StaffLines" fill="none" stroke="#000000" stroke-width="0.40" stroke-linejoin="bevel" points="8.40001,207 212.185,207"/>
<polyline class="StaffLines" fill="none" stroke="#000000" stroke-width="0.40" stroke-linejoin="bevel" points="8.40001,212 212.185,212"/>
<polyline class="StaffLines" fill="none" stroke="#000000" stroke-width="0.40" stroke-linejoin="bevel" points="8.40001,217 212.185,217"/>
<polyline class="StaffLines" fill="none" stroke="#000000" stroke-width="0.40" stroke-linejoin="bevel" points="8.40001,222 212.185,222"/>
<polyline class="StaffLines" fill="none" stroke="#000000" stroke-width="0.40" stroke-linejoin="bevel" points="8.40001,227 212.185,227"/>
<polyline class="BarLine" fill="none" stroke="#000000" stroke-width="0.80" stroke-linejoin="bevel" points="8.80001,154.5 8.80001,227"/>
<polyline class="BarLine" fill="none" stroke="#000000" stroke-width="0.80" stroke-linejoin="bevel" points="8.80001,27 8.80001,99.5001"/>
<path class="BarLine" d="M202.951,162.801 C202.73,162.58 202.619,162.313 202.619,162 C202.619,161.688 202.73,161.421 202.951,161.199 C203.172,160.978 203.439,160.867 203.752,160.867 C204.064,160.867 204.331,160.978 204.552,161.199 C204.774,161.421 204.884,161.688 204.884,162 C204.884,162.313 204.774,162.58 204.552,162.801 C204.331,163.022 204.064,163.133 203.752,163.133 C203.439,163.133 203.172,163.022 202.951,162.801"/>
<path class="BarLine" d="M202.951,167.801 C202.73,167.58 202.619,167.313 202.619,167 C202.619,166.688 202.73,166.421 202.951,166.199 C203.172,165.978 203.439,165.867 203.752,165.867 C204.064,165.867 204.331,165.978 204.552,166.199 C204.774,166.421 204.884,166.688 204.884,167 C204.884,167.313 204.774,167.58 204.552,167.801 C204.331,168.022 204.064,168.133 203.752,168.133 C203.439,168.133 203.172,168.022 202.951,167.801"/>
<path class="BarLine" d="M202.951,215.301 C202.73,215.08 202.619,214.813 202.619,214.5 C202.619,214.188 202.73,213.921 202.951,213.699 C203.172,213.478 203.439,213.367 203.752,213.367 C204.064,213.367 204.331,213.478 204.552,213.699 C204.774,213.921 204.884,214.188 204.884,214.5 C204.884,214.813 204.774,215.08 204.552,215.301 C204.331,215.522 204.064,215.633 203.752,215.633 C203.439,215.633 203.172,215.522 202.951,215.301"/>
<path class="BarLine" d="M202.951,220.301 C202.73,220.08 202.619,219.813 202.619,219.5 C202.619,219.188 202.73,218.921 202.951,218.699 C203.172,218.478 203.439,218.367 203.752,218.367 C204.064,218.367 204.331,218.478 204.552,218.699 C204.774,218.921 204.884,219.188 204.884,219.5 C204.884,219.813 204.774,220.08 204.552,220.301 C204.331,220.522 204.064,220.633 203.752,220.633 C203.439,220.633 203.172,220.522 202.951,220.301"/>
<polyline class="BarLine" fill="none" stroke="#000000" stroke-width="0.80" stroke-linejoin="bevel" points="207.285,154.5 207.285,227"/>
<polyline class="BarLine" fill="none" stroke="#000000" stroke-width="2.50" stroke-linejoin="bevel" points="210.935,154.5 210.935,227"/>
<path class="BarLine" d="M49.0586,162.801 C48.8373,162.58 48.7266,162.313 48.7266,162 C48.7266,161.688 48.8373,161.421 49.0586,161.199 C49.28,160.978 49.5469,160.867 49.8594,160.867 C50.1719,160.867 50.4388,160.978 50.6602,161.199 C50.8815,161.421 50.9922,161.688 50.9922,162 C50.9922,162.313 50.8815,162.58 50.6602,162.801 C50.4388,163.022 50.1719,163.133 49.8594,163.133 C49.5469,163.133 49.28,163.022 49.0586,162.801"/>
<path class="BarLine" d="M49.0586,167.801 C48.8373,167.58 48.7266,167.313 48.7266,167 C48.7266,166.688 48.8373,166.421 49.0586,166.199 C49.28,165.978 49.5469,165.867 49.8594,165.867 C50.1719,165.867 50.4388,165.978 50.6602,166.199 C50.8815,166.421 50.9922,166.688 50.9922,167 C50.9922,167.313 50.8815,167.58 50.6602,167.801 C50.4388,168.022 50.1719,168.133 49.8594,168.133 C49.5469,168.133 49.28,168.022 49.0586,167.801"/>
<path class="BarLine" d="M49.0586,215.301 C48.8373,215.08 48.7266,214.813 48.7266,214.5 C48.7266,214.188 48.8373,213.921 49.0586,213.699 C49.28,213.478 49.5469,213.367 49.8594,213.367 C50.1719,213.367 50.4388,213.478 50.6602,213.699 C50.8815,213.921 50.9922,214.188 50.9922,214.5 C50.9922,214.813 50.8815,215.08 50.6602,215.301 C50.4388,215.522 50.1719,215.633 49.8594,215.633 C49.5469,215.633 49.28,215.522 49.0586,215.301"/>
<path class="BarLine" d="M49.0586,220.301 C48.8373,220.08 48.7266,219.813 48.7266,219.5 C48.7266,219.188 48.8373,218.921 49.0586,218.699 C49.28,218.478 49.5469,218.367 49.8594,218.367 C50.1719,218.367 50.4388,218.478 50.6602,218.699 C50.8815,218.921 50.9922,219.188 50.9922,219.5 C50.9922,219.813 50.8815,220.08 50.6602,220.301 C50.4388,220.522 50.1719,220.633 49.8594,220.633 C49.5469,220.633 49.28,220.522 49.0586,220.301"/>
<polyline class="BarLine" fill="none" stroke="#000000" stroke-width="0.80" stroke-linejoin="bevel" points="46.3297,154.5 46.3297,227"/>
<polyline class="BarLine" fill="none" stroke="#000000" stroke-width="2.50" stroke-linejoin="bevel" points="42.6797,154.5 42.6797,227"/>
<path class="BarLine" d="M527.414,35.3008 C527.192,35.0795 527.081,34.8125 527.081,34.5 C527.081,34.1875 527.192,33.9206 527.414,33.6992 C527.635,33.4779 527.902,33.3672 528.214,33.3672 C528.527,33.3672 528.794,33.4779 529.015,33.6992 C529.236,33.9206 529.347,34.1875 529.347,34.5 C529.347,34.8125 529.236,35.0795 529.015,35.3008 C528.794,35.5222 528.527,35.6328 528.214,35.6328 C527.902,35.6328 527.635,35.5222 527.414,35.3008"/>
<path class="BarLine" d="M527.414,40.3008 C527.192,40.0795 527.081,39.8125 527.081,39.5 C527.081,39.1875 527.192,38.9206 527.414,38.6992 C527.635,38.4779 527.902,38.3672 528.214,38.3672 C528.527,38.3672 528.794,38.4779 529.015,38.6992 C529.236,38.9206 529.347,39.1875 529.347,39.5 C529.347,39.8125 529.236,40.0795 529.015,40.3008 C528.794,40.5222 528.527,40.6328 528.214,40.6328 C527.902,40.6328 527.635,40.5222 527.414,40.3008"/>
<path class="BarLine" d="M527.414,87.8008 C527.192,87.5795 527.081,87.3126 527.081,87.0001 C527.081,86.6876 527.192,86.4206 527.414,86.1993 C527.635,85.9779 527.902,85.8672 528.214,85.8672 C528.527,85.8672 528.794,85.9779 529.015,86.1993 C529.236,86.4206 529.347,86.6876 529.347,87.0001 C529.347,87.3126 529.236,87.5795 529.015,87.8008 C528.794,88.0222 528.527,88.1329 528.214,88.1329 C527.902,88.1329 527.635,88.0222 527.414,87.8008"/>
<path class="BarLine" d="M527.414,92.8008 C527.192,92.5795 527.081,92.3126 527.081,92.0001 C527.081,91.6876 527.192,91.4206 527.414,91.1993 C527.635,90.9779 527.902,90.8672 528.214,90.8672 C528.527,90.8672 528.794,90.9779 529.015,91.1993 C529.236,91.4206 529.347,91.6876 529.347,92.0001 C529.347,92.3126 529.236,92.5795 529.015,92.8008 C528.794,93.0222 528.527,93.1329 528.214,93.1329 C527.902,93.1329 527.635,93.0222 527.414,92.8008"/>
<polyline class="BarLine" fill="none" stroke="#000000" stroke-width="0.80" stroke-linejoin="bevel" points="531.747,27 531.747,99.5001"/>
<polyline class="BarLine" fill="none" stroke="#000000" stroke-width="2.50" stroke-linejoin="bevel" points="535.397,27 535.397,99.5001"/>
<path class="BarLine" d="M280.353,35.3008 C280.132,35.0795 280.021,34.8125 280.021,34.5 C280.021,34.1875 280.132,33.9206 280.353,33.6992 C280.575,33.4779 280.842,33.3672 281.154,33.3672 C281.467,33.3672 281.733,33.4779 281.955,33.6992 C282.176,33.9206 282.287,34.1875 282.287,34.5 C282.287,34.8125 282.176,35.0795 281.955,35.3008 C281.733,35.5222 281.467,35.6328 281.154,35.6328 C280.842,35.6328 280.575,35.5222 280.353,35.3008"/>
<path class="BarLine" d="M280.353,40.3008 C280.132,40.0795 280.021,39.8125 280.021,39.5 C280.021,39.1875 280.132,38.9206 280.353,38.6992 C280.575,38.4779 280.842,38.3672 281.154,38.3672 C281.467,38.3672 281.733,38.4779 281.955,38.6992 C282.176,38.9206 282.287,39.1875 282.287,39.5 C282.287,39.8125 282.176,40.0795 281.955,40.3008 C281.733,40.5222 281.467,40.6328 281.154,40.6328 C280.842,40.6328 280.575,40.5222 280.353,40.3008"/>
<path class="BarLine" d="M280.353,87.8008 C280.132,87.5795 280.021,87.3126 280.021,87.0001 C280.021,86.6876 280.132,86.4206 280.353,86.1993 C280.575,85.9779 280.842,85.8672 281.154,85.8672 C281.467,85.8672 281.733,85.9779 281.955,86.1993 C282.176,86.4206 282.287,86.6876 282.287,87.0001 C282.287,87.3126 282.176,87.5795 281.955,87.8008 C281.733,88.0222 281.467,88.1329 281.154,88.1329 C280.842,88.1329 280.575,88.0222 280.353,87.8008"/>
<path class="BarLine" d="M280.353,92.8008 C280.132,92.5795 280.021,92.3126 280.021,92.0001 C280.021,91.6876 280.132,91.4206 280.353,91.1993 C280.575,90.9779 280.842,90.8672 281.154,90.8672 C281.467,90.8672 281.733,90.9779 281.955,91.1993 C282.176,91.4206 282.287,91.6876 282.287,92.0001 C282.287,92.3126 282.176,92.5795 281.955,92.8008 C281.733,93.0222 281.467,93.1329 281.154,93.1329 C280.842,93.1329 280.575,93.0222 280.353,92.8008"/>
<path class="BarLine" d="M294.713,35.3008 C294.491,35.0795 294.381,34.8125 294.381,34.5 C294.381,34.1875 294.491,33.9206 294.713,33.6992 C294.934,33.4779 295.201,33.3672 295.513,33.3672 C295.826,33.3672 296.093,33.4779 296.314,33.6992 C296.536,33.9206 296.646,34.1875 296.646,34.5 C296.646,34.8125 296.536,35.0795 296.314,35.3008 C296.093,35.5222 295.826,35.6328 295.513,35.6328 C295.201,35.6328 294.934,35.5222 294.713,35.3008"/>
<path class="BarLine" d="M294.713,40.3008 C294.491,40.0795 294.381,39.8125 294.381,39.5 C294.381,39.1875 294.491,38.9206 294.713,38.6992 C294.934,38.4779 295.201,38.3672 295.513,38.3672 C295.826,38.3672 296.093,38.4779 296.314,38.6992 C296.536,38.9206 296.646,39.1875 296.646,39.5 C296.646,39.8125 296.536,40.0795 296.314,40.3008 C296.093,40.5222 295.826,40.6328 295.513,40.6328 C295.201,40.6328 294.934,40.5222 294.713,40.3008"/>
<path class="BarLine" d="M294.713,87.8008 C294.491,87.5795 294.381,87.3126 294.381,87.0001 C294.381,86.6876 294.491,86.4206 294.713,86.1993 C294.934,85.9779 295.201,85.8672 295.513,85.8672 C295.826,85.8672 296.093,85.9779 296.314,86.1993 C296.536,86.4206 296.646,86.6876 296.646,87.0001 C296.646,87.3126 296.536,87.5795 296.314,87.8008 C296.093,88.0222 295.826,88.1329 295.513,88.1329 C295.201,88.1329 294.934,88.0222 294.713,87.8008"/>
<path class="BarLine" d="M294.713,92.8008 C294.491,92.5795 294.381,92.3126 294.381,92.0001 C294.381,91.6876 294.491,91.4206 294.713,91.1993 C294.934,90.9779 295.201,90.8672 295.513,90.8672 C295.826,90.8672 296.093,90.9779 296.314,91.1993 C296.536,91.4206 296.646,91.6876 296.646,92.0001 C296.646,92.3126 296.536,92.5795 296.314,92.8008 C296.093,93.0222 295.826,93.1329 295.513,93.1329 C295.201,93.1329 294.934,93.0222 294.713,92.8008"/>
<polyline class="BarLine" fill="none" stroke="#000000" stroke-width="0.80" stroke-linejoin="bevel" points="284.687,27 284.687,99.5001"/>
<polyline class="BarLine" fill="none" stroke="#000000" stroke-width="2.50" stroke-linejoin="bevel" points="288.337,27 288.337,99.5001"/>
<polyline class="BarLine" fill="none" stroke="#000000" stroke-width="0.80" stroke-linejoin="bevel" points="291.987,27 291.987,99.5001"/>
<path class="BarLine" d="M48.4555,35.3008 C48.2341,35.0795 48.1235,34.8125 48.1235,34.5 C48.1235,34.1875 48.2341,33.9206 48.4555,33.6992 C48.6769,33.4779 48.9438,33.3672 49.2563,33.3672 C49.5688,33.3672 49.8357,33.4779 50.0571,33.6992 C50.2784,33.9206 50.3891,34.1875 50.3891,34.5 C50.3891,34.8125 50.2784,35.0795 50.0571,35.3008 C49.8357,35.5222 49.5688,35.6328 49.2563,35.6328 C48.9438,35.6328 48.6769,35.5222 48.4555,35.3008"/>
<path class="BarLine" d="M48.4555,40.3008 C48.2341,40.0795 48.1235,39.8125 48.1235,39.5 C48.1235,39.1875 48.2341,38.9206 48.4555,38.6992 C48.6769,38.4779 48.9438,38.3672 49.2563,38.3672 C49.5688,38.3672 49.8357,38.4779 50.0571,38.6992 C50.2784,38.9206 50.3891,39.1875 50.3891,39.5 C50.3891,39.8125 50.2784,40.0795 50.0571,40.3008 C49.8357,40.5222 49.5688,40.6328 49.2563,40.6328 C48.9438,40.6328 48.6769,40.5222 48.4555,40.3008"/>
<path class="BarLine" d="M48.4555,87.8008 C48.2341,87.5795 48.1235,87.3126 48.1235,87.0001 C48.1235,86.6876 48.2341,86.4206 48.4555,86.1993 C48.6769,85.9779 48.9438,85.8672 49.2563,85.8672 C49.5688,85.8672 49.8357,85.9779 50.0571,86.1993 C50.2784,86.4206 50.3891,86.6876 50.3891,87.0001 C50.3891,87.3126 50.2784,87.5795 50.0571,87.8008 C49.8357,88.0222 49.5688,88.1329 49.2563,88.1329 C48.9438,88.1329 48.6769,88.0222 48.4555,87.8008"/>
<path class="BarLine" d="M48.4555,92.8008 C48.2341,92.5795 48.1235,92.3126 48.1235,92.0001 C48.1235,91.6876 48.2341,91.4206 48.4555,91.1993 C48.6769,90.9779 48.9438,90.8672 49.2563,90.8672 C49.5688,90.8672 49.8357,90.9779 50.0571,91.1993 C50.2784,91.4206 50.3891,91.6876 50.3891,92.0001 C50.3891,92.3126 50.2784,92.5795 50.0571,92.8008 C49.8357,93.0222 49.5688,93.1329 49.2563,93.1329 C48.9438,93.1329 48.6769,93.0222 48.4555,92.8008"/>
<polyline class="BarLine" fill="none" stroke="#000000" stroke-width="0.80" stroke-linejoin="bevel" points="45.7266,27 45.7266,99.5001"/>
<polyline class="BarLine" fill="none" stroke="#000000" stroke-width="2.50" stroke-linejoin="bevel" points="42.0766,27 42.0766,99.5001"/>
<polyline class="Stem" fill="none" stroke="#000000" stroke-width="0.65" stroke-linecap="round" stroke-linejoin="bevel" points="172.516,226.061 172.516,209.5"/>
<polyline class="Stem" fill="none" stroke="#000000" stroke-width="0.65" stroke-linecap="round" stroke-linejoin="bevel" points="136.155,226.061 136.155,209.5"/>
<polyline class="Stem" fill="none" stroke="#000000" stroke-width="0.65" stroke-linecap="round" stroke-linejoin="bevel" points="136.336,176.232 136.336,148.875"/>
<polyline class="Stem" fill="none" stroke="#000000" stroke-width="0.65" stroke-linecap="round" stroke-linejoin="bevel" points="99.7944,218.561 99.7944,203.25"/>
<polyline class="Stem" fill="none" stroke="#000000" stroke-width="0.65" stroke-linecap="round" stroke-linejoin="bevel" points="63.4336,218.561 63.4336,203.25"/>
<polyline class="Stem" fill="none" stroke="#000000" stroke-width="0.65" stroke-linecap="round" stroke-linejoin="bevel" points="63.6141,173.732 63.6141,147"/>
<polyline class="Stem" fill="none" stroke="#000000" stroke-width="0.65" stroke-linecap="round" stroke-linejoin="bevel" points="421.215,98.561 421.215,82.0001"/>
<polyline class="Stem" fill="none" stroke="#000000" stroke-width="0.65" stroke-linecap="round" stroke-linejoin="bevel" points="309.091,98.561 309.091,82.0001"/>
<polyline class="Stem" fill="none" stroke="#000000" stroke-width="0.65" stroke-linecap="round" stroke-linejoin="bevel" points="309.271,48.732 309.271,21.375"/>
<polyline class="Stem" fill="none" stroke="#000000" stroke-width="0.65" stroke-linecap="round" stroke-linejoin="bevel" points="174.555,91.061 174.555,75.75"/>
<polyline class="Stem" fill="none" stroke="#000000" stroke-width="0.65" stroke-linecap="round" stroke-linejoin="bevel" points="62.8305,91.061 62.8305,75.75"/>
<polyline class="Stem" fill="none" stroke="#000000" stroke-width="0.65" stroke-linecap="round" stroke-linejoin="bevel" points="63.011,46.232 63.011,19.5"/>
<path class="Note" d="M170.653,224.246 C171.278,224.246 171.805,224.409 172.235,224.735 C172.638,225.086 172.84,225.529 172.84,226.063 C172.84,226.961 172.378,227.801 171.453,228.582 C170.516,229.363 169.513,229.754 168.446,229.754 C167.821,229.754 167.293,229.591 166.864,229.266 C166.46,228.914 166.258,228.471 166.258,227.938 C166.258,227.039 166.727,226.199 167.664,225.418 C168.576,224.637 169.572,224.246 170.653,224.246"/>
<path class="Note" d="M134.292,224.246 C134.917,224.246 135.444,224.409 135.874,224.735 C136.278,225.086 136.479,225.529 136.479,226.063 C136.479,226.961 136.017,227.801 135.093,228.582 C134.155,229.363 133.153,229.754 132.085,229.754 C131.46,229.754 130.933,229.591 130.503,229.266 C130.099,228.914 129.897,228.471 129.897,227.938 C129.897,227.039 130.366,226.199 131.304,225.418 C132.215,224.637 133.211,224.246 134.292,224.246"/>
<path class="Note" d="M136.025,163.192 C136.025,162.97 135.941,162.781 135.772,162.625 C135.602,162.456 135.407,162.371 135.186,162.371 C134.795,162.371 134.007,162.762 132.822,163.543 C131.598,164.337 130.85,164.904 130.576,165.242 C130.433,165.425 130.361,165.613 130.361,165.809 C130.361,166.03 130.446,166.219 130.615,166.375 C130.772,166.544 130.967,166.629 131.201,166.629 C131.579,166.629 132.373,166.238 133.584,165.457 C134.782,164.676 135.524,164.109 135.811,163.758 C135.954,163.589 136.025,163.4 136.025,163.192 M134.99,161.746 C136.11,161.746 136.67,162.228 136.67,163.192 C136.67,163.66 136.533,164.207 136.26,164.832 C135.986,165.444 135.622,165.913 135.166,166.238 C134.163,166.915 132.907,167.254 131.397,167.254 C130.277,167.254 129.717,166.772 129.717,165.809 C129.717,165.379 129.854,164.839 130.127,164.188 C130.387,163.563 130.752,163.087 131.221,162.762 C132.223,162.085 133.48,161.746 134.99,161.746"/>
<path class="Note" d="M136.025,168.192 C136.025,167.97 135.941,167.781 135.772,167.625 C135.602,167.456 135.407,167.371 135.186,167.371 C134.795,167.371 134.007,167.762 132.822,168.543 C131.598,169.337 130.85,169.904 130.576,170.242 C130.433,170.425 130.361,170.613 130.361,170.809 C130.361,171.03 130.446,171.219 130.615,171.375 C130.772,171.544 130.967,171.629 131.201,171.629 C131.579,171.629 132.373,171.238 133.584,170.457 C134.782,169.676 135.524,169.109 135.811,168.758 C135.954,168.589 136.025,168.4 136.025,168.192 M134.99,166.746 C136.11,166.746 136.67,167.228 136.67,168.192 C136.67,168.66 136.533,169.207 136.26,169.832 C135.986,170.444 135.622,170.913 135.166,171.238 C134.163,171.915 132.907,172.254 131.397,172.254 C130.277,172.254 129.717,171.772 129.717,170.809 C129.717,170.379 129.854,169.839 130.127,169.188 C130.387,168.563 130.752,168.087 131.221,167.762 C132.223,167.085 133.48,166.746 134.99,166.746"/>
<path class="Note" d="M136.025,175.692 C136.025,175.47 135.941,175.281 135.772,175.125 C135.602,174.956 135.407,174.871 135.186,174.871 C134.795,174.871 134.007,175.262 132.822,176.043 C131.598,176.837 130.85,177.404 130.576,177.742 C130.433,177.925 130.361,178.113 130.361,178.309 C130.361,178.53 130.446,178.719 130.615,178.875 C130.772,179.044 130.967,179.129 131.201,179.129 C131.579,179.129 132.373,178.738 133.584,177.957 C134.782,177.176 135.524,176.609 135.811,176.258 C135.954,176.089 136.025,175.9 136.025,175.692 M134.99,174.246 C136.11,174.246 136.67,174.728 136.67,175.692 C136.67,176.16 136.533,176.707 136.26,177.332 C135.986,177.944 135.622,178.413 135.166,178.738 C134.163,179.415 132.907,179.754 131.397,179.754 C130.277,179.754 129.717,179.272 129.717,178.309 C129.717,177.879 129.854,177.339 130.127,176.688 C130.387,176.063 130.752,175.587 131.221,175.262 C132.223,174.585 133.48,174.246 134.99,174.246"/>
<path class="Note" d="M97.9311,216.746 C98.5561,216.746 99.0835,216.909 99.5131,217.235 C99.9168,217.586 100.119,218.029 100.119,218.563 C100.119,219.461 99.6564,220.301 98.7319,221.082 C97.7944,221.863 96.7918,222.254 95.7241,222.254 C95.0991,222.254 94.5717,222.091 94.142,221.766 C93.7384,221.414 93.5366,220.971 93.5366,220.438 C93.5366,219.539 94.0053,218.699 94.9428,217.918 C95.8543,217.137 96.8504,216.746 97.9311,216.746"/>
<path class="Note" d="M61.5703,216.746 C62.1953,216.746 62.7227,216.909 63.1524,217.235 C63.556,217.586 63.7578,218.029 63.7578,218.563 C63.7578,219.461 63.2956,220.301 62.3711,221.082 C61.4336,221.863 60.431,222.254 59.3633,222.254 C58.7383,222.254 58.211,222.091 57.7813,221.766 C57.3776,221.414 57.1758,220.971 57.1758,220.438 C57.1758,219.539 57.6446,218.699 58.5821,217.918 C59.4935,217.137 60.4896,216.746 61.5703,216.746"/>
<path class="Note" d="M63.3039,160.692 C63.3039,160.47 63.2193,160.281 63.05,160.125 C62.8808,159.956 62.6855,159.871 62.4641,159.871 C62.0735,159.871 61.2857,160.262 60.1008,161.043 C58.8769,161.837 58.1282,162.404 57.8547,162.742 C57.7115,162.925 57.6399,163.113 57.6399,163.309 C57.6399,163.53 57.7245,163.719 57.8938,163.875 C58.05,164.044 58.2453,164.129 58.4797,164.129 C58.8573,164.129 59.6516,163.738 60.8625,162.957 C62.0605,162.176 62.8026,161.609 63.0891,161.258 C63.2323,161.089 63.3039,160.9 63.3039,160.692 M62.2688,159.246 C63.3886,159.246 63.9485,159.728 63.9485,160.692 C63.9485,161.16 63.8118,161.707 63.5383,162.332 C63.2649,162.944 62.9003,163.413 62.4446,163.738 C61.442,164.415 60.1855,164.754 58.675,164.754 C57.5552,164.754 56.9953,164.272 56.9953,163.309 C56.9953,162.879 57.1321,162.339 57.4055,161.688 C57.6659,161.063 58.0305,160.587 58.4993,160.262 C59.5019,159.585 60.7584,159.246 62.2688,159.246"/>
<path class="Note" d="M63.3039,168.192 C63.3039,167.97 63.2193,167.781 63.05,167.625 C62.8808,167.456 62.6855,167.371 62.4641,167.371 C62.0735,167.371 61.2857,167.762 60.1008,168.543 C58.8769,169.337 58.1282,169.904 57.8547,170.242 C57.7115,170.425 57.6399,170.613 57.6399,170.809 C57.6399,171.03 57.7245,171.219 57.8938,171.375 C58.05,171.544 58.2453,171.629 58.4797,171.629 C58.8573,171.629 59.6516,171.238 60.8625,170.457 C62.0605,169.676 62.8026,169.109 63.0891,168.758 C63.2323,168.589 63.3039,168.4 63.3039,168.192 M62.2688,166.746 C63.3886,166.746 63.9485,167.228 63.9485,168.192 C63.9485,168.66 63.8118,169.207 63.5383,169.832 C63.2649,170.444 62.9003,170.913 62.4446,171.238 C61.442,171.915 60.1855,172.254 58.675,172.254 C57.5552,172.254 56.9953,171.772 56.9953,170.809 C56.9953,170.379 57.1321,169.839 57.4055,169.188 C57.6659,168.563 58.0305,168.087 58.4993,167.762 C59.5019,167.085 60.7584,166.746 62.2688,166.746"/>
<path class="Note" d="M63.3039,173.192 C63.3039,172.97 63.2193,172.781 63.05,172.625 C62.8808,172.456 62.6855,172.371 62.4641,172.371 C62.0735,172.371 61.2857,172.762 60.1008,173.543 C58.8769,174.337 58.1282,174.904 57.8547,175.242 C57.7115,175.425 57.6399,175.613 57.6399,175.809 C57.6399,176.03 57.7245,176.219 57.8938,176.375 C58.05,176.544 58.2453,176.629 58.4797,176.629 C58.8573,176.629 59.6516,176.238 60.8625,175.457 C62.0605,174.676 62.8026,174.109 63.0891,173.758 C63.2323,173.589 63.3039,173.4 63.3039,173.192 M62.2688,171.746 C63.3886,171.746 63.9485,172.228 63.9485,173.192 C63.9485,173.66 63.8118,174.207 63.5383,174.832 C63.2649,175.444 62.9003,175.913 62.4446,176.238 C61.442,176.915 60.1855,177.254 58.675,177.254 C57.5552,177.254 56.9953,176.772 56.9953,175.809 C56.9953,175.379 57.1321,174.839 57.4055,174.188 C57.6659,173.563 58.0305,173.087 58.4993,172.762 C59.5019,172.085 60.7584,171.746 62.2688,171.746"/>
<path class="Note" d="M419.352,96.7462 C419.977,96.7462 420.504,96.9089 420.934,97.2344 C421.337,97.586 421.539,98.0287 421.539,98.5626 C421.539,99.461 421.077,100.301 420.153,101.082 C419.215,101.863 418.212,102.254 417.145,102.254 C416.52,102.254 415.992,102.091 415.563,101.766 C415.159,101.414 414.957,100.971 414.957,100.438 C414.957,99.5391 415.426,98.6993 416.363,97.918 C417.275,97.1368 418.271,96.7462 419.352,96.7462"/>
<path class="Note" d="M307.227,96.7462 C307.852,96.7462 308.38,96.9089 308.81,97.2344 C309.213,97.586 309.415,98.0287 309.415,98.5626 C309.415,99.461 308.953,100.301 308.028,101.082 C307.091,101.863 306.088,102.254 305.02,102.254 C304.395,102.254 303.868,102.091 303.438,101.766 C303.035,101.414 302.833,100.971 302.833,100.438 C302.833,99.5391 303.302,98.6993 304.239,97.918 C305.151,97.1368 306.147,96.7462 307.227,96.7462"/>
<path class="Note" d="M308.961,35.6914 C308.961,35.4701 308.876,35.2813 308.707,35.125 C308.538,34.9558 308.343,34.8711 308.121,34.8711 C307.731,34.8711 306.943,35.2617 305.758,36.043 C304.534,36.8373 303.785,37.4037 303.512,37.7422 C303.369,37.9245 303.297,38.1133 303.297,38.3086 C303.297,38.53 303.382,38.7188 303.551,38.875 C303.707,39.0443 303.902,39.1289 304.137,39.1289 C304.514,39.1289 305.309,38.7383 306.52,37.9571 C307.718,37.1758 308.46,36.6094 308.746,36.2578 C308.889,36.0886 308.961,35.8998 308.961,35.6914 M307.926,34.2461 C309.046,34.2461 309.606,34.7279 309.606,35.6914 C309.606,36.1602 309.469,36.7071 309.195,37.3321 C308.922,37.944 308.557,38.4128 308.102,38.7383 C307.099,39.4154 305.843,39.7539 304.332,39.7539 C303.212,39.7539 302.652,39.2722 302.652,38.3086 C302.652,37.8789 302.789,37.3386 303.063,36.6875 C303.323,36.0625 303.688,35.5873 304.156,35.2617 C305.159,34.5847 306.415,34.2461 307.926,34.2461"/>
<path class="Note" d="M308.961,40.6914 C308.961,40.4701 308.876,40.2813 308.707,40.125 C308.538,39.9558 308.343,39.8711 308.121,39.8711 C307.731,39.8711 306.943,40.2617 305.758,41.043 C304.534,41.8373 303.785,42.4037 303.512,42.7422 C303.369,42.9245 303.297,43.1133 303.297,43.3086 C303.297,43.53 303.382,43.7188 303.551,43.875 C303.707,44.0443 303.902,44.1289 304.137,44.1289 C304.514,44.1289 305.309,43.7383 306.52,42.9571 C307.718,42.1758 308.46,41.6094 308.746,41.2578 C308.889,41.0886 308.961,40.8998 308.961,40.6914 M307.926,39.2461 C309.046,39.2461 309.606,39.7279 309.606,40.6914 C309.606,41.1602 309.469,41.7071 309.195,42.3321 C308.922,42.944 308.557,43.4128 308.102,43.7383 C307.099,44.4154 305.843,44.7539 304.332,44.7539 C303.212,44.7539 302.652,44.2722 302.652,43.3086 C302.652,42.8789 302.789,42.3386 303.063,41.6875 C303.323,41.0625 303.688,40.5873 304.156,40.2617 C305.159,39.5847 306.415,39.2461 307.926,39.2461"/>
<path class="Note" d="M308.961,48.1914 C308.961,47.9701 308.876,47.7813 308.707,47.625 C308.538,47.4558 308.343,47.3711 308.121,47.3711 C307.731,47.3711 306.943,47.7617 305.758,48.543 C304.534,49.3373 303.785,49.9037 303.512,50.2422 C303.369,50.4245 303.297,50.6133 303.297,50.8086 C303.297,51.03 303.382,51.2188 303.551,51.375 C303.707,51.5443 303.902,51.6289 304.137,51.6289 C304.514,51.6289 305.309,51.2383 306.52,50.4571 C307.718,49.6758 308.46,49.1094 308.746,48.7578 C308.889,48.5886 308.961,48.3998 308.961,48.1914 M307.926,46.7461 C309.046,46.7461 309.606,47.2279 309.606,48.1914 C309.606,48.6602 309.469,49.2071 309.195,49.8321 C308.922,50.444 308.557,50.9128 308.102,51.2383 C307.099,51.9154 305.843,52.2539 304.332,52.2539 C303.212,52.2539 302.652,51.7722 302.652,50.8086 C302.652,50.3789 302.789,49.8386 303.063,49.1875 C303.323,48.5625 303.688,48.0873 304.156,47.7617 C305.159,47.0847 306.415,46.7461 307.926,46.7461"/>
<path class="Note" d="M172.691,89.2462 C173.316,89.2462 173.844,89.4089 174.274,89.7344 C174.677,90.086 174.879,90.5287 174.879,91.0626 C174.879,91.961 174.417,92.8008 173.492,93.5821 C172.555,94.3633 171.552,94.754 170.484,94.754 C169.859,94.754 169.332,94.5912 168.902,94.2657 C168.499,93.9141 168.297,93.4714 168.297,92.9376 C168.297,92.0391 168.766,91.1993 169.703,90.418 C170.615,89.6368 171.611,89.2462 172.691,89.2462"/>
<path class="Note" d="M60.9672,89.2462 C61.5922,89.2462 62.1196,89.4089 62.5493,89.7344 C62.9529,90.086 63.1547,90.5287 63.1547,91.0626 C63.1547,91.961 62.6925,92.8008 61.768,93.5821 C60.8305,94.3633 59.8279,94.754 58.7602,94.754 C58.1352,94.754 57.6078,94.5912 57.1782,94.2657 C56.7745,93.9141 56.5727,93.4714 56.5727,92.9376 C56.5727,92.0391 57.0414,91.1993 57.9789,90.418 C58.8904,89.6368 59.8865,89.2462 60.9672,89.2462"/>
<path class="Note" d="M62.7008,33.1914 C62.7008,32.9701 62.6162,32.7813 62.4469,32.625 C62.2776,32.4558 62.0823,32.3711 61.861,32.3711 C61.4703,32.3711 60.6826,32.7617 59.4977,33.543 C58.2737,34.3373 57.525,34.9037 57.2516,35.2422 C57.1084,35.4245 57.0368,35.6133 57.0368,35.8086 C57.0368,36.03 57.1214,36.2188 57.2907,36.375 C57.4469,36.5443 57.6422,36.6289 57.8766,36.6289 C58.2542,36.6289 59.0485,36.2383 60.2594,35.4571 C61.4573,34.6758 62.1995,34.1094 62.486,33.7578 C62.6292,33.5886 62.7008,33.3998 62.7008,33.1914 M61.6657,31.7461 C62.7855,31.7461 63.3453,32.2279 63.3453,33.1914 C63.3453,33.6602 63.2086,34.2071 62.9352,34.8321 C62.6618,35.444 62.2972,35.9128 61.8414,36.2383 C60.8388,36.9154 59.5823,37.2539 58.0719,37.2539 C56.9521,37.2539 56.3922,36.7722 56.3922,35.8086 C56.3922,35.3789 56.5289,34.8386 56.8024,34.1875 C57.0628,33.5625 57.4274,33.0873 57.8961,32.7617 C58.8987,32.0847 60.1552,31.7461 61.6657,31.7461"/>
<path class="Note" d="M62.7008,40.6914 C62.7008,40.4701 62.6162,40.2813 62.4469,40.125 C62.2776,39.9558 62.0823,39.8711 61.861,39.8711 C61.4703,39.8711 60.6826,40.2617 59.4977,41.043 C58.2737,41.8373 57.525,42.4037 57.2516,42.7422 C57.1084,42.9245 57.0368,43.1133 57.0368,43.3086 C57.0368,43.53 57.1214,43.7188 57.2907,43.875 C57.4469,44.0443 57.6422,44.1289 57.8766,44.1289 C58.2542,44.1289 59.0485,43.7383 60.2594,42.9571 C61.4573,42.1758 62.1995,41.6094 62.486,41.2578 C62.6292,41.0886 62.7008,40.8998 62.7008,40.6914 M61.6657,39.2461 C62.7855,39.2461 63.3453,39.7279 63.3453,40.6914 C63.3453,41.1602 63.2086,41.7071 62.9352,42.3321 C62.6618,42.944 62.2972,43.4128 61.8414,43.7383 C60.8388,44.4154 59.5823,44.7539 58.0719,44.7539 C56.9521,44.7539 56.3922,44.2722 56.3922,43.3086 C56.3922,42.8789 56.5289,42.3386 56.8024,41.6875 C57.0628,41.0625 57.4274,40.5873 57.8961,40.2617 C58.8987,39.5847 60.1552,39.2461 61.6657,39.2461"/>
<path class="Note" d="M62.7008,45.6914 C62.7008,45.4701 62.6162,45.2813 62.4469,45.125 C62.2776,44.9558 62.0823,44.8711 61.861,44.8711 C61.4703,44.8711 60.6826,45.2617 59.4977,46.043 C58.2737,46.8373 57.525,47.4037 57.2516,47.7422 C57.1084,47.9245 57.0368,48.1133 57.0368,48.3086 C57.0368,48.53 57.1214,48.7188 57.2907,48.875 C57.4469,49.0443 57.6422,49.1289 57.8766,49.1289 C58.2542,49.1289 59.0485,48.7383 60.2594,47.9571 C61.4573,47.1758 62.1995,46.6094 62.486,46.2578 C62.6292,46.0886 62.7008,45.8998 62.7008,45.6914 M61.6657,44.2461 C62.7855,44.2461 63.3453,44.7279 63.3453,45.6914 C63.3453,46.1602 63.2086,46.7071 62.9352,47.3321 C62.6618,47.944 62.2972,48.4128 61.8414,48.7383 C60.8388,49.4154 59.5823,49.7539 58.0719,49.7539 C56.9521,49.7539 56.3922,49.2722 56.3922,48.3086 C56.3922,47.8789 56.5289,47.3386 56.8024,46.6875 C57.0628,46.0625 57.4274,45.5873 57.8961,45.2617 C58.8987,44.5847 60.1552,44.2461 61.6657,44.2461"/>
<path class="Clef" d="M23.8258,210.223 C23.6305,210.027 23.5328,209.787 23.5328,209.5 C23.5328,209.214 23.6305,208.973 23.8258,208.777 C24.0211,208.582 24.262,208.485 24.5484,208.485 C24.8349,208.485 25.0758,208.582 25.2711,208.777 C25.4664,208.973 25.5641,209.214 25.5641,209.5 C25.5641,209.787 25.4664,210.027 25.2711,210.223 C25.0758,210.418 24.8349,210.516 24.5484,210.516 C24.262,210.516 24.0211,210.418 23.8258,210.223 M23.8258,215.223 C23.6305,215.027 23.5328,214.787 23.5328,214.5 C23.5328,214.214 23.6305,213.973 23.8258,213.777 C24.0211,213.582 24.262,213.485 24.5484,213.485 C24.8349,213.485 25.0758,213.582 25.2711,213.777 C25.4664,213.973 25.5641,214.214 25.5641,214.5 C25.5641,214.787 25.4664,215.027 25.2711,215.223 C25.0758,215.418 24.8349,215.516 24.5484,215.516 C24.262,215.516 24.0211,215.418 23.8258,215.223 M17.0484,206.746 C18.7802,206.746 20.1995,207.182 21.3063,208.055 C22.374,208.966 22.9078,210.203 22.9078,211.766 C22.9078,212.82 22.6995,213.784 22.2828,214.656 C21.8922,215.568 21.3779,216.375 20.7399,217.078 C20.0888,217.794 19.301,218.471 18.3766,219.11 C17.4781,219.735 16.5537,220.294 15.6031,220.789 C13.676,221.766 12.6083,222.254 12.4,222.254 C12.2307,222.254 12.1461,222.169 12.1461,222 C12.1461,221.935 12.1721,221.876 12.2242,221.824 C12.8883,221.434 13.7021,220.932 14.6656,220.32 C15.2906,219.917 16.0198,219.357 16.8531,218.641 C17.6604,217.964 18.2854,217.326 18.7281,216.727 C19.1839,216.141 19.6005,215.412 19.9781,214.539 C20.3037,213.667 20.4664,212.807 20.4664,211.961 C20.4664,210.698 20.1539,209.598 19.5289,208.66 C18.9039,207.723 18.0771,207.254 17.0484,207.254 C16.3193,207.254 15.6943,207.488 15.1734,207.957 C14.6135,208.439 14.2099,209.044 13.9625,209.774 C14.2099,209.669 14.4378,209.617 14.6461,209.617 C15.193,209.617 15.6617,209.813 16.0524,210.203 C16.443,210.62 16.6383,211.095 16.6383,211.629 C16.6383,212.189 16.4495,212.69 16.0719,213.133 C15.6682,213.537 15.193,213.738 14.6461,213.738 C14.0602,213.738 13.5328,213.537 13.0641,213.133 C12.6214,212.69 12.4,212.189 12.4,211.629 C12.4,210.288 12.8557,209.142 13.7672,208.192 C14.6656,207.228 15.7594,206.746 17.0484,206.746"/>
<path class="Clef" d="M19.7438,164.383 C19.7438,164.383 19.7828,164.383 19.8609,164.383 C19.913,164.37 19.9586,164.363 19.9977,164.363 C21.456,164.363 22.6539,164.878 23.5914,165.906 C24.5289,166.922 24.9977,168.107 24.9977,169.461 C24.9977,171.141 24.301,172.508 22.9078,173.563 C22.5432,173.849 22.068,174.083 21.482,174.266 C21.5471,175.112 21.5797,175.796 21.5797,176.317 C21.5797,176.421 21.5667,176.798 21.5406,177.449 C21.4885,178.66 21.0719,179.708 20.2906,180.594 C19.5354,181.466 18.5979,181.902 17.4781,181.902 C16.4234,181.902 15.525,181.531 14.7828,180.789 C14.0406,180.034 13.6695,179.123 13.6695,178.055 C13.6695,177.495 13.8844,177.02 14.3141,176.629 C14.7568,176.238 15.2711,176.043 15.857,176.043 C16.3779,176.043 16.8141,176.245 17.1656,176.649 C17.5302,177.026 17.7125,177.495 17.7125,178.055 C17.7125,178.563 17.5302,178.999 17.1656,179.363 C16.801,179.728 16.3649,179.91 15.857,179.91 C15.6487,179.91 15.4469,179.871 15.2516,179.793 C15.8245,180.639 16.5862,181.063 17.5367,181.063 C18.4352,181.063 19.1708,180.698 19.7438,179.969 C20.3427,179.214 20.6682,178.335 20.7203,177.332 C20.7464,176.707 20.7594,176.349 20.7594,176.258 C20.7594,175.529 20.7333,174.93 20.6813,174.461 C20.0302,174.565 19.4508,174.617 18.943,174.617 C17.1331,174.617 15.5901,173.901 14.3141,172.469 C13.0641,171.024 12.4391,169.305 12.4391,167.313 C12.4391,166.896 12.4781,166.473 12.5563,166.043 C12.6344,165.692 12.732,165.307 12.8492,164.891 C12.9143,164.656 13.0901,164.279 13.3766,163.758 C13.4807,163.602 13.5979,163.406 13.7281,163.172 C13.8583,162.938 13.9495,162.781 14.0016,162.703 C14.1318,162.443 14.3857,162.091 14.7633,161.649 C14.8675,161.531 14.9749,161.401 15.0856,161.258 C15.1962,161.115 15.2906,160.998 15.3688,160.906 C15.4469,160.815 15.5055,160.744 15.5445,160.692 C15.5836,160.639 15.8766,160.294 16.4234,159.656 C16.5537,159.526 16.6806,159.386 16.8043,159.236 C16.928,159.087 17.0289,158.97 17.107,158.885 C17.1852,158.8 17.2438,158.738 17.2828,158.699 C16.8141,157.15 16.5211,155.913 16.4039,154.988 C16.3128,154.246 16.2672,153.231 16.2672,151.942 C16.2672,150.809 16.5276,149.748 17.0484,148.758 C17.5563,147.729 18.2659,146.889 19.1774,146.238 C19.2425,146.199 19.3076,146.18 19.3727,146.18 C19.4638,146.18 19.5289,146.199 19.568,146.238 C20.2711,147.085 20.8766,148.185 21.3844,149.539 C21.9052,150.893 22.1656,152.124 22.1656,153.231 C22.1656,154.481 21.8662,155.652 21.2672,156.746 C20.5901,157.905 19.7177,159.103 18.65,160.34 C18.9234,161.199 19.288,162.547 19.7438,164.383 M21.4039,173.465 C22.081,173.218 22.6083,172.794 22.9859,172.195 C23.4026,171.623 23.6109,170.978 23.6109,170.262 C23.6109,169.337 23.2984,168.517 22.6734,167.801 C22.0354,167.059 21.2216,166.642 20.232,166.551 C20.7919,169.298 21.1826,171.603 21.4039,173.465 M13.8453,168.953 C13.8453,170.242 14.3662,171.375 15.4078,172.352 C16.4755,173.302 17.6734,173.777 19.0016,173.777 C19.5484,173.777 20.0823,173.738 20.6031,173.66 C20.3948,171.681 19.9846,169.311 19.3727,166.551 C18.6305,166.629 18.038,166.889 17.5953,167.332 C17.1656,167.788 16.9508,168.302 16.9508,168.875 C16.9508,169.865 17.4781,170.665 18.5328,171.277 C18.624,171.369 18.6695,171.466 18.6695,171.57 C18.6695,171.675 18.624,171.772 18.5328,171.863 C18.4547,171.955 18.357,172 18.2399,172 C18.2268,172 18.1682,171.987 18.0641,171.961 C17.3219,171.557 16.749,171.037 16.3453,170.399 C15.9677,169.721 15.7789,169.038 15.7789,168.348 C15.7789,167.449 16.0589,166.636 16.6188,165.906 C17.2047,165.177 17.9664,164.708 18.9039,164.5 C18.5393,163.042 18.2399,161.902 18.0055,161.082 C17.7971,161.317 17.5465,161.6 17.2535,161.932 C16.9606,162.264 16.788,162.462 16.7359,162.527 C16.2672,163.139 15.9091,163.615 15.6617,163.953 C15.219,164.565 14.8935,165.093 14.6852,165.535 C14.4638,166.03 14.2685,166.57 14.0992,167.156 C13.93,167.716 13.8453,168.315 13.8453,168.953 M20.3688,149.09 C19.3922,149.572 18.624,150.262 18.0641,151.16 C17.4912,152.085 17.2047,153.081 17.2047,154.149 C17.2047,155.086 17.4391,156.349 17.9078,157.938 C18.8453,156.805 19.5484,155.757 20.0172,154.793 C20.512,153.777 20.7594,152.716 20.7594,151.609 C20.7594,150.776 20.6292,149.936 20.3688,149.09"/>
<path class="Clef" d="M23.8258,82.7227 C23.6305,82.5274 23.5328,82.2865 23.5328,82.0001 C23.5328,81.7136 23.6305,81.4727 23.8258,81.2774 C24.0211,81.0821 24.262,80.9844 24.5484,80.9844 C24.8349,80.9844 25.0758,81.0821 25.2711,81.2774 C25.4664,81.4727 25.5641,81.7136 25.5641,82.0001 C25.5641,82.2865 25.4664,82.5274 25.2711,82.7227 C25.0758,82.918 24.8349,83.0157 24.5484,83.0157 C24.262,83.0157 24.0211,82.918 23.8258,82.7227 M23.8258,87.7227 C23.6305,87.5274 23.5328,87.2865 23.5328,87.0001 C23.5328,86.7136 23.6305,86.4727 23.8258,86.2774 C24.0211,86.0821 24.262,85.9844 24.5484,85.9844 C24.8349,85.9844 25.0758,86.0821 25.2711,86.2774 C25.4664,86.4727 25.5641,86.7136 25.5641,87.0001 C25.5641,87.2865 25.4664,87.5274 25.2711,87.7227 C25.0758,87.918 24.8349,88.0157 24.5484,88.0157 C24.262,88.0157 24.0211,87.918 23.8258,87.7227 M17.0484,79.2461 C18.7802,79.2461 20.1995,79.6823 21.3063,80.5547 C22.374,81.4662 22.9078,82.7032 22.9078,84.2657 C22.9078,85.3204 22.6995,86.2839 22.2828,87.1563 C21.8922,88.0678 21.3779,88.8751 20.7399,89.5782 C20.0888,90.2943 19.301,90.9714 18.3766,91.6094 C17.4781,92.2344 16.5537,92.7943 15.6031,93.2891 C13.676,94.2657 12.6083,94.754 12.4,94.754 C12.2307,94.754 12.1461,94.6693 12.1461,94.5001 C12.1461,94.4349 12.1721,94.3764 12.2242,94.3243 C12.8883,93.9336 13.7021,93.4323 14.6656,92.8204 C15.2906,92.4167 16.0198,91.8568 16.8531,91.1407 C17.6604,90.4636 18.2854,89.8256 18.7281,89.2266 C19.1839,88.6407 19.6005,87.9115 19.9781,87.0391 C20.3037,86.1667 20.4664,85.3073 20.4664,84.461 C20.4664,83.198 20.1539,82.0977 19.5289,81.1602 C18.9039,80.2227 18.0771,79.754 17.0484,79.754 C16.3193,79.754 15.6943,79.9883 15.1734,80.4571 C14.6135,80.9389 14.2099,81.5443 13.9625,82.2735 C14.2099,82.1693 14.4378,82.1172 14.6461,82.1172 C15.193,82.1172 15.6617,82.3126 16.0524,82.7032 C16.443,83.1198 16.6383,83.5951 16.6383,84.129 C16.6383,84.6889 16.4495,85.1902 16.0719,85.6329 C15.6682,86.0365 15.193,86.2383 14.6461,86.2383 C14.0602,86.2383 13.5328,86.0365 13.0641,85.6329 C12.6214,85.1902 12.4,84.6889 12.4,84.129 C12.4,82.7878 12.8557,81.642 13.7672,80.6915 C14.6656,79.7279 15.7594,79.2461 17.0484,79.2461"/>
<path class="Clef" d="M19.7438,36.8828 C19.7438,36.8828 19.7828,36.8828 19.8609,36.8828 C19.913,36.8698 19.9586,36.8633 19.9977,36.8633 C21.456,36.8633 22.6539,37.3776 23.5914,38.4063 C24.5289,39.4219 24.9977,40.6068 24.9977,41.961 C24.9977,43.6407 24.301,45.0078 22.9078,46.0625 C22.5432,46.349 22.068,46.5834 21.482,46.7657 C21.5471,47.612 21.5797,48.2956 21.5797,48.8164 C21.5797,48.9206 21.5667,49.2982 21.5406,49.9492 C21.4885,51.1602 21.0719,52.2084 20.2906,53.0938 C19.5354,53.9662 18.5979,54.4024 17.4781,54.4024 C16.4234,54.4024 15.525,54.0313 14.7828,53.2891 C14.0406,52.5339 13.6695,51.6224 13.6695,50.5547 C13.6695,49.9948 13.8844,49.5196 14.3141,49.1289 C14.7568,48.7383 15.2711,48.543 15.857,48.543 C16.3779,48.543 16.8141,48.7448 17.1656,49.1485 C17.5302,49.5261 17.7125,49.9948 17.7125,50.5547 C17.7125,51.0625 17.5302,51.4987 17.1656,51.8633 C16.801,52.2279 16.3649,52.4102 15.857,52.4102 C15.6487,52.4102 15.4469,52.3711 15.2516,52.293 C15.8245,53.1393 16.5862,53.5625 17.5367,53.5625 C18.4352,53.5625 19.1708,53.1979 19.7438,52.4688 C20.3427,51.7136 20.6682,50.8347 20.7203,49.8321 C20.7464,49.2071 20.7594,48.849 20.7594,48.7578 C20.7594,48.0287 20.7333,47.4297 20.6813,46.961 C20.0302,47.0651 19.4508,47.1172 18.943,47.1172 C17.1331,47.1172 15.5901,46.4011 14.3141,44.9688 C13.0641,43.5235 12.4391,41.8047 12.4391,39.8125 C12.4391,39.3959 12.4781,38.9727 12.5563,38.543 C12.6344,38.1914 12.732,37.8073 12.8492,37.3907 C12.9143,37.1563 13.0901,36.7787 13.3766,36.2578 C13.4807,36.1016 13.5979,35.9063 13.7281,35.6719 C13.8583,35.4375 13.9495,35.2813 14.0016,35.2032 C14.1318,34.9427 14.3857,34.5912 14.7633,34.1485 C14.8675,34.0313 14.9749,33.9011 15.0856,33.7578 C15.1962,33.6146 15.2906,33.4974 15.3688,33.4063 C15.4469,33.3151 15.5055,33.2435 15.5445,33.1914 C15.5836,33.1393 15.8766,32.7943 16.4234,32.1563 C16.5537,32.0261 16.6806,31.8861 16.8043,31.7364 C16.928,31.5866 17.0289,31.4694 17.107,31.3848 C17.1852,31.3002 17.2438,31.2383 17.2828,31.1992 C16.8141,29.6498 16.5211,28.4128 16.4039,27.4883 C16.3128,26.7461 16.2672,25.7305 16.2672,24.4414 C16.2672,23.3086 16.5276,22.2474 17.0484,21.2578 C17.5563,20.2292 18.2659,19.3893 19.1774,18.7383 C19.2425,18.6992 19.3076,18.6797 19.3727,18.6797 C19.4638,18.6797 19.5289,18.6992 19.568,18.7383 C20.2711,19.5847 20.8766,20.6849 21.3844,22.0391 C21.9052,23.3933 22.1656,24.6237 22.1656,25.7305 C22.1656,26.9805 21.8662,28.1524 21.2672,29.2461 C20.5901,30.405 19.7177,31.6029 18.65,32.8399 C18.9234,33.6992 19.288,35.0469 19.7438,36.8828 M21.4039,45.9649 C22.081,45.7175 22.6083,45.2943 22.9859,44.6953 C23.4026,44.1224 23.6109,43.4779 23.6109,42.7617 C23.6109,41.8373 23.2984,41.017 22.6734,40.3008 C22.0354,39.5586 21.2216,39.142 20.232,39.0508 C20.7919,41.7982 21.1826,44.1029 21.4039,45.9649 M13.8453,41.4532 C13.8453,42.7422 14.3662,43.875 15.4078,44.8516 C16.4755,45.8021 17.6734,46.2774 19.0016,46.2774 C19.5484,46.2774 20.0823,46.2383 20.6031,46.1602 C20.3948,44.181 19.9846,41.8112 19.3727,39.0508 C18.6305,39.1289 18.038,39.3893 17.5953,39.8321 C17.1656,40.2878 16.9508,40.8021 16.9508,41.375 C16.9508,42.3646 17.4781,43.1654 18.5328,43.7774 C18.624,43.8685 18.6695,43.9662 18.6695,44.0703 C18.6695,44.1745 18.624,44.2722 18.5328,44.3633 C18.4547,44.4545 18.357,44.5 18.2399,44.5 C18.2268,44.5 18.1682,44.487 18.0641,44.461 C17.3219,44.0573 16.749,43.5365 16.3453,42.8985 C15.9677,42.2214 15.7789,41.5378 15.7789,40.8477 C15.7789,39.9492 16.0589,39.1354 16.6188,38.4063 C17.2047,37.6771 17.9664,37.2084 18.9039,37 C18.5393,35.5417 18.2399,34.4024 18.0055,33.5821 C17.7971,33.8164 17.5465,34.0996 17.2535,34.4317 C16.9606,34.7637 16.788,34.9623 16.7359,35.0274 C16.2672,35.6393 15.9091,36.1146 15.6617,36.4532 C15.219,37.0651 14.8935,37.5925 14.6852,38.0352 C14.4638,38.53 14.2685,39.0703 14.0992,39.6563 C13.93,40.2162 13.8453,40.8151 13.8453,41.4532 M20.3688,21.5899 C19.3922,22.0716 18.624,22.7617 18.0641,23.6602 C17.4912,24.5847 17.2047,25.5808 17.2047,26.6485 C17.2047,27.586 17.4391,28.849 17.9078,30.4375 C18.8453,29.3047 19.5484,28.2565 20.0172,27.293 C20.512,26.2774 20.7594,25.2162 20.7594,24.1094 C20.7594,23.2761 20.6292,22.4362 20.3688,21.5899"/>
<path class="TimeSig" d="M37.4641,216.453 C37.1255,216.453 36.787,216.323 36.4485,216.063 C36.1229,215.815 35.9602,215.451 35.9602,214.969 C35.9602,214.565 36.0969,214.207 36.3703,213.895 C36.6307,213.582 36.9758,213.426 37.4055,213.426 C37.5487,213.426 37.6399,213.432 37.6789,213.445 C37.08,212.677 36.2792,212.28 35.2766,212.254 C34.5214,212.254 33.9485,212.469 33.5578,212.899 C33.4276,213.068 33.3104,213.341 33.2063,213.719 C33.1021,214.096 33.05,214.435 33.05,214.735 C33.024,214.943 33.011,215.36 33.011,215.985 L33.011,218.016 C33.011,218.641 33.024,219.064 33.05,219.285 C33.1021,220.132 33.2714,220.737 33.5578,221.102 C33.9615,221.544 34.5344,221.766 35.2766,221.766 C36.0578,221.766 36.7219,221.479 37.2688,220.906 C37.8287,220.346 38.2193,219.624 38.4406,218.738 C38.4797,218.608 38.5578,218.543 38.675,218.543 C38.8443,218.543 38.9289,218.621 38.9289,218.777 C38.9289,218.869 38.8899,219.044 38.8117,219.305 C38.6294,219.891 38.2714,220.509 37.7375,221.16 C37.0995,221.889 36.2792,222.254 35.2766,222.254 C34.6906,222.254 34.0917,222.169 33.4797,222 C32.8807,221.792 32.3534,221.505 31.8977,221.141 C31.3899,220.737 30.9927,220.19 30.7063,219.5 C30.4198,218.745 30.2766,217.912 30.2766,217 C30.2766,215.412 30.7063,214.149 31.5656,213.211 C32.399,212.248 33.636,211.766 35.2766,211.766 C36.3443,211.766 37.1906,212.13 37.8156,212.86 C38.4667,213.589 38.7922,214.311 38.7922,215.027 C38.7922,215.444 38.662,215.783 38.4016,216.043 C38.1672,216.317 37.8547,216.453 37.4641,216.453"/>
<path class="TimeSig" d="M37.4641,163.953 C37.1255,163.953 36.787,163.823 36.4485,163.563 C36.1229,163.315 35.9602,162.951 35.9602,162.469 C35.9602,162.065 36.0969,161.707 36.3703,161.395 C36.6307,161.082 36.9758,160.926 37.4055,160.926 C37.5487,160.926 37.6399,160.932 37.6789,160.945 C37.08,160.177 36.2792,159.78 35.2766,159.754 C34.5214,159.754 33.9485,159.969 33.5578,160.399 C33.4276,160.568 33.3104,160.841 33.2063,161.219 C33.1021,161.596 33.05,161.935 33.05,162.234 C33.024,162.443 33.011,162.859 33.011,163.484 L33.011,165.516 C33.011,166.141 33.024,166.564 33.05,166.785 C33.1021,167.632 33.2714,168.237 33.5578,168.602 C33.9615,169.044 34.5344,169.266 35.2766,169.266 C36.0578,169.266 36.7219,168.979 37.2688,168.406 C37.8287,167.846 38.2193,167.124 38.4406,166.238 C38.4797,166.108 38.5578,166.043 38.675,166.043 C38.8443,166.043 38.9289,166.121 38.9289,166.277 C38.9289,166.369 38.8899,166.544 38.8117,166.805 C38.6294,167.391 38.2714,168.009 37.7375,168.66 C37.0995,169.389 36.2792,169.754 35.2766,169.754 C34.6906,169.754 34.0917,169.669 33.4797,169.5 C32.8807,169.292 32.3534,169.005 31.8977,168.641 C31.3899,168.237 30.9927,167.69 30.7063,167 C30.4198,166.245 30.2766,165.412 30.2766,164.5 C30.2766,162.912 30.7063,161.649 31.5656,160.711 C32.399,159.747 33.636,159.266 35.2766,159.266 C36.3443,159.266 37.1906,159.63 37.8156,160.359 C38.4667,161.089 38.7922,161.811 38.7922,162.527 C38.7922,162.944 38.662,163.283 38.4016,163.543 C38.1672,163.817 37.8547,163.953 37.4641,163.953"/>
<path class="TimeSig" d="M35.2406,89.5001 C34.85,89.5001 34.4985,89.4284 34.186,89.2852 C33.8735,89.142 33.6521,88.9922 33.5219,88.836 C33.3526,88.6407 33.1834,88.4909 33.0141,88.3868 C32.8057,88.2435 32.5909,88.1719 32.3696,88.1719 C32.031,88.1719 31.7511,88.2761 31.5297,88.4844 C31.2953,88.6797 31.1651,88.9467 31.1391,89.2852 C31.113,89.4284 31.0349,89.5001 30.9047,89.5001 C30.7485,89.5001 30.6703,89.4284 30.6703,89.2852 C30.6703,88.7774 30.7875,88.3217 31.0219,87.918 C31.2563,87.5014 31.5427,87.1563 31.8813,86.8829 C32.1677,86.6355 32.5453,86.336 33.0141,85.9844 C33.0922,85.9193 33.2582,85.7826 33.5121,85.5743 C33.766,85.3659 33.9776,85.1902 34.1469,85.0469 C34.4854,84.7605 34.7784,84.3829 35.0258,83.9141 C35.2602,83.4454 35.3774,82.9376 35.3774,82.3907 C35.3774,81.7266 35.2667,81.1537 35.0453,80.6719 C34.811,80.2032 34.4529,79.9688 33.9711,79.9688 C33.6716,79.9688 33.4307,80.0339 33.2485,80.1641 C33.0531,80.2943 32.9555,80.4701 32.9555,80.6915 C32.9555,80.8738 33.0727,81.1016 33.3071,81.3751 C33.5414,81.6485 33.6586,81.8764 33.6586,82.0586 C33.6586,82.4493 33.5219,82.7813 33.2485,83.0547 C32.988,83.3152 32.669,83.4454 32.2914,83.4454 C31.9008,83.4454 31.5688,83.3086 31.2953,83.0352 C31.0349,82.7488 30.9047,82.4232 30.9047,82.0586 C30.9047,81.3165 31.2042,80.7045 31.8031,80.2227 C32.4021,79.7409 33.1248,79.5001 33.9711,79.5001 C34.9737,79.5001 35.8461,79.7735 36.5883,80.3204 C37.3305,80.8412 37.7016,81.5313 37.7016,82.3907 C37.7016,82.9766 37.5974,83.4779 37.3891,83.8946 C37.1938,84.3373 36.9008,84.6823 36.5102,84.9297 C36.0675,85.2162 35.6834,85.4376 35.3578,85.5938 C34.9021,85.8021 34.4464,85.9974 33.9906,86.1797 C33.4438,86.4011 33.0206,86.6094 32.7211,86.8047 C32.8904,86.7657 33.0662,86.7461 33.2485,86.7461 C33.8474,86.7461 34.4724,86.9415 35.1235,87.3321 C35.7875,87.7227 36.3018,87.918 36.6664,87.918 C36.8878,87.918 37.0636,87.879 37.1938,87.8008 C37.324,87.7227 37.4086,87.6381 37.4477,87.5469 C37.4998,87.4167 37.5453,87.3256 37.5844,87.2735 C37.6365,87.1954 37.7016,87.1563 37.7797,87.1563 C37.936,87.1563 38.0141,87.2344 38.0141,87.3907 C38.0141,87.7553 37.7537,88.198 37.2328,88.7188 C36.725,89.2396 36.061,89.5001 35.2406,89.5001"/>
<path class="TimeSig" d="M34.8188,89.754 C35.2094,89.754 35.5414,89.7084 35.8149,89.6172 C36.0883,89.5261 36.2641,89.4805 36.3422,89.4805 C36.4334,89.4805 36.505,89.5066 36.5571,89.5587 C36.5961,89.5977 36.6222,89.6433 36.6352,89.6954 C36.6352,89.7214 36.6222,89.7605 36.5961,89.8126 L30.9125,96.4141 L34.2524,96.4141 L34.2524,93.7969 C34.2524,93.6277 34.2979,93.4844 34.3891,93.3672 C34.5453,93.237 34.6755,93.1589 34.7797,93.1329 C34.949,93.0547 35.1573,92.8725 35.4047,92.586 C35.613,92.3516 35.8604,91.9415 36.1469,91.3555 C36.186,91.2774 36.2446,91.2383 36.3227,91.2383 C36.4789,91.2383 36.5701,91.3295 36.5961,91.5118 L36.5961,96.4141 L38.0219,96.4141 C38.2042,96.4141 38.3084,96.5118 38.3344,96.7071 C38.3344,96.9024 38.2302,97.0001 38.0219,97.0001 L36.5961,97.0001 L36.5961,97.1563 C36.5961,97.6771 36.7263,98.1199 36.9867,98.4844 C37.2862,98.849 37.6378,99.0313 38.0414,99.0313 C38.1977,99.0313 38.2758,99.1094 38.2758,99.2657 C38.2758,99.4219 38.1977,99.5001 38.0414,99.5001 C37.768,99.5001 37.3253,99.461 36.7133,99.3829 C36.1534,99.2917 35.7172,99.2462 35.4047,99.2462 C35.0792,99.2462 34.643,99.2917 34.0961,99.3829 C33.5102,99.461 33.074,99.5001 32.7875,99.5001 C32.6313,99.5001 32.5531,99.4219 32.5531,99.2657 C32.5531,99.1094 32.6313,99.0313 32.7875,99.0313 C33.1912,99.0313 33.5427,98.849 33.8422,98.4844 C34.1156,98.1199 34.2524,97.6771 34.2524,97.1563 L34.2524,97.0001 L30.9125,97.0001 C30.6912,97.0001 30.5349,96.948 30.4438,96.8438 C30.3396,96.7657 30.2875,96.6615 30.2875,96.5313 C30.2875,96.4922 30.3852,96.3555 30.5805,96.1212 C30.8018,95.8607 31.0362,95.5417 31.2836,95.1641 C31.5701,94.7214 31.8435,94.2657 32.1039,93.7969 C32.3904,93.2631 32.6182,92.6511 32.7875,91.961 C32.9828,91.2579 33.0805,90.5417 33.0805,89.8126 C33.0805,89.6042 33.1716,89.5001 33.3539,89.5001 C33.393,89.5001 33.4776,89.5196 33.6078,89.5587 C33.6469,89.5717 33.7283,89.5912 33.852,89.6172 C33.9757,89.6433 34.0766,89.6693 34.1547,89.6954 C34.3891,89.7344 34.6104,89.754 34.8188,89.754"/>
<path class="TimeSig" d="M35.2406,37 C34.85,37 34.4985,36.9284 34.186,36.7852 C33.8735,36.6419 33.6521,36.4922 33.5219,36.336 C33.3526,36.1406 33.1834,35.9909 33.0141,35.8867 C32.8057,35.7435 32.5909,35.6719 32.3696,35.6719 C32.031,35.6719 31.7511,35.7761 31.5297,35.9844 C31.2953,36.1797 31.1651,36.4466 31.1391,36.7852 C31.113,36.9284 31.0349,37 30.9047,37 C30.7485,37 30.6703,36.9284 30.6703,36.7852 C30.6703,36.2774 30.7875,35.8216 31.0219,35.418 C31.2563,35.0013 31.5427,34.6563 31.8813,34.3828 C32.1677,34.1354 32.5453,33.836 33.0141,33.4844 C33.0922,33.4193 33.2582,33.2826 33.5121,33.0742 C33.766,32.8659 33.9776,32.6901 34.1469,32.5469 C34.4854,32.2604 34.7784,31.8828 35.0258,31.4141 C35.2602,30.9453 35.3774,30.4375 35.3774,29.8906 C35.3774,29.2266 35.2667,28.6537 35.0453,28.1719 C34.811,27.7031 34.4529,27.4688 33.9711,27.4688 C33.6716,27.4688 33.4307,27.5339 33.2485,27.6641 C33.0531,27.7943 32.9555,27.9701 32.9555,28.1914 C32.9555,28.3737 33.0727,28.6016 33.3071,28.875 C33.5414,29.1485 33.6586,29.3763 33.6586,29.5586 C33.6586,29.9492 33.5219,30.2813 33.2485,30.5547 C32.988,30.8151 32.669,30.9453 32.2914,30.9453 C31.9008,30.9453 31.5688,30.8086 31.2953,30.5352 C31.0349,30.2487 30.9047,29.9232 30.9047,29.5586 C30.9047,28.8164 31.2042,28.2044 31.8031,27.7227 C32.4021,27.2409 33.1248,27 33.9711,27 C34.9737,27 35.8461,27.2735 36.5883,27.8203 C37.3305,28.3412 37.7016,29.0313 37.7016,29.8906 C37.7016,30.4766 37.5974,30.9779 37.3891,31.3946 C37.1938,31.8373 36.9008,32.1823 36.5102,32.4297 C36.0675,32.7162 35.6834,32.9375 35.3578,33.0938 C34.9021,33.3021 34.4464,33.4974 33.9906,33.6797 C33.4438,33.9011 33.0206,34.1094 32.7211,34.3047 C32.8904,34.2656 33.0662,34.2461 33.2485,34.2461 C33.8474,34.2461 34.4724,34.4414 35.1235,34.8321 C35.7875,35.2227 36.3018,35.418 36.6664,35.418 C36.8878,35.418 37.0636,35.3789 37.1938,35.3008 C37.324,35.2227 37.4086,35.138 37.4477,35.0469 C37.4998,34.9167 37.5453,34.8255 37.5844,34.7735 C37.6365,34.6953 37.7016,34.6563 37.7797,34.6563 C37.936,34.6563 38.0141,34.7344 38.0141,34.8906 C38.0141,35.2552 37.7537,35.6979 37.2328,36.2188 C36.725,36.7396 36.061,37 35.2406,37"/>
<path class="TimeSig" d="M34.8188,37.2539 C35.2094,37.2539 35.5414,37.2084 35.8149,37.1172 C36.0883,37.0261 36.2641,36.9805 36.3422,36.9805 C36.4334,36.9805 36.505,37.0065 36.5571,37.0586 C36.5961,37.0977 36.6222,37.1433 36.6352,37.1953 C36.6352,37.2214 36.6222,37.2604 36.5961,37.3125 L30.9125,43.9141 L34.2524,43.9141 L34.2524,41.2969 C34.2524,41.1276 34.2979,40.9844 34.3891,40.8672 C34.5453,40.737 34.6755,40.6589 34.7797,40.6328 C34.949,40.5547 35.1573,40.3724 35.4047,40.086 C35.613,39.8516 35.8604,39.4414 36.1469,38.8555 C36.186,38.7774 36.2446,38.7383 36.3227,38.7383 C36.4789,38.7383 36.5701,38.8295 36.5961,39.0117 L36.5961,43.9141 L38.0219,43.9141 C38.2042,43.9141 38.3084,44.0117 38.3344,44.2071 C38.3344,44.4024 38.2302,44.5 38.0219,44.5 L36.5961,44.5 L36.5961,44.6563 C36.5961,45.1771 36.7263,45.6198 36.9867,45.9844 C37.2862,46.349 37.6378,46.5313 38.0414,46.5313 C38.1977,46.5313 38.2758,46.6094 38.2758,46.7657 C38.2758,46.9219 38.1977,47 38.0414,47 C37.768,47 37.3253,46.961 36.7133,46.8828 C36.1534,46.7917 35.7172,46.7461 35.4047,46.7461 C35.0792,46.7461 34.643,46.7917 34.0961,46.8828 C33.5102,46.961 33.074,47 32.7875,47 C32.6313,47 32.5531,46.9219 32.5531,46.7657 C32.5531,46.6094 32.6313,46.5313 32.7875,46.5313 C33.1912,46.5313 33.5427,46.349 33.8422,45.9844 C34.1156,45.6198 34.2524,45.1771 34.2524,44.6563 L34.2524,44.5 L30.9125,44.5 C30.6912,44.5 30.5349,44.4479 30.4438,44.3438 C30.3396,44.2657 30.2875,44.1615 30.2875,44.0313 C30.2875,43.9922 30.3852,43.8555 30.5805,43.6211 C30.8018,43.3607 31.0362,43.0417 31.2836,42.6641 C31.5701,42.2214 31.8435,41.7657 32.1039,41.2969 C32.3904,40.763 32.6182,40.1511 32.7875,39.461 C32.9828,38.7578 33.0805,38.0417 33.0805,37.3125 C33.0805,37.1042 33.1716,37 33.3539,37 C33.393,37 33.4776,37.0196 33.6078,37.0586 C33.6469,37.0716 33.7283,37.0912 33.852,37.1172 C33.9757,37.1433 34.0766,37.1693 34.1547,37.1953 C34.3891,37.2344 34.6104,37.2539 34.8188,37.2539"/>
<path class="StaffText" d="M57.4858,138.73 C57.5191,138.577 57.5525,138.443 57.5858,138.33 C57.6191,138.217 57.6908,138.052 57.8008,137.835 C57.9108,137.618 58.0341,137.438 58.1708,137.295 C58.3075,137.152 58.4975,137.023 58.7408,136.91 C58.9841,136.797 59.2591,136.74 59.5658,136.74 C60.0858,136.74 60.5241,136.91 60.8808,137.25 C61.2375,137.59 61.4158,138.01 61.4158,138.51 C61.4158,139.263 60.9891,140.087 60.1358,140.98 L58.4558,142.74 L60.8458,142.74 C61.0725,142.74 61.2408,142.702 61.3508,142.625 C61.4608,142.548 61.6091,142.367 61.7958,142.08 L61.9258,142.13 L61.3758,143.5 L57.4758,143.5 L57.4758,143.38 L59.2558,141.49 C60.1225,140.57 60.5558,139.703 60.5558,138.89 C60.5558,138.47 60.4258,138.13 60.1658,137.87 C59.9058,137.61 59.5658,137.48 59.1458,137.48 C58.7991,137.48 58.5208,137.575 58.3108,137.765 C58.1008,137.955 57.8958,138.293 57.6958,138.78 L57.4858,138.73 M64.9258,142.53 C64.9258,142.41 64.9391,142.298 64.9658,142.195 C64.9925,142.092 65.0391,141.995 65.1058,141.905 C65.1725,141.815 65.2358,141.733 65.2958,141.66 C65.3558,141.587 65.4458,141.512 65.5658,141.435 C65.6858,141.358 65.7858,141.295 65.8658,141.245 C65.9458,141.195 66.0675,141.135 66.2308,141.065 C66.3941,140.995 66.5191,140.942 66.6058,140.905 C66.6925,140.868 66.8291,140.813 67.0158,140.74 C67.2025,140.667 67.3391,140.613 67.4258,140.58 L67.4258,139.97 C67.4258,139.417 67.1725,139.14 66.6658,139.14 C66.4658,139.14 66.2958,139.188 66.1558,139.285 C66.0158,139.382 65.9458,139.497 65.9458,139.63 C65.9458,139.683 65.9541,139.757 65.9708,139.85 C65.9875,139.943 65.9958,140.003 65.9958,140.03 C65.9958,140.143 65.9508,140.242 65.8608,140.325 C65.7708,140.408 65.6658,140.45 65.5458,140.45 C65.4325,140.45 65.3325,140.407 65.2458,140.32 C65.1591,140.233 65.1158,140.133 65.1158,140.02 C65.1158,139.707 65.2775,139.442 65.6008,139.225 C65.9241,139.008 66.3225,138.9 66.7958,138.9 C67.3425,138.9 67.7191,139.032 67.9258,139.295 C68.1325,139.558 68.2358,139.96 68.2358,140.5 L68.2358,142.45 C68.2358,142.67 68.2575,142.822 68.3008,142.905 C68.3441,142.988 68.4225,143.03 68.5358,143.03 C68.6758,143.03 68.8225,142.967 68.9758,142.84 L68.9758,143.1 C68.8025,143.293 68.6508,143.425 68.5208,143.495 C68.3908,143.565 68.2425,143.6 68.0758,143.6 C67.8691,143.6 67.7175,143.543 67.6208,143.43 C67.5241,143.317 67.4625,143.13 67.4358,142.87 C66.8625,143.357 66.3758,143.6 65.9758,143.6 C65.6691,143.6 65.4175,143.5 65.2208,143.3 C65.0241,143.1 64.9258,142.843 64.9258,142.53 M67.4258,142.27 L67.4258,140.82 C66.8258,141.04 66.4058,141.253 66.1658,141.46 C65.9258,141.667 65.8058,141.917 65.8058,142.21 C65.8058,142.483 65.8725,142.687 66.0058,142.82 C66.1391,142.953 66.2825,143.02 66.4358,143.02 C66.6625,143.02 66.9058,142.943 67.1658,142.79 C67.2725,142.73 67.3425,142.667 67.3758,142.6 C67.4091,142.533 67.4258,142.423 67.4258,142.27 M69.1196,137.27 L69.1196,137.11 C69.6862,136.97 70.2029,136.823 70.6696,136.67 L70.7096,136.69 L70.7096,140.89 L72.0796,139.67 C72.2329,139.537 72.3096,139.423 72.3096,139.33 C72.3096,139.263 72.2746,139.217 72.2046,139.19 C72.1346,139.163 72.0029,139.147 71.8096,139.14 L71.8096,139 L73.8496,139 L73.8496,139.15 C73.6962,139.15 73.5746,139.158 73.4846,139.175 C73.3946,139.192 73.2662,139.237 73.0996,139.31 C72.9329,139.383 72.7379,139.51 72.5146,139.69 C72.2912,139.87 72.0162,140.11 71.6896,140.41 L71.3996,140.68 L72.9296,142.62 C73.1362,142.873 73.3279,143.055 73.5046,143.165 C73.6812,143.275 73.8796,143.337 74.0996,143.35 L74.0996,143.5 L71.9196,143.5 L71.9196,143.35 C72.1862,143.35 72.3196,143.3 72.3196,143.2 C72.3196,143.173 72.3096,143.142 72.2896,143.105 C72.2696,143.068 72.2379,143.025 72.1946,142.975 C72.1512,142.925 72.1229,142.887 72.1096,142.86 L70.7096,140.99 L70.7096,142.7 C70.7096,142.94 70.7479,143.093 70.8246,143.16 C70.9012,143.227 71.1129,143.29 71.4596,143.35 L71.4596,143.5 L69.1196,143.5 L69.1196,143.35 C69.4796,143.29 69.6946,143.228 69.7646,143.165 C69.8346,143.102 69.8696,142.94 69.8696,142.68 L69.8696,137.86 C69.8696,137.62 69.8396,137.458 69.7796,137.375 C69.7196,137.292 69.6062,137.25 69.4396,137.25 C69.3462,137.25 69.2396,137.257 69.1196,137.27 M74.2446,137.27 L74.2446,137.11 C74.8112,136.97 75.3279,136.823 75.7946,136.67 L75.8346,136.69 L75.8346,140.89 L77.2046,139.67 C77.3579,139.537 77.4346,139.423 77.4346,139.33 C77.4346,139.263 77.3996,139.217 77.3296,139.19 C77.2596,139.163 77.1279,139.147 76.9346,139.14 L76.9346,139 L78.9746,139 L78.9746,139.15 C78.8212,139.15 78.6996,139.158 78.6096,139.175 C78.5196,139.192 78.3912,139.237 78.2246,139.31 C78.0579,139.383 77.8629,139.51 77.6396,139.69 C77.4162,139.87 77.1412,140.11 76.8146,140.41 L76.5246,140.68 L78.0546,142.62 C78.2612,142.873 78.4529,143.055 78.6296,143.165 C78.8062,143.275 79.0046,143.337 79.2246,143.35 L79.2246,143.5 L77.0446,143.5 L77.0446,143.35 C77.3112,143.35 77.4446,143.3 77.4446,143.2 C77.4446,143.173 77.4346,143.142 77.4146,143.105 C77.3946,143.068 77.3629,143.025 77.3196,142.975 C77.2762,142.925 77.2479,142.887 77.2346,142.86 L75.8346,140.99 L75.8346,142.7 C75.8346,142.94 75.8729,143.093 75.9496,143.16 C76.0262,143.227 76.2379,143.29 76.5846,143.35 L76.5846,143.5 L74.2446,143.5 L74.2446,143.35 C74.6046,143.29 74.8196,143.228 74.8896,143.165 C74.9596,143.102 74.9946,142.94 74.9946,142.68 L74.9946,137.86 C74.9946,137.62 74.9646,137.458 74.9046,137.375 C74.8446,137.292 74.7312,137.25 74.5646,137.25 C74.4712,137.25 74.3646,137.257 74.2446,137.27 M81.7296,138.9 C82.3696,138.9 82.8962,139.113 83.3096,139.54 C83.7229,139.967 83.9296,140.507 83.9296,141.16 C83.9296,141.853 83.7162,142.433 83.2896,142.9 C82.8629,143.367 82.3362,143.6 81.7096,143.6 C81.0829,143.6 80.5612,143.375 80.1446,142.925 C79.7279,142.475 79.5196,141.913 79.5196,141.24 C79.5196,140.553 79.7246,139.992 80.1346,139.555 C80.5446,139.118 81.0762,138.9 81.7296,138.9 M80.4196,140.75 C80.4196,141.463 80.5496,142.07 80.8096,142.57 C81.0696,143.07 81.4096,143.32 81.8296,143.32 C82.2029,143.32 82.4962,143.16 82.7096,142.84 C82.9229,142.52 83.0296,142.077 83.0296,141.51 C83.0296,140.823 82.8962,140.263 82.6296,139.83 C82.3629,139.397 82.0196,139.18 81.5996,139.18 C81.2462,139.18 80.9612,139.323 80.7446,139.61 C80.5279,139.897 80.4196,140.277 80.4196,140.75 M87.1858,139.88 C87.0858,139.88 86.9625,139.822 86.8158,139.705 C86.6691,139.588 86.5725,139.53 86.5258,139.53 C86.3925,139.53 86.2425,139.627 86.0758,139.82 C85.9091,140.013 85.8258,140.19 85.8258,140.35 L85.8258,142.6 C85.8258,142.887 85.8825,143.08 85.9958,143.18 C86.1091,143.28 86.3358,143.337 86.6758,143.35 L86.6758,143.5 L84.2758,143.5 L84.2758,143.35 C84.5958,143.29 84.7941,143.223 84.8708,143.15 C84.9475,143.077 84.9858,142.913 84.9858,142.66 L84.9858,140.16 C84.9858,139.94 84.9608,139.785 84.9108,139.695 C84.8608,139.605 84.7725,139.56 84.6458,139.56 C84.5391,139.56 84.4225,139.573 84.2958,139.6 L84.2958,139.44 C84.8291,139.267 85.3225,139.087 85.7758,138.9 L85.8258,138.92 L85.8258,139.84 C86.0725,139.487 86.2825,139.242 86.4558,139.105 C86.6291,138.968 86.8191,138.9 87.0258,138.9 C87.1991,138.9 87.3341,138.947 87.4308,139.04 C87.5275,139.133 87.5758,139.263 87.5758,139.43 C87.5758,139.57 87.5408,139.68 87.4708,139.76 C87.4008,139.84 87.3058,139.88 87.1858,139.88 M91.0333,143.6 L90.9933,143.57 L90.9933,142.93 C90.6733,143.377 90.2466,143.6 89.7133,143.6 C89.16,143.6 88.7133,143.402 88.3733,143.005 C88.0333,142.608 87.8633,142.09 87.8633,141.45 C87.8633,140.743 88.0666,140.142 88.4733,139.645 C88.88,139.148 89.37,138.9 89.9433,138.9 C90.3033,138.9 90.6533,139.043 90.9933,139.33 L90.9933,137.77 C90.9933,137.563 90.9633,137.427 90.9033,137.36 C90.8433,137.293 90.72,137.26 90.5333,137.26 C90.44,137.26 90.3666,137.263 90.3133,137.27 L90.3133,137.11 C90.92,136.95 91.41,136.803 91.7833,136.67 L91.8333,136.69 L91.8333,142.36 C91.8333,142.593 91.8616,142.747 91.9183,142.82 C91.975,142.893 92.0933,142.93 92.2733,142.93 C92.3066,142.93 92.3833,142.927 92.5033,142.92 L92.5033,143.08 L91.0333,143.6 M90.1033,143.08 C90.3566,143.08 90.5683,143.008 90.7383,142.865 C90.9083,142.722 90.9933,142.593 90.9933,142.48 L90.9933,140.18 C90.9933,139.913 90.89,139.68 90.6833,139.48 C90.4766,139.28 90.24,139.18 89.9733,139.18 C89.5933,139.18 89.29,139.35 89.0633,139.69 C88.8366,140.03 88.7233,140.483 88.7233,141.05 C88.7233,141.663 88.85,142.155 89.1033,142.525 C89.3566,142.895 89.69,143.08 90.1033,143.08 M95.0577,138.9 C95.6977,138.9 96.2244,139.113 96.6377,139.54 C97.051,139.967 97.2577,140.507 97.2577,141.16 C97.2577,141.853 97.0444,142.433 96.6177,142.9 C96.191,143.367 95.6644,143.6 95.0377,143.6 C94.411,143.6 93.8894,143.375 93.4727,142.925 C93.056,142.475 92.8477,141.913 92.8477,141.24 C92.8477,140.553 93.0527,139.992 93.4627,139.555 C93.8727,139.118 94.4044,138.9 95.0577,138.9 M93.7477,140.75 C93.7477,141.463 93.8777,142.07 94.1377,142.57 C94.3977,143.07 94.7377,143.32 95.1577,143.32 C95.531,143.32 95.8244,143.16 96.0377,142.84 C96.251,142.52 96.3577,142.077 96.3577,141.51 C96.3577,140.823 96.2244,140.263 95.9577,139.83 C95.691,139.397 95.3477,139.18 94.9277,139.18 C94.5744,139.18 94.2894,139.323 94.0727,139.61 C93.856,139.897 93.7477,140.277 93.7477,140.75 M97.6039,139.52 L97.6039,139.35 C98.0973,139.203 98.5573,139.053 98.9839,138.9 L99.0539,138.92 L99.0539,139.71 C99.3939,139.39 99.6623,139.175 99.8589,139.065 C100.056,138.955 100.271,138.9 100.504,138.9 C100.871,138.9 101.159,139.032 101.369,139.295 C101.579,139.558 101.684,139.927 101.684,140.4 L101.684,142.69 C101.684,142.937 101.724,143.102 101.804,143.185 C101.884,143.268 102.047,143.323 102.294,143.35 L102.294,143.5 L100.214,143.5 L100.214,143.35 C100.467,143.33 100.636,143.263 100.719,143.15 C100.802,143.037 100.844,142.823 100.844,142.51 L100.844,140.42 C100.844,139.773 100.601,139.45 100.114,139.45 C99.9473,139.45 99.7939,139.488 99.6539,139.565 C99.5139,139.642 99.3239,139.793 99.0839,140.02 L99.0839,142.83 C99.0839,143.01 99.1306,143.137 99.2239,143.21 C99.3173,143.283 99.4906,143.33 99.7439,143.35 L99.7439,143.5 L97.6239,143.5 L97.6239,143.35 C97.8773,143.33 98.0439,143.272 98.1239,143.175 C98.2039,143.078 98.2439,142.887 98.2439,142.6 L98.2439,140.12 C98.2439,139.873 98.2173,139.705 98.1639,139.615 C98.1106,139.525 98.0139,139.48 97.8739,139.48 C97.7473,139.48 97.6573,139.493 97.6039,139.52 M102.479,137.27 L102.479,137.11 C103.046,136.97 103.562,136.823 104.029,136.67 L104.069,136.69 L104.069,140.89 L105.439,139.67 C105.592,139.537 105.669,139.423 105.669,139.33 C105.669,139.263 105.634,139.217 105.564,139.19 C105.494,139.163 105.362,139.147 105.169,139.14 L105.169,139 L107.209,139 L107.209,139.15 C107.056,139.15 106.934,139.158 106.844,139.175 C106.754,139.192 106.626,139.237 106.459,139.31 C106.292,139.383 106.097,139.51 105.874,139.69 C105.651,139.87 105.376,140.11 105.049,140.41 L104.759,140.68 L106.289,142.62 C106.496,142.873 106.687,143.055 106.864,143.165 C107.041,143.275 107.239,143.337 107.459,143.35 L107.459,143.5 L105.279,143.5 L105.279,143.35 C105.546,143.35 105.679,143.3 105.679,143.2 C105.679,143.173 105.669,143.142 105.649,143.105 C105.629,143.068 105.597,143.025 105.554,142.975 C105.511,142.925 105.482,142.887 105.469,142.86 L104.069,140.99 L104.069,142.7 C104.069,142.94 104.107,143.093 104.184,143.16 C104.261,143.227 104.472,143.29 104.819,143.35 L104.819,143.5 L102.479,143.5 L102.479,143.35 C102.839,143.29 103.054,143.228 103.124,143.165 C103.194,143.102 103.229,142.94 103.229,142.68 L103.229,137.86 C103.229,137.62 103.199,137.458 103.139,137.375 C103.079,137.292 102.966,137.25 102.799,137.25 C102.706,137.25 102.599,137.257 102.479,137.27 M109.444,138.45 L109.044,138.45 L110.514,136.97 C110.667,136.817 110.807,136.74 110.934,136.74 C111.167,136.74 111.284,136.847 111.284,137.06 C111.284,137.213 111.184,137.353 110.984,137.48 L109.444,138.45 M108.474,140.73 C108.487,141.15 108.544,141.512 108.644,141.815 C108.744,142.118 108.874,142.345 109.034,142.495 C109.194,142.645 109.356,142.752 109.519,142.815 C109.682,142.878 109.854,142.91 110.034,142.91 C110.354,142.91 110.632,142.83 110.869,142.67 C111.106,142.51 111.344,142.24 111.584,141.86 L111.744,141.93 C111.537,142.47 111.251,142.883 110.884,143.17 C110.517,143.457 110.097,143.6 109.624,143.6 C109.051,143.6 108.596,143.398 108.259,142.995 C107.922,142.592 107.754,142.047 107.754,141.36 C107.754,140.62 107.949,140.025 108.339,139.575 C108.729,139.125 109.231,138.9 109.844,138.9 C110.351,138.9 110.744,139.052 111.024,139.355 C111.304,139.658 111.481,140.117 111.554,140.73 L108.474,140.73 M108.494,140.41 L110.534,140.41 C110.467,139.977 110.364,139.677 110.224,139.51 C110.084,139.343 109.861,139.26 109.554,139.26 C108.954,139.26 108.601,139.643 108.494,140.41 M112.041,139.52 L112.041,139.35 C112.535,139.203 112.995,139.053 113.421,138.9 L113.491,138.92 L113.491,139.71 C113.831,139.39 114.1,139.175 114.296,139.065 C114.493,138.955 114.708,138.9 114.941,138.9 C115.308,138.9 115.596,139.032 115.806,139.295 C116.016,139.558 116.121,139.927 116.121,140.4 L116.121,142.69 C116.121,142.937 116.161,143.102 116.241,143.185 C116.321,143.268 116.485,143.323 116.731,143.35 L116.731,143.5 L114.651,143.5 L114.651,143.35 C114.905,143.33 115.073,143.263 115.156,143.15 C115.24,143.037 115.281,142.823 115.281,142.51 L115.281,140.42 C115.281,139.773 115.038,139.45 114.551,139.45 C114.385,139.45 114.231,139.488 114.091,139.565 C113.951,139.642 113.761,139.793 113.521,140.02 L113.521,142.83 C113.521,143.01 113.568,143.137 113.661,143.21 C113.755,143.283 113.928,143.33 114.181,143.35 L114.181,143.5 L112.061,143.5 L112.061,143.35 C112.315,143.33 112.481,143.272 112.561,143.175 C112.641,143.078 112.681,142.887 112.681,142.6 L112.681,140.12 C112.681,139.873 112.655,139.705 112.601,139.615 C112.548,139.525 112.451,139.48 112.311,139.48 C112.185,139.48 112.095,139.493 112.041,139.52 M119.406,139 L119.406,139.32 L118.396,139.32 L118.396,142.18 C118.396,142.493 118.436,142.722 118.516,142.865 C118.596,143.008 118.73,143.08 118.916,143.08 C119.123,143.08 119.323,142.963 119.516,142.73 L119.646,142.84 C119.326,143.347 118.926,143.6 118.446,143.6 C117.853,143.6 117.556,143.177 117.556,142.33 L117.556,139.32 L117.026,139.32 C117,139.3 116.986,139.277 116.986,139.25 C116.986,139.217 116.996,139.19 117.016,139.17 C117.036,139.15 117.075,139.122 117.131,139.085 C117.188,139.048 117.256,138.998 117.336,138.935 C117.416,138.872 117.526,138.757 117.666,138.59 C117.806,138.423 117.96,138.223 118.126,137.99 C118.233,137.837 118.3,137.743 118.326,137.71 C118.373,137.71 118.396,137.753 118.396,137.84 L118.396,139 L119.406,139 M121.005,138.91 C121.158,138.91 121.29,138.967 121.4,139.08 C121.51,139.193 121.565,139.327 121.565,139.48 C121.565,139.627 121.508,139.753 121.395,139.86 C121.281,139.967 121.148,140.02 120.995,140.02 C120.848,140.02 120.721,139.967 120.615,139.86 C120.508,139.753 120.455,139.627 120.455,139.48 C120.455,139.327 120.51,139.193 120.62,139.08 C120.73,138.967 120.858,138.91 121.005,138.91 M121.005,142.5 C121.158,142.5 121.29,142.557 121.4,142.67 C121.51,142.783 121.565,142.917 121.565,143.07 C121.565,143.217 121.508,143.343 121.395,143.45 C121.281,143.557 121.148,143.61 120.995,143.61 C120.848,143.61 120.721,143.557 120.615,143.45 C120.508,143.343 120.455,143.217 120.455,143.07 C120.455,142.917 120.51,142.783 120.62,142.67 C120.73,142.557 120.858,142.5 121.005,142.5"/>
<path class="StaffText" d="M58.4027,10.07 C58.2827,10.07 58.0427,10.1433 57.6827,10.29 L57.6827,10.15 L59.4827,9.24 L59.5627,9.26 L59.5627,15.26 C59.5627,15.5 59.6227,15.6567 59.7427,15.73 C59.8627,15.8033 60.1194,15.8433 60.5127,15.85 L60.5127,16 L57.7527,16 L57.7527,15.85 C58.126,15.8367 58.3777,15.7817 58.5077,15.685 C58.6377,15.5883 58.7027,15.3833 58.7027,15.07 L58.7027,10.54 C58.7027,10.2267 58.6027,10.07 58.4027,10.07 M64.3227,15.03 C64.3227,14.91 64.336,14.7983 64.3627,14.695 C64.3894,14.5917 64.436,14.495 64.5027,14.405 C64.5694,14.315 64.6327,14.2333 64.6927,14.16 C64.7527,14.0867 64.8427,14.0117 64.9627,13.935 C65.0827,13.8583 65.1827,13.795 65.2627,13.745 C65.3427,13.695 65.4644,13.635 65.6277,13.565 C65.791,13.495 65.916,13.4417 66.0027,13.405 C66.0894,13.3683 66.226,13.3133 66.4127,13.24 C66.5994,13.1667 66.736,13.1133 66.8227,13.08 L66.8227,12.47 C66.8227,11.9167 66.5694,11.64 66.0627,11.64 C65.8627,11.64 65.6927,11.6883 65.5527,11.785 C65.4127,11.8817 65.3427,11.9967 65.3427,12.13 C65.3427,12.1833 65.351,12.2567 65.3677,12.35 C65.3844,12.4433 65.3927,12.5033 65.3927,12.53 C65.3927,12.6433 65.3477,12.7417 65.2577,12.825 C65.1677,12.9083 65.0627,12.95 64.9427,12.95 C64.8294,12.95 64.7294,12.9067 64.6427,12.82 C64.556,12.7333 64.5127,12.6333 64.5127,12.52 C64.5127,12.2067 64.6744,11.9417 64.9977,11.725 C65.321,11.5083 65.7194,11.4 66.1927,11.4 C66.7394,11.4 67.116,11.5317 67.3227,11.795 C67.5294,12.0583 67.6327,12.46 67.6327,13 L67.6327,14.95 C67.6327,15.17 67.6544,15.3217 67.6977,15.405 C67.741,15.4883 67.8194,15.53 67.9327,15.53 C68.0727,15.53 68.2194,15.4667 68.3727,15.34 L68.3727,15.6 C68.1994,15.7933 68.0477,15.925 67.9177,15.995 C67.7877,16.065 67.6394,16.1 67.4727,16.1 C67.266,16.1 67.1144,16.0433 67.0177,15.93 C66.921,15.8167 66.8594,15.63 66.8327,15.37 C66.2594,15.8567 65.7727,16.1 65.3727,16.1 C65.066,16.1 64.8144,16 64.6177,15.8 C64.421,15.6 64.3227,15.3433 64.3227,15.03 M66.8227,14.77 L66.8227,13.32 C66.2227,13.54 65.8027,13.7533 65.5627,13.96 C65.3227,14.1667 65.2027,14.4167 65.2027,14.71 C65.2027,14.9833 65.2694,15.1867 65.4027,15.32 C65.536,15.4533 65.6794,15.52 65.8327,15.52 C66.0594,15.52 66.3027,15.4433 66.5627,15.29 C66.6694,15.23 66.7394,15.1667 66.7727,15.1 C66.806,15.0333 66.8227,14.9233 66.8227,14.77 M68.5164,9.77 L68.5164,9.61 C69.0831,9.47 69.5998,9.32334 70.0664,9.17 L70.1064,9.19 L70.1064,13.39 L71.4764,12.17 C71.6298,12.0367 71.7064,11.9233 71.7064,11.83 C71.7064,11.7633 71.6714,11.7167 71.6014,11.69 C71.5314,11.6633 71.3998,11.6467 71.2064,11.64 L71.2064,11.5 L73.2464,11.5 L73.2464,11.65 C73.0931,11.65 72.9714,11.6583 72.8814,11.675 C72.7914,11.6917 72.6631,11.7367 72.4964,11.81 C72.3298,11.8833 72.1348,12.01 71.9114,12.19 C71.6881,12.37 71.4131,12.61 71.0864,12.91 L70.7964,13.18 L72.3264,15.12 C72.5331,15.3733 72.7248,15.555 72.9014,15.665 C73.0781,15.775 73.2764,15.8367 73.4964,15.85 L73.4964,16 L71.3164,16 L71.3164,15.85 C71.5831,15.85 71.7164,15.8 71.7164,15.7 C71.7164,15.6733 71.7064,15.6417 71.6864,15.605 C71.6664,15.5683 71.6348,15.525 71.5914,15.475 C71.5481,15.425 71.5198,15.3867 71.5064,15.36 L70.1064,13.49 L70.1064,15.2 C70.1064,15.44 70.1448,15.5933 70.2214,15.66 C70.2981,15.7267 70.5098,15.79 70.8564,15.85 L70.8564,16 L68.5164,16 L68.5164,15.85 C68.8764,15.79 69.0914,15.7283 69.1614,15.665 C69.2314,15.6017 69.2664,15.44 69.2664,15.18 L69.2664,10.36 C69.2664,10.12 69.2364,9.95834 69.1764,9.875 C69.1164,9.79167 69.0031,9.75 68.8364,9.75 C68.7431,9.75 68.6364,9.75667 68.5164,9.77 M73.6414,9.77 L73.6414,9.61 C74.2081,9.47 74.7248,9.32334 75.1914,9.17 L75.2314,9.19 L75.2314,13.39 L76.6014,12.17 C76.7548,12.0367 76.8314,11.9233 76.8314,11.83 C76.8314,11.7633 76.7964,11.7167 76.7264,11.69 C76.6564,11.6633 76.5248,11.6467 76.3314,11.64 L76.3314,11.5 L78.3714,11.5 L78.3714,11.65 C78.2181,11.65 78.0964,11.6583 78.0064,11.675 C77.9164,11.6917 77.7881,11.7367 77.6214,11.81 C77.4548,11.8833 77.2598,12.01 77.0364,12.19 C76.8131,12.37 76.5381,12.61 76.2114,12.91 L75.9214,13.18 L77.4514,15.12 C77.6581,15.3733 77.8498,15.555 78.0264,15.665 C78.2031,15.775 78.4014,15.8367 78.6214,15.85 L78.6214,16 L76.4414,16 L76.4414,15.85 C76.7081,15.85 76.8414,15.8 76.8414,15.7 C76.8414,15.6733 76.8314,15.6417 76.8114,15.605 C76.7914,15.5683 76.7598,15.525 76.7164,15.475 C76.6731,15.425 76.6448,15.3867 76.6314,15.36 L75.2314,13.49 L75.2314,15.2 C75.2314,15.44 75.2698,15.5933 75.3464,15.66 C75.4231,15.7267 75.6348,15.79 75.9814,15.85 L75.9814,16 L73.6414,16 L73.6414,15.85 C74.0014,15.79 74.2164,15.7283 74.2864,15.665 C74.3564,15.6017 74.3914,15.44 74.3914,15.18 L74.3914,10.36 C74.3914,10.12 74.3614,9.95834 74.3014,9.875 C74.2414,9.79167 74.1281,9.75 73.9614,9.75 C73.8681,9.75 73.7614,9.75667 73.6414,9.77 M81.1264,11.4 C81.7664,11.4 82.2931,11.6133 82.7064,12.04 C83.1198,12.4667 83.3264,13.0067 83.3264,13.66 C83.3264,14.3533 83.1131,14.9333 82.6864,15.4 C82.2598,15.8667 81.7331,16.1 81.1064,16.1 C80.4798,16.1 79.9581,15.875 79.5414,15.425 C79.1248,14.975 78.9164,14.4133 78.9164,13.74 C78.9164,13.0533 79.1214,12.4917 79.5314,12.055 C79.9414,11.6183 80.4731,11.4 81.1264,11.4 M79.8164,13.25 C79.8164,13.9633 79.9464,14.57 80.2064,15.07 C80.4664,15.57 80.8064,15.82 81.2264,15.82 C81.5998,15.82 81.8931,15.66 82.1064,15.34 C82.3198,15.02 82.4264,14.5767 82.4264,14.01 C82.4264,13.3233 82.2931,12.7633 82.0264,12.33 C81.7598,11.8967 81.4164,11.68 80.9964,11.68 C80.6431,11.68 80.3581,11.8233 80.1414,12.11 C79.9248,12.3967 79.8164,12.7767 79.8164,13.25 M86.5827,12.38 C86.4827,12.38 86.3594,12.3217 86.2127,12.205 C86.066,12.0883 85.9694,12.03 85.9227,12.03 C85.7894,12.03 85.6394,12.1267 85.4727,12.32 C85.306,12.5133 85.2227,12.69 85.2227,12.85 L85.2227,15.1 C85.2227,15.3867 85.2794,15.58 85.3927,15.68 C85.506,15.78 85.7327,15.8367 86.0727,15.85 L86.0727,16 L83.6727,16 L83.6727,15.85 C83.9927,15.79 84.191,15.7233 84.2677,15.65 C84.3444,15.5767 84.3827,15.4133 84.3827,15.16 L84.3827,12.66 C84.3827,12.44 84.3577,12.285 84.3077,12.195 C84.2577,12.105 84.1694,12.06 84.0427,12.06 C83.936,12.06 83.8194,12.0733 83.6927,12.1 L83.6927,11.94 C84.226,11.7667 84.7194,11.5867 85.1727,11.4 L85.2227,11.42 L85.2227,12.34 C85.4694,11.9867 85.6794,11.7417 85.8527,11.605 C86.026,11.4683 86.216,11.4 86.4227,11.4 C86.596,11.4 86.731,11.4467 86.8277,11.54 C86.9244,11.6333 86.9727,11.7633 86.9727,11.93 C86.9727,12.07 86.9377,12.18 86.8677,12.26 C86.7977,12.34 86.7027,12.38 86.5827,12.38 M90.4302,16.1 L90.3902,16.07 L90.3902,15.43 C90.0702,15.8767 89.6435,16.1 89.1102,16.1 C88.5569,16.1 88.1102,15.9017 87.7702,15.505 C87.4302,15.1083 87.2602,14.59 87.2602,13.95 C87.2602,13.2433 87.4635,12.6417 87.8702,12.145 C88.2769,11.6483 88.7669,11.4 89.3402,11.4 C89.7002,11.4 90.0502,11.5433 90.3902,11.83 L90.3902,10.27 C90.3902,10.0633 90.3602,9.92667 90.3002,9.86 C90.2402,9.79334 90.1169,9.76 89.9302,9.76 C89.8369,9.76 89.7635,9.76334 89.7102,9.77 L89.7102,9.61 C90.3169,9.45 90.8069,9.30334 91.1802,9.17 L91.2302,9.19 L91.2302,14.86 C91.2302,15.0933 91.2585,15.2467 91.3152,15.32 C91.3719,15.3933 91.4902,15.43 91.6702,15.43 C91.7035,15.43 91.7802,15.4267 91.9002,15.42 L91.9002,15.58 L90.4302,16.1 M89.5002,15.58 C89.7535,15.58 89.9652,15.5083 90.1352,15.365 C90.3052,15.2217 90.3902,15.0933 90.3902,14.98 L90.3902,12.68 C90.3902,12.4133 90.2869,12.18 90.0802,11.98 C89.8735,11.78 89.6369,11.68 89.3702,11.68 C88.9902,11.68 88.6869,11.85 88.4602,12.19 C88.2335,12.53 88.1202,12.9833 88.1202,13.55 C88.1202,14.1633 88.2469,14.655 88.5002,15.025 C88.7535,15.395 89.0869,15.58 89.5002,15.58 M94.4546,11.4 C95.0946,11.4 95.6212,11.6133 96.0346,12.04 C96.4479,12.4667 96.6546,13.0067 96.6546,13.66 C96.6546,14.3533 96.4412,14.9333 96.0146,15.4 C95.5879,15.8667 95.0612,16.1 94.4346,16.1 C93.8079,16.1 93.2862,15.875 92.8696,15.425 C92.4529,14.975 92.2446,14.4133 92.2446,13.74 C92.2446,13.0533 92.4496,12.4917 92.8596,12.055 C93.2696,11.6183 93.8012,11.4 94.4546,11.4 M93.1446,13.25 C93.1446,13.9633 93.2746,14.57 93.5346,15.07 C93.7946,15.57 94.1346,15.82 94.5546,15.82 C94.9279,15.82 95.2212,15.66 95.4346,15.34 C95.6479,15.02 95.7546,14.5767 95.7546,14.01 C95.7546,13.3233 95.6212,12.7633 95.3546,12.33 C95.0879,11.8967 94.7446,11.68 94.3246,11.68 C93.9712,11.68 93.6862,11.8233 93.4696,12.11 C93.2529,12.3967 93.1446,12.7767 93.1446,13.25 M97.0008,12.02 L97.0008,11.85 C97.4941,11.7033 97.9541,11.5533 98.3808,11.4 L98.4508,11.42 L98.4508,12.21 C98.7908,11.89 99.0591,11.675 99.2558,11.565 C99.4525,11.455 99.6675,11.4 99.9008,11.4 C100.267,11.4 100.556,11.5317 100.766,11.795 C100.976,12.0583 101.081,12.4267 101.081,12.9 L101.081,15.19 C101.081,15.4367 101.121,15.6017 101.201,15.685 C101.281,15.7683 101.444,15.8233 101.691,15.85 L101.691,16 L99.6108,16 L99.6108,15.85 C99.8641,15.83 100.032,15.7633 100.116,15.65 C100.199,15.5367 100.241,15.3233 100.241,15.01 L100.241,12.92 C100.241,12.2733 99.9975,11.95 99.5108,11.95 C99.3441,11.95 99.1908,11.9883 99.0508,12.065 C98.9108,12.1417 98.7208,12.2933 98.4808,12.52 L98.4808,15.33 C98.4808,15.51 98.5275,15.6367 98.6208,15.71 C98.7141,15.7833 98.8875,15.83 99.1408,15.85 L99.1408,16 L97.0208,16 L97.0208,15.85 C97.2741,15.83 97.4408,15.7717 97.5208,15.675 C97.6008,15.5783 97.6408,15.3867 97.6408,15.1 L97.6408,12.62 C97.6408,12.3733 97.6141,12.205 97.5608,12.115 C97.5075,12.025 97.4108,11.98 97.2708,11.98 C97.1441,11.98 97.0541,11.9933 97.0008,12.02 M101.876,9.77 L101.876,9.61 C102.442,9.47 102.959,9.32334 103.426,9.17 L103.466,9.19 L103.466,13.39 L104.836,12.17 C104.989,12.0367 105.066,11.9233 105.066,11.83 C105.066,11.7633 105.031,11.7167 104.961,11.69 C104.891,11.6633 104.759,11.6467 104.566,11.64 L104.566,11.5 L106.606,11.5 L106.606,11.65 C106.452,11.65 106.331,11.6583 106.241,11.675 C106.151,11.6917 106.022,11.7367 105.856,11.81 C105.689,11.8833 105.494,12.01 105.271,12.19 C105.047,12.37 104.772,12.61 104.446,12.91 L104.156,13.18 L105.686,15.12 C105.892,15.3733 106.084,15.555 106.261,15.665 C106.437,15.775 106.636,15.8367 106.856,15.85 L106.856,16 L104.676,16 L104.676,15.85 C104.942,15.85 105.076,15.8 105.076,15.7 C105.076,15.6733 105.066,15.6417 105.046,15.605 C105.026,15.5683 104.994,15.525 104.951,15.475 C104.907,15.425 104.879,15.3867 104.866,15.36 L103.466,13.49 L103.466,15.2 C103.466,15.44 103.504,15.5933 103.581,15.66 C103.657,15.7267 103.869,15.79 104.216,15.85 L104.216,16 L101.876,16 L101.876,15.85 C102.236,15.79 102.451,15.7283 102.521,15.665 C102.591,15.6017 102.626,15.44 102.626,15.18 L102.626,10.36 C102.626,10.12 102.596,9.95834 102.536,9.875 C102.476,9.79167 102.362,9.75 102.196,9.75 C102.102,9.75 101.996,9.75667 101.876,9.77 M108.841,10.95 L108.441,10.95 L109.911,9.47 C110.064,9.31667 110.204,9.24 110.331,9.24 C110.564,9.24 110.681,9.34667 110.681,9.56 C110.681,9.71334 110.581,9.85334 110.381,9.98 L108.841,10.95 M107.871,13.23 C107.884,13.65 107.941,14.0117 108.041,14.315 C108.141,14.6183 108.271,14.845 108.431,14.995 C108.591,15.145 108.752,15.2517 108.916,15.315 C109.079,15.3783 109.251,15.41 109.431,15.41 C109.751,15.41 110.029,15.33 110.266,15.17 C110.502,15.01 110.741,14.74 110.981,14.36 L111.141,14.43 C110.934,14.97 110.647,15.3833 110.281,15.67 C109.914,15.9567 109.494,16.1 109.021,16.1 C108.447,16.1 107.992,15.8983 107.656,15.495 C107.319,15.0917 107.151,14.5467 107.151,13.86 C107.151,13.12 107.346,12.525 107.736,12.075 C108.126,11.625 108.627,11.4 109.241,11.4 C109.747,11.4 110.141,11.5517 110.421,11.855 C110.701,12.1583 110.877,12.6167 110.951,13.23 L107.871,13.23 M107.891,12.91 L109.931,12.91 C109.864,12.4767 109.761,12.1767 109.621,12.01 C109.481,11.8433 109.257,11.76 108.951,11.76 C108.351,11.76 107.997,12.1433 107.891,12.91 M111.438,12.02 L111.438,11.85 C111.932,11.7033 112.392,11.5533 112.818,11.4 L112.888,11.42 L112.888,12.21 C113.228,11.89 113.497,11.675 113.693,11.565 C113.89,11.455 114.105,11.4 114.338,11.4 C114.705,11.4 114.993,11.5317 115.203,11.795 C115.413,12.0583 115.518,12.4267 115.518,12.9 L115.518,15.19 C115.518,15.4367 115.558,15.6017 115.638,15.685 C115.718,15.7683 115.882,15.8233 116.128,15.85 L116.128,16 L114.048,16 L114.048,15.85 C114.302,15.83 114.47,15.7633 114.553,15.65 C114.637,15.5367 114.678,15.3233 114.678,15.01 L114.678,12.92 C114.678,12.2733 114.435,11.95 113.948,11.95 C113.782,11.95 113.628,11.9883 113.488,12.065 C113.348,12.1417 113.158,12.2933 112.918,12.52 L112.918,15.33 C112.918,15.51 112.965,15.6367 113.058,15.71 C113.152,15.7833 113.325,15.83 113.578,15.85 L113.578,16 L111.458,16 L111.458,15.85 C111.712,15.83 111.878,15.7717 111.958,15.675 C112.038,15.5783 112.078,15.3867 112.078,15.1 L112.078,12.62 C112.078,12.3733 112.052,12.205 111.998,12.115 C111.945,12.025 111.848,11.98 111.708,11.98 C111.582,11.98 111.492,11.9933 111.438,12.02 M118.803,11.5 L118.803,11.82 L117.793,11.82 L117.793,14.68 C117.793,14.9933 117.833,15.2217 117.913,15.365 C117.993,15.5083 118.127,15.58 118.313,15.58 C118.52,15.58 118.72,15.4633 118.913,15.23 L119.043,15.34 C118.723,15.8467 118.323,16.1 117.843,16.1 C117.25,16.1 116.953,15.6767 116.953,14.83 L116.953,11.82 L116.423,11.82 C116.397,11.8 116.383,11.7767 116.383,11.75 C116.383,11.7167 116.393,11.69 116.413,11.67 C116.433,11.65 116.472,11.6217 116.528,11.585 C116.585,11.5483 116.653,11.4983 116.733,11.435 C116.813,11.3717 116.923,11.2567 117.063,11.09 C117.203,10.9233 117.357,10.7233 117.523,10.49 C117.63,10.3367 117.697,10.2433 117.723,10.21 C117.77,10.21 117.793,10.2533 117.793,10.34 L117.793,11.5 L118.803,11.5 M120.401,11.41 C120.555,11.41 120.686,11.4667 120.796,11.58 C120.906,11.6933 120.961,11.8267 120.961,11.98 C120.961,12.1267 120.905,12.2533 120.791,12.36 C120.678,12.4667 120.545,12.52 120.391,12.52 C120.245,12.52 120.118,12.4667 120.011,12.36 C119.905,12.2533 119.851,12.1267 119.851,11.98 C119.851,11.8267 119.906,11.6933 120.016,11.58 C120.126,11.4667 120.255,11.41 120.401,11.41 M120.401,15 C120.555,15 120.686,15.0567 120.796,15.17 C120.906,15.2833 120.961,15.4167 120.961,15.57 C120.961,15.7167 120.905,15.8433 120.791,15.95 C120.678,16.0567 120.545,16.11 120.391,16.11 C120.245,16.11 120.118,16.0567 120.011,15.95 C119.905,15.8433 119.851,15.7167 119.851,15.57 C119.851,15.4167 119.906,15.2833 120.016,15.17 C120.126,15.0567 120.255,15 120.401,15"/>
<path class="Bracket" fill-rule="evenodd" d="M6.30858,180.294 C6.30858,174.453 2.28572,168.775 2.28572,163.18 C2.28572,160.361 3.38286,157.625 6.76572,155.174 C6.81143,155.143 6.83429,155.092 6.83429,155.062 C6.83429,154.97 6.58286,154.888 6.4,154.888 C6.30858,154.888 6.14858,154.898 6.03429,154.97 C1.64572,158.115 0.182857,161.75 0.182857,165.426 C0.182857,171.349 4.48,177.067 4.48,182.744 C4.48,185.563 3.38286,188.218 4.15223e-14,190.668 L4.15223e-14,190.75 L4.15223e-14,190.832 C3.38286,193.283 4.48,195.937 4.48,198.756 C4.48,204.433 0.182857,210.152 0.182857,216.074 C0.182857,219.75 1.64572,223.385 6.03429,226.53 C6.14858,226.602 6.30858,226.612 6.4,226.612 C6.58286,226.612 6.83429,226.53 6.83429,226.439 C6.83429,226.408 6.81143,226.357 6.76572,226.326 C3.38286,223.875 2.28572,221.139 2.28572,218.321 C2.28572,212.725 6.30858,207.047 6.30858,201.206 C6.30858,197.49 4.84572,193.936 0.548572,190.75 C4.84572,187.564 6.30858,184.011 6.30858,180.294"/>
<path class="Bracket" fill-rule="evenodd" d="M6.30858,52.7937 C6.30858,46.9528 2.28572,41.2754 2.28572,35.6796 C2.28572,32.8613 3.38286,30.1247 6.76572,27.674 C6.81143,27.6433 6.83429,27.5923 6.83429,27.5616 C6.83429,27.4697 6.58286,27.388 6.4,27.388 C6.30858,27.388 6.14858,27.3983 6.03429,27.4697 C1.64572,30.6148 0.182857,34.25 0.182857,37.9261 C0.182857,43.8486 4.48,49.5669 4.48,55.2444 C4.48,58.0627 3.38286,60.7176 4.15223e-14,63.1683 L4.15223e-14,63.25 L4.15223e-14,63.3317 C3.38286,65.7824 4.48,68.4374 4.48,71.2557 C4.48,76.9331 0.182857,82.6515 0.182857,88.574 C0.182857,92.2501 1.64572,95.8853 6.03429,99.0303 C6.14858,99.1018 6.30858,99.112 6.4,99.112 C6.58286,99.112 6.83429,99.0303 6.83429,98.9384 C6.83429,98.9078 6.81143,98.8568 6.76572,98.8261 C3.38286,96.3754 2.28572,93.6388 2.28572,90.8205 C2.28572,85.2247 6.30858,79.5472 6.30858,73.7064 C6.30858,69.9895 4.84572,66.436 0.548572,63.25 C4.84572,60.0641 6.30858,56.5106 6.30858,52.7937"/>
</svg>
