<?xml version="1.0" encoding="UTF-8" standalone="no"?>
<svg width="538.752px" height="51.0236px" viewBox="0 0 538.752 51.0236"
 xmlns="http://www.w3.org/2000/svg" xmlns:xlink="http://www.w3.org/1999/xlink" version="1.2" baseProfile="tiny">
<title>Akkordok beszúrása</title>
<desc>Generated by MuseScore 2.3.2</desc>
<polyline class="StaffLines" fill="none" stroke="#000000" stroke-width="0.34" stroke-linejoin="bevel" points="0,17.0079 538.752,17.0079"/>
<polyline class="StaffLines" fill="none" stroke="#000000" stroke-width="0.34" stroke-linejoin="bevel" points="0,21.2598 538.752,21.2598"/>
<polyline class="StaffLines" fill="none" stroke="#000000" stroke-width="0.34" stroke-linejoin="bevel" points="0,25.5118 538.752,25.5118"/>
<polyline class="StaffLines" fill="none" stroke="#000000" stroke-width="0.34" stroke-linejoin="bevel" points="0,29.7638 538.752,29.7638"/>
<polyline class="StaffLines" fill="none" stroke="#000000" stroke-width="0.34" stroke-linejoin="bevel" points="0,34.0157 538.752,34.0157"/>
<path class="SlurSegment" stroke="#000000" stroke-width="0.30" stroke-linecap="round" stroke-linejoin="round" fill-rule="evenodd" d="M354.204,37.2047 C359.783,41.1048 376.521,41.1048 382.1,37.2047 C376.521,41.7851 359.783,41.7851 354.204,37.2047"/>
<path class="SlurSegment" stroke="#000000" stroke-width="0.30" stroke-linecap="round" stroke-linejoin="round" fill-rule="evenodd" d="M285.985,35.0787 C290.979,38.5336 305.959,38.5336 310.953,35.0787 C305.959,39.214 290.979,39.214 285.985,35.0787"/>
<path class="SlurSegment" stroke="#000000" stroke-width="0.30" stroke-linecap="round" stroke-linejoin="round" fill-rule="evenodd" d="M100.028,37.2047 C105.607,41.1048 122.345,41.1048 127.924,37.2047 C122.345,41.7851 105.607,41.7851 100.028,37.2047"/>
<path class="SlurSegment" stroke="#000000" stroke-width="0.30" stroke-linecap="round" stroke-linejoin="round" fill-rule="evenodd" d="M35.381,35.0787 C39.982,38.2354 53.7851,38.2354 58.3861,35.0787 C53.7851,38.9157 39.982,38.9157 35.381,35.0787"/>
<polyline class="BarLine" stroke="#000000" stroke-width="0.68" stroke-linejoin="bevel" points="538.412,17.0079 538.412,34.0157"/>
<polyline class="BarLine" stroke="#000000" stroke-width="0.68" stroke-linejoin="bevel" points="487.781,17.0079 487.781,34.0157"/>
<polyline class="BarLine" stroke="#000000" stroke-width="0.68" stroke-linejoin="bevel" points="419.896,17.0079 419.896,34.0157"/>
<polyline class="BarLine" stroke="#000000" stroke-width="0.68" stroke-linejoin="bevel" points="345.123,17.0079 345.123,34.0157"/>
<polyline class="BarLine" stroke="#000000" stroke-width="0.68" stroke-linejoin="bevel" points="276.904,17.0079 276.904,34.0157"/>
<polyline class="BarLine" stroke="#000000" stroke-width="0.68" stroke-linejoin="bevel" points="226.273,17.0079 226.273,34.0157"/>
<polyline class="BarLine" stroke="#000000" stroke-width="0.68" stroke-linejoin="bevel" points="165.72,17.0079 165.72,34.0157"/>
<polyline class="BarLine" stroke="#000000" stroke-width="0.68" stroke-linejoin="bevel" points="90.9467,17.0079 90.9467,34.0157"/>
<path class="Accidental" transform="matrix(0.850394,0,0,0.850394,398.777,34.0157)" d="M4.31641,6.23047 C4.31641,6.47786 4.19271,6.60156 3.94531,6.60156 C3.69792,6.60156 3.57422,6.47786 3.57422,6.23047 L3.57422,3.33984 L1.91406,3.96484 L1.91406,7.12891 C1.91406,7.3763 1.79036,7.5 1.54297,7.5 C1.29557,7.5 1.17188,7.3763 1.17188,7.12891 L1.17188,4.21875 L0.546875,4.45312 C0.533854,4.46615 0.481771,4.47266 0.390625,4.47266 C0.286458,4.47266 0.195312,4.43359 0.117188,4.35547 C0.0390625,4.27734 0,4.1862 0,4.08203 L0,2.87109 C0,2.67578 0.0846354,2.55208 0.253906,2.5 L1.17188,2.1875 L1.17188,-1.01562 L0.546875,-0.800781 C0.533854,-0.78776 0.481771,-0.78125 0.390625,-0.78125 C0.286458,-0.78125 0.195312,-0.820312 0.117188,-0.898438 C0.0390625,-0.976562 0,-1.06771 0,-1.17188 L0,-2.38281 C0,-2.5651 0.0846354,-2.68229 0.253906,-2.73438 L1.17188,-3.08594 L1.17188,-6.23047 C1.17188,-6.47786 1.29557,-6.60156 1.54297,-6.60156 C1.79036,-6.60156 1.91406,-6.47786 1.91406,-6.23047 L1.91406,-3.33984 L3.57422,-3.96484 L3.57422,-7.12891 C3.57422,-7.3763 3.69792,-7.5 3.94531,-7.5 C4.19271,-7.5 4.31641,-7.3763 4.31641,-7.12891 L4.31641,-4.21875 L4.96094,-4.45312 C4.97396,-4.46615 5.01953,-4.47266 5.09766,-4.47266 C5.1888,-4.47266 5.28646,-4.43359 5.39062,-4.35547 C5.46875,-4.27734 5.50781,-4.1862 5.50781,-4.08203 L5.50781,-2.87109 C5.50781,-2.6888 5.41667,-2.5651 5.23438,-2.5 L4.31641,-2.1875 L4.31641,1.01562 L4.96094,0.800781 C4.97396,0.78776 5.01953,0.78125 5.09766,0.78125 C5.1888,0.78125 5.28646,0.820312 5.39062,0.898438 C5.46875,0.976562 5.50781,1.06771 5.50781,1.17188 L5.50781,2.38281 C5.50781,2.55208 5.41667,2.66927 5.23438,2.73438 L4.31641,3.08594 L4.31641,6.23047 M3.57422,-1.89453 L1.91406,-1.30859 L1.91406,1.89453 L3.57422,1.30859 L3.57422,-1.89453 "/>
<path class="Accidental" transform="matrix(0.850394,0,0,0.850394,144.601,34.0157)" d="M4.31641,6.23047 C4.31641,6.47786 4.19271,6.60156 3.94531,6.60156 C3.69792,6.60156 3.57422,6.47786 3.57422,6.23047 L3.57422,3.33984 L1.91406,3.96484 L1.91406,7.12891 C1.91406,7.3763 1.79036,7.5 1.54297,7.5 C1.29557,7.5 1.17188,7.3763 1.17188,7.12891 L1.17188,4.21875 L0.546875,4.45312 C0.533854,4.46615 0.481771,4.47266 0.390625,4.47266 C0.286458,4.47266 0.195312,4.43359 0.117188,4.35547 C0.0390625,4.27734 0,4.1862 0,4.08203 L0,2.87109 C0,2.67578 0.0846354,2.55208 0.253906,2.5 L1.17188,2.1875 L1.17188,-1.01562 L0.546875,-0.800781 C0.533854,-0.78776 0.481771,-0.78125 0.390625,-0.78125 C0.286458,-0.78125 0.195312,-0.820312 0.117188,-0.898438 C0.0390625,-0.976562 0,-1.06771 0,-1.17188 L0,-2.38281 C0,-2.5651 0.0846354,-2.68229 0.253906,-2.73438 L1.17188,-3.08594 L1.17188,-6.23047 C1.17188,-6.47786 1.29557,-6.60156 1.54297,-6.60156 C1.79036,-6.60156 1.91406,-6.47786 1.91406,-6.23047 L1.91406,-3.33984 L3.57422,-3.96484 L3.57422,-7.12891 C3.57422,-7.3763 3.69792,-7.5 3.94531,-7.5 C4.19271,-7.5 4.31641,-7.3763 4.31641,-7.12891 L4.31641,-4.21875 L4.96094,-4.45312 C4.97396,-4.46615 5.01953,-4.47266 5.09766,-4.47266 C5.1888,-4.47266 5.28646,-4.43359 5.39062,-4.35547 C5.46875,-4.27734 5.50781,-4.1862 5.50781,-4.08203 L5.50781,-2.87109 C5.50781,-2.6888 5.41667,-2.5651 5.23438,-2.5 L4.31641,-2.1875 L4.31641,1.01562 L4.96094,0.800781 C4.97396,0.78776 5.01953,0.78125 5.09766,0.78125 C5.1888,0.78125 5.28646,0.820312 5.39062,0.898438 C5.46875,0.976562 5.50781,1.06771 5.50781,1.17188 L5.50781,2.38281 C5.50781,2.55208 5.41667,2.66927 5.23438,2.73438 L4.31641,3.08594 L4.31641,6.23047 M3.57422,-1.89453 L1.91406,-1.30859 L1.91406,1.89453 L3.57422,1.30859 L3.57422,-1.89453 "/>
<polyline class="LedgerLine" stroke="#000000" stroke-width="0.68" stroke-linecap="square" stroke-linejoin="bevel" points="329.571,38.2677 337.72,38.2677"/>
<polyline class="LedgerLine" stroke="#000000" stroke-width="0.68" stroke-linecap="square" stroke-linejoin="bevel" points="230.44,38.2677 238.896,38.2677"/>
<polyline class="LedgerLine" stroke="#000000" stroke-width="0.68" stroke-linecap="square" stroke-linejoin="bevel" points="75.3951,38.2677 83.5443,38.2677"/>
<polyline class="Stem" stroke="#000000" stroke-width="0.55" stroke-linecap="round" stroke-linejoin="bevel" points="498.852,31.2367 498.852,17.0079"/>
<polyline class="Stem" stroke="#000000" stroke-width="0.55" stroke-linecap="round" stroke-linejoin="bevel" points="461.094,24.1844 461.094,37.2047"/>
<polyline class="Stem" stroke="#000000" stroke-width="0.55" stroke-linecap="round" stroke-linejoin="bevel" points="452.494,26.8392 452.494,13.8189"/>
<polyline class="Stem" stroke="#000000" stroke-width="0.55" stroke-linecap="round" stroke-linejoin="bevel" points="430.66,31.0912 430.66,17.0079"/>
<polyline class="Stem" stroke="#000000" stroke-width="0.55" stroke-linecap="round" stroke-linejoin="bevel" points="409.718,33.2172 409.718,19.1339"/>
<polyline class="Stem" stroke="#000000" stroke-width="0.55" stroke-linecap="round" stroke-linejoin="bevel" points="385.463,33.2172 385.463,19.1339"/>
<polyline class="Stem" stroke="#000000" stroke-width="0.55" stroke-linecap="round" stroke-linejoin="bevel" points="355.887,33.2172 355.887,19.1339"/>
<polyline class="Stem" stroke="#000000" stroke-width="0.55" stroke-linecap="round" stroke-linejoin="bevel" points="336.168,37.4691 336.168,23.3858"/>
<polyline class="Stem" stroke="#000000" stroke-width="0.55" stroke-linecap="round" stroke-linejoin="bevel" points="314.315,31.0912 314.315,17.0079"/>
<polyline class="Stem" stroke="#000000" stroke-width="0.55" stroke-linecap="round" stroke-linejoin="bevel" points="287.668,31.0912 287.668,17.0079"/>
<polyline class="Stem" stroke="#000000" stroke-width="0.55" stroke-linecap="round" stroke-linejoin="bevel" points="237.344,37.6146 237.344,23.3858"/>
<polyline class="Stem" stroke="#000000" stroke-width="0.55" stroke-linecap="round" stroke-linejoin="bevel" points="203.869,35.3432 203.869,21.2598"/>
<polyline class="Stem" stroke="#000000" stroke-width="0.55" stroke-linecap="round" stroke-linejoin="bevel" points="176.484,31.0912 176.484,17.0079"/>
<polyline class="Stem" stroke="#000000" stroke-width="0.55" stroke-linecap="round" stroke-linejoin="bevel" points="155.542,33.2172 155.542,19.1339"/>
<polyline class="Stem" stroke="#000000" stroke-width="0.55" stroke-linecap="round" stroke-linejoin="bevel" points="131.287,33.2172 131.287,19.1339"/>
<polyline class="Stem" stroke="#000000" stroke-width="0.55" stroke-linecap="round" stroke-linejoin="bevel" points="101.711,33.2172 101.711,19.1339"/>
<polyline class="Stem" stroke="#000000" stroke-width="0.55" stroke-linecap="round" stroke-linejoin="bevel" points="81.9923,37.4691 81.9923,23.3858"/>
<polyline class="Stem" stroke="#000000" stroke-width="0.55" stroke-linecap="round" stroke-linejoin="bevel" points="61.7484,31.0912 61.7484,17.0079"/>
<polyline class="Stem" stroke="#000000" stroke-width="0.55" stroke-linecap="round" stroke-linejoin="bevel" points="37.0639,31.0912 37.0639,17.0079"/>
<path class="Note" transform="matrix(0.850394,0,0,0.850394,493.224,31.8898)" d="M6.30859,-1.30859 C6.30859,-1.52995 6.22396,-1.71875 6.05469,-1.875 C5.88542,-2.04427 5.6901,-2.12891 5.46875,-2.12891 C5.07812,-2.12891 4.29036,-1.73828 3.10547,-0.957031 C1.88151,-0.16276 1.13281,0.403646 0.859375,0.742188 C0.716146,0.924479 0.644531,1.11328 0.644531,1.30859 C0.644531,1.52995 0.729167,1.71875 0.898438,1.875 C1.05469,2.04427 1.25,2.12891 1.48438,2.12891 C1.86198,2.12891 2.65625,1.73828 3.86719,0.957031 C5.0651,0.175781 5.80729,-0.390625 6.09375,-0.742188 C6.23698,-0.911458 6.30859,-1.10026 6.30859,-1.30859 M5.27344,-2.75391 C6.39323,-2.75391 6.95312,-2.27214 6.95312,-1.30859 C6.95312,-0.839844 6.81641,-0.292969 6.54297,0.332031 C6.26953,0.94401 5.90495,1.41276 5.44922,1.73828 C4.44661,2.41536 3.1901,2.75391 1.67969,2.75391 C0.559896,2.75391 0,2.27214 0,1.30859 C0,0.878906 0.136719,0.338542 0.410156,-0.3125 C0.670573,-0.9375 1.03516,-1.41276 1.50391,-1.73828 C2.50651,-2.41536 3.76302,-2.75391 5.27344,-2.75391"/>
<path class="Note" transform="matrix(0.850394,0,0,0.850394,460.818,23.3858)" d="M4.39453,-2.75391 C5.01953,-2.75391 5.54688,-2.59115 5.97656,-2.26562 C6.38021,-1.91406 6.58203,-1.47135 6.58203,-0.9375 C6.58203,-0.0390625 6.11979,0.800781 5.19531,1.58203 C4.25781,2.36328 3.25521,2.75391 2.1875,2.75391 C1.5625,2.75391 1.03516,2.59115 0.605469,2.26562 C0.201823,1.91406 0,1.47135 0,0.9375 C0,0.0390625 0.46875,-0.800781 1.40625,-1.58203 C2.31771,-2.36328 3.3138,-2.75391 4.39453,-2.75391"/>
<path class="Note" transform="matrix(0.850394,0,0,0.850394,447.172,27.6378)" d="M4.39453,-2.75391 C5.01953,-2.75391 5.54688,-2.59115 5.97656,-2.26562 C6.38021,-1.91406 6.58203,-1.47135 6.58203,-0.9375 C6.58203,-0.0390625 6.11979,0.800781 5.19531,1.58203 C4.25781,2.36328 3.25521,2.75391 2.1875,2.75391 C1.5625,2.75391 1.03516,2.59115 0.605469,2.26562 C0.201823,1.91406 0,1.47135 0,0.9375 C0,0.0390625 0.46875,-0.800781 1.40625,-1.58203 C2.31771,-2.36328 3.3138,-2.75391 4.39453,-2.75391"/>
<path class="Note" transform="matrix(0.850394,0,0,0.850394,425.338,31.8898)" d="M4.39453,-2.75391 C5.01953,-2.75391 5.54688,-2.59115 5.97656,-2.26562 C6.38021,-1.91406 6.58203,-1.47135 6.58203,-0.9375 C6.58203,-0.0390625 6.11979,0.800781 5.19531,1.58203 C4.25781,2.36328 3.25521,2.75391 2.1875,2.75391 C1.5625,2.75391 1.03516,2.59115 0.605469,2.26562 C0.201823,1.91406 0,1.47135 0,0.9375 C0,0.0390625 0.46875,-0.800781 1.40625,-1.58203 C2.31771,-2.36328 3.3138,-2.75391 4.39453,-2.75391"/>
<path class="Note" transform="matrix(0.850394,0,0,0.850394,404.396,34.0157)" d="M4.39453,-2.75391 C5.01953,-2.75391 5.54688,-2.59115 5.97656,-2.26562 C6.38021,-1.91406 6.58203,-1.47135 6.58203,-0.9375 C6.58203,-0.0390625 6.11979,0.800781 5.19531,1.58203 C4.25781,2.36328 3.25521,2.75391 2.1875,2.75391 C1.5625,2.75391 1.03516,2.59115 0.605469,2.26562 C0.201823,1.91406 0,1.47135 0,0.9375 C0,0.0390625 0.46875,-0.800781 1.40625,-1.58203 C2.31771,-2.36328 3.3138,-2.75391 4.39453,-2.75391"/>
<path class="Note" transform="matrix(0.850394,0,0,0.850394,380.141,34.0157)" d="M4.39453,-2.75391 C5.01953,-2.75391 5.54688,-2.59115 5.97656,-2.26562 C6.38021,-1.91406 6.58203,-1.47135 6.58203,-0.9375 C6.58203,-0.0390625 6.11979,0.800781 5.19531,1.58203 C4.25781,2.36328 3.25521,2.75391 2.1875,2.75391 C1.5625,2.75391 1.03516,2.59115 0.605469,2.26562 C0.201823,1.91406 0,1.47135 0,0.9375 C0,0.0390625 0.46875,-0.800781 1.40625,-1.58203 C2.31771,-2.36328 3.3138,-2.75391 4.39453,-2.75391"/>
<path class="Note" transform="matrix(0.850394,0,0,0.850394,350.565,34.0157)" d="M4.39453,-2.75391 C5.01953,-2.75391 5.54688,-2.59115 5.97656,-2.26562 C6.38021,-1.91406 6.58203,-1.47135 6.58203,-0.9375 C6.58203,-0.0390625 6.11979,0.800781 5.19531,1.58203 C4.25781,2.36328 3.25521,2.75391 2.1875,2.75391 C1.5625,2.75391 1.03516,2.59115 0.605469,2.26562 C0.201823,1.91406 0,1.47135 0,0.9375 C0,0.0390625 0.46875,-0.800781 1.40625,-1.58203 C2.31771,-2.36328 3.3138,-2.75391 4.39453,-2.75391"/>
<path class="Note" transform="matrix(0.850394,0,0,0.850394,330.847,38.2677)" d="M4.39453,-2.75391 C5.01953,-2.75391 5.54688,-2.59115 5.97656,-2.26562 C6.38021,-1.91406 6.58203,-1.47135 6.58203,-0.9375 C6.58203,-0.0390625 6.11979,0.800781 5.19531,1.58203 C4.25781,2.36328 3.25521,2.75391 2.1875,2.75391 C1.5625,2.75391 1.03516,2.59115 0.605469,2.26562 C0.201823,1.91406 0,1.47135 0,0.9375 C0,0.0390625 0.46875,-0.800781 1.40625,-1.58203 C2.31771,-2.36328 3.3138,-2.75391 4.39453,-2.75391"/>
<path class="Note" transform="matrix(0.850394,0,0,0.850394,308.993,31.8898)" d="M4.39453,-2.75391 C5.01953,-2.75391 5.54688,-2.59115 5.97656,-2.26562 C6.38021,-1.91406 6.58203,-1.47135 6.58203,-0.9375 C6.58203,-0.0390625 6.11979,0.800781 5.19531,1.58203 C4.25781,2.36328 3.25521,2.75391 2.1875,2.75391 C1.5625,2.75391 1.03516,2.59115 0.605469,2.26562 C0.201823,1.91406 0,1.47135 0,0.9375 C0,0.0390625 0.46875,-0.800781 1.40625,-1.58203 C2.31771,-2.36328 3.3138,-2.75391 4.39453,-2.75391"/>
<path class="Note" transform="matrix(0.850394,0,0,0.850394,282.347,31.8898)" d="M4.39453,-2.75391 C5.01953,-2.75391 5.54688,-2.59115 5.97656,-2.26562 C6.38021,-1.91406 6.58203,-1.47135 6.58203,-0.9375 C6.58203,-0.0390625 6.11979,0.800781 5.19531,1.58203 C4.25781,2.36328 3.25521,2.75391 2.1875,2.75391 C1.5625,2.75391 1.03516,2.59115 0.605469,2.26562 C0.201823,1.91406 0,1.47135 0,0.9375 C0,0.0390625 0.46875,-0.800781 1.40625,-1.58203 C2.31771,-2.36328 3.3138,-2.75391 4.39453,-2.75391"/>
<path class="Note" transform="matrix(0.850394,0,0,0.850394,231.716,38.2677)" d="M6.30859,-1.30859 C6.30859,-1.52995 6.22396,-1.71875 6.05469,-1.875 C5.88542,-2.04427 5.6901,-2.12891 5.46875,-2.12891 C5.07812,-2.12891 4.29036,-1.73828 3.10547,-0.957031 C1.88151,-0.16276 1.13281,0.403646 0.859375,0.742188 C0.716146,0.924479 0.644531,1.11328 0.644531,1.30859 C0.644531,1.52995 0.729167,1.71875 0.898438,1.875 C1.05469,2.04427 1.25,2.12891 1.48438,2.12891 C1.86198,2.12891 2.65625,1.73828 3.86719,0.957031 C5.0651,0.175781 5.80729,-0.390625 6.09375,-0.742188 C6.23698,-0.911458 6.30859,-1.10026 6.30859,-1.30859 M5.27344,-2.75391 C6.39323,-2.75391 6.95312,-2.27214 6.95312,-1.30859 C6.95312,-0.839844 6.81641,-0.292969 6.54297,0.332031 C6.26953,0.94401 5.90495,1.41276 5.44922,1.73828 C4.44661,2.41536 3.1901,2.75391 1.67969,2.75391 C0.559896,2.75391 0,2.27214 0,1.30859 C0,0.878906 0.136719,0.338542 0.410156,-0.3125 C0.670573,-0.9375 1.03516,-1.41276 1.50391,-1.73828 C2.50651,-2.41536 3.76302,-2.75391 5.27344,-2.75391"/>
<path class="Note" transform="matrix(0.850394,0,0,0.850394,198.548,36.1417)" d="M4.39453,-2.75391 C5.01953,-2.75391 5.54688,-2.59115 5.97656,-2.26562 C6.38021,-1.91406 6.58203,-1.47135 6.58203,-0.9375 C6.58203,-0.0390625 6.11979,0.800781 5.19531,1.58203 C4.25781,2.36328 3.25521,2.75391 2.1875,2.75391 C1.5625,2.75391 1.03516,2.59115 0.605469,2.26562 C0.201823,1.91406 0,1.47135 0,0.9375 C0,0.0390625 0.46875,-0.800781 1.40625,-1.58203 C2.31771,-2.36328 3.3138,-2.75391 4.39453,-2.75391"/>
<path class="Note" transform="matrix(0.850394,0,0,0.850394,171.162,31.8898)" d="M4.39453,-2.75391 C5.01953,-2.75391 5.54688,-2.59115 5.97656,-2.26562 C6.38021,-1.91406 6.58203,-1.47135 6.58203,-0.9375 C6.58203,-0.0390625 6.11979,0.800781 5.19531,1.58203 C4.25781,2.36328 3.25521,2.75391 2.1875,2.75391 C1.5625,2.75391 1.03516,2.59115 0.605469,2.26562 C0.201823,1.91406 0,1.47135 0,0.9375 C0,0.0390625 0.46875,-0.800781 1.40625,-1.58203 C2.31771,-2.36328 3.3138,-2.75391 4.39453,-2.75391"/>
<path class="Note" transform="matrix(0.850394,0,0,0.850394,150.22,34.0157)" d="M4.39453,-2.75391 C5.01953,-2.75391 5.54688,-2.59115 5.97656,-2.26562 C6.38021,-1.91406 6.58203,-1.47135 6.58203,-0.9375 C6.58203,-0.0390625 6.11979,0.800781 5.19531,1.58203 C4.25781,2.36328 3.25521,2.75391 2.1875,2.75391 C1.5625,2.75391 1.03516,2.59115 0.605469,2.26562 C0.201823,1.91406 0,1.47135 0,0.9375 C0,0.0390625 0.46875,-0.800781 1.40625,-1.58203 C2.31771,-2.36328 3.3138,-2.75391 4.39453,-2.75391"/>
<path class="Note" transform="matrix(0.850394,0,0,0.850394,125.965,34.0157)" d="M4.39453,-2.75391 C5.01953,-2.75391 5.54688,-2.59115 5.97656,-2.26562 C6.38021,-1.91406 6.58203,-1.47135 6.58203,-0.9375 C6.58203,-0.0390625 6.11979,0.800781 5.19531,1.58203 C4.25781,2.36328 3.25521,2.75391 2.1875,2.75391 C1.5625,2.75391 1.03516,2.59115 0.605469,2.26562 C0.201823,1.91406 0,1.47135 0,0.9375 C0,0.0390625 0.46875,-0.800781 1.40625,-1.58203 C2.31771,-2.36328 3.3138,-2.75391 4.39453,-2.75391"/>
<path class="Note" transform="matrix(0.850394,0,0,0.850394,96.3892,34.0157)" d="M4.39453,-2.75391 C5.01953,-2.75391 5.54688,-2.59115 5.97656,-2.26562 C6.38021,-1.91406 6.58203,-1.47135 6.58203,-0.9375 C6.58203,-0.0390625 6.11979,0.800781 5.19531,1.58203 C4.25781,2.36328 3.25521,2.75391 2.1875,2.75391 C1.5625,2.75391 1.03516,2.59115 0.605469,2.26562 C0.201823,1.91406 0,1.47135 0,0.9375 C0,0.0390625 0.46875,-0.800781 1.40625,-1.58203 C2.31771,-2.36328 3.3138,-2.75391 4.39453,-2.75391"/>
<path class="Note" transform="matrix(0.850394,0,0,0.850394,76.6707,38.2677)" d="M4.39453,-2.75391 C5.01953,-2.75391 5.54688,-2.59115 5.97656,-2.26562 C6.38021,-1.91406 6.58203,-1.47135 6.58203,-0.9375 C6.58203,-0.0390625 6.11979,0.800781 5.19531,1.58203 C4.25781,2.36328 3.25521,2.75391 2.1875,2.75391 C1.5625,2.75391 1.03516,2.59115 0.605469,2.26562 C0.201823,1.91406 0,1.47135 0,0.9375 C0,0.0390625 0.46875,-0.800781 1.40625,-1.58203 C2.31771,-2.36328 3.3138,-2.75391 4.39453,-2.75391"/>
<path class="Note" transform="matrix(0.850394,0,0,0.850394,56.4268,31.8898)" d="M4.39453,-2.75391 C5.01953,-2.75391 5.54688,-2.59115 5.97656,-2.26562 C6.38021,-1.91406 6.58203,-1.47135 6.58203,-0.9375 C6.58203,-0.0390625 6.11979,0.800781 5.19531,1.58203 C4.25781,2.36328 3.25521,2.75391 2.1875,2.75391 C1.5625,2.75391 1.03516,2.59115 0.605469,2.26562 C0.201823,1.91406 0,1.47135 0,0.9375 C0,0.0390625 0.46875,-0.800781 1.40625,-1.58203 C2.31771,-2.36328 3.3138,-2.75391 4.39453,-2.75391"/>
<path class="Note" transform="matrix(0.850394,0,0,0.850394,31.7423,31.8898)" d="M4.39453,-2.75391 C5.01953,-2.75391 5.54688,-2.59115 5.97656,-2.26562 C6.38021,-1.91406 6.58203,-1.47135 6.58203,-0.9375 C6.58203,-0.0390625 6.11979,0.800781 5.19531,1.58203 C4.25781,2.36328 3.25521,2.75391 2.1875,2.75391 C1.5625,2.75391 1.03516,2.59115 0.605469,2.26562 C0.201823,1.91406 0,1.47135 0,0.9375 C0,0.0390625 0.46875,-0.800781 1.40625,-1.58203 C2.31771,-2.36328 3.3138,-2.75391 4.39453,-2.75391"/>
<path class="Clef" transform="matrix(0.850394,0,0,0.850394,2.72126,21.2598)" d="M11.4258,-1.77734 C11.2305,-1.97266 11.1328,-2.21354 11.1328,-2.5 C11.1328,-2.78646 11.2305,-3.02734 11.4258,-3.22266 C11.6211,-3.41797 11.862,-3.51562 12.1484,-3.51562 C12.4349,-3.51562 12.6758,-3.41797 12.8711,-3.22266 C13.0664,-3.02734 13.1641,-2.78646 13.1641,-2.5 C13.1641,-2.21354 13.0664,-1.97266 12.8711,-1.77734 C12.6758,-1.58203 12.4349,-1.48438 12.1484,-1.48438 C11.862,-1.48438 11.6211,-1.58203 11.4258,-1.77734 M11.4258,3.22266 C11.2305,3.02734 11.1328,2.78646 11.1328,2.5 C11.1328,2.21354 11.2305,1.97266 11.4258,1.77734 C11.6211,1.58203 11.862,1.48438 12.1484,1.48438 C12.4349,1.48438 12.6758,1.58203 12.8711,1.77734 C13.0664,1.97266 13.1641,2.21354 13.1641,2.5 C13.1641,2.78646 13.0664,3.02734 12.8711,3.22266 C12.6758,3.41797 12.4349,3.51562 12.1484,3.51562 C11.862,3.51562 11.6211,3.41797 11.4258,3.22266 M4.64844,-5.25391 C6.38021,-5.25391 7.79948,-4.81771 8.90625,-3.94531 C9.97396,-3.03385 10.5078,-1.79688 10.5078,-0.234375 C10.5078,0.820312 10.2995,1.78385 9.88281,2.65625 C9.49219,3.56771 8.97786,4.375 8.33984,5.07812 C7.6888,5.79427 6.90104,6.47135 5.97656,7.10938 C5.07812,7.73438 4.15365,8.29427 3.20312,8.78906 C1.27604,9.76562 0.208333,10.2539 0,10.2539 C-0.169271,10.2539 -0.253906,10.1693 -0.253906,10 C-0.253906,9.9349 -0.227865,9.8763 -0.175781,9.82422 C0.488281,9.43359 1.30208,8.93229 2.26562,8.32031 C2.89062,7.91667 3.61979,7.35677 4.45312,6.64062 C5.26042,5.96354 5.88542,5.32552 6.32812,4.72656 C6.78385,4.14062 7.20052,3.41146 7.57812,2.53906 C7.90365,1.66667 8.06641,0.807292 8.06641,-0.0390625 C8.06641,-1.30208 7.75391,-2.40234 7.12891,-3.33984 C6.50391,-4.27734 5.67708,-4.74609 4.64844,-4.74609 C3.91927,-4.74609 3.29427,-4.51172 2.77344,-4.04297 C2.21354,-3.5612 1.8099,-2.95573 1.5625,-2.22656 C1.8099,-2.33073 2.03776,-2.38281 2.24609,-2.38281 C2.79297,-2.38281 3.26172,-2.1875 3.65234,-1.79688 C4.04297,-1.38021 4.23828,-0.904948 4.23828,-0.371094 C4.23828,0.188802 4.04948,0.690104 3.67188,1.13281 C3.26823,1.53646 2.79297,1.73828 2.24609,1.73828 C1.66016,1.73828 1.13281,1.53646 0.664062,1.13281 C0.221354,0.690104 0,0.188802 0,-0.371094 C0,-1.71224 0.455729,-2.85807 1.36719,-3.80859 C2.26562,-4.77214 3.35938,-5.25391 4.64844,-5.25391"/>
<path class="TimeSig" transform="matrix(0.850394,0,0,0.850394,18.2157,21.2598)" d="M3.39844,-0.117188 C2.90365,-0.117188 2.59766,0.078125 2.48047,0.46875 C2.38932,0.755208 2.34375,1.23698 2.34375,1.91406 L2.34375,2.5 C2.34375,3.17708 2.38932,3.65885 2.48047,3.94531 C2.59766,4.33594 2.90365,4.53125 3.39844,4.53125 C3.94531,4.53125 4.29036,4.30339 4.43359,3.84766 C4.5638,3.41797 4.62891,2.87109 4.62891,2.20703 C4.62891,1.4388 4.55729,0.859375 4.41406,0.46875 C4.25781,0.078125 3.91927,-0.117188 3.39844,-0.117188 M2.34375,-0.3125 C2.73438,-0.46875 3.08594,-0.559896 3.39844,-0.585938 C4.4401,-0.585938 5.27344,-0.351562 5.89844,0.117188 C6.4974,0.598958 6.79688,1.28906 6.79688,2.1875 C6.79688,3.09896 6.49089,3.80208 5.87891,4.29688 C5.26693,4.76562 4.4401,5 3.39844,5 C2.33073,5 1.4974,4.50521 0.898438,3.51562 C0.299479,2.52604 0,1.35417 0,0 C0,-1.32812 0.351562,-2.5 1.05469,-3.51562 C1.77083,-4.50521 2.6888,-5 3.80859,-5 C4.53776,-5 5.18229,-4.8112 5.74219,-4.43359 C6.28906,-4.05599 6.5625,-3.5612 6.5625,-2.94922 C6.5625,-2.57161 6.43229,-2.25911 6.17188,-2.01172 C5.9375,-1.7513 5.63802,-1.62109 5.27344,-1.62109 C4.90885,-1.62109 4.59635,-1.7513 4.33594,-2.01172 C4.07552,-2.27214 3.94531,-2.58464 3.94531,-2.94922 C3.94531,-3.09245 4.07552,-3.25521 4.33594,-3.4375 C4.59635,-3.59375 4.72656,-3.75651 4.72656,-3.92578 C4.72656,-4.10807 4.63542,-4.25781 4.45312,-4.375 C4.24479,-4.47917 4.02995,-4.53125 3.80859,-4.53125 C3.20964,-4.53125 2.8125,-4.29036 2.61719,-3.80859 C2.40885,-3.33984 2.30469,-2.65625 2.30469,-1.75781 C2.30469,-1.4974 2.3112,-1.25651 2.32422,-1.03516 C2.33724,-0.813802 2.34375,-0.572917 2.34375,-0.3125"/>
<path class="TimeSig" transform="matrix(0.850394,0,0,0.850394,17.9234,29.7638)" d="M5.17578,-0.761719 C5.82682,-1.47786 6.15234,-2.15495 6.15234,-2.79297 C6.15234,-3.32682 5.92448,-3.75 5.46875,-4.0625 C5.02604,-4.375 4.47917,-4.53125 3.82812,-4.53125 C3.3724,-4.53125 3.00781,-4.38802 2.73438,-4.10156 C2.46094,-3.8151 2.32422,-3.48958 2.32422,-3.125 C2.32422,-2.66927 2.52604,-2.31771 2.92969,-2.07031 L5.17578,-0.761719 M5.78125,-0.429688 C6.88802,0.208333 7.44141,1.0612 7.44141,2.12891 C7.44141,2.92318 7.10938,3.59375 6.44531,4.14062 C5.78125,4.71354 4.85026,5 3.65234,5 C2.63672,5 1.78385,4.73958 1.09375,4.21875 C0.364583,3.69792 0,3.02734 0,2.20703 C0,1.90755 0.0911458,1.58854 0.273438,1.25 C0.442708,0.950521 0.611979,0.716146 0.78125,0.546875 C0.859375,0.442708 1.10677,0.195312 1.52344,-0.195312 C0.716146,-0.768229 0.30599,-1.47786 0.292969,-2.32422 C0.292969,-3.04036 0.611979,-3.67188 1.25,-4.21875 C1.88802,-4.73958 2.7474,-5 3.82812,-5 C4.6875,-5 5.44271,-4.80469 6.09375,-4.41406 C6.71875,-4.02344 7.03125,-3.48307 7.03125,-2.79297 C7.00521,-2.08984 6.58854,-1.30208 5.78125,-0.429688 M2.12891,0.15625 C1.32161,0.872396 0.904948,1.55599 0.878906,2.20703 C0.878906,2.87109 1.15885,3.42448 1.71875,3.86719 C2.2526,4.3099 2.89714,4.53125 3.65234,4.53125 C4.1862,4.53125 4.60286,4.36198 4.90234,4.02344 C5.21484,3.71094 5.37109,3.32682 5.37109,2.87109 C5.37109,2.3112 5.14323,1.90104 4.6875,1.64062 L2.12891,0.15625 "/>
<path class="Hook" transform="matrix(0.850394,0,0,0.850394,452.217,13.8189)" d="M0,5 L0,0 L0.625,0 C0.625,0.742188 0.768229,1.48438 1.05469,2.22656 C1.36719,3.03385 1.71224,3.73698 2.08984,4.33594 C2.36328,4.76562 2.77344,5.42318 3.32031,6.30859 C3.73698,6.98568 4.08854,7.69531 4.375,8.4375 C4.66146,9.17969 4.80469,9.92188 4.80469,10.6641 C4.80469,12.0182 4.52474,13.3984 3.96484,14.8047 C3.8737,14.9609 3.75,15.0391 3.59375,15.0391 C3.46354,15.0391 3.34635,14.987 3.24219,14.8828 C3.16406,14.8047 3.125,14.707 3.125,14.5898 L3.125,14.4922 C3.6849,13.2031 3.96484,11.9271 3.96484,10.6641 C3.96484,10.013 3.76953,9.3099 3.37891,8.55469 C2.98828,7.78646 2.59115,7.17448 2.1875,6.71875 C1.73177,6.1849 1.21094,5.61198 0.625,5 L0,5 "/>
<path class="Hook" transform="matrix(0.850394,0,0,0.850394,409.441,19.1339)" d="M0,5 L0,0 L0.625,0 C0.625,0.742188 0.768229,1.48438 1.05469,2.22656 C1.36719,3.03385 1.71224,3.73698 2.08984,4.33594 C2.36328,4.76562 2.77344,5.42318 3.32031,6.30859 C3.73698,6.98568 4.08854,7.69531 4.375,8.4375 C4.66146,9.17969 4.80469,9.92188 4.80469,10.6641 C4.80469,12.0182 4.52474,13.3984 3.96484,14.8047 C3.8737,14.9609 3.75,15.0391 3.59375,15.0391 C3.46354,15.0391 3.34635,14.987 3.24219,14.8828 C3.16406,14.8047 3.125,14.707 3.125,14.5898 L3.125,14.4922 C3.6849,13.2031 3.96484,11.9271 3.96484,10.6641 C3.96484,10.013 3.76953,9.3099 3.37891,8.55469 C2.98828,7.78646 2.59115,7.17448 2.1875,6.71875 C1.73177,6.1849 1.21094,5.61198 0.625,5 L0,5 "/>
<path class="Hook" transform="matrix(0.850394,0,0,0.850394,335.892,23.3858)" d="M0,5 L0,0 L0.625,0 C0.625,0.742188 0.768229,1.48438 1.05469,2.22656 C1.36719,3.03385 1.71224,3.73698 2.08984,4.33594 C2.36328,4.76562 2.77344,5.42318 3.32031,6.30859 C3.73698,6.98568 4.08854,7.69531 4.375,8.4375 C4.66146,9.17969 4.80469,9.92188 4.80469,10.6641 C4.80469,12.0182 4.52474,13.3984 3.96484,14.8047 C3.8737,14.9609 3.75,15.0391 3.59375,15.0391 C3.46354,15.0391 3.34635,14.987 3.24219,14.8828 C3.16406,14.8047 3.125,14.707 3.125,14.5898 L3.125,14.4922 C3.6849,13.2031 3.96484,11.9271 3.96484,10.6641 C3.96484,10.013 3.76953,9.3099 3.37891,8.55469 C2.98828,7.78646 2.59115,7.17448 2.1875,6.71875 C1.73177,6.1849 1.21094,5.61198 0.625,5 L0,5 "/>
<path class="Hook" transform="matrix(0.850394,0,0,0.850394,155.266,19.1339)" d="M0,5 L0,0 L0.625,0 C0.625,0.742188 0.768229,1.48438 1.05469,2.22656 C1.36719,3.03385 1.71224,3.73698 2.08984,4.33594 C2.36328,4.76562 2.77344,5.42318 3.32031,6.30859 C3.73698,6.98568 4.08854,7.69531 4.375,8.4375 C4.66146,9.17969 4.80469,9.92188 4.80469,10.6641 C4.80469,12.0182 4.52474,13.3984 3.96484,14.8047 C3.8737,14.9609 3.75,15.0391 3.59375,15.0391 C3.46354,15.0391 3.34635,14.987 3.24219,14.8828 C3.16406,14.8047 3.125,14.707 3.125,14.5898 L3.125,14.4922 C3.6849,13.2031 3.96484,11.9271 3.96484,10.6641 C3.96484,10.013 3.76953,9.3099 3.37891,8.55469 C2.98828,7.78646 2.59115,7.17448 2.1875,6.71875 C1.73177,6.1849 1.21094,5.61198 0.625,5 L0,5 "/>
<path class="Hook" transform="matrix(0.850394,0,0,0.850394,81.7159,23.3858)" d="M0,5 L0,0 L0.625,0 C0.625,0.742188 0.768229,1.48438 1.05469,2.22656 C1.36719,3.03385 1.71224,3.73698 2.08984,4.33594 C2.36328,4.76562 2.77344,5.42318 3.32031,6.30859 C3.73698,6.98568 4.08854,7.69531 4.375,8.4375 C4.66146,9.17969 4.80469,9.92188 4.80469,10.6641 C4.80469,12.0182 4.52474,13.3984 3.96484,14.8047 C3.8737,14.9609 3.75,15.0391 3.59375,15.0391 C3.46354,15.0391 3.34635,14.987 3.24219,14.8828 C3.16406,14.8047 3.125,14.707 3.125,14.5898 L3.125,14.4922 C3.6849,13.2031 3.96484,11.9271 3.96484,10.6641 C3.96484,10.013 3.76953,9.3099 3.37891,8.55469 C2.98828,7.78646 2.59115,7.17448 2.1875,6.71875 C1.73177,6.1849 1.21094,5.61198 0.625,5 L0,5 "/>
<path class="FiguredBass" d="M463.278,48.508 L463.278,50.3449 C463.278,50.5266 463.186,50.6174 463.001,50.6174 C462.817,50.6174 462.724,50.5266 462.724,50.3449 L462.724,48.7453 L462.443,48.8596 C462.414,48.8713 462.376,48.8771 462.329,48.8771 C462.253,48.8771 462.185,48.8478 462.127,48.7892 C462.068,48.7307 462.039,48.6633 462.039,48.5871 L462.039,47.6906 C462.039,47.5617 462.1,47.4709 462.223,47.4182 L462.724,47.2072 L462.724,45.3615 L462.443,45.4758 C462.426,45.4816 462.402,45.4846 462.373,45.4846 C462.361,45.4846 462.346,45.4846 462.329,45.4846 C462.241,45.4728 462.171,45.4406 462.118,45.3879 C462.065,45.3351 462.039,45.2736 462.039,45.2033 L462.039,44.3068 C462.039,44.1838 462.1,44.0959 462.223,44.0432 L462.724,43.8322 L462.724,41.9601 C462.724,41.7785 462.817,41.6877 463.001,41.6877 C463.186,41.6877 463.278,41.7785 463.278,41.9601 L463.278,43.6037 L464.412,43.1291 L464.412,41.2922 C464.412,41.1105 464.503,41.0197 464.684,41.0197 C464.866,41.0197 464.957,41.1105 464.957,41.2922 L464.957,42.9094 L465.264,42.7775 C465.294,42.7658 465.326,42.76 465.361,42.76 C465.437,42.76 465.506,42.7892 465.568,42.8478 C465.629,42.9064 465.66,42.9738 465.66,43.05 L465.66,43.9465 C465.66,44.0754 465.595,44.1662 465.467,44.2189 L464.957,44.4299 L464.957,46.2844 L465.264,46.1613 C465.282,46.1555 465.302,46.1525 465.326,46.1525 C465.338,46.1525 465.349,46.1525 465.361,46.1525 C465.461,46.1701 465.535,46.2023 465.585,46.2492 C465.635,46.2961 465.66,46.3576 465.66,46.4338 L465.66,47.3303 C465.66,47.4533 465.595,47.5412 465.467,47.5939 L464.957,47.8049 L464.957,49.6769 C464.957,49.8586 464.866,49.9494 464.684,49.9494 C464.503,49.9494 464.412,49.8586 464.412,49.6769 L464.412,48.0334 L463.278,48.508 M463.278,46.9787 L464.412,46.5129 L464.412,44.6584 L463.278,45.133 L463.278,46.9787 "/>
<path class="FiguredBass" d="M450.311,42.549 C449.877,42.549 449.589,42.7233 449.445,43.072 C449.302,43.4206 449.23,43.9142 449.23,44.5529 L449.23,45.59 C449.534,45.467 449.798,45.4025 450.021,45.3967 C450.782,45.3967 451.382,45.5651 451.818,45.902 C452.255,46.239 452.473,46.7399 452.473,47.405 C452.473,48.07 452.252,48.5725 451.809,48.9123 C451.367,49.2521 450.771,49.4221 450.021,49.4221 C449.253,49.4221 448.653,49.0661 448.219,48.3542 C447.785,47.6423 447.569,46.7971 447.569,45.8185 C447.569,44.8459 447.821,44.0021 448.324,43.2873 C448.828,42.5725 449.49,42.215 450.311,42.215 C450.85,42.215 451.316,42.3513 451.708,42.6237 C452.101,42.8962 452.297,43.2551 452.297,43.7004 C452.297,43.9582 452.203,44.1808 452.016,44.3683 C451.828,44.5558 451.604,44.6496 451.344,44.6496 C451.083,44.6496 450.859,44.5558 450.671,44.3683 C450.484,44.1808 450.39,43.9582 450.39,43.7004 C450.39,43.4484 450.484,43.2258 450.671,43.0324 C450.736,42.9562 450.826,42.8918 450.944,42.8391 C450.914,42.7629 450.856,42.7043 450.768,42.6633 C450.639,42.5871 450.487,42.549 450.311,42.549 M450.741,46.1437 C450.636,45.8683 450.405,45.7307 450.047,45.7307 C449.69,45.7307 449.469,45.8683 449.384,46.1437 C449.299,46.4191 449.256,46.8381 449.256,47.4006 C449.256,48.0627 449.299,48.508 449.384,48.7365 C449.469,48.965 449.69,49.0793 450.047,49.0793 C450.405,49.0793 450.636,48.9416 450.741,48.6662 C450.847,48.3908 450.9,47.9704 450.9,47.405 C450.9,46.8395 450.847,46.4191 450.741,46.1437"/>
<path class="FiguredBass" d="M407.535,42.549 C407.101,42.549 406.813,42.7233 406.669,43.072 C406.526,43.4206 406.454,43.9142 406.454,44.5529 L406.454,45.59 C406.759,45.467 407.022,45.4025 407.245,45.3967 C408.007,45.3967 408.606,45.5651 409.042,45.902 C409.479,46.239 409.697,46.7399 409.697,47.405 C409.697,48.07 409.476,48.5725 409.034,48.9123 C408.591,49.2521 407.995,49.4221 407.245,49.4221 C406.477,49.4221 405.877,49.0661 405.443,48.3542 C405.01,47.6423 404.793,46.7971 404.793,45.8185 C404.793,44.8459 405.045,44.0021 405.549,43.2873 C406.053,42.5725 406.715,42.215 407.535,42.215 C408.074,42.215 408.54,42.3513 408.933,42.6237 C409.325,42.8962 409.521,43.2551 409.521,43.7004 C409.521,43.9582 409.428,44.1808 409.24,44.3683 C409.053,44.5558 408.829,44.6496 408.568,44.6496 C408.307,44.6496 408.083,44.5558 407.895,44.3683 C407.708,44.1808 407.614,43.9582 407.614,43.7004 C407.614,43.4484 407.708,43.2258 407.895,43.0324 C407.96,42.9562 408.051,42.8918 408.168,42.8391 C408.139,42.7629 408.08,42.7043 407.992,42.6633 C407.863,42.5871 407.711,42.549 407.535,42.549 M407.966,46.1437 C407.86,45.8683 407.629,45.7307 407.271,45.7307 C406.914,45.7307 406.693,45.8683 406.608,46.1437 C406.523,46.4191 406.48,46.8381 406.48,47.4006 C406.48,48.0627 406.523,48.508 406.608,48.7365 C406.693,48.965 406.914,49.0793 407.271,49.0793 C407.629,49.0793 407.86,48.9416 407.966,48.6662 C408.071,48.3908 408.124,47.9704 408.124,47.405 C408.124,46.8395 408.071,46.4191 407.966,46.1437"/>
<path class="FiguredBass" d="M384.405,45.5988 C384.405,45.6926 384.458,45.7834 384.563,45.8713 C384.669,45.9592 384.784,46.0427 384.91,46.1218 C385.036,46.2009 385.152,46.3503 385.257,46.57 C385.363,46.7897 385.416,47.0666 385.416,47.4006 C385.416,48.0451 385.172,48.5432 384.686,48.8947 C384.2,49.2463 383.585,49.4221 382.84,49.4221 C382.243,49.4221 381.723,49.2726 381.28,48.9738 C380.838,48.675 380.617,48.2824 380.617,47.7961 C380.617,47.5383 380.71,47.3141 380.898,47.1237 C381.085,46.9333 381.31,46.8381 381.57,46.8381 C381.831,46.8381 382.052,46.9318 382.234,47.1193 C382.416,47.3068 382.506,47.5324 382.506,47.7961 C382.506,47.9133 382.41,48.0407 382.216,48.1784 C382.023,48.3161 381.926,48.4435 381.926,48.5607 C381.926,48.7424 382.016,48.8757 382.194,48.9606 C382.373,49.0456 382.588,49.0881 382.84,49.0881 C383.169,49.0881 383.401,48.9255 383.539,48.6003 C383.677,48.2751 383.746,47.8752 383.746,47.4006 L383.746,47.1721 C383.746,46.8557 383.735,46.6154 383.715,46.4514 C383.694,46.2873 383.63,46.1408 383.522,46.0119 C383.413,45.883 383.248,45.8185 383.025,45.8185 L381.874,45.8185 C381.739,45.8185 381.671,45.7453 381.671,45.5988 C381.671,45.4641 381.739,45.3967 381.874,45.3967 L383.025,45.3967 C383.265,45.3967 383.453,45.3058 383.587,45.1242 C383.634,45.0598 383.672,44.9543 383.702,44.8078 C383.731,44.6144 383.746,44.3361 383.746,43.9728 L383.746,43.8586 C383.746,42.9855 383.423,42.549 382.779,42.549 C382.21,42.549 381.926,42.7072 381.926,43.0236 C381.926,43.1291 382.013,43.2419 382.186,43.362 C382.358,43.4821 382.445,43.5949 382.445,43.7004 C382.445,43.9289 382.364,44.1252 382.203,44.2892 C382.042,44.4533 381.846,44.5353 381.614,44.5353 C381.383,44.5353 381.188,44.4533 381.03,44.2892 C380.872,44.1252 380.793,43.9289 380.793,43.7004 C380.793,43.2492 380.989,42.8889 381.381,42.6193 C381.774,42.3498 382.24,42.215 382.779,42.215 C383.488,42.215 384.071,42.3513 384.528,42.6237 C384.985,42.8962 385.213,43.3078 385.213,43.8586 C385.213,44.2512 385.172,44.5558 385.09,44.7726 C385.008,44.9894 384.915,45.1213 384.809,45.1682 C384.704,45.215 384.61,45.2692 384.528,45.3308 C384.446,45.3923 384.405,45.4816 384.405,45.5988"/>
<path class="FiguredBass" d="M347.642,42.3996 C347.865,42.3996 348.099,42.3674 348.346,42.3029 L348.741,42.1975 C348.817,42.1975 348.877,42.2267 348.921,42.2853 C348.965,42.3439 348.961,42.3967 348.908,42.4435 L344.821,47.1984 L347.221,47.1984 L347.221,45.3176 C347.221,45.1828 347.257,45.0788 347.33,45.0056 C347.404,44.9323 347.497,44.8737 347.612,44.8298 C347.726,44.7858 347.875,44.6555 348.06,44.4387 C348.244,44.2219 348.422,43.9289 348.592,43.5598 C348.621,43.5012 348.665,43.4719 348.724,43.4719 C348.847,43.4719 348.908,43.5392 348.908,43.674 L348.908,47.1984 L349.945,47.1984 C350.092,47.1984 350.165,47.2658 350.165,47.4006 C350.165,47.5471 350.092,47.6203 349.945,47.6203 L348.908,47.6203 L348.908,47.7346 C348.908,48.0978 349.005,48.4142 349.198,48.6838 C349.391,48.9533 349.64,49.0881 349.945,49.0881 C350.062,49.0881 350.121,49.1408 350.121,49.2463 C350.121,49.3635 350.062,49.4221 349.945,49.4221 C349.734,49.4221 349.421,49.3913 349.005,49.3298 C348.589,49.2683 348.274,49.2375 348.06,49.2375 C347.846,49.2375 347.531,49.2683 347.115,49.3298 C346.699,49.3913 346.386,49.4221 346.175,49.4221 C346.057,49.4221 345.999,49.3635 345.999,49.2463 C345.999,49.1408 346.057,49.0881 346.175,49.0881 C346.479,49.0881 346.73,48.9533 346.926,48.6838 C347.122,48.4142 347.221,48.0978 347.221,47.7346 L347.221,47.6203 L344.821,47.6203 C344.669,47.6203 344.556,47.5837 344.483,47.5104 C344.41,47.4372 344.373,47.3625 344.373,47.2863 C344.373,47.257 344.442,47.1559 344.579,46.9831 C344.717,46.8102 344.886,46.5803 345.085,46.2932 C345.284,46.006 345.482,45.6794 345.678,45.3132 C345.874,44.947 346.041,44.5075 346.179,43.9948 C346.317,43.4821 346.386,42.965 346.386,42.4435 C346.386,42.2912 346.45,42.215 346.579,42.215 C346.597,42.215 346.658,42.2297 346.764,42.259 C346.869,42.2883 347.004,42.319 347.168,42.3513 C347.332,42.3835 347.49,42.3996 347.642,42.3996 M354.97,45.5988 C354.97,45.6926 355.022,45.7834 355.128,45.8713 C355.233,45.9592 355.349,46.0427 355.475,46.1218 C355.601,46.2009 355.717,46.3503 355.822,46.57 C355.928,46.7897 355.98,47.0666 355.98,47.4006 C355.98,48.0451 355.737,48.5432 355.251,48.8947 C354.765,49.2463 354.149,49.4221 353.405,49.4221 C352.807,49.4221 352.287,49.2726 351.845,48.9738 C351.403,48.675 351.182,48.2824 351.182,47.7961 C351.182,47.5383 351.275,47.3141 351.463,47.1237 C351.65,46.9333 351.874,46.8381 352.135,46.8381 C352.396,46.8381 352.617,46.9318 352.799,47.1193 C352.98,47.3068 353.071,47.5324 353.071,47.7961 C353.071,47.9133 352.974,48.0407 352.781,48.1784 C352.588,48.3161 352.491,48.4435 352.491,48.5607 C352.491,48.7424 352.58,48.8757 352.759,48.9606 C352.938,49.0456 353.153,49.0881 353.405,49.0881 C353.733,49.0881 353.966,48.9255 354.104,48.6003 C354.242,48.2751 354.31,47.8752 354.31,47.4006 L354.31,47.1721 C354.31,46.8557 354.3,46.6154 354.28,46.4514 C354.259,46.2873 354.195,46.1408 354.086,46.0119 C353.978,45.883 353.812,45.8185 353.59,45.8185 L352.438,45.8185 C352.304,45.8185 352.236,45.7453 352.236,45.5988 C352.236,45.4641 352.304,45.3967 352.438,45.3967 L353.59,45.3967 C353.83,45.3967 354.017,45.3058 354.152,45.1242 C354.199,45.0598 354.237,44.9543 354.266,44.8078 C354.296,44.6144 354.31,44.3361 354.31,43.9728 L354.31,43.8586 C354.31,42.9855 353.988,42.549 353.344,42.549 C352.775,42.549 352.491,42.7072 352.491,43.0236 C352.491,43.1291 352.578,43.2419 352.75,43.362 C352.923,43.4821 353.01,43.5949 353.01,43.7004 C353.01,43.9289 352.929,44.1252 352.768,44.2892 C352.607,44.4533 352.411,44.5353 352.179,44.5353 C351.948,44.5353 351.753,44.4533 351.595,44.2892 C351.436,44.1252 351.357,43.9289 351.357,43.7004 C351.357,43.2492 351.554,42.8889 351.946,42.6193 C352.339,42.3498 352.805,42.215 353.344,42.215 C354.053,42.215 354.636,42.3513 355.093,42.6237 C355.55,42.8962 355.778,43.3078 355.778,43.8586 C355.778,44.2512 355.737,44.5558 355.655,44.7726 C355.573,44.9894 355.479,45.1213 355.374,45.1682 C355.268,45.215 355.175,45.2692 355.093,45.3308 C355.011,45.3923 354.97,45.4816 354.97,45.5988 M360.381,49.4221 C359.812,49.4221 359.399,49.2639 359.141,48.9475 C359.048,48.8303 358.928,48.7219 358.781,48.6223 C358.635,48.5226 358.474,48.4728 358.298,48.4728 C358.069,48.4728 357.864,48.5446 357.682,48.6882 C357.501,48.8317 357.41,49.0236 357.41,49.2639 C357.41,49.3693 357.357,49.4221 357.252,49.4221 C357.135,49.4221 357.076,49.3693 357.076,49.2639 C357.076,48.9064 357.16,48.5798 357.327,48.2839 C357.494,47.988 357.703,47.739 357.955,47.5368 C358.207,47.3347 358.479,47.1179 358.772,46.8864 C359.065,46.655 359.336,46.4308 359.585,46.2141 C359.834,45.9973 360.042,45.7233 360.209,45.3923 C360.376,45.0612 360.46,44.6994 360.46,44.3068 C360.46,43.8146 360.379,43.3986 360.218,43.0588 C360.057,42.7189 359.804,42.549 359.458,42.549 C359.259,42.549 359.086,42.5974 358.939,42.694 C358.793,42.7907 358.72,42.9182 358.72,43.0764 C358.72,43.1994 358.803,43.3605 358.97,43.5598 C359.137,43.759 359.221,43.926 359.221,44.0607 C359.221,44.342 359.125,44.5778 358.935,44.7683 C358.744,44.9587 358.515,45.0539 358.245,45.0539 C357.964,45.0539 357.728,44.9558 357.537,44.7595 C357.347,44.5632 357.252,44.3303 357.252,44.0607 C357.252,43.5217 357.467,43.0793 357.898,42.7336 C358.328,42.3879 358.849,42.215 359.458,42.215 C360.179,42.215 360.807,42.4099 361.343,42.7995 C361.879,43.1891 362.147,43.6916 362.147,44.3068 C362.147,44.7228 362.073,45.0832 361.923,45.3879 C361.774,45.6926 361.56,45.9387 361.282,46.1262 C361.003,46.3137 360.725,46.4733 360.447,46.6052 C360.168,46.737 359.842,46.8791 359.467,47.0314 C359.092,47.1838 358.79,47.3332 358.561,47.4797 C358.684,47.4504 358.81,47.4357 358.939,47.4357 C359.373,47.4357 359.824,47.5764 360.293,47.8576 C360.762,48.1389 361.131,48.2795 361.4,48.2795 C361.553,48.2795 361.677,48.2516 361.774,48.196 C361.87,48.1403 361.933,48.0788 361.963,48.0114 C361.992,47.944 362.026,47.881 362.064,47.8225 C362.102,47.7639 362.144,47.7346 362.191,47.7346 C362.308,47.7346 362.367,47.7932 362.367,47.9103 C362.367,48.1623 362.185,48.4772 361.822,48.8552 C361.459,49.2331 360.978,49.4221 360.381,49.4221"/>
<path class="FiguredBass" d="M333.985,42.549 C333.552,42.549 333.263,42.7233 333.12,43.072 C332.976,43.4206 332.904,43.9142 332.904,44.5529 L332.904,45.59 C333.209,45.467 333.473,45.4025 333.695,45.3967 C334.457,45.3967 335.056,45.5651 335.493,45.902 C335.929,46.239 336.148,46.7399 336.148,47.405 C336.148,48.07 335.926,48.5725 335.484,48.9123 C335.042,49.2521 334.445,49.4221 333.695,49.4221 C332.928,49.4221 332.327,49.0661 331.894,48.3542 C331.46,47.6423 331.243,46.7971 331.243,45.8185 C331.243,44.8459 331.495,44.0021 331.999,43.2873 C332.503,42.5725 333.165,42.215 333.985,42.215 C334.525,42.215 334.99,42.3513 335.383,42.6237 C335.776,42.8962 335.972,43.2551 335.972,43.7004 C335.972,43.9582 335.878,44.1808 335.691,44.3683 C335.503,44.5558 335.279,44.6496 335.018,44.6496 C334.757,44.6496 334.533,44.5558 334.346,44.3683 C334.158,44.1808 334.065,43.9582 334.065,43.7004 C334.065,43.4484 334.158,43.2258 334.346,43.0324 C334.41,42.9562 334.501,42.8918 334.618,42.8391 C334.589,42.7629 334.53,42.7043 334.442,42.6633 C334.314,42.5871 334.161,42.549 333.985,42.549 M334.416,46.1437 C334.311,45.8683 334.079,45.7307 333.722,45.7307 C333.364,45.7307 333.143,45.8683 333.058,46.1437 C332.973,46.4191 332.931,46.8381 332.931,47.4006 C332.931,48.0627 332.973,48.508 333.058,48.7365 C333.143,48.965 333.364,49.0793 333.722,49.0793 C334.079,49.0793 334.311,48.9416 334.416,48.6662 C334.522,48.3908 334.574,47.9704 334.574,47.405 C334.574,46.8395 334.522,46.4191 334.416,46.1437"/>
<path class="FiguredBass" d="M234.329,48.508 L234.329,50.3449 C234.329,50.5266 234.237,50.6174 234.052,50.6174 C233.868,50.6174 233.776,50.5266 233.776,50.3449 L233.776,48.7453 L233.494,48.8596 C233.465,48.8713 233.427,48.8771 233.38,48.8771 C233.304,48.8771 233.237,48.8478 233.178,48.7892 C233.119,48.7307 233.09,48.6633 233.09,48.5871 L233.09,47.6906 C233.09,47.5617 233.152,47.4709 233.275,47.4182 L233.776,47.2072 L233.776,45.3615 L233.494,45.4758 C233.477,45.4816 233.453,45.4846 233.424,45.4846 C233.412,45.4846 233.398,45.4846 233.38,45.4846 C233.292,45.4728 233.222,45.4406 233.169,45.3879 C233.116,45.3351 233.09,45.2736 233.09,45.2033 L233.09,44.3068 C233.09,44.1838 233.152,44.0959 233.275,44.0432 L233.776,43.8322 L233.776,41.9601 C233.776,41.7785 233.868,41.6877 234.052,41.6877 C234.237,41.6877 234.329,41.7785 234.329,41.9601 L234.329,43.6037 L235.463,43.1291 L235.463,41.2922 C235.463,41.1105 235.554,41.0197 235.736,41.0197 C235.917,41.0197 236.008,41.1105 236.008,41.2922 L236.008,42.9094 L236.316,42.7775 C236.345,42.7658 236.377,42.76 236.412,42.76 C236.488,42.76 236.557,42.7892 236.619,42.8478 C236.68,42.9064 236.711,42.9738 236.711,43.05 L236.711,43.9465 C236.711,44.0754 236.647,44.1662 236.518,44.2189 L236.008,44.4299 L236.008,46.2844 L236.316,46.1613 C236.333,46.1555 236.354,46.1525 236.377,46.1525 C236.389,46.1525 236.401,46.1525 236.412,46.1525 C236.512,46.1701 236.587,46.2023 236.636,46.2492 C236.686,46.2961 236.711,46.3576 236.711,46.4338 L236.711,47.3303 C236.711,47.4533 236.647,47.5412 236.518,47.5939 L236.008,47.8049 L236.008,49.6769 C236.008,49.8586 235.917,49.9494 235.736,49.9494 C235.554,49.9494 235.463,49.8586 235.463,49.6769 L235.463,48.0334 L234.329,48.508 M234.329,46.9787 L235.463,46.5129 L235.463,44.6584 L234.329,45.133 L234.329,46.9787 "/>
<path class="FiguredBass" d="M201.687,42.549 C201.253,42.549 200.964,42.7233 200.821,43.072 C200.677,43.4206 200.606,43.9142 200.606,44.5529 L200.606,45.59 C200.91,45.467 201.174,45.4025 201.397,45.3967 C202.158,45.3967 202.757,45.5651 203.194,45.902 C203.63,46.239 203.849,46.7399 203.849,47.405 C203.849,48.07 203.627,48.5725 203.185,48.9123 C202.743,49.2521 202.147,49.4221 201.397,49.4221 C200.629,49.4221 200.028,49.0661 199.595,48.3542 C199.161,47.6423 198.944,46.7971 198.944,45.8185 C198.944,44.8459 199.196,44.0021 199.7,43.2873 C200.204,42.5725 200.866,42.215 201.687,42.215 C202.226,42.215 202.691,42.3513 203.084,42.6237 C203.477,42.8962 203.673,43.2551 203.673,43.7004 C203.673,43.9582 203.579,44.1808 203.392,44.3683 C203.204,44.5558 202.98,44.6496 202.719,44.6496 C202.459,44.6496 202.234,44.5558 202.047,44.3683 C201.859,44.1808 201.766,43.9582 201.766,43.7004 C201.766,43.4484 201.859,43.2258 202.047,43.0324 C202.111,42.9562 202.202,42.8918 202.319,42.8391 C202.29,42.7629 202.232,42.7043 202.144,42.6633 C202.015,42.5871 201.862,42.549 201.687,42.549 M202.117,46.1437 C202.012,45.8683 201.78,45.7307 201.423,45.7307 C201.065,45.7307 200.844,45.8683 200.759,46.1437 C200.674,46.4191 200.632,46.8381 200.632,47.4006 C200.632,48.0627 200.674,48.508 200.759,48.7365 C200.844,48.965 201.065,49.0793 201.423,49.0793 C201.78,49.0793 202.012,48.9416 202.117,48.6662 C202.223,48.3908 202.275,47.9704 202.275,47.405 C202.275,46.8395 202.223,46.4191 202.117,46.1437"/>
<path class="FiguredBass" d="M170.141,48.798 C170.182,48.8625 170.241,48.9182 170.317,48.965 C170.463,49.0529 170.616,49.0939 170.774,49.0881 C171.208,49.0881 171.496,48.9138 171.64,48.5651 C171.783,48.2165 171.855,47.7228 171.855,47.0842 L171.855,46.0471 C171.55,46.1701 171.287,46.2346 171.064,46.2404 C170.302,46.2404 169.703,46.072 169.267,45.735 C168.83,45.3981 168.612,44.8972 168.612,44.2321 C168.612,43.5671 168.833,43.0646 169.275,42.7248 C169.718,42.385 170.314,42.215 171.064,42.215 C171.832,42.215 172.432,42.571 172.866,43.2829 C173.299,43.9948 173.516,44.84 173.516,45.8185 C173.516,46.7912 173.263,47.635 172.756,48.3498 C172.249,49.0646 171.588,49.4221 170.774,49.4221 C170.235,49.4221 169.769,49.2858 169.377,49.0134 C168.984,48.7409 168.788,48.382 168.788,47.9367 C168.788,47.6789 168.881,47.4562 169.069,47.2687 C169.256,47.0812 169.479,46.9875 169.737,46.9875 C169.995,46.9875 170.217,47.0812 170.405,47.2687 C170.592,47.4562 170.686,47.6789 170.686,47.9367 C170.686,48.1945 170.589,48.4201 170.396,48.6135 C170.32,48.6896 170.235,48.7512 170.141,48.798 M170.343,45.4933 C170.449,45.7687 170.679,45.9064 171.033,45.9064 C171.388,45.9064 171.609,45.7687 171.697,45.4933 C171.785,45.218 171.829,44.799 171.829,44.2365 C171.829,43.5744 171.785,43.1291 171.697,42.9006 C171.609,42.6721 171.388,42.5578 171.033,42.5578 C170.679,42.5578 170.449,42.6955 170.343,42.9709 C170.238,43.2463 170.185,43.6667 170.185,44.2321 C170.185,44.7975 170.238,45.218 170.343,45.4933 M178.233,45.2736 C178.702,44.7639 178.936,44.2717 178.936,43.7971 C178.936,43.4103 178.771,43.1057 178.439,42.883 C178.108,42.6603 177.711,42.549 177.249,42.549 C176.92,42.549 176.658,42.6516 176.462,42.8566 C176.266,43.0617 176.168,43.299 176.168,43.5685 C176.168,43.8967 176.311,44.1457 176.598,44.3156 L178.233,45.2736 M178.664,45.5197 C179.46,45.9826 179.859,46.592 179.859,47.3478 C179.859,47.9162 179.616,48.404 179.129,48.8112 C178.643,49.2184 177.978,49.4221 177.134,49.4221 C176.425,49.4221 175.809,49.2346 175.284,48.8596 C174.76,48.4846 174.498,47.9982 174.498,47.4006 C174.498,47.1779 174.562,46.9523 174.691,46.7238 C174.82,46.4953 174.94,46.3239 175.051,46.2097 C175.163,46.0954 175.344,45.9182 175.596,45.6779 C175.01,45.2736 174.717,44.7639 174.717,44.1486 C174.717,43.6213 174.943,43.1672 175.394,42.7863 C175.845,42.4055 176.463,42.215 177.249,42.215 C177.876,42.215 178.419,42.3571 178.879,42.6413 C179.339,42.9255 179.569,43.3107 179.569,43.7971 C179.569,44.3185 179.267,44.8928 178.664,45.5197 M176.027,45.9328 C175.429,46.4543 175.13,46.9435 175.13,47.4006 C175.13,47.881 175.33,48.2824 175.728,48.6047 C176.127,48.9269 176.595,49.0881 177.134,49.0881 C177.509,49.0881 177.81,48.968 178.035,48.7277 C178.261,48.4875 178.374,48.2092 178.374,47.8928 C178.374,47.4885 178.207,47.1896 177.873,46.9963 L176.027,45.9328 "/>
<path class="FiguredBass" d="M153.359,42.549 C152.926,42.549 152.637,42.7233 152.493,43.072 C152.35,43.4206 152.278,43.9142 152.278,44.5529 L152.278,45.59 C152.583,45.467 152.846,45.4025 153.069,45.3967 C153.831,45.3967 154.43,45.5651 154.866,45.902 C155.303,46.239 155.521,46.7399 155.521,47.405 C155.521,48.07 155.3,48.5725 154.858,48.9123 C154.415,49.2521 153.819,49.4221 153.069,49.4221 C152.302,49.4221 151.701,49.0661 151.267,48.3542 C150.834,47.6423 150.617,46.7971 150.617,45.8185 C150.617,44.8459 150.869,44.0021 151.373,43.2873 C151.877,42.5725 152.539,42.215 153.359,42.215 C153.898,42.215 154.364,42.3513 154.757,42.6237 C155.149,42.8962 155.345,43.2551 155.345,43.7004 C155.345,43.9582 155.252,44.1808 155.064,44.3683 C154.877,44.5558 154.653,44.6496 154.392,44.6496 C154.131,44.6496 153.907,44.5558 153.719,44.3683 C153.532,44.1808 153.438,43.9582 153.438,43.7004 C153.438,43.4484 153.532,43.2258 153.719,43.0324 C153.784,42.9562 153.875,42.8918 153.992,42.8391 C153.963,42.7629 153.904,42.7043 153.816,42.6633 C153.687,42.5871 153.535,42.549 153.359,42.549 M153.79,46.1437 C153.684,45.8683 153.453,45.7307 153.095,45.7307 C152.738,45.7307 152.517,45.8683 152.432,46.1437 C152.347,46.4191 152.304,46.8381 152.304,47.4006 C152.304,48.0627 152.347,48.508 152.432,48.7365 C152.517,48.965 152.738,49.0793 153.095,49.0793 C153.453,49.0793 153.684,48.9416 153.79,48.6662 C153.895,48.3908 153.948,47.9704 153.948,47.405 C153.948,46.8395 153.895,46.4191 153.79,46.1437"/>
<path class="FiguredBass" d="M79.8095,42.549 C79.3759,42.549 79.0874,42.7233 78.9438,43.072 C78.8003,43.4206 78.7285,43.9142 78.7285,44.5529 L78.7285,45.59 C79.0332,45.467 79.2968,45.4025 79.5195,45.3967 C80.2812,45.3967 80.8803,45.5651 81.3169,45.902 C81.7534,46.239 81.9716,46.7399 81.9716,47.405 C81.9716,48.07 81.7505,48.5725 81.3081,48.9123 C80.8657,49.2521 80.2695,49.4221 79.5195,49.4221 C78.7519,49.4221 78.1513,49.0661 77.7177,48.3542 C77.2841,47.6423 77.0674,46.7971 77.0674,45.8185 C77.0674,44.8459 77.3193,44.0021 77.8232,43.2873 C78.3271,42.5725 78.9892,42.215 79.8095,42.215 C80.3486,42.215 80.8144,42.3513 81.207,42.6237 C81.5996,42.8962 81.7959,43.2551 81.7959,43.7004 C81.7959,43.9582 81.7021,44.1808 81.5146,44.3683 C81.3271,44.5558 81.103,44.6496 80.8423,44.6496 C80.5815,44.6496 80.3574,44.5558 80.1699,44.3683 C79.9824,44.1808 79.8886,43.9582 79.8886,43.7004 C79.8886,43.4484 79.9824,43.2258 80.1699,43.0324 C80.2343,42.9562 80.3252,42.8918 80.4424,42.8391 C80.4131,42.7629 80.3545,42.7043 80.2666,42.6633 C80.1377,42.5871 79.9853,42.549 79.8095,42.549 M80.2402,46.1437 C80.1347,45.8683 79.9033,45.7307 79.5459,45.7307 C79.1884,45.7307 78.9673,45.8683 78.8823,46.1437 C78.7973,46.4191 78.7549,46.8381 78.7549,47.4006 C78.7549,48.0627 78.7973,48.508 78.8823,48.7365 C78.9673,48.965 79.1884,49.0793 79.5459,49.0793 C79.9033,49.0793 80.1347,48.9416 80.2402,48.6662 C80.3457,48.3908 80.3984,47.9704 80.3984,47.405 C80.3984,46.8395 80.3457,46.4191 80.2402,46.1437"/>
<path class="StaffText" d="M35.2973,2.276 C34.9553,2.276 34.6523,2.3375 34.3883,2.4605 C34.1243,2.5835 33.9113,2.741 33.7493,2.933 C33.5873,3.125 33.4553,3.35 33.3533,3.608 C33.2513,3.866 33.1808,4.1135 33.1418,4.3505 C33.1028,4.5875 33.0833,4.826 33.0833,5.066 C33.0833,5.9 33.2948,6.5585 33.7178,7.0415 C34.1408,7.5245 34.7183,7.766 35.4503,7.766 C35.7743,7.766 36.0548,7.7135 36.2918,7.6085 C36.5288,7.5035 36.6473,7.379 36.6473,7.235 L36.6473,5.777 C36.6473,5.441 36.6008,5.2295 36.5078,5.1425 C36.4148,5.0555 36.1973,5 35.8553,4.976 L35.8553,4.814 L38.1503,4.814 L38.1503,4.976 C37.8863,5 37.7153,5.0555 37.6373,5.1425 C37.5593,5.2295 37.5203,5.405 37.5203,5.669 L37.5203,7.496 C37.3403,7.652 37.0148,7.796 36.5438,7.928 C36.0728,8.06 35.6453,8.126 35.2613,8.126 C34.9913,8.126 34.7213,8.099 34.4513,8.045 C34.1813,7.991 33.8993,7.892 33.6053,7.748 C33.3113,7.604 33.0533,7.4225 32.8313,7.2035 C32.6093,6.9845 32.4248,6.692 32.2778,6.326 C32.1308,5.96 32.0573,5.543 32.0573,5.075 C32.0573,4.157 32.3468,3.401 32.9258,2.807 C33.5048,2.213 34.2443,1.916 35.1443,1.916 C35.4923,1.916 35.8358,1.9655 36.1748,2.0645 C36.5138,2.1635 36.7103,2.213 36.7643,2.213 C36.8603,2.213 36.9443,2.1845 37.0163,2.1275 C37.0883,2.0705 37.1393,2 37.1693,1.916 L37.3673,1.916 L37.4393,3.815 L37.2323,3.815 C37.0403,3.347 36.8003,2.9735 36.5123,2.6945 C36.2243,2.4155 35.8193,2.276 35.2973,2.276 M40.9356,4.742 C40.8456,4.742 40.7346,4.6895 40.6026,4.5845 C40.4706,4.4795 40.3836,4.427 40.3416,4.427 C40.2216,4.427 40.0866,4.514 39.9366,4.688 C39.7866,4.862 39.7116,5.021 39.7116,5.165 L39.7116,7.19 C39.7116,7.448 39.7626,7.622 39.8646,7.712 C39.9666,7.802 40.1706,7.853 40.4766,7.865 L40.4766,8 L38.3166,8 L38.3166,7.865 C38.6046,7.811 38.7831,7.751 38.8521,7.685 C38.9211,7.619 38.9556,7.472 38.9556,7.244 L38.9556,4.994 C38.9556,4.796 38.9331,4.6565 38.8881,4.5755 C38.8431,4.4945 38.7636,4.454 38.6496,4.454 C38.5536,4.454 38.4486,4.466 38.3346,4.49 L38.3346,4.346 C38.8146,4.19 39.2586,4.028 39.6666,3.86 L39.7116,3.878 L39.7116,4.706 C39.9336,4.388 40.1226,4.1675 40.2786,4.0445 C40.4346,3.9215 40.6056,3.86 40.7916,3.86 C40.9476,3.86 41.0691,3.902 41.1561,3.986 C41.2431,4.07 41.2866,4.187 41.2866,4.337 C41.2866,4.463 41.2551,4.562 41.1921,4.634 C41.1291,4.706 41.0436,4.742 40.9356,4.742 M42.1934,5.507 C42.2054,5.885 42.2564,6.2105 42.3464,6.4835 C42.4364,6.7565 42.5534,6.9605 42.6974,7.0955 C42.8414,7.2305 42.9869,7.3265 43.1339,7.3835 C43.2809,7.4405 43.4354,7.469 43.5974,7.469 C43.8854,7.469 44.1359,7.397 44.3489,7.253 C44.5619,7.109 44.7764,6.866 44.9924,6.524 L45.1364,6.587 C44.9504,7.073 44.6924,7.445 44.3624,7.703 C44.0324,7.961 43.6544,8.09 43.2284,8.09 C42.7124,8.09 42.3029,7.9085 41.9999,7.5455 C41.6969,7.1825 41.5454,6.692 41.5454,6.074 C41.5454,5.408 41.7209,4.8725 42.0719,4.4675 C42.4229,4.0625 42.8744,3.86 43.4264,3.86 C43.8824,3.86 44.2364,3.9965 44.4884,4.2695 C44.7404,4.5425 44.8994,4.955 44.9654,5.507 L42.1934,5.507 M42.2114,5.219 L44.0474,5.219 C43.9874,4.829 43.8944,4.559 43.7684,4.409 C43.6424,4.259 43.4414,4.184 43.1654,4.184 C42.6254,4.184 42.3074,4.529 42.2114,5.219 M46.1778,5.507 C46.1898,5.885 46.2408,6.2105 46.3308,6.4835 C46.4208,6.7565 46.5378,6.9605 46.6818,7.0955 C46.8258,7.2305 46.9713,7.3265 47.1183,7.3835 C47.2653,7.4405 47.4198,7.469 47.5818,7.469 C47.8698,7.469 48.1203,7.397 48.3333,7.253 C48.5463,7.109 48.7608,6.866 48.9768,6.524 L49.1208,6.587 C48.9348,7.073 48.6768,7.445 48.3468,7.703 C48.0168,7.961 47.6388,8.09 47.2128,8.09 C46.6968,8.09 46.2873,7.9085 45.9843,7.5455 C45.6813,7.1825 45.5298,6.692 45.5298,6.074 C45.5298,5.408 45.7053,4.8725 46.0563,4.4675 C46.4073,4.0625 46.8588,3.86 47.4108,3.86 C47.8668,3.86 48.2208,3.9965 48.4728,4.2695 C48.7248,4.5425 48.8838,4.955 48.9498,5.507 L46.1778,5.507 M46.1958,5.219 L48.0318,5.219 C47.9718,4.829 47.8788,4.559 47.7528,4.409 C47.6268,4.259 47.4258,4.184 47.1498,4.184 C46.6098,4.184 46.2918,4.529 46.1958,5.219 M49.3791,4.418 L49.3791,4.265 C49.8231,4.133 50.2371,3.998 50.6211,3.86 L50.6841,3.878 L50.6841,4.589 C50.9901,4.301 51.2316,4.1075 51.4086,4.0085 C51.5856,3.9095 51.7791,3.86 51.9891,3.86 C52.3191,3.86 52.5786,3.9785 52.7676,4.2155 C52.9566,4.4525 53.0511,4.784 53.0511,5.21 L53.0511,7.271 C53.0511,7.493 53.0871,7.6415 53.1591,7.7165 C53.2311,7.7915 53.3781,7.841 53.6001,7.865 L53.6001,8 L51.7281,8 L51.7281,7.865 C51.9561,7.847 52.1076,7.787 52.1826,7.685 C52.2576,7.583 52.2951,7.391 52.2951,7.109 L52.2951,5.228 C52.2951,4.646 52.0761,4.355 51.6381,4.355 C51.4881,4.355 51.3501,4.3895 51.2241,4.4585 C51.0981,4.5275 50.9271,4.664 50.7111,4.868 L50.7111,7.397 C50.7111,7.559 50.7531,7.673 50.8371,7.739 C50.9211,7.805 51.0771,7.847 51.3051,7.865 L51.3051,8 L49.3971,8 L49.3971,7.865 C49.6251,7.847 49.7751,7.7945 49.8471,7.7075 C49.9191,7.6205 49.9551,7.448 49.9551,7.19 L49.9551,4.958 C49.9551,4.736 49.9311,4.5845 49.8831,4.5035 C49.8351,4.4225 49.7481,4.382 49.6221,4.382 C49.5081,4.382 49.4271,4.394 49.3791,4.418 M56.0918,4.04 C56.0978,4.04 56.1458,4.01 56.2358,3.95 L56.3348,3.95 L56.3708,5.174 L56.2358,5.174 C56.1338,4.772 56.0078,4.487 55.8578,4.319 C55.7078,4.151 55.5038,4.067 55.2458,4.067 C55.0418,4.067 54.8753,4.124 54.7463,4.238 C54.6173,4.352 54.5528,4.499 54.5528,4.679 C54.5528,4.937 54.6818,5.141 54.9398,5.291 L55.9118,5.867 C56.1818,6.029 56.3753,6.1925 56.4923,6.3575 C56.6093,6.5225 56.6678,6.716 56.6678,6.938 C56.6678,7.25 56.5433,7.52 56.2943,7.748 C56.0453,7.976 55.7468,8.09 55.3988,8.09 C55.2488,8.09 55.0478,8.063 54.7958,8.009 C54.5438,7.955 54.3878,7.928 54.3278,7.928 C54.2378,7.928 54.1688,7.964 54.1208,8.036 L54.0038,8.036 L54.0038,6.632 L54.1478,6.632 C54.2438,7.052 54.3578,7.349 54.4898,7.523 C54.6818,7.769 54.9488,7.892 55.2908,7.892 C55.5188,7.892 55.7003,7.8335 55.8353,7.7165 C55.9703,7.5995 56.0378,7.442 56.0378,7.244 C56.0378,6.974 55.8818,6.749 55.5698,6.569 L55.0478,6.272 C54.6638,6.056 54.3923,5.849 54.2333,5.651 C54.0743,5.453 53.9948,5.228 53.9948,4.976 C53.9948,4.652 54.1103,4.3865 54.3413,4.1795 C54.5723,3.9725 54.8648,3.869 55.2188,3.869 C55.4168,3.869 55.6028,3.8975 55.7768,3.9545 C55.9508,4.0115 56.0558,4.04 56.0918,4.04 M57.0666,2.393 L57.0666,2.249 C57.6606,2.105 58.1376,1.973 58.4976,1.853 L58.5336,1.871 L58.5336,7.244 C58.5336,7.49 58.5741,7.6505 58.6551,7.7255 C58.7361,7.8005 58.9206,7.847 59.2086,7.865 L59.2086,8 L57.0846,8 L57.0846,7.865 C57.3666,7.841 57.5526,7.787 57.6426,7.703 C57.7326,7.619 57.7776,7.457 57.7776,7.217 L57.7776,2.924 C57.7776,2.714 57.7506,2.57 57.6966,2.492 C57.6426,2.414 57.5436,2.375 57.3996,2.375 C57.2796,2.375 57.1686,2.381 57.0666,2.393 M60.1621,5.507 C60.1741,5.885 60.2251,6.2105 60.3151,6.4835 C60.4051,6.7565 60.5221,6.9605 60.6661,7.0955 C60.8101,7.2305 60.9556,7.3265 61.1026,7.3835 C61.2496,7.4405 61.4041,7.469 61.5661,7.469 C61.8541,7.469 62.1046,7.397 62.3176,7.253 C62.5306,7.109 62.7451,6.866 62.9611,6.524 L63.1051,6.587 C62.9191,7.073 62.6611,7.445 62.3311,7.703 C62.0011,7.961 61.6231,8.09 61.1971,8.09 C60.6811,8.09 60.2716,7.9085 59.9686,7.5455 C59.6656,7.1825 59.5141,6.692 59.5141,6.074 C59.5141,5.408 59.6896,4.8725 60.0406,4.4675 C60.3916,4.0625 60.8431,3.86 61.3951,3.86 C61.8511,3.86 62.2051,3.9965 62.4571,4.2695 C62.7091,4.5425 62.8681,4.955 62.9341,5.507 L60.1621,5.507 M60.1801,5.219 L62.0161,5.219 C61.9561,4.829 61.8631,4.559 61.7371,4.409 C61.6111,4.259 61.4101,4.184 61.1341,4.184 C60.5941,4.184 60.2761,4.529 60.1801,5.219 M64.1465,5.507 C64.1585,5.885 64.2095,6.2105 64.2995,6.4835 C64.3895,6.7565 64.5065,6.9605 64.6505,7.0955 C64.7945,7.2305 64.94,7.3265 65.087,7.3835 C65.234,7.4405 65.3885,7.469 65.5505,7.469 C65.8385,7.469 66.089,7.397 66.302,7.253 C66.515,7.109 66.7295,6.866 66.9455,6.524 L67.0895,6.587 C66.9035,7.073 66.6455,7.445 66.3155,7.703 C65.9855,7.961 65.6075,8.09 65.1815,8.09 C64.6655,8.09 64.256,7.9085 63.953,7.5455 C63.65,7.1825 63.4985,6.692 63.4985,6.074 C63.4985,5.408 63.674,4.8725 64.025,4.4675 C64.376,4.0625 64.8275,3.86 65.3795,3.86 C65.8355,3.86 66.1895,3.9965 66.4415,4.2695 C66.6935,4.5425 66.8525,4.955 66.9185,5.507 L64.1465,5.507 M64.1645,5.219 L66.0005,5.219 C65.9405,4.829 65.8475,4.559 65.7215,4.409 C65.5955,4.259 65.3945,4.184 65.1185,4.184 C64.5785,4.184 64.2605,4.529 64.1645,5.219 M71.4249,3.95 L71.4249,4.085 C71.2869,4.097 71.1849,4.142 71.1189,4.22 C71.0529,4.298 70.9599,4.487 70.8399,4.787 L69.6879,7.676 C69.5679,7.976 69.4839,8.126 69.4359,8.126 C69.3699,8.126 69.2919,7.985 69.2019,7.703 L68.1219,5.12 C67.9299,4.658 67.7889,4.373 67.6989,4.265 C67.6089,4.157 67.4769,4.097 67.3029,4.085 L67.3029,3.95 L69.0669,3.95 L69.0669,4.085 C68.9109,4.097 68.8029,4.121 68.7429,4.157 C68.6829,4.193 68.6529,4.253 68.6529,4.337 C68.6529,4.433 68.6799,4.544 68.7339,4.67 L69.6519,6.974 L70.5429,4.643 C70.5789,4.553 70.5969,4.463 70.5969,4.373 C70.5969,4.205 70.4559,4.109 70.1739,4.085 L70.1739,3.95 L71.4249,3.95 M72.334,5.507 C72.346,5.885 72.397,6.2105 72.487,6.4835 C72.577,6.7565 72.694,6.9605 72.838,7.0955 C72.982,7.2305 73.1275,7.3265 73.2745,7.3835 C73.4215,7.4405 73.576,7.469 73.738,7.469 C74.026,7.469 74.2765,7.397 74.4895,7.253 C74.7025,7.109 74.917,6.866 75.133,6.524 L75.277,6.587 C75.091,7.073 74.833,7.445 74.503,7.703 C74.173,7.961 73.795,8.09 73.369,8.09 C72.853,8.09 72.4435,7.9085 72.1405,7.5455 C71.8375,7.1825 71.686,6.692 71.686,6.074 C71.686,5.408 71.8615,4.8725 72.2125,4.4675 C72.5635,4.0625 73.015,3.86 73.567,3.86 C74.023,3.86 74.377,3.9965 74.629,4.2695 C74.881,4.5425 75.04,4.955 75.106,5.507 L72.334,5.507 M72.352,5.219 L74.188,5.219 C74.128,4.829 74.035,4.559 73.909,4.409 C73.783,4.259 73.582,4.184 73.306,4.184 C72.766,4.184 72.448,4.529 72.352,5.219 M77.8574,4.04 C77.8634,4.04 77.9114,4.01 78.0014,3.95 L78.1004,3.95 L78.1364,5.174 L78.0014,5.174 C77.8994,4.772 77.7734,4.487 77.6234,4.319 C77.4734,4.151 77.2694,4.067 77.0114,4.067 C76.8074,4.067 76.6409,4.124 76.5119,4.238 C76.3829,4.352 76.3184,4.499 76.3184,4.679 C76.3184,4.937 76.4474,5.141 76.7054,5.291 L77.6774,5.867 C77.9474,6.029 78.1409,6.1925 78.2579,6.3575 C78.3749,6.5225 78.4334,6.716 78.4334,6.938 C78.4334,7.25 78.3089,7.52 78.0599,7.748 C77.8109,7.976 77.5124,8.09 77.1644,8.09 C77.0144,8.09 76.8134,8.063 76.5614,8.009 C76.3094,7.955 76.1534,7.928 76.0934,7.928 C76.0034,7.928 75.9344,7.964 75.8864,8.036 L75.7694,8.036 L75.7694,6.632 L75.9134,6.632 C76.0094,7.052 76.1234,7.349 76.2554,7.523 C76.4474,7.769 76.7144,7.892 77.0564,7.892 C77.2844,7.892 77.4659,7.8335 77.6009,7.7165 C77.7359,7.5995 77.8034,7.442 77.8034,7.244 C77.8034,6.974 77.6474,6.749 77.3354,6.569 L76.8134,6.272 C76.4294,6.056 76.1579,5.849 75.9989,5.651 C75.8399,5.453 75.7604,5.228 75.7604,4.976 C75.7604,4.652 75.8759,4.3865 76.1069,4.1795 C76.3379,3.9725 76.6304,3.869 76.9844,3.869 C77.1824,3.869 77.3684,3.8975 77.5424,3.9545 C77.7164,4.0115 77.8214,4.04 77.8574,4.04 M83.6563,1.916 L81.6043,8.126 L80.9923,8.126 L83.0533,1.916 L83.6563,1.916 M88.5175,2.042 C88.7755,2.042 89.0215,2.063 89.2555,2.105 C89.4895,2.147 89.731,2.2205 89.98,2.3255 C90.229,2.4305 90.4285,2.594 90.5785,2.816 C90.7285,3.038 90.8035,3.308 90.8035,3.626 C90.8035,4.424 90.2755,4.922 89.2195,5.12 C89.2015,5.126 89.1865,5.129 89.1745,5.129 L91.0285,7.406 C91.1545,7.556 91.273,7.661 91.384,7.721 C91.495,7.781 91.6375,7.817 91.8115,7.829 L91.8115,8 L90.3625,8 L88.2205,5.228 L87.7165,5.246 L87.7165,7.019 C87.7165,7.343 87.7645,7.553 87.8605,7.649 C87.9565,7.745 88.1785,7.805 88.5265,7.829 L88.5265,8 L86.0335,8 L86.0335,7.829 C86.3695,7.805 86.581,7.7405 86.668,7.6355 C86.755,7.5305 86.7985,7.292 86.7985,6.92 L86.7985,3.023 C86.7985,2.705 86.755,2.4995 86.668,2.4065 C86.581,2.3135 86.3695,2.249 86.0335,2.213 L86.0335,2.042 L88.5175,2.042 M87.7165,4.913 C88.4425,4.901 88.975,4.805 89.314,4.625 C89.653,4.445 89.8225,4.106 89.8225,3.608 C89.8225,3.188 89.689,2.8775 89.422,2.6765 C89.155,2.4755 88.7395,2.375 88.1755,2.375 C87.9955,2.375 87.874,2.3975 87.811,2.4425 C87.748,2.4875 87.7165,2.573 87.7165,2.699 L87.7165,4.913 M94.1125,3.86 C94.6885,3.86 95.1625,4.052 95.5345,4.436 C95.9065,4.82 96.0925,5.306 96.0925,5.894 C96.0925,6.518 95.9005,7.04 95.5165,7.46 C95.1325,7.88 94.6585,8.09 94.0945,8.09 C93.5305,8.09 93.061,7.8875 92.686,7.4825 C92.311,7.0775 92.1235,6.572 92.1235,5.966 C92.1235,5.348 92.308,4.8425 92.677,4.4495 C93.046,4.0565 93.5245,3.86 94.1125,3.86 M92.9335,5.525 C92.9335,6.167 93.0505,6.713 93.2845,7.163 C93.5185,7.613 93.8245,7.838 94.2025,7.838 C94.5385,7.838 94.8025,7.694 94.9945,7.406 C95.1865,7.118 95.2825,6.719 95.2825,6.209 C95.2825,5.591 95.1625,5.087 94.9225,4.697 C94.6825,4.307 94.3735,4.112 93.9955,4.112 C93.6775,4.112 93.421,4.241 93.226,4.499 C93.031,4.757 92.9335,5.099 92.9335,5.525 M96.4218,4.418 L96.4218,4.265 C96.8538,4.145 97.2738,4.01 97.6818,3.86 L97.7448,3.878 L97.7448,4.553 C98.1168,4.271 98.3928,4.085 98.5728,3.995 C98.7528,3.905 98.9418,3.86 99.1398,3.86 C99.6138,3.86 99.9318,4.112 100.094,4.616 C100.562,4.112 101.051,3.86 101.561,3.86 C102.257,3.86 102.605,4.394 102.605,5.462 L102.605,7.316 C102.605,7.652 102.734,7.829 102.992,7.847 L103.226,7.865 L103.226,8 L101.255,8 L101.255,7.865 C101.519,7.835 101.684,7.784 101.75,7.712 C101.816,7.64 101.849,7.475 101.849,7.217 L101.849,5.318 C101.849,4.946 101.801,4.688 101.705,4.544 C101.609,4.4 101.432,4.328 101.174,4.328 C100.778,4.328 100.451,4.511 100.193,4.877 L100.193,7.145 C100.193,7.427 100.236,7.616 100.323,7.712 C100.41,7.808 100.583,7.859 100.841,7.865 L100.841,8 L98.8248,8 L98.8248,7.865 C99.0828,7.847 99.2493,7.799 99.3243,7.721 C99.3993,7.643 99.4368,7.478 99.4368,7.226 L99.4368,5.273 C99.4368,4.643 99.2388,4.328 98.8428,4.328 C98.6748,4.328 98.4873,4.37 98.2803,4.454 C98.0733,4.538 97.9068,4.673 97.7808,4.859 L97.7808,7.397 C97.7808,7.571 97.8228,7.6895 97.9068,7.7525 C97.9908,7.8155 98.1528,7.853 98.3928,7.865 L98.3928,8 L96.3948,8 L96.3948,7.865 C96.6468,7.859 96.8148,7.814 96.8988,7.73 C96.9828,7.646 97.0248,7.481 97.0248,7.235 L97.0248,4.958 C97.0248,4.742 97.0023,4.592 96.9573,4.508 C96.9123,4.424 96.8298,4.382 96.7098,4.382 C96.6198,4.382 96.5238,4.394 96.4218,4.418 M103.53,7.127 C103.53,7.019 103.542,6.9185 103.566,6.8255 C103.59,6.7325 103.632,6.6455 103.692,6.5645 C103.752,6.4835 103.809,6.41 103.863,6.344 C103.917,6.278 103.998,6.2105 104.106,6.1415 C104.214,6.0725 104.304,6.0155 104.376,5.9705 C104.448,5.9255 104.557,5.8715 104.704,5.8085 C104.851,5.7455 104.964,5.6975 105.042,5.6645 C105.12,5.6315 105.243,5.582 105.411,5.516 C105.579,5.45 105.702,5.402 105.78,5.372 L105.78,4.823 C105.78,4.325 105.552,4.076 105.096,4.076 C104.916,4.076 104.763,4.1195 104.637,4.2065 C104.511,4.2935 104.448,4.397 104.448,4.517 C104.448,4.565 104.455,4.631 104.47,4.715 C104.485,4.799 104.493,4.853 104.493,4.877 C104.493,4.979 104.452,5.0675 104.371,5.1425 C104.29,5.2175 104.196,5.255 104.088,5.255 C103.986,5.255 103.896,5.216 103.818,5.138 C103.74,5.06 103.701,4.97 103.701,4.868 C103.701,4.586 103.846,4.3475 104.137,4.1525 C104.428,3.9575 104.787,3.86 105.213,3.86 C105.705,3.86 106.044,3.9785 106.23,4.2155 C106.416,4.4525 106.509,4.814 106.509,5.3 L106.509,7.055 C106.509,7.253 106.528,7.3895 106.567,7.4645 C106.606,7.5395 106.677,7.577 106.779,7.577 C106.905,7.577 107.037,7.52 107.175,7.406 L107.175,7.64 C107.019,7.814 106.882,7.9325 106.765,7.9955 C106.648,8.0585 106.515,8.09 106.365,8.09 C106.179,8.09 106.042,8.039 105.955,7.937 C105.868,7.835 105.813,7.667 105.789,7.433 C105.273,7.871 104.835,8.09 104.475,8.09 C104.199,8.09 103.972,8 103.795,7.82 C103.618,7.64 103.53,7.409 103.53,7.127 M105.78,6.893 L105.78,5.588 C105.24,5.786 104.862,5.978 104.646,6.164 C104.43,6.35 104.322,6.575 104.322,6.839 C104.322,7.085 104.382,7.268 104.502,7.388 C104.622,7.508 104.751,7.568 104.889,7.568 C105.093,7.568 105.312,7.499 105.546,7.361 C105.642,7.307 105.705,7.25 105.735,7.19 C105.765,7.13 105.78,7.031 105.78,6.893 M107.301,4.418 L107.301,4.265 C107.745,4.133 108.159,3.998 108.543,3.86 L108.606,3.878 L108.606,4.589 C108.912,4.301 109.154,4.1075 109.331,4.0085 C109.508,3.9095 109.701,3.86 109.911,3.86 C110.241,3.86 110.501,3.9785 110.69,4.2155 C110.879,4.4525 110.973,4.784 110.973,5.21 L110.973,7.271 C110.973,7.493 111.009,7.6415 111.081,7.7165 C111.153,7.7915 111.3,7.841 111.522,7.865 L111.522,8 L109.65,8 L109.65,7.865 C109.878,7.847 110.03,7.787 110.105,7.685 C110.18,7.583 110.217,7.391 110.217,7.109 L110.217,5.228 C110.217,4.646 109.998,4.355 109.56,4.355 C109.41,4.355 109.272,4.3895 109.146,4.4585 C109.02,4.5275 108.849,4.664 108.633,4.868 L108.633,7.397 C108.633,7.559 108.675,7.673 108.759,7.739 C108.843,7.805 108.999,7.847 109.227,7.865 L109.227,8 L107.319,8 L107.319,7.865 C107.547,7.847 107.697,7.7945 107.769,7.7075 C107.841,7.6205 107.877,7.448 107.877,7.19 L107.877,4.958 C107.877,4.736 107.853,4.5845 107.805,4.5035 C107.757,4.4225 107.67,4.382 107.544,4.382 C107.43,4.382 107.349,4.394 107.301,4.418 M112.475,5.507 C112.487,5.885 112.538,6.2105 112.628,6.4835 C112.718,6.7565 112.835,6.9605 112.979,7.0955 C113.123,7.2305 113.268,7.3265 113.415,7.3835 C113.562,7.4405 113.717,7.469 113.879,7.469 C114.167,7.469 114.417,7.397 114.63,7.253 C114.843,7.109 115.058,6.866 115.274,6.524 L115.418,6.587 C115.232,7.073 114.974,7.445 114.644,7.703 C114.314,7.961 113.936,8.09 113.51,8.09 C112.994,8.09 112.584,7.9085 112.281,7.5455 C111.978,7.1825 111.827,6.692 111.827,6.074 C111.827,5.408 112.002,4.8725 112.353,4.4675 C112.704,4.0625 113.156,3.86 113.708,3.86 C114.164,3.86 114.518,3.9965 114.77,4.2695 C115.022,4.5425 115.181,4.955 115.247,5.507 L112.475,5.507 M112.493,5.219 L114.329,5.219 C114.269,4.829 114.176,4.559 114.05,4.409 C113.924,4.259 113.723,4.184 113.447,4.184 C112.907,4.184 112.589,4.529 112.493,5.219 M117.998,4.04 C118.004,4.04 118.052,4.01 118.142,3.95 L118.241,3.95 L118.277,5.174 L118.142,5.174 C118.04,4.772 117.914,4.487 117.764,4.319 C117.614,4.151 117.41,4.067 117.152,4.067 C116.948,4.067 116.782,4.124 116.653,4.238 C116.524,4.352 116.459,4.499 116.459,4.679 C116.459,4.937 116.588,5.141 116.846,5.291 L117.818,5.867 C118.088,6.029 118.282,6.1925 118.399,6.3575 C118.516,6.5225 118.574,6.716 118.574,6.938 C118.574,7.25 118.45,7.52 118.201,7.748 C117.952,7.976 117.653,8.09 117.305,8.09 C117.155,8.09 116.954,8.063 116.702,8.009 C116.45,7.955 116.294,7.928 116.234,7.928 C116.144,7.928 116.075,7.964 116.027,8.036 L115.91,8.036 L115.91,6.632 L116.054,6.632 C116.15,7.052 116.264,7.349 116.396,7.523 C116.588,7.769 116.855,7.892 117.197,7.892 C117.425,7.892 117.607,7.8335 117.742,7.7165 C117.877,7.5995 117.944,7.442 117.944,7.244 C117.944,6.974 117.788,6.749 117.476,6.569 L116.954,6.272 C116.57,6.056 116.299,5.849 116.14,5.651 C115.981,5.453 115.901,5.228 115.901,4.976 C115.901,4.652 116.017,4.3865 116.248,4.1795 C116.479,3.9725 116.771,3.869 117.125,3.869 C117.323,3.869 117.509,3.8975 117.683,3.9545 C117.857,4.0115 117.962,4.04 117.998,4.04 M119.108,6.083 C119.108,5.417 119.304,4.88 119.697,4.472 C120.09,4.064 120.551,3.86 121.079,3.86 C121.457,3.86 121.782,3.9515 122.055,4.1345 C122.328,4.3175 122.465,4.535 122.465,4.787 C122.465,4.889 122.423,4.9775 122.339,5.0525 C122.255,5.1275 122.153,5.165 122.033,5.165 C121.829,5.165 121.688,5.027 121.61,4.751 L121.556,4.553 C121.508,4.385 121.448,4.271 121.376,4.211 C121.304,4.151 121.187,4.121 121.025,4.121 C120.659,4.121 120.363,4.2665 120.138,4.5575 C119.913,4.8485 119.801,5.225 119.801,5.687 C119.801,6.203 119.931,6.6245 120.192,6.9515 C120.453,7.2785 120.788,7.442 121.196,7.442 C121.454,7.442 121.676,7.379 121.862,7.253 C122.048,7.127 122.249,6.908 122.465,6.596 L122.591,6.677 C122.531,6.797 122.478,6.896 122.433,6.974 C122.388,7.052 122.307,7.169 122.19,7.325 C122.073,7.481 121.958,7.607 121.844,7.703 C121.73,7.799 121.58,7.8875 121.394,7.9685 C121.208,8.0495 121.016,8.09 120.818,8.09 C120.32,8.09 119.91,7.9025 119.589,7.5275 C119.268,7.1525 119.108,6.671 119.108,6.083 M123.092,7.127 C123.092,7.019 123.104,6.9185 123.128,6.8255 C123.152,6.7325 123.194,6.6455 123.254,6.5645 C123.314,6.4835 123.371,6.41 123.425,6.344 C123.479,6.278 123.56,6.2105 123.668,6.1415 C123.776,6.0725 123.866,6.0155 123.938,5.9705 C124.01,5.9255 124.12,5.8715 124.267,5.8085 C124.414,5.7455 124.526,5.6975 124.604,5.6645 C124.682,5.6315 124.805,5.582 124.973,5.516 C125.141,5.45 125.264,5.402 125.342,5.372 L125.342,4.823 C125.342,4.325 125.114,4.076 124.658,4.076 C124.478,4.076 124.325,4.1195 124.199,4.2065 C124.073,4.2935 124.01,4.397 124.01,4.517 C124.01,4.565 124.018,4.631 124.033,4.715 C124.048,4.799 124.055,4.853 124.055,4.877 C124.055,4.979 124.015,5.0675 123.934,5.1425 C123.853,5.2175 123.758,5.255 123.65,5.255 C123.548,5.255 123.458,5.216 123.38,5.138 C123.302,5.06 123.263,4.97 123.263,4.868 C123.263,4.586 123.409,4.3475 123.7,4.1525 C123.991,3.9575 124.349,3.86 124.775,3.86 C125.267,3.86 125.606,3.9785 125.792,4.2155 C125.978,4.4525 126.071,4.814 126.071,5.3 L126.071,7.055 C126.071,7.253 126.091,7.3895 126.13,7.4645 C126.169,7.5395 126.239,7.577 126.341,7.577 C126.467,7.577 126.599,7.52 126.737,7.406 L126.737,7.64 C126.581,7.814 126.445,7.9325 126.328,7.9955 C126.211,8.0585 126.077,8.09 125.927,8.09 C125.741,8.09 125.605,8.039 125.518,7.937 C125.431,7.835 125.375,7.667 125.351,7.433 C124.835,7.871 124.397,8.09 124.037,8.09 C123.761,8.09 123.535,8 123.358,7.82 C123.181,7.64 123.092,7.409 123.092,7.127 M125.342,6.893 L125.342,5.588 C124.802,5.786 124.424,5.978 124.208,6.164 C123.992,6.35 123.884,6.575 123.884,6.839 C123.884,7.085 123.944,7.268 124.064,7.388 C124.184,7.508 124.313,7.568 124.451,7.568 C124.655,7.568 124.874,7.499 125.108,7.361 C125.204,7.307 125.267,7.25 125.297,7.19 C125.327,7.13 125.342,7.031 125.342,6.893 M131.688,1.916 L129.636,8.126 L129.024,8.126 L131.085,1.916 L131.688,1.916 M138.799,3.671 C138.799,3.827 138.781,3.977 138.745,4.121 C138.709,4.265 138.638,4.418 138.533,4.58 C138.428,4.742 138.289,4.8815 138.115,4.9985 C137.941,5.1155 137.704,5.213 137.404,5.291 C137.104,5.369 136.756,5.408 136.36,5.408 C136.18,5.408 135.973,5.399 135.739,5.381 L135.739,7.019 C135.739,7.349 135.791,7.5635 135.896,7.6625 C136.001,7.7615 136.231,7.817 136.585,7.829 L136.585,8 L134.065,8 L134.065,7.829 C134.407,7.799 134.618,7.7345 134.699,7.6355 C134.78,7.5365 134.821,7.298 134.821,6.92 L134.821,3.023 C134.821,2.699 134.779,2.492 134.695,2.402 C134.611,2.312 134.401,2.249 134.065,2.213 L134.065,2.042 L136.441,2.042 C136.711,2.042 136.972,2.0675 137.224,2.1185 C137.476,2.1695 137.726,2.252 137.975,2.366 C138.224,2.48 138.424,2.648 138.574,2.87 C138.724,3.092 138.799,3.359 138.799,3.671 M135.739,2.681 L135.739,5.021 C135.949,5.039 136.12,5.048 136.252,5.048 C137.296,5.048 137.818,4.607 137.818,3.725 C137.818,3.263 137.674,2.9225 137.386,2.7035 C137.098,2.4845 136.651,2.375 136.045,2.375 C135.925,2.375 135.844,2.396 135.802,2.438 C135.76,2.48 135.739,2.561 135.739,2.681 M139.327,7.127 C139.327,7.019 139.339,6.9185 139.363,6.8255 C139.387,6.7325 139.429,6.6455 139.489,6.5645 C139.549,6.4835 139.606,6.41 139.66,6.344 C139.714,6.278 139.795,6.2105 139.903,6.1415 C140.011,6.0725 140.101,6.0155 140.173,5.9705 C140.245,5.9255 140.354,5.8715 140.501,5.8085 C140.648,5.7455 140.761,5.6975 140.839,5.6645 C140.917,5.6315 141.04,5.582 141.208,5.516 C141.376,5.45 141.499,5.402 141.577,5.372 L141.577,4.823 C141.577,4.325 141.349,4.076 140.893,4.076 C140.713,4.076 140.56,4.1195 140.434,4.2065 C140.308,4.2935 140.245,4.397 140.245,4.517 C140.245,4.565 140.252,4.631 140.267,4.715 C140.282,4.799 140.29,4.853 140.29,4.877 C140.29,4.979 140.249,5.0675 140.168,5.1425 C140.087,5.2175 139.993,5.255 139.885,5.255 C139.783,5.255 139.693,5.216 139.615,5.138 C139.537,5.06 139.498,4.97 139.498,4.868 C139.498,4.586 139.643,4.3475 139.934,4.1525 C140.225,3.9575 140.584,3.86 141.01,3.86 C141.502,3.86 141.841,3.9785 142.027,4.2155 C142.213,4.4525 142.306,4.814 142.306,5.3 L142.306,7.055 C142.306,7.253 142.325,7.3895 142.364,7.4645 C142.403,7.5395 142.474,7.577 142.576,7.577 C142.702,7.577 142.834,7.52 142.972,7.406 L142.972,7.64 C142.816,7.814 142.679,7.9325 142.562,7.9955 C142.445,8.0585 142.312,8.09 142.162,8.09 C141.976,8.09 141.839,8.039 141.752,7.937 C141.665,7.835 141.61,7.667 141.586,7.433 C141.07,7.871 140.632,8.09 140.272,8.09 C139.996,8.09 139.769,8 139.592,7.82 C139.415,7.64 139.327,7.409 139.327,7.127 M141.577,6.893 L141.577,5.588 C141.037,5.786 140.659,5.978 140.443,6.164 C140.227,6.35 140.119,6.575 140.119,6.839 C140.119,7.085 140.179,7.268 140.299,7.388 C140.419,7.508 140.548,7.568 140.686,7.568 C140.89,7.568 141.109,7.499 141.343,7.361 C141.439,7.307 141.502,7.25 141.532,7.19 C141.562,7.13 141.577,7.031 141.577,6.893 M145.42,4.04 C145.426,4.04 145.474,4.01 145.564,3.95 L145.663,3.95 L145.699,5.174 L145.564,5.174 C145.462,4.772 145.336,4.487 145.186,4.319 C145.036,4.151 144.832,4.067 144.574,4.067 C144.37,4.067 144.203,4.124 144.074,4.238 C143.945,4.352 143.881,4.499 143.881,4.679 C143.881,4.937 144.01,5.141 144.268,5.291 L145.24,5.867 C145.51,6.029 145.703,6.1925 145.82,6.3575 C145.937,6.5225 145.996,6.716 145.996,6.938 C145.996,7.25 145.871,7.52 145.622,7.748 C145.373,7.976 145.075,8.09 144.727,8.09 C144.577,8.09 144.376,8.063 144.124,8.009 C143.872,7.955 143.716,7.928 143.656,7.928 C143.566,7.928 143.497,7.964 143.449,8.036 L143.332,8.036 L143.332,6.632 L143.476,6.632 C143.572,7.052 143.686,7.349 143.818,7.523 C144.01,7.769 144.277,7.892 144.619,7.892 C144.847,7.892 145.028,7.8335 145.163,7.7165 C145.298,7.5995 145.366,7.442 145.366,7.244 C145.366,6.974 145.21,6.749 144.898,6.569 L144.376,6.272 C143.992,6.056 143.72,5.849 143.561,5.651 C143.402,5.453 143.323,5.228 143.323,4.976 C143.323,4.652 143.438,4.3865 143.669,4.1795 C143.9,3.9725 144.193,3.869 144.547,3.869 C144.745,3.869 144.931,3.8975 145.105,3.9545 C145.279,4.0115 145.384,4.04 145.42,4.04 M148.717,4.04 C148.723,4.04 148.771,4.01 148.861,3.95 L148.96,3.95 L148.996,5.174 L148.861,5.174 C148.759,4.772 148.633,4.487 148.483,4.319 C148.333,4.151 148.129,4.067 147.871,4.067 C147.667,4.067 147.5,4.124 147.371,4.238 C147.242,4.352 147.178,4.499 147.178,4.679 C147.178,4.937 147.307,5.141 147.565,5.291 L148.537,5.867 C148.807,6.029 149,6.1925 149.117,6.3575 C149.234,6.5225 149.293,6.716 149.293,6.938 C149.293,7.25 149.168,7.52 148.919,7.748 C148.67,7.976 148.372,8.09 148.024,8.09 C147.874,8.09 147.673,8.063 147.421,8.009 C147.169,7.955 147.013,7.928 146.953,7.928 C146.863,7.928 146.794,7.964 146.746,8.036 L146.629,8.036 L146.629,6.632 L146.773,6.632 C146.869,7.052 146.983,7.349 147.115,7.523 C147.307,7.769 147.574,7.892 147.916,7.892 C148.144,7.892 148.325,7.8335 148.46,7.7165 C148.595,7.5995 148.663,7.442 148.663,7.244 C148.663,6.974 148.507,6.749 148.195,6.569 L147.673,6.272 C147.289,6.056 147.017,5.849 146.858,5.651 C146.699,5.453 146.62,5.228 146.62,4.976 C146.62,4.652 146.735,4.3865 146.966,4.1795 C147.197,3.9725 147.49,3.869 147.844,3.869 C148.042,3.869 148.228,3.8975 148.402,3.9545 C148.576,4.0115 148.681,4.04 148.717,4.04 M149.827,7.127 C149.827,7.019 149.839,6.9185 149.863,6.8255 C149.887,6.7325 149.929,6.6455 149.989,6.5645 C150.049,6.4835 150.106,6.41 150.16,6.344 C150.214,6.278 150.295,6.2105 150.403,6.1415 C150.511,6.0725 150.601,6.0155 150.673,5.9705 C150.745,5.9255 150.854,5.8715 151.001,5.8085 C151.148,5.7455 151.261,5.6975 151.339,5.6645 C151.417,5.6315 151.54,5.582 151.708,5.516 C151.876,5.45 151.999,5.402 152.077,5.372 L152.077,4.823 C152.077,4.325 151.849,4.076 151.393,4.076 C151.213,4.076 151.06,4.1195 150.934,4.2065 C150.808,4.2935 150.745,4.397 150.745,4.517 C150.745,4.565 150.752,4.631 150.767,4.715 C150.782,4.799 150.79,4.853 150.79,4.877 C150.79,4.979 150.749,5.0675 150.668,5.1425 C150.587,5.2175 150.493,5.255 150.385,5.255 C150.283,5.255 150.193,5.216 150.115,5.138 C150.037,5.06 149.998,4.97 149.998,4.868 C149.998,4.586 150.143,4.3475 150.434,4.1525 C150.725,3.9575 151.084,3.86 151.51,3.86 C152.002,3.86 152.341,3.9785 152.527,4.2155 C152.713,4.4525 152.806,4.814 152.806,5.3 L152.806,7.055 C152.806,7.253 152.825,7.3895 152.864,7.4645 C152.903,7.5395 152.974,7.577 153.076,7.577 C153.202,7.577 153.334,7.52 153.472,7.406 L153.472,7.64 C153.316,7.814 153.179,7.9325 153.062,7.9955 C152.945,8.0585 152.812,8.09 152.662,8.09 C152.476,8.09 152.339,8.039 152.252,7.937 C152.165,7.835 152.11,7.667 152.086,7.433 C151.57,7.871 151.132,8.09 150.772,8.09 C150.496,8.09 150.269,8 150.092,7.82 C149.915,7.64 149.827,7.409 149.827,7.127 M152.077,6.893 L152.077,5.588 C151.537,5.786 151.159,5.978 150.943,6.164 C150.727,6.35 150.619,6.575 150.619,6.839 C150.619,7.085 150.679,7.268 150.799,7.388 C150.919,7.508 151.048,7.568 151.186,7.568 C151.39,7.568 151.609,7.499 151.843,7.361 C151.939,7.307 152.002,7.25 152.032,7.19 C152.062,7.13 152.077,7.031 152.077,6.893 M153.625,4.418 L153.625,4.265 C154.057,4.145 154.477,4.01 154.885,3.86 L154.948,3.878 L154.948,4.553 C155.32,4.271 155.596,4.085 155.776,3.995 C155.956,3.905 156.145,3.86 156.343,3.86 C156.817,3.86 157.135,4.112 157.297,4.616 C157.765,4.112 158.254,3.86 158.764,3.86 C159.46,3.86 159.808,4.394 159.808,5.462 L159.808,7.316 C159.808,7.652 159.937,7.829 160.195,7.847 L160.429,7.865 L160.429,8 L158.458,8 L158.458,7.865 C158.722,7.835 158.887,7.784 158.953,7.712 C159.019,7.64 159.052,7.475 159.052,7.217 L159.052,5.318 C159.052,4.946 159.004,4.688 158.908,4.544 C158.812,4.4 158.635,4.328 158.377,4.328 C157.981,4.328 157.654,4.511 157.396,4.877 L157.396,7.145 C157.396,7.427 157.439,7.616 157.526,7.712 C157.613,7.808 157.786,7.859 158.044,7.865 L158.044,8 L156.028,8 L156.028,7.865 C156.286,7.847 156.452,7.799 156.527,7.721 C156.602,7.643 156.64,7.478 156.64,7.226 L156.64,5.273 C156.64,4.643 156.442,4.328 156.046,4.328 C155.878,4.328 155.69,4.37 155.483,4.454 C155.276,4.538 155.11,4.673 154.984,4.859 L154.984,7.397 C154.984,7.571 155.026,7.6895 155.11,7.7525 C155.194,7.8155 155.356,7.853 155.596,7.865 L155.596,8 L153.598,8 L153.598,7.865 C153.85,7.859 154.018,7.814 154.102,7.73 C154.186,7.646 154.228,7.481 154.228,7.235 L154.228,4.958 C154.228,4.742 154.205,4.592 154.16,4.508 C154.115,4.424 154.033,4.382 153.913,4.382 C153.823,4.382 153.727,4.394 153.625,4.418 M161.381,5.507 C161.393,5.885 161.444,6.2105 161.534,6.4835 C161.624,6.7565 161.741,6.9605 161.885,7.0955 C162.029,7.2305 162.174,7.3265 162.321,7.3835 C162.468,7.4405 162.623,7.469 162.785,7.469 C163.073,7.469 163.323,7.397 163.536,7.253 C163.749,7.109 163.964,6.866 164.18,6.524 L164.324,6.587 C164.138,7.073 163.88,7.445 163.55,7.703 C163.22,7.961 162.842,8.09 162.416,8.09 C161.9,8.09 161.49,7.9085 161.187,7.5455 C160.884,7.1825 160.733,6.692 160.733,6.074 C160.733,5.408 160.908,4.8725 161.259,4.4675 C161.61,4.0625 162.062,3.86 162.614,3.86 C163.07,3.86 163.424,3.9965 163.676,4.2695 C163.928,4.5425 164.087,4.955 164.153,5.507 L161.381,5.507 M161.399,5.219 L163.235,5.219 C163.175,4.829 163.082,4.559 162.956,4.409 C162.83,4.259 162.629,4.184 162.353,4.184 C161.813,4.184 161.495,4.529 161.399,5.219 M166.787,7.73 C167.021,7.73 167.207,7.715 167.345,7.685 C167.483,7.655 167.591,7.589 167.669,7.487 C167.747,7.385 167.801,7.289 167.831,7.199 C167.861,7.109 167.897,6.959 167.939,6.749 L168.101,6.785 L167.975,8 L164.582,8 L164.582,7.865 L166.976,4.22 L165.734,4.22 C165.464,4.22 165.281,4.2695 165.185,4.3685 C165.089,4.4675 165.02,4.682 164.978,5.012 L164.816,5.012 L164.843,3.95 L167.966,3.95 L167.966,4.085 L165.545,7.73 L166.787,7.73 M170.537,7.73 C170.771,7.73 170.957,7.715 171.095,7.685 C171.233,7.655 171.341,7.589 171.419,7.487 C171.497,7.385 171.551,7.289 171.581,7.199 C171.611,7.109 171.647,6.959 171.689,6.749 L171.851,6.785 L171.725,8 L168.332,8 L168.332,7.865 L170.726,4.22 L169.484,4.22 C169.214,4.22 169.031,4.2695 168.935,4.3685 C168.839,4.4675 168.77,4.682 168.728,5.012 L168.566,5.012 L168.593,3.95 L171.716,3.95 L171.716,4.085 L169.295,7.73 L170.537,7.73 M174.206,3.86 C174.782,3.86 175.256,4.052 175.628,4.436 C176,4.82 176.186,5.306 176.186,5.894 C176.186,6.518 175.994,7.04 175.61,7.46 C175.226,7.88 174.752,8.09 174.188,8.09 C173.624,8.09 173.155,7.8875 172.78,7.4825 C172.405,7.0775 172.217,6.572 172.217,5.966 C172.217,5.348 172.402,4.8425 172.771,4.4495 C173.14,4.0565 173.618,3.86 174.206,3.86 M173.027,5.525 C173.027,6.167 173.144,6.713 173.378,7.163 C173.612,7.613 173.918,7.838 174.296,7.838 C174.632,7.838 174.896,7.694 175.088,7.406 C175.28,7.118 175.376,6.719 175.376,6.209 C175.376,5.591 175.256,5.087 175.016,4.697 C174.776,4.307 174.467,4.112 174.089,4.112 C173.771,4.112 173.515,4.241 173.32,4.499 C173.125,4.757 173.027,5.099 173.027,5.525 M178.874,7.127 C178.874,7.019 178.886,6.9185 178.91,6.8255 C178.934,6.7325 178.976,6.6455 179.036,6.5645 C179.096,6.4835 179.153,6.41 179.207,6.344 C179.261,6.278 179.342,6.2105 179.45,6.1415 C179.558,6.0725 179.648,6.0155 179.72,5.9705 C179.792,5.9255 179.901,5.8715 180.048,5.8085 C180.195,5.7455 180.308,5.6975 180.386,5.6645 C180.464,5.6315 180.587,5.582 180.755,5.516 C180.923,5.45 181.046,5.402 181.124,5.372 L181.124,4.823 C181.124,4.325 180.896,4.076 180.44,4.076 C180.26,4.076 180.107,4.1195 179.981,4.2065 C179.855,4.2935 179.792,4.397 179.792,4.517 C179.792,4.565 179.799,4.631 179.814,4.715 C179.829,4.799 179.837,4.853 179.837,4.877 C179.837,4.979 179.796,5.0675 179.715,5.1425 C179.634,5.2175 179.54,5.255 179.432,5.255 C179.33,5.255 179.24,5.216 179.162,5.138 C179.084,5.06 179.045,4.97 179.045,4.868 C179.045,4.586 179.19,4.3475 179.481,4.1525 C179.772,3.9575 180.131,3.86 180.557,3.86 C181.049,3.86 181.388,3.9785 181.574,4.2155 C181.76,4.4525 181.853,4.814 181.853,5.3 L181.853,7.055 C181.853,7.253 181.872,7.3895 181.911,7.4645 C181.95,7.5395 182.021,7.577 182.123,7.577 C182.249,7.577 182.381,7.52 182.519,7.406 L182.519,7.64 C182.363,7.814 182.226,7.9325 182.109,7.9955 C181.992,8.0585 181.859,8.09 181.709,8.09 C181.523,8.09 181.386,8.039 181.299,7.937 C181.212,7.835 181.157,7.667 181.133,7.433 C180.617,7.871 180.179,8.09 179.819,8.09 C179.543,8.09 179.316,8 179.139,7.82 C178.962,7.64 178.874,7.409 178.874,7.127 M181.124,6.893 L181.124,5.588 C180.584,5.786 180.206,5.978 179.99,6.164 C179.774,6.35 179.666,6.575 179.666,6.839 C179.666,7.085 179.726,7.268 179.846,7.388 C179.966,7.508 180.095,7.568 180.233,7.568 C180.437,7.568 180.656,7.499 180.89,7.361 C180.986,7.307 181.049,7.25 181.079,7.19 C181.109,7.13 181.124,7.031 181.124,6.893 M182.645,4.418 L182.645,4.265 C183.089,4.133 183.503,3.998 183.887,3.86 L183.95,3.878 L183.95,4.589 C184.256,4.301 184.497,4.1075 184.674,4.0085 C184.851,3.9095 185.045,3.86 185.255,3.86 C185.585,3.86 185.844,3.9785 186.033,4.2155 C186.222,4.4525 186.317,4.784 186.317,5.21 L186.317,7.271 C186.317,7.493 186.353,7.6415 186.425,7.7165 C186.497,7.7915 186.644,7.841 186.866,7.865 L186.866,8 L184.994,8 L184.994,7.865 C185.222,7.847 185.373,7.787 185.448,7.685 C185.523,7.583 185.561,7.391 185.561,7.109 L185.561,5.228 C185.561,4.646 185.342,4.355 184.904,4.355 C184.754,4.355 184.616,4.3895 184.49,4.4585 C184.364,4.5275 184.193,4.664 183.977,4.868 L183.977,7.397 C183.977,7.559 184.019,7.673 184.103,7.739 C184.187,7.805 184.343,7.847 184.571,7.865 L184.571,8 L182.663,8 L182.663,7.865 C182.891,7.847 183.041,7.7945 183.113,7.7075 C183.185,7.6205 183.221,7.448 183.221,7.19 L183.221,4.958 C183.221,4.736 183.197,4.5845 183.149,4.5035 C183.101,4.4225 183.014,4.382 182.888,4.382 C182.774,4.382 182.693,4.394 182.645,4.418 M189.276,3.95 L189.276,4.238 L188.367,4.238 L188.367,6.812 C188.367,7.094 188.403,7.2995 188.475,7.4285 C188.547,7.5575 188.667,7.622 188.835,7.622 C189.021,7.622 189.201,7.517 189.375,7.307 L189.492,7.406 C189.204,7.862 188.844,8.09 188.412,8.09 C187.878,8.09 187.611,7.709 187.611,6.947 L187.611,4.238 L187.134,4.238 C187.11,4.22 187.098,4.199 187.098,4.175 C187.098,4.145 187.107,4.121 187.125,4.103 C187.143,4.085 187.178,4.0595 187.229,4.0265 C187.28,3.9935 187.341,3.9485 187.413,3.8915 C187.485,3.8345 187.584,3.731 187.71,3.581 C187.836,3.431 187.974,3.251 188.124,3.041 C188.22,2.903 188.28,2.819 188.304,2.789 C188.346,2.789 188.367,2.828 188.367,2.906 L188.367,3.95 L189.276,3.95 M190.05,4.463 C189.918,4.463 189.792,4.472 189.672,4.49 L189.672,4.355 C190.092,4.235 190.557,4.07 191.067,3.86 L191.103,3.887 L191.103,7.082 C191.103,7.406 191.141,7.6115 191.216,7.6985 C191.291,7.7855 191.475,7.841 191.769,7.865 L191.769,8 L189.636,8 L189.636,7.865 C189.948,7.847 190.145,7.793 190.226,7.703 C190.307,7.613 190.347,7.406 190.347,7.082 L190.347,4.994 C190.347,4.796 190.325,4.658 190.28,4.58 C190.235,4.502 190.158,4.463 190.05,4.463 M190.644,1.853 C190.776,1.853 190.887,1.898 190.977,1.988 C191.067,2.078 191.112,2.186 191.112,2.312 C191.112,2.444 191.067,2.5535 190.977,2.6405 C190.887,2.7275 190.776,2.771 190.644,2.771 C190.518,2.771 190.412,2.726 190.325,2.636 C190.238,2.546 190.194,2.438 190.194,2.312 C190.194,2.186 190.239,2.078 190.329,1.988 C190.419,1.898 190.524,1.853 190.644,1.853 M192.217,6.083 C192.217,5.417 192.414,4.88 192.807,4.472 C193.2,4.064 193.66,3.86 194.188,3.86 C194.566,3.86 194.892,3.9515 195.165,4.1345 C195.438,4.3175 195.574,4.535 195.574,4.787 C195.574,4.889 195.532,4.9775 195.448,5.0525 C195.364,5.1275 195.262,5.165 195.142,5.165 C194.938,5.165 194.797,5.027 194.719,4.751 L194.665,4.553 C194.617,4.385 194.557,4.271 194.485,4.211 C194.413,4.151 194.296,4.121 194.134,4.121 C193.768,4.121 193.473,4.2665 193.248,4.5575 C193.023,4.8485 192.91,5.225 192.91,5.687 C192.91,6.203 193.041,6.6245 193.302,6.9515 C193.563,7.2785 193.897,7.442 194.305,7.442 C194.563,7.442 194.785,7.379 194.971,7.253 C195.157,7.127 195.358,6.908 195.574,6.596 L195.7,6.677 C195.64,6.797 195.588,6.896 195.543,6.974 C195.498,7.052 195.417,7.169 195.3,7.325 C195.183,7.481 195.067,7.607 194.953,7.703 C194.839,7.799 194.689,7.8875 194.503,7.9685 C194.317,8.0495 194.125,8.09 193.927,8.09 C193.429,8.09 193.02,7.9025 192.699,7.5275 C192.378,7.1525 192.217,6.671 192.217,6.083 M198.191,3.86 C198.767,3.86 199.241,4.052 199.613,4.436 C199.985,4.82 200.171,5.306 200.171,5.894 C200.171,6.518 199.979,7.04 199.595,7.46 C199.211,7.88 198.737,8.09 198.173,8.09 C197.609,8.09 197.139,7.8875 196.764,7.4825 C196.389,7.0775 196.202,6.572 196.202,5.966 C196.202,5.348 196.386,4.8425 196.755,4.4495 C197.124,4.0565 197.603,3.86 198.191,3.86 M197.012,5.525 C197.012,6.167 197.129,6.713 197.363,7.163 C197.597,7.613 197.903,7.838 198.281,7.838 C198.617,7.838 198.881,7.694 199.073,7.406 C199.265,7.118 199.361,6.719 199.361,6.209 C199.361,5.591 199.241,5.087 199.001,4.697 C198.761,4.307 198.452,4.112 198.074,4.112 C197.756,4.112 197.499,4.241 197.304,4.499 C197.109,4.757 197.012,5.099 197.012,5.525"/>
<path class="NoteDot" transform="matrix(0.850394,0,0,0.850394,500.617,31.8898)" d="M0.332031,0.800781 C0.110677,0.579427 0,0.3125 0,0 C0,-0.3125 0.110677,-0.579427 0.332031,-0.800781 C0.553385,-1.02214 0.820312,-1.13281 1.13281,-1.13281 C1.44531,-1.13281 1.71224,-1.02214 1.93359,-0.800781 C2.15495,-0.579427 2.26562,-0.3125 2.26562,0 C2.26562,0.3125 2.15495,0.579427 1.93359,0.800781 C1.71224,1.02214 1.44531,1.13281 1.13281,1.13281 C0.820312,1.13281 0.553385,1.02214 0.332031,0.800781"/>
<path class="NoteDot" transform="matrix(0.850394,0,0,0.850394,467.904,23.3858)" d="M0.332031,0.800781 C0.110677,0.579427 0,0.3125 0,0 C0,-0.3125 0.110677,-0.579427 0.332031,-0.800781 C0.553385,-1.02214 0.820312,-1.13281 1.13281,-1.13281 C1.44531,-1.13281 1.71224,-1.02214 1.93359,-0.800781 C2.15495,-0.579427 2.26562,-0.3125 2.26562,0 C2.26562,0.3125 2.15495,0.579427 1.93359,0.800781 C1.71224,1.02214 1.44531,1.13281 1.13281,1.13281 C0.820312,1.13281 0.553385,1.02214 0.332031,0.800781"/>
<path class="NoteDot" transform="matrix(0.850394,0,0,0.850394,357.651,31.8898)" d="M0.332031,0.800781 C0.110677,0.579427 0,0.3125 0,0 C0,-0.3125 0.110677,-0.579427 0.332031,-0.800781 C0.553385,-1.02214 0.820312,-1.13281 1.13281,-1.13281 C1.44531,-1.13281 1.71224,-1.02214 1.93359,-0.800781 C2.15495,-0.579427 2.26562,-0.3125 2.26562,0 C2.26562,0.3125 2.15495,0.579427 1.93359,0.800781 C1.71224,1.02214 1.44531,1.13281 1.13281,1.13281 C0.820312,1.13281 0.553385,1.02214 0.332031,0.800781"/>
<path class="NoteDot" transform="matrix(0.850394,0,0,0.850394,289.433,31.8898)" d="M0.332031,0.800781 C0.110677,0.579427 0,0.3125 0,0 C0,-0.3125 0.110677,-0.579427 0.332031,-0.800781 C0.553385,-1.02214 0.820312,-1.13281 1.13281,-1.13281 C1.44531,-1.13281 1.71224,-1.02214 1.93359,-0.800781 C2.15495,-0.579427 2.26562,-0.3125 2.26562,0 C2.26562,0.3125 2.15495,0.579427 1.93359,0.800781 C1.71224,1.02214 1.44531,1.13281 1.13281,1.13281 C0.820312,1.13281 0.553385,1.02214 0.332031,0.800781"/>
<path class="NoteDot" transform="matrix(0.850394,0,0,0.850394,239.109,36.1417)" d="M0.332031,0.800781 C0.110677,0.579427 0,0.3125 0,0 C0,-0.3125 0.110677,-0.579427 0.332031,-0.800781 C0.553385,-1.02214 0.820312,-1.13281 1.13281,-1.13281 C1.44531,-1.13281 1.71224,-1.02214 1.93359,-0.800781 C2.15495,-0.579427 2.26562,-0.3125 2.26562,0 C2.26562,0.3125 2.15495,0.579427 1.93359,0.800781 C1.71224,1.02214 1.44531,1.13281 1.13281,1.13281 C0.820312,1.13281 0.553385,1.02214 0.332031,0.800781"/>
<path class="NoteDot" transform="matrix(0.850394,0,0,0.850394,205.634,36.1417)" d="M0.332031,0.800781 C0.110677,0.579427 0,0.3125 0,0 C0,-0.3125 0.110677,-0.579427 0.332031,-0.800781 C0.553385,-1.02214 0.820312,-1.13281 1.13281,-1.13281 C1.44531,-1.13281 1.71224,-1.02214 1.93359,-0.800781 C2.15495,-0.579427 2.26562,-0.3125 2.26562,0 C2.26562,0.3125 2.15495,0.579427 1.93359,0.800781 C1.71224,1.02214 1.44531,1.13281 1.13281,1.13281 C0.820312,1.13281 0.553385,1.02214 0.332031,0.800781"/>
<path class="NoteDot" transform="matrix(0.850394,0,0,0.850394,178.249,31.8898)" d="M0.332031,0.800781 C0.110677,0.579427 0,0.3125 0,0 C0,-0.3125 0.110677,-0.579427 0.332031,-0.800781 C0.553385,-1.02214 0.820312,-1.13281 1.13281,-1.13281 C1.44531,-1.13281 1.71224,-1.02214 1.93359,-0.800781 C2.15495,-0.579427 2.26562,-0.3125 2.26562,0 C2.26562,0.3125 2.15495,0.579427 1.93359,0.800781 C1.71224,1.02214 1.44531,1.13281 1.13281,1.13281 C0.820312,1.13281 0.553385,1.02214 0.332031,0.800781"/>
<path class="NoteDot" transform="matrix(0.850394,0,0,0.850394,103.475,31.8898)" d="M0.332031,0.800781 C0.110677,0.579427 0,0.3125 0,0 C0,-0.3125 0.110677,-0.579427 0.332031,-0.800781 C0.553385,-1.02214 0.820312,-1.13281 1.13281,-1.13281 C1.44531,-1.13281 1.71224,-1.02214 1.93359,-0.800781 C2.15495,-0.579427 2.26562,-0.3125 2.26562,0 C2.26562,0.3125 2.15495,0.579427 1.93359,0.800781 C1.71224,1.02214 1.44531,1.13281 1.13281,1.13281 C0.820312,1.13281 0.553385,1.02214 0.332031,0.800781"/>
<path class="NoteDot" transform="matrix(0.850394,0,0,0.850394,38.8284,31.8898)" d="M0.332031,0.800781 C0.110677,0.579427 0,0.3125 0,0 C0,-0.3125 0.110677,-0.579427 0.332031,-0.800781 C0.553385,-1.02214 0.820312,-1.13281 1.13281,-1.13281 C1.44531,-1.13281 1.71224,-1.02214 1.93359,-0.800781 C2.15495,-0.579427 2.26562,-0.3125 2.26562,0 C2.26562,0.3125 2.15495,0.579427 1.93359,0.800781 C1.71224,1.02214 1.44531,1.13281 1.13281,1.13281 C0.820312,1.13281 0.553385,1.02214 0.332031,0.800781"/>
</svg>
