<?xml version="1.0" encoding="UTF-8" standalone="no"?>
<svg width="332.532px" height="106.05px" viewBox="0 0 332.532 106.05"
 xmlns="http://www.w3.org/2000/svg" xmlns:xlink="http://www.w3.org/1999/xlink" version="1.2" baseProfile="tiny">
<title>Egy akkord – több karakter</title>
<desc>Generated by MuseScore 2.3.2</desc>
<polyline class="StaffLines" fill="none" stroke="#000000" stroke-width="0.34" stroke-linejoin="bevel" points="7.14331,21.6917 332.532,21.6917"/>
<polyline class="StaffLines" fill="none" stroke="#000000" stroke-width="0.34" stroke-linejoin="bevel" points="7.14331,25.9437 332.532,25.9437"/>
<polyline class="StaffLines" fill="none" stroke="#000000" stroke-width="0.34" stroke-linejoin="bevel" points="7.14331,30.1956 332.532,30.1956"/>
<polyline class="StaffLines" fill="none" stroke="#000000" stroke-width="0.34" stroke-linejoin="bevel" points="7.14331,34.4476 332.532,34.4476"/>
<polyline class="StaffLines" fill="none" stroke="#000000" stroke-width="0.34" stroke-linejoin="bevel" points="7.14331,38.6996 332.532,38.6996"/>
<polyline class="StaffLines" fill="none" stroke="#000000" stroke-width="0.34" stroke-linejoin="bevel" points="7.14331,59.9594 332.532,59.9594"/>
<polyline class="StaffLines" fill="none" stroke="#000000" stroke-width="0.34" stroke-linejoin="bevel" points="7.14331,64.2114 332.532,64.2114"/>
<polyline class="StaffLines" fill="none" stroke="#000000" stroke-width="0.34" stroke-linejoin="bevel" points="7.14331,68.4633 332.532,68.4633"/>
<polyline class="StaffLines" fill="none" stroke="#000000" stroke-width="0.34" stroke-linejoin="bevel" points="7.14331,72.7153 332.532,72.7153"/>
<polyline class="StaffLines" fill="none" stroke="#000000" stroke-width="0.34" stroke-linejoin="bevel" points="7.14331,76.9673 332.532,76.9673"/>
<polyline class="BarLine" fill="none" stroke="#000000" stroke-width="0.68" stroke-linejoin="bevel" points="7.48346,21.6917 7.48346,76.9673"/>
<polyline class="BarLine" fill="none" stroke="#000000" stroke-width="0.68" stroke-linejoin="bevel" points="328.365,21.6917 328.365,76.9673"/>
<polyline class="BarLine" fill="none" stroke="#000000" stroke-width="2.13" stroke-linejoin="bevel" points="331.469,21.6917 331.469,76.9673"/>
<polyline class="BarLine" fill="none" stroke="#000000" stroke-width="0.68" stroke-linejoin="bevel" points="256.396,21.6917 256.396,76.9673"/>
<polyline class="BarLine" fill="none" stroke="#000000" stroke-width="0.68" stroke-linejoin="bevel" points="182.985,21.6917 182.985,76.9673"/>
<polyline class="BarLine" fill="none" stroke="#000000" stroke-width="0.68" stroke-linejoin="bevel" points="93.4994,21.6917 93.4994,76.9673"/>
<path class="Arpeggio" transform="matrix(0,-0.850394,0.850394,0,266.103,72.5373)" d="M3.49609,0.0195312 C3.27474,0.0195312 3.03385,-0.130208 2.77344,-0.429688 C2.4349,-0.820312 2.14844,-1.11979 1.91406,-1.32812 C1.60156,-1.64062 1.25651,-1.79688 0.878906,-1.79688 C0.514323,-1.79688 0.201823,-1.6862 -0.0585938,-1.46484 L-0.566406,-0.839844 C-0.63151,-0.761719 -0.709635,-0.722656 -0.800781,-0.722656 C-0.878906,-0.722656 -0.950521,-0.755208 -1.01562,-0.820312 C-1.08073,-0.885417 -1.11328,-0.957031 -1.11328,-1.03516 C-1.11328,-1.11328 -1.08724,-1.17839 -1.03516,-1.23047 L1.09375,-3.80859 C1.19792,-3.95182 1.33464,-4.02344 1.50391,-4.02344 C1.72526,-4.02344 1.96615,-3.8737 2.22656,-3.57422 C2.5651,-3.18359 2.85156,-2.8776 3.08594,-2.65625 C3.41146,-2.35677 3.75651,-2.20703 4.12109,-2.20703 C4.48568,-2.20703 4.79818,-2.31771 5.05859,-2.53906 L5.56641,-3.16406 C5.63151,-3.24219 5.70964,-3.28125 5.80078,-3.28125 C5.89193,-3.28125 5.96354,-3.25521 6.01562,-3.20312 C6.08073,-3.13802 6.11328,-3.0599 6.11328,-2.96875 C6.11328,-2.8776 6.08724,-2.80599 6.03516,-2.75391 L3.90625,-0.195312 C3.78906,-0.0520833 3.65234,0.0195312 3.49609,0.0195312"/>
<path class="Arpeggio" transform="matrix(0,-0.850394,0.850394,0,266.103,68.2853)" d="M3.49609,0.0195312 C3.27474,0.0195312 3.03385,-0.130208 2.77344,-0.429688 C2.4349,-0.820312 2.14844,-1.11979 1.91406,-1.32812 C1.60156,-1.64062 1.25651,-1.79688 0.878906,-1.79688 C0.514323,-1.79688 0.201823,-1.6862 -0.0585938,-1.46484 L-0.566406,-0.839844 C-0.63151,-0.761719 -0.709635,-0.722656 -0.800781,-0.722656 C-0.878906,-0.722656 -0.950521,-0.755208 -1.01562,-0.820312 C-1.08073,-0.885417 -1.11328,-0.957031 -1.11328,-1.03516 C-1.11328,-1.11328 -1.08724,-1.17839 -1.03516,-1.23047 L1.09375,-3.80859 C1.19792,-3.95182 1.33464,-4.02344 1.50391,-4.02344 C1.72526,-4.02344 1.96615,-3.8737 2.22656,-3.57422 C2.5651,-3.18359 2.85156,-2.8776 3.08594,-2.65625 C3.41146,-2.35677 3.75651,-2.20703 4.12109,-2.20703 C4.48568,-2.20703 4.79818,-2.31771 5.05859,-2.53906 L5.56641,-3.16406 C5.63151,-3.24219 5.70964,-3.28125 5.80078,-3.28125 C5.89193,-3.28125 5.96354,-3.25521 6.01562,-3.20312 C6.08073,-3.13802 6.11328,-3.0599 6.11328,-2.96875 C6.11328,-2.8776 6.08724,-2.80599 6.03516,-2.75391 L3.90625,-0.195312 C3.78906,-0.0520833 3.65234,0.0195312 3.49609,0.0195312"/>
<path class="Arpeggio" transform="matrix(0,-0.850394,0.850394,0,266.103,64.0333)" d="M3.49609,0.0195312 C3.27474,0.0195312 3.03385,-0.130208 2.77344,-0.429688 C2.4349,-0.820312 2.14844,-1.11979 1.91406,-1.32812 C1.60156,-1.64062 1.25651,-1.79688 0.878906,-1.79688 C0.514323,-1.79688 0.201823,-1.6862 -0.0585938,-1.46484 L-0.566406,-0.839844 C-0.63151,-0.761719 -0.709635,-0.722656 -0.800781,-0.722656 C-0.878906,-0.722656 -0.950521,-0.755208 -1.01562,-0.820312 C-1.08073,-0.885417 -1.11328,-0.957031 -1.11328,-1.03516 C-1.11328,-1.11328 -1.08724,-1.17839 -1.03516,-1.23047 L1.09375,-3.80859 C1.19792,-3.95182 1.33464,-4.02344 1.50391,-4.02344 C1.72526,-4.02344 1.96615,-3.8737 2.22656,-3.57422 C2.5651,-3.18359 2.85156,-2.8776 3.08594,-2.65625 C3.41146,-2.35677 3.75651,-2.20703 4.12109,-2.20703 C4.48568,-2.20703 4.79818,-2.31771 5.05859,-2.53906 L5.56641,-3.16406 C5.63151,-3.24219 5.70964,-3.28125 5.80078,-3.28125 C5.89193,-3.28125 5.96354,-3.25521 6.01562,-3.20312 C6.08073,-3.13802 6.11328,-3.0599 6.11328,-2.96875 C6.11328,-2.8776 6.08724,-2.80599 6.03516,-2.75391 L3.90625,-0.195312 C3.78906,-0.0520833 3.65234,0.0195312 3.49609,0.0195312"/>
<path class="Arpeggio" transform="matrix(0,-0.850394,0.850394,0,266.103,59.7813)" d="M3.49609,0.0195312 C3.27474,0.0195312 3.03385,-0.130208 2.77344,-0.429688 C2.4349,-0.820312 2.14844,-1.11979 1.91406,-1.32812 C1.60156,-1.64062 1.25651,-1.79688 0.878906,-1.79688 C0.514323,-1.79688 0.201823,-1.6862 -0.0585938,-1.46484 L-0.566406,-0.839844 C-0.63151,-0.761719 -0.709635,-0.722656 -0.800781,-0.722656 C-0.878906,-0.722656 -0.950521,-0.755208 -1.01562,-0.820312 C-1.08073,-0.885417 -1.11328,-0.957031 -1.11328,-1.03516 C-1.11328,-1.11328 -1.08724,-1.17839 -1.03516,-1.23047 L1.09375,-3.80859 C1.19792,-3.95182 1.33464,-4.02344 1.50391,-4.02344 C1.72526,-4.02344 1.96615,-3.8737 2.22656,-3.57422 C2.5651,-3.18359 2.85156,-2.8776 3.08594,-2.65625 C3.41146,-2.35677 3.75651,-2.20703 4.12109,-2.20703 C4.48568,-2.20703 4.79818,-2.31771 5.05859,-2.53906 L5.56641,-3.16406 C5.63151,-3.24219 5.70964,-3.28125 5.80078,-3.28125 C5.89193,-3.28125 5.96354,-3.25521 6.01562,-3.20312 C6.08073,-3.13802 6.11328,-3.0599 6.11328,-2.96875 C6.11328,-2.8776 6.08724,-2.80599 6.03516,-2.75391 L3.90625,-0.195312 C3.78906,-0.0520833 3.65234,0.0195312 3.49609,0.0195312"/>
<path class="Arpeggio" transform="matrix(0,-0.850394,0.850394,0,266.103,55.5294)" d="M-0.527344,-0.820312 C-0.605469,-0.742188 -0.696615,-0.703125 -0.800781,-0.703125 C-0.891927,-0.703125 -0.970052,-0.742188 -1.03516,-0.820312 C-1.08724,-0.872396 -1.11328,-0.9375 -1.11328,-1.01562 C-1.11328,-1.09375 -1.07422,-1.17188 -0.996094,-1.25 L0.839844,-2.96875 C1.03516,-3.16406 1.30859,-3.29427 1.66016,-3.35938 L0.917969,-4.92188 C0.878906,-4.98698 0.865885,-5.03906 0.878906,-5.07812 C0.878906,-5.15625 0.93099,-5.19531 1.03516,-5.19531 C1.11328,-5.19531 1.34766,-4.98698 1.73828,-4.57031 C2.12891,-4.15365 2.63672,-3.6849 3.26172,-3.16406 C3.8737,-2.63021 4.44661,-2.27865 4.98047,-2.10938 C5.00651,-2.10938 5.01953,-2.07031 5.01953,-1.99219 C5.01953,-1.9401 5.00651,-1.90104 4.98047,-1.875 C4.44661,-1.70573 3.8737,-1.35417 3.26172,-0.820312 C2.63672,-0.299479 2.12891,0.169271 1.73828,0.585938 C1.34766,1.0026 1.11328,1.21094 1.03516,1.21094 C0.94401,1.21094 0.891927,1.1849 0.878906,1.13281 C0.878906,1.10677 0.891927,1.04167 0.917969,0.9375 L1.77734,-0.898438 C1.76432,-0.911458 1.73828,-0.93099 1.69922,-0.957031 C1.66016,-0.983073 1.62109,-1.01237 1.58203,-1.04492 C1.54297,-1.07747 1.50391,-1.10677 1.46484,-1.13281 C1.42578,-1.17188 1.37695,-1.21745 1.31836,-1.26953 C1.25977,-1.32161 1.21419,-1.36068 1.18164,-1.38672 C1.14909,-1.41276 1.1263,-1.43229 1.11328,-1.44531 C1.10026,-1.45833 1.0612,-1.48763 0.996094,-1.5332 C0.93099,-1.57878 0.878906,-1.61458 0.839844,-1.64062 C0.748698,-1.69271 0.644531,-1.71875 0.527344,-1.71875 C0.31901,-1.71875 0.136719,-1.6276 -0.0195312,-1.44531 L-0.527344,-0.820312 "/>
<path class="Arpeggio" transform="matrix(0,0.850394,-0.850394,0,262.715,20.3178)" d="M3.49609,0.0195312 C3.27474,0.0195312 3.03385,-0.130208 2.77344,-0.429688 C2.4349,-0.820312 2.14844,-1.11979 1.91406,-1.32812 C1.60156,-1.64062 1.25651,-1.79688 0.878906,-1.79688 C0.514323,-1.79688 0.201823,-1.6862 -0.0585938,-1.46484 L-0.566406,-0.839844 C-0.63151,-0.761719 -0.709635,-0.722656 -0.800781,-0.722656 C-0.878906,-0.722656 -0.950521,-0.755208 -1.01562,-0.820312 C-1.08073,-0.885417 -1.11328,-0.957031 -1.11328,-1.03516 C-1.11328,-1.11328 -1.08724,-1.17839 -1.03516,-1.23047 L1.09375,-3.80859 C1.19792,-3.95182 1.33464,-4.02344 1.50391,-4.02344 C1.72526,-4.02344 1.96615,-3.8737 2.22656,-3.57422 C2.5651,-3.18359 2.85156,-2.8776 3.08594,-2.65625 C3.41146,-2.35677 3.75651,-2.20703 4.12109,-2.20703 C4.48568,-2.20703 4.79818,-2.31771 5.05859,-2.53906 L5.56641,-3.16406 C5.63151,-3.24219 5.70964,-3.28125 5.80078,-3.28125 C5.89193,-3.28125 5.96354,-3.25521 6.01562,-3.20312 C6.08073,-3.13802 6.11328,-3.0599 6.11328,-2.96875 C6.11328,-2.8776 6.08724,-2.80599 6.03516,-2.75391 L3.90625,-0.195312 C3.78906,-0.0520833 3.65234,0.0195312 3.49609,0.0195312"/>
<path class="Arpeggio" transform="matrix(0,0.850394,-0.850394,0,262.715,24.5697)" d="M3.49609,0.0195312 C3.27474,0.0195312 3.03385,-0.130208 2.77344,-0.429688 C2.4349,-0.820312 2.14844,-1.11979 1.91406,-1.32812 C1.60156,-1.64062 1.25651,-1.79688 0.878906,-1.79688 C0.514323,-1.79688 0.201823,-1.6862 -0.0585938,-1.46484 L-0.566406,-0.839844 C-0.63151,-0.761719 -0.709635,-0.722656 -0.800781,-0.722656 C-0.878906,-0.722656 -0.950521,-0.755208 -1.01562,-0.820312 C-1.08073,-0.885417 -1.11328,-0.957031 -1.11328,-1.03516 C-1.11328,-1.11328 -1.08724,-1.17839 -1.03516,-1.23047 L1.09375,-3.80859 C1.19792,-3.95182 1.33464,-4.02344 1.50391,-4.02344 C1.72526,-4.02344 1.96615,-3.8737 2.22656,-3.57422 C2.5651,-3.18359 2.85156,-2.8776 3.08594,-2.65625 C3.41146,-2.35677 3.75651,-2.20703 4.12109,-2.20703 C4.48568,-2.20703 4.79818,-2.31771 5.05859,-2.53906 L5.56641,-3.16406 C5.63151,-3.24219 5.70964,-3.28125 5.80078,-3.28125 C5.89193,-3.28125 5.96354,-3.25521 6.01562,-3.20312 C6.08073,-3.13802 6.11328,-3.0599 6.11328,-2.96875 C6.11328,-2.8776 6.08724,-2.80599 6.03516,-2.75391 L3.90625,-0.195312 C3.78906,-0.0520833 3.65234,0.0195312 3.49609,0.0195312"/>
<path class="Arpeggio" transform="matrix(0,0.850394,-0.850394,0,262.715,28.8217)" d="M3.49609,0.0195312 C3.27474,0.0195312 3.03385,-0.130208 2.77344,-0.429688 C2.4349,-0.820312 2.14844,-1.11979 1.91406,-1.32812 C1.60156,-1.64062 1.25651,-1.79688 0.878906,-1.79688 C0.514323,-1.79688 0.201823,-1.6862 -0.0585938,-1.46484 L-0.566406,-0.839844 C-0.63151,-0.761719 -0.709635,-0.722656 -0.800781,-0.722656 C-0.878906,-0.722656 -0.950521,-0.755208 -1.01562,-0.820312 C-1.08073,-0.885417 -1.11328,-0.957031 -1.11328,-1.03516 C-1.11328,-1.11328 -1.08724,-1.17839 -1.03516,-1.23047 L1.09375,-3.80859 C1.19792,-3.95182 1.33464,-4.02344 1.50391,-4.02344 C1.72526,-4.02344 1.96615,-3.8737 2.22656,-3.57422 C2.5651,-3.18359 2.85156,-2.8776 3.08594,-2.65625 C3.41146,-2.35677 3.75651,-2.20703 4.12109,-2.20703 C4.48568,-2.20703 4.79818,-2.31771 5.05859,-2.53906 L5.56641,-3.16406 C5.63151,-3.24219 5.70964,-3.28125 5.80078,-3.28125 C5.89193,-3.28125 5.96354,-3.25521 6.01562,-3.20312 C6.08073,-3.13802 6.11328,-3.0599 6.11328,-2.96875 C6.11328,-2.8776 6.08724,-2.80599 6.03516,-2.75391 L3.90625,-0.195312 C3.78906,-0.0520833 3.65234,0.0195312 3.49609,0.0195312"/>
<path class="Arpeggio" transform="matrix(0,0.850394,-0.850394,0,262.715,33.0737)" d="M3.49609,0.0195312 C3.27474,0.0195312 3.03385,-0.130208 2.77344,-0.429688 C2.4349,-0.820312 2.14844,-1.11979 1.91406,-1.32812 C1.60156,-1.64062 1.25651,-1.79688 0.878906,-1.79688 C0.514323,-1.79688 0.201823,-1.6862 -0.0585938,-1.46484 L-0.566406,-0.839844 C-0.63151,-0.761719 -0.709635,-0.722656 -0.800781,-0.722656 C-0.878906,-0.722656 -0.950521,-0.755208 -1.01562,-0.820312 C-1.08073,-0.885417 -1.11328,-0.957031 -1.11328,-1.03516 C-1.11328,-1.11328 -1.08724,-1.17839 -1.03516,-1.23047 L1.09375,-3.80859 C1.19792,-3.95182 1.33464,-4.02344 1.50391,-4.02344 C1.72526,-4.02344 1.96615,-3.8737 2.22656,-3.57422 C2.5651,-3.18359 2.85156,-2.8776 3.08594,-2.65625 C3.41146,-2.35677 3.75651,-2.20703 4.12109,-2.20703 C4.48568,-2.20703 4.79818,-2.31771 5.05859,-2.53906 L5.56641,-3.16406 C5.63151,-3.24219 5.70964,-3.28125 5.80078,-3.28125 C5.89193,-3.28125 5.96354,-3.25521 6.01562,-3.20312 C6.08073,-3.13802 6.11328,-3.0599 6.11328,-2.96875 C6.11328,-2.8776 6.08724,-2.80599 6.03516,-2.75391 L3.90625,-0.195312 C3.78906,-0.0520833 3.65234,0.0195312 3.49609,0.0195312"/>
<path class="Arpeggio" transform="matrix(0,0.850394,-0.850394,0,262.715,37.3256)" d="M-0.527344,-0.820312 C-0.605469,-0.742188 -0.696615,-0.703125 -0.800781,-0.703125 C-0.891927,-0.703125 -0.970052,-0.742188 -1.03516,-0.820312 C-1.08724,-0.872396 -1.11328,-0.9375 -1.11328,-1.01562 C-1.11328,-1.09375 -1.07422,-1.17188 -0.996094,-1.25 L0.839844,-2.96875 C1.03516,-3.16406 1.30859,-3.29427 1.66016,-3.35938 L0.917969,-4.92188 C0.878906,-4.98698 0.865885,-5.03906 0.878906,-5.07812 C0.878906,-5.15625 0.93099,-5.19531 1.03516,-5.19531 C1.11328,-5.19531 1.34766,-4.98698 1.73828,-4.57031 C2.12891,-4.15365 2.63672,-3.6849 3.26172,-3.16406 C3.8737,-2.63021 4.44661,-2.27865 4.98047,-2.10938 C5.00651,-2.10938 5.01953,-2.07031 5.01953,-1.99219 C5.01953,-1.9401 5.00651,-1.90104 4.98047,-1.875 C4.44661,-1.70573 3.8737,-1.35417 3.26172,-0.820312 C2.63672,-0.299479 2.12891,0.169271 1.73828,0.585938 C1.34766,1.0026 1.11328,1.21094 1.03516,1.21094 C0.94401,1.21094 0.891927,1.1849 0.878906,1.13281 C0.878906,1.10677 0.891927,1.04167 0.917969,0.9375 L1.77734,-0.898438 C1.76432,-0.911458 1.73828,-0.93099 1.69922,-0.957031 C1.66016,-0.983073 1.62109,-1.01237 1.58203,-1.04492 C1.54297,-1.07747 1.50391,-1.10677 1.46484,-1.13281 C1.42578,-1.17188 1.37695,-1.21745 1.31836,-1.26953 C1.25977,-1.32161 1.21419,-1.36068 1.18164,-1.38672 C1.14909,-1.41276 1.1263,-1.43229 1.11328,-1.44531 C1.10026,-1.45833 1.0612,-1.48763 0.996094,-1.5332 C0.93099,-1.57878 0.878906,-1.61458 0.839844,-1.64062 C0.748698,-1.69271 0.644531,-1.71875 0.527344,-1.71875 C0.31901,-1.71875 0.136719,-1.6276 -0.0195312,-1.44531 L-0.527344,-0.820312 "/>
<polyline class="LedgerLine" fill="none" stroke="#000000" stroke-width="0.68" stroke-linecap="square" stroke-linejoin="bevel" points="267.983,55.7074 276.44,55.7074"/>
<polyline class="LedgerLine" fill="none" stroke="#000000" stroke-width="0.68" stroke-linecap="square" stroke-linejoin="bevel" points="97.6663,81.2192 105.815,81.2192"/>
<polyline class="LedgerLine" fill="none" stroke="#000000" stroke-width="0.68" stroke-linecap="square" stroke-linejoin="bevel" points="97.6663,13.1877 105.815,13.1877"/>
<polyline class="LedgerLine" fill="none" stroke="#000000" stroke-width="0.68" stroke-linecap="square" stroke-linejoin="bevel" points="97.6663,17.4397 105.815,17.4397"/>
<polyline class="LedgerLine" fill="none" stroke="#000000" stroke-width="0.68" stroke-linecap="square" stroke-linejoin="bevel" points="38.7221,55.7074 49.6949,55.7074"/>
<polyline class="Stem" fill="none" stroke="#000000" stroke-width="0.55" stroke-linecap="round" stroke-linejoin="bevel" points="269.535,54.2482 269.535,81.7507"/>
<polyline class="Stem" fill="none" stroke="#000000" stroke-width="0.55" stroke-linecap="round" stroke-linejoin="bevel" points="269.535,22.3584 269.535,48.2665"/>
<polyline class="Stem" fill="none" stroke="#000000" stroke-width="0.55" stroke-linecap="round" stroke-linejoin="bevel" points="188.704,60.758 188.704,81.7507"/>
<polyline class="Stem" fill="none" stroke="#000000" stroke-width="0.55" stroke-linecap="round" stroke-linejoin="bevel" points="193.749,35.775 193.749,15.3137"/>
<polyline class="Stem" fill="none" stroke="#000000" stroke-width="0.55" stroke-linecap="round" stroke-linejoin="bevel" points="104.264,82.5466 104.264,53.5814"/>
<polyline class="Stem" fill="none" stroke="#000000" stroke-width="0.55" stroke-linecap="round" stroke-linejoin="bevel" points="99.2183,11.8603 99.2183,42.9515"/>
<path class="Note" transform="matrix(0.850394,0,0,0.850394,269.259,53.5814)" d="M6.30859,-1.30859 C6.30859,-1.52995 6.22396,-1.71875 6.05469,-1.875 C5.88542,-2.04427 5.6901,-2.12891 5.46875,-2.12891 C5.07812,-2.12891 4.29036,-1.73828 3.10547,-0.957031 C1.88151,-0.16276 1.13281,0.403646 0.859375,0.742188 C0.716146,0.924479 0.644531,1.11328 0.644531,1.30859 C0.644531,1.52995 0.729167,1.71875 0.898438,1.875 C1.05469,2.04427 1.25,2.12891 1.48438,2.12891 C1.86198,2.12891 2.65625,1.73828 3.86719,0.957031 C5.0651,0.175781 5.80729,-0.390625 6.09375,-0.742188 C6.23698,-0.911458 6.30859,-1.10026 6.30859,-1.30859 M5.27344,-2.75391 C6.39323,-2.75391 6.95312,-2.27214 6.95312,-1.30859 C6.95312,-0.839844 6.81641,-0.292969 6.54297,0.332031 C6.26953,0.94401 5.90495,1.41276 5.44922,1.73828 C4.44661,2.41536 3.1901,2.75391 1.67969,2.75391 C0.559896,2.75391 0,2.27214 0,1.30859 C0,0.878906 0.136719,0.338542 0.410156,-0.3125 C0.670573,-0.9375 1.03516,-1.41276 1.50391,-1.73828 C2.50651,-2.41536 3.76302,-2.75391 5.27344,-2.75391"/>
<path class="Note" transform="matrix(0.850394,0,0,0.850394,269.259,68.4633)" d="M6.30859,-1.30859 C6.30859,-1.52995 6.22396,-1.71875 6.05469,-1.875 C5.88542,-2.04427 5.6901,-2.12891 5.46875,-2.12891 C5.07812,-2.12891 4.29036,-1.73828 3.10547,-0.957031 C1.88151,-0.16276 1.13281,0.403646 0.859375,0.742188 C0.716146,0.924479 0.644531,1.11328 0.644531,1.30859 C0.644531,1.52995 0.729167,1.71875 0.898438,1.875 C1.05469,2.04427 1.25,2.12891 1.48438,2.12891 C1.86198,2.12891 2.65625,1.73828 3.86719,0.957031 C5.0651,0.175781 5.80729,-0.390625 6.09375,-0.742188 C6.23698,-0.911458 6.30859,-1.10026 6.30859,-1.30859 M5.27344,-2.75391 C6.39323,-2.75391 6.95312,-2.27214 6.95312,-1.30859 C6.95312,-0.839844 6.81641,-0.292969 6.54297,0.332031 C6.26953,0.94401 5.90495,1.41276 5.44922,1.73828 C4.44661,2.41536 3.1901,2.75391 1.67969,2.75391 C0.559896,2.75391 0,2.27214 0,1.30859 C0,0.878906 0.136719,0.338542 0.410156,-0.3125 C0.670573,-0.9375 1.03516,-1.41276 1.50391,-1.73828 C2.50651,-2.41536 3.76302,-2.75391 5.27344,-2.75391"/>
<path class="Note" transform="matrix(0.850394,0,0,0.850394,269.259,21.6917)" d="M6.30859,-1.30859 C6.30859,-1.52995 6.22396,-1.71875 6.05469,-1.875 C5.88542,-2.04427 5.6901,-2.12891 5.46875,-2.12891 C5.07812,-2.12891 4.29036,-1.73828 3.10547,-0.957031 C1.88151,-0.16276 1.13281,0.403646 0.859375,0.742188 C0.716146,0.924479 0.644531,1.11328 0.644531,1.30859 C0.644531,1.52995 0.729167,1.71875 0.898438,1.875 C1.05469,2.04427 1.25,2.12891 1.48438,2.12891 C1.86198,2.12891 2.65625,1.73828 3.86719,0.957031 C5.0651,0.175781 5.80729,-0.390625 6.09375,-0.742188 C6.23698,-0.911458 6.30859,-1.10026 6.30859,-1.30859 M5.27344,-2.75391 C6.39323,-2.75391 6.95312,-2.27214 6.95312,-1.30859 C6.95312,-0.839844 6.81641,-0.292969 6.54297,0.332031 C6.26953,0.94401 5.90495,1.41276 5.44922,1.73828 C4.44661,2.41536 3.1901,2.75391 1.67969,2.75391 C0.559896,2.75391 0,2.27214 0,1.30859 C0,0.878906 0.136719,0.338542 0.410156,-0.3125 C0.670573,-0.9375 1.03516,-1.41276 1.50391,-1.73828 C2.50651,-2.41536 3.76302,-2.75391 5.27344,-2.75391"/>
<path class="Note" transform="matrix(0.850394,0,0,0.850394,269.259,28.0696)" d="M6.30859,-1.30859 C6.30859,-1.52995 6.22396,-1.71875 6.05469,-1.875 C5.88542,-2.04427 5.6901,-2.12891 5.46875,-2.12891 C5.07812,-2.12891 4.29036,-1.73828 3.10547,-0.957031 C1.88151,-0.16276 1.13281,0.403646 0.859375,0.742188 C0.716146,0.924479 0.644531,1.11328 0.644531,1.30859 C0.644531,1.52995 0.729167,1.71875 0.898438,1.875 C1.05469,2.04427 1.25,2.12891 1.48438,2.12891 C1.86198,2.12891 2.65625,1.73828 3.86719,0.957031 C5.0651,0.175781 5.80729,-0.390625 6.09375,-0.742188 C6.23698,-0.911458 6.30859,-1.10026 6.30859,-1.30859 M5.27344,-2.75391 C6.39323,-2.75391 6.95312,-2.27214 6.95312,-1.30859 C6.95312,-0.839844 6.81641,-0.292969 6.54297,0.332031 C6.26953,0.94401 5.90495,1.41276 5.44922,1.73828 C4.44661,2.41536 3.1901,2.75391 1.67969,2.75391 C0.559896,2.75391 0,2.27214 0,1.30859 C0,0.878906 0.136719,0.338542 0.410156,-0.3125 C0.670573,-0.9375 1.03516,-1.41276 1.50391,-1.73828 C2.50651,-2.41536 3.76302,-2.75391 5.27344,-2.75391"/>
<path class="Note" transform="matrix(0.850394,0,0,0.850394,269.259,36.5736)" d="M6.30859,-1.30859 C6.30859,-1.52995 6.22396,-1.71875 6.05469,-1.875 C5.88542,-2.04427 5.6901,-2.12891 5.46875,-2.12891 C5.07812,-2.12891 4.29036,-1.73828 3.10547,-0.957031 C1.88151,-0.16276 1.13281,0.403646 0.859375,0.742188 C0.716146,0.924479 0.644531,1.11328 0.644531,1.30859 C0.644531,1.52995 0.729167,1.71875 0.898438,1.875 C1.05469,2.04427 1.25,2.12891 1.48438,2.12891 C1.86198,2.12891 2.65625,1.73828 3.86719,0.957031 C5.0651,0.175781 5.80729,-0.390625 6.09375,-0.742188 C6.23698,-0.911458 6.30859,-1.10026 6.30859,-1.30859 M5.27344,-2.75391 C6.39323,-2.75391 6.95312,-2.27214 6.95312,-1.30859 C6.95312,-0.839844 6.81641,-0.292969 6.54297,0.332031 C6.26953,0.94401 5.90495,1.41276 5.44922,1.73828 C4.44661,2.41536 3.1901,2.75391 1.67969,2.75391 C0.559896,2.75391 0,2.27214 0,1.30859 C0,0.878906 0.136719,0.338542 0.410156,-0.3125 C0.670573,-0.9375 1.03516,-1.41276 1.50391,-1.73828 C2.50651,-2.41536 3.76302,-2.75391 5.27344,-2.75391"/>
<path class="Note" transform="matrix(0.850394,0,0,0.850394,188.427,59.9594)" d="M4.39453,-2.75391 C5.01953,-2.75391 5.54688,-2.59115 5.97656,-2.26562 C6.38021,-1.91406 6.58203,-1.47135 6.58203,-0.9375 C6.58203,-0.0390625 6.11979,0.800781 5.19531,1.58203 C4.25781,2.36328 3.25521,2.75391 2.1875,2.75391 C1.5625,2.75391 1.03516,2.59115 0.605469,2.26562 C0.201823,1.91406 0,1.47135 0,0.9375 C0,0.0390625 0.46875,-0.800781 1.40625,-1.58203 C2.31771,-2.36328 3.3138,-2.75391 4.39453,-2.75391"/>
<path class="Note" transform="matrix(0.850394,0,0,0.850394,188.427,68.4633)" d="M4.39453,-2.75391 C5.01953,-2.75391 5.54688,-2.59115 5.97656,-2.26562 C6.38021,-1.91406 6.58203,-1.47135 6.58203,-0.9375 C6.58203,-0.0390625 6.11979,0.800781 5.19531,1.58203 C4.25781,2.36328 3.25521,2.75391 2.1875,2.75391 C1.5625,2.75391 1.03516,2.59115 0.605469,2.26562 C0.201823,1.91406 0,1.47135 0,0.9375 C0,0.0390625 0.46875,-0.800781 1.40625,-1.58203 C2.31771,-2.36328 3.3138,-2.75391 4.39453,-2.75391"/>
<path class="Note" transform="matrix(0.850394,0,0,0.850394,188.427,28.0696)" d="M4.39453,-2.75391 C5.01953,-2.75391 5.54688,-2.59115 5.97656,-2.26562 C6.38021,-1.91406 6.58203,-1.47135 6.58203,-0.9375 C6.58203,-0.0390625 6.11979,0.800781 5.19531,1.58203 C4.25781,2.36328 3.25521,2.75391 2.1875,2.75391 C1.5625,2.75391 1.03516,2.59115 0.605469,2.26562 C0.201823,1.91406 0,1.47135 0,0.9375 C0,0.0390625 0.46875,-0.800781 1.40625,-1.58203 C2.31771,-2.36328 3.3138,-2.75391 4.39453,-2.75391"/>
<path class="Note" transform="matrix(0.850394,0,0,0.850394,188.427,36.5736)" d="M4.39453,-2.75391 C5.01953,-2.75391 5.54688,-2.59115 5.97656,-2.26562 C6.38021,-1.91406 6.58203,-1.47135 6.58203,-0.9375 C6.58203,-0.0390625 6.11979,0.800781 5.19531,1.58203 C4.25781,2.36328 3.25521,2.75391 2.1875,2.75391 C1.5625,2.75391 1.03516,2.59115 0.605469,2.26562 C0.201823,1.91406 0,1.47135 0,0.9375 C0,0.0390625 0.46875,-0.800781 1.40625,-1.58203 C2.31771,-2.36328 3.3138,-2.75391 4.39453,-2.75391"/>
<path class="Note" transform="matrix(0.850394,0,0,0.850394,98.9419,68.4633)" d="M4.39453,-2.75391 C5.01953,-2.75391 5.54688,-2.59115 5.97656,-2.26562 C6.38021,-1.91406 6.58203,-1.47135 6.58203,-0.9375 C6.58203,-0.0390625 6.11979,0.800781 5.19531,1.58203 C4.25781,2.36328 3.25521,2.75391 2.1875,2.75391 C1.5625,2.75391 1.03516,2.59115 0.605469,2.26562 C0.201823,1.91406 0,1.47135 0,0.9375 C0,0.0390625 0.46875,-0.800781 1.40625,-1.58203 C2.31771,-2.36328 3.3138,-2.75391 4.39453,-2.75391"/>
<path class="Note" transform="matrix(0.850394,0,0,0.850394,98.9419,74.8413)" d="M4.39453,-2.75391 C5.01953,-2.75391 5.54688,-2.59115 5.97656,-2.26562 C6.38021,-1.91406 6.58203,-1.47135 6.58203,-0.9375 C6.58203,-0.0390625 6.11979,0.800781 5.19531,1.58203 C4.25781,2.36328 3.25521,2.75391 2.1875,2.75391 C1.5625,2.75391 1.03516,2.59115 0.605469,2.26562 C0.201823,1.91406 0,1.47135 0,0.9375 C0,0.0390625 0.46875,-0.800781 1.40625,-1.58203 C2.31771,-2.36328 3.3138,-2.75391 4.39453,-2.75391"/>
<path class="Note" transform="matrix(0.850394,0,0,0.850394,98.9419,79.0933)" d="M4.39453,-2.75391 C5.01953,-2.75391 5.54688,-2.59115 5.97656,-2.26562 C6.38021,-1.91406 6.58203,-1.47135 6.58203,-0.9375 C6.58203,-0.0390625 6.11979,0.800781 5.19531,1.58203 C4.25781,2.36328 3.25521,2.75391 2.1875,2.75391 C1.5625,2.75391 1.03516,2.59115 0.605469,2.26562 C0.201823,1.91406 0,1.47135 0,0.9375 C0,0.0390625 0.46875,-0.800781 1.40625,-1.58203 C2.31771,-2.36328 3.3138,-2.75391 4.39453,-2.75391"/>
<path class="Note" transform="matrix(0.850394,0,0,0.850394,98.9419,83.3452)" d="M4.39453,-2.75391 C5.01953,-2.75391 5.54688,-2.59115 5.97656,-2.26562 C6.38021,-1.91406 6.58203,-1.47135 6.58203,-0.9375 C6.58203,-0.0390625 6.11979,0.800781 5.19531,1.58203 C4.25781,2.36328 3.25521,2.75391 2.1875,2.75391 C1.5625,2.75391 1.03516,2.59115 0.605469,2.26562 C0.201823,1.91406 0,1.47135 0,0.9375 C0,0.0390625 0.46875,-0.800781 1.40625,-1.58203 C2.31771,-2.36328 3.3138,-2.75391 4.39453,-2.75391"/>
<path class="Note" transform="matrix(0.850394,0,0,0.850394,98.9419,11.0618)" d="M4.39453,-2.75391 C5.01953,-2.75391 5.54688,-2.59115 5.97656,-2.26562 C6.38021,-1.91406 6.58203,-1.47135 6.58203,-0.9375 C6.58203,-0.0390625 6.11979,0.800781 5.19531,1.58203 C4.25781,2.36328 3.25521,2.75391 2.1875,2.75391 C1.5625,2.75391 1.03516,2.59115 0.605469,2.26562 C0.201823,1.91406 0,1.47135 0,0.9375 C0,0.0390625 0.46875,-0.800781 1.40625,-1.58203 C2.31771,-2.36328 3.3138,-2.75391 4.39453,-2.75391"/>
<path class="Note" transform="matrix(0.850394,0,0,0.850394,98.9419,17.4397)" d="M4.39453,-2.75391 C5.01953,-2.75391 5.54688,-2.59115 5.97656,-2.26562 C6.38021,-1.91406 6.58203,-1.47135 6.58203,-0.9375 C6.58203,-0.0390625 6.11979,0.800781 5.19531,1.58203 C4.25781,2.36328 3.25521,2.75391 2.1875,2.75391 C1.5625,2.75391 1.03516,2.59115 0.605469,2.26562 C0.201823,1.91406 0,1.47135 0,0.9375 C0,0.0390625 0.46875,-0.800781 1.40625,-1.58203 C2.31771,-2.36328 3.3138,-2.75391 4.39453,-2.75391"/>
<path class="Note" transform="matrix(0.850394,0,0,0.850394,98.9419,21.6917)" d="M4.39453,-2.75391 C5.01953,-2.75391 5.54688,-2.59115 5.97656,-2.26562 C6.38021,-1.91406 6.58203,-1.47135 6.58203,-0.9375 C6.58203,-0.0390625 6.11979,0.800781 5.19531,1.58203 C4.25781,2.36328 3.25521,2.75391 2.1875,2.75391 C1.5625,2.75391 1.03516,2.59115 0.605469,2.26562 C0.201823,1.91406 0,1.47135 0,0.9375 C0,0.0390625 0.46875,-0.800781 1.40625,-1.58203 C2.31771,-2.36328 3.3138,-2.75391 4.39453,-2.75391"/>
<path class="Note" transform="matrix(0.850394,0,0,0.850394,98.9419,28.0696)" d="M4.39453,-2.75391 C5.01953,-2.75391 5.54688,-2.59115 5.97656,-2.26562 C6.38021,-1.91406 6.58203,-1.47135 6.58203,-0.9375 C6.58203,-0.0390625 6.11979,0.800781 5.19531,1.58203 C4.25781,2.36328 3.25521,2.75391 2.1875,2.75391 C1.5625,2.75391 1.03516,2.59115 0.605469,2.26562 C0.201823,1.91406 0,1.47135 0,0.9375 C0,0.0390625 0.46875,-0.800781 1.40625,-1.58203 C2.31771,-2.36328 3.3138,-2.75391 4.39453,-2.75391"/>
<path class="Note" transform="matrix(0.850394,0,0,0.850394,39.9977,53.5814)" d="M4.29688,-2.24609 C3.82812,-2.24609 3.48958,-2.08333 3.28125,-1.75781 C3.04688,-1.44531 2.92969,-1.02214 2.92969,-0.488281 C2.92969,0.123698 3.09245,0.651042 3.41797,1.09375 C3.74349,1.52344 4.10156,1.82292 4.49219,1.99219 C4.84375,2.16146 5.21484,2.24609 5.60547,2.24609 C6.0612,2.24609 6.40625,2.08333 6.64062,1.75781 C6.86198,1.43229 6.97266,1.00911 6.97266,0.488281 C6.97266,-0.123698 6.8099,-0.651042 6.48438,-1.09375 C6.15885,-1.51042 5.80729,-1.8099 5.42969,-1.99219 C5.05208,-2.16146 4.67448,-2.24609 4.29688,-2.24609 M4.96094,-2.75391 C6.36719,-2.75391 7.53906,-2.48047 8.47656,-1.93359 C9.42708,-1.38672 9.90234,-0.742188 9.90234,0 C9.90234,0.794271 9.41406,1.44531 8.4375,1.95312 C7.46094,2.48698 6.30208,2.75391 4.96094,2.75391 C3.58073,2.75391 2.40885,2.48047 1.44531,1.93359 C0.481771,1.38672 0,0.742188 0,0 C0,-0.794271 0.494792,-1.44531 1.48438,-1.95312 C2.46094,-2.48698 3.61979,-2.75391 4.96094,-2.75391"/>
<path class="Note" transform="matrix(0.850394,0,0,0.850394,39.9977,28.0696)" d="M4.29688,-2.24609 C3.82812,-2.24609 3.48958,-2.08333 3.28125,-1.75781 C3.04688,-1.44531 2.92969,-1.02214 2.92969,-0.488281 C2.92969,0.123698 3.09245,0.651042 3.41797,1.09375 C3.74349,1.52344 4.10156,1.82292 4.49219,1.99219 C4.84375,2.16146 5.21484,2.24609 5.60547,2.24609 C6.0612,2.24609 6.40625,2.08333 6.64062,1.75781 C6.86198,1.43229 6.97266,1.00911 6.97266,0.488281 C6.97266,-0.123698 6.8099,-0.651042 6.48438,-1.09375 C6.15885,-1.51042 5.80729,-1.8099 5.42969,-1.99219 C5.05208,-2.16146 4.67448,-2.24609 4.29688,-2.24609 M4.96094,-2.75391 C6.36719,-2.75391 7.53906,-2.48047 8.47656,-1.93359 C9.42708,-1.38672 9.90234,-0.742188 9.90234,0 C9.90234,0.794271 9.41406,1.44531 8.4375,1.95312 C7.46094,2.48698 6.30208,2.75391 4.96094,2.75391 C3.58073,2.75391 2.40885,2.48047 1.44531,1.93359 C0.481771,1.38672 0,0.742188 0,0 C0,-0.794271 0.494792,-1.44531 1.48438,-1.95312 C2.46094,-2.48698 3.61979,-2.75391 4.96094,-2.75391"/>
<path class="Note" transform="matrix(0.850394,0,0,0.850394,39.9977,36.5736)" d="M4.29688,-2.24609 C3.82812,-2.24609 3.48958,-2.08333 3.28125,-1.75781 C3.04688,-1.44531 2.92969,-1.02214 2.92969,-0.488281 C2.92969,0.123698 3.09245,0.651042 3.41797,1.09375 C3.74349,1.52344 4.10156,1.82292 4.49219,1.99219 C4.84375,2.16146 5.21484,2.24609 5.60547,2.24609 C6.0612,2.24609 6.40625,2.08333 6.64062,1.75781 C6.86198,1.43229 6.97266,1.00911 6.97266,0.488281 C6.97266,-0.123698 6.8099,-0.651042 6.48438,-1.09375 C6.15885,-1.51042 5.80729,-1.8099 5.42969,-1.99219 C5.05208,-2.16146 4.67448,-2.24609 4.29688,-2.24609 M4.96094,-2.75391 C6.36719,-2.75391 7.53906,-2.48047 8.47656,-1.93359 C9.42708,-1.38672 9.90234,-0.742188 9.90234,0 C9.90234,0.794271 9.41406,1.44531 8.4375,1.95312 C7.46094,2.48698 6.30208,2.75391 4.96094,2.75391 C3.58073,2.75391 2.40885,2.48047 1.44531,1.93359 C0.481771,1.38672 0,0.742188 0,0 C0,-0.794271 0.494792,-1.44531 1.48438,-1.95312 C2.46094,-2.48698 3.61979,-2.75391 4.96094,-2.75391"/>
<path class="Clef" transform="matrix(0.850394,0,0,0.850394,10.5449,64.2114)" d="M11.4258,-1.77734 C11.2305,-1.97266 11.1328,-2.21354 11.1328,-2.5 C11.1328,-2.78646 11.2305,-3.02734 11.4258,-3.22266 C11.6211,-3.41797 11.862,-3.51562 12.1484,-3.51562 C12.4349,-3.51562 12.6758,-3.41797 12.8711,-3.22266 C13.0664,-3.02734 13.1641,-2.78646 13.1641,-2.5 C13.1641,-2.21354 13.0664,-1.97266 12.8711,-1.77734 C12.6758,-1.58203 12.4349,-1.48438 12.1484,-1.48438 C11.862,-1.48438 11.6211,-1.58203 11.4258,-1.77734 M11.4258,3.22266 C11.2305,3.02734 11.1328,2.78646 11.1328,2.5 C11.1328,2.21354 11.2305,1.97266 11.4258,1.77734 C11.6211,1.58203 11.862,1.48438 12.1484,1.48438 C12.4349,1.48438 12.6758,1.58203 12.8711,1.77734 C13.0664,1.97266 13.1641,2.21354 13.1641,2.5 C13.1641,2.78646 13.0664,3.02734 12.8711,3.22266 C12.6758,3.41797 12.4349,3.51562 12.1484,3.51562 C11.862,3.51562 11.6211,3.41797 11.4258,3.22266 M4.64844,-5.25391 C6.38021,-5.25391 7.79948,-4.81771 8.90625,-3.94531 C9.97396,-3.03385 10.5078,-1.79688 10.5078,-0.234375 C10.5078,0.820312 10.2995,1.78385 9.88281,2.65625 C9.49219,3.56771 8.97786,4.375 8.33984,5.07812 C7.6888,5.79427 6.90104,6.47135 5.97656,7.10938 C5.07812,7.73438 4.15365,8.29427 3.20312,8.78906 C1.27604,9.76562 0.208333,10.2539 0,10.2539 C-0.169271,10.2539 -0.253906,10.1693 -0.253906,10 C-0.253906,9.9349 -0.227865,9.8763 -0.175781,9.82422 C0.488281,9.43359 1.30208,8.93229 2.26562,8.32031 C2.89062,7.91667 3.61979,7.35677 4.45312,6.64062 C5.26042,5.96354 5.88542,5.32552 6.32812,4.72656 C6.78385,4.14062 7.20052,3.41146 7.57812,2.53906 C7.90365,1.66667 8.06641,0.807292 8.06641,-0.0390625 C8.06641,-1.30208 7.75391,-2.40234 7.12891,-3.33984 C6.50391,-4.27734 5.67708,-4.74609 4.64844,-4.74609 C3.91927,-4.74609 3.29427,-4.51172 2.77344,-4.04297 C2.21354,-3.5612 1.8099,-2.95573 1.5625,-2.22656 C1.8099,-2.33073 2.03776,-2.38281 2.24609,-2.38281 C2.79297,-2.38281 3.26172,-2.1875 3.65234,-1.79688 C4.04297,-1.38021 4.23828,-0.904948 4.23828,-0.371094 C4.23828,0.188802 4.04948,0.690104 3.67188,1.13281 C3.26823,1.53646 2.79297,1.73828 2.24609,1.73828 C1.66016,1.73828 1.13281,1.53646 0.664062,1.13281 C0.221354,0.690104 0,0.188802 0,-0.371094 C0,-1.71224 0.455729,-2.85807 1.36719,-3.80859 C2.26562,-4.77214 3.35938,-5.25391 4.64844,-5.25391"/>
<path class="Clef" transform="matrix(0.850394,0,0,0.850394,10.5449,34.4476)" d="M7.34375,-5.11719 C7.34375,-5.11719 7.38281,-5.11719 7.46094,-5.11719 C7.51302,-5.13021 7.55859,-5.13672 7.59766,-5.13672 C9.05599,-5.13672 10.2539,-4.6224 11.1914,-3.59375 C12.1289,-2.57812 12.5977,-1.39323 12.5977,-0.0390625 C12.5977,1.64062 11.901,3.00781 10.5078,4.0625 C10.1432,4.34896 9.66797,4.58333 9.08203,4.76562 C9.14714,5.61198 9.17969,6.29557 9.17969,6.81641 C9.17969,6.92057 9.16667,7.29818 9.14062,7.94922 C9.08854,9.16016 8.67188,10.2083 7.89062,11.0938 C7.13542,11.9661 6.19792,12.4023 5.07812,12.4023 C4.02344,12.4023 3.125,12.0312 2.38281,11.2891 C1.64062,10.5339 1.26953,9.6224 1.26953,8.55469 C1.26953,7.99479 1.48438,7.51953 1.91406,7.12891 C2.35677,6.73828 2.87109,6.54297 3.45703,6.54297 C3.97786,6.54297 4.41406,6.74479 4.76562,7.14844 C5.13021,7.52604 5.3125,7.99479 5.3125,8.55469 C5.3125,9.0625 5.13021,9.4987 4.76562,9.86328 C4.40104,10.2279 3.96484,10.4102 3.45703,10.4102 C3.2487,10.4102 3.04688,10.3711 2.85156,10.293 C3.42448,11.1393 4.1862,11.5625 5.13672,11.5625 C6.03516,11.5625 6.77083,11.1979 7.34375,10.4688 C7.94271,9.71354 8.26823,8.83464 8.32031,7.83203 C8.34635,7.20703 8.35938,6.84896 8.35938,6.75781 C8.35938,6.02865 8.33333,5.42969 8.28125,4.96094 C7.63021,5.0651 7.05078,5.11719 6.54297,5.11719 C4.73307,5.11719 3.1901,4.40104 1.91406,2.96875 C0.664062,1.52344 0.0390625,-0.195312 0.0390625,-2.1875 C0.0390625,-2.60417 0.078125,-3.02734 0.15625,-3.45703 C0.234375,-3.80859 0.332031,-4.19271 0.449219,-4.60938 C0.514323,-4.84375 0.690104,-5.22135 0.976562,-5.74219 C1.08073,-5.89844 1.19792,-6.09375 1.32812,-6.32812 C1.45833,-6.5625 1.54948,-6.71875 1.60156,-6.79688 C1.73177,-7.05729 1.98568,-7.40885 2.36328,-7.85156 C2.46745,-7.96875 2.57487,-8.09896 2.68555,-8.24219 C2.79622,-8.38542 2.89062,-8.5026 2.96875,-8.59375 C3.04688,-8.6849 3.10547,-8.75651 3.14453,-8.80859 C3.18359,-8.86068 3.47656,-9.20573 4.02344,-9.84375 C4.15365,-9.97396 4.2806,-10.1139 4.4043,-10.2637 C4.52799,-10.4134 4.62891,-10.5306 4.70703,-10.6152 C4.78516,-10.6999 4.84375,-10.7617 4.88281,-10.8008 C4.41406,-12.3503 4.12109,-13.5872 4.00391,-14.5117 C3.91276,-15.2539 3.86719,-16.2695 3.86719,-17.5586 C3.86719,-18.6914 4.1276,-19.7526 4.64844,-20.7422 C5.15625,-21.7708 5.86589,-22.6107 6.77734,-23.2617 C6.84245,-23.3008 6.90755,-23.3203 6.97266,-23.3203 C7.0638,-23.3203 7.12891,-23.3008 7.16797,-23.2617 C7.87109,-22.4154 8.47656,-21.3151 8.98438,-19.9609 C9.50521,-18.6068 9.76562,-17.3763 9.76562,-16.2695 C9.76562,-15.0195 9.46615,-13.8477 8.86719,-12.7539 C8.1901,-11.5951 7.31771,-10.3971 6.25,-9.16016 C6.52344,-8.30078 6.88802,-6.95312 7.34375,-5.11719 M9.00391,3.96484 C9.68099,3.71745 10.2083,3.29427 10.5859,2.69531 C11.0026,2.1224 11.2109,1.47786 11.2109,0.761719 C11.2109,-0.16276 10.8984,-0.983073 10.2734,-1.69922 C9.63542,-2.44141 8.82161,-2.85807 7.83203,-2.94922 C8.39193,-0.201823 8.78255,2.10286 9.00391,3.96484 M1.44531,-0.546875 C1.44531,0.742188 1.96615,1.875 3.00781,2.85156 C4.07552,3.80208 5.27344,4.27734 6.60156,4.27734 C7.14844,4.27734 7.68229,4.23828 8.20312,4.16016 C7.99479,2.18099 7.58464,-0.188802 6.97266,-2.94922 C6.23047,-2.87109 5.63802,-2.61068 5.19531,-2.16797 C4.76562,-1.71224 4.55078,-1.19792 4.55078,-0.625 C4.55078,0.364583 5.07812,1.16536 6.13281,1.77734 C6.22396,1.86849 6.26953,1.96615 6.26953,2.07031 C6.26953,2.17448 6.22396,2.27214 6.13281,2.36328 C6.05469,2.45443 5.95703,2.5 5.83984,2.5 C5.82682,2.5 5.76823,2.48698 5.66406,2.46094 C4.92188,2.05729 4.34896,1.53646 3.94531,0.898438 C3.56771,0.221354 3.37891,-0.46224 3.37891,-1.15234 C3.37891,-2.05078 3.65885,-2.86458 4.21875,-3.59375 C4.80469,-4.32292 5.56641,-4.79167 6.50391,-5 C6.13932,-6.45833 5.83984,-7.59766 5.60547,-8.41797 C5.39714,-8.18359 5.14648,-7.90039 4.85352,-7.56836 C4.56055,-7.23633 4.38802,-7.03776 4.33594,-6.97266 C3.86719,-6.36068 3.50911,-5.88542 3.26172,-5.54688 C2.81901,-4.9349 2.49349,-4.40755 2.28516,-3.96484 C2.0638,-3.47005 1.86849,-2.92969 1.69922,-2.34375 C1.52995,-1.78385 1.44531,-1.1849 1.44531,-0.546875 M7.96875,-20.4102 C6.99219,-19.9284 6.22396,-19.2383 5.66406,-18.3398 C5.09115,-17.4154 4.80469,-16.4193 4.80469,-15.3516 C4.80469,-14.4141 5.03906,-13.151 5.50781,-11.5625 C6.44531,-12.6953 7.14844,-13.7435 7.61719,-14.707 C8.11198,-15.7227 8.35938,-16.7839 8.35938,-17.8906 C8.35938,-18.724 8.22917,-19.5638 7.96875,-20.4102"/>
<path class="KeySig" transform="matrix(0.850394,0,0,0.850394,27.873,70.5893)" d="M4.31641,6.23047 C4.31641,6.47786 4.19271,6.60156 3.94531,6.60156 C3.69792,6.60156 3.57422,6.47786 3.57422,6.23047 L3.57422,3.33984 L1.91406,3.96484 L1.91406,7.12891 C1.91406,7.3763 1.79036,7.5 1.54297,7.5 C1.29557,7.5 1.17188,7.3763 1.17188,7.12891 L1.17188,4.21875 L0.546875,4.45312 C0.533854,4.46615 0.481771,4.47266 0.390625,4.47266 C0.286458,4.47266 0.195312,4.43359 0.117188,4.35547 C0.0390625,4.27734 0,4.1862 0,4.08203 L0,2.87109 C0,2.67578 0.0846354,2.55208 0.253906,2.5 L1.17188,2.1875 L1.17188,-1.01562 L0.546875,-0.800781 C0.533854,-0.78776 0.481771,-0.78125 0.390625,-0.78125 C0.286458,-0.78125 0.195312,-0.820312 0.117188,-0.898438 C0.0390625,-0.976562 0,-1.06771 0,-1.17188 L0,-2.38281 C0,-2.5651 0.0846354,-2.68229 0.253906,-2.73438 L1.17188,-3.08594 L1.17188,-6.23047 C1.17188,-6.47786 1.29557,-6.60156 1.54297,-6.60156 C1.79036,-6.60156 1.91406,-6.47786 1.91406,-6.23047 L1.91406,-3.33984 L3.57422,-3.96484 L3.57422,-7.12891 C3.57422,-7.3763 3.69792,-7.5 3.94531,-7.5 C4.19271,-7.5 4.31641,-7.3763 4.31641,-7.12891 L4.31641,-4.21875 L4.96094,-4.45312 C4.97396,-4.46615 5.01953,-4.47266 5.09766,-4.47266 C5.1888,-4.47266 5.28646,-4.43359 5.39062,-4.35547 C5.46875,-4.27734 5.50781,-4.1862 5.50781,-4.08203 L5.50781,-2.87109 C5.50781,-2.6888 5.41667,-2.5651 5.23438,-2.5 L4.31641,-2.1875 L4.31641,1.01562 L4.96094,0.800781 C4.97396,0.78776 5.01953,0.78125 5.09766,0.78125 C5.1888,0.78125 5.28646,0.820312 5.39062,0.898438 C5.46875,0.976562 5.50781,1.06771 5.50781,1.17188 L5.50781,2.38281 C5.50781,2.55208 5.41667,2.66927 5.23438,2.73438 L4.31641,3.08594 L4.31641,6.23047 M3.57422,-1.89453 L1.91406,-1.30859 L1.91406,1.89453 L3.57422,1.30859 L3.57422,-1.89453 "/>
<path class="KeySig" transform="matrix(0.850394,0,0,0.850394,23.621,64.2114)" d="M4.31641,6.23047 C4.31641,6.47786 4.19271,6.60156 3.94531,6.60156 C3.69792,6.60156 3.57422,6.47786 3.57422,6.23047 L3.57422,3.33984 L1.91406,3.96484 L1.91406,7.12891 C1.91406,7.3763 1.79036,7.5 1.54297,7.5 C1.29557,7.5 1.17188,7.3763 1.17188,7.12891 L1.17188,4.21875 L0.546875,4.45312 C0.533854,4.46615 0.481771,4.47266 0.390625,4.47266 C0.286458,4.47266 0.195312,4.43359 0.117188,4.35547 C0.0390625,4.27734 0,4.1862 0,4.08203 L0,2.87109 C0,2.67578 0.0846354,2.55208 0.253906,2.5 L1.17188,2.1875 L1.17188,-1.01562 L0.546875,-0.800781 C0.533854,-0.78776 0.481771,-0.78125 0.390625,-0.78125 C0.286458,-0.78125 0.195312,-0.820312 0.117188,-0.898438 C0.0390625,-0.976562 0,-1.06771 0,-1.17188 L0,-2.38281 C0,-2.5651 0.0846354,-2.68229 0.253906,-2.73438 L1.17188,-3.08594 L1.17188,-6.23047 C1.17188,-6.47786 1.29557,-6.60156 1.54297,-6.60156 C1.79036,-6.60156 1.91406,-6.47786 1.91406,-6.23047 L1.91406,-3.33984 L3.57422,-3.96484 L3.57422,-7.12891 C3.57422,-7.3763 3.69792,-7.5 3.94531,-7.5 C4.19271,-7.5 4.31641,-7.3763 4.31641,-7.12891 L4.31641,-4.21875 L4.96094,-4.45312 C4.97396,-4.46615 5.01953,-4.47266 5.09766,-4.47266 C5.1888,-4.47266 5.28646,-4.43359 5.39062,-4.35547 C5.46875,-4.27734 5.50781,-4.1862 5.50781,-4.08203 L5.50781,-2.87109 C5.50781,-2.6888 5.41667,-2.5651 5.23438,-2.5 L4.31641,-2.1875 L4.31641,1.01562 L4.96094,0.800781 C4.97396,0.78776 5.01953,0.78125 5.09766,0.78125 C5.1888,0.78125 5.28646,0.820312 5.39062,0.898438 C5.46875,0.976562 5.50781,1.06771 5.50781,1.17188 L5.50781,2.38281 C5.50781,2.55208 5.41667,2.66927 5.23438,2.73438 L4.31641,3.08594 L4.31641,6.23047 M3.57422,-1.89453 L1.91406,-1.30859 L1.91406,1.89453 L3.57422,1.30859 L3.57422,-1.89453 "/>
<path class="KeySig" transform="matrix(0.850394,0,0,0.850394,27.873,28.0696)" d="M4.31641,6.23047 C4.31641,6.47786 4.19271,6.60156 3.94531,6.60156 C3.69792,6.60156 3.57422,6.47786 3.57422,6.23047 L3.57422,3.33984 L1.91406,3.96484 L1.91406,7.12891 C1.91406,7.3763 1.79036,7.5 1.54297,7.5 C1.29557,7.5 1.17188,7.3763 1.17188,7.12891 L1.17188,4.21875 L0.546875,4.45312 C0.533854,4.46615 0.481771,4.47266 0.390625,4.47266 C0.286458,4.47266 0.195312,4.43359 0.117188,4.35547 C0.0390625,4.27734 0,4.1862 0,4.08203 L0,2.87109 C0,2.67578 0.0846354,2.55208 0.253906,2.5 L1.17188,2.1875 L1.17188,-1.01562 L0.546875,-0.800781 C0.533854,-0.78776 0.481771,-0.78125 0.390625,-0.78125 C0.286458,-0.78125 0.195312,-0.820312 0.117188,-0.898438 C0.0390625,-0.976562 0,-1.06771 0,-1.17188 L0,-2.38281 C0,-2.5651 0.0846354,-2.68229 0.253906,-2.73438 L1.17188,-3.08594 L1.17188,-6.23047 C1.17188,-6.47786 1.29557,-6.60156 1.54297,-6.60156 C1.79036,-6.60156 1.91406,-6.47786 1.91406,-6.23047 L1.91406,-3.33984 L3.57422,-3.96484 L3.57422,-7.12891 C3.57422,-7.3763 3.69792,-7.5 3.94531,-7.5 C4.19271,-7.5 4.31641,-7.3763 4.31641,-7.12891 L4.31641,-4.21875 L4.96094,-4.45312 C4.97396,-4.46615 5.01953,-4.47266 5.09766,-4.47266 C5.1888,-4.47266 5.28646,-4.43359 5.39062,-4.35547 C5.46875,-4.27734 5.50781,-4.1862 5.50781,-4.08203 L5.50781,-2.87109 C5.50781,-2.6888 5.41667,-2.5651 5.23438,-2.5 L4.31641,-2.1875 L4.31641,1.01562 L4.96094,0.800781 C4.97396,0.78776 5.01953,0.78125 5.09766,0.78125 C5.1888,0.78125 5.28646,0.820312 5.39062,0.898438 C5.46875,0.976562 5.50781,1.06771 5.50781,1.17188 L5.50781,2.38281 C5.50781,2.55208 5.41667,2.66927 5.23438,2.73438 L4.31641,3.08594 L4.31641,6.23047 M3.57422,-1.89453 L1.91406,-1.30859 L1.91406,1.89453 L3.57422,1.30859 L3.57422,-1.89453 "/>
<path class="KeySig" transform="matrix(0.850394,0,0,0.850394,23.621,21.6917)" d="M4.31641,6.23047 C4.31641,6.47786 4.19271,6.60156 3.94531,6.60156 C3.69792,6.60156 3.57422,6.47786 3.57422,6.23047 L3.57422,3.33984 L1.91406,3.96484 L1.91406,7.12891 C1.91406,7.3763 1.79036,7.5 1.54297,7.5 C1.29557,7.5 1.17188,7.3763 1.17188,7.12891 L1.17188,4.21875 L0.546875,4.45312 C0.533854,4.46615 0.481771,4.47266 0.390625,4.47266 C0.286458,4.47266 0.195312,4.43359 0.117188,4.35547 C0.0390625,4.27734 0,4.1862 0,4.08203 L0,2.87109 C0,2.67578 0.0846354,2.55208 0.253906,2.5 L1.17188,2.1875 L1.17188,-1.01562 L0.546875,-0.800781 C0.533854,-0.78776 0.481771,-0.78125 0.390625,-0.78125 C0.286458,-0.78125 0.195312,-0.820312 0.117188,-0.898438 C0.0390625,-0.976562 0,-1.06771 0,-1.17188 L0,-2.38281 C0,-2.5651 0.0846354,-2.68229 0.253906,-2.73438 L1.17188,-3.08594 L1.17188,-6.23047 C1.17188,-6.47786 1.29557,-6.60156 1.54297,-6.60156 C1.79036,-6.60156 1.91406,-6.47786 1.91406,-6.23047 L1.91406,-3.33984 L3.57422,-3.96484 L3.57422,-7.12891 C3.57422,-7.3763 3.69792,-7.5 3.94531,-7.5 C4.19271,-7.5 4.31641,-7.3763 4.31641,-7.12891 L4.31641,-4.21875 L4.96094,-4.45312 C4.97396,-4.46615 5.01953,-4.47266 5.09766,-4.47266 C5.1888,-4.47266 5.28646,-4.43359 5.39062,-4.35547 C5.46875,-4.27734 5.50781,-4.1862 5.50781,-4.08203 L5.50781,-2.87109 C5.50781,-2.6888 5.41667,-2.5651 5.23438,-2.5 L4.31641,-2.1875 L4.31641,1.01562 L4.96094,0.800781 C4.97396,0.78776 5.01953,0.78125 5.09766,0.78125 C5.1888,0.78125 5.28646,0.820312 5.39062,0.898438 C5.46875,0.976562 5.50781,1.06771 5.50781,1.17188 L5.50781,2.38281 C5.50781,2.55208 5.41667,2.66927 5.23438,2.73438 L4.31641,3.08594 L4.31641,6.23047 M3.57422,-1.89453 L1.91406,-1.30859 L1.91406,1.89453 L3.57422,1.30859 L3.57422,-1.89453 "/>
<path class="Rest" transform="matrix(0.850394,0,0,0.850394,298.719,68.4633)" d="M7.30469,0 L0.195312,0 C0.0651042,0 0,-0.0651042 0,-0.195312 L0,-2.92969 C0,-3.0599 0.0651042,-3.125 0.195312,-3.125 L7.30469,-3.125 C7.4349,-3.125 7.5,-3.0599 7.5,-2.92969 L7.5,-0.195312 C7.5,-0.0651042 7.4349,0 7.30469,0"/>
<path class="Rest" transform="matrix(0.850394,0,0,0.850394,298.719,30.1956)" d="M7.30469,0 L0.195312,0 C0.0651042,0 0,-0.0651042 0,-0.195312 L0,-2.92969 C0,-3.0599 0.0651042,-3.125 0.195312,-3.125 L7.30469,-3.125 C7.4349,-3.125 7.5,-3.0599 7.5,-2.92969 L7.5,-0.195312 C7.5,-0.0651042 7.4349,0 7.30469,0"/>
<path class="Rest" transform="matrix(0.850394,0,0,0.850394,225.999,68.4633)" d="M7.30469,0 L0.195312,0 C0.0651042,0 0,-0.0651042 0,-0.195312 L0,-2.92969 C0,-3.0599 0.0651042,-3.125 0.195312,-3.125 L7.30469,-3.125 C7.4349,-3.125 7.5,-3.0599 7.5,-2.92969 L7.5,-0.195312 C7.5,-0.0651042 7.4349,0 7.30469,0"/>
<path class="Rest" transform="matrix(0.850394,0,0,0.850394,225.999,30.1956)" d="M7.30469,0 L0.195312,0 C0.0651042,0 0,-0.0651042 0,-0.195312 L0,-2.92969 C0,-3.0599 0.0651042,-3.125 0.195312,-3.125 L7.30469,-3.125 C7.4349,-3.125 7.5,-3.0599 7.5,-2.92969 L7.5,-0.195312 C7.5,-0.0651042 7.4349,0 7.30469,0"/>
<path class="Rest" transform="matrix(0.850394,0,0,0.850394,207.213,68.4633)" d="M-0.117188,-1.5625 C-0.117188,-1.79688 0.0130208,-2.05729 0.273438,-2.34375 C0.46875,-2.55208 0.755208,-2.79948 1.13281,-3.08594 C1.41927,-3.28125 1.69922,-3.57422 1.97266,-3.96484 C2.23307,-4.34245 2.36328,-4.7526 2.36328,-5.19531 C2.36328,-5.71615 2.19401,-6.17839 1.85547,-6.58203 L1.15234,-7.42188 C1.10026,-7.47396 1.07422,-7.53906 1.07422,-7.61719 C1.07422,-7.69531 1.11328,-7.76693 1.19141,-7.83203 C1.28255,-7.89714 1.36068,-7.92969 1.42578,-7.92969 C1.51693,-7.92969 1.58854,-7.89062 1.64062,-7.8125 L4.66797,-4.21875 C4.79818,-4.04948 4.86328,-3.88021 4.86328,-3.71094 C4.86328,-3.47656 4.73307,-3.21615 4.47266,-2.92969 C4.30339,-2.7474 4.02344,-2.5 3.63281,-2.1875 C3.33333,-2.00521 3.04688,-1.71224 2.77344,-1.30859 C2.51302,-0.93099 2.38281,-0.520833 2.38281,-0.078125 C2.38281,0.46875 2.53906,0.93099 2.85156,1.30859 L4.53125,3.28125 C4.57031,3.32031 4.60286,3.38542 4.62891,3.47656 C4.62891,3.56771 4.59635,3.64583 4.53125,3.71094 C4.4401,3.77604 4.36198,3.80859 4.29688,3.80859 C4.27083,3.80859 4.16667,3.73698 3.98438,3.59375 C3.78906,3.4375 3.52865,3.28776 3.20312,3.14453 C2.83854,3.0013 2.48047,2.92969 2.12891,2.92969 C1.80339,2.92969 1.53646,3.02083 1.32812,3.20312 C1.14583,3.38542 1.05469,3.73698 1.05469,4.25781 C1.05469,5.05208 1.24349,5.67708 1.62109,6.13281 C1.66016,6.1849 1.66667,6.25 1.64062,6.32812 C1.61458,6.38021 1.56901,6.40625 1.50391,6.40625 C1.41276,6.40625 1.21094,6.17188 0.898438,5.70312 C0.572917,5.20833 0.266927,4.64193 -0.0195312,4.00391 C-0.31901,3.32682 -0.46875,2.76693 -0.46875,2.32422 C-0.46875,1.76432 -0.201823,1.48438 0.332031,1.48438 C0.94401,1.48438 1.73828,1.69271 2.71484,2.10938 L0.078125,-1.05469 C-0.0520833,-1.22396 -0.117188,-1.39323 -0.117188,-1.5625"/>
<path class="Rest" transform="matrix(0.850394,0,0,0.850394,207.213,30.1956)" d="M-0.117188,-1.5625 C-0.117188,-1.79688 0.0130208,-2.05729 0.273438,-2.34375 C0.46875,-2.55208 0.755208,-2.79948 1.13281,-3.08594 C1.41927,-3.28125 1.69922,-3.57422 1.97266,-3.96484 C2.23307,-4.34245 2.36328,-4.7526 2.36328,-5.19531 C2.36328,-5.71615 2.19401,-6.17839 1.85547,-6.58203 L1.15234,-7.42188 C1.10026,-7.47396 1.07422,-7.53906 1.07422,-7.61719 C1.07422,-7.69531 1.11328,-7.76693 1.19141,-7.83203 C1.28255,-7.89714 1.36068,-7.92969 1.42578,-7.92969 C1.51693,-7.92969 1.58854,-7.89062 1.64062,-7.8125 L4.66797,-4.21875 C4.79818,-4.04948 4.86328,-3.88021 4.86328,-3.71094 C4.86328,-3.47656 4.73307,-3.21615 4.47266,-2.92969 C4.30339,-2.7474 4.02344,-2.5 3.63281,-2.1875 C3.33333,-2.00521 3.04688,-1.71224 2.77344,-1.30859 C2.51302,-0.93099 2.38281,-0.520833 2.38281,-0.078125 C2.38281,0.46875 2.53906,0.93099 2.85156,1.30859 L4.53125,3.28125 C4.57031,3.32031 4.60286,3.38542 4.62891,3.47656 C4.62891,3.56771 4.59635,3.64583 4.53125,3.71094 C4.4401,3.77604 4.36198,3.80859 4.29688,3.80859 C4.27083,3.80859 4.16667,3.73698 3.98438,3.59375 C3.78906,3.4375 3.52865,3.28776 3.20312,3.14453 C2.83854,3.0013 2.48047,2.92969 2.12891,2.92969 C1.80339,2.92969 1.53646,3.02083 1.32812,3.20312 C1.14583,3.38542 1.05469,3.73698 1.05469,4.25781 C1.05469,5.05208 1.24349,5.67708 1.62109,6.13281 C1.66016,6.1849 1.66667,6.25 1.64062,6.32812 C1.61458,6.38021 1.56901,6.40625 1.50391,6.40625 C1.41276,6.40625 1.21094,6.17188 0.898438,5.70312 C0.572917,5.20833 0.266927,4.64193 -0.0195312,4.00391 C-0.31901,3.32682 -0.46875,2.76693 -0.46875,2.32422 C-0.46875,1.76432 -0.201823,1.48438 0.332031,1.48438 C0.94401,1.48438 1.73828,1.69271 2.71484,2.10938 L0.078125,-1.05469 C-0.0520833,-1.22396 -0.117188,-1.39323 -0.117188,-1.5625"/>
<path class="Rest" transform="matrix(0.850394,0,0,0.850394,155.927,68.4633)" d="M7.30469,0 L0.195312,0 C0.0651042,0 0,-0.0651042 0,-0.195312 L0,-2.92969 C0,-3.0599 0.0651042,-3.125 0.195312,-3.125 L7.30469,-3.125 C7.4349,-3.125 7.5,-3.0599 7.5,-2.92969 L7.5,-0.195312 C7.5,-0.0651042 7.4349,0 7.30469,0"/>
<path class="Rest" transform="matrix(0.850394,0,0,0.850394,155.927,30.1956)" d="M7.30469,0 L0.195312,0 C0.0651042,0 0,-0.0651042 0,-0.195312 L0,-2.92969 C0,-3.0599 0.0651042,-3.125 0.195312,-3.125 L7.30469,-3.125 C7.4349,-3.125 7.5,-3.0599 7.5,-2.92969 L7.5,-0.195312 C7.5,-0.0651042 7.4349,0 7.30469,0"/>
<path class="Rest" transform="matrix(0.850394,0,0,0.850394,134.934,68.4633)" d="M-0.117188,-1.5625 C-0.117188,-1.79688 0.0130208,-2.05729 0.273438,-2.34375 C0.46875,-2.55208 0.755208,-2.79948 1.13281,-3.08594 C1.41927,-3.28125 1.69922,-3.57422 1.97266,-3.96484 C2.23307,-4.34245 2.36328,-4.7526 2.36328,-5.19531 C2.36328,-5.71615 2.19401,-6.17839 1.85547,-6.58203 L1.15234,-7.42188 C1.10026,-7.47396 1.07422,-7.53906 1.07422,-7.61719 C1.07422,-7.69531 1.11328,-7.76693 1.19141,-7.83203 C1.28255,-7.89714 1.36068,-7.92969 1.42578,-7.92969 C1.51693,-7.92969 1.58854,-7.89062 1.64062,-7.8125 L4.66797,-4.21875 C4.79818,-4.04948 4.86328,-3.88021 4.86328,-3.71094 C4.86328,-3.47656 4.73307,-3.21615 4.47266,-2.92969 C4.30339,-2.7474 4.02344,-2.5 3.63281,-2.1875 C3.33333,-2.00521 3.04688,-1.71224 2.77344,-1.30859 C2.51302,-0.93099 2.38281,-0.520833 2.38281,-0.078125 C2.38281,0.46875 2.53906,0.93099 2.85156,1.30859 L4.53125,3.28125 C4.57031,3.32031 4.60286,3.38542 4.62891,3.47656 C4.62891,3.56771 4.59635,3.64583 4.53125,3.71094 C4.4401,3.77604 4.36198,3.80859 4.29688,3.80859 C4.27083,3.80859 4.16667,3.73698 3.98438,3.59375 C3.78906,3.4375 3.52865,3.28776 3.20312,3.14453 C2.83854,3.0013 2.48047,2.92969 2.12891,2.92969 C1.80339,2.92969 1.53646,3.02083 1.32812,3.20312 C1.14583,3.38542 1.05469,3.73698 1.05469,4.25781 C1.05469,5.05208 1.24349,5.67708 1.62109,6.13281 C1.66016,6.1849 1.66667,6.25 1.64062,6.32812 C1.61458,6.38021 1.56901,6.40625 1.50391,6.40625 C1.41276,6.40625 1.21094,6.17188 0.898438,5.70312 C0.572917,5.20833 0.266927,4.64193 -0.0195312,4.00391 C-0.31901,3.32682 -0.46875,2.76693 -0.46875,2.32422 C-0.46875,1.76432 -0.201823,1.48438 0.332031,1.48438 C0.94401,1.48438 1.73828,1.69271 2.71484,2.10938 L0.078125,-1.05469 C-0.0520833,-1.22396 -0.117188,-1.39323 -0.117188,-1.5625"/>
<path class="Rest" transform="matrix(0.850394,0,0,0.850394,134.934,30.1956)" d="M-0.117188,-1.5625 C-0.117188,-1.79688 0.0130208,-2.05729 0.273438,-2.34375 C0.46875,-2.55208 0.755208,-2.79948 1.13281,-3.08594 C1.41927,-3.28125 1.69922,-3.57422 1.97266,-3.96484 C2.23307,-4.34245 2.36328,-4.7526 2.36328,-5.19531 C2.36328,-5.71615 2.19401,-6.17839 1.85547,-6.58203 L1.15234,-7.42188 C1.10026,-7.47396 1.07422,-7.53906 1.07422,-7.61719 C1.07422,-7.69531 1.11328,-7.76693 1.19141,-7.83203 C1.28255,-7.89714 1.36068,-7.92969 1.42578,-7.92969 C1.51693,-7.92969 1.58854,-7.89062 1.64062,-7.8125 L4.66797,-4.21875 C4.79818,-4.04948 4.86328,-3.88021 4.86328,-3.71094 C4.86328,-3.47656 4.73307,-3.21615 4.47266,-2.92969 C4.30339,-2.7474 4.02344,-2.5 3.63281,-2.1875 C3.33333,-2.00521 3.04688,-1.71224 2.77344,-1.30859 C2.51302,-0.93099 2.38281,-0.520833 2.38281,-0.078125 C2.38281,0.46875 2.53906,0.93099 2.85156,1.30859 L4.53125,3.28125 C4.57031,3.32031 4.60286,3.38542 4.62891,3.47656 C4.62891,3.56771 4.59635,3.64583 4.53125,3.71094 C4.4401,3.77604 4.36198,3.80859 4.29688,3.80859 C4.27083,3.80859 4.16667,3.73698 3.98438,3.59375 C3.78906,3.4375 3.52865,3.28776 3.20312,3.14453 C2.83854,3.0013 2.48047,2.92969 2.12891,2.92969 C1.80339,2.92969 1.53646,3.02083 1.32812,3.20312 C1.14583,3.38542 1.05469,3.73698 1.05469,4.25781 C1.05469,5.05208 1.24349,5.67708 1.62109,6.13281 C1.66016,6.1849 1.66667,6.25 1.64062,6.32812 C1.61458,6.38021 1.56901,6.40625 1.50391,6.40625 C1.41276,6.40625 1.21094,6.17188 0.898438,5.70312 C0.572917,5.20833 0.266927,4.64193 -0.0195312,4.00391 C-0.31901,3.32682 -0.46875,2.76693 -0.46875,2.32422 C-0.46875,1.76432 -0.201823,1.48438 0.332031,1.48438 C0.94401,1.48438 1.73828,1.69271 2.71484,2.10938 L0.078125,-1.05469 C-0.0520833,-1.22396 -0.117188,-1.39323 -0.117188,-1.5625"/>
<path class="Rest" transform="matrix(0.850394,0,0,0.850394,119.667,68.4633)" d="M1.40625,-4.10156 C1.78385,-4.10156 2.07031,-3.9974 2.26562,-3.78906 C2.46094,-3.55469 2.5651,-3.33333 2.57812,-3.125 C2.60417,-2.92969 2.66927,-2.70833 2.77344,-2.46094 C2.89062,-2.2526 3.04036,-2.14844 3.22266,-2.14844 C3.36589,-2.14844 3.58073,-2.3112 3.86719,-2.63672 C4.1276,-2.92318 4.31641,-3.17708 4.43359,-3.39844 C4.4987,-3.52865 4.58984,-3.59375 4.70703,-3.59375 L4.72656,-3.59375 C4.85677,-3.58073 4.94792,-3.51562 5,-3.39844 L2.53906,5 C2.40885,5.13021 2.22656,5.19531 1.99219,5.19531 C1.75781,5.19531 1.57552,5.13021 1.44531,5 L3.78906,-1.52344 C2.95573,-1.22396 2.2526,-1.07422 1.67969,-1.07422 C1.21094,-1.07422 0.807292,-1.22396 0.46875,-1.52344 C0.117188,-1.8099 -0.0585938,-2.1875 -0.0585938,-2.65625 C-0.0585938,-3.0599 0.0846354,-3.39844 0.371094,-3.67188 C0.657552,-3.95833 1.0026,-4.10156 1.40625,-4.10156"/>
<path class="Rest" transform="matrix(0.850394,0,0,0.850394,119.667,30.1956)" d="M1.40625,-4.10156 C1.78385,-4.10156 2.07031,-3.9974 2.26562,-3.78906 C2.46094,-3.55469 2.5651,-3.33333 2.57812,-3.125 C2.60417,-2.92969 2.66927,-2.70833 2.77344,-2.46094 C2.89062,-2.2526 3.04036,-2.14844 3.22266,-2.14844 C3.36589,-2.14844 3.58073,-2.3112 3.86719,-2.63672 C4.1276,-2.92318 4.31641,-3.17708 4.43359,-3.39844 C4.4987,-3.52865 4.58984,-3.59375 4.70703,-3.59375 L4.72656,-3.59375 C4.85677,-3.58073 4.94792,-3.51562 5,-3.39844 L2.53906,5 C2.40885,5.13021 2.22656,5.19531 1.99219,5.19531 C1.75781,5.19531 1.57552,5.13021 1.44531,5 L3.78906,-1.52344 C2.95573,-1.22396 2.2526,-1.07422 1.67969,-1.07422 C1.21094,-1.07422 0.807292,-1.22396 0.46875,-1.52344 C0.117188,-1.8099 -0.0585938,-2.1875 -0.0585938,-2.65625 C-0.0585938,-3.0599 0.0846354,-3.39844 0.371094,-3.67188 C0.657552,-3.95833 1.0026,-4.10156 1.40625,-4.10156"/>
<path class="Rest" transform="matrix(0.850394,0,0,0.850394,110.125,68.4633)" d="M2.5,-4.10156 C2.89062,-4.10156 3.17057,-3.9974 3.33984,-3.78906 C3.52214,-3.56771 3.63281,-3.34635 3.67188,-3.125 C3.6849,-2.90365 3.75,-2.68229 3.86719,-2.46094 C3.94531,-2.2526 4.08854,-2.14844 4.29688,-2.14844 C4.42708,-2.14844 4.6224,-2.30469 4.88281,-2.61719 C5.18229,-2.98177 5.37109,-3.24219 5.44922,-3.39844 C5.51432,-3.52865 5.60547,-3.59375 5.72266,-3.59375 C5.72266,-3.59375 5.72917,-3.59375 5.74219,-3.59375 C5.85938,-3.58073 5.94401,-3.51562 5.99609,-3.39844 L2.42188,10 C2.29167,10.1302 2.10938,10.1953 1.875,10.1953 C1.64062,10.1953 1.45833,10.1302 1.32812,10 L3.33984,3.45703 C2.46745,3.76953 1.75781,3.92578 1.21094,3.92578 C0.742188,3.92578 0.338542,3.77604 0,3.47656 C-0.351562,3.1901 -0.527344,2.8125 -0.527344,2.34375 C-0.527344,1.9401 -0.390625,1.60156 -0.117188,1.32812 C0.169271,1.04167 0.514323,0.898438 0.917969,0.898438 C1.30859,0.898438 1.58854,1.0026 1.75781,1.21094 C1.95312,1.43229 2.07031,1.65365 2.10938,1.875 C2.14844,2.13542 2.21354,2.35677 2.30469,2.53906 C2.39583,2.7474 2.53906,2.85156 2.73438,2.85156 C2.89062,2.85156 3.11198,2.66927 3.39844,2.30469 C3.69792,1.96615 3.88021,1.69922 3.94531,1.50391 L4.86328,-1.52344 C4.02995,-1.22396 3.33333,-1.07422 2.77344,-1.07422 C2.30469,-1.07422 1.90104,-1.22396 1.5625,-1.52344 C1.21094,-1.8099 1.03516,-2.1875 1.03516,-2.65625 C1.03516,-3.0599 1.17839,-3.39844 1.46484,-3.67188 C1.7513,-3.95833 2.09635,-4.10156 2.5,-4.10156"/>
<path class="Rest" transform="matrix(0.850394,0,0,0.850394,110.125,30.1956)" d="M2.5,-4.10156 C2.89062,-4.10156 3.17057,-3.9974 3.33984,-3.78906 C3.52214,-3.56771 3.63281,-3.34635 3.67188,-3.125 C3.6849,-2.90365 3.75,-2.68229 3.86719,-2.46094 C3.94531,-2.2526 4.08854,-2.14844 4.29688,-2.14844 C4.42708,-2.14844 4.6224,-2.30469 4.88281,-2.61719 C5.18229,-2.98177 5.37109,-3.24219 5.44922,-3.39844 C5.51432,-3.52865 5.60547,-3.59375 5.72266,-3.59375 C5.72266,-3.59375 5.72917,-3.59375 5.74219,-3.59375 C5.85938,-3.58073 5.94401,-3.51562 5.99609,-3.39844 L2.42188,10 C2.29167,10.1302 2.10938,10.1953 1.875,10.1953 C1.64062,10.1953 1.45833,10.1302 1.32812,10 L3.33984,3.45703 C2.46745,3.76953 1.75781,3.92578 1.21094,3.92578 C0.742188,3.92578 0.338542,3.77604 0,3.47656 C-0.351562,3.1901 -0.527344,2.8125 -0.527344,2.34375 C-0.527344,1.9401 -0.390625,1.60156 -0.117188,1.32812 C0.169271,1.04167 0.514323,0.898438 0.917969,0.898438 C1.30859,0.898438 1.58854,1.0026 1.75781,1.21094 C1.95312,1.43229 2.07031,1.65365 2.10938,1.875 C2.14844,2.13542 2.21354,2.35677 2.30469,2.53906 C2.39583,2.7474 2.53906,2.85156 2.73438,2.85156 C2.89062,2.85156 3.11198,2.66927 3.39844,2.30469 C3.69792,1.96615 3.88021,1.69922 3.94531,1.50391 L4.86328,-1.52344 C4.02995,-1.22396 3.33333,-1.07422 2.77344,-1.07422 C2.30469,-1.07422 1.90104,-1.22396 1.5625,-1.52344 C1.21094,-1.8099 1.03516,-2.1875 1.03516,-2.65625 C1.03516,-3.0599 1.17839,-3.39844 1.46484,-3.67188 C1.7513,-3.95833 2.09635,-4.10156 2.5,-4.10156"/>
<path class="Articulation" transform="matrix(0.850394,0,0,0.850394,99.6149,89.7232)" d="M4.74609,0 C4.91536,0 5,0.078125 5,0.234375 C5,0.299479 4.99349,0.338542 4.98047,0.351562 L2.71484,5.35156 C2.67578,5.45573 2.60417,5.50781 2.5,5.50781 C2.39583,5.50781 2.32422,5.45573 2.28516,5.35156 L0.0195312,0.351562 C0.00651042,0.338542 0,0.299479 0,0.234375 C0,0.078125 0.0846354,0 0.253906,0 L1.58203,0 C1.6862,0 1.76432,0.0455729 1.81641,0.136719 L3.18359,3.14453 L4.51172,0.136719 C4.5638,0.0455729 4.64193,0 4.74609,0"/>
<path class="Articulation" transform="matrix(0.850394,0,0,0.850394,99.6149,4.68381)" d="M0.253906,0 C0.0846354,0 0,-0.078125 0,-0.234375 C0,-0.299479 0.00651042,-0.338542 0.0195312,-0.351562 L2.28516,-5.35156 C2.32422,-5.45573 2.39583,-5.50781 2.5,-5.50781 C2.60417,-5.48177 2.67578,-5.42969 2.71484,-5.35156 L4.98047,-0.351562 C4.99349,-0.338542 5,-0.299479 5,-0.234375 C5,-0.078125 4.91536,0 4.74609,0 L3.41797,0 C3.3138,0 3.23568,-0.0455729 3.18359,-0.136719 L1.81641,-3.14453 L0.488281,-0.136719 C0.436198,-0.0455729 0.358073,0 0.253906,0"/>
<path class="Dynamic" d="M264.109,91.8151 L264.109,91.7851 C264.122,91.7651 264.137,91.7351 264.154,91.6951 C264.171,91.6551 264.182,91.6085 264.189,91.5551 C264.336,91.1285 264.559,90.7118 264.859,90.3051 C265.232,89.7585 265.659,89.4885 266.139,89.4951 C266.339,89.4951 266.496,89.5751 266.609,89.7351 C266.716,89.8818 266.779,90.0718 266.799,90.3051 C267.152,89.7585 267.552,89.4885 267.999,89.4951 C268.179,89.4951 268.339,89.5751 268.479,89.7351 C268.606,89.9151 268.679,90.1185 268.699,90.3451 C269.039,89.7718 269.429,89.4885 269.869,89.4951 C270.102,89.4951 270.316,89.5968 270.509,89.8001 C270.702,90.0035 270.792,90.2385 270.779,90.5051 C270.779,90.5451 270.769,90.6185 270.749,90.7251 L270.219,92.9851 C270.206,92.9985 270.202,93.0185 270.209,93.0451 C270.209,93.1318 270.239,93.1751 270.299,93.1751 C270.406,93.1751 270.572,93.0885 270.799,92.9151 L271.149,92.6451 C271.216,92.6451 271.249,92.6718 271.249,92.7251 C271.249,92.7651 271.232,92.8018 271.199,92.8351 C270.706,93.3018 270.376,93.5918 270.209,93.7051 C269.902,93.9318 269.609,94.0418 269.329,94.0351 C269.156,94.0351 269.039,93.9885 268.979,93.8951 C268.886,93.8218 268.836,93.7151 268.829,93.5751 C268.829,93.5218 268.836,93.4685 268.849,93.4151 L269.419,90.9351 C269.439,90.8685 269.452,90.7985 269.459,90.7251 C269.459,90.5318 269.406,90.4351 269.299,90.4351 C269.159,90.4351 269.029,90.4885 268.909,90.5951 C268.769,90.7018 268.689,90.8151 268.669,90.9351 L267.839,93.8151 C267.806,93.9218 267.742,93.9751 267.649,93.9751 L266.779,93.9751 C266.672,93.9751 266.636,93.9218 266.669,93.8151 L267.489,90.9351 C267.522,90.8418 267.539,90.7618 267.539,90.6951 C267.539,90.5218 267.472,90.4351 267.339,90.4351 C267.199,90.4351 267.079,90.4885 266.979,90.5951 C266.859,90.6818 266.772,90.7951 266.719,90.9351 L265.739,93.8151 C265.706,93.9218 265.639,93.9751 265.539,93.9751 L264.669,93.9751 C264.576,93.9751 264.549,93.9218 264.589,93.8151 L265.569,90.9351 C265.602,90.8151 265.619,90.7385 265.619,90.7051 C265.619,90.5251 265.542,90.4351 265.389,90.4351 C265.176,90.4351 264.989,90.5785 264.829,90.8651 C264.649,91.1318 264.512,91.4318 264.419,91.7651 C264.386,91.8585 264.316,91.9051 264.209,91.9051 C264.142,91.8851 264.109,91.8551 264.109,91.8151 M275.644,90.1951 C275.351,90.1951 275.087,90.3518 274.854,90.6651 C274.607,90.9918 274.417,91.3551 274.284,91.7551 C274.151,92.1418 274.091,92.4785 274.104,92.7651 C274.104,93.1718 274.254,93.3751 274.554,93.3751 C274.821,93.3751 275.051,93.2718 275.244,93.0651 C275.464,92.8385 275.647,92.4485 275.794,91.8951 C275.954,91.3218 276.034,90.9218 276.034,90.6951 C276.021,90.3618 275.891,90.1951 275.644,90.1951 M273.214,89.4251 C273.481,89.4251 273.717,89.4968 273.924,89.6401 C274.131,89.7835 274.261,89.9785 274.314,90.2251 C274.527,89.9851 274.781,89.7918 275.074,89.6451 C275.367,89.4985 275.644,89.4251 275.904,89.4251 C276.417,89.4251 276.817,89.5885 277.104,89.9151 C277.384,90.2485 277.524,90.6718 277.524,91.1851 C277.524,92.0385 277.227,92.7351 276.634,93.2751 C276.081,93.7351 275.584,93.9651 275.144,93.9651 C274.877,93.9651 274.661,93.9385 274.494,93.8851 C274.281,93.8318 274.141,93.7818 274.074,93.7351 C273.981,93.6818 273.904,93.6551 273.844,93.6551 C273.704,93.6551 273.611,93.7085 273.564,93.8151 L272.974,95.5851 L272.974,95.6651 C272.974,95.7718 273.054,95.8318 273.214,95.8451 C273.267,95.8585 273.349,95.8701 273.459,95.8801 C273.569,95.8901 273.651,95.8951 273.704,95.8951 C273.864,95.9218 273.944,95.9651 273.944,96.0251 C273.944,96.1051 273.904,96.1451 273.824,96.1451 C272.877,96.0918 272.264,96.0651 271.984,96.0651 C271.684,96.0651 271.061,96.0918 270.114,96.1451 C270.027,96.1451 269.991,96.1051 270.004,96.0251 C270.004,95.9585 270.074,95.9118 270.214,95.8851 C270.281,95.8718 270.561,95.8651 271.054,95.8651 C271.281,95.8651 271.414,95.7951 271.454,95.6551 L273.164,90.7151 C273.191,90.6218 273.207,90.5418 273.214,90.4751 C273.214,90.2818 273.127,90.1885 272.954,90.1951 C272.707,90.1951 272.451,90.3518 272.184,90.6651 C271.924,90.9651 271.714,91.2985 271.554,91.6651 C271.514,91.7585 271.447,91.8085 271.354,91.8151 C271.274,91.8151 271.234,91.7818 271.234,91.7151 C271.234,91.6285 271.261,91.5485 271.314,91.4751 C271.527,91.0151 271.751,90.5985 271.984,90.2251 C272.131,90.0118 272.314,89.8285 272.534,89.6751 C272.747,89.5085 272.974,89.4251 273.214,89.4251"/>
<path class="Dynamic" d="M183.311,91.8151 L183.311,91.7851 C183.324,91.7651 183.339,91.7351 183.356,91.6951 C183.373,91.6551 183.384,91.6085 183.391,91.5551 C183.538,91.1285 183.761,90.7118 184.061,90.3051 C184.434,89.7585 184.861,89.4885 185.341,89.4951 C185.541,89.4951 185.698,89.5751 185.811,89.7351 C185.918,89.8818 185.981,90.0718 186.001,90.3051 C186.354,89.7585 186.754,89.4885 187.201,89.4951 C187.381,89.4951 187.541,89.5751 187.681,89.7351 C187.808,89.9151 187.881,90.1185 187.901,90.3451 C188.241,89.7718 188.631,89.4885 189.071,89.4951 C189.304,89.4951 189.518,89.5968 189.711,89.8001 C189.904,90.0035 189.994,90.2385 189.981,90.5051 C189.981,90.5451 189.971,90.6185 189.951,90.7251 L189.421,92.9851 C189.408,92.9985 189.404,93.0185 189.411,93.0451 C189.411,93.1318 189.441,93.1751 189.501,93.1751 C189.608,93.1751 189.774,93.0885 190.001,92.9151 L190.351,92.6451 C190.418,92.6451 190.451,92.6718 190.451,92.7251 C190.451,92.7651 190.434,92.8018 190.401,92.8351 C189.908,93.3018 189.578,93.5918 189.411,93.7051 C189.104,93.9318 188.811,94.0418 188.531,94.0351 C188.358,94.0351 188.241,93.9885 188.181,93.8951 C188.088,93.8218 188.038,93.7151 188.031,93.5751 C188.031,93.5218 188.038,93.4685 188.051,93.4151 L188.621,90.9351 C188.641,90.8685 188.654,90.7985 188.661,90.7251 C188.661,90.5318 188.608,90.4351 188.501,90.4351 C188.361,90.4351 188.231,90.4885 188.111,90.5951 C187.971,90.7018 187.891,90.8151 187.871,90.9351 L187.041,93.8151 C187.008,93.9218 186.944,93.9751 186.851,93.9751 L185.981,93.9751 C185.874,93.9751 185.838,93.9218 185.871,93.8151 L186.691,90.9351 C186.724,90.8418 186.741,90.7618 186.741,90.6951 C186.741,90.5218 186.674,90.4351 186.541,90.4351 C186.401,90.4351 186.281,90.4885 186.181,90.5951 C186.061,90.6818 185.974,90.7951 185.921,90.9351 L184.941,93.8151 C184.908,93.9218 184.841,93.9751 184.741,93.9751 L183.871,93.9751 C183.778,93.9751 183.751,93.9218 183.791,93.8151 L184.771,90.9351 C184.804,90.8151 184.821,90.7385 184.821,90.7051 C184.821,90.5251 184.744,90.4351 184.591,90.4351 C184.378,90.4351 184.191,90.5785 184.031,90.8651 C183.851,91.1318 183.714,91.4318 183.621,91.7651 C183.588,91.8585 183.518,91.9051 183.411,91.9051 C183.344,91.8851 183.311,91.8551 183.311,91.8151 M193.486,89.7451 L192.686,92.3251 C192.413,93.2518 191.949,94.1485 191.296,95.0151 C190.636,95.8885 189.963,96.3251 189.276,96.3251 C188.916,96.3251 188.599,96.2318 188.326,96.0451 C188.053,95.8585 187.916,95.6151 187.916,95.3151 C187.916,94.9751 187.989,94.6885 188.136,94.4551 C188.283,94.2285 188.483,94.1085 188.736,94.0951 C188.929,94.0951 189.091,94.1651 189.221,94.3051 C189.351,94.4451 189.416,94.6051 189.416,94.7851 C189.416,94.9451 189.323,95.0951 189.136,95.2351 C188.936,95.3618 188.833,95.5018 188.826,95.6551 C188.826,95.7618 188.943,95.8151 189.176,95.8151 L189.276,95.8151 C189.329,95.8151 189.409,95.8018 189.516,95.7751 C189.569,95.7618 189.639,95.7251 189.726,95.6651 C189.726,95.6651 189.779,95.6218 189.886,95.5351 C189.959,95.4418 190.003,95.3751 190.016,95.3351 C190.056,95.2485 190.086,95.1785 190.106,95.1251 C190.139,95.0851 190.173,94.9951 190.206,94.8551 C190.219,94.8218 190.231,94.7835 190.241,94.7401 C190.251,94.6968 190.261,94.6668 190.271,94.6501 C190.281,94.6335 190.286,94.6218 190.286,94.6151 C190.326,94.4418 190.353,94.3385 190.366,94.3051 C190.406,94.1318 190.426,94.0418 190.426,94.0351 L191.496,89.7451 L190.666,89.7451 C190.593,89.7451 190.536,89.7185 190.496,89.6651 C190.456,89.5985 190.436,89.5351 190.436,89.4751 C190.436,89.4085 190.456,89.3485 190.496,89.2951 C190.569,89.2418 190.626,89.2151 190.666,89.2151 L191.646,89.2151 C191.913,88.4018 192.359,87.6985 192.986,87.1051 C193.606,86.4985 194.273,86.1951 194.986,86.1951 C195.366,86.1951 195.683,86.2918 195.936,86.4851 C196.203,86.6651 196.339,86.9051 196.346,87.2051 C196.346,87.5251 196.276,87.8085 196.136,88.0551 C195.976,88.2818 195.776,88.4018 195.536,88.4151 C195.343,88.4151 195.179,88.3468 195.046,88.2101 C194.913,88.0735 194.846,87.9151 194.846,87.7351 C194.846,87.5751 194.948,87.4301 195.151,87.3001 C195.354,87.1701 195.449,87.0251 195.436,86.8651 C195.436,86.7451 195.323,86.6885 195.096,86.6951 L195.056,86.6951 C195.036,86.7085 195.013,86.7118 194.986,86.7051 C194.793,86.7051 194.629,86.7551 194.496,86.8551 C194.369,86.9418 194.249,87.0951 194.136,87.3151 C194.103,87.3818 194.074,87.4435 194.051,87.5001 C194.028,87.5568 194.003,87.6235 193.976,87.7001 C193.949,87.7768 193.929,87.8285 193.916,87.8551 C193.903,87.9085 193.883,88.0151 193.856,88.1751 C193.829,88.3351 193.803,88.4685 193.776,88.5751 C193.703,88.9085 193.653,89.1218 193.626,89.2151 L194.526,89.2151 C194.599,89.2151 194.663,89.2401 194.716,89.2901 C194.769,89.3401 194.796,89.4018 194.796,89.4751 C194.796,89.5485 194.769,89.6118 194.716,89.6651 C194.663,89.7185 194.599,89.7451 194.526,89.7451 L193.486,89.7451 "/>
<path class="Dynamic" d="M183.311,91.8151 L183.311,91.7851 C183.324,91.7651 183.339,91.7351 183.356,91.6951 C183.373,91.6551 183.384,91.6085 183.391,91.5551 C183.538,91.1285 183.761,90.7118 184.061,90.3051 C184.434,89.7585 184.861,89.4885 185.341,89.4951 C185.541,89.4951 185.698,89.5751 185.811,89.7351 C185.918,89.8818 185.981,90.0718 186.001,90.3051 C186.354,89.7585 186.754,89.4885 187.201,89.4951 C187.381,89.4951 187.541,89.5751 187.681,89.7351 C187.808,89.9151 187.881,90.1185 187.901,90.3451 C188.241,89.7718 188.631,89.4885 189.071,89.4951 C189.304,89.4951 189.518,89.5968 189.711,89.8001 C189.904,90.0035 189.994,90.2385 189.981,90.5051 C189.981,90.5451 189.971,90.6185 189.951,90.7251 L189.421,92.9851 C189.408,92.9985 189.404,93.0185 189.411,93.0451 C189.411,93.1318 189.441,93.1751 189.501,93.1751 C189.608,93.1751 189.774,93.0885 190.001,92.9151 L190.351,92.6451 C190.418,92.6451 190.451,92.6718 190.451,92.7251 C190.451,92.7651 190.434,92.8018 190.401,92.8351 C189.908,93.3018 189.578,93.5918 189.411,93.7051 C189.104,93.9318 188.811,94.0418 188.531,94.0351 C188.358,94.0351 188.241,93.9885 188.181,93.8951 C188.088,93.8218 188.038,93.7151 188.031,93.5751 C188.031,93.5218 188.038,93.4685 188.051,93.4151 L188.621,90.9351 C188.641,90.8685 188.654,90.7985 188.661,90.7251 C188.661,90.5318 188.608,90.4351 188.501,90.4351 C188.361,90.4351 188.231,90.4885 188.111,90.5951 C187.971,90.7018 187.891,90.8151 187.871,90.9351 L187.041,93.8151 C187.008,93.9218 186.944,93.9751 186.851,93.9751 L185.981,93.9751 C185.874,93.9751 185.838,93.9218 185.871,93.8151 L186.691,90.9351 C186.724,90.8418 186.741,90.7618 186.741,90.6951 C186.741,90.5218 186.674,90.4351 186.541,90.4351 C186.401,90.4351 186.281,90.4885 186.181,90.5951 C186.061,90.6818 185.974,90.7951 185.921,90.9351 L184.941,93.8151 C184.908,93.9218 184.841,93.9751 184.741,93.9751 L183.871,93.9751 C183.778,93.9751 183.751,93.9218 183.791,93.8151 L184.771,90.9351 C184.804,90.8151 184.821,90.7385 184.821,90.7051 C184.821,90.5251 184.744,90.4351 184.591,90.4351 C184.378,90.4351 184.191,90.5785 184.031,90.8651 C183.851,91.1318 183.714,91.4318 183.621,91.7651 C183.588,91.8585 183.518,91.9051 183.411,91.9051 C183.344,91.8851 183.311,91.8551 183.311,91.8151 M193.486,89.7451 L192.686,92.3251 C192.413,93.2518 191.949,94.1485 191.296,95.0151 C190.636,95.8885 189.963,96.3251 189.276,96.3251 C188.916,96.3251 188.599,96.2318 188.326,96.0451 C188.053,95.8585 187.916,95.6151 187.916,95.3151 C187.916,94.9751 187.989,94.6885 188.136,94.4551 C188.283,94.2285 188.483,94.1085 188.736,94.0951 C188.929,94.0951 189.091,94.1651 189.221,94.3051 C189.351,94.4451 189.416,94.6051 189.416,94.7851 C189.416,94.9451 189.323,95.0951 189.136,95.2351 C188.936,95.3618 188.833,95.5018 188.826,95.6551 C188.826,95.7618 188.943,95.8151 189.176,95.8151 L189.276,95.8151 C189.329,95.8151 189.409,95.8018 189.516,95.7751 C189.569,95.7618 189.639,95.7251 189.726,95.6651 C189.726,95.6651 189.779,95.6218 189.886,95.5351 C189.959,95.4418 190.003,95.3751 190.016,95.3351 C190.056,95.2485 190.086,95.1785 190.106,95.1251 C190.139,95.0851 190.173,94.9951 190.206,94.8551 C190.219,94.8218 190.231,94.7835 190.241,94.7401 C190.251,94.6968 190.261,94.6668 190.271,94.6501 C190.281,94.6335 190.286,94.6218 190.286,94.6151 C190.326,94.4418 190.353,94.3385 190.366,94.3051 C190.406,94.1318 190.426,94.0418 190.426,94.0351 L191.496,89.7451 L190.666,89.7451 C190.593,89.7451 190.536,89.7185 190.496,89.6651 C190.456,89.5985 190.436,89.5351 190.436,89.4751 C190.436,89.4085 190.456,89.3485 190.496,89.2951 C190.569,89.2418 190.626,89.2151 190.666,89.2151 L191.646,89.2151 C191.913,88.4018 192.359,87.6985 192.986,87.1051 C193.606,86.4985 194.273,86.1951 194.986,86.1951 C195.366,86.1951 195.683,86.2918 195.936,86.4851 C196.203,86.6651 196.339,86.9051 196.346,87.2051 C196.346,87.5251 196.276,87.8085 196.136,88.0551 C195.976,88.2818 195.776,88.4018 195.536,88.4151 C195.343,88.4151 195.179,88.3468 195.046,88.2101 C194.913,88.0735 194.846,87.9151 194.846,87.7351 C194.846,87.5751 194.948,87.4301 195.151,87.3001 C195.354,87.1701 195.449,87.0251 195.436,86.8651 C195.436,86.7451 195.323,86.6885 195.096,86.6951 L195.056,86.6951 C195.036,86.7085 195.013,86.7118 194.986,86.7051 C194.793,86.7051 194.629,86.7551 194.496,86.8551 C194.369,86.9418 194.249,87.0951 194.136,87.3151 C194.103,87.3818 194.074,87.4435 194.051,87.5001 C194.028,87.5568 194.003,87.6235 193.976,87.7001 C193.949,87.7768 193.929,87.8285 193.916,87.8551 C193.903,87.9085 193.883,88.0151 193.856,88.1751 C193.829,88.3351 193.803,88.4685 193.776,88.5751 C193.703,88.9085 193.653,89.1218 193.626,89.2151 L194.526,89.2151 C194.599,89.2151 194.663,89.2401 194.716,89.2901 C194.769,89.3401 194.796,89.4018 194.796,89.4751 C194.796,89.5485 194.769,89.6118 194.716,89.6651 C194.663,89.7185 194.599,89.7451 194.526,89.7451 L193.486,89.7451 "/>
<path class="Dynamic" d="M95.9315,99.8198 L95.1315,102.4 C94.8582,103.326 94.3949,104.223 93.7415,105.09 C93.0815,105.963 92.4082,106.4 91.7215,106.4 C91.3615,106.4 91.0449,106.306 90.7715,106.12 C90.4982,105.933 90.3615,105.69 90.3615,105.39 C90.3615,105.05 90.4349,104.763 90.5815,104.53 C90.7282,104.303 90.9282,104.183 91.1815,104.17 C91.3749,104.17 91.5365,104.24 91.6665,104.38 C91.7965,104.52 91.8615,104.68 91.8615,104.86 C91.8615,105.02 91.7682,105.17 91.5815,105.31 C91.3815,105.436 91.2782,105.576 91.2715,105.73 C91.2715,105.836 91.3882,105.89 91.6215,105.89 L91.7215,105.89 C91.7749,105.89 91.8549,105.876 91.9615,105.85 C92.0149,105.836 92.0849,105.8 92.1715,105.74 C92.1715,105.74 92.2249,105.696 92.3315,105.61 C92.4049,105.516 92.4482,105.45 92.4615,105.41 C92.5015,105.323 92.5315,105.253 92.5515,105.2 C92.5849,105.16 92.6182,105.07 92.6515,104.93 C92.6649,104.896 92.6765,104.858 92.6865,104.815 C92.6965,104.771 92.7065,104.741 92.7165,104.725 C92.7265,104.708 92.7315,104.696 92.7315,104.69 C92.7715,104.516 92.7982,104.413 92.8115,104.38 C92.8515,104.206 92.8715,104.116 92.8715,104.11 L93.9415,99.8198 L93.1115,99.8198 C93.0382,99.8198 92.9815,99.7931 92.9415,99.7398 C92.9015,99.6731 92.8815,99.6098 92.8815,99.5498 C92.8815,99.4831 92.9015,99.4231 92.9415,99.3698 C93.0149,99.3164 93.0715,99.2898 93.1115,99.2898 L94.0915,99.2898 C94.3582,98.4764 94.8049,97.7731 95.4315,97.1798 C96.0515,96.5731 96.7182,96.2698 97.4315,96.2698 C97.8115,96.2698 98.1282,96.3664 98.3815,96.5598 C98.6482,96.7398 98.7849,96.9798 98.7915,97.2798 C98.7915,97.5998 98.7215,97.8831 98.5815,98.1298 C98.4215,98.3564 98.2215,98.4764 97.9815,98.4898 C97.7882,98.4898 97.6249,98.4214 97.4915,98.2848 C97.3582,98.1481 97.2915,97.9898 97.2915,97.8098 C97.2915,97.6498 97.3932,97.5048 97.5965,97.3748 C97.7999,97.2448 97.8949,97.0998 97.8815,96.9398 C97.8815,96.8198 97.7682,96.7631 97.5415,96.7698 L97.5015,96.7698 C97.4815,96.7831 97.4582,96.7864 97.4315,96.7798 C97.2382,96.7798 97.0749,96.8298 96.9415,96.9298 C96.8149,97.0164 96.6949,97.1698 96.5815,97.3898 C96.5482,97.4564 96.5199,97.5181 96.4965,97.5748 C96.4732,97.6314 96.4482,97.6981 96.4215,97.7748 C96.3949,97.8514 96.3749,97.9031 96.3615,97.9298 C96.3482,97.9831 96.3282,98.0898 96.3015,98.2498 C96.2749,98.4098 96.2482,98.5431 96.2215,98.6498 C96.1482,98.9831 96.0982,99.1964 96.0715,99.2898 L96.9715,99.2898 C97.0449,99.2898 97.1082,99.3148 97.1615,99.3648 C97.2149,99.4148 97.2415,99.4764 97.2415,99.5498 C97.2415,99.6231 97.2149,99.6864 97.1615,99.7398 C97.1082,99.7931 97.0449,99.8198 96.9715,99.8198 L95.9315,99.8198 M100.338,99.8198 L99.5378,102.4 C99.2644,103.326 98.8011,104.223 98.1478,105.09 C97.4878,105.963 96.8144,106.4 96.1278,106.4 C95.7678,106.4 95.4511,106.306 95.1778,106.12 C94.9044,105.933 94.7678,105.69 94.7678,105.39 C94.7678,105.05 94.8411,104.763 94.9878,104.53 C95.1344,104.303 95.3344,104.183 95.5878,104.17 C95.7811,104.17 95.9428,104.24 96.0728,104.38 C96.2028,104.52 96.2678,104.68 96.2678,104.86 C96.2678,105.02 96.1744,105.17 95.9878,105.31 C95.7878,105.436 95.6844,105.576 95.6778,105.73 C95.6778,105.836 95.7944,105.89 96.0278,105.89 L96.1278,105.89 C96.1811,105.89 96.2611,105.876 96.3678,105.85 C96.4211,105.836 96.4911,105.8 96.5778,105.74 C96.5778,105.74 96.6311,105.696 96.7378,105.61 C96.8111,105.516 96.8544,105.45 96.8678,105.41 C96.9078,105.323 96.9378,105.253 96.9578,105.2 C96.9911,105.16 97.0244,105.07 97.0578,104.93 C97.0711,104.896 97.0828,104.858 97.0928,104.815 C97.1028,104.771 97.1128,104.741 97.1228,104.725 C97.1328,104.708 97.1378,104.696 97.1378,104.69 C97.1778,104.516 97.2044,104.413 97.2178,104.38 C97.2578,104.206 97.2778,104.116 97.2778,104.11 L98.3478,99.8198 L97.5178,99.8198 C97.4444,99.8198 97.3878,99.7931 97.3478,99.7398 C97.3078,99.6731 97.2878,99.6098 97.2878,99.5498 C97.2878,99.4831 97.3078,99.4231 97.3478,99.3698 C97.4211,99.3164 97.4778,99.2898 97.5178,99.2898 L98.4978,99.2898 C98.7644,98.4764 99.2111,97.7731 99.8378,97.1798 C100.458,96.5731 101.124,96.2698 101.838,96.2698 C102.218,96.2698 102.534,96.3664 102.788,96.5598 C103.054,96.7398 103.191,96.9798 103.198,97.2798 C103.198,97.5998 103.128,97.8831 102.988,98.1298 C102.828,98.3564 102.628,98.4764 102.388,98.4898 C102.194,98.4898 102.031,98.4214 101.898,98.2848 C101.764,98.1481 101.698,97.9898 101.698,97.8098 C101.698,97.6498 101.799,97.5048 102.003,97.3748 C102.206,97.2448 102.301,97.0998 102.288,96.9398 C102.288,96.8198 102.174,96.7631 101.948,96.7698 L101.908,96.7698 C101.888,96.7831 101.864,96.7864 101.838,96.7798 C101.644,96.7798 101.481,96.8298 101.348,96.9298 C101.221,97.0164 101.101,97.1698 100.988,97.3898 C100.954,97.4564 100.926,97.5181 100.903,97.5748 C100.879,97.6314 100.854,97.6981 100.828,97.7748 C100.801,97.8514 100.781,97.9031 100.768,97.9298 C100.754,97.9831 100.734,98.0898 100.708,98.2498 C100.681,98.4098 100.654,98.5431 100.628,98.6498 C100.554,98.9831 100.504,99.1964 100.478,99.2898 L101.378,99.2898 C101.451,99.2898 101.514,99.3148 101.568,99.3648 C101.621,99.4148 101.648,99.4764 101.648,99.5498 C101.648,99.6231 101.621,99.6864 101.568,99.7398 C101.514,99.7931 101.451,99.8198 101.378,99.8198 L100.338,99.8198 M104.744,99.8198 L103.944,102.4 C103.671,103.326 103.207,104.223 102.554,105.09 C101.894,105.963 101.221,106.4 100.534,106.4 C100.174,106.4 99.8574,106.306 99.584,106.12 C99.3107,105.933 99.174,105.69 99.174,105.39 C99.174,105.05 99.2474,104.763 99.394,104.53 C99.5407,104.303 99.7407,104.183 99.994,104.17 C100.187,104.17 100.349,104.24 100.479,104.38 C100.609,104.52 100.674,104.68 100.674,104.86 C100.674,105.02 100.581,105.17 100.394,105.31 C100.194,105.436 100.091,105.576 100.084,105.73 C100.084,105.836 100.201,105.89 100.434,105.89 L100.534,105.89 C100.587,105.89 100.667,105.876 100.774,105.85 C100.827,105.836 100.897,105.8 100.984,105.74 C100.984,105.74 101.037,105.696 101.144,105.61 C101.217,105.516 101.261,105.45 101.274,105.41 C101.314,105.323 101.344,105.253 101.364,105.2 C101.397,105.16 101.431,105.07 101.464,104.93 C101.477,104.896 101.489,104.858 101.499,104.815 C101.509,104.771 101.519,104.741 101.529,104.725 C101.539,104.708 101.544,104.696 101.544,104.69 C101.584,104.516 101.611,104.413 101.624,104.38 C101.664,104.206 101.684,104.116 101.684,104.11 L102.754,99.8198 L101.924,99.8198 C101.851,99.8198 101.794,99.7931 101.754,99.7398 C101.714,99.6731 101.694,99.6098 101.694,99.5498 C101.694,99.4831 101.714,99.4231 101.754,99.3698 C101.827,99.3164 101.884,99.2898 101.924,99.2898 L102.904,99.2898 C103.171,98.4764 103.617,97.7731 104.244,97.1798 C104.864,96.5731 105.531,96.2698 106.244,96.2698 C106.624,96.2698 106.941,96.3664 107.194,96.5598 C107.461,96.7398 107.597,96.9798 107.604,97.2798 C107.604,97.5998 107.534,97.8831 107.394,98.1298 C107.234,98.3564 107.034,98.4764 106.794,98.4898 C106.601,98.4898 106.437,98.4214 106.304,98.2848 C106.171,98.1481 106.104,97.9898 106.104,97.8098 C106.104,97.6498 106.206,97.5048 106.409,97.3748 C106.612,97.2448 106.707,97.0998 106.694,96.9398 C106.694,96.8198 106.581,96.7631 106.354,96.7698 L106.314,96.7698 C106.294,96.7831 106.271,96.7864 106.244,96.7798 C106.051,96.7798 105.887,96.8298 105.754,96.9298 C105.627,97.0164 105.507,97.1698 105.394,97.3898 C105.361,97.4564 105.332,97.5181 105.309,97.5748 C105.286,97.6314 105.261,97.6981 105.234,97.7748 C105.207,97.8514 105.187,97.9031 105.174,97.9298 C105.161,97.9831 105.141,98.0898 105.114,98.2498 C105.087,98.4098 105.061,98.5431 105.034,98.6498 C104.961,98.9831 104.911,99.1964 104.884,99.2898 L105.784,99.2898 C105.857,99.2898 105.921,99.3148 105.974,99.3648 C106.027,99.4148 106.054,99.4764 106.054,99.5498 C106.054,99.6231 106.027,99.6864 105.974,99.7398 C105.921,99.7931 105.857,99.8198 105.784,99.8198 L104.744,99.8198 "/>
<path class="Dynamic" d="M39.5873,90.1951 C39.2939,90.1951 39.0306,90.3518 38.7973,90.6651 C38.5506,90.9918 38.3606,91.3551 38.2273,91.7551 C38.0939,92.1418 38.0339,92.4785 38.0473,92.7651 C38.0473,93.1718 38.1973,93.3751 38.4973,93.3751 C38.7639,93.3751 38.9939,93.2718 39.1873,93.0651 C39.4073,92.8385 39.5906,92.4485 39.7373,91.8951 C39.8973,91.3218 39.9773,90.9218 39.9773,90.6951 C39.9639,90.3618 39.8339,90.1951 39.5873,90.1951 M37.1573,89.4251 C37.4239,89.4251 37.6606,89.4968 37.8673,89.6401 C38.0739,89.7835 38.2039,89.9785 38.2573,90.2251 C38.4706,89.9851 38.7239,89.7918 39.0173,89.6451 C39.3106,89.4985 39.5873,89.4251 39.8473,89.4251 C40.3606,89.4251 40.7606,89.5885 41.0473,89.9151 C41.3273,90.2485 41.4673,90.6718 41.4673,91.1851 C41.4673,92.0385 41.1706,92.7351 40.5773,93.2751 C40.0239,93.7351 39.5273,93.9651 39.0873,93.9651 C38.8206,93.9651 38.6039,93.9385 38.4373,93.8851 C38.2239,93.8318 38.0839,93.7818 38.0173,93.7351 C37.9239,93.6818 37.8473,93.6551 37.7873,93.6551 C37.6473,93.6551 37.5539,93.7085 37.5073,93.8151 L36.9173,95.5851 L36.9173,95.6651 C36.9173,95.7718 36.9973,95.8318 37.1573,95.8451 C37.2106,95.8585 37.2923,95.8701 37.4023,95.8801 C37.5123,95.8901 37.5939,95.8951 37.6473,95.8951 C37.8073,95.9218 37.8873,95.9651 37.8873,96.0251 C37.8873,96.1051 37.8473,96.1451 37.7673,96.1451 C36.8206,96.0918 36.2073,96.0651 35.9273,96.0651 C35.6273,96.0651 35.0039,96.0918 34.0573,96.1451 C33.9706,96.1451 33.9339,96.1051 33.9473,96.0251 C33.9473,95.9585 34.0173,95.9118 34.1573,95.8851 C34.2239,95.8718 34.5039,95.8651 34.9973,95.8651 C35.2239,95.8651 35.3573,95.7951 35.3973,95.6551 L37.1073,90.7151 C37.1339,90.6218 37.1506,90.5418 37.1573,90.4751 C37.1573,90.2818 37.0706,90.1885 36.8973,90.1951 C36.6506,90.1951 36.3939,90.3518 36.1273,90.6651 C35.8673,90.9651 35.6573,91.2985 35.4973,91.6651 C35.4573,91.7585 35.3906,91.8085 35.2973,91.8151 C35.2173,91.8151 35.1773,91.7818 35.1773,91.7151 C35.1773,91.6285 35.2039,91.5485 35.2573,91.4751 C35.4706,91.0151 35.6939,90.5985 35.9273,90.2251 C36.0739,90.0118 36.2573,89.8285 36.4773,89.6751 C36.6906,89.5085 36.9173,89.4251 37.1573,89.4251 M45.4779,90.1951 C45.1846,90.1951 44.9212,90.3518 44.6879,90.6651 C44.4412,90.9918 44.2512,91.3551 44.1179,91.7551 C43.9846,92.1418 43.9246,92.4785 43.9379,92.7651 C43.9379,93.1718 44.0879,93.3751 44.3879,93.3751 C44.6546,93.3751 44.8846,93.2718 45.0779,93.0651 C45.2979,92.8385 45.4812,92.4485 45.6279,91.8951 C45.7879,91.3218 45.8679,90.9218 45.8679,90.6951 C45.8546,90.3618 45.7246,90.1951 45.4779,90.1951 M43.0479,89.4251 C43.3146,89.4251 43.5512,89.4968 43.7579,89.6401 C43.9646,89.7835 44.0946,89.9785 44.1479,90.2251 C44.3612,89.9851 44.6146,89.7918 44.9079,89.6451 C45.2012,89.4985 45.4779,89.4251 45.7379,89.4251 C46.2512,89.4251 46.6512,89.5885 46.9379,89.9151 C47.2179,90.2485 47.3579,90.6718 47.3579,91.1851 C47.3579,92.0385 47.0612,92.7351 46.4679,93.2751 C45.9146,93.7351 45.4179,93.9651 44.9779,93.9651 C44.7112,93.9651 44.4946,93.9385 44.3279,93.8851 C44.1146,93.8318 43.9746,93.7818 43.9079,93.7351 C43.8146,93.6818 43.7379,93.6551 43.6779,93.6551 C43.5379,93.6551 43.4446,93.7085 43.3979,93.8151 L42.8079,95.5851 L42.8079,95.6651 C42.8079,95.7718 42.8879,95.8318 43.0479,95.8451 C43.1012,95.8585 43.1829,95.8701 43.2929,95.8801 C43.4029,95.8901 43.4846,95.8951 43.5379,95.8951 C43.6979,95.9218 43.7779,95.9651 43.7779,96.0251 C43.7779,96.1051 43.7379,96.1451 43.6579,96.1451 C42.7112,96.0918 42.0979,96.0651 41.8179,96.0651 C41.5179,96.0651 40.8946,96.0918 39.9479,96.1451 C39.8612,96.1451 39.8246,96.1051 39.8379,96.0251 C39.8379,95.9585 39.9079,95.9118 40.0479,95.8851 C40.1146,95.8718 40.3946,95.8651 40.8879,95.8651 C41.1146,95.8651 41.2479,95.7951 41.2879,95.6551 L42.9979,90.7151 C43.0246,90.6218 43.0412,90.5418 43.0479,90.4751 C43.0479,90.2818 42.9612,90.1885 42.7879,90.1951 C42.5412,90.1951 42.2846,90.3518 42.0179,90.6651 C41.7579,90.9651 41.5479,91.2985 41.3879,91.6651 C41.3479,91.7585 41.2812,91.8085 41.1879,91.8151 C41.1079,91.8151 41.0679,91.7818 41.0679,91.7151 C41.0679,91.6285 41.0946,91.5485 41.1479,91.4751 C41.3612,91.0151 41.5846,90.5985 41.8179,90.2251 C41.9646,90.0118 42.1479,89.8285 42.3679,89.6751 C42.5812,89.5085 42.8079,89.4251 43.0479,89.4251 M51.3685,90.1951 C51.0752,90.1951 50.8118,90.3518 50.5785,90.6651 C50.3318,90.9918 50.1418,91.3551 50.0085,91.7551 C49.8752,92.1418 49.8152,92.4785 49.8285,92.7651 C49.8285,93.1718 49.9785,93.3751 50.2785,93.3751 C50.5452,93.3751 50.7752,93.2718 50.9685,93.0651 C51.1885,92.8385 51.3718,92.4485 51.5185,91.8951 C51.6785,91.3218 51.7585,90.9218 51.7585,90.6951 C51.7452,90.3618 51.6152,90.1951 51.3685,90.1951 M48.9385,89.4251 C49.2052,89.4251 49.4418,89.4968 49.6485,89.6401 C49.8552,89.7835 49.9852,89.9785 50.0385,90.2251 C50.2518,89.9851 50.5052,89.7918 50.7985,89.6451 C51.0918,89.4985 51.3685,89.4251 51.6285,89.4251 C52.1418,89.4251 52.5418,89.5885 52.8285,89.9151 C53.1085,90.2485 53.2485,90.6718 53.2485,91.1851 C53.2485,92.0385 52.9518,92.7351 52.3585,93.2751 C51.8052,93.7351 51.3085,93.9651 50.8685,93.9651 C50.6018,93.9651 50.3852,93.9385 50.2185,93.8851 C50.0052,93.8318 49.8652,93.7818 49.7985,93.7351 C49.7052,93.6818 49.6285,93.6551 49.5685,93.6551 C49.4285,93.6551 49.3352,93.7085 49.2885,93.8151 L48.6985,95.5851 L48.6985,95.6651 C48.6985,95.7718 48.7785,95.8318 48.9385,95.8451 C48.9918,95.8585 49.0735,95.8701 49.1835,95.8801 C49.2935,95.8901 49.3752,95.8951 49.4285,95.8951 C49.5885,95.9218 49.6685,95.9651 49.6685,96.0251 C49.6685,96.1051 49.6285,96.1451 49.5485,96.1451 C48.6018,96.0918 47.9885,96.0651 47.7085,96.0651 C47.4085,96.0651 46.7852,96.0918 45.8385,96.1451 C45.7518,96.1451 45.7152,96.1051 45.7285,96.0251 C45.7285,95.9585 45.7985,95.9118 45.9385,95.8851 C46.0052,95.8718 46.2852,95.8651 46.7785,95.8651 C47.0052,95.8651 47.1385,95.7951 47.1785,95.6551 L48.8885,90.7151 C48.9152,90.6218 48.9318,90.5418 48.9385,90.4751 C48.9385,90.2818 48.8518,90.1885 48.6785,90.1951 C48.4318,90.1951 48.1752,90.3518 47.9085,90.6651 C47.6485,90.9651 47.4385,91.2985 47.2785,91.6651 C47.2385,91.7585 47.1718,91.8085 47.0785,91.8151 C46.9985,91.8151 46.9585,91.7818 46.9585,91.7151 C46.9585,91.6285 46.9852,91.5485 47.0385,91.4751 C47.2518,91.0151 47.4752,90.5985 47.7085,90.2251 C47.8552,90.0118 48.0385,89.8285 48.2585,89.6751 C48.4718,89.5085 48.6985,89.4251 48.9385,89.4251"/>
<path class="Hook" transform="matrix(0.850394,0,0,0.850394,103.987,53.5814)" d="M0.625,0 C0.625,0.664062 0.768229,1.32812 1.05469,1.99219 C1.32812,2.64323 1.66667,3.26172 2.07031,3.84766 L3.24219,5.56641 C3.63281,6.10026 3.97135,6.71875 4.25781,7.42188 C4.54427,8.07292 4.6875,8.73047 4.6875,9.39453 C4.6875,10.0065 4.53125,10.6445 4.21875,11.3086 C4.60938,12.1029 4.80469,12.8776 4.80469,13.6328 C4.80469,14.8307 4.52474,16.0547 3.96484,17.3047 C3.8737,17.4609 3.75,17.5391 3.59375,17.5391 C3.46354,17.5391 3.34635,17.487 3.24219,17.3828 C3.16406,17.3047 3.125,17.207 3.125,17.0898 C3.125,17.0898 3.125,17.0573 3.125,16.9922 C3.6849,15.8854 3.96484,14.7656 3.96484,13.6328 C3.96484,13.125 3.86719,12.6562 3.67188,12.2266 C3.4375,11.7188 3.15104,11.25 2.8125,10.8203 C2.38281,10.2604 2.04427,9.85677 1.79688,9.60938 C1.45833,9.27083 1.06771,8.89974 0.625,8.49609 L0.625,10 L0,10 L0,0 L0.625,0 M3.69141,10.332 C3.78255,10.0586 3.82812,9.74609 3.82812,9.39453 C3.82812,8.9388 3.73698,8.47656 3.55469,8.00781 C3.35938,7.53906 3.08594,7.0638 2.73438,6.58203 C2.40885,6.17839 2.07682,5.78125 1.73828,5.39062 C1.47786,5.10417 1.10677,4.72656 0.625,4.25781 C0.625,4.79167 0.735677,5.35807 0.957031,5.95703 C1.19141,6.51693 1.43229,7.00521 1.67969,7.42188 C1.96615,7.86458 2.31771,8.36589 2.73438,8.92578 C3.15104,9.48568 3.47005,9.95443 3.69141,10.332"/>
<path class="Hook" transform="matrix(0.850394,0,0,0.850394,98.9419,42.9515)" d="M0.625,-4.00391 C1.14583,-4.30339 1.64062,-4.60938 2.10938,-4.92188 C2.60417,-5.27344 3.04688,-5.625 3.4375,-5.97656 C3.90625,-6.40625 4.26432,-6.84896 4.51172,-7.30469 C4.77214,-7.79948 4.90234,-8.28776 4.90234,-8.76953 C4.90234,-9.22526 4.8112,-9.6875 4.62891,-10.1562 C4.48568,-9.97396 4.0625,-9.55729 3.35938,-8.90625 C2.82552,-8.41146 2.36979,-7.96224 1.99219,-7.55859 C1.65365,-7.19401 1.34115,-6.73828 1.05469,-6.19141 C0.768229,-5.63151 0.625,-5.0651 0.625,-4.49219 L0.625,-4.00391 M5.99609,-13.2617 C5.99609,-12.4805 5.7487,-11.7057 5.25391,-10.9375 C5.57943,-10.2474 5.74219,-9.52474 5.74219,-8.76953 C5.74219,-8.13151 5.56641,-7.48698 5.21484,-6.83594 C4.83724,-6.13281 4.41406,-5.5599 3.94531,-5.11719 L2.42188,-3.63281 C1.91406,-3.11198 1.49089,-2.54557 1.15234,-1.93359 C0.800781,-1.30859 0.625,-0.664062 0.625,0 L0,0 L0,-10 L0.625,-10 L0.625,-8.49609 C3.64583,-10.0716 5.15625,-11.6602 5.15625,-13.2617 C5.15625,-13.6133 5.0651,-14.0234 4.88281,-14.4922 C4.88281,-14.4922 4.88281,-14.5182 4.88281,-14.5703 C4.88281,-14.6745 4.92188,-14.7786 5,-14.8828 C5.10417,-14.987 5.22135,-15.0391 5.35156,-15.0391 C5.48177,-15.0391 5.59896,-14.9609 5.70312,-14.8047 C5.82031,-14.5964 5.88542,-14.3945 5.89844,-14.1992 C5.91146,-14.1081 5.92448,-13.9909 5.9375,-13.8477 L5.97656,-13.6328 C5.98958,-13.5417 5.99609,-13.418 5.99609,-13.2617"/>
<path class="StaffText" d="M47.5655,9.67781 C47.5655,9.94781 47.5355,10.2118 47.4755,10.4698 C47.4155,10.7278 47.3045,10.9948 47.1425,11.2708 C46.9805,11.5468 46.7735,11.7853 46.5215,11.9863 C46.2695,12.1873 45.935,12.3538 45.518,12.4858 C45.101,12.6178 44.6285,12.6838 44.1005,12.6838 L41.5445,12.6838 L41.5445,12.5128 C41.8865,12.4888 42.104,12.4288 42.197,12.3328 C42.29,12.2368 42.3365,12.0268 42.3365,11.7028 L42.3365,7.70681 C42.3365,7.37681 42.293,7.16681 42.206,7.07681 C42.119,6.98681 41.8985,6.92681 41.5445,6.89681 L41.5445,6.72581 L43.9745,6.72581 C44.5205,6.72581 45.008,6.78731 45.437,6.91031 C45.866,7.03331 46.211,7.19231 46.472,7.38731 C46.733,7.58231 46.949,7.81331 47.12,8.08031 C47.291,8.34731 47.408,8.60981 47.471,8.86781 C47.534,9.12581 47.5655,9.39581 47.5655,9.67781 M46.5845,9.74081 C46.5845,9.48281 46.559,9.23531 46.508,8.99831 C46.457,8.76131 46.3655,8.52131 46.2335,8.27831 C46.1015,8.03531 45.9305,7.82681 45.7205,7.65281 C45.5105,7.47881 45.2345,7.33631 44.8925,7.22531 C44.5505,7.11431 44.1605,7.05881 43.7225,7.05881 C43.5365,7.05881 43.412,7.08281 43.349,7.13081 C43.286,7.17881 43.2545,7.27181 43.2545,7.40981 L43.2545,11.9818 C43.2545,12.1258 43.2875,12.2233 43.3535,12.2743 C43.4195,12.3253 43.5425,12.3508 43.7225,12.3508 C45.6305,12.3508 46.5845,11.4808 46.5845,9.74081 M49.1023,8.55281 C49.2403,8.55281 49.3588,8.60381 49.4578,8.70581 C49.5568,8.80781 49.6063,8.92781 49.6063,9.06581 C49.6063,9.19781 49.5553,9.31181 49.4533,9.40781 C49.3513,9.50381 49.2313,9.55181 49.0933,9.55181 C48.9613,9.55181 48.8473,9.50381 48.7513,9.40781 C48.6553,9.31181 48.6073,9.19781 48.6073,9.06581 C48.6073,8.92781 48.6568,8.80781 48.7558,8.70581 C48.8548,8.60381 48.9703,8.55281 49.1023,8.55281 M49.1023,11.7838 C49.2403,11.7838 49.3588,11.8348 49.4578,11.9368 C49.5568,12.0388 49.6063,12.1588 49.6063,12.2968 C49.6063,12.4288 49.5553,12.5428 49.4533,12.6388 C49.3513,12.7348 49.2313,12.7828 49.0933,12.7828 C48.9613,12.7828 48.8473,12.7348 48.7513,12.6388 C48.6553,12.5428 48.6073,12.4288 48.6073,12.2968 C48.6073,12.1588 48.6568,12.0388 48.7558,11.9368 C48.8548,11.8348 48.9703,11.7838 49.1023,11.7838 M53.3863,11.7028 L53.3863,7.70681 C53.3863,7.37681 53.3368,7.16531 53.2378,7.07231 C53.1388,6.97931 52.8973,6.92081 52.5133,6.89681 L52.5133,6.72581 L55.1863,6.72581 L55.1863,6.89681 C54.8083,6.91481 54.5668,6.97181 54.4618,7.06781 C54.3568,7.16381 54.3043,7.37681 54.3043,7.70681 L54.3043,11.7028 C54.3043,12.0328 54.3583,12.2473 54.4663,12.3463 C54.5743,12.4453 54.8143,12.5008 55.1863,12.5128 L55.1863,12.6838 L52.5133,12.6838 L52.5133,12.5128 C52.8913,12.5008 53.1313,12.4468 53.2333,12.3508 C53.3353,12.2548 53.3863,12.0388 53.3863,11.7028"/>
<path class="StaffText" d="M57.5608,5.99881 L57.5608,6.07881 L56.5008,9.34881 L56.1758,9.34881 L57.1658,6.36881 L56.0808,6.36881 C55.9441,6.36881 55.8399,6.39381 55.7683,6.44381 C55.6966,6.49381 55.6074,6.60381 55.5008,6.77381 L55.4158,6.73381 L55.7108,5.99881 L57.5608,5.99881 "/>
<path class="Bracket" fill-rule="evenodd" d="M5.36477,41.3573 C5.36477,36.9041 1.94376,32.5755 1.94376,28.3092 C1.94376,26.1604 2.87676,24.074 5.75352,22.2055 C5.7924,22.1822 5.81183,22.1432 5.81183,22.1199 C5.81183,22.0498 5.59802,21.9875 5.44252,21.9875 C5.36477,21.9875 5.22871,21.9953 5.13152,22.0498 C1.39951,24.4477 0.155501,27.2192 0.155501,30.0219 C0.155501,34.5374 3.80976,38.8972 3.80976,43.2258 C3.80976,45.3745 2.87676,47.3987 -1.08802e-14,49.2672 L-1.08802e-14,49.3295 L-1.08802e-14,49.3918 C2.87676,51.2602 3.80976,53.2844 3.80976,55.4331 C3.80976,59.7618 0.155501,64.1215 0.155501,68.637 C0.155501,71.4397 1.39951,74.2113 5.13152,76.6092 C5.22871,76.6636 5.36477,76.6714 5.44252,76.6714 C5.59802,76.6714 5.81183,76.6092 5.81183,76.5391 C5.81183,76.5157 5.7924,76.4768 5.75352,76.4534 C2.87676,74.585 1.94376,72.4985 1.94376,70.3498 C1.94376,66.0834 5.36477,61.7548 5.36477,57.3016 C5.36477,54.4678 4.12076,51.7585 0.466502,49.3295 C4.12076,46.9005 5.36477,44.1912 5.36477,41.3573"/>
</svg>
