<?xml version="1.0" encoding="UTF-8" standalone="no"?>
<svg width="304.186px" height="106.475px" viewBox="0 0 304.186 106.475"
 xmlns="http://www.w3.org/2000/svg" xmlns:xlink="http://www.w3.org/1999/xlink" version="1.2" baseProfile="tiny">
<title>Egy akkord – több karakter</title>
<desc>Generated by MuseScore 2.3.2</desc>
<polyline class="StaffLines" fill="none" stroke="#000000" stroke-width="0.34" stroke-linejoin="bevel" points="7.14331,21.6917 304.186,21.6917"/>
<polyline class="StaffLines" fill="none" stroke="#000000" stroke-width="0.34" stroke-linejoin="bevel" points="7.14331,25.9437 304.186,25.9437"/>
<polyline class="StaffLines" fill="none" stroke="#000000" stroke-width="0.34" stroke-linejoin="bevel" points="7.14331,30.1956 304.186,30.1956"/>
<polyline class="StaffLines" fill="none" stroke="#000000" stroke-width="0.34" stroke-linejoin="bevel" points="7.14331,34.4476 304.186,34.4476"/>
<polyline class="StaffLines" fill="none" stroke="#000000" stroke-width="0.34" stroke-linejoin="bevel" points="7.14331,38.6996 304.186,38.6996"/>
<polyline class="StaffLines" fill="none" stroke="#000000" stroke-width="0.34" stroke-linejoin="bevel" points="7.14331,59.9594 304.186,59.9594"/>
<polyline class="StaffLines" fill="none" stroke="#000000" stroke-width="0.34" stroke-linejoin="bevel" points="7.14331,64.2114 304.186,64.2114"/>
<polyline class="StaffLines" fill="none" stroke="#000000" stroke-width="0.34" stroke-linejoin="bevel" points="7.14331,68.4633 304.186,68.4633"/>
<polyline class="StaffLines" fill="none" stroke="#000000" stroke-width="0.34" stroke-linejoin="bevel" points="7.14331,72.7153 304.186,72.7153"/>
<polyline class="StaffLines" fill="none" stroke="#000000" stroke-width="0.34" stroke-linejoin="bevel" points="7.14331,76.9673 304.186,76.9673"/>
<polyline class="BarLine" fill="none" stroke="#000000" stroke-width="0.68" stroke-linejoin="bevel" points="7.48346,21.6917 7.48346,76.9673"/>
<polyline class="BarLine" fill="none" stroke="#000000" stroke-width="0.68" stroke-linejoin="bevel" points="300.019,21.6917 300.019,76.9673"/>
<polyline class="BarLine" fill="none" stroke="#000000" stroke-width="2.13" stroke-linejoin="bevel" points="303.123,21.6917 303.123,76.9673"/>
<polyline class="BarLine" fill="none" stroke="#000000" stroke-width="0.68" stroke-linejoin="bevel" points="215.696,21.6917 215.696,76.9673"/>
<polyline class="BarLine" fill="none" stroke="#000000" stroke-width="0.68" stroke-linejoin="bevel" points="109.855,21.6917 109.855,76.9673"/>
<polyline class="LedgerLine" fill="none" stroke="#000000" stroke-width="0.68" stroke-linecap="square" stroke-linejoin="bevel" points="114.022,81.2192 122.171,81.2192"/>
<polyline class="LedgerLine" fill="none" stroke="#000000" stroke-width="0.68" stroke-linecap="square" stroke-linejoin="bevel" points="114.022,13.1877 122.171,13.1877"/>
<polyline class="LedgerLine" fill="none" stroke="#000000" stroke-width="0.68" stroke-linecap="square" stroke-linejoin="bevel" points="114.022,17.4397 122.171,17.4397"/>
<polyline class="LedgerLine" fill="none" stroke="#000000" stroke-width="0.68" stroke-linecap="square" stroke-linejoin="bevel" points="38.7221,55.7074 49.6949,55.7074"/>
<polyline class="Stem" fill="none" stroke="#000000" stroke-width="0.55" stroke-linecap="round" stroke-linejoin="bevel" points="221.415,60.6261 221.415,81.7507"/>
<polyline class="Stem" fill="none" stroke="#000000" stroke-width="0.55" stroke-linecap="round" stroke-linejoin="bevel" points="226.767,35.9205 226.767,15.3137"/>
<polyline class="Stem" fill="none" stroke="#000000" stroke-width="0.55" stroke-linecap="round" stroke-linejoin="bevel" points="120.619,82.5466 120.619,53.5814"/>
<polyline class="Stem" fill="none" stroke="#000000" stroke-width="0.55" stroke-linecap="round" stroke-linejoin="bevel" points="115.574,11.8603 115.574,42.9515"/>
<path class="Note" transform="matrix(0.850394,0,0,0.850394,221.139,59.9594)" d="M6.30859,-1.30859 C6.30859,-1.52995 6.22396,-1.71875 6.05469,-1.875 C5.88542,-2.04427 5.6901,-2.12891 5.46875,-2.12891 C5.07812,-2.12891 4.29036,-1.73828 3.10547,-0.957031 C1.88151,-0.16276 1.13281,0.403646 0.859375,0.742188 C0.716146,0.924479 0.644531,1.11328 0.644531,1.30859 C0.644531,1.52995 0.729167,1.71875 0.898438,1.875 C1.05469,2.04427 1.25,2.12891 1.48438,2.12891 C1.86198,2.12891 2.65625,1.73828 3.86719,0.957031 C5.0651,0.175781 5.80729,-0.390625 6.09375,-0.742188 C6.23698,-0.911458 6.30859,-1.10026 6.30859,-1.30859 M5.27344,-2.75391 C6.39323,-2.75391 6.95312,-2.27214 6.95312,-1.30859 C6.95312,-0.839844 6.81641,-0.292969 6.54297,0.332031 C6.26953,0.94401 5.90495,1.41276 5.44922,1.73828 C4.44661,2.41536 3.1901,2.75391 1.67969,2.75391 C0.559896,2.75391 0,2.27214 0,1.30859 C0,0.878906 0.136719,0.338542 0.410156,-0.3125 C0.670573,-0.9375 1.03516,-1.41276 1.50391,-1.73828 C2.50651,-2.41536 3.76302,-2.75391 5.27344,-2.75391"/>
<path class="Note" transform="matrix(0.850394,0,0,0.850394,221.139,68.4633)" d="M6.30859,-1.30859 C6.30859,-1.52995 6.22396,-1.71875 6.05469,-1.875 C5.88542,-2.04427 5.6901,-2.12891 5.46875,-2.12891 C5.07812,-2.12891 4.29036,-1.73828 3.10547,-0.957031 C1.88151,-0.16276 1.13281,0.403646 0.859375,0.742188 C0.716146,0.924479 0.644531,1.11328 0.644531,1.30859 C0.644531,1.52995 0.729167,1.71875 0.898438,1.875 C1.05469,2.04427 1.25,2.12891 1.48438,2.12891 C1.86198,2.12891 2.65625,1.73828 3.86719,0.957031 C5.0651,0.175781 5.80729,-0.390625 6.09375,-0.742188 C6.23698,-0.911458 6.30859,-1.10026 6.30859,-1.30859 M5.27344,-2.75391 C6.39323,-2.75391 6.95312,-2.27214 6.95312,-1.30859 C6.95312,-0.839844 6.81641,-0.292969 6.54297,0.332031 C6.26953,0.94401 5.90495,1.41276 5.44922,1.73828 C4.44661,2.41536 3.1901,2.75391 1.67969,2.75391 C0.559896,2.75391 0,2.27214 0,1.30859 C0,0.878906 0.136719,0.338542 0.410156,-0.3125 C0.670573,-0.9375 1.03516,-1.41276 1.50391,-1.73828 C2.50651,-2.41536 3.76302,-2.75391 5.27344,-2.75391"/>
<path class="Note" transform="matrix(0.850394,0,0,0.850394,221.139,28.0696)" d="M6.30859,-1.30859 C6.30859,-1.52995 6.22396,-1.71875 6.05469,-1.875 C5.88542,-2.04427 5.6901,-2.12891 5.46875,-2.12891 C5.07812,-2.12891 4.29036,-1.73828 3.10547,-0.957031 C1.88151,-0.16276 1.13281,0.403646 0.859375,0.742188 C0.716146,0.924479 0.644531,1.11328 0.644531,1.30859 C0.644531,1.52995 0.729167,1.71875 0.898438,1.875 C1.05469,2.04427 1.25,2.12891 1.48438,2.12891 C1.86198,2.12891 2.65625,1.73828 3.86719,0.957031 C5.0651,0.175781 5.80729,-0.390625 6.09375,-0.742188 C6.23698,-0.911458 6.30859,-1.10026 6.30859,-1.30859 M5.27344,-2.75391 C6.39323,-2.75391 6.95312,-2.27214 6.95312,-1.30859 C6.95312,-0.839844 6.81641,-0.292969 6.54297,0.332031 C6.26953,0.94401 5.90495,1.41276 5.44922,1.73828 C4.44661,2.41536 3.1901,2.75391 1.67969,2.75391 C0.559896,2.75391 0,2.27214 0,1.30859 C0,0.878906 0.136719,0.338542 0.410156,-0.3125 C0.670573,-0.9375 1.03516,-1.41276 1.50391,-1.73828 C2.50651,-2.41536 3.76302,-2.75391 5.27344,-2.75391"/>
<path class="Note" transform="matrix(0.850394,0,0,0.850394,221.139,36.5736)" d="M6.30859,-1.30859 C6.30859,-1.52995 6.22396,-1.71875 6.05469,-1.875 C5.88542,-2.04427 5.6901,-2.12891 5.46875,-2.12891 C5.07812,-2.12891 4.29036,-1.73828 3.10547,-0.957031 C1.88151,-0.16276 1.13281,0.403646 0.859375,0.742188 C0.716146,0.924479 0.644531,1.11328 0.644531,1.30859 C0.644531,1.52995 0.729167,1.71875 0.898438,1.875 C1.05469,2.04427 1.25,2.12891 1.48438,2.12891 C1.86198,2.12891 2.65625,1.73828 3.86719,0.957031 C5.0651,0.175781 5.80729,-0.390625 6.09375,-0.742188 C6.23698,-0.911458 6.30859,-1.10026 6.30859,-1.30859 M5.27344,-2.75391 C6.39323,-2.75391 6.95312,-2.27214 6.95312,-1.30859 C6.95312,-0.839844 6.81641,-0.292969 6.54297,0.332031 C6.26953,0.94401 5.90495,1.41276 5.44922,1.73828 C4.44661,2.41536 3.1901,2.75391 1.67969,2.75391 C0.559896,2.75391 0,2.27214 0,1.30859 C0,0.878906 0.136719,0.338542 0.410156,-0.3125 C0.670573,-0.9375 1.03516,-1.41276 1.50391,-1.73828 C2.50651,-2.41536 3.76302,-2.75391 5.27344,-2.75391"/>
<path class="Note" transform="matrix(0.850394,0,0,0.850394,115.298,68.4633)" d="M4.39453,-2.75391 C5.01953,-2.75391 5.54688,-2.59115 5.97656,-2.26562 C6.38021,-1.91406 6.58203,-1.47135 6.58203,-0.9375 C6.58203,-0.0390625 6.11979,0.800781 5.19531,1.58203 C4.25781,2.36328 3.25521,2.75391 2.1875,2.75391 C1.5625,2.75391 1.03516,2.59115 0.605469,2.26562 C0.201823,1.91406 0,1.47135 0,0.9375 C0,0.0390625 0.46875,-0.800781 1.40625,-1.58203 C2.31771,-2.36328 3.3138,-2.75391 4.39453,-2.75391"/>
<path class="Note" transform="matrix(0.850394,0,0,0.850394,115.298,74.8413)" d="M4.39453,-2.75391 C5.01953,-2.75391 5.54688,-2.59115 5.97656,-2.26562 C6.38021,-1.91406 6.58203,-1.47135 6.58203,-0.9375 C6.58203,-0.0390625 6.11979,0.800781 5.19531,1.58203 C4.25781,2.36328 3.25521,2.75391 2.1875,2.75391 C1.5625,2.75391 1.03516,2.59115 0.605469,2.26562 C0.201823,1.91406 0,1.47135 0,0.9375 C0,0.0390625 0.46875,-0.800781 1.40625,-1.58203 C2.31771,-2.36328 3.3138,-2.75391 4.39453,-2.75391"/>
<path class="Note" transform="matrix(0.850394,0,0,0.850394,115.298,79.0933)" d="M4.39453,-2.75391 C5.01953,-2.75391 5.54688,-2.59115 5.97656,-2.26562 C6.38021,-1.91406 6.58203,-1.47135 6.58203,-0.9375 C6.58203,-0.0390625 6.11979,0.800781 5.19531,1.58203 C4.25781,2.36328 3.25521,2.75391 2.1875,2.75391 C1.5625,2.75391 1.03516,2.59115 0.605469,2.26562 C0.201823,1.91406 0,1.47135 0,0.9375 C0,0.0390625 0.46875,-0.800781 1.40625,-1.58203 C2.31771,-2.36328 3.3138,-2.75391 4.39453,-2.75391"/>
<path class="Note" transform="matrix(0.850394,0,0,0.850394,115.298,83.3452)" d="M4.39453,-2.75391 C5.01953,-2.75391 5.54688,-2.59115 5.97656,-2.26562 C6.38021,-1.91406 6.58203,-1.47135 6.58203,-0.9375 C6.58203,-0.0390625 6.11979,0.800781 5.19531,1.58203 C4.25781,2.36328 3.25521,2.75391 2.1875,2.75391 C1.5625,2.75391 1.03516,2.59115 0.605469,2.26562 C0.201823,1.91406 0,1.47135 0,0.9375 C0,0.0390625 0.46875,-0.800781 1.40625,-1.58203 C2.31771,-2.36328 3.3138,-2.75391 4.39453,-2.75391"/>
<path class="Note" transform="matrix(0.850394,0,0,0.850394,115.298,11.0618)" d="M4.39453,-2.75391 C5.01953,-2.75391 5.54688,-2.59115 5.97656,-2.26562 C6.38021,-1.91406 6.58203,-1.47135 6.58203,-0.9375 C6.58203,-0.0390625 6.11979,0.800781 5.19531,1.58203 C4.25781,2.36328 3.25521,2.75391 2.1875,2.75391 C1.5625,2.75391 1.03516,2.59115 0.605469,2.26562 C0.201823,1.91406 0,1.47135 0,0.9375 C0,0.0390625 0.46875,-0.800781 1.40625,-1.58203 C2.31771,-2.36328 3.3138,-2.75391 4.39453,-2.75391"/>
<path class="Note" transform="matrix(0.850394,0,0,0.850394,115.298,17.4397)" d="M4.39453,-2.75391 C5.01953,-2.75391 5.54688,-2.59115 5.97656,-2.26562 C6.38021,-1.91406 6.58203,-1.47135 6.58203,-0.9375 C6.58203,-0.0390625 6.11979,0.800781 5.19531,1.58203 C4.25781,2.36328 3.25521,2.75391 2.1875,2.75391 C1.5625,2.75391 1.03516,2.59115 0.605469,2.26562 C0.201823,1.91406 0,1.47135 0,0.9375 C0,0.0390625 0.46875,-0.800781 1.40625,-1.58203 C2.31771,-2.36328 3.3138,-2.75391 4.39453,-2.75391"/>
<path class="Note" transform="matrix(0.850394,0,0,0.850394,115.298,21.6917)" d="M4.39453,-2.75391 C5.01953,-2.75391 5.54688,-2.59115 5.97656,-2.26562 C6.38021,-1.91406 6.58203,-1.47135 6.58203,-0.9375 C6.58203,-0.0390625 6.11979,0.800781 5.19531,1.58203 C4.25781,2.36328 3.25521,2.75391 2.1875,2.75391 C1.5625,2.75391 1.03516,2.59115 0.605469,2.26562 C0.201823,1.91406 0,1.47135 0,0.9375 C0,0.0390625 0.46875,-0.800781 1.40625,-1.58203 C2.31771,-2.36328 3.3138,-2.75391 4.39453,-2.75391"/>
<path class="Note" transform="matrix(0.850394,0,0,0.850394,115.298,28.0696)" d="M4.39453,-2.75391 C5.01953,-2.75391 5.54688,-2.59115 5.97656,-2.26562 C6.38021,-1.91406 6.58203,-1.47135 6.58203,-0.9375 C6.58203,-0.0390625 6.11979,0.800781 5.19531,1.58203 C4.25781,2.36328 3.25521,2.75391 2.1875,2.75391 C1.5625,2.75391 1.03516,2.59115 0.605469,2.26562 C0.201823,1.91406 0,1.47135 0,0.9375 C0,0.0390625 0.46875,-0.800781 1.40625,-1.58203 C2.31771,-2.36328 3.3138,-2.75391 4.39453,-2.75391"/>
<path class="Note" transform="matrix(0.850394,0,0,0.850394,39.9977,53.5814)" d="M4.29688,-2.24609 C3.82812,-2.24609 3.48958,-2.08333 3.28125,-1.75781 C3.04688,-1.44531 2.92969,-1.02214 2.92969,-0.488281 C2.92969,0.123698 3.09245,0.651042 3.41797,1.09375 C3.74349,1.52344 4.10156,1.82292 4.49219,1.99219 C4.84375,2.16146 5.21484,2.24609 5.60547,2.24609 C6.0612,2.24609 6.40625,2.08333 6.64062,1.75781 C6.86198,1.43229 6.97266,1.00911 6.97266,0.488281 C6.97266,-0.123698 6.8099,-0.651042 6.48438,-1.09375 C6.15885,-1.51042 5.80729,-1.8099 5.42969,-1.99219 C5.05208,-2.16146 4.67448,-2.24609 4.29688,-2.24609 M4.96094,-2.75391 C6.36719,-2.75391 7.53906,-2.48047 8.47656,-1.93359 C9.42708,-1.38672 9.90234,-0.742188 9.90234,0 C9.90234,0.794271 9.41406,1.44531 8.4375,1.95312 C7.46094,2.48698 6.30208,2.75391 4.96094,2.75391 C3.58073,2.75391 2.40885,2.48047 1.44531,1.93359 C0.481771,1.38672 0,0.742188 0,0 C0,-0.794271 0.494792,-1.44531 1.48438,-1.95312 C2.46094,-2.48698 3.61979,-2.75391 4.96094,-2.75391"/>
<path class="Note" transform="matrix(0.850394,0,0,0.850394,39.9977,28.0696)" d="M4.29688,-2.24609 C3.82812,-2.24609 3.48958,-2.08333 3.28125,-1.75781 C3.04688,-1.44531 2.92969,-1.02214 2.92969,-0.488281 C2.92969,0.123698 3.09245,0.651042 3.41797,1.09375 C3.74349,1.52344 4.10156,1.82292 4.49219,1.99219 C4.84375,2.16146 5.21484,2.24609 5.60547,2.24609 C6.0612,2.24609 6.40625,2.08333 6.64062,1.75781 C6.86198,1.43229 6.97266,1.00911 6.97266,0.488281 C6.97266,-0.123698 6.8099,-0.651042 6.48438,-1.09375 C6.15885,-1.51042 5.80729,-1.8099 5.42969,-1.99219 C5.05208,-2.16146 4.67448,-2.24609 4.29688,-2.24609 M4.96094,-2.75391 C6.36719,-2.75391 7.53906,-2.48047 8.47656,-1.93359 C9.42708,-1.38672 9.90234,-0.742188 9.90234,0 C9.90234,0.794271 9.41406,1.44531 8.4375,1.95312 C7.46094,2.48698 6.30208,2.75391 4.96094,2.75391 C3.58073,2.75391 2.40885,2.48047 1.44531,1.93359 C0.481771,1.38672 0,0.742188 0,0 C0,-0.794271 0.494792,-1.44531 1.48438,-1.95312 C2.46094,-2.48698 3.61979,-2.75391 4.96094,-2.75391"/>
<path class="Note" transform="matrix(0.850394,0,0,0.850394,39.9977,36.5736)" d="M4.29688,-2.24609 C3.82812,-2.24609 3.48958,-2.08333 3.28125,-1.75781 C3.04688,-1.44531 2.92969,-1.02214 2.92969,-0.488281 C2.92969,0.123698 3.09245,0.651042 3.41797,1.09375 C3.74349,1.52344 4.10156,1.82292 4.49219,1.99219 C4.84375,2.16146 5.21484,2.24609 5.60547,2.24609 C6.0612,2.24609 6.40625,2.08333 6.64062,1.75781 C6.86198,1.43229 6.97266,1.00911 6.97266,0.488281 C6.97266,-0.123698 6.8099,-0.651042 6.48438,-1.09375 C6.15885,-1.51042 5.80729,-1.8099 5.42969,-1.99219 C5.05208,-2.16146 4.67448,-2.24609 4.29688,-2.24609 M4.96094,-2.75391 C6.36719,-2.75391 7.53906,-2.48047 8.47656,-1.93359 C9.42708,-1.38672 9.90234,-0.742188 9.90234,0 C9.90234,0.794271 9.41406,1.44531 8.4375,1.95312 C7.46094,2.48698 6.30208,2.75391 4.96094,2.75391 C3.58073,2.75391 2.40885,2.48047 1.44531,1.93359 C0.481771,1.38672 0,0.742188 0,0 C0,-0.794271 0.494792,-1.44531 1.48438,-1.95312 C2.46094,-2.48698 3.61979,-2.75391 4.96094,-2.75391"/>
<path class="Clef" transform="matrix(0.850394,0,0,0.850394,10.5449,64.2114)" d="M11.4258,-1.77734 C11.2305,-1.97266 11.1328,-2.21354 11.1328,-2.5 C11.1328,-2.78646 11.2305,-3.02734 11.4258,-3.22266 C11.6211,-3.41797 11.862,-3.51562 12.1484,-3.51562 C12.4349,-3.51562 12.6758,-3.41797 12.8711,-3.22266 C13.0664,-3.02734 13.1641,-2.78646 13.1641,-2.5 C13.1641,-2.21354 13.0664,-1.97266 12.8711,-1.77734 C12.6758,-1.58203 12.4349,-1.48438 12.1484,-1.48438 C11.862,-1.48438 11.6211,-1.58203 11.4258,-1.77734 M11.4258,3.22266 C11.2305,3.02734 11.1328,2.78646 11.1328,2.5 C11.1328,2.21354 11.2305,1.97266 11.4258,1.77734 C11.6211,1.58203 11.862,1.48438 12.1484,1.48438 C12.4349,1.48438 12.6758,1.58203 12.8711,1.77734 C13.0664,1.97266 13.1641,2.21354 13.1641,2.5 C13.1641,2.78646 13.0664,3.02734 12.8711,3.22266 C12.6758,3.41797 12.4349,3.51562 12.1484,3.51562 C11.862,3.51562 11.6211,3.41797 11.4258,3.22266 M4.64844,-5.25391 C6.38021,-5.25391 7.79948,-4.81771 8.90625,-3.94531 C9.97396,-3.03385 10.5078,-1.79688 10.5078,-0.234375 C10.5078,0.820312 10.2995,1.78385 9.88281,2.65625 C9.49219,3.56771 8.97786,4.375 8.33984,5.07812 C7.6888,5.79427 6.90104,6.47135 5.97656,7.10938 C5.07812,7.73438 4.15365,8.29427 3.20312,8.78906 C1.27604,9.76562 0.208333,10.2539 0,10.2539 C-0.169271,10.2539 -0.253906,10.1693 -0.253906,10 C-0.253906,9.9349 -0.227865,9.8763 -0.175781,9.82422 C0.488281,9.43359 1.30208,8.93229 2.26562,8.32031 C2.89062,7.91667 3.61979,7.35677 4.45312,6.64062 C5.26042,5.96354 5.88542,5.32552 6.32812,4.72656 C6.78385,4.14062 7.20052,3.41146 7.57812,2.53906 C7.90365,1.66667 8.06641,0.807292 8.06641,-0.0390625 C8.06641,-1.30208 7.75391,-2.40234 7.12891,-3.33984 C6.50391,-4.27734 5.67708,-4.74609 4.64844,-4.74609 C3.91927,-4.74609 3.29427,-4.51172 2.77344,-4.04297 C2.21354,-3.5612 1.8099,-2.95573 1.5625,-2.22656 C1.8099,-2.33073 2.03776,-2.38281 2.24609,-2.38281 C2.79297,-2.38281 3.26172,-2.1875 3.65234,-1.79688 C4.04297,-1.38021 4.23828,-0.904948 4.23828,-0.371094 C4.23828,0.188802 4.04948,0.690104 3.67188,1.13281 C3.26823,1.53646 2.79297,1.73828 2.24609,1.73828 C1.66016,1.73828 1.13281,1.53646 0.664062,1.13281 C0.221354,0.690104 0,0.188802 0,-0.371094 C0,-1.71224 0.455729,-2.85807 1.36719,-3.80859 C2.26562,-4.77214 3.35938,-5.25391 4.64844,-5.25391"/>
<path class="Clef" transform="matrix(0.850394,0,0,0.850394,10.5449,34.4476)" d="M7.34375,-5.11719 C7.34375,-5.11719 7.38281,-5.11719 7.46094,-5.11719 C7.51302,-5.13021 7.55859,-5.13672 7.59766,-5.13672 C9.05599,-5.13672 10.2539,-4.6224 11.1914,-3.59375 C12.1289,-2.57812 12.5977,-1.39323 12.5977,-0.0390625 C12.5977,1.64062 11.901,3.00781 10.5078,4.0625 C10.1432,4.34896 9.66797,4.58333 9.08203,4.76562 C9.14714,5.61198 9.17969,6.29557 9.17969,6.81641 C9.17969,6.92057 9.16667,7.29818 9.14062,7.94922 C9.08854,9.16016 8.67188,10.2083 7.89062,11.0938 C7.13542,11.9661 6.19792,12.4023 5.07812,12.4023 C4.02344,12.4023 3.125,12.0312 2.38281,11.2891 C1.64062,10.5339 1.26953,9.6224 1.26953,8.55469 C1.26953,7.99479 1.48438,7.51953 1.91406,7.12891 C2.35677,6.73828 2.87109,6.54297 3.45703,6.54297 C3.97786,6.54297 4.41406,6.74479 4.76562,7.14844 C5.13021,7.52604 5.3125,7.99479 5.3125,8.55469 C5.3125,9.0625 5.13021,9.4987 4.76562,9.86328 C4.40104,10.2279 3.96484,10.4102 3.45703,10.4102 C3.2487,10.4102 3.04688,10.3711 2.85156,10.293 C3.42448,11.1393 4.1862,11.5625 5.13672,11.5625 C6.03516,11.5625 6.77083,11.1979 7.34375,10.4688 C7.94271,9.71354 8.26823,8.83464 8.32031,7.83203 C8.34635,7.20703 8.35938,6.84896 8.35938,6.75781 C8.35938,6.02865 8.33333,5.42969 8.28125,4.96094 C7.63021,5.0651 7.05078,5.11719 6.54297,5.11719 C4.73307,5.11719 3.1901,4.40104 1.91406,2.96875 C0.664062,1.52344 0.0390625,-0.195312 0.0390625,-2.1875 C0.0390625,-2.60417 0.078125,-3.02734 0.15625,-3.45703 C0.234375,-3.80859 0.332031,-4.19271 0.449219,-4.60938 C0.514323,-4.84375 0.690104,-5.22135 0.976562,-5.74219 C1.08073,-5.89844 1.19792,-6.09375 1.32812,-6.32812 C1.45833,-6.5625 1.54948,-6.71875 1.60156,-6.79688 C1.73177,-7.05729 1.98568,-7.40885 2.36328,-7.85156 C2.46745,-7.96875 2.57487,-8.09896 2.68555,-8.24219 C2.79622,-8.38542 2.89062,-8.5026 2.96875,-8.59375 C3.04688,-8.6849 3.10547,-8.75651 3.14453,-8.80859 C3.18359,-8.86068 3.47656,-9.20573 4.02344,-9.84375 C4.15365,-9.97396 4.2806,-10.1139 4.4043,-10.2637 C4.52799,-10.4134 4.62891,-10.5306 4.70703,-10.6152 C4.78516,-10.6999 4.84375,-10.7617 4.88281,-10.8008 C4.41406,-12.3503 4.12109,-13.5872 4.00391,-14.5117 C3.91276,-15.2539 3.86719,-16.2695 3.86719,-17.5586 C3.86719,-18.6914 4.1276,-19.7526 4.64844,-20.7422 C5.15625,-21.7708 5.86589,-22.6107 6.77734,-23.2617 C6.84245,-23.3008 6.90755,-23.3203 6.97266,-23.3203 C7.0638,-23.3203 7.12891,-23.3008 7.16797,-23.2617 C7.87109,-22.4154 8.47656,-21.3151 8.98438,-19.9609 C9.50521,-18.6068 9.76562,-17.3763 9.76562,-16.2695 C9.76562,-15.0195 9.46615,-13.8477 8.86719,-12.7539 C8.1901,-11.5951 7.31771,-10.3971 6.25,-9.16016 C6.52344,-8.30078 6.88802,-6.95312 7.34375,-5.11719 M9.00391,3.96484 C9.68099,3.71745 10.2083,3.29427 10.5859,2.69531 C11.0026,2.1224 11.2109,1.47786 11.2109,0.761719 C11.2109,-0.16276 10.8984,-0.983073 10.2734,-1.69922 C9.63542,-2.44141 8.82161,-2.85807 7.83203,-2.94922 C8.39193,-0.201823 8.78255,2.10286 9.00391,3.96484 M1.44531,-0.546875 C1.44531,0.742188 1.96615,1.875 3.00781,2.85156 C4.07552,3.80208 5.27344,4.27734 6.60156,4.27734 C7.14844,4.27734 7.68229,4.23828 8.20312,4.16016 C7.99479,2.18099 7.58464,-0.188802 6.97266,-2.94922 C6.23047,-2.87109 5.63802,-2.61068 5.19531,-2.16797 C4.76562,-1.71224 4.55078,-1.19792 4.55078,-0.625 C4.55078,0.364583 5.07812,1.16536 6.13281,1.77734 C6.22396,1.86849 6.26953,1.96615 6.26953,2.07031 C6.26953,2.17448 6.22396,2.27214 6.13281,2.36328 C6.05469,2.45443 5.95703,2.5 5.83984,2.5 C5.82682,2.5 5.76823,2.48698 5.66406,2.46094 C4.92188,2.05729 4.34896,1.53646 3.94531,0.898438 C3.56771,0.221354 3.37891,-0.46224 3.37891,-1.15234 C3.37891,-2.05078 3.65885,-2.86458 4.21875,-3.59375 C4.80469,-4.32292 5.56641,-4.79167 6.50391,-5 C6.13932,-6.45833 5.83984,-7.59766 5.60547,-8.41797 C5.39714,-8.18359 5.14648,-7.90039 4.85352,-7.56836 C4.56055,-7.23633 4.38802,-7.03776 4.33594,-6.97266 C3.86719,-6.36068 3.50911,-5.88542 3.26172,-5.54688 C2.81901,-4.9349 2.49349,-4.40755 2.28516,-3.96484 C2.0638,-3.47005 1.86849,-2.92969 1.69922,-2.34375 C1.52995,-1.78385 1.44531,-1.1849 1.44531,-0.546875 M7.96875,-20.4102 C6.99219,-19.9284 6.22396,-19.2383 5.66406,-18.3398 C5.09115,-17.4154 4.80469,-16.4193 4.80469,-15.3516 C4.80469,-14.4141 5.03906,-13.151 5.50781,-11.5625 C6.44531,-12.6953 7.14844,-13.7435 7.61719,-14.707 C8.11198,-15.7227 8.35938,-16.7839 8.35938,-17.8906 C8.35938,-18.724 8.22917,-19.5638 7.96875,-20.4102"/>
<path class="KeySig" transform="matrix(0.850394,0,0,0.850394,27.873,70.5893)" d="M4.31641,6.23047 C4.31641,6.47786 4.19271,6.60156 3.94531,6.60156 C3.69792,6.60156 3.57422,6.47786 3.57422,6.23047 L3.57422,3.33984 L1.91406,3.96484 L1.91406,7.12891 C1.91406,7.3763 1.79036,7.5 1.54297,7.5 C1.29557,7.5 1.17188,7.3763 1.17188,7.12891 L1.17188,4.21875 L0.546875,4.45312 C0.533854,4.46615 0.481771,4.47266 0.390625,4.47266 C0.286458,4.47266 0.195312,4.43359 0.117188,4.35547 C0.0390625,4.27734 0,4.1862 0,4.08203 L0,2.87109 C0,2.67578 0.0846354,2.55208 0.253906,2.5 L1.17188,2.1875 L1.17188,-1.01562 L0.546875,-0.800781 C0.533854,-0.78776 0.481771,-0.78125 0.390625,-0.78125 C0.286458,-0.78125 0.195312,-0.820312 0.117188,-0.898438 C0.0390625,-0.976562 0,-1.06771 0,-1.17188 L0,-2.38281 C0,-2.5651 0.0846354,-2.68229 0.253906,-2.73438 L1.17188,-3.08594 L1.17188,-6.23047 C1.17188,-6.47786 1.29557,-6.60156 1.54297,-6.60156 C1.79036,-6.60156 1.91406,-6.47786 1.91406,-6.23047 L1.91406,-3.33984 L3.57422,-3.96484 L3.57422,-7.12891 C3.57422,-7.3763 3.69792,-7.5 3.94531,-7.5 C4.19271,-7.5 4.31641,-7.3763 4.31641,-7.12891 L4.31641,-4.21875 L4.96094,-4.45312 C4.97396,-4.46615 5.01953,-4.47266 5.09766,-4.47266 C5.1888,-4.47266 5.28646,-4.43359 5.39062,-4.35547 C5.46875,-4.27734 5.50781,-4.1862 5.50781,-4.08203 L5.50781,-2.87109 C5.50781,-2.6888 5.41667,-2.5651 5.23438,-2.5 L4.31641,-2.1875 L4.31641,1.01562 L4.96094,0.800781 C4.97396,0.78776 5.01953,0.78125 5.09766,0.78125 C5.1888,0.78125 5.28646,0.820312 5.39062,0.898438 C5.46875,0.976562 5.50781,1.06771 5.50781,1.17188 L5.50781,2.38281 C5.50781,2.55208 5.41667,2.66927 5.23438,2.73438 L4.31641,3.08594 L4.31641,6.23047 M3.57422,-1.89453 L1.91406,-1.30859 L1.91406,1.89453 L3.57422,1.30859 L3.57422,-1.89453 "/>
<path class="KeySig" transform="matrix(0.850394,0,0,0.850394,23.621,64.2114)" d="M4.31641,6.23047 C4.31641,6.47786 4.19271,6.60156 3.94531,6.60156 C3.69792,6.60156 3.57422,6.47786 3.57422,6.23047 L3.57422,3.33984 L1.91406,3.96484 L1.91406,7.12891 C1.91406,7.3763 1.79036,7.5 1.54297,7.5 C1.29557,7.5 1.17188,7.3763 1.17188,7.12891 L1.17188,4.21875 L0.546875,4.45312 C0.533854,4.46615 0.481771,4.47266 0.390625,4.47266 C0.286458,4.47266 0.195312,4.43359 0.117188,4.35547 C0.0390625,4.27734 0,4.1862 0,4.08203 L0,2.87109 C0,2.67578 0.0846354,2.55208 0.253906,2.5 L1.17188,2.1875 L1.17188,-1.01562 L0.546875,-0.800781 C0.533854,-0.78776 0.481771,-0.78125 0.390625,-0.78125 C0.286458,-0.78125 0.195312,-0.820312 0.117188,-0.898438 C0.0390625,-0.976562 0,-1.06771 0,-1.17188 L0,-2.38281 C0,-2.5651 0.0846354,-2.68229 0.253906,-2.73438 L1.17188,-3.08594 L1.17188,-6.23047 C1.17188,-6.47786 1.29557,-6.60156 1.54297,-6.60156 C1.79036,-6.60156 1.91406,-6.47786 1.91406,-6.23047 L1.91406,-3.33984 L3.57422,-3.96484 L3.57422,-7.12891 C3.57422,-7.3763 3.69792,-7.5 3.94531,-7.5 C4.19271,-7.5 4.31641,-7.3763 4.31641,-7.12891 L4.31641,-4.21875 L4.96094,-4.45312 C4.97396,-4.46615 5.01953,-4.47266 5.09766,-4.47266 C5.1888,-4.47266 5.28646,-4.43359 5.39062,-4.35547 C5.46875,-4.27734 5.50781,-4.1862 5.50781,-4.08203 L5.50781,-2.87109 C5.50781,-2.6888 5.41667,-2.5651 5.23438,-2.5 L4.31641,-2.1875 L4.31641,1.01562 L4.96094,0.800781 C4.97396,0.78776 5.01953,0.78125 5.09766,0.78125 C5.1888,0.78125 5.28646,0.820312 5.39062,0.898438 C5.46875,0.976562 5.50781,1.06771 5.50781,1.17188 L5.50781,2.38281 C5.50781,2.55208 5.41667,2.66927 5.23438,2.73438 L4.31641,3.08594 L4.31641,6.23047 M3.57422,-1.89453 L1.91406,-1.30859 L1.91406,1.89453 L3.57422,1.30859 L3.57422,-1.89453 "/>
<path class="KeySig" transform="matrix(0.850394,0,0,0.850394,27.873,28.0696)" d="M4.31641,6.23047 C4.31641,6.47786 4.19271,6.60156 3.94531,6.60156 C3.69792,6.60156 3.57422,6.47786 3.57422,6.23047 L3.57422,3.33984 L1.91406,3.96484 L1.91406,7.12891 C1.91406,7.3763 1.79036,7.5 1.54297,7.5 C1.29557,7.5 1.17188,7.3763 1.17188,7.12891 L1.17188,4.21875 L0.546875,4.45312 C0.533854,4.46615 0.481771,4.47266 0.390625,4.47266 C0.286458,4.47266 0.195312,4.43359 0.117188,4.35547 C0.0390625,4.27734 0,4.1862 0,4.08203 L0,2.87109 C0,2.67578 0.0846354,2.55208 0.253906,2.5 L1.17188,2.1875 L1.17188,-1.01562 L0.546875,-0.800781 C0.533854,-0.78776 0.481771,-0.78125 0.390625,-0.78125 C0.286458,-0.78125 0.195312,-0.820312 0.117188,-0.898438 C0.0390625,-0.976562 0,-1.06771 0,-1.17188 L0,-2.38281 C0,-2.5651 0.0846354,-2.68229 0.253906,-2.73438 L1.17188,-3.08594 L1.17188,-6.23047 C1.17188,-6.47786 1.29557,-6.60156 1.54297,-6.60156 C1.79036,-6.60156 1.91406,-6.47786 1.91406,-6.23047 L1.91406,-3.33984 L3.57422,-3.96484 L3.57422,-7.12891 C3.57422,-7.3763 3.69792,-7.5 3.94531,-7.5 C4.19271,-7.5 4.31641,-7.3763 4.31641,-7.12891 L4.31641,-4.21875 L4.96094,-4.45312 C4.97396,-4.46615 5.01953,-4.47266 5.09766,-4.47266 C5.1888,-4.47266 5.28646,-4.43359 5.39062,-4.35547 C5.46875,-4.27734 5.50781,-4.1862 5.50781,-4.08203 L5.50781,-2.87109 C5.50781,-2.6888 5.41667,-2.5651 5.23438,-2.5 L4.31641,-2.1875 L4.31641,1.01562 L4.96094,0.800781 C4.97396,0.78776 5.01953,0.78125 5.09766,0.78125 C5.1888,0.78125 5.28646,0.820312 5.39062,0.898438 C5.46875,0.976562 5.50781,1.06771 5.50781,1.17188 L5.50781,2.38281 C5.50781,2.55208 5.41667,2.66927 5.23438,2.73438 L4.31641,3.08594 L4.31641,6.23047 M3.57422,-1.89453 L1.91406,-1.30859 L1.91406,1.89453 L3.57422,1.30859 L3.57422,-1.89453 "/>
<path class="KeySig" transform="matrix(0.850394,0,0,0.850394,23.621,21.6917)" d="M4.31641,6.23047 C4.31641,6.47786 4.19271,6.60156 3.94531,6.60156 C3.69792,6.60156 3.57422,6.47786 3.57422,6.23047 L3.57422,3.33984 L1.91406,3.96484 L1.91406,7.12891 C1.91406,7.3763 1.79036,7.5 1.54297,7.5 C1.29557,7.5 1.17188,7.3763 1.17188,7.12891 L1.17188,4.21875 L0.546875,4.45312 C0.533854,4.46615 0.481771,4.47266 0.390625,4.47266 C0.286458,4.47266 0.195312,4.43359 0.117188,4.35547 C0.0390625,4.27734 0,4.1862 0,4.08203 L0,2.87109 C0,2.67578 0.0846354,2.55208 0.253906,2.5 L1.17188,2.1875 L1.17188,-1.01562 L0.546875,-0.800781 C0.533854,-0.78776 0.481771,-0.78125 0.390625,-0.78125 C0.286458,-0.78125 0.195312,-0.820312 0.117188,-0.898438 C0.0390625,-0.976562 0,-1.06771 0,-1.17188 L0,-2.38281 C0,-2.5651 0.0846354,-2.68229 0.253906,-2.73438 L1.17188,-3.08594 L1.17188,-6.23047 C1.17188,-6.47786 1.29557,-6.60156 1.54297,-6.60156 C1.79036,-6.60156 1.91406,-6.47786 1.91406,-6.23047 L1.91406,-3.33984 L3.57422,-3.96484 L3.57422,-7.12891 C3.57422,-7.3763 3.69792,-7.5 3.94531,-7.5 C4.19271,-7.5 4.31641,-7.3763 4.31641,-7.12891 L4.31641,-4.21875 L4.96094,-4.45312 C4.97396,-4.46615 5.01953,-4.47266 5.09766,-4.47266 C5.1888,-4.47266 5.28646,-4.43359 5.39062,-4.35547 C5.46875,-4.27734 5.50781,-4.1862 5.50781,-4.08203 L5.50781,-2.87109 C5.50781,-2.6888 5.41667,-2.5651 5.23438,-2.5 L4.31641,-2.1875 L4.31641,1.01562 L4.96094,0.800781 C4.97396,0.78776 5.01953,0.78125 5.09766,0.78125 C5.1888,0.78125 5.28646,0.820312 5.39062,0.898438 C5.46875,0.976562 5.50781,1.06771 5.50781,1.17188 L5.50781,2.38281 C5.50781,2.55208 5.41667,2.66927 5.23438,2.73438 L4.31641,3.08594 L4.31641,6.23047 M3.57422,-1.89453 L1.91406,-1.30859 L1.91406,1.89453 L3.57422,1.30859 L3.57422,-1.89453 "/>
<path class="Rest" transform="matrix(0.850394,0,0,0.850394,260.485,68.4633)" d="M7.30469,0 L0.195312,0 C0.0651042,0 0,-0.0651042 0,-0.195312 L0,-2.92969 C0,-3.0599 0.0651042,-3.125 0.195312,-3.125 L7.30469,-3.125 C7.4349,-3.125 7.5,-3.0599 7.5,-2.92969 L7.5,-0.195312 C7.5,-0.0651042 7.4349,0 7.30469,0"/>
<path class="Rest" transform="matrix(0.850394,0,0,0.850394,260.485,30.1956)" d="M7.30469,0 L0.195312,0 C0.0651042,0 0,-0.0651042 0,-0.195312 L0,-2.92969 C0,-3.0599 0.0651042,-3.125 0.195312,-3.125 L7.30469,-3.125 C7.4349,-3.125 7.5,-3.0599 7.5,-2.92969 L7.5,-0.195312 C7.5,-0.0651042 7.4349,0 7.30469,0"/>
<path class="Rest" transform="matrix(0.850394,0,0,0.850394,182.779,68.4633)" d="M7.30469,0 L0.195312,0 C0.0651042,0 0,-0.0651042 0,-0.195312 L0,-2.92969 C0,-3.0599 0.0651042,-3.125 0.195312,-3.125 L7.30469,-3.125 C7.4349,-3.125 7.5,-3.0599 7.5,-2.92969 L7.5,-0.195312 C7.5,-0.0651042 7.4349,0 7.30469,0"/>
<path class="Rest" transform="matrix(0.850394,0,0,0.850394,182.779,30.1956)" d="M7.30469,0 L0.195312,0 C0.0651042,0 0,-0.0651042 0,-0.195312 L0,-2.92969 C0,-3.0599 0.0651042,-3.125 0.195312,-3.125 L7.30469,-3.125 C7.4349,-3.125 7.5,-3.0599 7.5,-2.92969 L7.5,-0.195312 C7.5,-0.0651042 7.4349,0 7.30469,0"/>
<path class="Rest" transform="matrix(0.850394,0,0,0.850394,157.183,68.4633)" d="M-0.117188,-1.5625 C-0.117188,-1.79688 0.0130208,-2.05729 0.273438,-2.34375 C0.46875,-2.55208 0.755208,-2.79948 1.13281,-3.08594 C1.41927,-3.28125 1.69922,-3.57422 1.97266,-3.96484 C2.23307,-4.34245 2.36328,-4.7526 2.36328,-5.19531 C2.36328,-5.71615 2.19401,-6.17839 1.85547,-6.58203 L1.15234,-7.42188 C1.10026,-7.47396 1.07422,-7.53906 1.07422,-7.61719 C1.07422,-7.69531 1.11328,-7.76693 1.19141,-7.83203 C1.28255,-7.89714 1.36068,-7.92969 1.42578,-7.92969 C1.51693,-7.92969 1.58854,-7.89062 1.64062,-7.8125 L4.66797,-4.21875 C4.79818,-4.04948 4.86328,-3.88021 4.86328,-3.71094 C4.86328,-3.47656 4.73307,-3.21615 4.47266,-2.92969 C4.30339,-2.7474 4.02344,-2.5 3.63281,-2.1875 C3.33333,-2.00521 3.04688,-1.71224 2.77344,-1.30859 C2.51302,-0.93099 2.38281,-0.520833 2.38281,-0.078125 C2.38281,0.46875 2.53906,0.93099 2.85156,1.30859 L4.53125,3.28125 C4.57031,3.32031 4.60286,3.38542 4.62891,3.47656 C4.62891,3.56771 4.59635,3.64583 4.53125,3.71094 C4.4401,3.77604 4.36198,3.80859 4.29688,3.80859 C4.27083,3.80859 4.16667,3.73698 3.98438,3.59375 C3.78906,3.4375 3.52865,3.28776 3.20312,3.14453 C2.83854,3.0013 2.48047,2.92969 2.12891,2.92969 C1.80339,2.92969 1.53646,3.02083 1.32812,3.20312 C1.14583,3.38542 1.05469,3.73698 1.05469,4.25781 C1.05469,5.05208 1.24349,5.67708 1.62109,6.13281 C1.66016,6.1849 1.66667,6.25 1.64062,6.32812 C1.61458,6.38021 1.56901,6.40625 1.50391,6.40625 C1.41276,6.40625 1.21094,6.17188 0.898438,5.70312 C0.572917,5.20833 0.266927,4.64193 -0.0195312,4.00391 C-0.31901,3.32682 -0.46875,2.76693 -0.46875,2.32422 C-0.46875,1.76432 -0.201823,1.48438 0.332031,1.48438 C0.94401,1.48438 1.73828,1.69271 2.71484,2.10938 L0.078125,-1.05469 C-0.0520833,-1.22396 -0.117188,-1.39323 -0.117188,-1.5625"/>
<path class="Rest" transform="matrix(0.850394,0,0,0.850394,157.183,30.1956)" d="M-0.117188,-1.5625 C-0.117188,-1.79688 0.0130208,-2.05729 0.273438,-2.34375 C0.46875,-2.55208 0.755208,-2.79948 1.13281,-3.08594 C1.41927,-3.28125 1.69922,-3.57422 1.97266,-3.96484 C2.23307,-4.34245 2.36328,-4.7526 2.36328,-5.19531 C2.36328,-5.71615 2.19401,-6.17839 1.85547,-6.58203 L1.15234,-7.42188 C1.10026,-7.47396 1.07422,-7.53906 1.07422,-7.61719 C1.07422,-7.69531 1.11328,-7.76693 1.19141,-7.83203 C1.28255,-7.89714 1.36068,-7.92969 1.42578,-7.92969 C1.51693,-7.92969 1.58854,-7.89062 1.64062,-7.8125 L4.66797,-4.21875 C4.79818,-4.04948 4.86328,-3.88021 4.86328,-3.71094 C4.86328,-3.47656 4.73307,-3.21615 4.47266,-2.92969 C4.30339,-2.7474 4.02344,-2.5 3.63281,-2.1875 C3.33333,-2.00521 3.04688,-1.71224 2.77344,-1.30859 C2.51302,-0.93099 2.38281,-0.520833 2.38281,-0.078125 C2.38281,0.46875 2.53906,0.93099 2.85156,1.30859 L4.53125,3.28125 C4.57031,3.32031 4.60286,3.38542 4.62891,3.47656 C4.62891,3.56771 4.59635,3.64583 4.53125,3.71094 C4.4401,3.77604 4.36198,3.80859 4.29688,3.80859 C4.27083,3.80859 4.16667,3.73698 3.98438,3.59375 C3.78906,3.4375 3.52865,3.28776 3.20312,3.14453 C2.83854,3.0013 2.48047,2.92969 2.12891,2.92969 C1.80339,2.92969 1.53646,3.02083 1.32812,3.20312 C1.14583,3.38542 1.05469,3.73698 1.05469,4.25781 C1.05469,5.05208 1.24349,5.67708 1.62109,6.13281 C1.66016,6.1849 1.66667,6.25 1.64062,6.32812 C1.61458,6.38021 1.56901,6.40625 1.50391,6.40625 C1.41276,6.40625 1.21094,6.17188 0.898438,5.70312 C0.572917,5.20833 0.266927,4.64193 -0.0195312,4.00391 C-0.31901,3.32682 -0.46875,2.76693 -0.46875,2.32422 C-0.46875,1.76432 -0.201823,1.48438 0.332031,1.48438 C0.94401,1.48438 1.73828,1.69271 2.71484,2.10938 L0.078125,-1.05469 C-0.0520833,-1.22396 -0.117188,-1.39323 -0.117188,-1.5625"/>
<path class="Rest" transform="matrix(0.850394,0,0,0.850394,138.567,68.4633)" d="M1.40625,-4.10156 C1.78385,-4.10156 2.07031,-3.9974 2.26562,-3.78906 C2.46094,-3.55469 2.5651,-3.33333 2.57812,-3.125 C2.60417,-2.92969 2.66927,-2.70833 2.77344,-2.46094 C2.89062,-2.2526 3.04036,-2.14844 3.22266,-2.14844 C3.36589,-2.14844 3.58073,-2.3112 3.86719,-2.63672 C4.1276,-2.92318 4.31641,-3.17708 4.43359,-3.39844 C4.4987,-3.52865 4.58984,-3.59375 4.70703,-3.59375 L4.72656,-3.59375 C4.85677,-3.58073 4.94792,-3.51562 5,-3.39844 L2.53906,5 C2.40885,5.13021 2.22656,5.19531 1.99219,5.19531 C1.75781,5.19531 1.57552,5.13021 1.44531,5 L3.78906,-1.52344 C2.95573,-1.22396 2.2526,-1.07422 1.67969,-1.07422 C1.21094,-1.07422 0.807292,-1.22396 0.46875,-1.52344 C0.117188,-1.8099 -0.0585938,-2.1875 -0.0585938,-2.65625 C-0.0585938,-3.0599 0.0846354,-3.39844 0.371094,-3.67188 C0.657552,-3.95833 1.0026,-4.10156 1.40625,-4.10156"/>
<path class="Rest" transform="matrix(0.850394,0,0,0.850394,138.567,30.1956)" d="M1.40625,-4.10156 C1.78385,-4.10156 2.07031,-3.9974 2.26562,-3.78906 C2.46094,-3.55469 2.5651,-3.33333 2.57812,-3.125 C2.60417,-2.92969 2.66927,-2.70833 2.77344,-2.46094 C2.89062,-2.2526 3.04036,-2.14844 3.22266,-2.14844 C3.36589,-2.14844 3.58073,-2.3112 3.86719,-2.63672 C4.1276,-2.92318 4.31641,-3.17708 4.43359,-3.39844 C4.4987,-3.52865 4.58984,-3.59375 4.70703,-3.59375 L4.72656,-3.59375 C4.85677,-3.58073 4.94792,-3.51562 5,-3.39844 L2.53906,5 C2.40885,5.13021 2.22656,5.19531 1.99219,5.19531 C1.75781,5.19531 1.57552,5.13021 1.44531,5 L3.78906,-1.52344 C2.95573,-1.22396 2.2526,-1.07422 1.67969,-1.07422 C1.21094,-1.07422 0.807292,-1.22396 0.46875,-1.52344 C0.117188,-1.8099 -0.0585938,-2.1875 -0.0585938,-2.65625 C-0.0585938,-3.0599 0.0846354,-3.39844 0.371094,-3.67188 C0.657552,-3.95833 1.0026,-4.10156 1.40625,-4.10156"/>
<path class="Rest" transform="matrix(0.850394,0,0,0.850394,126.932,68.4633)" d="M2.5,-4.10156 C2.89062,-4.10156 3.17057,-3.9974 3.33984,-3.78906 C3.52214,-3.56771 3.63281,-3.34635 3.67188,-3.125 C3.6849,-2.90365 3.75,-2.68229 3.86719,-2.46094 C3.94531,-2.2526 4.08854,-2.14844 4.29688,-2.14844 C4.42708,-2.14844 4.6224,-2.30469 4.88281,-2.61719 C5.18229,-2.98177 5.37109,-3.24219 5.44922,-3.39844 C5.51432,-3.52865 5.60547,-3.59375 5.72266,-3.59375 C5.72266,-3.59375 5.72917,-3.59375 5.74219,-3.59375 C5.85938,-3.58073 5.94401,-3.51562 5.99609,-3.39844 L2.42188,10 C2.29167,10.1302 2.10938,10.1953 1.875,10.1953 C1.64062,10.1953 1.45833,10.1302 1.32812,10 L3.33984,3.45703 C2.46745,3.76953 1.75781,3.92578 1.21094,3.92578 C0.742188,3.92578 0.338542,3.77604 0,3.47656 C-0.351562,3.1901 -0.527344,2.8125 -0.527344,2.34375 C-0.527344,1.9401 -0.390625,1.60156 -0.117188,1.32812 C0.169271,1.04167 0.514323,0.898438 0.917969,0.898438 C1.30859,0.898438 1.58854,1.0026 1.75781,1.21094 C1.95312,1.43229 2.07031,1.65365 2.10938,1.875 C2.14844,2.13542 2.21354,2.35677 2.30469,2.53906 C2.39583,2.7474 2.53906,2.85156 2.73438,2.85156 C2.89062,2.85156 3.11198,2.66927 3.39844,2.30469 C3.69792,1.96615 3.88021,1.69922 3.94531,1.50391 L4.86328,-1.52344 C4.02995,-1.22396 3.33333,-1.07422 2.77344,-1.07422 C2.30469,-1.07422 1.90104,-1.22396 1.5625,-1.52344 C1.21094,-1.8099 1.03516,-2.1875 1.03516,-2.65625 C1.03516,-3.0599 1.17839,-3.39844 1.46484,-3.67188 C1.7513,-3.95833 2.09635,-4.10156 2.5,-4.10156"/>
<path class="Rest" transform="matrix(0.850394,0,0,0.850394,126.932,30.1956)" d="M2.5,-4.10156 C2.89062,-4.10156 3.17057,-3.9974 3.33984,-3.78906 C3.52214,-3.56771 3.63281,-3.34635 3.67188,-3.125 C3.6849,-2.90365 3.75,-2.68229 3.86719,-2.46094 C3.94531,-2.2526 4.08854,-2.14844 4.29688,-2.14844 C4.42708,-2.14844 4.6224,-2.30469 4.88281,-2.61719 C5.18229,-2.98177 5.37109,-3.24219 5.44922,-3.39844 C5.51432,-3.52865 5.60547,-3.59375 5.72266,-3.59375 C5.72266,-3.59375 5.72917,-3.59375 5.74219,-3.59375 C5.85938,-3.58073 5.94401,-3.51562 5.99609,-3.39844 L2.42188,10 C2.29167,10.1302 2.10938,10.1953 1.875,10.1953 C1.64062,10.1953 1.45833,10.1302 1.32812,10 L3.33984,3.45703 C2.46745,3.76953 1.75781,3.92578 1.21094,3.92578 C0.742188,3.92578 0.338542,3.77604 0,3.47656 C-0.351562,3.1901 -0.527344,2.8125 -0.527344,2.34375 C-0.527344,1.9401 -0.390625,1.60156 -0.117188,1.32812 C0.169271,1.04167 0.514323,0.898438 0.917969,0.898438 C1.30859,0.898438 1.58854,1.0026 1.75781,1.21094 C1.95312,1.43229 2.07031,1.65365 2.10938,1.875 C2.14844,2.13542 2.21354,2.35677 2.30469,2.53906 C2.39583,2.7474 2.53906,2.85156 2.73438,2.85156 C2.89062,2.85156 3.11198,2.66927 3.39844,2.30469 C3.69792,1.96615 3.88021,1.69922 3.94531,1.50391 L4.86328,-1.52344 C4.02995,-1.22396 3.33333,-1.07422 2.77344,-1.07422 C2.30469,-1.07422 1.90104,-1.22396 1.5625,-1.52344 C1.21094,-1.8099 1.03516,-2.1875 1.03516,-2.65625 C1.03516,-3.0599 1.17839,-3.39844 1.46484,-3.67188 C1.7513,-3.95833 2.09635,-4.10156 2.5,-4.10156"/>
<path class="Articulation" transform="matrix(0.850394,0,0,0.850394,115.971,89.7232)" d="M4.74609,0 C4.91536,0 5,0.078125 5,0.234375 C5,0.299479 4.99349,0.338542 4.98047,0.351562 L2.71484,5.35156 C2.67578,5.45573 2.60417,5.50781 2.5,5.50781 C2.39583,5.50781 2.32422,5.45573 2.28516,5.35156 L0.0195312,0.351562 C0.00651042,0.338542 0,0.299479 0,0.234375 C0,0.078125 0.0846354,0 0.253906,0 L1.58203,0 C1.6862,0 1.76432,0.0455729 1.81641,0.136719 L3.18359,3.14453 L4.51172,0.136719 C4.5638,0.0455729 4.64193,0 4.74609,0"/>
<path class="Articulation" transform="matrix(0.850394,0,0,0.850394,115.971,4.68381)" d="M0.253906,0 C0.0846354,0 0,-0.078125 0,-0.234375 C0,-0.299479 0.00651042,-0.338542 0.0195312,-0.351562 L2.28516,-5.35156 C2.32422,-5.45573 2.39583,-5.50781 2.5,-5.50781 C2.60417,-5.48177 2.67578,-5.42969 2.71484,-5.35156 L4.98047,-0.351562 C4.99349,-0.338542 5,-0.299479 5,-0.234375 C5,-0.078125 4.91536,0 4.74609,0 L3.41797,0 C3.3138,0 3.23568,-0.0455729 3.18359,-0.136719 L1.81641,-3.14453 L0.488281,-0.136719 C0.436198,-0.0455729 0.358073,0 0.253906,0"/>
<path class="Dynamic" d="M216.176,91.8151 L216.176,91.7851 C216.189,91.7651 216.204,91.7351 216.221,91.6951 C216.238,91.6551 216.249,91.6085 216.256,91.5551 C216.403,91.1285 216.626,90.7118 216.926,90.3051 C217.299,89.7585 217.726,89.4885 218.206,89.4951 C218.406,89.4951 218.563,89.5751 218.676,89.7351 C218.783,89.8818 218.846,90.0718 218.866,90.3051 C219.219,89.7585 219.619,89.4885 220.066,89.4951 C220.246,89.4951 220.406,89.5751 220.546,89.7351 C220.673,89.9151 220.746,90.1185 220.766,90.3451 C221.106,89.7718 221.496,89.4885 221.936,89.4951 C222.169,89.4951 222.383,89.5968 222.576,89.8001 C222.769,90.0035 222.859,90.2385 222.846,90.5051 C222.846,90.5451 222.836,90.6185 222.816,90.7251 L222.286,92.9851 C222.273,92.9985 222.269,93.0185 222.276,93.0451 C222.276,93.1318 222.306,93.1751 222.366,93.1751 C222.473,93.1751 222.639,93.0885 222.866,92.9151 L223.216,92.6451 C223.283,92.6451 223.316,92.6718 223.316,92.7251 C223.316,92.7651 223.299,92.8018 223.266,92.8351 C222.773,93.3018 222.443,93.5918 222.276,93.7051 C221.969,93.9318 221.676,94.0418 221.396,94.0351 C221.223,94.0351 221.106,93.9885 221.046,93.8951 C220.953,93.8218 220.903,93.7151 220.896,93.5751 C220.896,93.5218 220.903,93.4685 220.916,93.4151 L221.486,90.9351 C221.506,90.8685 221.519,90.7985 221.526,90.7251 C221.526,90.5318 221.473,90.4351 221.366,90.4351 C221.226,90.4351 221.096,90.4885 220.976,90.5951 C220.836,90.7018 220.756,90.8151 220.736,90.9351 L219.906,93.8151 C219.873,93.9218 219.809,93.9751 219.716,93.9751 L218.846,93.9751 C218.739,93.9751 218.703,93.9218 218.736,93.8151 L219.556,90.9351 C219.589,90.8418 219.606,90.7618 219.606,90.6951 C219.606,90.5218 219.539,90.4351 219.406,90.4351 C219.266,90.4351 219.146,90.4885 219.046,90.5951 C218.926,90.6818 218.839,90.7951 218.786,90.9351 L217.806,93.8151 C217.773,93.9218 217.706,93.9751 217.606,93.9751 L216.736,93.9751 C216.643,93.9751 216.616,93.9218 216.656,93.8151 L217.636,90.9351 C217.669,90.8151 217.686,90.7385 217.686,90.7051 C217.686,90.5251 217.609,90.4351 217.456,90.4351 C217.243,90.4351 217.056,90.5785 216.896,90.8651 C216.716,91.1318 216.579,91.4318 216.486,91.7651 C216.453,91.8585 216.383,91.9051 216.276,91.9051 C216.209,91.8851 216.176,91.8551 216.176,91.8151 M226.351,89.7451 L225.551,92.3251 C225.278,93.2518 224.814,94.1485 224.161,95.0151 C223.501,95.8885 222.828,96.3251 222.141,96.3251 C221.781,96.3251 221.464,96.2318 221.191,96.0451 C220.918,95.8585 220.781,95.6151 220.781,95.3151 C220.781,94.9751 220.854,94.6885 221.001,94.4551 C221.148,94.2285 221.348,94.1085 221.601,94.0951 C221.794,94.0951 221.956,94.1651 222.086,94.3051 C222.216,94.4451 222.281,94.6051 222.281,94.7851 C222.281,94.9451 222.188,95.0951 222.001,95.2351 C221.801,95.3618 221.698,95.5018 221.691,95.6551 C221.691,95.7618 221.808,95.8151 222.041,95.8151 L222.141,95.8151 C222.194,95.8151 222.274,95.8018 222.381,95.7751 C222.434,95.7618 222.504,95.7251 222.591,95.6651 C222.591,95.6651 222.644,95.6218 222.751,95.5351 C222.824,95.4418 222.868,95.3751 222.881,95.3351 C222.921,95.2485 222.951,95.1785 222.971,95.1251 C223.004,95.0851 223.038,94.9951 223.071,94.8551 C223.084,94.8218 223.096,94.7835 223.106,94.7401 C223.116,94.6968 223.126,94.6668 223.136,94.6501 C223.146,94.6335 223.151,94.6218 223.151,94.6151 C223.191,94.4418 223.218,94.3385 223.231,94.3051 C223.271,94.1318 223.291,94.0418 223.291,94.0351 L224.361,89.7451 L223.531,89.7451 C223.458,89.7451 223.401,89.7185 223.361,89.6651 C223.321,89.5985 223.301,89.5351 223.301,89.4751 C223.301,89.4085 223.321,89.3485 223.361,89.2951 C223.434,89.2418 223.491,89.2151 223.531,89.2151 L224.511,89.2151 C224.778,88.4018 225.224,87.6985 225.851,87.1051 C226.471,86.4985 227.138,86.1951 227.851,86.1951 C228.231,86.1951 228.548,86.2918 228.801,86.4851 C229.068,86.6651 229.204,86.9051 229.211,87.2051 C229.211,87.5251 229.141,87.8085 229.001,88.0551 C228.841,88.2818 228.641,88.4018 228.401,88.4151 C228.208,88.4151 228.044,88.3468 227.911,88.2101 C227.778,88.0735 227.711,87.9151 227.711,87.7351 C227.711,87.5751 227.813,87.4301 228.016,87.3001 C228.219,87.1701 228.314,87.0251 228.301,86.8651 C228.301,86.7451 228.188,86.6885 227.961,86.6951 L227.921,86.6951 C227.901,86.7085 227.878,86.7118 227.851,86.7051 C227.658,86.7051 227.494,86.7551 227.361,86.8551 C227.234,86.9418 227.114,87.0951 227.001,87.3151 C226.968,87.3818 226.939,87.4435 226.916,87.5001 C226.893,87.5568 226.868,87.6235 226.841,87.7001 C226.814,87.7768 226.794,87.8285 226.781,87.8551 C226.768,87.9085 226.748,88.0151 226.721,88.1751 C226.694,88.3351 226.668,88.4685 226.641,88.5751 C226.568,88.9085 226.518,89.1218 226.491,89.2151 L227.391,89.2151 C227.464,89.2151 227.528,89.2401 227.581,89.2901 C227.634,89.3401 227.661,89.4018 227.661,89.4751 C227.661,89.5485 227.634,89.6118 227.581,89.6651 C227.528,89.7185 227.464,89.7451 227.391,89.7451 L226.351,89.7451 "/>
<path class="Dynamic" d="M216.176,91.8151 L216.176,91.7851 C216.189,91.7651 216.204,91.7351 216.221,91.6951 C216.238,91.6551 216.249,91.6085 216.256,91.5551 C216.403,91.1285 216.626,90.7118 216.926,90.3051 C217.299,89.7585 217.726,89.4885 218.206,89.4951 C218.406,89.4951 218.563,89.5751 218.676,89.7351 C218.783,89.8818 218.846,90.0718 218.866,90.3051 C219.219,89.7585 219.619,89.4885 220.066,89.4951 C220.246,89.4951 220.406,89.5751 220.546,89.7351 C220.673,89.9151 220.746,90.1185 220.766,90.3451 C221.106,89.7718 221.496,89.4885 221.936,89.4951 C222.169,89.4951 222.383,89.5968 222.576,89.8001 C222.769,90.0035 222.859,90.2385 222.846,90.5051 C222.846,90.5451 222.836,90.6185 222.816,90.7251 L222.286,92.9851 C222.273,92.9985 222.269,93.0185 222.276,93.0451 C222.276,93.1318 222.306,93.1751 222.366,93.1751 C222.473,93.1751 222.639,93.0885 222.866,92.9151 L223.216,92.6451 C223.283,92.6451 223.316,92.6718 223.316,92.7251 C223.316,92.7651 223.299,92.8018 223.266,92.8351 C222.773,93.3018 222.443,93.5918 222.276,93.7051 C221.969,93.9318 221.676,94.0418 221.396,94.0351 C221.223,94.0351 221.106,93.9885 221.046,93.8951 C220.953,93.8218 220.903,93.7151 220.896,93.5751 C220.896,93.5218 220.903,93.4685 220.916,93.4151 L221.486,90.9351 C221.506,90.8685 221.519,90.7985 221.526,90.7251 C221.526,90.5318 221.473,90.4351 221.366,90.4351 C221.226,90.4351 221.096,90.4885 220.976,90.5951 C220.836,90.7018 220.756,90.8151 220.736,90.9351 L219.906,93.8151 C219.873,93.9218 219.809,93.9751 219.716,93.9751 L218.846,93.9751 C218.739,93.9751 218.703,93.9218 218.736,93.8151 L219.556,90.9351 C219.589,90.8418 219.606,90.7618 219.606,90.6951 C219.606,90.5218 219.539,90.4351 219.406,90.4351 C219.266,90.4351 219.146,90.4885 219.046,90.5951 C218.926,90.6818 218.839,90.7951 218.786,90.9351 L217.806,93.8151 C217.773,93.9218 217.706,93.9751 217.606,93.9751 L216.736,93.9751 C216.643,93.9751 216.616,93.9218 216.656,93.8151 L217.636,90.9351 C217.669,90.8151 217.686,90.7385 217.686,90.7051 C217.686,90.5251 217.609,90.4351 217.456,90.4351 C217.243,90.4351 217.056,90.5785 216.896,90.8651 C216.716,91.1318 216.579,91.4318 216.486,91.7651 C216.453,91.8585 216.383,91.9051 216.276,91.9051 C216.209,91.8851 216.176,91.8551 216.176,91.8151 M226.351,89.7451 L225.551,92.3251 C225.278,93.2518 224.814,94.1485 224.161,95.0151 C223.501,95.8885 222.828,96.3251 222.141,96.3251 C221.781,96.3251 221.464,96.2318 221.191,96.0451 C220.918,95.8585 220.781,95.6151 220.781,95.3151 C220.781,94.9751 220.854,94.6885 221.001,94.4551 C221.148,94.2285 221.348,94.1085 221.601,94.0951 C221.794,94.0951 221.956,94.1651 222.086,94.3051 C222.216,94.4451 222.281,94.6051 222.281,94.7851 C222.281,94.9451 222.188,95.0951 222.001,95.2351 C221.801,95.3618 221.698,95.5018 221.691,95.6551 C221.691,95.7618 221.808,95.8151 222.041,95.8151 L222.141,95.8151 C222.194,95.8151 222.274,95.8018 222.381,95.7751 C222.434,95.7618 222.504,95.7251 222.591,95.6651 C222.591,95.6651 222.644,95.6218 222.751,95.5351 C222.824,95.4418 222.868,95.3751 222.881,95.3351 C222.921,95.2485 222.951,95.1785 222.971,95.1251 C223.004,95.0851 223.038,94.9951 223.071,94.8551 C223.084,94.8218 223.096,94.7835 223.106,94.7401 C223.116,94.6968 223.126,94.6668 223.136,94.6501 C223.146,94.6335 223.151,94.6218 223.151,94.6151 C223.191,94.4418 223.218,94.3385 223.231,94.3051 C223.271,94.1318 223.291,94.0418 223.291,94.0351 L224.361,89.7451 L223.531,89.7451 C223.458,89.7451 223.401,89.7185 223.361,89.6651 C223.321,89.5985 223.301,89.5351 223.301,89.4751 C223.301,89.4085 223.321,89.3485 223.361,89.2951 C223.434,89.2418 223.491,89.2151 223.531,89.2151 L224.511,89.2151 C224.778,88.4018 225.224,87.6985 225.851,87.1051 C226.471,86.4985 227.138,86.1951 227.851,86.1951 C228.231,86.1951 228.548,86.2918 228.801,86.4851 C229.068,86.6651 229.204,86.9051 229.211,87.2051 C229.211,87.5251 229.141,87.8085 229.001,88.0551 C228.841,88.2818 228.641,88.4018 228.401,88.4151 C228.208,88.4151 228.044,88.3468 227.911,88.2101 C227.778,88.0735 227.711,87.9151 227.711,87.7351 C227.711,87.5751 227.813,87.4301 228.016,87.3001 C228.219,87.1701 228.314,87.0251 228.301,86.8651 C228.301,86.7451 228.188,86.6885 227.961,86.6951 L227.921,86.6951 C227.901,86.7085 227.878,86.7118 227.851,86.7051 C227.658,86.7051 227.494,86.7551 227.361,86.8551 C227.234,86.9418 227.114,87.0951 227.001,87.3151 C226.968,87.3818 226.939,87.4435 226.916,87.5001 C226.893,87.5568 226.868,87.6235 226.841,87.7001 C226.814,87.7768 226.794,87.8285 226.781,87.8551 C226.768,87.9085 226.748,88.0151 226.721,88.1751 C226.694,88.3351 226.668,88.4685 226.641,88.5751 C226.568,88.9085 226.518,89.1218 226.491,89.2151 L227.391,89.2151 C227.464,89.2151 227.528,89.2401 227.581,89.2901 C227.634,89.3401 227.661,89.4018 227.661,89.4751 C227.661,89.5485 227.634,89.6118 227.581,89.6651 C227.528,89.7185 227.464,89.7451 227.391,89.7451 L226.351,89.7451 "/>
<path class="Dynamic" d="M112.287,100.245 L111.487,102.825 C111.214,103.752 110.751,104.648 110.097,105.515 C109.437,106.388 108.764,106.825 108.077,106.825 C107.717,106.825 107.401,106.732 107.127,106.545 C106.854,106.358 106.717,106.115 106.717,105.815 C106.717,105.475 106.791,105.188 106.937,104.955 C107.084,104.728 107.284,104.608 107.537,104.595 C107.731,104.595 107.892,104.665 108.022,104.805 C108.152,104.945 108.217,105.105 108.217,105.285 C108.217,105.445 108.124,105.595 107.937,105.735 C107.737,105.862 107.634,106.002 107.627,106.155 C107.627,106.262 107.744,106.315 107.977,106.315 L108.077,106.315 C108.131,106.315 108.211,106.302 108.317,106.275 C108.371,106.262 108.441,106.225 108.527,106.165 C108.527,106.165 108.581,106.122 108.687,106.035 C108.761,105.942 108.804,105.875 108.817,105.835 C108.857,105.748 108.887,105.678 108.907,105.625 C108.941,105.585 108.974,105.495 109.007,105.355 C109.021,105.322 109.032,105.283 109.042,105.24 C109.052,105.197 109.062,105.167 109.072,105.15 C109.082,105.133 109.087,105.122 109.087,105.115 C109.127,104.942 109.154,104.838 109.167,104.805 C109.207,104.632 109.227,104.542 109.227,104.535 L110.297,100.245 L109.467,100.245 C109.394,100.245 109.337,100.218 109.297,100.165 C109.257,100.098 109.237,100.035 109.237,99.975 C109.237,99.9083 109.257,99.8483 109.297,99.795 C109.371,99.7416 109.427,99.715 109.467,99.715 L110.447,99.715 C110.714,98.9016 111.161,98.1983 111.787,97.605 C112.407,96.9983 113.074,96.695 113.787,96.695 C114.167,96.695 114.484,96.7916 114.737,96.985 C115.004,97.165 115.141,97.405 115.147,97.705 C115.147,98.025 115.077,98.3083 114.937,98.555 C114.777,98.7816 114.577,98.9016 114.337,98.915 C114.144,98.915 113.981,98.8466 113.847,98.71 C113.714,98.5733 113.647,98.415 113.647,98.235 C113.647,98.075 113.749,97.93 113.952,97.8 C114.156,97.67 114.251,97.525 114.237,97.365 C114.237,97.245 114.124,97.1883 113.897,97.195 L113.857,97.195 C113.837,97.2083 113.814,97.2116 113.787,97.205 C113.594,97.205 113.431,97.255 113.297,97.355 C113.171,97.4416 113.051,97.595 112.937,97.815 C112.904,97.8816 112.876,97.9433 112.852,98 C112.829,98.0566 112.804,98.1233 112.777,98.2 C112.751,98.2766 112.731,98.3283 112.717,98.355 C112.704,98.4083 112.684,98.515 112.657,98.675 C112.631,98.835 112.604,98.9683 112.577,99.075 C112.504,99.4083 112.454,99.6216 112.427,99.715 L113.327,99.715 C113.401,99.715 113.464,99.74 113.517,99.79 C113.571,99.84 113.597,99.9016 113.597,99.975 C113.597,100.048 113.571,100.112 113.517,100.165 C113.464,100.218 113.401,100.245 113.327,100.245 L112.287,100.245 M116.693,100.245 L115.893,102.825 C115.62,103.752 115.157,104.648 114.503,105.515 C113.843,106.388 113.17,106.825 112.483,106.825 C112.123,106.825 111.807,106.732 111.533,106.545 C111.26,106.358 111.123,106.115 111.123,105.815 C111.123,105.475 111.197,105.188 111.343,104.955 C111.49,104.728 111.69,104.608 111.943,104.595 C112.137,104.595 112.298,104.665 112.428,104.805 C112.558,104.945 112.623,105.105 112.623,105.285 C112.623,105.445 112.53,105.595 112.343,105.735 C112.143,105.862 112.04,106.002 112.033,106.155 C112.033,106.262 112.15,106.315 112.383,106.315 L112.483,106.315 C112.537,106.315 112.617,106.302 112.723,106.275 C112.777,106.262 112.847,106.225 112.933,106.165 C112.933,106.165 112.987,106.122 113.093,106.035 C113.167,105.942 113.21,105.875 113.223,105.835 C113.263,105.748 113.293,105.678 113.313,105.625 C113.347,105.585 113.38,105.495 113.413,105.355 C113.427,105.322 113.438,105.283 113.448,105.24 C113.458,105.197 113.468,105.167 113.478,105.15 C113.488,105.133 113.493,105.122 113.493,105.115 C113.533,104.942 113.56,104.838 113.573,104.805 C113.613,104.632 113.633,104.542 113.633,104.535 L114.703,100.245 L113.873,100.245 C113.8,100.245 113.743,100.218 113.703,100.165 C113.663,100.098 113.643,100.035 113.643,99.975 C113.643,99.9083 113.663,99.8483 113.703,99.795 C113.777,99.7416 113.833,99.715 113.873,99.715 L114.853,99.715 C115.12,98.9016 115.567,98.1983 116.193,97.605 C116.813,96.9983 117.48,96.695 118.193,96.695 C118.573,96.695 118.89,96.7916 119.143,96.985 C119.41,97.165 119.547,97.405 119.553,97.705 C119.553,98.025 119.483,98.3083 119.343,98.555 C119.183,98.7816 118.983,98.9016 118.743,98.915 C118.55,98.915 118.387,98.8466 118.253,98.71 C118.12,98.5733 118.053,98.415 118.053,98.235 C118.053,98.075 118.155,97.93 118.358,97.8 C118.562,97.67 118.657,97.525 118.643,97.365 C118.643,97.245 118.53,97.1883 118.303,97.195 L118.263,97.195 C118.243,97.2083 118.22,97.2116 118.193,97.205 C118,97.205 117.837,97.255 117.703,97.355 C117.577,97.4416 117.457,97.595 117.343,97.815 C117.31,97.8816 117.282,97.9433 117.258,98 C117.235,98.0566 117.21,98.1233 117.183,98.2 C117.157,98.2766 117.137,98.3283 117.123,98.355 C117.11,98.4083 117.09,98.515 117.063,98.675 C117.037,98.835 117.01,98.9683 116.983,99.075 C116.91,99.4083 116.86,99.6216 116.833,99.715 L117.733,99.715 C117.807,99.715 117.87,99.74 117.923,99.79 C117.977,99.84 118.003,99.9016 118.003,99.975 C118.003,100.048 117.977,100.112 117.923,100.165 C117.87,100.218 117.807,100.245 117.733,100.245 L116.693,100.245 M121.1,100.245 L120.3,102.825 C120.026,103.752 119.563,104.648 118.91,105.515 C118.25,106.388 117.576,106.825 116.89,106.825 C116.53,106.825 116.213,106.732 115.94,106.545 C115.666,106.358 115.53,106.115 115.53,105.815 C115.53,105.475 115.603,105.188 115.75,104.955 C115.896,104.728 116.096,104.608 116.35,104.595 C116.543,104.595 116.705,104.665 116.835,104.805 C116.965,104.945 117.03,105.105 117.03,105.285 C117.03,105.445 116.936,105.595 116.75,105.735 C116.55,105.862 116.446,106.002 116.44,106.155 C116.44,106.262 116.556,106.315 116.79,106.315 L116.89,106.315 C116.943,106.315 117.023,106.302 117.13,106.275 C117.183,106.262 117.253,106.225 117.34,106.165 C117.34,106.165 117.393,106.122 117.5,106.035 C117.573,105.942 117.616,105.875 117.63,105.835 C117.67,105.748 117.7,105.678 117.72,105.625 C117.753,105.585 117.786,105.495 117.82,105.355 C117.833,105.322 117.845,105.283 117.855,105.24 C117.865,105.197 117.875,105.167 117.885,105.15 C117.895,105.133 117.9,105.122 117.9,105.115 C117.94,104.942 117.966,104.838 117.98,104.805 C118.02,104.632 118.04,104.542 118.04,104.535 L119.11,100.245 L118.28,100.245 C118.206,100.245 118.15,100.218 118.11,100.165 C118.07,100.098 118.05,100.035 118.05,99.975 C118.05,99.9083 118.07,99.8483 118.11,99.795 C118.183,99.7416 118.24,99.715 118.28,99.715 L119.26,99.715 C119.526,98.9016 119.973,98.1983 120.6,97.605 C121.22,96.9983 121.886,96.695 122.6,96.695 C122.98,96.695 123.296,96.7916 123.55,96.985 C123.816,97.165 123.953,97.405 123.96,97.705 C123.96,98.025 123.89,98.3083 123.75,98.555 C123.59,98.7816 123.39,98.9016 123.15,98.915 C122.956,98.915 122.793,98.8466 122.66,98.71 C122.526,98.5733 122.46,98.415 122.46,98.235 C122.46,98.075 122.561,97.93 122.765,97.8 C122.968,97.67 123.063,97.525 123.05,97.365 C123.05,97.245 122.936,97.1883 122.71,97.195 L122.67,97.195 C122.65,97.2083 122.626,97.2116 122.6,97.205 C122.406,97.205 122.243,97.255 122.11,97.355 C121.983,97.4416 121.863,97.595 121.75,97.815 C121.716,97.8816 121.688,97.9433 121.665,98 C121.641,98.0566 121.616,98.1233 121.59,98.2 C121.563,98.2766 121.543,98.3283 121.53,98.355 C121.516,98.4083 121.496,98.515 121.47,98.675 C121.443,98.835 121.416,98.9683 121.39,99.075 C121.316,99.4083 121.266,99.6216 121.24,99.715 L122.14,99.715 C122.213,99.715 122.276,99.74 122.33,99.79 C122.383,99.84 122.41,99.9016 122.41,99.975 C122.41,100.048 122.383,100.112 122.33,100.165 C122.276,100.218 122.213,100.245 122.14,100.245 L121.1,100.245 "/>
<path class="Dynamic" d="M39.5873,90.1951 C39.2939,90.1951 39.0306,90.3518 38.7973,90.6651 C38.5506,90.9918 38.3606,91.3551 38.2273,91.7551 C38.0939,92.1418 38.0339,92.4785 38.0473,92.7651 C38.0473,93.1718 38.1973,93.3751 38.4973,93.3751 C38.7639,93.3751 38.9939,93.2718 39.1873,93.0651 C39.4073,92.8385 39.5906,92.4485 39.7373,91.8951 C39.8973,91.3218 39.9773,90.9218 39.9773,90.6951 C39.9639,90.3618 39.8339,90.1951 39.5873,90.1951 M37.1573,89.4251 C37.4239,89.4251 37.6606,89.4968 37.8673,89.6401 C38.0739,89.7835 38.2039,89.9785 38.2573,90.2251 C38.4706,89.9851 38.7239,89.7918 39.0173,89.6451 C39.3106,89.4985 39.5873,89.4251 39.8473,89.4251 C40.3606,89.4251 40.7606,89.5885 41.0473,89.9151 C41.3273,90.2485 41.4673,90.6718 41.4673,91.1851 C41.4673,92.0385 41.1706,92.7351 40.5773,93.2751 C40.0239,93.7351 39.5273,93.9651 39.0873,93.9651 C38.8206,93.9651 38.6039,93.9385 38.4373,93.8851 C38.2239,93.8318 38.0839,93.7818 38.0173,93.7351 C37.9239,93.6818 37.8473,93.6551 37.7873,93.6551 C37.6473,93.6551 37.5539,93.7085 37.5073,93.8151 L36.9173,95.5851 L36.9173,95.6651 C36.9173,95.7718 36.9973,95.8318 37.1573,95.8451 C37.2106,95.8585 37.2923,95.8701 37.4023,95.8801 C37.5123,95.8901 37.5939,95.8951 37.6473,95.8951 C37.8073,95.9218 37.8873,95.9651 37.8873,96.0251 C37.8873,96.1051 37.8473,96.1451 37.7673,96.1451 C36.8206,96.0918 36.2073,96.0651 35.9273,96.0651 C35.6273,96.0651 35.0039,96.0918 34.0573,96.1451 C33.9706,96.1451 33.9339,96.1051 33.9473,96.0251 C33.9473,95.9585 34.0173,95.9118 34.1573,95.8851 C34.2239,95.8718 34.5039,95.8651 34.9973,95.8651 C35.2239,95.8651 35.3573,95.7951 35.3973,95.6551 L37.1073,90.7151 C37.1339,90.6218 37.1506,90.5418 37.1573,90.4751 C37.1573,90.2818 37.0706,90.1885 36.8973,90.1951 C36.6506,90.1951 36.3939,90.3518 36.1273,90.6651 C35.8673,90.9651 35.6573,91.2985 35.4973,91.6651 C35.4573,91.7585 35.3906,91.8085 35.2973,91.8151 C35.2173,91.8151 35.1773,91.7818 35.1773,91.7151 C35.1773,91.6285 35.2039,91.5485 35.2573,91.4751 C35.4706,91.0151 35.6939,90.5985 35.9273,90.2251 C36.0739,90.0118 36.2573,89.8285 36.4773,89.6751 C36.6906,89.5085 36.9173,89.4251 37.1573,89.4251 M45.4779,90.1951 C45.1846,90.1951 44.9212,90.3518 44.6879,90.6651 C44.4412,90.9918 44.2512,91.3551 44.1179,91.7551 C43.9846,92.1418 43.9246,92.4785 43.9379,92.7651 C43.9379,93.1718 44.0879,93.3751 44.3879,93.3751 C44.6546,93.3751 44.8846,93.2718 45.0779,93.0651 C45.2979,92.8385 45.4812,92.4485 45.6279,91.8951 C45.7879,91.3218 45.8679,90.9218 45.8679,90.6951 C45.8546,90.3618 45.7246,90.1951 45.4779,90.1951 M43.0479,89.4251 C43.3146,89.4251 43.5512,89.4968 43.7579,89.6401 C43.9646,89.7835 44.0946,89.9785 44.1479,90.2251 C44.3612,89.9851 44.6146,89.7918 44.9079,89.6451 C45.2012,89.4985 45.4779,89.4251 45.7379,89.4251 C46.2512,89.4251 46.6512,89.5885 46.9379,89.9151 C47.2179,90.2485 47.3579,90.6718 47.3579,91.1851 C47.3579,92.0385 47.0612,92.7351 46.4679,93.2751 C45.9146,93.7351 45.4179,93.9651 44.9779,93.9651 C44.7112,93.9651 44.4946,93.9385 44.3279,93.8851 C44.1146,93.8318 43.9746,93.7818 43.9079,93.7351 C43.8146,93.6818 43.7379,93.6551 43.6779,93.6551 C43.5379,93.6551 43.4446,93.7085 43.3979,93.8151 L42.8079,95.5851 L42.8079,95.6651 C42.8079,95.7718 42.8879,95.8318 43.0479,95.8451 C43.1012,95.8585 43.1829,95.8701 43.2929,95.8801 C43.4029,95.8901 43.4846,95.8951 43.5379,95.8951 C43.6979,95.9218 43.7779,95.9651 43.7779,96.0251 C43.7779,96.1051 43.7379,96.1451 43.6579,96.1451 C42.7112,96.0918 42.0979,96.0651 41.8179,96.0651 C41.5179,96.0651 40.8946,96.0918 39.9479,96.1451 C39.8612,96.1451 39.8246,96.1051 39.8379,96.0251 C39.8379,95.9585 39.9079,95.9118 40.0479,95.8851 C40.1146,95.8718 40.3946,95.8651 40.8879,95.8651 C41.1146,95.8651 41.2479,95.7951 41.2879,95.6551 L42.9979,90.7151 C43.0246,90.6218 43.0412,90.5418 43.0479,90.4751 C43.0479,90.2818 42.9612,90.1885 42.7879,90.1951 C42.5412,90.1951 42.2846,90.3518 42.0179,90.6651 C41.7579,90.9651 41.5479,91.2985 41.3879,91.6651 C41.3479,91.7585 41.2812,91.8085 41.1879,91.8151 C41.1079,91.8151 41.0679,91.7818 41.0679,91.7151 C41.0679,91.6285 41.0946,91.5485 41.1479,91.4751 C41.3612,91.0151 41.5846,90.5985 41.8179,90.2251 C41.9646,90.0118 42.1479,89.8285 42.3679,89.6751 C42.5812,89.5085 42.8079,89.4251 43.0479,89.4251 M51.3685,90.1951 C51.0752,90.1951 50.8118,90.3518 50.5785,90.6651 C50.3318,90.9918 50.1418,91.3551 50.0085,91.7551 C49.8752,92.1418 49.8152,92.4785 49.8285,92.7651 C49.8285,93.1718 49.9785,93.3751 50.2785,93.3751 C50.5452,93.3751 50.7752,93.2718 50.9685,93.0651 C51.1885,92.8385 51.3718,92.4485 51.5185,91.8951 C51.6785,91.3218 51.7585,90.9218 51.7585,90.6951 C51.7452,90.3618 51.6152,90.1951 51.3685,90.1951 M48.9385,89.4251 C49.2052,89.4251 49.4418,89.4968 49.6485,89.6401 C49.8552,89.7835 49.9852,89.9785 50.0385,90.2251 C50.2518,89.9851 50.5052,89.7918 50.7985,89.6451 C51.0918,89.4985 51.3685,89.4251 51.6285,89.4251 C52.1418,89.4251 52.5418,89.5885 52.8285,89.9151 C53.1085,90.2485 53.2485,90.6718 53.2485,91.1851 C53.2485,92.0385 52.9518,92.7351 52.3585,93.2751 C51.8052,93.7351 51.3085,93.9651 50.8685,93.9651 C50.6018,93.9651 50.3852,93.9385 50.2185,93.8851 C50.0052,93.8318 49.8652,93.7818 49.7985,93.7351 C49.7052,93.6818 49.6285,93.6551 49.5685,93.6551 C49.4285,93.6551 49.3352,93.7085 49.2885,93.8151 L48.6985,95.5851 L48.6985,95.6651 C48.6985,95.7718 48.7785,95.8318 48.9385,95.8451 C48.9918,95.8585 49.0735,95.8701 49.1835,95.8801 C49.2935,95.8901 49.3752,95.8951 49.4285,95.8951 C49.5885,95.9218 49.6685,95.9651 49.6685,96.0251 C49.6685,96.1051 49.6285,96.1451 49.5485,96.1451 C48.6018,96.0918 47.9885,96.0651 47.7085,96.0651 C47.4085,96.0651 46.7852,96.0918 45.8385,96.1451 C45.7518,96.1451 45.7152,96.1051 45.7285,96.0251 C45.7285,95.9585 45.7985,95.9118 45.9385,95.8851 C46.0052,95.8718 46.2852,95.8651 46.7785,95.8651 C47.0052,95.8651 47.1385,95.7951 47.1785,95.6551 L48.8885,90.7151 C48.9152,90.6218 48.9318,90.5418 48.9385,90.4751 C48.9385,90.2818 48.8518,90.1885 48.6785,90.1951 C48.4318,90.1951 48.1752,90.3518 47.9085,90.6651 C47.6485,90.9651 47.4385,91.2985 47.2785,91.6651 C47.2385,91.7585 47.1718,91.8085 47.0785,91.8151 C46.9985,91.8151 46.9585,91.7818 46.9585,91.7151 C46.9585,91.6285 46.9852,91.5485 47.0385,91.4751 C47.2518,91.0151 47.4752,90.5985 47.7085,90.2251 C47.8552,90.0118 48.0385,89.8285 48.2585,89.6751 C48.4718,89.5085 48.6985,89.4251 48.9385,89.4251"/>
<path class="Hook" transform="matrix(0.850394,0,0,0.850394,120.343,53.5814)" d="M0.625,0 C0.625,0.664062 0.768229,1.32812 1.05469,1.99219 C1.32812,2.64323 1.66667,3.26172 2.07031,3.84766 L3.24219,5.56641 C3.63281,6.10026 3.97135,6.71875 4.25781,7.42188 C4.54427,8.07292 4.6875,8.73047 4.6875,9.39453 C4.6875,10.0065 4.53125,10.6445 4.21875,11.3086 C4.60938,12.1029 4.80469,12.8776 4.80469,13.6328 C4.80469,14.8307 4.52474,16.0547 3.96484,17.3047 C3.8737,17.4609 3.75,17.5391 3.59375,17.5391 C3.46354,17.5391 3.34635,17.487 3.24219,17.3828 C3.16406,17.3047 3.125,17.207 3.125,17.0898 C3.125,17.0898 3.125,17.0573 3.125,16.9922 C3.6849,15.8854 3.96484,14.7656 3.96484,13.6328 C3.96484,13.125 3.86719,12.6562 3.67188,12.2266 C3.4375,11.7188 3.15104,11.25 2.8125,10.8203 C2.38281,10.2604 2.04427,9.85677 1.79688,9.60938 C1.45833,9.27083 1.06771,8.89974 0.625,8.49609 L0.625,10 L0,10 L0,0 L0.625,0 M3.69141,10.332 C3.78255,10.0586 3.82812,9.74609 3.82812,9.39453 C3.82812,8.9388 3.73698,8.47656 3.55469,8.00781 C3.35938,7.53906 3.08594,7.0638 2.73438,6.58203 C2.40885,6.17839 2.07682,5.78125 1.73828,5.39062 C1.47786,5.10417 1.10677,4.72656 0.625,4.25781 C0.625,4.79167 0.735677,5.35807 0.957031,5.95703 C1.19141,6.51693 1.43229,7.00521 1.67969,7.42188 C1.96615,7.86458 2.31771,8.36589 2.73438,8.92578 C3.15104,9.48568 3.47005,9.95443 3.69141,10.332"/>
<path class="Hook" transform="matrix(0.850394,0,0,0.850394,115.298,42.9515)" d="M0.625,-4.00391 C1.14583,-4.30339 1.64062,-4.60938 2.10938,-4.92188 C2.60417,-5.27344 3.04688,-5.625 3.4375,-5.97656 C3.90625,-6.40625 4.26432,-6.84896 4.51172,-7.30469 C4.77214,-7.79948 4.90234,-8.28776 4.90234,-8.76953 C4.90234,-9.22526 4.8112,-9.6875 4.62891,-10.1562 C4.48568,-9.97396 4.0625,-9.55729 3.35938,-8.90625 C2.82552,-8.41146 2.36979,-7.96224 1.99219,-7.55859 C1.65365,-7.19401 1.34115,-6.73828 1.05469,-6.19141 C0.768229,-5.63151 0.625,-5.0651 0.625,-4.49219 L0.625,-4.00391 M5.99609,-13.2617 C5.99609,-12.4805 5.7487,-11.7057 5.25391,-10.9375 C5.57943,-10.2474 5.74219,-9.52474 5.74219,-8.76953 C5.74219,-8.13151 5.56641,-7.48698 5.21484,-6.83594 C4.83724,-6.13281 4.41406,-5.5599 3.94531,-5.11719 L2.42188,-3.63281 C1.91406,-3.11198 1.49089,-2.54557 1.15234,-1.93359 C0.800781,-1.30859 0.625,-0.664062 0.625,0 L0,0 L0,-10 L0.625,-10 L0.625,-8.49609 C3.64583,-10.0716 5.15625,-11.6602 5.15625,-13.2617 C5.15625,-13.6133 5.0651,-14.0234 4.88281,-14.4922 C4.88281,-14.4922 4.88281,-14.5182 4.88281,-14.5703 C4.88281,-14.6745 4.92188,-14.7786 5,-14.8828 C5.10417,-14.987 5.22135,-15.0391 5.35156,-15.0391 C5.48177,-15.0391 5.59896,-14.9609 5.70312,-14.8047 C5.82031,-14.5964 5.88542,-14.3945 5.89844,-14.1992 C5.91146,-14.1081 5.92448,-13.9909 5.9375,-13.8477 L5.97656,-13.6328 C5.98958,-13.5417 5.99609,-13.418 5.99609,-13.2617"/>
<path class="StaffText" d="M47.5655,9.67781 C47.5655,9.94781 47.5355,10.2118 47.4755,10.4698 C47.4155,10.7278 47.3045,10.9948 47.1425,11.2708 C46.9805,11.5468 46.7735,11.7853 46.5215,11.9863 C46.2695,12.1873 45.935,12.3538 45.518,12.4858 C45.101,12.6178 44.6285,12.6838 44.1005,12.6838 L41.5445,12.6838 L41.5445,12.5128 C41.8865,12.4888 42.104,12.4288 42.197,12.3328 C42.29,12.2368 42.3365,12.0268 42.3365,11.7028 L42.3365,7.70681 C42.3365,7.37681 42.293,7.16681 42.206,7.07681 C42.119,6.98681 41.8985,6.92681 41.5445,6.89681 L41.5445,6.72581 L43.9745,6.72581 C44.5205,6.72581 45.008,6.78731 45.437,6.91031 C45.866,7.03331 46.211,7.19231 46.472,7.38731 C46.733,7.58231 46.949,7.81331 47.12,8.08031 C47.291,8.34731 47.408,8.60981 47.471,8.86781 C47.534,9.12581 47.5655,9.39581 47.5655,9.67781 M46.5845,9.74081 C46.5845,9.48281 46.559,9.23531 46.508,8.99831 C46.457,8.76131 46.3655,8.52131 46.2335,8.27831 C46.1015,8.03531 45.9305,7.82681 45.7205,7.65281 C45.5105,7.47881 45.2345,7.33631 44.8925,7.22531 C44.5505,7.11431 44.1605,7.05881 43.7225,7.05881 C43.5365,7.05881 43.412,7.08281 43.349,7.13081 C43.286,7.17881 43.2545,7.27181 43.2545,7.40981 L43.2545,11.9818 C43.2545,12.1258 43.2875,12.2233 43.3535,12.2743 C43.4195,12.3253 43.5425,12.3508 43.7225,12.3508 C45.6305,12.3508 46.5845,11.4808 46.5845,9.74081 M49.1023,8.55281 C49.2403,8.55281 49.3588,8.60381 49.4578,8.70581 C49.5568,8.80781 49.6063,8.92781 49.6063,9.06581 C49.6063,9.19781 49.5553,9.31181 49.4533,9.40781 C49.3513,9.50381 49.2313,9.55181 49.0933,9.55181 C48.9613,9.55181 48.8473,9.50381 48.7513,9.40781 C48.6553,9.31181 48.6073,9.19781 48.6073,9.06581 C48.6073,8.92781 48.6568,8.80781 48.7558,8.70581 C48.8548,8.60381 48.9703,8.55281 49.1023,8.55281 M49.1023,11.7838 C49.2403,11.7838 49.3588,11.8348 49.4578,11.9368 C49.5568,12.0388 49.6063,12.1588 49.6063,12.2968 C49.6063,12.4288 49.5553,12.5428 49.4533,12.6388 C49.3513,12.7348 49.2313,12.7828 49.0933,12.7828 C48.9613,12.7828 48.8473,12.7348 48.7513,12.6388 C48.6553,12.5428 48.6073,12.4288 48.6073,12.2968 C48.6073,12.1588 48.6568,12.0388 48.7558,11.9368 C48.8548,11.8348 48.9703,11.7838 49.1023,11.7838 M53.3863,11.7028 L53.3863,7.70681 C53.3863,7.37681 53.3368,7.16531 53.2378,7.07231 C53.1388,6.97931 52.8973,6.92081 52.5133,6.89681 L52.5133,6.72581 L55.1863,6.72581 L55.1863,6.89681 C54.8083,6.91481 54.5668,6.97181 54.4618,7.06781 C54.3568,7.16381 54.3043,7.37681 54.3043,7.70681 L54.3043,11.7028 C54.3043,12.0328 54.3583,12.2473 54.4663,12.3463 C54.5743,12.4453 54.8143,12.5008 55.1863,12.5128 L55.1863,12.6838 L52.5133,12.6838 L52.5133,12.5128 C52.8913,12.5008 53.1313,12.4468 53.2333,12.3508 C53.3353,12.2548 53.3863,12.0388 53.3863,11.7028"/>
<path class="StaffText" d="M57.5608,5.99881 L57.5608,6.07881 L56.5008,9.34881 L56.1758,9.34881 L57.1658,6.36881 L56.0808,6.36881 C55.9441,6.36881 55.8399,6.39381 55.7683,6.44381 C55.6966,6.49381 55.6074,6.60381 55.5008,6.77381 L55.4158,6.73381 L55.7108,5.99881 L57.5608,5.99881 "/>
<path class="Bracket" fill-rule="evenodd" d="M5.36477,41.3573 C5.36477,36.9041 1.94376,32.5755 1.94376,28.3092 C1.94376,26.1604 2.87676,24.074 5.75352,22.2055 C5.7924,22.1822 5.81183,22.1432 5.81183,22.1199 C5.81183,22.0498 5.59802,21.9875 5.44252,21.9875 C5.36477,21.9875 5.22871,21.9953 5.13152,22.0498 C1.39951,24.4477 0.155501,27.2192 0.155501,30.0219 C0.155501,34.5374 3.80976,38.8972 3.80976,43.2258 C3.80976,45.3745 2.87676,47.3987 -1.08802e-14,49.2672 L-1.08802e-14,49.3295 L-1.08802e-14,49.3918 C2.87676,51.2602 3.80976,53.2844 3.80976,55.4331 C3.80976,59.7618 0.155501,64.1215 0.155501,68.637 C0.155501,71.4397 1.39951,74.2113 5.13152,76.6092 C5.22871,76.6636 5.36477,76.6714 5.44252,76.6714 C5.59802,76.6714 5.81183,76.6092 5.81183,76.5391 C5.81183,76.5157 5.7924,76.4768 5.75352,76.4534 C2.87676,74.585 1.94376,72.4985 1.94376,70.3498 C1.94376,66.0834 5.36477,61.7548 5.36477,57.3016 C5.36477,54.4678 4.12076,51.7585 0.466502,49.3295 C4.12076,46.9005 5.36477,44.1912 5.36477,41.3573"/>
</svg>
