<?xml version="1.0" encoding="UTF-8" standalone="no"?>
<svg width="283.635px" height="140.99px" viewBox="0 0 283.635 140.99"
 xmlns="http://www.w3.org/2000/svg" xmlns:xlink="http://www.w3.org/1999/xlink" version="1.2" baseProfile="tiny">
<title>Liturgikus improvizáció</title>
<desc>Generated by MuseScore 2.3.2</desc>
<polyline class="StaffLines" fill="none" stroke="#000000" stroke-width="0.34" stroke-linejoin="bevel" points="0,22.9606 283.635,22.9606"/>
<polyline class="StaffLines" fill="none" stroke="#000000" stroke-width="0.34" stroke-linejoin="bevel" points="0,27.2126 283.635,27.2126"/>
<polyline class="StaffLines" fill="none" stroke="#000000" stroke-width="0.34" stroke-linejoin="bevel" points="0,31.4646 283.635,31.4646"/>
<polyline class="StaffLines" fill="none" stroke="#000000" stroke-width="0.34" stroke-linejoin="bevel" points="0,35.7165 283.635,35.7165"/>
<polyline class="StaffLines" fill="none" stroke="#000000" stroke-width="0.34" stroke-linejoin="bevel" points="0,39.9685 283.635,39.9685"/>
<polyline class="StaffLines" fill="none" stroke="#000000" stroke-width="0.34" stroke-linejoin="bevel" points="0,103.748 283.635,103.748"/>
<polyline class="StaffLines" fill="none" stroke="#000000" stroke-width="0.34" stroke-linejoin="bevel" points="0,108 283.635,108"/>
<polyline class="StaffLines" fill="none" stroke="#000000" stroke-width="0.34" stroke-linejoin="bevel" points="0,112.252 283.635,112.252"/>
<polyline class="StaffLines" fill="none" stroke="#000000" stroke-width="0.34" stroke-linejoin="bevel" points="0,116.504 283.635,116.504"/>
<polyline class="StaffLines" fill="none" stroke="#000000" stroke-width="0.34" stroke-linejoin="bevel" points="0,120.756 283.635,120.756"/>
<polyline class="BarLine" fill="none" stroke="#000000" stroke-width="0.68" stroke-linejoin="bevel" points="281.338,103.748 281.338,120.756"/>
<polyline class="BarLine" fill="none" stroke="#000000" stroke-width="0.68" stroke-linejoin="bevel" points="283.294,103.748 283.294,120.756"/>
<polyline class="BarLine" fill="none" stroke="#000000" stroke-width="0.68" stroke-linejoin="bevel" points="151.847,103.748 151.847,120.756"/>
<polyline class="BarLine" fill="none" stroke="#000000" stroke-width="0.68" stroke-linejoin="bevel" points="281.338,22.9606 281.338,39.9685"/>
<polyline class="BarLine" fill="none" stroke="#000000" stroke-width="0.68" stroke-linejoin="bevel" points="283.294,22.9606 283.294,39.9685"/>
<polyline class="BarLine" fill="none" stroke="#000000" stroke-width="0.68" stroke-linejoin="bevel" points="152.144,22.9606 152.144,39.9685"/>
<polyline class="LedgerLine" fill="none" stroke="#000000" stroke-width="0.68" stroke-linecap="square" stroke-linejoin="bevel" points="30.6886,44.2205 38.8377,44.2205"/>
<polyline class="Stem" fill="none" stroke="#000000" stroke-width="0.55" stroke-linecap="round" stroke-linejoin="bevel" points="253.448,110.793 253.448,123.945"/>
<polyline class="Stem" fill="none" stroke="#000000" stroke-width="0.55" stroke-linecap="round" stroke-linejoin="bevel" points="232.438,113.051 232.438,125.539"/>
<polyline class="Stem" fill="none" stroke="#000000" stroke-width="0.55" stroke-linecap="round" stroke-linejoin="bevel" points="211.273,108.799 211.273,122.35"/>
<polyline class="Stem" fill="none" stroke="#000000" stroke-width="0.55" stroke-linecap="round" stroke-linejoin="bevel" points="200.426,110.925 200.426,123.945"/>
<polyline class="Stem" fill="none" stroke="#000000" stroke-width="0.55" stroke-linecap="round" stroke-linejoin="bevel" points="189.578,113.051 189.578,123.945"/>
<polyline class="Stem" fill="none" stroke="#000000" stroke-width="0.55" stroke-linecap="round" stroke-linejoin="bevel" points="178.73,110.925 178.73,123.945"/>
<polyline class="Stem" fill="none" stroke="#000000" stroke-width="0.55" stroke-linecap="round" stroke-linejoin="bevel" points="157.565,110.925 157.565,123.945"/>
<polyline class="Stem" fill="none" stroke="#000000" stroke-width="0.55" stroke-linecap="round" stroke-linejoin="bevel" points="124.755,108.667 124.755,122.35"/>
<polyline class="Stem" fill="none" stroke="#000000" stroke-width="0.55" stroke-linecap="round" stroke-linejoin="bevel" points="104.356,110.925 104.356,123.945"/>
<polyline class="Stem" fill="none" stroke="#000000" stroke-width="0.55" stroke-linecap="round" stroke-linejoin="bevel" points="83.8027,106.673 83.8027,120.756"/>
<polyline class="Stem" fill="none" stroke="#000000" stroke-width="0.55" stroke-linecap="round" stroke-linejoin="bevel" points="73.2679,108.799 73.2679,123.945"/>
<polyline class="Stem" fill="none" stroke="#000000" stroke-width="0.55" stroke-linecap="round" stroke-linejoin="bevel" points="62.7331,110.925 62.7331,123.945"/>
<polyline class="Stem" fill="none" stroke="#000000" stroke-width="0.55" stroke-linecap="round" stroke-linejoin="bevel" points="52.1984,108.799 52.1984,123.945"/>
<polyline class="Stem" fill="none" stroke="#000000" stroke-width="0.55" stroke-linecap="round" stroke-linejoin="bevel" points="31.6453,108.799 31.6453,122.35"/>
<polyline class="Stem" fill="none" stroke="#000000" stroke-width="0.55" stroke-linecap="round" stroke-linejoin="bevel" points="242.932,37.0439 242.932,22.9606"/>
<polyline class="Stem" fill="none" stroke="#000000" stroke-width="0.55" stroke-linecap="round" stroke-linejoin="bevel" points="215.814,34.918 215.814,21.3661"/>
<polyline class="Stem" fill="none" stroke="#000000" stroke-width="0.55" stroke-linecap="round" stroke-linejoin="bevel" points="162.908,41.2959 162.908,27.2126"/>
<polyline class="Stem" fill="none" stroke="#000000" stroke-width="0.55" stroke-linecap="round" stroke-linejoin="bevel" points="114.993,39.1699 114.993,25.0866"/>
<polyline class="Stem" fill="none" stroke="#000000" stroke-width="0.55" stroke-linecap="round" stroke-linejoin="bevel" points="88.6604,37.0439 88.6604,22.9606"/>
<polyline class="Stem" fill="none" stroke="#000000" stroke-width="0.55" stroke-linecap="round" stroke-linejoin="bevel" points="37.2858,43.4219 37.2858,29.3386"/>
<path class="Note" transform="matrix(0.850394,0,0,0.850394,253.172,110.126)" d="M6.30859,-1.30859 C6.30859,-1.52995 6.22396,-1.71875 6.05469,-1.875 C5.88542,-2.04427 5.6901,-2.12891 5.46875,-2.12891 C5.07812,-2.12891 4.29036,-1.73828 3.10547,-0.957031 C1.88151,-0.16276 1.13281,0.403646 0.859375,0.742188 C0.716146,0.924479 0.644531,1.11328 0.644531,1.30859 C0.644531,1.52995 0.729167,1.71875 0.898438,1.875 C1.05469,2.04427 1.25,2.12891 1.48438,2.12891 C1.86198,2.12891 2.65625,1.73828 3.86719,0.957031 C5.0651,0.175781 5.80729,-0.390625 6.09375,-0.742188 C6.23698,-0.911458 6.30859,-1.10026 6.30859,-1.30859 M5.27344,-2.75391 C6.39323,-2.75391 6.95312,-2.27214 6.95312,-1.30859 C6.95312,-0.839844 6.81641,-0.292969 6.54297,0.332031 C6.26953,0.94401 5.90495,1.41276 5.44922,1.73828 C4.44661,2.41536 3.1901,2.75391 1.67969,2.75391 C0.559896,2.75391 0,2.27214 0,1.30859 C0,0.878906 0.136719,0.338542 0.410156,-0.3125 C0.670573,-0.9375 1.03516,-1.41276 1.50391,-1.73828 C2.50651,-2.41536 3.76302,-2.75391 5.27344,-2.75391"/>
<path class="Note" transform="matrix(0.850394,0,0,0.850394,232.161,112.252)" d="M4.39453,-2.75391 C5.01953,-2.75391 5.54688,-2.59115 5.97656,-2.26562 C6.38021,-1.91406 6.58203,-1.47135 6.58203,-0.9375 C6.58203,-0.0390625 6.11979,0.800781 5.19531,1.58203 C4.25781,2.36328 3.25521,2.75391 2.1875,2.75391 C1.5625,2.75391 1.03516,2.59115 0.605469,2.26562 C0.201823,1.91406 0,1.47135 0,0.9375 C0,0.0390625 0.46875,-0.800781 1.40625,-1.58203 C2.31771,-2.36328 3.3138,-2.75391 4.39453,-2.75391"/>
<path class="Note" transform="matrix(0.850394,0,0,0.850394,210.997,108)" d="M4.39453,-2.75391 C5.01953,-2.75391 5.54688,-2.59115 5.97656,-2.26562 C6.38021,-1.91406 6.58203,-1.47135 6.58203,-0.9375 C6.58203,-0.0390625 6.11979,0.800781 5.19531,1.58203 C4.25781,2.36328 3.25521,2.75391 2.1875,2.75391 C1.5625,2.75391 1.03516,2.59115 0.605469,2.26562 C0.201823,1.91406 0,1.47135 0,0.9375 C0,0.0390625 0.46875,-0.800781 1.40625,-1.58203 C2.31771,-2.36328 3.3138,-2.75391 4.39453,-2.75391"/>
<path class="Note" transform="matrix(0.850394,0,0,0.850394,200.149,110.126)" d="M4.39453,-2.75391 C5.01953,-2.75391 5.54688,-2.59115 5.97656,-2.26562 C6.38021,-1.91406 6.58203,-1.47135 6.58203,-0.9375 C6.58203,-0.0390625 6.11979,0.800781 5.19531,1.58203 C4.25781,2.36328 3.25521,2.75391 2.1875,2.75391 C1.5625,2.75391 1.03516,2.59115 0.605469,2.26562 C0.201823,1.91406 0,1.47135 0,0.9375 C0,0.0390625 0.46875,-0.800781 1.40625,-1.58203 C2.31771,-2.36328 3.3138,-2.75391 4.39453,-2.75391"/>
<path class="Note" transform="matrix(0.850394,0,0,0.850394,189.301,112.252)" d="M4.39453,-2.75391 C5.01953,-2.75391 5.54688,-2.59115 5.97656,-2.26562 C6.38021,-1.91406 6.58203,-1.47135 6.58203,-0.9375 C6.58203,-0.0390625 6.11979,0.800781 5.19531,1.58203 C4.25781,2.36328 3.25521,2.75391 2.1875,2.75391 C1.5625,2.75391 1.03516,2.59115 0.605469,2.26562 C0.201823,1.91406 0,1.47135 0,0.9375 C0,0.0390625 0.46875,-0.800781 1.40625,-1.58203 C2.31771,-2.36328 3.3138,-2.75391 4.39453,-2.75391"/>
<path class="Note" transform="matrix(0.850394,0,0,0.850394,178.453,110.126)" d="M4.39453,-2.75391 C5.01953,-2.75391 5.54688,-2.59115 5.97656,-2.26562 C6.38021,-1.91406 6.58203,-1.47135 6.58203,-0.9375 C6.58203,-0.0390625 6.11979,0.800781 5.19531,1.58203 C4.25781,2.36328 3.25521,2.75391 2.1875,2.75391 C1.5625,2.75391 1.03516,2.59115 0.605469,2.26562 C0.201823,1.91406 0,1.47135 0,0.9375 C0,0.0390625 0.46875,-0.800781 1.40625,-1.58203 C2.31771,-2.36328 3.3138,-2.75391 4.39453,-2.75391"/>
<path class="Note" transform="matrix(0.850394,0,0,0.850394,157.289,110.126)" d="M4.39453,-2.75391 C5.01953,-2.75391 5.54688,-2.59115 5.97656,-2.26562 C6.38021,-1.91406 6.58203,-1.47135 6.58203,-0.9375 C6.58203,-0.0390625 6.11979,0.800781 5.19531,1.58203 C4.25781,2.36328 3.25521,2.75391 2.1875,2.75391 C1.5625,2.75391 1.03516,2.59115 0.605469,2.26562 C0.201823,1.91406 0,1.47135 0,0.9375 C0,0.0390625 0.46875,-0.800781 1.40625,-1.58203 C2.31771,-2.36328 3.3138,-2.75391 4.39453,-2.75391"/>
<path class="Note" transform="matrix(0.850394,0,0,0.850394,124.479,108)" d="M6.30859,-1.30859 C6.30859,-1.52995 6.22396,-1.71875 6.05469,-1.875 C5.88542,-2.04427 5.6901,-2.12891 5.46875,-2.12891 C5.07812,-2.12891 4.29036,-1.73828 3.10547,-0.957031 C1.88151,-0.16276 1.13281,0.403646 0.859375,0.742188 C0.716146,0.924479 0.644531,1.11328 0.644531,1.30859 C0.644531,1.52995 0.729167,1.71875 0.898438,1.875 C1.05469,2.04427 1.25,2.12891 1.48438,2.12891 C1.86198,2.12891 2.65625,1.73828 3.86719,0.957031 C5.0651,0.175781 5.80729,-0.390625 6.09375,-0.742188 C6.23698,-0.911458 6.30859,-1.10026 6.30859,-1.30859 M5.27344,-2.75391 C6.39323,-2.75391 6.95312,-2.27214 6.95312,-1.30859 C6.95312,-0.839844 6.81641,-0.292969 6.54297,0.332031 C6.26953,0.94401 5.90495,1.41276 5.44922,1.73828 C4.44661,2.41536 3.1901,2.75391 1.67969,2.75391 C0.559896,2.75391 0,2.27214 0,1.30859 C0,0.878906 0.136719,0.338542 0.410156,-0.3125 C0.670573,-0.9375 1.03516,-1.41276 1.50391,-1.73828 C2.50651,-2.41536 3.76302,-2.75391 5.27344,-2.75391"/>
<path class="Note" transform="matrix(0.850394,0,0,0.850394,104.079,110.126)" d="M4.39453,-2.75391 C5.01953,-2.75391 5.54688,-2.59115 5.97656,-2.26562 C6.38021,-1.91406 6.58203,-1.47135 6.58203,-0.9375 C6.58203,-0.0390625 6.11979,0.800781 5.19531,1.58203 C4.25781,2.36328 3.25521,2.75391 2.1875,2.75391 C1.5625,2.75391 1.03516,2.59115 0.605469,2.26562 C0.201823,1.91406 0,1.47135 0,0.9375 C0,0.0390625 0.46875,-0.800781 1.40625,-1.58203 C2.31771,-2.36328 3.3138,-2.75391 4.39453,-2.75391"/>
<path class="Note" transform="matrix(0.850394,0,0,0.850394,83.5263,105.874)" d="M4.39453,-2.75391 C5.01953,-2.75391 5.54688,-2.59115 5.97656,-2.26562 C6.38021,-1.91406 6.58203,-1.47135 6.58203,-0.9375 C6.58203,-0.0390625 6.11979,0.800781 5.19531,1.58203 C4.25781,2.36328 3.25521,2.75391 2.1875,2.75391 C1.5625,2.75391 1.03516,2.59115 0.605469,2.26562 C0.201823,1.91406 0,1.47135 0,0.9375 C0,0.0390625 0.46875,-0.800781 1.40625,-1.58203 C2.31771,-2.36328 3.3138,-2.75391 4.39453,-2.75391"/>
<path class="Note" transform="matrix(0.850394,0,0,0.850394,72.9915,108)" d="M4.39453,-2.75391 C5.01953,-2.75391 5.54688,-2.59115 5.97656,-2.26562 C6.38021,-1.91406 6.58203,-1.47135 6.58203,-0.9375 C6.58203,-0.0390625 6.11979,0.800781 5.19531,1.58203 C4.25781,2.36328 3.25521,2.75391 2.1875,2.75391 C1.5625,2.75391 1.03516,2.59115 0.605469,2.26562 C0.201823,1.91406 0,1.47135 0,0.9375 C0,0.0390625 0.46875,-0.800781 1.40625,-1.58203 C2.31771,-2.36328 3.3138,-2.75391 4.39453,-2.75391"/>
<path class="Note" transform="matrix(0.850394,0,0,0.850394,62.4568,110.126)" d="M4.39453,-2.75391 C5.01953,-2.75391 5.54688,-2.59115 5.97656,-2.26562 C6.38021,-1.91406 6.58203,-1.47135 6.58203,-0.9375 C6.58203,-0.0390625 6.11979,0.800781 5.19531,1.58203 C4.25781,2.36328 3.25521,2.75391 2.1875,2.75391 C1.5625,2.75391 1.03516,2.59115 0.605469,2.26562 C0.201823,1.91406 0,1.47135 0,0.9375 C0,0.0390625 0.46875,-0.800781 1.40625,-1.58203 C2.31771,-2.36328 3.3138,-2.75391 4.39453,-2.75391"/>
<path class="Note" transform="matrix(0.850394,0,0,0.850394,51.922,108)" d="M4.39453,-2.75391 C5.01953,-2.75391 5.54688,-2.59115 5.97656,-2.26562 C6.38021,-1.91406 6.58203,-1.47135 6.58203,-0.9375 C6.58203,-0.0390625 6.11979,0.800781 5.19531,1.58203 C4.25781,2.36328 3.25521,2.75391 2.1875,2.75391 C1.5625,2.75391 1.03516,2.59115 0.605469,2.26562 C0.201823,1.91406 0,1.47135 0,0.9375 C0,0.0390625 0.46875,-0.800781 1.40625,-1.58203 C2.31771,-2.36328 3.3138,-2.75391 4.39453,-2.75391"/>
<path class="Note" transform="matrix(0.850394,0,0,0.850394,31.3689,108)" d="M4.39453,-2.75391 C5.01953,-2.75391 5.54688,-2.59115 5.97656,-2.26562 C6.38021,-1.91406 6.58203,-1.47135 6.58203,-0.9375 C6.58203,-0.0390625 6.11979,0.800781 5.19531,1.58203 C4.25781,2.36328 3.25521,2.75391 2.1875,2.75391 C1.5625,2.75391 1.03516,2.59115 0.605469,2.26562 C0.201823,1.91406 0,1.47135 0,0.9375 C0,0.0390625 0.46875,-0.800781 1.40625,-1.58203 C2.31771,-2.36328 3.3138,-2.75391 4.39453,-2.75391"/>
<path class="Note" transform="matrix(0.850394,0,0,0.850394,237.61,37.8425)" d="M4.39453,-2.75391 C5.01953,-2.75391 5.54688,-2.59115 5.97656,-2.26562 C6.38021,-1.91406 6.58203,-1.47135 6.58203,-0.9375 C6.58203,-0.0390625 6.11979,0.800781 5.19531,1.58203 C4.25781,2.36328 3.25521,2.75391 2.1875,2.75391 C1.5625,2.75391 1.03516,2.59115 0.605469,2.26562 C0.201823,1.91406 0,1.47135 0,0.9375 C0,0.0390625 0.46875,-0.800781 1.40625,-1.58203 C2.31771,-2.36328 3.3138,-2.75391 4.39453,-2.75391"/>
<path class="Note" transform="matrix(0.850394,0,0,0.850394,210.493,35.7165)" d="M4.39453,-2.75391 C5.01953,-2.75391 5.54688,-2.59115 5.97656,-2.26562 C6.38021,-1.91406 6.58203,-1.47135 6.58203,-0.9375 C6.58203,-0.0390625 6.11979,0.800781 5.19531,1.58203 C4.25781,2.36328 3.25521,2.75391 2.1875,2.75391 C1.5625,2.75391 1.03516,2.59115 0.605469,2.26562 C0.201823,1.91406 0,1.47135 0,0.9375 C0,0.0390625 0.46875,-0.800781 1.40625,-1.58203 C2.31771,-2.36328 3.3138,-2.75391 4.39453,-2.75391"/>
<path class="Note" transform="matrix(0.850394,0,0,0.850394,157.587,42.0945)" d="M4.39453,-2.75391 C5.01953,-2.75391 5.54688,-2.59115 5.97656,-2.26562 C6.38021,-1.91406 6.58203,-1.47135 6.58203,-0.9375 C6.58203,-0.0390625 6.11979,0.800781 5.19531,1.58203 C4.25781,2.36328 3.25521,2.75391 2.1875,2.75391 C1.5625,2.75391 1.03516,2.59115 0.605469,2.26562 C0.201823,1.91406 0,1.47135 0,0.9375 C0,0.0390625 0.46875,-0.800781 1.40625,-1.58203 C2.31771,-2.36328 3.3138,-2.75391 4.39453,-2.75391"/>
<path class="Note" transform="matrix(0.850394,0,0,0.850394,109.672,39.9685)" d="M4.39453,-2.75391 C5.01953,-2.75391 5.54688,-2.59115 5.97656,-2.26562 C6.38021,-1.91406 6.58203,-1.47135 6.58203,-0.9375 C6.58203,-0.0390625 6.11979,0.800781 5.19531,1.58203 C4.25781,2.36328 3.25521,2.75391 2.1875,2.75391 C1.5625,2.75391 1.03516,2.59115 0.605469,2.26562 C0.201823,1.91406 0,1.47135 0,0.9375 C0,0.0390625 0.46875,-0.800781 1.40625,-1.58203 C2.31771,-2.36328 3.3138,-2.75391 4.39453,-2.75391"/>
<path class="Note" transform="matrix(0.850394,0,0,0.850394,83.3388,37.8425)" d="M4.39453,-2.75391 C5.01953,-2.75391 5.54688,-2.59115 5.97656,-2.26562 C6.38021,-1.91406 6.58203,-1.47135 6.58203,-0.9375 C6.58203,-0.0390625 6.11979,0.800781 5.19531,1.58203 C4.25781,2.36328 3.25521,2.75391 2.1875,2.75391 C1.5625,2.75391 1.03516,2.59115 0.605469,2.26562 C0.201823,1.91406 0,1.47135 0,0.9375 C0,0.0390625 0.46875,-0.800781 1.40625,-1.58203 C2.31771,-2.36328 3.3138,-2.75391 4.39453,-2.75391"/>
<path class="Note" transform="matrix(0.850394,0,0,0.850394,31.9642,44.2205)" d="M4.39453,-2.75391 C5.01953,-2.75391 5.54688,-2.59115 5.97656,-2.26562 C6.38021,-1.91406 6.58203,-1.47135 6.58203,-0.9375 C6.58203,-0.0390625 6.11979,0.800781 5.19531,1.58203 C4.25781,2.36328 3.25521,2.75391 2.1875,2.75391 C1.5625,2.75391 1.03516,2.59115 0.605469,2.26562 C0.201823,1.91406 0,1.47135 0,0.9375 C0,0.0390625 0.46875,-0.800781 1.40625,-1.58203 C2.31771,-2.36328 3.3138,-2.75391 4.39453,-2.75391"/>
<path class="Clef" transform="matrix(0.850394,0,0,0.850394,2.72126,116.504)" d="M7.34375,-5.11719 C7.34375,-5.11719 7.38281,-5.11719 7.46094,-5.11719 C7.51302,-5.13021 7.55859,-5.13672 7.59766,-5.13672 C9.05599,-5.13672 10.2539,-4.6224 11.1914,-3.59375 C12.1289,-2.57812 12.5977,-1.39323 12.5977,-0.0390625 C12.5977,1.64062 11.901,3.00781 10.5078,4.0625 C10.1432,4.34896 9.66797,4.58333 9.08203,4.76562 C9.14714,5.61198 9.17969,6.29557 9.17969,6.81641 C9.17969,6.92057 9.16667,7.29818 9.14062,7.94922 C9.08854,9.16016 8.67188,10.2083 7.89062,11.0938 C7.13542,11.9661 6.19792,12.4023 5.07812,12.4023 C4.02344,12.4023 3.125,12.0312 2.38281,11.2891 C1.64062,10.5339 1.26953,9.6224 1.26953,8.55469 C1.26953,7.99479 1.48438,7.51953 1.91406,7.12891 C2.35677,6.73828 2.87109,6.54297 3.45703,6.54297 C3.97786,6.54297 4.41406,6.74479 4.76562,7.14844 C5.13021,7.52604 5.3125,7.99479 5.3125,8.55469 C5.3125,9.0625 5.13021,9.4987 4.76562,9.86328 C4.40104,10.2279 3.96484,10.4102 3.45703,10.4102 C3.2487,10.4102 3.04688,10.3711 2.85156,10.293 C3.42448,11.1393 4.1862,11.5625 5.13672,11.5625 C6.03516,11.5625 6.77083,11.1979 7.34375,10.4688 C7.94271,9.71354 8.26823,8.83464 8.32031,7.83203 C8.34635,7.20703 8.35938,6.84896 8.35938,6.75781 C8.35938,6.02865 8.33333,5.42969 8.28125,4.96094 C7.63021,5.0651 7.05078,5.11719 6.54297,5.11719 C4.73307,5.11719 3.1901,4.40104 1.91406,2.96875 C0.664062,1.52344 0.0390625,-0.195312 0.0390625,-2.1875 C0.0390625,-2.60417 0.078125,-3.02734 0.15625,-3.45703 C0.234375,-3.80859 0.332031,-4.19271 0.449219,-4.60938 C0.514323,-4.84375 0.690104,-5.22135 0.976562,-5.74219 C1.08073,-5.89844 1.19792,-6.09375 1.32812,-6.32812 C1.45833,-6.5625 1.54948,-6.71875 1.60156,-6.79688 C1.73177,-7.05729 1.98568,-7.40885 2.36328,-7.85156 C2.46745,-7.96875 2.57487,-8.09896 2.68555,-8.24219 C2.79622,-8.38542 2.89062,-8.5026 2.96875,-8.59375 C3.04688,-8.6849 3.10547,-8.75651 3.14453,-8.80859 C3.18359,-8.86068 3.47656,-9.20573 4.02344,-9.84375 C4.15365,-9.97396 4.2806,-10.1139 4.4043,-10.2637 C4.52799,-10.4134 4.62891,-10.5306 4.70703,-10.6152 C4.78516,-10.6999 4.84375,-10.7617 4.88281,-10.8008 C4.41406,-12.3503 4.12109,-13.5872 4.00391,-14.5117 C3.91276,-15.2539 3.86719,-16.2695 3.86719,-17.5586 C3.86719,-18.6914 4.1276,-19.7526 4.64844,-20.7422 C5.15625,-21.7708 5.86589,-22.6107 6.77734,-23.2617 C6.84245,-23.3008 6.90755,-23.3203 6.97266,-23.3203 C7.0638,-23.3203 7.12891,-23.3008 7.16797,-23.2617 C7.87109,-22.4154 8.47656,-21.3151 8.98438,-19.9609 C9.50521,-18.6068 9.76562,-17.3763 9.76562,-16.2695 C9.76562,-15.0195 9.46615,-13.8477 8.86719,-12.7539 C8.1901,-11.5951 7.31771,-10.3971 6.25,-9.16016 C6.52344,-8.30078 6.88802,-6.95312 7.34375,-5.11719 M9.00391,3.96484 C9.68099,3.71745 10.2083,3.29427 10.5859,2.69531 C11.0026,2.1224 11.2109,1.47786 11.2109,0.761719 C11.2109,-0.16276 10.8984,-0.983073 10.2734,-1.69922 C9.63542,-2.44141 8.82161,-2.85807 7.83203,-2.94922 C8.39193,-0.201823 8.78255,2.10286 9.00391,3.96484 M1.44531,-0.546875 C1.44531,0.742188 1.96615,1.875 3.00781,2.85156 C4.07552,3.80208 5.27344,4.27734 6.60156,4.27734 C7.14844,4.27734 7.68229,4.23828 8.20312,4.16016 C7.99479,2.18099 7.58464,-0.188802 6.97266,-2.94922 C6.23047,-2.87109 5.63802,-2.61068 5.19531,-2.16797 C4.76562,-1.71224 4.55078,-1.19792 4.55078,-0.625 C4.55078,0.364583 5.07812,1.16536 6.13281,1.77734 C6.22396,1.86849 6.26953,1.96615 6.26953,2.07031 C6.26953,2.17448 6.22396,2.27214 6.13281,2.36328 C6.05469,2.45443 5.95703,2.5 5.83984,2.5 C5.82682,2.5 5.76823,2.48698 5.66406,2.46094 C4.92188,2.05729 4.34896,1.53646 3.94531,0.898438 C3.56771,0.221354 3.37891,-0.46224 3.37891,-1.15234 C3.37891,-2.05078 3.65885,-2.86458 4.21875,-3.59375 C4.80469,-4.32292 5.56641,-4.79167 6.50391,-5 C6.13932,-6.45833 5.83984,-7.59766 5.60547,-8.41797 C5.39714,-8.18359 5.14648,-7.90039 4.85352,-7.56836 C4.56055,-7.23633 4.38802,-7.03776 4.33594,-6.97266 C3.86719,-6.36068 3.50911,-5.88542 3.26172,-5.54688 C2.81901,-4.9349 2.49349,-4.40755 2.28516,-3.96484 C2.0638,-3.47005 1.86849,-2.92969 1.69922,-2.34375 C1.52995,-1.78385 1.44531,-1.1849 1.44531,-0.546875 M7.96875,-20.4102 C6.99219,-19.9284 6.22396,-19.2383 5.66406,-18.3398 C5.09115,-17.4154 4.80469,-16.4193 4.80469,-15.3516 C4.80469,-14.4141 5.03906,-13.151 5.50781,-11.5625 C6.44531,-12.6953 7.14844,-13.7435 7.61719,-14.707 C8.11198,-15.7227 8.35938,-16.7839 8.35938,-17.8906 C8.35938,-18.724 8.22917,-19.5638 7.96875,-20.4102"/>
<path class="Clef" transform="matrix(0.850394,0,0,0.850394,2.72126,35.7165)" d="M7.34375,-5.11719 C7.34375,-5.11719 7.38281,-5.11719 7.46094,-5.11719 C7.51302,-5.13021 7.55859,-5.13672 7.59766,-5.13672 C9.05599,-5.13672 10.2539,-4.6224 11.1914,-3.59375 C12.1289,-2.57812 12.5977,-1.39323 12.5977,-0.0390625 C12.5977,1.64062 11.901,3.00781 10.5078,4.0625 C10.1432,4.34896 9.66797,4.58333 9.08203,4.76562 C9.14714,5.61198 9.17969,6.29557 9.17969,6.81641 C9.17969,6.92057 9.16667,7.29818 9.14062,7.94922 C9.08854,9.16016 8.67188,10.2083 7.89062,11.0938 C7.13542,11.9661 6.19792,12.4023 5.07812,12.4023 C4.02344,12.4023 3.125,12.0312 2.38281,11.2891 C1.64062,10.5339 1.26953,9.6224 1.26953,8.55469 C1.26953,7.99479 1.48438,7.51953 1.91406,7.12891 C2.35677,6.73828 2.87109,6.54297 3.45703,6.54297 C3.97786,6.54297 4.41406,6.74479 4.76562,7.14844 C5.13021,7.52604 5.3125,7.99479 5.3125,8.55469 C5.3125,9.0625 5.13021,9.4987 4.76562,9.86328 C4.40104,10.2279 3.96484,10.4102 3.45703,10.4102 C3.2487,10.4102 3.04688,10.3711 2.85156,10.293 C3.42448,11.1393 4.1862,11.5625 5.13672,11.5625 C6.03516,11.5625 6.77083,11.1979 7.34375,10.4688 C7.94271,9.71354 8.26823,8.83464 8.32031,7.83203 C8.34635,7.20703 8.35938,6.84896 8.35938,6.75781 C8.35938,6.02865 8.33333,5.42969 8.28125,4.96094 C7.63021,5.0651 7.05078,5.11719 6.54297,5.11719 C4.73307,5.11719 3.1901,4.40104 1.91406,2.96875 C0.664062,1.52344 0.0390625,-0.195312 0.0390625,-2.1875 C0.0390625,-2.60417 0.078125,-3.02734 0.15625,-3.45703 C0.234375,-3.80859 0.332031,-4.19271 0.449219,-4.60938 C0.514323,-4.84375 0.690104,-5.22135 0.976562,-5.74219 C1.08073,-5.89844 1.19792,-6.09375 1.32812,-6.32812 C1.45833,-6.5625 1.54948,-6.71875 1.60156,-6.79688 C1.73177,-7.05729 1.98568,-7.40885 2.36328,-7.85156 C2.46745,-7.96875 2.57487,-8.09896 2.68555,-8.24219 C2.79622,-8.38542 2.89062,-8.5026 2.96875,-8.59375 C3.04688,-8.6849 3.10547,-8.75651 3.14453,-8.80859 C3.18359,-8.86068 3.47656,-9.20573 4.02344,-9.84375 C4.15365,-9.97396 4.2806,-10.1139 4.4043,-10.2637 C4.52799,-10.4134 4.62891,-10.5306 4.70703,-10.6152 C4.78516,-10.6999 4.84375,-10.7617 4.88281,-10.8008 C4.41406,-12.3503 4.12109,-13.5872 4.00391,-14.5117 C3.91276,-15.2539 3.86719,-16.2695 3.86719,-17.5586 C3.86719,-18.6914 4.1276,-19.7526 4.64844,-20.7422 C5.15625,-21.7708 5.86589,-22.6107 6.77734,-23.2617 C6.84245,-23.3008 6.90755,-23.3203 6.97266,-23.3203 C7.0638,-23.3203 7.12891,-23.3008 7.16797,-23.2617 C7.87109,-22.4154 8.47656,-21.3151 8.98438,-19.9609 C9.50521,-18.6068 9.76562,-17.3763 9.76562,-16.2695 C9.76562,-15.0195 9.46615,-13.8477 8.86719,-12.7539 C8.1901,-11.5951 7.31771,-10.3971 6.25,-9.16016 C6.52344,-8.30078 6.88802,-6.95312 7.34375,-5.11719 M9.00391,3.96484 C9.68099,3.71745 10.2083,3.29427 10.5859,2.69531 C11.0026,2.1224 11.2109,1.47786 11.2109,0.761719 C11.2109,-0.16276 10.8984,-0.983073 10.2734,-1.69922 C9.63542,-2.44141 8.82161,-2.85807 7.83203,-2.94922 C8.39193,-0.201823 8.78255,2.10286 9.00391,3.96484 M1.44531,-0.546875 C1.44531,0.742188 1.96615,1.875 3.00781,2.85156 C4.07552,3.80208 5.27344,4.27734 6.60156,4.27734 C7.14844,4.27734 7.68229,4.23828 8.20312,4.16016 C7.99479,2.18099 7.58464,-0.188802 6.97266,-2.94922 C6.23047,-2.87109 5.63802,-2.61068 5.19531,-2.16797 C4.76562,-1.71224 4.55078,-1.19792 4.55078,-0.625 C4.55078,0.364583 5.07812,1.16536 6.13281,1.77734 C6.22396,1.86849 6.26953,1.96615 6.26953,2.07031 C6.26953,2.17448 6.22396,2.27214 6.13281,2.36328 C6.05469,2.45443 5.95703,2.5 5.83984,2.5 C5.82682,2.5 5.76823,2.48698 5.66406,2.46094 C4.92188,2.05729 4.34896,1.53646 3.94531,0.898438 C3.56771,0.221354 3.37891,-0.46224 3.37891,-1.15234 C3.37891,-2.05078 3.65885,-2.86458 4.21875,-3.59375 C4.80469,-4.32292 5.56641,-4.79167 6.50391,-5 C6.13932,-6.45833 5.83984,-7.59766 5.60547,-8.41797 C5.39714,-8.18359 5.14648,-7.90039 4.85352,-7.56836 C4.56055,-7.23633 4.38802,-7.03776 4.33594,-6.97266 C3.86719,-6.36068 3.50911,-5.88542 3.26172,-5.54688 C2.81901,-4.9349 2.49349,-4.40755 2.28516,-3.96484 C2.0638,-3.47005 1.86849,-2.92969 1.69922,-2.34375 C1.52995,-1.78385 1.44531,-1.1849 1.44531,-0.546875 M7.96875,-20.4102 C6.99219,-19.9284 6.22396,-19.2383 5.66406,-18.3398 C5.09115,-17.4154 4.80469,-16.4193 4.80469,-15.3516 C4.80469,-14.4141 5.03906,-13.151 5.50781,-11.5625 C6.44531,-12.6953 7.14844,-13.7435 7.61719,-14.707 C8.11198,-15.7227 8.35938,-16.7839 8.35938,-17.8906 C8.35938,-18.724 8.22917,-19.5638 7.96875,-20.4102"/>
<path class="TimeSig" transform="matrix(0.850394,0,0,0.850394,17.9406,108)" d="M5.25391,-0.292969 C5.25391,-0.16276 5.32552,-0.0390625 5.46875,0.078125 C5.67708,0.234375 5.83984,0.351562 5.95703,0.429688 C6.11328,0.520833 6.27604,0.729167 6.44531,1.05469 C6.58854,1.36719 6.66016,1.7513 6.66016,2.20703 C6.66016,3.10547 6.32812,3.79557 5.66406,4.27734 C4.98698,4.75911 4.1276,5 3.08594,5 C2.23958,5 1.52344,4.79167 0.9375,4.375 C0.3125,3.98438 0,3.4375 0,2.73438 C0,2.39583 0.130208,2.08333 0.390625,1.79688 C0.664062,1.54948 0.976562,1.42578 1.32812,1.42578 C1.69271,1.42578 1.99219,1.55599 2.22656,1.81641 C2.48698,2.0638 2.61719,2.36979 2.61719,2.73438 C2.61719,2.90365 2.48698,3.08594 2.22656,3.28125 C1.95312,3.46354 1.81641,3.63932 1.81641,3.80859 C1.81641,4.05599 1.9401,4.23828 2.1875,4.35547 C2.44792,4.47266 2.7474,4.53125 3.08594,4.53125 C3.54167,4.53125 3.86719,4.3099 4.0625,3.86719 C4.24479,3.38542 4.33594,2.83203 4.33594,2.20703 L4.33594,1.875 C4.33594,1.4974 4.32292,1.16536 4.29688,0.878906 C4.27083,0.657552 4.17969,0.455729 4.02344,0.273438 C3.88021,0.0911458 3.65234,0 3.33984,0 L1.73828,0 C1.55599,0 1.46484,-0.0976562 1.46484,-0.292969 C1.46484,-0.46224 1.55599,-0.559896 1.73828,-0.585938 L3.33984,-0.585938 C3.70443,-0.585938 3.96484,-0.703125 4.12109,-0.9375 C4.2513,-1.11979 4.32292,-1.44531 4.33594,-1.91406 L4.33594,-2.55859 L4.33594,-2.71484 C4.33594,-3.92578 3.89323,-4.53125 3.00781,-4.53125 C2.22656,-4.53125 1.82943,-4.31641 1.81641,-3.88672 C1.81641,-3.74349 1.9401,-3.58724 2.1875,-3.41797 C2.42188,-3.2487 2.53906,-3.09245 2.53906,-2.94922 C2.53906,-2.6237 2.42188,-2.34375 2.1875,-2.10938 C1.96615,-1.88802 1.69271,-1.77734 1.36719,-1.77734 C1.05469,-1.77734 0.78776,-1.88802 0.566406,-2.10938 C0.345052,-2.35677 0.234375,-2.63672 0.234375,-2.94922 C0.234375,-3.5612 0.507812,-4.0625 1.05469,-4.45312 C1.6276,-4.81771 2.27865,-5 3.00781,-5 C3.98438,-5 4.79167,-4.8112 5.42969,-4.43359 C6.06771,-4.06901 6.38672,-3.49609 6.38672,-2.71484 C6.38672,-2.15495 6.32812,-1.73177 6.21094,-1.44531 C6.09375,-1.14583 5.96354,-0.963542 5.82031,-0.898438 C5.66406,-0.833333 5.53385,-0.755208 5.42969,-0.664062 C5.3125,-0.559896 5.25391,-0.436198 5.25391,-0.292969"/>
<path class="TimeSig" transform="matrix(0.850394,0,0,0.850394,17.635,116.504)" d="M4.57031,5 C4.17969,5 3.82812,4.92839 3.51562,4.78516 C3.20312,4.64193 2.98177,4.49219 2.85156,4.33594 C2.68229,4.14062 2.51302,3.99089 2.34375,3.88672 C2.13542,3.74349 1.92057,3.67188 1.69922,3.67188 C1.36068,3.67188 1.08073,3.77604 0.859375,3.98438 C0.625,4.17969 0.494792,4.44661 0.46875,4.78516 C0.442708,4.92839 0.364583,5 0.234375,5 C0.078125,5 0,4.92839 0,4.78516 C0,4.27734 0.117188,3.82161 0.351562,3.41797 C0.585938,3.0013 0.872396,2.65625 1.21094,2.38281 C1.4974,2.13542 1.875,1.83594 2.34375,1.48438 C2.42188,1.41927 2.58789,1.28255 2.8418,1.07422 C3.0957,0.865885 3.30729,0.690104 3.47656,0.546875 C3.8151,0.260417 4.10807,-0.117188 4.35547,-0.585938 C4.58984,-1.05469 4.70703,-1.5625 4.70703,-2.10938 C4.70703,-2.77344 4.59635,-3.34635 4.375,-3.82812 C4.14062,-4.29688 3.78255,-4.53125 3.30078,-4.53125 C3.0013,-4.53125 2.76042,-4.46615 2.57812,-4.33594 C2.38281,-4.20573 2.28516,-4.02995 2.28516,-3.80859 C2.28516,-3.6263 2.40234,-3.39844 2.63672,-3.125 C2.87109,-2.85156 2.98828,-2.6237 2.98828,-2.44141 C2.98828,-2.05078 2.85156,-1.71875 2.57812,-1.44531 C2.31771,-1.1849 1.9987,-1.05469 1.62109,-1.05469 C1.23047,-1.05469 0.898438,-1.19141 0.625,-1.46484 C0.364583,-1.7513 0.234375,-2.07682 0.234375,-2.44141 C0.234375,-3.18359 0.533854,-3.79557 1.13281,-4.27734 C1.73177,-4.75911 2.45443,-5 3.30078,-5 C4.30339,-5 5.17578,-4.72656 5.91797,-4.17969 C6.66016,-3.65885 7.03125,-2.96875 7.03125,-2.10938 C7.03125,-1.52344 6.92708,-1.02214 6.71875,-0.605469 C6.52344,-0.16276 6.23047,0.182292 5.83984,0.429688 C5.39714,0.716146 5.01302,0.9375 4.6875,1.09375 C4.23177,1.30208 3.77604,1.4974 3.32031,1.67969 C2.77344,1.90104 2.35026,2.10938 2.05078,2.30469 C2.22005,2.26562 2.39583,2.24609 2.57812,2.24609 C3.17708,2.24609 3.80208,2.44141 4.45312,2.83203 C5.11719,3.22266 5.63151,3.41797 5.99609,3.41797 C6.21745,3.41797 6.39323,3.37891 6.52344,3.30078 C6.65365,3.22266 6.73828,3.13802 6.77734,3.04688 C6.82943,2.91667 6.875,2.82552 6.91406,2.77344 C6.96615,2.69531 7.03125,2.65625 7.10938,2.65625 C7.26562,2.65625 7.34375,2.73438 7.34375,2.89062 C7.34375,3.25521 7.08333,3.69792 6.5625,4.21875 C6.05469,4.73958 5.39062,5 4.57031,5"/>
<path class="TimeSig" transform="matrix(0.850394,0,0,0.850394,18.318,27.2126)" d="M5.25391,-0.292969 C5.25391,-0.16276 5.32552,-0.0390625 5.46875,0.078125 C5.67708,0.234375 5.83984,0.351562 5.95703,0.429688 C6.11328,0.520833 6.27604,0.729167 6.44531,1.05469 C6.58854,1.36719 6.66016,1.7513 6.66016,2.20703 C6.66016,3.10547 6.32812,3.79557 5.66406,4.27734 C4.98698,4.75911 4.1276,5 3.08594,5 C2.23958,5 1.52344,4.79167 0.9375,4.375 C0.3125,3.98438 0,3.4375 0,2.73438 C0,2.39583 0.130208,2.08333 0.390625,1.79688 C0.664062,1.54948 0.976562,1.42578 1.32812,1.42578 C1.69271,1.42578 1.99219,1.55599 2.22656,1.81641 C2.48698,2.0638 2.61719,2.36979 2.61719,2.73438 C2.61719,2.90365 2.48698,3.08594 2.22656,3.28125 C1.95312,3.46354 1.81641,3.63932 1.81641,3.80859 C1.81641,4.05599 1.9401,4.23828 2.1875,4.35547 C2.44792,4.47266 2.7474,4.53125 3.08594,4.53125 C3.54167,4.53125 3.86719,4.3099 4.0625,3.86719 C4.24479,3.38542 4.33594,2.83203 4.33594,2.20703 L4.33594,1.875 C4.33594,1.4974 4.32292,1.16536 4.29688,0.878906 C4.27083,0.657552 4.17969,0.455729 4.02344,0.273438 C3.88021,0.0911458 3.65234,0 3.33984,0 L1.73828,0 C1.55599,0 1.46484,-0.0976562 1.46484,-0.292969 C1.46484,-0.46224 1.55599,-0.559896 1.73828,-0.585938 L3.33984,-0.585938 C3.70443,-0.585938 3.96484,-0.703125 4.12109,-0.9375 C4.2513,-1.11979 4.32292,-1.44531 4.33594,-1.91406 L4.33594,-2.55859 L4.33594,-2.71484 C4.33594,-3.92578 3.89323,-4.53125 3.00781,-4.53125 C2.22656,-4.53125 1.82943,-4.31641 1.81641,-3.88672 C1.81641,-3.74349 1.9401,-3.58724 2.1875,-3.41797 C2.42188,-3.2487 2.53906,-3.09245 2.53906,-2.94922 C2.53906,-2.6237 2.42188,-2.34375 2.1875,-2.10938 C1.96615,-1.88802 1.69271,-1.77734 1.36719,-1.77734 C1.05469,-1.77734 0.78776,-1.88802 0.566406,-2.10938 C0.345052,-2.35677 0.234375,-2.63672 0.234375,-2.94922 C0.234375,-3.5612 0.507812,-4.0625 1.05469,-4.45312 C1.6276,-4.81771 2.27865,-5 3.00781,-5 C3.98438,-5 4.79167,-4.8112 5.42969,-4.43359 C6.06771,-4.06901 6.38672,-3.49609 6.38672,-2.71484 C6.38672,-2.15495 6.32812,-1.73177 6.21094,-1.44531 C6.09375,-1.14583 5.96354,-0.963542 5.82031,-0.898438 C5.66406,-0.833333 5.53385,-0.755208 5.42969,-0.664062 C5.3125,-0.559896 5.25391,-0.436198 5.25391,-0.292969"/>
<path class="TimeSig" transform="matrix(0.850394,0,0,0.850394,17.7201,35.7165)" d="M4.49219,-4.74609 C4.88281,-4.74609 5.21484,-4.79167 5.48828,-4.88281 C5.76172,-4.97396 5.9375,-5.01953 6.01562,-5.01953 C6.10677,-5.01953 6.17839,-4.99349 6.23047,-4.94141 C6.26953,-4.90234 6.29557,-4.85677 6.30859,-4.80469 C6.30859,-4.77865 6.29557,-4.73958 6.26953,-4.6875 L0.585938,1.91406 L3.92578,1.91406 L3.92578,-0.703125 C3.92578,-0.872396 3.97135,-1.01562 4.0625,-1.13281 C4.21875,-1.26302 4.34896,-1.34115 4.45312,-1.36719 C4.6224,-1.44531 4.83073,-1.6276 5.07812,-1.91406 C5.28646,-2.14844 5.53385,-2.55859 5.82031,-3.14453 C5.85938,-3.22266 5.91797,-3.26172 5.99609,-3.26172 C6.15234,-3.26172 6.24349,-3.17057 6.26953,-2.98828 L6.26953,1.91406 L7.69531,1.91406 C7.8776,1.91406 7.98177,2.01172 8.00781,2.20703 C8.00781,2.40234 7.90365,2.5 7.69531,2.5 L6.26953,2.5 L6.26953,2.65625 C6.26953,3.17708 6.39974,3.61979 6.66016,3.98438 C6.95964,4.34896 7.3112,4.53125 7.71484,4.53125 C7.87109,4.53125 7.94922,4.60938 7.94922,4.76562 C7.94922,4.92188 7.87109,5 7.71484,5 C7.44141,5 6.9987,4.96094 6.38672,4.88281 C5.82682,4.79167 5.39062,4.74609 5.07812,4.74609 C4.7526,4.74609 4.31641,4.79167 3.76953,4.88281 C3.18359,4.96094 2.7474,5 2.46094,5 C2.30469,5 2.22656,4.92188 2.22656,4.76562 C2.22656,4.60938 2.30469,4.53125 2.46094,4.53125 C2.86458,4.53125 3.21615,4.34896 3.51562,3.98438 C3.78906,3.61979 3.92578,3.17708 3.92578,2.65625 L3.92578,2.5 L0.585938,2.5 C0.364583,2.5 0.208333,2.44792 0.117188,2.34375 C0.0130208,2.26562 -0.0390625,2.16146 -0.0390625,2.03125 C-0.0390625,1.99219 0.0585938,1.85547 0.253906,1.62109 C0.47526,1.36068 0.709635,1.04167 0.957031,0.664062 C1.24349,0.221354 1.51693,-0.234375 1.77734,-0.703125 C2.0638,-1.23698 2.29167,-1.84896 2.46094,-2.53906 C2.65625,-3.24219 2.75391,-3.95833 2.75391,-4.6875 C2.75391,-4.89583 2.84505,-5 3.02734,-5 C3.06641,-5 3.15104,-4.98047 3.28125,-4.94141 C3.32031,-4.92839 3.40169,-4.90885 3.52539,-4.88281 C3.64909,-4.85677 3.75,-4.83073 3.82812,-4.80469 C4.0625,-4.76562 4.28385,-4.74609 4.49219,-4.74609"/>
<path class="Beam" fill-rule="evenodd" d="M178.453,122.882 L200.702,122.882 L200.702,125.008 L178.453,125.008 L178.453,122.882 "/>
<path class="Beam" fill-rule="evenodd" d="M51.922,122.882 L73.5443,122.882 L73.5443,125.008 L51.922,125.008 L51.922,122.882 "/>
<path class="Hook" transform="matrix(0.850394,0,0,0.850394,215.538,21.3661)" d="M0,5 L0,0 L0.625,0 C0.625,0.742188 0.768229,1.48438 1.05469,2.22656 C1.36719,3.03385 1.71224,3.73698 2.08984,4.33594 C2.36328,4.76562 2.77344,5.42318 3.32031,6.30859 C3.73698,6.98568 4.08854,7.69531 4.375,8.4375 C4.66146,9.17969 4.80469,9.92188 4.80469,10.6641 C4.80469,12.0182 4.52474,13.3984 3.96484,14.8047 C3.8737,14.9609 3.75,15.0391 3.59375,15.0391 C3.46354,15.0391 3.34635,14.987 3.24219,14.8828 C3.16406,14.8047 3.125,14.707 3.125,14.5898 L3.125,14.4922 C3.6849,13.2031 3.96484,11.9271 3.96484,10.6641 C3.96484,10.013 3.76953,9.3099 3.37891,8.55469 C2.98828,7.78646 2.59115,7.17448 2.1875,6.71875 C1.73177,6.1849 1.21094,5.61198 0.625,5 L0,5 "/>
<path class="Hook" transform="matrix(0.850394,0,0,0.850394,88.3841,22.9606)" d="M0,5 L0,0 L0.625,0 C0.625,0.742188 0.768229,1.48438 1.05469,2.22656 C1.36719,3.03385 1.71224,3.73698 2.08984,4.33594 C2.36328,4.76562 2.77344,5.42318 3.32031,6.30859 C3.73698,6.98568 4.08854,7.69531 4.375,8.4375 C4.66146,9.17969 4.80469,9.92188 4.80469,10.6641 C4.80469,12.0182 4.52474,13.3984 3.96484,14.8047 C3.8737,14.9609 3.75,15.0391 3.59375,15.0391 C3.46354,15.0391 3.34635,14.987 3.24219,14.8828 C3.16406,14.8047 3.125,14.707 3.125,14.5898 L3.125,14.4922 C3.6849,13.2031 3.96484,11.9271 3.96484,10.6641 C3.96484,10.013 3.76953,9.3099 3.37891,8.55469 C2.98828,7.78646 2.59115,7.17448 2.1875,6.71875 C1.73177,6.1849 1.21094,5.61198 0.625,5 L0,5 "/>
<path class="Tuplet" d="M188.311,129.568 C189.745,129.334 190.462,128.836 190.462,128.074 C190.462,127.828 190.389,127.63 190.242,127.48 C190.095,127.33 189.901,127.255 189.661,127.255 C189.295,127.255 188.959,127.456 188.653,127.858 L188.509,127.813 C188.659,127.525 188.865,127.297 189.126,127.129 C189.387,126.961 189.673,126.877 189.985,126.877 C190.345,126.877 190.645,126.985 190.885,127.201 C191.125,127.417 191.245,127.69 191.245,128.02 C191.245,128.326 191.148,128.572 190.953,128.758 C190.758,128.944 190.387,129.142 189.841,129.352 L189.841,129.379 C190.417,129.643 190.705,130.09 190.705,130.72 C190.705,131.344 190.474,131.884 190.012,132.34 C189.55,132.796 188.944,133.024 188.194,133.024 C187.522,133.024 187.186,132.847 187.186,132.493 C187.186,132.259 187.318,132.142 187.582,132.142 C187.732,132.142 187.933,132.232 188.185,132.412 C188.437,132.592 188.644,132.682 188.806,132.682 C189.13,132.682 189.408,132.546 189.639,132.273 C189.87,132 189.985,131.644 189.985,131.206 C189.985,130.642 189.844,130.252 189.562,130.036 C189.28,129.82 188.863,129.712 188.311,129.712 L188.311,129.568 "/>
<path class="Tuplet" d="M61.4668,129.568 C62.9008,129.334 63.6178,128.836 63.6178,128.074 C63.6178,127.828 63.5443,127.63 63.3973,127.48 C63.2503,127.33 63.0568,127.255 62.8168,127.255 C62.4508,127.255 62.1148,127.456 61.8088,127.858 L61.6648,127.813 C61.8148,127.525 62.0203,127.297 62.2813,127.129 C62.5423,126.961 62.8288,126.877 63.1408,126.877 C63.5008,126.877 63.8008,126.985 64.0408,127.201 C64.2808,127.417 64.4008,127.69 64.4008,128.02 C64.4008,128.326 64.3033,128.572 64.1083,128.758 C63.9133,128.944 63.5428,129.142 62.9968,129.352 L62.9968,129.379 C63.5728,129.643 63.8608,130.09 63.8608,130.72 C63.8608,131.344 63.6298,131.884 63.1678,132.34 C62.7058,132.796 62.0998,133.024 61.3498,133.024 C60.6778,133.024 60.3418,132.847 60.3418,132.493 C60.3418,132.259 60.4738,132.142 60.7378,132.142 C60.8878,132.142 61.0888,132.232 61.3408,132.412 C61.5928,132.592 61.7998,132.682 61.9618,132.682 C62.2858,132.682 62.5633,132.546 62.7943,132.273 C63.0253,132 63.1408,131.644 63.1408,131.206 C63.1408,130.642 62.9998,130.252 62.7178,130.036 C62.4358,129.82 62.0188,129.712 61.4668,129.712 L61.4668,129.568 "/>
<path class="StaffText" d="M273.95,133.59 C274.088,133.59 274.207,133.641 274.306,133.743 C274.405,133.845 274.454,133.965 274.454,134.103 C274.454,134.235 274.403,134.349 274.301,134.445 C274.199,134.541 274.079,134.589 273.941,134.589 C273.809,134.589 273.695,134.541 273.599,134.445 C273.503,134.349 273.455,134.235 273.455,134.103 C273.455,133.965 273.505,133.845 273.604,133.743 C273.703,133.641 273.818,133.59 273.95,133.59 M276.2,133.59 C276.338,133.59 276.457,133.641 276.556,133.743 C276.655,133.845 276.704,133.965 276.704,134.103 C276.704,134.235 276.653,134.349 276.551,134.445 C276.449,134.541 276.329,134.589 276.191,134.589 C276.059,134.589 275.945,134.541 275.849,134.445 C275.753,134.349 275.705,134.235 275.705,134.103 C275.705,133.965 275.755,133.845 275.854,133.743 C275.953,133.641 276.068,133.59 276.2,133.59 M278.45,133.59 C278.588,133.59 278.707,133.641 278.806,133.743 C278.905,133.845 278.954,133.965 278.954,134.103 C278.954,134.235 278.903,134.349 278.801,134.445 C278.699,134.541 278.579,134.589 278.441,134.589 C278.309,134.589 278.195,134.541 278.099,134.445 C278.003,134.349 277.955,134.235 277.955,134.103 C277.955,133.965 278.005,133.845 278.104,133.743 C278.203,133.641 278.318,133.59 278.45,133.59"/>
<path class="StaffText" d="M20.1969,139.08 L20.1609,139.053 L20.1609,138.477 C19.8729,138.879 19.4889,139.08 19.0089,139.08 C18.5109,139.08 18.1089,138.902 17.8029,138.545 C17.4969,138.188 17.3439,137.721 17.3439,137.145 C17.3439,136.509 17.5269,135.968 17.8929,135.521 C18.2589,135.074 18.6999,134.85 19.2159,134.85 C19.5399,134.85 19.8549,134.979 20.1609,135.237 L20.1609,133.833 C20.1609,133.647 20.1339,133.524 20.0799,133.464 C20.0259,133.404 19.9149,133.374 19.7469,133.374 C19.6629,133.374 19.5969,133.377 19.5489,133.383 L19.5489,133.239 C20.0949,133.095 20.5359,132.963 20.8719,132.843 L20.9169,132.861 L20.9169,137.964 C20.9169,138.174 20.9424,138.312 20.9934,138.378 C21.0444,138.444 21.1509,138.477 21.3129,138.477 C21.3429,138.477 21.4119,138.474 21.5199,138.468 L21.5199,138.612 L20.1969,139.08 M19.3599,138.612 C19.5879,138.612 19.7784,138.548 19.9314,138.419 C20.0844,138.29 20.1609,138.174 20.1609,138.072 L20.1609,136.002 C20.1609,135.762 20.0679,135.552 19.8819,135.372 C19.6959,135.192 19.4829,135.102 19.2429,135.102 C18.9009,135.102 18.6279,135.255 18.4239,135.561 C18.2199,135.867 18.1179,136.275 18.1179,136.785 C18.1179,137.337 18.2319,137.78 18.4599,138.113 C18.6879,138.446 18.9879,138.612 19.3599,138.612 M21.9543,136.677 L24.1683,136.677 L24.1683,137.244 L21.9543,137.244 L21.9543,136.677 M27.6656,139.08 L27.6296,139.053 L27.6296,138.477 C27.3416,138.879 26.9576,139.08 26.4776,139.08 C25.9796,139.08 25.5776,138.902 25.2716,138.545 C24.9656,138.188 24.8126,137.721 24.8126,137.145 C24.8126,136.509 24.9956,135.968 25.3616,135.521 C25.7276,135.074 26.1686,134.85 26.6846,134.85 C27.0086,134.85 27.3236,134.979 27.6296,135.237 L27.6296,133.833 C27.6296,133.647 27.6026,133.524 27.5486,133.464 C27.4946,133.404 27.3836,133.374 27.2156,133.374 C27.1316,133.374 27.0656,133.377 27.0176,133.383 L27.0176,133.239 C27.5636,133.095 28.0046,132.963 28.3406,132.843 L28.3856,132.861 L28.3856,137.964 C28.3856,138.174 28.4111,138.312 28.4621,138.378 C28.5131,138.444 28.6196,138.477 28.7816,138.477 C28.8116,138.477 28.8806,138.474 28.9886,138.468 L28.9886,138.612 L27.6656,139.08 M26.8286,138.612 C27.0566,138.612 27.2471,138.548 27.4001,138.419 C27.5531,138.29 27.6296,138.174 27.6296,138.072 L27.6296,136.002 C27.6296,135.762 27.5366,135.552 27.3506,135.372 C27.1646,135.192 26.9516,135.102 26.7116,135.102 C26.3696,135.102 26.0966,135.255 25.8926,135.561 C25.6886,135.867 25.5866,136.275 25.5866,136.785 C25.5866,137.337 25.7006,137.78 25.9286,138.113 C26.1566,138.446 26.4566,138.612 26.8286,138.612 M30.908,134.445 L30.548,134.445 L31.871,133.113 C32.009,132.975 32.135,132.906 32.249,132.906 C32.459,132.906 32.564,133.002 32.564,133.194 C32.564,133.332 32.474,133.458 32.294,133.572 L30.908,134.445 M31.286,134.85 C31.862,134.85 32.336,135.042 32.708,135.426 C33.08,135.81 33.266,136.296 33.266,136.884 C33.266,137.508 33.074,138.03 32.69,138.45 C32.306,138.87 31.832,139.08 31.268,139.08 C30.704,139.08 30.2345,138.878 29.8595,138.473 C29.4845,138.068 29.297,137.562 29.297,136.956 C29.297,136.338 29.4815,135.833 29.8505,135.44 C30.2195,135.047 30.698,134.85 31.286,134.85 M30.107,136.515 C30.107,137.157 30.224,137.703 30.458,138.153 C30.692,138.603 30.998,138.828 31.376,138.828 C31.712,138.828 31.976,138.684 32.168,138.396 C32.36,138.108 32.456,137.709 32.456,137.199 C32.456,136.581 32.336,136.077 32.096,135.687 C31.856,135.297 31.547,135.102 31.169,135.102 C30.851,135.102 30.5945,135.231 30.3995,135.489 C30.2045,135.747 30.107,136.089 30.107,136.515 M36.1873,135.732 C36.0973,135.732 35.9863,135.68 35.8543,135.575 C35.7223,135.47 35.6353,135.417 35.5933,135.417 C35.4733,135.417 35.3383,135.504 35.1883,135.678 C35.0383,135.852 34.9633,136.011 34.9633,136.155 L34.9633,138.18 C34.9633,138.438 35.0143,138.612 35.1163,138.702 C35.2183,138.792 35.4223,138.843 35.7283,138.855 L35.7283,138.99 L33.5683,138.99 L33.5683,138.855 C33.8563,138.801 34.0348,138.741 34.1038,138.675 C34.1728,138.609 34.2073,138.462 34.2073,138.234 L34.2073,135.984 C34.2073,135.786 34.1848,135.647 34.1398,135.566 C34.0948,135.485 34.0153,135.444 33.9013,135.444 C33.8053,135.444 33.7003,135.456 33.5863,135.48 L33.5863,135.336 C34.0663,135.18 34.5103,135.018 34.9183,134.85 L34.9633,134.868 L34.9633,135.696 C35.1853,135.378 35.3743,135.158 35.5303,135.035 C35.6863,134.912 35.8573,134.85 36.0433,134.85 C36.1993,134.85 36.3208,134.892 36.4078,134.976 C36.4948,135.06 36.5383,135.177 36.5383,135.327 C36.5383,135.453 36.5068,135.552 36.4438,135.624 C36.3808,135.696 36.2953,135.732 36.1873,135.732"/>
<path class="StaffText" d="M258.235,52.8028 C258.373,52.8028 258.492,52.8538 258.591,52.9558 C258.69,53.0578 258.739,53.1778 258.739,53.3158 C258.739,53.4478 258.688,53.5618 258.586,53.6578 C258.484,53.7538 258.364,53.8018 258.226,53.8018 C258.094,53.8018 257.98,53.7538 257.884,53.6578 C257.788,53.5618 257.74,53.4478 257.74,53.3158 C257.74,53.1778 257.79,53.0578 257.889,52.9558 C257.988,52.8538 258.103,52.8028 258.235,52.8028 M260.485,52.8028 C260.623,52.8028 260.742,52.8538 260.841,52.9558 C260.94,53.0578 260.989,53.1778 260.989,53.3158 C260.989,53.4478 260.938,53.5618 260.836,53.6578 C260.734,53.7538 260.614,53.8018 260.476,53.8018 C260.344,53.8018 260.23,53.7538 260.134,53.6578 C260.038,53.5618 259.99,53.4478 259.99,53.3158 C259.99,53.1778 260.04,53.0578 260.139,52.9558 C260.238,52.8538 260.353,52.8028 260.485,52.8028 M262.735,52.8028 C262.873,52.8028 262.992,52.8538 263.091,52.9558 C263.19,53.0578 263.239,53.1778 263.239,53.3158 C263.239,53.4478 263.188,53.5618 263.086,53.6578 C262.984,53.7538 262.864,53.8018 262.726,53.8018 C262.594,53.8018 262.48,53.7538 262.384,53.6578 C262.288,53.5618 262.24,53.4478 262.24,53.3158 C262.24,53.1778 262.29,53.0578 262.389,52.9558 C262.488,52.8538 262.603,52.8028 262.735,52.8028"/>
<path class="StaffText" d="M18.0292,55.2777 C18.0292,54.3417 18.3172,53.5812 18.8932,52.9962 C19.4692,52.4112 20.1862,52.1187 21.0442,52.1187 C21.4282,52.1187 21.7882,52.1682 22.1242,52.2672 C22.4602,52.3662 22.6552,52.4157 22.7092,52.4157 C22.9072,52.4157 23.0332,52.3167 23.0872,52.1187 L23.2762,52.1187 L23.3572,54.1527 L23.1502,54.1527 C22.8202,53.0367 22.1752,52.4787 21.2152,52.4787 C20.5612,52.4787 20.0407,52.7217 19.6537,53.2077 C19.2667,53.6937 19.0732,54.3447 19.0732,55.1607 C19.0732,55.6827 19.1407,56.1342 19.2757,56.5152 C19.4107,56.8962 19.5922,57.1842 19.8202,57.3792 C20.0482,57.5742 20.2837,57.7152 20.5267,57.8022 C20.7697,57.8892 21.0292,57.9327 21.3052,57.9327 C22.0132,57.9327 22.6822,57.6297 23.3122,57.0237 L23.4742,57.1857 C23.1982,57.5517 22.8472,57.8337 22.4212,58.0317 C21.9952,58.2297 21.5272,58.3287 21.0172,58.3287 C20.1292,58.3287 19.4092,58.0497 18.8572,57.4917 C18.3052,56.9337 18.0292,56.1957 18.0292,55.2777 M24.9538,54.0717 C25.0918,54.0717 25.2103,54.1227 25.3093,54.2247 C25.4083,54.3267 25.4578,54.4467 25.4578,54.5847 C25.4578,54.7167 25.4068,54.8307 25.3048,54.9267 C25.2028,55.0227 25.0828,55.0707 24.9448,55.0707 C24.8128,55.0707 24.6988,55.0227 24.6028,54.9267 C24.5068,54.8307 24.4588,54.7167 24.4588,54.5847 C24.4588,54.4467 24.5083,54.3267 24.6073,54.2247 C24.7063,54.1227 24.8218,54.0717 24.9538,54.0717 M24.9538,57.3027 C25.0918,57.3027 25.2103,57.3537 25.3093,57.4557 C25.4083,57.5577 25.4578,57.6777 25.4578,57.8157 C25.4578,57.9477 25.4068,58.0617 25.3048,58.1577 C25.2028,58.2537 25.0828,58.3017 24.9448,58.3017 C24.8128,58.3017 24.6988,58.2537 24.6028,58.1577 C24.5068,58.0617 24.4588,57.9477 24.4588,57.8157 C24.4588,57.6777 24.5083,57.5577 24.6073,57.4557 C24.7063,57.3537 24.8218,57.3027 24.9538,57.3027"/>
<path class="NoteDot" transform="matrix(0.850394,0,0,0.850394,164.673,42.0945)" d="M0.332031,0.800781 C0.110677,0.579427 0,0.3125 0,0 C0,-0.3125 0.110677,-0.579427 0.332031,-0.800781 C0.553385,-1.02214 0.820312,-1.13281 1.13281,-1.13281 C1.44531,-1.13281 1.71224,-1.02214 1.93359,-0.800781 C2.15495,-0.579427 2.26562,-0.3125 2.26562,0 C2.26562,0.3125 2.15495,0.579427 1.93359,0.800781 C1.71224,1.02214 1.44531,1.13281 1.13281,1.13281 C0.820312,1.13281 0.553385,1.02214 0.332031,0.800781"/>
<path class="NoteDot" transform="matrix(0.850394,0,0,0.850394,39.0503,42.0945)" d="M0.332031,0.800781 C0.110677,0.579427 0,0.3125 0,0 C0,-0.3125 0.110677,-0.579427 0.332031,-0.800781 C0.553385,-1.02214 0.820312,-1.13281 1.13281,-1.13281 C1.44531,-1.13281 1.71224,-1.02214 1.93359,-0.800781 C2.15495,-0.579427 2.26562,-0.3125 2.26562,0 C2.26562,0.3125 2.15495,0.579427 1.93359,0.800781 C1.71224,1.02214 1.44531,1.13281 1.13281,1.13281 C0.820312,1.13281 0.553385,1.02214 0.332031,0.800781"/>
</svg>
