<?xml version="1.0" encoding="UTF-8" standalone="no"?>
<svg width="255.785px" height="90.1498px" viewBox="0 0 255.785 90.1498"
 xmlns="http://www.w3.org/2000/svg" xmlns:xlink="http://www.w3.org/1999/xlink" version="1.2" baseProfile="tiny">
<title>Liturgikus improvizáció</title>
<desc>Generated by MuseScore 2.3.2</desc>
<polyline class="StaffLines" fill="none" stroke="#000000" stroke-width="0.34" stroke-linejoin="bevel" points="7.14331,9.84331 255.785,9.84331"/>
<polyline class="StaffLines" fill="none" stroke="#000000" stroke-width="0.34" stroke-linejoin="bevel" points="7.14331,14.0953 255.785,14.0953"/>
<polyline class="StaffLines" fill="none" stroke="#000000" stroke-width="0.34" stroke-linejoin="bevel" points="7.14331,18.3472 255.785,18.3472"/>
<polyline class="StaffLines" fill="none" stroke="#000000" stroke-width="0.34" stroke-linejoin="bevel" points="7.14331,22.5992 255.785,22.5992"/>
<polyline class="StaffLines" fill="none" stroke="#000000" stroke-width="0.34" stroke-linejoin="bevel" points="7.14331,26.8512 255.785,26.8512"/>
<polyline class="StaffLines" fill="none" stroke="#000000" stroke-width="0.34" stroke-linejoin="bevel" points="7.14331,58.2601 255.785,58.2601"/>
<polyline class="StaffLines" fill="none" stroke="#000000" stroke-width="0.34" stroke-linejoin="bevel" points="7.14331,62.512 255.785,62.512"/>
<polyline class="StaffLines" fill="none" stroke="#000000" stroke-width="0.34" stroke-linejoin="bevel" points="7.14331,66.764 255.785,66.764"/>
<polyline class="StaffLines" fill="none" stroke="#000000" stroke-width="0.34" stroke-linejoin="bevel" points="7.14331,71.016 255.785,71.016"/>
<polyline class="StaffLines" fill="none" stroke="#000000" stroke-width="0.34" stroke-linejoin="bevel" points="7.14331,75.268 255.785,75.268"/>
<polyline class="BarLine" fill="none" stroke="#000000" stroke-width="0.68" stroke-linejoin="bevel" points="7.48346,9.84331 7.48346,75.268"/>
<polyline class="BarLine" fill="none" stroke="#000000" stroke-width="0.68" stroke-linejoin="bevel" points="255.445,9.84331 255.445,75.268"/>
<polyline class="BarLine" fill="none" stroke="#000000" stroke-width="0.68" stroke-linejoin="bevel" points="178.06,9.84331 178.06,75.268"/>
<polyline class="BarLine" fill="none" stroke="#000000" stroke-width="0.68" stroke-linejoin="bevel" points="109.266,9.84331 109.266,75.268"/>
<path class="Accidental" transform="matrix(0.850394,0,0,0.850394,217.858,73.142)" d="M0.917969,-0.820312 L0.917969,0.722656 C0.917969,1.26953 0.94401,1.70573 0.996094,2.03125 C1.42578,1.66667 1.73177,1.39323 1.91406,1.21094 C2.1224,1.0026 2.33073,0.716146 2.53906,0.351562 C2.7474,-0.0130208 2.85156,-0.377604 2.85156,-0.742188 C2.85156,-1.10677 2.77344,-1.41927 2.61719,-1.67969 C2.46094,-1.9401 2.2526,-2.07031 1.99219,-2.07031 C1.67969,-2.07031 1.41927,-1.95312 1.21094,-1.71875 C1.01562,-1.45833 0.917969,-1.15885 0.917969,-0.820312 M0.0976562,2.75391 L-0.15625,-9.14062 C0.0260417,-9.24479 0.208333,-9.29688 0.390625,-9.29688 C0.572917,-9.29688 0.755208,-9.24479 0.9375,-9.14062 L0.78125,-2.24609 C1.3151,-2.70182 1.92708,-2.92969 2.61719,-2.92969 C3.125,-2.92969 3.54818,-2.72135 3.88672,-2.30469 C4.22526,-1.88802 4.39453,-1.41276 4.39453,-0.878906 C4.39453,-0.540365 4.28385,-0.182292 4.0625,0.195312 C3.85417,0.546875 3.63281,0.820312 3.39844,1.01562 C3.26823,1.11979 2.9362,1.38021 2.40234,1.79688 C2.24609,1.91406 2.06055,2.05078 1.8457,2.20703 C1.63086,2.36328 1.4974,2.46094 1.44531,2.5 C1.35417,2.55208 1.26953,2.65625 1.19141,2.8125 C1.10026,2.94271 0.996094,3.05339 0.878906,3.14453 C0.78776,3.22266 0.677083,3.26172 0.546875,3.26172 C0.416667,3.26172 0.3125,3.21615 0.234375,3.125 C0.143229,3.03385 0.0976562,2.91016 0.0976562,2.75391"/>
<path class="Accidental" transform="matrix(0.850394,0,0,0.850394,217.858,20.4732)" d="M0.917969,-0.820312 L0.917969,0.722656 C0.917969,1.26953 0.94401,1.70573 0.996094,2.03125 C1.42578,1.66667 1.73177,1.39323 1.91406,1.21094 C2.1224,1.0026 2.33073,0.716146 2.53906,0.351562 C2.7474,-0.0130208 2.85156,-0.377604 2.85156,-0.742188 C2.85156,-1.10677 2.77344,-1.41927 2.61719,-1.67969 C2.46094,-1.9401 2.2526,-2.07031 1.99219,-2.07031 C1.67969,-2.07031 1.41927,-1.95312 1.21094,-1.71875 C1.01562,-1.45833 0.917969,-1.15885 0.917969,-0.820312 M0.0976562,2.75391 L-0.15625,-9.14062 C0.0260417,-9.24479 0.208333,-9.29688 0.390625,-9.29688 C0.572917,-9.29688 0.755208,-9.24479 0.9375,-9.14062 L0.78125,-2.24609 C1.3151,-2.70182 1.92708,-2.92969 2.61719,-2.92969 C3.125,-2.92969 3.54818,-2.72135 3.88672,-2.30469 C4.22526,-1.88802 4.39453,-1.41276 4.39453,-0.878906 C4.39453,-0.540365 4.28385,-0.182292 4.0625,0.195312 C3.85417,0.546875 3.63281,0.820312 3.39844,1.01562 C3.26823,1.11979 2.9362,1.38021 2.40234,1.79688 C2.24609,1.91406 2.06055,2.05078 1.8457,2.20703 C1.63086,2.36328 1.4974,2.46094 1.44531,2.5 C1.35417,2.55208 1.26953,2.65625 1.19141,2.8125 C1.10026,2.94271 0.996094,3.05339 0.878906,3.14453 C0.78776,3.22266 0.677083,3.26172 0.546875,3.26172 C0.416667,3.26172 0.3125,3.21615 0.234375,3.125 C0.143229,3.03385 0.0976562,2.91016 0.0976562,2.75391"/>
<path class="Accidental" transform="matrix(0.850394,0,0,0.850394,185.317,11.9693)" d="M0.917969,-0.820312 L0.917969,0.722656 C0.917969,1.26953 0.94401,1.70573 0.996094,2.03125 C1.42578,1.66667 1.73177,1.39323 1.91406,1.21094 C2.1224,1.0026 2.33073,0.716146 2.53906,0.351562 C2.7474,-0.0130208 2.85156,-0.377604 2.85156,-0.742188 C2.85156,-1.10677 2.77344,-1.41927 2.61719,-1.67969 C2.46094,-1.9401 2.2526,-2.07031 1.99219,-2.07031 C1.67969,-2.07031 1.41927,-1.95312 1.21094,-1.71875 C1.01562,-1.45833 0.917969,-1.15885 0.917969,-0.820312 M0.0976562,2.75391 L-0.15625,-9.14062 C0.0260417,-9.24479 0.208333,-9.29688 0.390625,-9.29688 C0.572917,-9.29688 0.755208,-9.24479 0.9375,-9.14062 L0.78125,-2.24609 C1.3151,-2.70182 1.92708,-2.92969 2.61719,-2.92969 C3.125,-2.92969 3.54818,-2.72135 3.88672,-2.30469 C4.22526,-1.88802 4.39453,-1.41276 4.39453,-0.878906 C4.39453,-0.540365 4.28385,-0.182292 4.0625,0.195312 C3.85417,0.546875 3.63281,0.820312 3.39844,1.01562 C3.26823,1.11979 2.9362,1.38021 2.40234,1.79688 C2.24609,1.91406 2.06055,2.05078 1.8457,2.20703 C1.63086,2.36328 1.4974,2.46094 1.44531,2.5 C1.35417,2.55208 1.26953,2.65625 1.19141,2.8125 C1.10026,2.94271 0.996094,3.05339 0.878906,3.14453 C0.78776,3.22266 0.677083,3.26172 0.546875,3.26172 C0.416667,3.26172 0.3125,3.21615 0.234375,3.125 C0.143229,3.03385 0.0976562,2.91016 0.0976562,2.75391"/>
<path class="Accidental" transform="matrix(0.850394,0,0,0.850394,180.611,18.3472)" d="M0.917969,-0.820312 L0.917969,0.722656 C0.917969,1.26953 0.94401,1.70573 0.996094,2.03125 C1.42578,1.66667 1.73177,1.39323 1.91406,1.21094 C2.1224,1.0026 2.33073,0.716146 2.53906,0.351562 C2.7474,-0.0130208 2.85156,-0.377604 2.85156,-0.742188 C2.85156,-1.10677 2.77344,-1.41927 2.61719,-1.67969 C2.46094,-1.9401 2.2526,-2.07031 1.99219,-2.07031 C1.67969,-2.07031 1.41927,-1.95312 1.21094,-1.71875 C1.01562,-1.45833 0.917969,-1.15885 0.917969,-0.820312 M0.0976562,2.75391 L-0.15625,-9.14062 C0.0260417,-9.24479 0.208333,-9.29688 0.390625,-9.29688 C0.572917,-9.29688 0.755208,-9.24479 0.9375,-9.14062 L0.78125,-2.24609 C1.3151,-2.70182 1.92708,-2.92969 2.61719,-2.92969 C3.125,-2.92969 3.54818,-2.72135 3.88672,-2.30469 C4.22526,-1.88802 4.39453,-1.41276 4.39453,-0.878906 C4.39453,-0.540365 4.28385,-0.182292 4.0625,0.195312 C3.85417,0.546875 3.63281,0.820312 3.39844,1.01562 C3.26823,1.11979 2.9362,1.38021 2.40234,1.79688 C2.24609,1.91406 2.06055,2.05078 1.8457,2.20703 C1.63086,2.36328 1.4974,2.46094 1.44531,2.5 C1.35417,2.55208 1.26953,2.65625 1.19141,2.8125 C1.10026,2.94271 0.996094,3.05339 0.878906,3.14453 C0.78776,3.22266 0.677083,3.26172 0.546875,3.26172 C0.416667,3.26172 0.3125,3.21615 0.234375,3.125 C0.143229,3.03385 0.0976562,2.91016 0.0976562,2.75391"/>
<path class="Accidental" transform="matrix(0.850394,0,0,0.850394,185.317,26.8512)" d="M0.917969,-0.820312 L0.917969,0.722656 C0.917969,1.26953 0.94401,1.70573 0.996094,2.03125 C1.42578,1.66667 1.73177,1.39323 1.91406,1.21094 C2.1224,1.0026 2.33073,0.716146 2.53906,0.351562 C2.7474,-0.0130208 2.85156,-0.377604 2.85156,-0.742188 C2.85156,-1.10677 2.77344,-1.41927 2.61719,-1.67969 C2.46094,-1.9401 2.2526,-2.07031 1.99219,-2.07031 C1.67969,-2.07031 1.41927,-1.95312 1.21094,-1.71875 C1.01562,-1.45833 0.917969,-1.15885 0.917969,-0.820312 M0.0976562,2.75391 L-0.15625,-9.14062 C0.0260417,-9.24479 0.208333,-9.29688 0.390625,-9.29688 C0.572917,-9.29688 0.755208,-9.24479 0.9375,-9.14062 L0.78125,-2.24609 C1.3151,-2.70182 1.92708,-2.92969 2.61719,-2.92969 C3.125,-2.92969 3.54818,-2.72135 3.88672,-2.30469 C4.22526,-1.88802 4.39453,-1.41276 4.39453,-0.878906 C4.39453,-0.540365 4.28385,-0.182292 4.0625,0.195312 C3.85417,0.546875 3.63281,0.820312 3.39844,1.01562 C3.26823,1.11979 2.9362,1.38021 2.40234,1.79688 C2.24609,1.91406 2.06055,2.05078 1.8457,2.20703 C1.63086,2.36328 1.4974,2.46094 1.44531,2.5 C1.35417,2.55208 1.26953,2.65625 1.19141,2.8125 C1.10026,2.94271 0.996094,3.05339 0.878906,3.14453 C0.78776,3.22266 0.677083,3.26172 0.546875,3.26172 C0.416667,3.26172 0.3125,3.21615 0.234375,3.125 C0.143229,3.03385 0.0976562,2.91016 0.0976562,2.75391"/>
<path class="Accidental" transform="matrix(0.850394,0,0,0.850394,70.6496,24.7252)" d="M4.31641,6.23047 C4.31641,6.47786 4.19271,6.60156 3.94531,6.60156 C3.69792,6.60156 3.57422,6.47786 3.57422,6.23047 L3.57422,3.33984 L1.91406,3.96484 L1.91406,7.12891 C1.91406,7.3763 1.79036,7.5 1.54297,7.5 C1.29557,7.5 1.17188,7.3763 1.17188,7.12891 L1.17188,4.21875 L0.546875,4.45312 C0.533854,4.46615 0.481771,4.47266 0.390625,4.47266 C0.286458,4.47266 0.195312,4.43359 0.117188,4.35547 C0.0390625,4.27734 0,4.1862 0,4.08203 L0,2.87109 C0,2.67578 0.0846354,2.55208 0.253906,2.5 L1.17188,2.1875 L1.17188,-1.01562 L0.546875,-0.800781 C0.533854,-0.78776 0.481771,-0.78125 0.390625,-0.78125 C0.286458,-0.78125 0.195312,-0.820312 0.117188,-0.898438 C0.0390625,-0.976562 0,-1.06771 0,-1.17188 L0,-2.38281 C0,-2.5651 0.0846354,-2.68229 0.253906,-2.73438 L1.17188,-3.08594 L1.17188,-6.23047 C1.17188,-6.47786 1.29557,-6.60156 1.54297,-6.60156 C1.79036,-6.60156 1.91406,-6.47786 1.91406,-6.23047 L1.91406,-3.33984 L3.57422,-3.96484 L3.57422,-7.12891 C3.57422,-7.3763 3.69792,-7.5 3.94531,-7.5 C4.19271,-7.5 4.31641,-7.3763 4.31641,-7.12891 L4.31641,-4.21875 L4.96094,-4.45312 C4.97396,-4.46615 5.01953,-4.47266 5.09766,-4.47266 C5.1888,-4.47266 5.28646,-4.43359 5.39062,-4.35547 C5.46875,-4.27734 5.50781,-4.1862 5.50781,-4.08203 L5.50781,-2.87109 C5.50781,-2.6888 5.41667,-2.5651 5.23438,-2.5 L4.31641,-2.1875 L4.31641,1.01562 L4.96094,0.800781 C4.97396,0.78776 5.01953,0.78125 5.09766,0.78125 C5.1888,0.78125 5.28646,0.820312 5.39062,0.898438 C5.46875,0.976562 5.50781,1.06771 5.50781,1.17188 L5.50781,2.38281 C5.50781,2.55208 5.41667,2.66927 5.23438,2.73438 L4.31641,3.08594 L4.31641,6.23047 M3.57422,-1.89453 L1.91406,-1.30859 L1.91406,1.89453 L3.57422,1.30859 L3.57422,-1.89453 "/>
<path class="Accidental" transform="matrix(0.850394,0,0,0.850394,37.1423,83.7719)" d="M4.31641,6.23047 C4.31641,6.47786 4.19271,6.60156 3.94531,6.60156 C3.69792,6.60156 3.57422,6.47786 3.57422,6.23047 L3.57422,3.33984 L1.91406,3.96484 L1.91406,7.12891 C1.91406,7.3763 1.79036,7.5 1.54297,7.5 C1.29557,7.5 1.17188,7.3763 1.17188,7.12891 L1.17188,4.21875 L0.546875,4.45312 C0.533854,4.46615 0.481771,4.47266 0.390625,4.47266 C0.286458,4.47266 0.195312,4.43359 0.117188,4.35547 C0.0390625,4.27734 0,4.1862 0,4.08203 L0,2.87109 C0,2.67578 0.0846354,2.55208 0.253906,2.5 L1.17188,2.1875 L1.17188,-1.01562 L0.546875,-0.800781 C0.533854,-0.78776 0.481771,-0.78125 0.390625,-0.78125 C0.286458,-0.78125 0.195312,-0.820312 0.117188,-0.898438 C0.0390625,-0.976562 0,-1.06771 0,-1.17188 L0,-2.38281 C0,-2.5651 0.0846354,-2.68229 0.253906,-2.73438 L1.17188,-3.08594 L1.17188,-6.23047 C1.17188,-6.47786 1.29557,-6.60156 1.54297,-6.60156 C1.79036,-6.60156 1.91406,-6.47786 1.91406,-6.23047 L1.91406,-3.33984 L3.57422,-3.96484 L3.57422,-7.12891 C3.57422,-7.3763 3.69792,-7.5 3.94531,-7.5 C4.19271,-7.5 4.31641,-7.3763 4.31641,-7.12891 L4.31641,-4.21875 L4.96094,-4.45312 C4.97396,-4.46615 5.01953,-4.47266 5.09766,-4.47266 C5.1888,-4.47266 5.28646,-4.43359 5.39062,-4.35547 C5.46875,-4.27734 5.50781,-4.1862 5.50781,-4.08203 L5.50781,-2.87109 C5.50781,-2.6888 5.41667,-2.5651 5.23438,-2.5 L4.31641,-2.1875 L4.31641,1.01562 L4.96094,0.800781 C4.97396,0.78776 5.01953,0.78125 5.09766,0.78125 C5.1888,0.78125 5.28646,0.820312 5.39062,0.898438 C5.46875,0.976562 5.50781,1.06771 5.50781,1.17188 L5.50781,2.38281 C5.50781,2.55208 5.41667,2.66927 5.23438,2.73438 L4.31641,3.08594 L4.31641,6.23047 M3.57422,-1.89453 L1.91406,-1.30859 L1.91406,1.89453 L3.57422,1.30859 L3.57422,-1.89453 "/>
<polyline class="LedgerLine" fill="none" stroke="#000000" stroke-width="0.68" stroke-linecap="square" stroke-linejoin="bevel" points="113.433,79.5199 121.582,79.5199"/>
<polyline class="LedgerLine" fill="none" stroke="#000000" stroke-width="0.68" stroke-linecap="square" stroke-linejoin="bevel" points="113.433,31.1031 121.582,31.1031"/>
<polyline class="LedgerLine" fill="none" stroke="#000000" stroke-width="0.68" stroke-linecap="square" stroke-linejoin="bevel" points="74.9932,79.5199 83.1424,79.5199"/>
<polyline class="LedgerLine" fill="none" stroke="#000000" stroke-width="0.68" stroke-linecap="square" stroke-linejoin="bevel" points="42.3363,79.5199 50.4855,79.5199"/>
<polyline class="LedgerLine" fill="none" stroke="#000000" stroke-width="0.68" stroke-linecap="square" stroke-linejoin="bevel" points="42.3363,83.7719 50.4855,83.7719"/>
<polyline class="LedgerLine" fill="none" stroke="#000000" stroke-width="0.68" stroke-linecap="square" stroke-linejoin="bevel" points="42.3363,31.1031 50.4855,31.1031"/>
<polyline class="LedgerLine" fill="none" stroke="#000000" stroke-width="0.68" stroke-linecap="square" stroke-linejoin="bevel" points="42.3363,35.3551 50.4855,35.3551"/>
<polyline class="Stem" fill="none" stroke="#000000" stroke-width="0.55" stroke-linecap="round" stroke-linejoin="bevel" points="227.886,72.3434 227.886,58.2601"/>
<polyline class="Stem" fill="none" stroke="#000000" stroke-width="0.55" stroke-linecap="round" stroke-linejoin="bevel" points="222.841,12.7679 222.841,33.2291"/>
<polyline class="Stem" fill="none" stroke="#000000" stroke-width="0.55" stroke-linecap="round" stroke-linejoin="bevel" points="195.345,74.4694 195.345,60.3861"/>
<polyline class="Stem" fill="none" stroke="#000000" stroke-width="0.55" stroke-linecap="round" stroke-linejoin="bevel" points="195.345,26.0526 195.345,0.276378"/>
<polyline class="Stem" fill="none" stroke="#000000" stroke-width="0.55" stroke-linecap="round" stroke-linejoin="bevel" points="151.536,76.5954 151.536,62.512"/>
<polyline class="Stem" fill="none" stroke="#000000" stroke-width="0.55" stroke-linecap="round" stroke-linejoin="bevel" points="151.536,23.9266 151.536,3.46535"/>
<polyline class="Stem" fill="none" stroke="#000000" stroke-width="0.55" stroke-linecap="round" stroke-linejoin="bevel" points="120.03,78.7213 120.03,64.638"/>
<polyline class="Stem" fill="none" stroke="#000000" stroke-width="0.55" stroke-linecap="round" stroke-linejoin="bevel" points="120.03,30.3046 120.03,3.46535"/>
<polyline class="Stem" fill="none" stroke="#000000" stroke-width="0.55" stroke-linecap="round" stroke-linejoin="bevel" points="81.5904,80.8473 81.5904,66.764"/>
<polyline class="Stem" fill="none" stroke="#000000" stroke-width="0.55" stroke-linecap="round" stroke-linejoin="bevel" points="81.5904,28.1786 81.5904,6.65433"/>
<polyline class="Stem" fill="none" stroke="#000000" stroke-width="0.55" stroke-linecap="round" stroke-linejoin="bevel" points="48.9335,82.9733 48.9335,66.764"/>
<polyline class="Stem" fill="none" stroke="#000000" stroke-width="0.55" stroke-linecap="round" stroke-linejoin="bevel" points="48.9335,34.5565 48.9335,6.65433"/>
<path class="Note" transform="matrix(0.850394,0,0,0.850394,222.564,73.142)" d="M4.39453,-2.75391 C5.01953,-2.75391 5.54688,-2.59115 5.97656,-2.26562 C6.38021,-1.91406 6.58203,-1.47135 6.58203,-0.9375 C6.58203,-0.0390625 6.11979,0.800781 5.19531,1.58203 C4.25781,2.36328 3.25521,2.75391 2.1875,2.75391 C1.5625,2.75391 1.03516,2.59115 0.605469,2.26562 C0.201823,1.91406 0,1.47135 0,0.9375 C0,0.0390625 0.46875,-0.800781 1.40625,-1.58203 C2.31771,-2.36328 3.3138,-2.75391 4.39453,-2.75391"/>
<path class="Note" transform="matrix(0.850394,0,0,0.850394,222.564,11.9693)" d="M4.39453,-2.75391 C5.01953,-2.75391 5.54688,-2.59115 5.97656,-2.26562 C6.38021,-1.91406 6.58203,-1.47135 6.58203,-0.9375 C6.58203,-0.0390625 6.11979,0.800781 5.19531,1.58203 C4.25781,2.36328 3.25521,2.75391 2.1875,2.75391 C1.5625,2.75391 1.03516,2.59115 0.605469,2.26562 C0.201823,1.91406 0,1.47135 0,0.9375 C0,0.0390625 0.46875,-0.800781 1.40625,-1.58203 C2.31771,-2.36328 3.3138,-2.75391 4.39453,-2.75391"/>
<path class="Note" transform="matrix(0.850394,0,0,0.850394,222.564,16.2213)" d="M4.39453,-2.75391 C5.01953,-2.75391 5.54688,-2.59115 5.97656,-2.26562 C6.38021,-1.91406 6.58203,-1.47135 6.58203,-0.9375 C6.58203,-0.0390625 6.11979,0.800781 5.19531,1.58203 C4.25781,2.36328 3.25521,2.75391 2.1875,2.75391 C1.5625,2.75391 1.03516,2.59115 0.605469,2.26562 C0.201823,1.91406 0,1.47135 0,0.9375 C0,0.0390625 0.46875,-0.800781 1.40625,-1.58203 C2.31771,-2.36328 3.3138,-2.75391 4.39453,-2.75391"/>
<path class="Note" transform="matrix(0.850394,0,0,0.850394,222.564,20.4732)" d="M4.39453,-2.75391 C5.01953,-2.75391 5.54688,-2.59115 5.97656,-2.26562 C6.38021,-1.91406 6.58203,-1.47135 6.58203,-0.9375 C6.58203,-0.0390625 6.11979,0.800781 5.19531,1.58203 C4.25781,2.36328 3.25521,2.75391 2.1875,2.75391 C1.5625,2.75391 1.03516,2.59115 0.605469,2.26562 C0.201823,1.91406 0,1.47135 0,0.9375 C0,0.0390625 0.46875,-0.800781 1.40625,-1.58203 C2.31771,-2.36328 3.3138,-2.75391 4.39453,-2.75391"/>
<path class="Note" transform="matrix(0.850394,0,0,0.850394,190.024,75.268)" d="M4.39453,-2.75391 C5.01953,-2.75391 5.54688,-2.59115 5.97656,-2.26562 C6.38021,-1.91406 6.58203,-1.47135 6.58203,-0.9375 C6.58203,-0.0390625 6.11979,0.800781 5.19531,1.58203 C4.25781,2.36328 3.25521,2.75391 2.1875,2.75391 C1.5625,2.75391 1.03516,2.59115 0.605469,2.26562 C0.201823,1.91406 0,1.47135 0,0.9375 C0,0.0390625 0.46875,-0.800781 1.40625,-1.58203 C2.31771,-2.36328 3.3138,-2.75391 4.39453,-2.75391"/>
<path class="Note" transform="matrix(0.850394,0,0,0.850394,190.024,11.9693)" d="M4.39453,-2.75391 C5.01953,-2.75391 5.54688,-2.59115 5.97656,-2.26562 C6.38021,-1.91406 6.58203,-1.47135 6.58203,-0.9375 C6.58203,-0.0390625 6.11979,0.800781 5.19531,1.58203 C4.25781,2.36328 3.25521,2.75391 2.1875,2.75391 C1.5625,2.75391 1.03516,2.59115 0.605469,2.26562 C0.201823,1.91406 0,1.47135 0,0.9375 C0,0.0390625 0.46875,-0.800781 1.40625,-1.58203 C2.31771,-2.36328 3.3138,-2.75391 4.39453,-2.75391"/>
<path class="Note" transform="matrix(0.850394,0,0,0.850394,190.024,18.3472)" d="M4.39453,-2.75391 C5.01953,-2.75391 5.54688,-2.59115 5.97656,-2.26562 C6.38021,-1.91406 6.58203,-1.47135 6.58203,-0.9375 C6.58203,-0.0390625 6.11979,0.800781 5.19531,1.58203 C4.25781,2.36328 3.25521,2.75391 2.1875,2.75391 C1.5625,2.75391 1.03516,2.59115 0.605469,2.26562 C0.201823,1.91406 0,1.47135 0,0.9375 C0,0.0390625 0.46875,-0.800781 1.40625,-1.58203 C2.31771,-2.36328 3.3138,-2.75391 4.39453,-2.75391"/>
<path class="Note" transform="matrix(0.850394,0,0,0.850394,190.024,26.8512)" d="M4.39453,-2.75391 C5.01953,-2.75391 5.54688,-2.59115 5.97656,-2.26562 C6.38021,-1.91406 6.58203,-1.47135 6.58203,-0.9375 C6.58203,-0.0390625 6.11979,0.800781 5.19531,1.58203 C4.25781,2.36328 3.25521,2.75391 2.1875,2.75391 C1.5625,2.75391 1.03516,2.59115 0.605469,2.26562 C0.201823,1.91406 0,1.47135 0,0.9375 C0,0.0390625 0.46875,-0.800781 1.40625,-1.58203 C2.31771,-2.36328 3.3138,-2.75391 4.39453,-2.75391"/>
<path class="Note" transform="matrix(0.850394,0,0,0.850394,146.214,77.3939)" d="M4.39453,-2.75391 C5.01953,-2.75391 5.54688,-2.59115 5.97656,-2.26562 C6.38021,-1.91406 6.58203,-1.47135 6.58203,-0.9375 C6.58203,-0.0390625 6.11979,0.800781 5.19531,1.58203 C4.25781,2.36328 3.25521,2.75391 2.1875,2.75391 C1.5625,2.75391 1.03516,2.59115 0.605469,2.26562 C0.201823,1.91406 0,1.47135 0,0.9375 C0,0.0390625 0.46875,-0.800781 1.40625,-1.58203 C2.31771,-2.36328 3.3138,-2.75391 4.39453,-2.75391"/>
<path class="Note" transform="matrix(0.850394,0,0,0.850394,146.214,16.2213)" d="M4.39453,-2.75391 C5.01953,-2.75391 5.54688,-2.59115 5.97656,-2.26562 C6.38021,-1.91406 6.58203,-1.47135 6.58203,-0.9375 C6.58203,-0.0390625 6.11979,0.800781 5.19531,1.58203 C4.25781,2.36328 3.25521,2.75391 2.1875,2.75391 C1.5625,2.75391 1.03516,2.59115 0.605469,2.26562 C0.201823,1.91406 0,1.47135 0,0.9375 C0,0.0390625 0.46875,-0.800781 1.40625,-1.58203 C2.31771,-2.36328 3.3138,-2.75391 4.39453,-2.75391"/>
<path class="Note" transform="matrix(0.850394,0,0,0.850394,146.214,20.4732)" d="M4.39453,-2.75391 C5.01953,-2.75391 5.54688,-2.59115 5.97656,-2.26562 C6.38021,-1.91406 6.58203,-1.47135 6.58203,-0.9375 C6.58203,-0.0390625 6.11979,0.800781 5.19531,1.58203 C4.25781,2.36328 3.25521,2.75391 2.1875,2.75391 C1.5625,2.75391 1.03516,2.59115 0.605469,2.26562 C0.201823,1.91406 0,1.47135 0,0.9375 C0,0.0390625 0.46875,-0.800781 1.40625,-1.58203 C2.31771,-2.36328 3.3138,-2.75391 4.39453,-2.75391"/>
<path class="Note" transform="matrix(0.850394,0,0,0.850394,146.214,24.7252)" d="M4.39453,-2.75391 C5.01953,-2.75391 5.54688,-2.59115 5.97656,-2.26562 C6.38021,-1.91406 6.58203,-1.47135 6.58203,-0.9375 C6.58203,-0.0390625 6.11979,0.800781 5.19531,1.58203 C4.25781,2.36328 3.25521,2.75391 2.1875,2.75391 C1.5625,2.75391 1.03516,2.59115 0.605469,2.26562 C0.201823,1.91406 0,1.47135 0,0.9375 C0,0.0390625 0.46875,-0.800781 1.40625,-1.58203 C2.31771,-2.36328 3.3138,-2.75391 4.39453,-2.75391"/>
<path class="Note" transform="matrix(0.850394,0,0,0.850394,114.708,79.5199)" d="M4.39453,-2.75391 C5.01953,-2.75391 5.54688,-2.59115 5.97656,-2.26562 C6.38021,-1.91406 6.58203,-1.47135 6.58203,-0.9375 C6.58203,-0.0390625 6.11979,0.800781 5.19531,1.58203 C4.25781,2.36328 3.25521,2.75391 2.1875,2.75391 C1.5625,2.75391 1.03516,2.59115 0.605469,2.26562 C0.201823,1.91406 0,1.47135 0,0.9375 C0,0.0390625 0.46875,-0.800781 1.40625,-1.58203 C2.31771,-2.36328 3.3138,-2.75391 4.39453,-2.75391"/>
<path class="Note" transform="matrix(0.850394,0,0,0.850394,114.708,16.2213)" d="M4.39453,-2.75391 C5.01953,-2.75391 5.54688,-2.59115 5.97656,-2.26562 C6.38021,-1.91406 6.58203,-1.47135 6.58203,-0.9375 C6.58203,-0.0390625 6.11979,0.800781 5.19531,1.58203 C4.25781,2.36328 3.25521,2.75391 2.1875,2.75391 C1.5625,2.75391 1.03516,2.59115 0.605469,2.26562 C0.201823,1.91406 0,1.47135 0,0.9375 C0,0.0390625 0.46875,-0.800781 1.40625,-1.58203 C2.31771,-2.36328 3.3138,-2.75391 4.39453,-2.75391"/>
<path class="Note" transform="matrix(0.850394,0,0,0.850394,114.708,22.5992)" d="M4.39453,-2.75391 C5.01953,-2.75391 5.54688,-2.59115 5.97656,-2.26562 C6.38021,-1.91406 6.58203,-1.47135 6.58203,-0.9375 C6.58203,-0.0390625 6.11979,0.800781 5.19531,1.58203 C4.25781,2.36328 3.25521,2.75391 2.1875,2.75391 C1.5625,2.75391 1.03516,2.59115 0.605469,2.26562 C0.201823,1.91406 0,1.47135 0,0.9375 C0,0.0390625 0.46875,-0.800781 1.40625,-1.58203 C2.31771,-2.36328 3.3138,-2.75391 4.39453,-2.75391"/>
<path class="Note" transform="matrix(0.850394,0,0,0.850394,114.708,31.1031)" d="M4.39453,-2.75391 C5.01953,-2.75391 5.54688,-2.59115 5.97656,-2.26562 C6.38021,-1.91406 6.58203,-1.47135 6.58203,-0.9375 C6.58203,-0.0390625 6.11979,0.800781 5.19531,1.58203 C4.25781,2.36328 3.25521,2.75391 2.1875,2.75391 C1.5625,2.75391 1.03516,2.59115 0.605469,2.26562 C0.201823,1.91406 0,1.47135 0,0.9375 C0,0.0390625 0.46875,-0.800781 1.40625,-1.58203 C2.31771,-2.36328 3.3138,-2.75391 4.39453,-2.75391"/>
<path class="Note" transform="matrix(0.850394,0,0,0.850394,76.2688,81.6459)" d="M4.39453,-2.75391 C5.01953,-2.75391 5.54688,-2.59115 5.97656,-2.26562 C6.38021,-1.91406 6.58203,-1.47135 6.58203,-0.9375 C6.58203,-0.0390625 6.11979,0.800781 5.19531,1.58203 C4.25781,2.36328 3.25521,2.75391 2.1875,2.75391 C1.5625,2.75391 1.03516,2.59115 0.605469,2.26562 C0.201823,1.91406 0,1.47135 0,0.9375 C0,0.0390625 0.46875,-0.800781 1.40625,-1.58203 C2.31771,-2.36328 3.3138,-2.75391 4.39453,-2.75391"/>
<path class="Note" transform="matrix(0.850394,0,0,0.850394,76.2688,20.4732)" d="M4.39453,-2.75391 C5.01953,-2.75391 5.54688,-2.59115 5.97656,-2.26562 C6.38021,-1.91406 6.58203,-1.47135 6.58203,-0.9375 C6.58203,-0.0390625 6.11979,0.800781 5.19531,1.58203 C4.25781,2.36328 3.25521,2.75391 2.1875,2.75391 C1.5625,2.75391 1.03516,2.59115 0.605469,2.26562 C0.201823,1.91406 0,1.47135 0,0.9375 C0,0.0390625 0.46875,-0.800781 1.40625,-1.58203 C2.31771,-2.36328 3.3138,-2.75391 4.39453,-2.75391"/>
<path class="Note" transform="matrix(0.850394,0,0,0.850394,76.2688,24.7252)" d="M4.39453,-2.75391 C5.01953,-2.75391 5.54688,-2.59115 5.97656,-2.26562 C6.38021,-1.91406 6.58203,-1.47135 6.58203,-0.9375 C6.58203,-0.0390625 6.11979,0.800781 5.19531,1.58203 C4.25781,2.36328 3.25521,2.75391 2.1875,2.75391 C1.5625,2.75391 1.03516,2.59115 0.605469,2.26562 C0.201823,1.91406 0,1.47135 0,0.9375 C0,0.0390625 0.46875,-0.800781 1.40625,-1.58203 C2.31771,-2.36328 3.3138,-2.75391 4.39453,-2.75391"/>
<path class="Note" transform="matrix(0.850394,0,0,0.850394,76.2688,28.9772)" d="M4.39453,-2.75391 C5.01953,-2.75391 5.54688,-2.59115 5.97656,-2.26562 C6.38021,-1.91406 6.58203,-1.47135 6.58203,-0.9375 C6.58203,-0.0390625 6.11979,0.800781 5.19531,1.58203 C4.25781,2.36328 3.25521,2.75391 2.1875,2.75391 C1.5625,2.75391 1.03516,2.59115 0.605469,2.26562 C0.201823,1.91406 0,1.47135 0,0.9375 C0,0.0390625 0.46875,-0.800781 1.40625,-1.58203 C2.31771,-2.36328 3.3138,-2.75391 4.39453,-2.75391"/>
<path class="Note" transform="matrix(0.850394,0,0,0.850394,43.6119,83.7719)" d="M4.39453,-2.75391 C5.01953,-2.75391 5.54688,-2.59115 5.97656,-2.26562 C6.38021,-1.91406 6.58203,-1.47135 6.58203,-0.9375 C6.58203,-0.0390625 6.11979,0.800781 5.19531,1.58203 C4.25781,2.36328 3.25521,2.75391 2.1875,2.75391 C1.5625,2.75391 1.03516,2.59115 0.605469,2.26562 C0.201823,1.91406 0,1.47135 0,0.9375 C0,0.0390625 0.46875,-0.800781 1.40625,-1.58203 C2.31771,-2.36328 3.3138,-2.75391 4.39453,-2.75391"/>
<path class="Note" transform="matrix(0.850394,0,0,0.850394,43.6119,20.4732)" d="M4.39453,-2.75391 C5.01953,-2.75391 5.54688,-2.59115 5.97656,-2.26562 C6.38021,-1.91406 6.58203,-1.47135 6.58203,-0.9375 C6.58203,-0.0390625 6.11979,0.800781 5.19531,1.58203 C4.25781,2.36328 3.25521,2.75391 2.1875,2.75391 C1.5625,2.75391 1.03516,2.59115 0.605469,2.26562 C0.201823,1.91406 0,1.47135 0,0.9375 C0,0.0390625 0.46875,-0.800781 1.40625,-1.58203 C2.31771,-2.36328 3.3138,-2.75391 4.39453,-2.75391"/>
<path class="Note" transform="matrix(0.850394,0,0,0.850394,43.6119,26.8512)" d="M4.39453,-2.75391 C5.01953,-2.75391 5.54688,-2.59115 5.97656,-2.26562 C6.38021,-1.91406 6.58203,-1.47135 6.58203,-0.9375 C6.58203,-0.0390625 6.11979,0.800781 5.19531,1.58203 C4.25781,2.36328 3.25521,2.75391 2.1875,2.75391 C1.5625,2.75391 1.03516,2.59115 0.605469,2.26562 C0.201823,1.91406 0,1.47135 0,0.9375 C0,0.0390625 0.46875,-0.800781 1.40625,-1.58203 C2.31771,-2.36328 3.3138,-2.75391 4.39453,-2.75391"/>
<path class="Note" transform="matrix(0.850394,0,0,0.850394,43.6119,35.3551)" d="M4.39453,-2.75391 C5.01953,-2.75391 5.54688,-2.59115 5.97656,-2.26562 C6.38021,-1.91406 6.58203,-1.47135 6.58203,-0.9375 C6.58203,-0.0390625 6.11979,0.800781 5.19531,1.58203 C4.25781,2.36328 3.25521,2.75391 2.1875,2.75391 C1.5625,2.75391 1.03516,2.59115 0.605469,2.26562 C0.201823,1.91406 0,1.47135 0,0.9375 C0,0.0390625 0.46875,-0.800781 1.40625,-1.58203 C2.31771,-2.36328 3.3138,-2.75391 4.39453,-2.75391"/>
<path class="Clef" transform="matrix(0.850394,0,0,0.850394,10.5449,62.512)" d="M11.4258,-1.77734 C11.2305,-1.97266 11.1328,-2.21354 11.1328,-2.5 C11.1328,-2.78646 11.2305,-3.02734 11.4258,-3.22266 C11.6211,-3.41797 11.862,-3.51562 12.1484,-3.51562 C12.4349,-3.51562 12.6758,-3.41797 12.8711,-3.22266 C13.0664,-3.02734 13.1641,-2.78646 13.1641,-2.5 C13.1641,-2.21354 13.0664,-1.97266 12.8711,-1.77734 C12.6758,-1.58203 12.4349,-1.48438 12.1484,-1.48438 C11.862,-1.48438 11.6211,-1.58203 11.4258,-1.77734 M11.4258,3.22266 C11.2305,3.02734 11.1328,2.78646 11.1328,2.5 C11.1328,2.21354 11.2305,1.97266 11.4258,1.77734 C11.6211,1.58203 11.862,1.48438 12.1484,1.48438 C12.4349,1.48438 12.6758,1.58203 12.8711,1.77734 C13.0664,1.97266 13.1641,2.21354 13.1641,2.5 C13.1641,2.78646 13.0664,3.02734 12.8711,3.22266 C12.6758,3.41797 12.4349,3.51562 12.1484,3.51562 C11.862,3.51562 11.6211,3.41797 11.4258,3.22266 M4.64844,-5.25391 C6.38021,-5.25391 7.79948,-4.81771 8.90625,-3.94531 C9.97396,-3.03385 10.5078,-1.79688 10.5078,-0.234375 C10.5078,0.820312 10.2995,1.78385 9.88281,2.65625 C9.49219,3.56771 8.97786,4.375 8.33984,5.07812 C7.6888,5.79427 6.90104,6.47135 5.97656,7.10938 C5.07812,7.73438 4.15365,8.29427 3.20312,8.78906 C1.27604,9.76562 0.208333,10.2539 0,10.2539 C-0.169271,10.2539 -0.253906,10.1693 -0.253906,10 C-0.253906,9.9349 -0.227865,9.8763 -0.175781,9.82422 C0.488281,9.43359 1.30208,8.93229 2.26562,8.32031 C2.89062,7.91667 3.61979,7.35677 4.45312,6.64062 C5.26042,5.96354 5.88542,5.32552 6.32812,4.72656 C6.78385,4.14062 7.20052,3.41146 7.57812,2.53906 C7.90365,1.66667 8.06641,0.807292 8.06641,-0.0390625 C8.06641,-1.30208 7.75391,-2.40234 7.12891,-3.33984 C6.50391,-4.27734 5.67708,-4.74609 4.64844,-4.74609 C3.91927,-4.74609 3.29427,-4.51172 2.77344,-4.04297 C2.21354,-3.5612 1.8099,-2.95573 1.5625,-2.22656 C1.8099,-2.33073 2.03776,-2.38281 2.24609,-2.38281 C2.79297,-2.38281 3.26172,-2.1875 3.65234,-1.79688 C4.04297,-1.38021 4.23828,-0.904948 4.23828,-0.371094 C4.23828,0.188802 4.04948,0.690104 3.67188,1.13281 C3.26823,1.53646 2.79297,1.73828 2.24609,1.73828 C1.66016,1.73828 1.13281,1.53646 0.664062,1.13281 C0.221354,0.690104 0,0.188802 0,-0.371094 C0,-1.71224 0.455729,-2.85807 1.36719,-3.80859 C2.26562,-4.77214 3.35938,-5.25391 4.64844,-5.25391"/>
<path class="Clef" transform="matrix(0.850394,0,0,0.850394,10.5449,22.5992)" d="M7.34375,-5.11719 C7.34375,-5.11719 7.38281,-5.11719 7.46094,-5.11719 C7.51302,-5.13021 7.55859,-5.13672 7.59766,-5.13672 C9.05599,-5.13672 10.2539,-4.6224 11.1914,-3.59375 C12.1289,-2.57812 12.5977,-1.39323 12.5977,-0.0390625 C12.5977,1.64062 11.901,3.00781 10.5078,4.0625 C10.1432,4.34896 9.66797,4.58333 9.08203,4.76562 C9.14714,5.61198 9.17969,6.29557 9.17969,6.81641 C9.17969,6.92057 9.16667,7.29818 9.14062,7.94922 C9.08854,9.16016 8.67188,10.2083 7.89062,11.0938 C7.13542,11.9661 6.19792,12.4023 5.07812,12.4023 C4.02344,12.4023 3.125,12.0312 2.38281,11.2891 C1.64062,10.5339 1.26953,9.6224 1.26953,8.55469 C1.26953,7.99479 1.48438,7.51953 1.91406,7.12891 C2.35677,6.73828 2.87109,6.54297 3.45703,6.54297 C3.97786,6.54297 4.41406,6.74479 4.76562,7.14844 C5.13021,7.52604 5.3125,7.99479 5.3125,8.55469 C5.3125,9.0625 5.13021,9.4987 4.76562,9.86328 C4.40104,10.2279 3.96484,10.4102 3.45703,10.4102 C3.2487,10.4102 3.04688,10.3711 2.85156,10.293 C3.42448,11.1393 4.1862,11.5625 5.13672,11.5625 C6.03516,11.5625 6.77083,11.1979 7.34375,10.4688 C7.94271,9.71354 8.26823,8.83464 8.32031,7.83203 C8.34635,7.20703 8.35938,6.84896 8.35938,6.75781 C8.35938,6.02865 8.33333,5.42969 8.28125,4.96094 C7.63021,5.0651 7.05078,5.11719 6.54297,5.11719 C4.73307,5.11719 3.1901,4.40104 1.91406,2.96875 C0.664062,1.52344 0.0390625,-0.195312 0.0390625,-2.1875 C0.0390625,-2.60417 0.078125,-3.02734 0.15625,-3.45703 C0.234375,-3.80859 0.332031,-4.19271 0.449219,-4.60938 C0.514323,-4.84375 0.690104,-5.22135 0.976562,-5.74219 C1.08073,-5.89844 1.19792,-6.09375 1.32812,-6.32812 C1.45833,-6.5625 1.54948,-6.71875 1.60156,-6.79688 C1.73177,-7.05729 1.98568,-7.40885 2.36328,-7.85156 C2.46745,-7.96875 2.57487,-8.09896 2.68555,-8.24219 C2.79622,-8.38542 2.89062,-8.5026 2.96875,-8.59375 C3.04688,-8.6849 3.10547,-8.75651 3.14453,-8.80859 C3.18359,-8.86068 3.47656,-9.20573 4.02344,-9.84375 C4.15365,-9.97396 4.2806,-10.1139 4.4043,-10.2637 C4.52799,-10.4134 4.62891,-10.5306 4.70703,-10.6152 C4.78516,-10.6999 4.84375,-10.7617 4.88281,-10.8008 C4.41406,-12.3503 4.12109,-13.5872 4.00391,-14.5117 C3.91276,-15.2539 3.86719,-16.2695 3.86719,-17.5586 C3.86719,-18.6914 4.1276,-19.7526 4.64844,-20.7422 C5.15625,-21.7708 5.86589,-22.6107 6.77734,-23.2617 C6.84245,-23.3008 6.90755,-23.3203 6.97266,-23.3203 C7.0638,-23.3203 7.12891,-23.3008 7.16797,-23.2617 C7.87109,-22.4154 8.47656,-21.3151 8.98438,-19.9609 C9.50521,-18.6068 9.76562,-17.3763 9.76562,-16.2695 C9.76562,-15.0195 9.46615,-13.8477 8.86719,-12.7539 C8.1901,-11.5951 7.31771,-10.3971 6.25,-9.16016 C6.52344,-8.30078 6.88802,-6.95312 7.34375,-5.11719 M9.00391,3.96484 C9.68099,3.71745 10.2083,3.29427 10.5859,2.69531 C11.0026,2.1224 11.2109,1.47786 11.2109,0.761719 C11.2109,-0.16276 10.8984,-0.983073 10.2734,-1.69922 C9.63542,-2.44141 8.82161,-2.85807 7.83203,-2.94922 C8.39193,-0.201823 8.78255,2.10286 9.00391,3.96484 M1.44531,-0.546875 C1.44531,0.742188 1.96615,1.875 3.00781,2.85156 C4.07552,3.80208 5.27344,4.27734 6.60156,4.27734 C7.14844,4.27734 7.68229,4.23828 8.20312,4.16016 C7.99479,2.18099 7.58464,-0.188802 6.97266,-2.94922 C6.23047,-2.87109 5.63802,-2.61068 5.19531,-2.16797 C4.76562,-1.71224 4.55078,-1.19792 4.55078,-0.625 C4.55078,0.364583 5.07812,1.16536 6.13281,1.77734 C6.22396,1.86849 6.26953,1.96615 6.26953,2.07031 C6.26953,2.17448 6.22396,2.27214 6.13281,2.36328 C6.05469,2.45443 5.95703,2.5 5.83984,2.5 C5.82682,2.5 5.76823,2.48698 5.66406,2.46094 C4.92188,2.05729 4.34896,1.53646 3.94531,0.898438 C3.56771,0.221354 3.37891,-0.46224 3.37891,-1.15234 C3.37891,-2.05078 3.65885,-2.86458 4.21875,-3.59375 C4.80469,-4.32292 5.56641,-4.79167 6.50391,-5 C6.13932,-6.45833 5.83984,-7.59766 5.60547,-8.41797 C5.39714,-8.18359 5.14648,-7.90039 4.85352,-7.56836 C4.56055,-7.23633 4.38802,-7.03776 4.33594,-6.97266 C3.86719,-6.36068 3.50911,-5.88542 3.26172,-5.54688 C2.81901,-4.9349 2.49349,-4.40755 2.28516,-3.96484 C2.0638,-3.47005 1.86849,-2.92969 1.69922,-2.34375 C1.52995,-1.78385 1.44531,-1.1849 1.44531,-0.546875 M7.96875,-20.4102 C6.99219,-19.9284 6.22396,-19.2383 5.66406,-18.3398 C5.09115,-17.4154 4.80469,-16.4193 4.80469,-15.3516 C4.80469,-14.4141 5.03906,-13.151 5.50781,-11.5625 C6.44531,-12.6953 7.14844,-13.7435 7.61719,-14.707 C8.11198,-15.7227 8.35938,-16.7839 8.35938,-17.8906 C8.35938,-18.724 8.22917,-19.5638 7.96875,-20.4102"/>
<path class="TimeSig" transform="matrix(0.850394,0,0,0.850394,26.0818,62.512)" d="M4.57031,5 C4.17969,5 3.82812,4.92839 3.51562,4.78516 C3.20312,4.64193 2.98177,4.49219 2.85156,4.33594 C2.68229,4.14062 2.51302,3.99089 2.34375,3.88672 C2.13542,3.74349 1.92057,3.67188 1.69922,3.67188 C1.36068,3.67188 1.08073,3.77604 0.859375,3.98438 C0.625,4.17969 0.494792,4.44661 0.46875,4.78516 C0.442708,4.92839 0.364583,5 0.234375,5 C0.078125,5 0,4.92839 0,4.78516 C0,4.27734 0.117188,3.82161 0.351562,3.41797 C0.585938,3.0013 0.872396,2.65625 1.21094,2.38281 C1.4974,2.13542 1.875,1.83594 2.34375,1.48438 C2.42188,1.41927 2.58789,1.28255 2.8418,1.07422 C3.0957,0.865885 3.30729,0.690104 3.47656,0.546875 C3.8151,0.260417 4.10807,-0.117188 4.35547,-0.585938 C4.58984,-1.05469 4.70703,-1.5625 4.70703,-2.10938 C4.70703,-2.77344 4.59635,-3.34635 4.375,-3.82812 C4.14062,-4.29688 3.78255,-4.53125 3.30078,-4.53125 C3.0013,-4.53125 2.76042,-4.46615 2.57812,-4.33594 C2.38281,-4.20573 2.28516,-4.02995 2.28516,-3.80859 C2.28516,-3.6263 2.40234,-3.39844 2.63672,-3.125 C2.87109,-2.85156 2.98828,-2.6237 2.98828,-2.44141 C2.98828,-2.05078 2.85156,-1.71875 2.57812,-1.44531 C2.31771,-1.1849 1.9987,-1.05469 1.62109,-1.05469 C1.23047,-1.05469 0.898438,-1.19141 0.625,-1.46484 C0.364583,-1.7513 0.234375,-2.07682 0.234375,-2.44141 C0.234375,-3.18359 0.533854,-3.79557 1.13281,-4.27734 C1.73177,-4.75911 2.45443,-5 3.30078,-5 C4.30339,-5 5.17578,-4.72656 5.91797,-4.17969 C6.66016,-3.65885 7.03125,-2.96875 7.03125,-2.10938 C7.03125,-1.52344 6.92708,-1.02214 6.71875,-0.605469 C6.52344,-0.16276 6.23047,0.182292 5.83984,0.429688 C5.39714,0.716146 5.01302,0.9375 4.6875,1.09375 C4.23177,1.30208 3.77604,1.4974 3.32031,1.67969 C2.77344,1.90104 2.35026,2.10938 2.05078,2.30469 C2.22005,2.26562 2.39583,2.24609 2.57812,2.24609 C3.17708,2.24609 3.80208,2.44141 4.45312,2.83203 C5.11719,3.22266 5.63151,3.41797 5.99609,3.41797 C6.21745,3.41797 6.39323,3.37891 6.52344,3.30078 C6.65365,3.22266 6.73828,3.13802 6.77734,3.04688 C6.82943,2.91667 6.875,2.82552 6.91406,2.77344 C6.96615,2.69531 7.03125,2.65625 7.10938,2.65625 C7.26562,2.65625 7.34375,2.73438 7.34375,2.89062 C7.34375,3.25521 7.08333,3.69792 6.5625,4.21875 C6.05469,4.73958 5.39062,5 4.57031,5"/>
<path class="TimeSig" transform="matrix(0.850394,0,0,0.850394,25.7895,71.016)" d="M4.49219,-4.74609 C4.88281,-4.74609 5.21484,-4.79167 5.48828,-4.88281 C5.76172,-4.97396 5.9375,-5.01953 6.01562,-5.01953 C6.10677,-5.01953 6.17839,-4.99349 6.23047,-4.94141 C6.26953,-4.90234 6.29557,-4.85677 6.30859,-4.80469 C6.30859,-4.77865 6.29557,-4.73958 6.26953,-4.6875 L0.585938,1.91406 L3.92578,1.91406 L3.92578,-0.703125 C3.92578,-0.872396 3.97135,-1.01562 4.0625,-1.13281 C4.21875,-1.26302 4.34896,-1.34115 4.45312,-1.36719 C4.6224,-1.44531 4.83073,-1.6276 5.07812,-1.91406 C5.28646,-2.14844 5.53385,-2.55859 5.82031,-3.14453 C5.85938,-3.22266 5.91797,-3.26172 5.99609,-3.26172 C6.15234,-3.26172 6.24349,-3.17057 6.26953,-2.98828 L6.26953,1.91406 L7.69531,1.91406 C7.8776,1.91406 7.98177,2.01172 8.00781,2.20703 C8.00781,2.40234 7.90365,2.5 7.69531,2.5 L6.26953,2.5 L6.26953,2.65625 C6.26953,3.17708 6.39974,3.61979 6.66016,3.98438 C6.95964,4.34896 7.3112,4.53125 7.71484,4.53125 C7.87109,4.53125 7.94922,4.60938 7.94922,4.76562 C7.94922,4.92188 7.87109,5 7.71484,5 C7.44141,5 6.9987,4.96094 6.38672,4.88281 C5.82682,4.79167 5.39062,4.74609 5.07812,4.74609 C4.7526,4.74609 4.31641,4.79167 3.76953,4.88281 C3.18359,4.96094 2.7474,5 2.46094,5 C2.30469,5 2.22656,4.92188 2.22656,4.76562 C2.22656,4.60938 2.30469,4.53125 2.46094,4.53125 C2.86458,4.53125 3.21615,4.34896 3.51562,3.98438 C3.78906,3.61979 3.92578,3.17708 3.92578,2.65625 L3.92578,2.5 L0.585938,2.5 C0.364583,2.5 0.208333,2.44792 0.117188,2.34375 C0.0130208,2.26562 -0.0390625,2.16146 -0.0390625,2.03125 C-0.0390625,1.99219 0.0585938,1.85547 0.253906,1.62109 C0.47526,1.36068 0.709635,1.04167 0.957031,0.664062 C1.24349,0.221354 1.51693,-0.234375 1.77734,-0.703125 C2.0638,-1.23698 2.29167,-1.84896 2.46094,-2.53906 C2.65625,-3.24219 2.75391,-3.95833 2.75391,-4.6875 C2.75391,-4.89583 2.84505,-5 3.02734,-5 C3.06641,-5 3.15104,-4.98047 3.28125,-4.94141 C3.32031,-4.92839 3.40169,-4.90885 3.52539,-4.88281 C3.64909,-4.85677 3.75,-4.83073 3.82812,-4.80469 C4.0625,-4.76562 4.28385,-4.74609 4.49219,-4.74609"/>
<path class="TimeSig" transform="matrix(0.850394,0,0,0.850394,26.0818,14.0953)" d="M4.57031,5 C4.17969,5 3.82812,4.92839 3.51562,4.78516 C3.20312,4.64193 2.98177,4.49219 2.85156,4.33594 C2.68229,4.14062 2.51302,3.99089 2.34375,3.88672 C2.13542,3.74349 1.92057,3.67188 1.69922,3.67188 C1.36068,3.67188 1.08073,3.77604 0.859375,3.98438 C0.625,4.17969 0.494792,4.44661 0.46875,4.78516 C0.442708,4.92839 0.364583,5 0.234375,5 C0.078125,5 0,4.92839 0,4.78516 C0,4.27734 0.117188,3.82161 0.351562,3.41797 C0.585938,3.0013 0.872396,2.65625 1.21094,2.38281 C1.4974,2.13542 1.875,1.83594 2.34375,1.48438 C2.42188,1.41927 2.58789,1.28255 2.8418,1.07422 C3.0957,0.865885 3.30729,0.690104 3.47656,0.546875 C3.8151,0.260417 4.10807,-0.117188 4.35547,-0.585938 C4.58984,-1.05469 4.70703,-1.5625 4.70703,-2.10938 C4.70703,-2.77344 4.59635,-3.34635 4.375,-3.82812 C4.14062,-4.29688 3.78255,-4.53125 3.30078,-4.53125 C3.0013,-4.53125 2.76042,-4.46615 2.57812,-4.33594 C2.38281,-4.20573 2.28516,-4.02995 2.28516,-3.80859 C2.28516,-3.6263 2.40234,-3.39844 2.63672,-3.125 C2.87109,-2.85156 2.98828,-2.6237 2.98828,-2.44141 C2.98828,-2.05078 2.85156,-1.71875 2.57812,-1.44531 C2.31771,-1.1849 1.9987,-1.05469 1.62109,-1.05469 C1.23047,-1.05469 0.898438,-1.19141 0.625,-1.46484 C0.364583,-1.7513 0.234375,-2.07682 0.234375,-2.44141 C0.234375,-3.18359 0.533854,-3.79557 1.13281,-4.27734 C1.73177,-4.75911 2.45443,-5 3.30078,-5 C4.30339,-5 5.17578,-4.72656 5.91797,-4.17969 C6.66016,-3.65885 7.03125,-2.96875 7.03125,-2.10938 C7.03125,-1.52344 6.92708,-1.02214 6.71875,-0.605469 C6.52344,-0.16276 6.23047,0.182292 5.83984,0.429688 C5.39714,0.716146 5.01302,0.9375 4.6875,1.09375 C4.23177,1.30208 3.77604,1.4974 3.32031,1.67969 C2.77344,1.90104 2.35026,2.10938 2.05078,2.30469 C2.22005,2.26562 2.39583,2.24609 2.57812,2.24609 C3.17708,2.24609 3.80208,2.44141 4.45312,2.83203 C5.11719,3.22266 5.63151,3.41797 5.99609,3.41797 C6.21745,3.41797 6.39323,3.37891 6.52344,3.30078 C6.65365,3.22266 6.73828,3.13802 6.77734,3.04688 C6.82943,2.91667 6.875,2.82552 6.91406,2.77344 C6.96615,2.69531 7.03125,2.65625 7.10938,2.65625 C7.26562,2.65625 7.34375,2.73438 7.34375,2.89062 C7.34375,3.25521 7.08333,3.69792 6.5625,4.21875 C6.05469,4.73958 5.39062,5 4.57031,5"/>
<path class="TimeSig" transform="matrix(0.850394,0,0,0.850394,25.7895,22.5992)" d="M4.49219,-4.74609 C4.88281,-4.74609 5.21484,-4.79167 5.48828,-4.88281 C5.76172,-4.97396 5.9375,-5.01953 6.01562,-5.01953 C6.10677,-5.01953 6.17839,-4.99349 6.23047,-4.94141 C6.26953,-4.90234 6.29557,-4.85677 6.30859,-4.80469 C6.30859,-4.77865 6.29557,-4.73958 6.26953,-4.6875 L0.585938,1.91406 L3.92578,1.91406 L3.92578,-0.703125 C3.92578,-0.872396 3.97135,-1.01562 4.0625,-1.13281 C4.21875,-1.26302 4.34896,-1.34115 4.45312,-1.36719 C4.6224,-1.44531 4.83073,-1.6276 5.07812,-1.91406 C5.28646,-2.14844 5.53385,-2.55859 5.82031,-3.14453 C5.85938,-3.22266 5.91797,-3.26172 5.99609,-3.26172 C6.15234,-3.26172 6.24349,-3.17057 6.26953,-2.98828 L6.26953,1.91406 L7.69531,1.91406 C7.8776,1.91406 7.98177,2.01172 8.00781,2.20703 C8.00781,2.40234 7.90365,2.5 7.69531,2.5 L6.26953,2.5 L6.26953,2.65625 C6.26953,3.17708 6.39974,3.61979 6.66016,3.98438 C6.95964,4.34896 7.3112,4.53125 7.71484,4.53125 C7.87109,4.53125 7.94922,4.60938 7.94922,4.76562 C7.94922,4.92188 7.87109,5 7.71484,5 C7.44141,5 6.9987,4.96094 6.38672,4.88281 C5.82682,4.79167 5.39062,4.74609 5.07812,4.74609 C4.7526,4.74609 4.31641,4.79167 3.76953,4.88281 C3.18359,4.96094 2.7474,5 2.46094,5 C2.30469,5 2.22656,4.92188 2.22656,4.76562 C2.22656,4.60938 2.30469,4.53125 2.46094,4.53125 C2.86458,4.53125 3.21615,4.34896 3.51562,3.98438 C3.78906,3.61979 3.92578,3.17708 3.92578,2.65625 L3.92578,2.5 L0.585938,2.5 C0.364583,2.5 0.208333,2.44792 0.117188,2.34375 C0.0130208,2.26562 -0.0390625,2.16146 -0.0390625,2.03125 C-0.0390625,1.99219 0.0585938,1.85547 0.253906,1.62109 C0.47526,1.36068 0.709635,1.04167 0.957031,0.664062 C1.24349,0.221354 1.51693,-0.234375 1.77734,-0.703125 C2.0638,-1.23698 2.29167,-1.84896 2.46094,-2.53906 C2.65625,-3.24219 2.75391,-3.95833 2.75391,-4.6875 C2.75391,-4.89583 2.84505,-5 3.02734,-5 C3.06641,-5 3.15104,-4.98047 3.28125,-4.94141 C3.32031,-4.92839 3.40169,-4.90885 3.52539,-4.88281 C3.64909,-4.85677 3.75,-4.83073 3.82812,-4.80469 C4.0625,-4.76562 4.28385,-4.74609 4.49219,-4.74609"/>
<path class="StaffText" d="M246.189,44.1854 C246.327,44.1854 246.446,44.2364 246.545,44.3384 C246.644,44.4404 246.693,44.5604 246.693,44.6984 C246.693,44.8304 246.642,44.9444 246.54,45.0404 C246.438,45.1364 246.318,45.1844 246.18,45.1844 C246.048,45.1844 245.934,45.1364 245.838,45.0404 C245.742,44.9444 245.694,44.8304 245.694,44.6984 C245.694,44.5604 245.744,44.4404 245.843,44.3384 C245.942,44.2364 246.057,44.1854 246.189,44.1854 M248.439,44.1854 C248.577,44.1854 248.696,44.2364 248.795,44.3384 C248.894,44.4404 248.943,44.5604 248.943,44.6984 C248.943,44.8304 248.892,44.9444 248.79,45.0404 C248.688,45.1364 248.568,45.1844 248.43,45.1844 C248.298,45.1844 248.184,45.1364 248.088,45.0404 C247.992,44.9444 247.944,44.8304 247.944,44.6984 C247.944,44.5604 247.994,44.4404 248.093,44.3384 C248.192,44.2364 248.307,44.1854 248.439,44.1854 M250.689,44.1854 C250.827,44.1854 250.946,44.2364 251.045,44.3384 C251.144,44.4404 251.193,44.5604 251.193,44.6984 C251.193,44.8304 251.142,44.9444 251.04,45.0404 C250.938,45.1364 250.818,45.1844 250.68,45.1844 C250.548,45.1844 250.434,45.1364 250.338,45.0404 C250.242,44.9444 250.194,44.8304 250.194,44.6984 C250.194,44.5604 250.244,44.4404 250.343,44.3384 C250.442,44.2364 250.557,44.1854 250.689,44.1854"/>
<path class="Bracket" fill-rule="evenodd" d="M5.36477,33.1197 C5.36477,27.8489 1.94376,22.7255 1.94376,17.6758 C1.94376,15.1326 2.87676,12.663 5.75352,10.4515 C5.7924,10.4238 5.81183,10.3778 5.81183,10.3501 C5.81183,10.2672 5.59802,10.1935 5.44252,10.1935 C5.36477,10.1935 5.22871,10.2027 5.13152,10.2672 C1.39951,13.1053 0.155501,16.3858 0.155501,19.7031 C0.155501,25.0476 3.80976,30.2079 3.80976,35.3313 C3.80976,37.8745 2.87676,40.2704 -7.32747e-15,42.4819 L-7.32747e-15,42.5556 L-7.32747e-15,42.6293 C2.87676,44.8409 3.80976,47.2367 3.80976,49.78 C3.80976,54.9034 0.155501,60.0636 0.155501,65.4082 C0.155501,68.7255 1.39951,72.0059 5.13152,74.8441 C5.22871,74.9086 5.36477,74.9178 5.44252,74.9178 C5.59802,74.9178 5.81183,74.8441 5.81183,74.7611 C5.81183,74.7335 5.7924,74.6874 5.75352,74.6598 C2.87676,72.4482 1.94376,69.9787 1.94376,67.4354 C1.94376,62.3857 5.36477,57.2624 5.36477,51.9915 C5.36477,48.6374 4.12076,45.4306 0.466502,42.5556 C4.12076,39.6806 5.36477,36.4739 5.36477,33.1197"/>
</svg>
