<?xml version="1.0" encoding="UTF-8" standalone="no"?>
<svg width="593.659px" height="84.8136px" viewBox="0 0 593.659 84.8136"
 xmlns="http://www.w3.org/2000/svg" xmlns:xlink="http://www.w3.org/1999/xlink" version="1.2" baseProfile="tiny">
<title>Liturgikus improvizáció</title>
<desc>Generated by MuseScore 2.3.2</desc>
<polyline class="StaffLines" fill="none" stroke="#000000" stroke-width="0.34" stroke-linejoin="bevel" points="7.14331,12.7559 593.659,12.7559"/>
<polyline class="StaffLines" fill="none" stroke="#000000" stroke-width="0.34" stroke-linejoin="bevel" points="7.14331,17.0079 593.659,17.0079"/>
<polyline class="StaffLines" fill="none" stroke="#000000" stroke-width="0.34" stroke-linejoin="bevel" points="7.14331,21.2598 593.659,21.2598"/>
<polyline class="StaffLines" fill="none" stroke="#000000" stroke-width="0.34" stroke-linejoin="bevel" points="7.14331,25.5118 593.659,25.5118"/>
<polyline class="StaffLines" fill="none" stroke="#000000" stroke-width="0.34" stroke-linejoin="bevel" points="7.14331,29.7638 593.659,29.7638"/>
<polyline class="StaffLines" fill="none" stroke="#000000" stroke-width="0.34" stroke-linejoin="bevel" points="7.14331,61.1727 593.659,61.1727"/>
<polyline class="StaffLines" fill="none" stroke="#000000" stroke-width="0.34" stroke-linejoin="bevel" points="7.14331,65.4246 593.659,65.4246"/>
<polyline class="StaffLines" fill="none" stroke="#000000" stroke-width="0.34" stroke-linejoin="bevel" points="7.14331,69.6766 593.659,69.6766"/>
<polyline class="StaffLines" fill="none" stroke="#000000" stroke-width="0.34" stroke-linejoin="bevel" points="7.14331,73.9286 593.659,73.9286"/>
<polyline class="StaffLines" fill="none" stroke="#000000" stroke-width="0.34" stroke-linejoin="bevel" points="7.14331,78.1806 593.659,78.1806"/>
<path class="SlurSegment" stroke="#000000" stroke-width="0.30" stroke-linecap="round" stroke-linejoin="round" fill-rule="evenodd" d="M311.522,29.4093 C320.401,34.5967 347.037,34.5967 355.916,29.4093 C347.037,35.277 320.401,35.277 311.522,29.4093"/>
<path class="SlurSegment" stroke="#000000" stroke-width="0.30" stroke-linecap="round" stroke-linejoin="round" fill-rule="evenodd" d="M209.885,27.2833 C218.067,32.4707 242.611,32.4707 250.793,27.2833 C242.611,33.151 218.067,33.151 209.885,27.2833"/>
<path class="SlurSegment" stroke="#000000" stroke-width="0.30" stroke-linecap="round" stroke-linejoin="round" fill-rule="evenodd" d="M110.391,27.1912 C116.195,31.2618 133.605,31.2618 139.409,27.1912 C133.605,31.9421 116.195,31.9421 110.391,27.1912"/>
<path class="SlurSegment" stroke="#000000" stroke-width="0.30" stroke-linecap="round" stroke-linejoin="round" fill-rule="evenodd" d="M71.1651,33.5692 C77.622,38.1362 96.9927,38.1362 103.45,33.5692 C96.9927,38.8166 77.622,38.8166 71.1651,33.5692"/>
<path class="SlurSegment" stroke="#000000" stroke-width="0.30" stroke-linecap="round" stroke-linejoin="round" fill-rule="evenodd" d="M35.2057,25.0652 C41.0093,29.1358 58.42,29.1358 64.2236,25.0652 C58.42,29.8161 41.0093,29.8161 35.2057,25.0652"/>
<path class="SlurSegment" stroke="#000000" stroke-width="0.30" stroke-linecap="round" stroke-linejoin="round" fill-rule="evenodd" d="M257.925,17.3624 C267.52,11.4947 296.306,11.4947 305.902,17.3624 C296.306,12.175 267.52,12.175 257.925,17.3624"/>
<polyline class="BarLine" stroke="#000000" stroke-width="0.68" stroke-linejoin="bevel" points="7.48346,12.7559 7.48346,78.1806"/>
<polyline class="BarLine" stroke="#000000" stroke-width="0.68" stroke-linejoin="bevel" points="591.363,12.7559 591.363,78.1806"/>
<polyline class="BarLine" stroke="#000000" stroke-width="0.68" stroke-linejoin="bevel" points="593.319,12.7559 593.319,78.1806"/>
<polyline class="BarLine" stroke="#000000" stroke-width="0.68" stroke-linejoin="bevel" points="505.719,12.7559 505.719,78.1806"/>
<polyline class="BarLine" stroke="#000000" stroke-width="0.68" stroke-linejoin="bevel" points="408.453,12.7559 408.453,78.1806"/>
<polyline class="BarLine" stroke="#000000" stroke-width="0.68" stroke-linejoin="bevel" points="410.409,12.7559 410.409,78.1806"/>
<polyline class="BarLine" stroke="#000000" stroke-width="0.68" stroke-linejoin="bevel" points="299.466,12.7559 299.466,78.1806"/>
<polyline class="BarLine" stroke="#000000" stroke-width="0.68" stroke-linejoin="bevel" points="177.24,12.7559 177.24,78.1806"/>
<polyline class="BarLine" stroke="#000000" stroke-width="0.68" stroke-linejoin="bevel" points="179.196,12.7559 179.196,78.1806"/>
<polyline class="LedgerLine" stroke="#000000" stroke-width="0.68" stroke-linecap="square" stroke-linejoin="bevel" points="575.812,34.0157 583.961,34.0157"/>
<polyline class="LedgerLine" stroke="#000000" stroke-width="0.68" stroke-linecap="square" stroke-linejoin="bevel" points="509.886,34.0157 518.035,34.0157"/>
<polyline class="LedgerLine" stroke="#000000" stroke-width="0.68" stroke-linecap="square" stroke-linejoin="bevel" points="138.805,82.4325 146.954,82.4325"/>
<polyline class="LedgerLine" stroke="#000000" stroke-width="0.68" stroke-linecap="square" stroke-linejoin="bevel" points="138.805,34.0157 146.954,34.0157"/>
<polyline class="Stem" stroke="#000000" stroke-width="0.55" stroke-linecap="round" stroke-linejoin="bevel" points="582.409,75.256 582.409,60.1097"/>
<polyline class="Stem" stroke="#000000" stroke-width="0.55" stroke-linecap="round" stroke-linejoin="bevel" points="577.364,34.8143 577.364,46.7717"/>
<polyline class="Stem" stroke="#000000" stroke-width="0.55" stroke-linecap="round" stroke-linejoin="bevel" points="582.409,22.5872 582.409,9.56693"/>
<polyline class="Stem" stroke="#000000" stroke-width="0.55" stroke-linecap="round" stroke-linejoin="bevel" points="569.224,73.13 569.224,59.0467"/>
<polyline class="Stem" stroke="#000000" stroke-width="0.55" stroke-linecap="round" stroke-linejoin="bevel" points="564.178,32.6883 564.178,45.1772"/>
<polyline class="Stem" stroke="#000000" stroke-width="0.55" stroke-linecap="round" stroke-linejoin="bevel" points="556.038,71.004 556.038,57.9837"/>
<polyline class="Stem" stroke="#000000" stroke-width="0.55" stroke-linecap="round" stroke-linejoin="bevel" points="550.993,30.5624 550.993,43.5827"/>
<polyline class="Stem" stroke="#000000" stroke-width="0.55" stroke-linecap="round" stroke-linejoin="bevel" points="556.038,24.7132 556.038,11.1614"/>
<polyline class="Stem" stroke="#000000" stroke-width="0.55" stroke-linecap="round" stroke-linejoin="bevel" points="542.853,73.13 542.853,59.5782"/>
<polyline class="Stem" stroke="#000000" stroke-width="0.55" stroke-linecap="round" stroke-linejoin="bevel" points="537.808,32.6883 537.808,46.7717"/>
<polyline class="Stem" stroke="#000000" stroke-width="0.55" stroke-linecap="round" stroke-linejoin="bevel" points="542.853,22.5872 542.853,7.44094"/>
<polyline class="Stem" stroke="#000000" stroke-width="0.55" stroke-linecap="round" stroke-linejoin="bevel" points="529.668,20.4613 529.668,6.37795"/>
<polyline class="Stem" stroke="#000000" stroke-width="0.55" stroke-linecap="round" stroke-linejoin="bevel" points="516.483,75.256 516.483,61.1727"/>
<polyline class="Stem" stroke="#000000" stroke-width="0.55" stroke-linecap="round" stroke-linejoin="bevel" points="511.438,34.8143 511.438,44.1142"/>
<polyline class="Stem" stroke="#000000" stroke-width="0.55" stroke-linecap="round" stroke-linejoin="bevel" points="516.483,18.3353 516.483,5.31496"/>
<polyline class="Stem" stroke="#000000" stroke-width="0.55" stroke-linecap="round" stroke-linejoin="bevel" points="496.764,73.13 496.764,61.1727"/>
<polyline class="Stem" stroke="#000000" stroke-width="0.55" stroke-linecap="round" stroke-linejoin="bevel" points="491.719,32.6883 491.719,43.5827"/>
<polyline class="Stem" stroke="#000000" stroke-width="0.55" stroke-linecap="round" stroke-linejoin="bevel" points="496.764,20.4613 496.764,7.97244"/>
<polyline class="Stem" stroke="#000000" stroke-width="0.55" stroke-linecap="round" stroke-linejoin="bevel" points="485.094,71.004 485.094,59.0467"/>
<polyline class="Stem" stroke="#000000" stroke-width="0.55" stroke-linecap="round" stroke-linejoin="bevel" points="480.049,30.5624 480.049,41.4567"/>
<polyline class="Stem" stroke="#000000" stroke-width="0.55" stroke-linecap="round" stroke-linejoin="bevel" points="473.423,68.878 473.423,56.9207"/>
<polyline class="Stem" stroke="#000000" stroke-width="0.55" stroke-linecap="round" stroke-linejoin="bevel" points="468.378,28.4364 468.378,39.3307"/>
<polyline class="Stem" stroke="#000000" stroke-width="0.55" stroke-linecap="round" stroke-linejoin="bevel" points="473.423,22.5872 473.423,9.56693"/>
<polyline class="Stem" stroke="#000000" stroke-width="0.55" stroke-linecap="round" stroke-linejoin="bevel" points="461.752,20.4613 461.752,5.31496"/>
<polyline class="Stem" stroke="#000000" stroke-width="0.55" stroke-linecap="round" stroke-linejoin="bevel" points="450.082,18.3353 450.082,4.25197"/>
<polyline class="Stem" stroke="#000000" stroke-width="0.55" stroke-linecap="round" stroke-linejoin="bevel" points="438.411,16.2093 438.411,3.18898"/>
<polyline class="Stem" stroke="#000000" stroke-width="0.55" stroke-linecap="round" stroke-linejoin="bevel" points="395.508,28.4364 395.508,39.3307"/>
<polyline class="Stem" stroke="#000000" stroke-width="0.55" stroke-linecap="round" stroke-linejoin="bevel" points="382.627,26.3104 382.627,41.4567"/>
<polyline class="Stem" stroke="#000000" stroke-width="0.55" stroke-linecap="round" stroke-linejoin="bevel" points="369.745,32.6883 369.745,43.5827"/>
<polyline class="Stem" stroke="#000000" stroke-width="0.55" stroke-linecap="round" stroke-linejoin="bevel" points="362.063,77.5275 362.063,63.2987"/>
<polyline class="Stem" stroke="#000000" stroke-width="0.55" stroke-linecap="round" stroke-linejoin="bevel" points="356.864,28.4364 356.864,42.5197"/>
<polyline class="Stem" stroke="#000000" stroke-width="0.55" stroke-linecap="round" stroke-linejoin="bevel" points="362.063,20.6067 362.063,7.97244"/>
<polyline class="Stem" stroke="#000000" stroke-width="0.55" stroke-linecap="round" stroke-linejoin="bevel" points="349.028,18.3353 349.028,5.31496"/>
<polyline class="Stem" stroke="#000000" stroke-width="0.55" stroke-linecap="round" stroke-linejoin="bevel" points="336.146,16.2093 336.146,5.31496"/>
<polyline class="Stem" stroke="#000000" stroke-width="0.55" stroke-linecap="round" stroke-linejoin="bevel" points="323.265,22.5872 323.265,5.31496"/>
<polyline class="Stem" stroke="#000000" stroke-width="0.55" stroke-linecap="round" stroke-linejoin="bevel" points="305.185,70.3433 305.185,82.964"/>
<polyline class="Stem" stroke="#000000" stroke-width="0.55" stroke-linecap="round" stroke-linejoin="bevel" points="305.185,28.3045 305.185,39.3307"/>
<polyline class="Stem" stroke="#000000" stroke-width="0.55" stroke-linecap="round" stroke-linejoin="bevel" points="310.384,18.3353 310.384,6.37795"/>
<polyline class="Stem" stroke="#000000" stroke-width="0.55" stroke-linecap="round" stroke-linejoin="bevel" points="287.487,26.3104 287.487,39.3307"/>
<polyline class="Stem" stroke="#000000" stroke-width="0.55" stroke-linecap="round" stroke-linejoin="bevel" points="275.572,24.1844 275.572,40.9252"/>
<polyline class="Stem" stroke="#000000" stroke-width="0.55" stroke-linecap="round" stroke-linejoin="bevel" points="263.656,30.5624 263.656,42.5197"/>
<polyline class="Stem" stroke="#000000" stroke-width="0.55" stroke-linecap="round" stroke-linejoin="bevel" points="256.94,75.4015 256.94,61.1727"/>
<polyline class="Stem" stroke="#000000" stroke-width="0.55" stroke-linecap="round" stroke-linejoin="bevel" points="251.741,26.3104 251.741,40.3937"/>
<polyline class="Stem" stroke="#000000" stroke-width="0.55" stroke-linecap="round" stroke-linejoin="bevel" points="256.94,18.4808 256.94,6.37795"/>
<polyline class="Stem" stroke="#000000" stroke-width="0.55" stroke-linecap="round" stroke-linejoin="bevel" points="244.493,16.2093 244.493,4.25197"/>
<polyline class="Stem" stroke="#000000" stroke-width="0.55" stroke-linecap="round" stroke-linejoin="bevel" points="232.578,14.0833 232.578,4.25197"/>
<polyline class="Stem" stroke="#000000" stroke-width="0.55" stroke-linecap="round" stroke-linejoin="bevel" points="220.662,20.4613 220.662,4.25197"/>
<polyline class="Stem" stroke="#000000" stroke-width="0.55" stroke-linecap="round" stroke-linejoin="bevel" points="203.548,68.2173 203.548,81.3695"/>
<polyline class="Stem" stroke="#000000" stroke-width="0.55" stroke-linecap="round" stroke-linejoin="bevel" points="203.548,26.1785 203.548,37.7362"/>
<polyline class="Stem" stroke="#000000" stroke-width="0.55" stroke-linecap="round" stroke-linejoin="bevel" points="172.372,18.3353 172.372,4.25197"/>
<polyline class="Stem" stroke="#000000" stroke-width="0.55" stroke-linecap="round" stroke-linejoin="bevel" points="163.382,20.4613 163.382,4.25197"/>
<polyline class="Stem" stroke="#000000" stroke-width="0.55" stroke-linecap="round" stroke-linejoin="bevel" points="154.392,16.2093 154.392,4.25197"/>
<polyline class="Stem" stroke="#000000" stroke-width="0.55" stroke-linecap="round" stroke-linejoin="bevel" points="145.402,81.6339 145.402,67.5506"/>
<polyline class="Stem" stroke="#000000" stroke-width="0.55" stroke-linecap="round" stroke-linejoin="bevel" points="140.357,26.3104 140.357,44.1142"/>
<polyline class="Stem" stroke="#000000" stroke-width="0.55" stroke-linecap="round" stroke-linejoin="bevel" points="145.402,18.3353 145.402,4.25197"/>
<polyline class="Stem" stroke="#000000" stroke-width="0.55" stroke-linecap="round" stroke-linejoin="bevel" points="136.413,77.382 136.413,62.2357"/>
<polyline class="Stem" stroke="#000000" stroke-width="0.55" stroke-linecap="round" stroke-linejoin="bevel" points="127.423,79.508 127.423,62.2357"/>
<polyline class="Stem" stroke="#000000" stroke-width="0.55" stroke-linecap="round" stroke-linejoin="bevel" points="118.433,75.256 118.433,62.2357"/>
<polyline class="Stem" stroke="#000000" stroke-width="0.55" stroke-linecap="round" stroke-linejoin="bevel" points="109.443,77.382 109.443,62.2357"/>
<polyline class="Stem" stroke="#000000" stroke-width="0.55" stroke-linecap="round" stroke-linejoin="bevel" points="104.398,26.3104 104.398,42.5197"/>
<polyline class="Stem" stroke="#000000" stroke-width="0.55" stroke-linecap="round" stroke-linejoin="bevel" points="109.443,20.4613 109.443,7.97244"/>
<polyline class="Stem" stroke="#000000" stroke-width="0.55" stroke-linecap="round" stroke-linejoin="bevel" points="97.1865,16.2093 97.1865,1.06299"/>
<polyline class="Stem" stroke="#000000" stroke-width="0.55" stroke-linecap="round" stroke-linejoin="bevel" points="88.1967,18.3353 88.1967,1.06299"/>
<polyline class="Stem" stroke="#000000" stroke-width="0.55" stroke-linecap="round" stroke-linejoin="bevel" points="79.2068,14.0833 79.2068,1.06299"/>
<polyline class="Stem" stroke="#000000" stroke-width="0.55" stroke-linecap="round" stroke-linejoin="bevel" points="70.217,79.508 70.217,65.4246"/>
<polyline class="Stem" stroke="#000000" stroke-width="0.55" stroke-linecap="round" stroke-linejoin="bevel" points="65.1717,24.1844 65.1717,42.5197"/>
<polyline class="Stem" stroke="#000000" stroke-width="0.55" stroke-linecap="round" stroke-linejoin="bevel" points="70.217,16.2093 70.217,1.06299"/>
<polyline class="Stem" stroke="#000000" stroke-width="0.55" stroke-linecap="round" stroke-linejoin="bevel" points="61.2271,75.256 61.2271,61.1727"/>
<polyline class="Stem" stroke="#000000" stroke-width="0.55" stroke-linecap="round" stroke-linejoin="bevel" points="52.2373,77.382 52.2373,61.1727"/>
<polyline class="Stem" stroke="#000000" stroke-width="0.55" stroke-linecap="round" stroke-linejoin="bevel" points="43.2474,73.13 43.2474,61.1727"/>
<polyline class="Stem" stroke="#000000" stroke-width="0.55" stroke-linecap="round" stroke-linejoin="bevel" points="34.2576,75.256 34.2576,61.1727"/>
<polyline class="Stem" stroke="#000000" stroke-width="0.55" stroke-linecap="round" stroke-linejoin="bevel" points="29.2124,24.1844 29.2124,40.9252"/>
<polyline class="Stem" stroke="#000000" stroke-width="0.55" stroke-linecap="round" stroke-linejoin="bevel" points="34.2576,18.3353 34.2576,6.37795"/>
<path class="Note" transform="matrix(0.850394,0,0,0.850394,577.087,76.0546)" d="M4.39453,-2.75391 C5.01953,-2.75391 5.54688,-2.59115 5.97656,-2.26562 C6.38021,-1.91406 6.58203,-1.47135 6.58203,-0.9375 C6.58203,-0.0390625 6.11979,0.800781 5.19531,1.58203 C4.25781,2.36328 3.25521,2.75391 2.1875,2.75391 C1.5625,2.75391 1.03516,2.59115 0.605469,2.26562 C0.201823,1.91406 0,1.47135 0,0.9375 C0,0.0390625 0.46875,-0.800781 1.40625,-1.58203 C2.31771,-2.36328 3.3138,-2.75391 4.39453,-2.75391"/>
<path class="Note" transform="matrix(0.850394,0,0,0.850394,577.087,34.0157)" d="M4.39453,-2.75391 C5.01953,-2.75391 5.54688,-2.59115 5.97656,-2.26562 C6.38021,-1.91406 6.58203,-1.47135 6.58203,-0.9375 C6.58203,-0.0390625 6.11979,0.800781 5.19531,1.58203 C4.25781,2.36328 3.25521,2.75391 2.1875,2.75391 C1.5625,2.75391 1.03516,2.59115 0.605469,2.26562 C0.201823,1.91406 0,1.47135 0,0.9375 C0,0.0390625 0.46875,-0.800781 1.40625,-1.58203 C2.31771,-2.36328 3.3138,-2.75391 4.39453,-2.75391"/>
<path class="Note" transform="matrix(0.850394,0,0,0.850394,577.087,23.3858)" d="M4.39453,-2.75391 C5.01953,-2.75391 5.54688,-2.59115 5.97656,-2.26562 C6.38021,-1.91406 6.58203,-1.47135 6.58203,-0.9375 C6.58203,-0.0390625 6.11979,0.800781 5.19531,1.58203 C4.25781,2.36328 3.25521,2.75391 2.1875,2.75391 C1.5625,2.75391 1.03516,2.59115 0.605469,2.26562 C0.201823,1.91406 0,1.47135 0,0.9375 C0,0.0390625 0.46875,-0.800781 1.40625,-1.58203 C2.31771,-2.36328 3.3138,-2.75391 4.39453,-2.75391"/>
<path class="Note" transform="matrix(0.850394,0,0,0.850394,563.902,73.9286)" d="M4.39453,-2.75391 C5.01953,-2.75391 5.54688,-2.59115 5.97656,-2.26562 C6.38021,-1.91406 6.58203,-1.47135 6.58203,-0.9375 C6.58203,-0.0390625 6.11979,0.800781 5.19531,1.58203 C4.25781,2.36328 3.25521,2.75391 2.1875,2.75391 C1.5625,2.75391 1.03516,2.59115 0.605469,2.26562 C0.201823,1.91406 0,1.47135 0,0.9375 C0,0.0390625 0.46875,-0.800781 1.40625,-1.58203 C2.31771,-2.36328 3.3138,-2.75391 4.39453,-2.75391"/>
<path class="Note" transform="matrix(0.850394,0,0,0.850394,563.902,31.8898)" d="M4.39453,-2.75391 C5.01953,-2.75391 5.54688,-2.59115 5.97656,-2.26562 C6.38021,-1.91406 6.58203,-1.47135 6.58203,-0.9375 C6.58203,-0.0390625 6.11979,0.800781 5.19531,1.58203 C4.25781,2.36328 3.25521,2.75391 2.1875,2.75391 C1.5625,2.75391 1.03516,2.59115 0.605469,2.26562 C0.201823,1.91406 0,1.47135 0,0.9375 C0,0.0390625 0.46875,-0.800781 1.40625,-1.58203 C2.31771,-2.36328 3.3138,-2.75391 4.39453,-2.75391"/>
<path class="Note" transform="matrix(0.850394,0,0,0.850394,550.717,71.8026)" d="M4.39453,-2.75391 C5.01953,-2.75391 5.54688,-2.59115 5.97656,-2.26562 C6.38021,-1.91406 6.58203,-1.47135 6.58203,-0.9375 C6.58203,-0.0390625 6.11979,0.800781 5.19531,1.58203 C4.25781,2.36328 3.25521,2.75391 2.1875,2.75391 C1.5625,2.75391 1.03516,2.59115 0.605469,2.26562 C0.201823,1.91406 0,1.47135 0,0.9375 C0,0.0390625 0.46875,-0.800781 1.40625,-1.58203 C2.31771,-2.36328 3.3138,-2.75391 4.39453,-2.75391"/>
<path class="Note" transform="matrix(0.850394,0,0,0.850394,550.717,29.7638)" d="M4.39453,-2.75391 C5.01953,-2.75391 5.54688,-2.59115 5.97656,-2.26562 C6.38021,-1.91406 6.58203,-1.47135 6.58203,-0.9375 C6.58203,-0.0390625 6.11979,0.800781 5.19531,1.58203 C4.25781,2.36328 3.25521,2.75391 2.1875,2.75391 C1.5625,2.75391 1.03516,2.59115 0.605469,2.26562 C0.201823,1.91406 0,1.47135 0,0.9375 C0,0.0390625 0.46875,-0.800781 1.40625,-1.58203 C2.31771,-2.36328 3.3138,-2.75391 4.39453,-2.75391"/>
<path class="Note" transform="matrix(0.850394,0,0,0.850394,550.717,25.5118)" d="M4.39453,-2.75391 C5.01953,-2.75391 5.54688,-2.59115 5.97656,-2.26562 C6.38021,-1.91406 6.58203,-1.47135 6.58203,-0.9375 C6.58203,-0.0390625 6.11979,0.800781 5.19531,1.58203 C4.25781,2.36328 3.25521,2.75391 2.1875,2.75391 C1.5625,2.75391 1.03516,2.59115 0.605469,2.26562 C0.201823,1.91406 0,1.47135 0,0.9375 C0,0.0390625 0.46875,-0.800781 1.40625,-1.58203 C2.31771,-2.36328 3.3138,-2.75391 4.39453,-2.75391"/>
<path class="Note" transform="matrix(0.850394,0,0,0.850394,537.532,73.9286)" d="M4.39453,-2.75391 C5.01953,-2.75391 5.54688,-2.59115 5.97656,-2.26562 C6.38021,-1.91406 6.58203,-1.47135 6.58203,-0.9375 C6.58203,-0.0390625 6.11979,0.800781 5.19531,1.58203 C4.25781,2.36328 3.25521,2.75391 2.1875,2.75391 C1.5625,2.75391 1.03516,2.59115 0.605469,2.26562 C0.201823,1.91406 0,1.47135 0,0.9375 C0,0.0390625 0.46875,-0.800781 1.40625,-1.58203 C2.31771,-2.36328 3.3138,-2.75391 4.39453,-2.75391"/>
<path class="Note" transform="matrix(0.850394,0,0,0.850394,537.532,31.8898)" d="M4.39453,-2.75391 C5.01953,-2.75391 5.54688,-2.59115 5.97656,-2.26562 C6.38021,-1.91406 6.58203,-1.47135 6.58203,-0.9375 C6.58203,-0.0390625 6.11979,0.800781 5.19531,1.58203 C4.25781,2.36328 3.25521,2.75391 2.1875,2.75391 C1.5625,2.75391 1.03516,2.59115 0.605469,2.26562 C0.201823,1.91406 0,1.47135 0,0.9375 C0,0.0390625 0.46875,-0.800781 1.40625,-1.58203 C2.31771,-2.36328 3.3138,-2.75391 4.39453,-2.75391"/>
<path class="Note" transform="matrix(0.850394,0,0,0.850394,537.532,23.3858)" d="M4.39453,-2.75391 C5.01953,-2.75391 5.54688,-2.59115 5.97656,-2.26562 C6.38021,-1.91406 6.58203,-1.47135 6.58203,-0.9375 C6.58203,-0.0390625 6.11979,0.800781 5.19531,1.58203 C4.25781,2.36328 3.25521,2.75391 2.1875,2.75391 C1.5625,2.75391 1.03516,2.59115 0.605469,2.26562 C0.201823,1.91406 0,1.47135 0,0.9375 C0,0.0390625 0.46875,-0.800781 1.40625,-1.58203 C2.31771,-2.36328 3.3138,-2.75391 4.39453,-2.75391"/>
<path class="Note" transform="matrix(0.850394,0,0,0.850394,524.346,21.2598)" d="M4.39453,-2.75391 C5.01953,-2.75391 5.54688,-2.59115 5.97656,-2.26562 C6.38021,-1.91406 6.58203,-1.47135 6.58203,-0.9375 C6.58203,-0.0390625 6.11979,0.800781 5.19531,1.58203 C4.25781,2.36328 3.25521,2.75391 2.1875,2.75391 C1.5625,2.75391 1.03516,2.59115 0.605469,2.26562 C0.201823,1.91406 0,1.47135 0,0.9375 C0,0.0390625 0.46875,-0.800781 1.40625,-1.58203 C2.31771,-2.36328 3.3138,-2.75391 4.39453,-2.75391"/>
<path class="Note" transform="matrix(0.850394,0,0,0.850394,511.161,76.0546)" d="M4.39453,-2.75391 C5.01953,-2.75391 5.54688,-2.59115 5.97656,-2.26562 C6.38021,-1.91406 6.58203,-1.47135 6.58203,-0.9375 C6.58203,-0.0390625 6.11979,0.800781 5.19531,1.58203 C4.25781,2.36328 3.25521,2.75391 2.1875,2.75391 C1.5625,2.75391 1.03516,2.59115 0.605469,2.26562 C0.201823,1.91406 0,1.47135 0,0.9375 C0,0.0390625 0.46875,-0.800781 1.40625,-1.58203 C2.31771,-2.36328 3.3138,-2.75391 4.39453,-2.75391"/>
<path class="Note" transform="matrix(0.850394,0,0,0.850394,511.161,34.0157)" d="M4.39453,-2.75391 C5.01953,-2.75391 5.54688,-2.59115 5.97656,-2.26562 C6.38021,-1.91406 6.58203,-1.47135 6.58203,-0.9375 C6.58203,-0.0390625 6.11979,0.800781 5.19531,1.58203 C4.25781,2.36328 3.25521,2.75391 2.1875,2.75391 C1.5625,2.75391 1.03516,2.59115 0.605469,2.26562 C0.201823,1.91406 0,1.47135 0,0.9375 C0,0.0390625 0.46875,-0.800781 1.40625,-1.58203 C2.31771,-2.36328 3.3138,-2.75391 4.39453,-2.75391"/>
<path class="Note" transform="matrix(0.850394,0,0,0.850394,511.161,19.1339)" d="M4.39453,-2.75391 C5.01953,-2.75391 5.54688,-2.59115 5.97656,-2.26562 C6.38021,-1.91406 6.58203,-1.47135 6.58203,-0.9375 C6.58203,-0.0390625 6.11979,0.800781 5.19531,1.58203 C4.25781,2.36328 3.25521,2.75391 2.1875,2.75391 C1.5625,2.75391 1.03516,2.59115 0.605469,2.26562 C0.201823,1.91406 0,1.47135 0,0.9375 C0,0.0390625 0.46875,-0.800781 1.40625,-1.58203 C2.31771,-2.36328 3.3138,-2.75391 4.39453,-2.75391"/>
<path class="Note" transform="matrix(0.850394,0,0,0.850394,491.443,73.9286)" d="M4.39453,-2.75391 C5.01953,-2.75391 5.54688,-2.59115 5.97656,-2.26562 C6.38021,-1.91406 6.58203,-1.47135 6.58203,-0.9375 C6.58203,-0.0390625 6.11979,0.800781 5.19531,1.58203 C4.25781,2.36328 3.25521,2.75391 2.1875,2.75391 C1.5625,2.75391 1.03516,2.59115 0.605469,2.26562 C0.201823,1.91406 0,1.47135 0,0.9375 C0,0.0390625 0.46875,-0.800781 1.40625,-1.58203 C2.31771,-2.36328 3.3138,-2.75391 4.39453,-2.75391"/>
<path class="Note" transform="matrix(0.850394,0,0,0.850394,491.443,31.8898)" d="M4.39453,-2.75391 C5.01953,-2.75391 5.54688,-2.59115 5.97656,-2.26562 C6.38021,-1.91406 6.58203,-1.47135 6.58203,-0.9375 C6.58203,-0.0390625 6.11979,0.800781 5.19531,1.58203 C4.25781,2.36328 3.25521,2.75391 2.1875,2.75391 C1.5625,2.75391 1.03516,2.59115 0.605469,2.26562 C0.201823,1.91406 0,1.47135 0,0.9375 C0,0.0390625 0.46875,-0.800781 1.40625,-1.58203 C2.31771,-2.36328 3.3138,-2.75391 4.39453,-2.75391"/>
<path class="Note" transform="matrix(0.850394,0,0,0.850394,491.443,21.2598)" d="M4.39453,-2.75391 C5.01953,-2.75391 5.54688,-2.59115 5.97656,-2.26562 C6.38021,-1.91406 6.58203,-1.47135 6.58203,-0.9375 C6.58203,-0.0390625 6.11979,0.800781 5.19531,1.58203 C4.25781,2.36328 3.25521,2.75391 2.1875,2.75391 C1.5625,2.75391 1.03516,2.59115 0.605469,2.26562 C0.201823,1.91406 0,1.47135 0,0.9375 C0,0.0390625 0.46875,-0.800781 1.40625,-1.58203 C2.31771,-2.36328 3.3138,-2.75391 4.39453,-2.75391"/>
<path class="Note" transform="matrix(0.850394,0,0,0.850394,479.772,71.8026)" d="M4.39453,-2.75391 C5.01953,-2.75391 5.54688,-2.59115 5.97656,-2.26562 C6.38021,-1.91406 6.58203,-1.47135 6.58203,-0.9375 C6.58203,-0.0390625 6.11979,0.800781 5.19531,1.58203 C4.25781,2.36328 3.25521,2.75391 2.1875,2.75391 C1.5625,2.75391 1.03516,2.59115 0.605469,2.26562 C0.201823,1.91406 0,1.47135 0,0.9375 C0,0.0390625 0.46875,-0.800781 1.40625,-1.58203 C2.31771,-2.36328 3.3138,-2.75391 4.39453,-2.75391"/>
<path class="Note" transform="matrix(0.850394,0,0,0.850394,479.772,29.7638)" d="M4.39453,-2.75391 C5.01953,-2.75391 5.54688,-2.59115 5.97656,-2.26562 C6.38021,-1.91406 6.58203,-1.47135 6.58203,-0.9375 C6.58203,-0.0390625 6.11979,0.800781 5.19531,1.58203 C4.25781,2.36328 3.25521,2.75391 2.1875,2.75391 C1.5625,2.75391 1.03516,2.59115 0.605469,2.26562 C0.201823,1.91406 0,1.47135 0,0.9375 C0,0.0390625 0.46875,-0.800781 1.40625,-1.58203 C2.31771,-2.36328 3.3138,-2.75391 4.39453,-2.75391"/>
<path class="Note" transform="matrix(0.850394,0,0,0.850394,468.101,69.6766)" d="M4.39453,-2.75391 C5.01953,-2.75391 5.54688,-2.59115 5.97656,-2.26562 C6.38021,-1.91406 6.58203,-1.47135 6.58203,-0.9375 C6.58203,-0.0390625 6.11979,0.800781 5.19531,1.58203 C4.25781,2.36328 3.25521,2.75391 2.1875,2.75391 C1.5625,2.75391 1.03516,2.59115 0.605469,2.26562 C0.201823,1.91406 0,1.47135 0,0.9375 C0,0.0390625 0.46875,-0.800781 1.40625,-1.58203 C2.31771,-2.36328 3.3138,-2.75391 4.39453,-2.75391"/>
<path class="Note" transform="matrix(0.850394,0,0,0.850394,468.101,27.6378)" d="M4.39453,-2.75391 C5.01953,-2.75391 5.54688,-2.59115 5.97656,-2.26562 C6.38021,-1.91406 6.58203,-1.47135 6.58203,-0.9375 C6.58203,-0.0390625 6.11979,0.800781 5.19531,1.58203 C4.25781,2.36328 3.25521,2.75391 2.1875,2.75391 C1.5625,2.75391 1.03516,2.59115 0.605469,2.26562 C0.201823,1.91406 0,1.47135 0,0.9375 C0,0.0390625 0.46875,-0.800781 1.40625,-1.58203 C2.31771,-2.36328 3.3138,-2.75391 4.39453,-2.75391"/>
<path class="Note" transform="matrix(0.850394,0,0,0.850394,468.101,23.3858)" d="M4.39453,-2.75391 C5.01953,-2.75391 5.54688,-2.59115 5.97656,-2.26562 C6.38021,-1.91406 6.58203,-1.47135 6.58203,-0.9375 C6.58203,-0.0390625 6.11979,0.800781 5.19531,1.58203 C4.25781,2.36328 3.25521,2.75391 2.1875,2.75391 C1.5625,2.75391 1.03516,2.59115 0.605469,2.26562 C0.201823,1.91406 0,1.47135 0,0.9375 C0,0.0390625 0.46875,-0.800781 1.40625,-1.58203 C2.31771,-2.36328 3.3138,-2.75391 4.39453,-2.75391"/>
<path class="Note" transform="matrix(0.850394,0,0,0.850394,456.431,21.2598)" d="M4.39453,-2.75391 C5.01953,-2.75391 5.54688,-2.59115 5.97656,-2.26562 C6.38021,-1.91406 6.58203,-1.47135 6.58203,-0.9375 C6.58203,-0.0390625 6.11979,0.800781 5.19531,1.58203 C4.25781,2.36328 3.25521,2.75391 2.1875,2.75391 C1.5625,2.75391 1.03516,2.59115 0.605469,2.26562 C0.201823,1.91406 0,1.47135 0,0.9375 C0,0.0390625 0.46875,-0.800781 1.40625,-1.58203 C2.31771,-2.36328 3.3138,-2.75391 4.39453,-2.75391"/>
<path class="Note" transform="matrix(0.850394,0,0,0.850394,444.76,19.1339)" d="M4.39453,-2.75391 C5.01953,-2.75391 5.54688,-2.59115 5.97656,-2.26562 C6.38021,-1.91406 6.58203,-1.47135 6.58203,-0.9375 C6.58203,-0.0390625 6.11979,0.800781 5.19531,1.58203 C4.25781,2.36328 3.25521,2.75391 2.1875,2.75391 C1.5625,2.75391 1.03516,2.59115 0.605469,2.26562 C0.201823,1.91406 0,1.47135 0,0.9375 C0,0.0390625 0.46875,-0.800781 1.40625,-1.58203 C2.31771,-2.36328 3.3138,-2.75391 4.39453,-2.75391"/>
<path class="Note" transform="matrix(0.850394,0,0,0.850394,433.089,17.0079)" d="M4.39453,-2.75391 C5.01953,-2.75391 5.54688,-2.59115 5.97656,-2.26562 C6.38021,-1.91406 6.58203,-1.47135 6.58203,-0.9375 C6.58203,-0.0390625 6.11979,0.800781 5.19531,1.58203 C4.25781,2.36328 3.25521,2.75391 2.1875,2.75391 C1.5625,2.75391 1.03516,2.59115 0.605469,2.26562 C0.201823,1.91406 0,1.47135 0,0.9375 C0,0.0390625 0.46875,-0.800781 1.40625,-1.58203 C2.31771,-2.36328 3.3138,-2.75391 4.39453,-2.75391"/>
<path class="Note" transform="matrix(0.850394,0,0,0.850394,395.232,27.6378)" d="M4.39453,-2.75391 C5.01953,-2.75391 5.54688,-2.59115 5.97656,-2.26562 C6.38021,-1.91406 6.58203,-1.47135 6.58203,-0.9375 C6.58203,-0.0390625 6.11979,0.800781 5.19531,1.58203 C4.25781,2.36328 3.25521,2.75391 2.1875,2.75391 C1.5625,2.75391 1.03516,2.59115 0.605469,2.26562 C0.201823,1.91406 0,1.47135 0,0.9375 C0,0.0390625 0.46875,-0.800781 1.40625,-1.58203 C2.31771,-2.36328 3.3138,-2.75391 4.39453,-2.75391"/>
<path class="Note" transform="matrix(0.850394,0,0,0.850394,382.35,25.5118)" d="M4.39453,-2.75391 C5.01953,-2.75391 5.54688,-2.59115 5.97656,-2.26562 C6.38021,-1.91406 6.58203,-1.47135 6.58203,-0.9375 C6.58203,-0.0390625 6.11979,0.800781 5.19531,1.58203 C4.25781,2.36328 3.25521,2.75391 2.1875,2.75391 C1.5625,2.75391 1.03516,2.59115 0.605469,2.26562 C0.201823,1.91406 0,1.47135 0,0.9375 C0,0.0390625 0.46875,-0.800781 1.40625,-1.58203 C2.31771,-2.36328 3.3138,-2.75391 4.39453,-2.75391"/>
<path class="Note" transform="matrix(0.850394,0,0,0.850394,369.469,31.8898)" d="M4.39453,-2.75391 C5.01953,-2.75391 5.54688,-2.59115 5.97656,-2.26562 C6.38021,-1.91406 6.58203,-1.47135 6.58203,-0.9375 C6.58203,-0.0390625 6.11979,0.800781 5.19531,1.58203 C4.25781,2.36328 3.25521,2.75391 2.1875,2.75391 C1.5625,2.75391 1.03516,2.59115 0.605469,2.26562 C0.201823,1.91406 0,1.47135 0,0.9375 C0,0.0390625 0.46875,-0.800781 1.40625,-1.58203 C2.31771,-2.36328 3.3138,-2.75391 4.39453,-2.75391"/>
<path class="Note" transform="matrix(0.850394,0,0,0.850394,356.434,78.1806)" d="M6.30859,-1.30859 C6.30859,-1.52995 6.22396,-1.71875 6.05469,-1.875 C5.88542,-2.04427 5.6901,-2.12891 5.46875,-2.12891 C5.07812,-2.12891 4.29036,-1.73828 3.10547,-0.957031 C1.88151,-0.16276 1.13281,0.403646 0.859375,0.742188 C0.716146,0.924479 0.644531,1.11328 0.644531,1.30859 C0.644531,1.52995 0.729167,1.71875 0.898438,1.875 C1.05469,2.04427 1.25,2.12891 1.48438,2.12891 C1.86198,2.12891 2.65625,1.73828 3.86719,0.957031 C5.0651,0.175781 5.80729,-0.390625 6.09375,-0.742188 C6.23698,-0.911458 6.30859,-1.10026 6.30859,-1.30859 M5.27344,-2.75391 C6.39323,-2.75391 6.95312,-2.27214 6.95312,-1.30859 C6.95312,-0.839844 6.81641,-0.292969 6.54297,0.332031 C6.26953,0.94401 5.90495,1.41276 5.44922,1.73828 C4.44661,2.41536 3.1901,2.75391 1.67969,2.75391 C0.559896,2.75391 0,2.27214 0,1.30859 C0,0.878906 0.136719,0.338542 0.410156,-0.3125 C0.670573,-0.9375 1.03516,-1.41276 1.50391,-1.73828 C2.50651,-2.41536 3.76302,-2.75391 5.27344,-2.75391"/>
<path class="Note" transform="matrix(0.850394,0,0,0.850394,356.588,27.6378)" d="M4.39453,-2.75391 C5.01953,-2.75391 5.54688,-2.59115 5.97656,-2.26562 C6.38021,-1.91406 6.58203,-1.47135 6.58203,-0.9375 C6.58203,-0.0390625 6.11979,0.800781 5.19531,1.58203 C4.25781,2.36328 3.25521,2.75391 2.1875,2.75391 C1.5625,2.75391 1.03516,2.59115 0.605469,2.26562 C0.201823,1.91406 0,1.47135 0,0.9375 C0,0.0390625 0.46875,-0.800781 1.40625,-1.58203 C2.31771,-2.36328 3.3138,-2.75391 4.39453,-2.75391"/>
<path class="Note" transform="matrix(0.850394,0,0,0.850394,356.434,21.2598)" d="M6.30859,-1.30859 C6.30859,-1.52995 6.22396,-1.71875 6.05469,-1.875 C5.88542,-2.04427 5.6901,-2.12891 5.46875,-2.12891 C5.07812,-2.12891 4.29036,-1.73828 3.10547,-0.957031 C1.88151,-0.16276 1.13281,0.403646 0.859375,0.742188 C0.716146,0.924479 0.644531,1.11328 0.644531,1.30859 C0.644531,1.52995 0.729167,1.71875 0.898438,1.875 C1.05469,2.04427 1.25,2.12891 1.48438,2.12891 C1.86198,2.12891 2.65625,1.73828 3.86719,0.957031 C5.0651,0.175781 5.80729,-0.390625 6.09375,-0.742188 C6.23698,-0.911458 6.30859,-1.10026 6.30859,-1.30859 M5.27344,-2.75391 C6.39323,-2.75391 6.95312,-2.27214 6.95312,-1.30859 C6.95312,-0.839844 6.81641,-0.292969 6.54297,0.332031 C6.26953,0.94401 5.90495,1.41276 5.44922,1.73828 C4.44661,2.41536 3.1901,2.75391 1.67969,2.75391 C0.559896,2.75391 0,2.27214 0,1.30859 C0,0.878906 0.136719,0.338542 0.410156,-0.3125 C0.670573,-0.9375 1.03516,-1.41276 1.50391,-1.73828 C2.50651,-2.41536 3.76302,-2.75391 5.27344,-2.75391"/>
<path class="Note" transform="matrix(0.850394,0,0,0.850394,343.706,19.1339)" d="M4.39453,-2.75391 C5.01953,-2.75391 5.54688,-2.59115 5.97656,-2.26562 C6.38021,-1.91406 6.58203,-1.47135 6.58203,-0.9375 C6.58203,-0.0390625 6.11979,0.800781 5.19531,1.58203 C4.25781,2.36328 3.25521,2.75391 2.1875,2.75391 C1.5625,2.75391 1.03516,2.59115 0.605469,2.26562 C0.201823,1.91406 0,1.47135 0,0.9375 C0,0.0390625 0.46875,-0.800781 1.40625,-1.58203 C2.31771,-2.36328 3.3138,-2.75391 4.39453,-2.75391"/>
<path class="Note" transform="matrix(0.850394,0,0,0.850394,330.825,17.0079)" d="M4.39453,-2.75391 C5.01953,-2.75391 5.54688,-2.59115 5.97656,-2.26562 C6.38021,-1.91406 6.58203,-1.47135 6.58203,-0.9375 C6.58203,-0.0390625 6.11979,0.800781 5.19531,1.58203 C4.25781,2.36328 3.25521,2.75391 2.1875,2.75391 C1.5625,2.75391 1.03516,2.59115 0.605469,2.26562 C0.201823,1.91406 0,1.47135 0,0.9375 C0,0.0390625 0.46875,-0.800781 1.40625,-1.58203 C2.31771,-2.36328 3.3138,-2.75391 4.39453,-2.75391"/>
<path class="Note" transform="matrix(0.850394,0,0,0.850394,317.943,23.3858)" d="M4.39453,-2.75391 C5.01953,-2.75391 5.54688,-2.59115 5.97656,-2.26562 C6.38021,-1.91406 6.58203,-1.47135 6.58203,-0.9375 C6.58203,-0.0390625 6.11979,0.800781 5.19531,1.58203 C4.25781,2.36328 3.25521,2.75391 2.1875,2.75391 C1.5625,2.75391 1.03516,2.59115 0.605469,2.26562 C0.201823,1.91406 0,1.47135 0,0.9375 C0,0.0390625 0.46875,-0.800781 1.40625,-1.58203 C2.31771,-2.36328 3.3138,-2.75391 4.39453,-2.75391"/>
<path class="Note" transform="matrix(0.850394,0,0,0.850394,304.909,69.6766)" d="M6.30859,-1.30859 C6.30859,-1.52995 6.22396,-1.71875 6.05469,-1.875 C5.88542,-2.04427 5.6901,-2.12891 5.46875,-2.12891 C5.07812,-2.12891 4.29036,-1.73828 3.10547,-0.957031 C1.88151,-0.16276 1.13281,0.403646 0.859375,0.742188 C0.716146,0.924479 0.644531,1.11328 0.644531,1.30859 C0.644531,1.52995 0.729167,1.71875 0.898438,1.875 C1.05469,2.04427 1.25,2.12891 1.48438,2.12891 C1.86198,2.12891 2.65625,1.73828 3.86719,0.957031 C5.0651,0.175781 5.80729,-0.390625 6.09375,-0.742188 C6.23698,-0.911458 6.30859,-1.10026 6.30859,-1.30859 M5.27344,-2.75391 C6.39323,-2.75391 6.95312,-2.27214 6.95312,-1.30859 C6.95312,-0.839844 6.81641,-0.292969 6.54297,0.332031 C6.26953,0.94401 5.90495,1.41276 5.44922,1.73828 C4.44661,2.41536 3.1901,2.75391 1.67969,2.75391 C0.559896,2.75391 0,2.27214 0,1.30859 C0,0.878906 0.136719,0.338542 0.410156,-0.3125 C0.670573,-0.9375 1.03516,-1.41276 1.50391,-1.73828 C2.50651,-2.41536 3.76302,-2.75391 5.27344,-2.75391"/>
<path class="Note" transform="matrix(0.850394,0,0,0.850394,304.909,27.6378)" d="M6.30859,-1.30859 C6.30859,-1.52995 6.22396,-1.71875 6.05469,-1.875 C5.88542,-2.04427 5.6901,-2.12891 5.46875,-2.12891 C5.07812,-2.12891 4.29036,-1.73828 3.10547,-0.957031 C1.88151,-0.16276 1.13281,0.403646 0.859375,0.742188 C0.716146,0.924479 0.644531,1.11328 0.644531,1.30859 C0.644531,1.52995 0.729167,1.71875 0.898438,1.875 C1.05469,2.04427 1.25,2.12891 1.48438,2.12891 C1.86198,2.12891 2.65625,1.73828 3.86719,0.957031 C5.0651,0.175781 5.80729,-0.390625 6.09375,-0.742188 C6.23698,-0.911458 6.30859,-1.10026 6.30859,-1.30859 M5.27344,-2.75391 C6.39323,-2.75391 6.95312,-2.27214 6.95312,-1.30859 C6.95312,-0.839844 6.81641,-0.292969 6.54297,0.332031 C6.26953,0.94401 5.90495,1.41276 5.44922,1.73828 C4.44661,2.41536 3.1901,2.75391 1.67969,2.75391 C0.559896,2.75391 0,2.27214 0,1.30859 C0,0.878906 0.136719,0.338542 0.410156,-0.3125 C0.670573,-0.9375 1.03516,-1.41276 1.50391,-1.73828 C2.50651,-2.41536 3.76302,-2.75391 5.27344,-2.75391"/>
<path class="Note" transform="matrix(0.850394,0,0,0.850394,305.062,19.1339)" d="M4.39453,-2.75391 C5.01953,-2.75391 5.54688,-2.59115 5.97656,-2.26562 C6.38021,-1.91406 6.58203,-1.47135 6.58203,-0.9375 C6.58203,-0.0390625 6.11979,0.800781 5.19531,1.58203 C4.25781,2.36328 3.25521,2.75391 2.1875,2.75391 C1.5625,2.75391 1.03516,2.59115 0.605469,2.26562 C0.201823,1.91406 0,1.47135 0,0.9375 C0,0.0390625 0.46875,-0.800781 1.40625,-1.58203 C2.31771,-2.36328 3.3138,-2.75391 4.39453,-2.75391"/>
<path class="Note" transform="matrix(0.850394,0,0,0.850394,287.21,25.5118)" d="M4.39453,-2.75391 C5.01953,-2.75391 5.54688,-2.59115 5.97656,-2.26562 C6.38021,-1.91406 6.58203,-1.47135 6.58203,-0.9375 C6.58203,-0.0390625 6.11979,0.800781 5.19531,1.58203 C4.25781,2.36328 3.25521,2.75391 2.1875,2.75391 C1.5625,2.75391 1.03516,2.59115 0.605469,2.26562 C0.201823,1.91406 0,1.47135 0,0.9375 C0,0.0390625 0.46875,-0.800781 1.40625,-1.58203 C2.31771,-2.36328 3.3138,-2.75391 4.39453,-2.75391"/>
<path class="Note" transform="matrix(0.850394,0,0,0.850394,275.295,23.3858)" d="M4.39453,-2.75391 C5.01953,-2.75391 5.54688,-2.59115 5.97656,-2.26562 C6.38021,-1.91406 6.58203,-1.47135 6.58203,-0.9375 C6.58203,-0.0390625 6.11979,0.800781 5.19531,1.58203 C4.25781,2.36328 3.25521,2.75391 2.1875,2.75391 C1.5625,2.75391 1.03516,2.59115 0.605469,2.26562 C0.201823,1.91406 0,1.47135 0,0.9375 C0,0.0390625 0.46875,-0.800781 1.40625,-1.58203 C2.31771,-2.36328 3.3138,-2.75391 4.39453,-2.75391"/>
<path class="Note" transform="matrix(0.850394,0,0,0.850394,263.38,29.7638)" d="M4.39453,-2.75391 C5.01953,-2.75391 5.54688,-2.59115 5.97656,-2.26562 C6.38021,-1.91406 6.58203,-1.47135 6.58203,-0.9375 C6.58203,-0.0390625 6.11979,0.800781 5.19531,1.58203 C4.25781,2.36328 3.25521,2.75391 2.1875,2.75391 C1.5625,2.75391 1.03516,2.59115 0.605469,2.26562 C0.201823,1.91406 0,1.47135 0,0.9375 C0,0.0390625 0.46875,-0.800781 1.40625,-1.58203 C2.31771,-2.36328 3.3138,-2.75391 4.39453,-2.75391"/>
<path class="Note" transform="matrix(0.850394,0,0,0.850394,251.311,76.0546)" d="M6.30859,-1.30859 C6.30859,-1.52995 6.22396,-1.71875 6.05469,-1.875 C5.88542,-2.04427 5.6901,-2.12891 5.46875,-2.12891 C5.07812,-2.12891 4.29036,-1.73828 3.10547,-0.957031 C1.88151,-0.16276 1.13281,0.403646 0.859375,0.742188 C0.716146,0.924479 0.644531,1.11328 0.644531,1.30859 C0.644531,1.52995 0.729167,1.71875 0.898438,1.875 C1.05469,2.04427 1.25,2.12891 1.48438,2.12891 C1.86198,2.12891 2.65625,1.73828 3.86719,0.957031 C5.0651,0.175781 5.80729,-0.390625 6.09375,-0.742188 C6.23698,-0.911458 6.30859,-1.10026 6.30859,-1.30859 M5.27344,-2.75391 C6.39323,-2.75391 6.95312,-2.27214 6.95312,-1.30859 C6.95312,-0.839844 6.81641,-0.292969 6.54297,0.332031 C6.26953,0.94401 5.90495,1.41276 5.44922,1.73828 C4.44661,2.41536 3.1901,2.75391 1.67969,2.75391 C0.559896,2.75391 0,2.27214 0,1.30859 C0,0.878906 0.136719,0.338542 0.410156,-0.3125 C0.670573,-0.9375 1.03516,-1.41276 1.50391,-1.73828 C2.50651,-2.41536 3.76302,-2.75391 5.27344,-2.75391"/>
<path class="Note" transform="matrix(0.850394,0,0,0.850394,251.465,25.5118)" d="M4.39453,-2.75391 C5.01953,-2.75391 5.54688,-2.59115 5.97656,-2.26562 C6.38021,-1.91406 6.58203,-1.47135 6.58203,-0.9375 C6.58203,-0.0390625 6.11979,0.800781 5.19531,1.58203 C4.25781,2.36328 3.25521,2.75391 2.1875,2.75391 C1.5625,2.75391 1.03516,2.59115 0.605469,2.26562 C0.201823,1.91406 0,1.47135 0,0.9375 C0,0.0390625 0.46875,-0.800781 1.40625,-1.58203 C2.31771,-2.36328 3.3138,-2.75391 4.39453,-2.75391"/>
<path class="Note" transform="matrix(0.850394,0,0,0.850394,251.311,19.1339)" d="M6.30859,-1.30859 C6.30859,-1.52995 6.22396,-1.71875 6.05469,-1.875 C5.88542,-2.04427 5.6901,-2.12891 5.46875,-2.12891 C5.07812,-2.12891 4.29036,-1.73828 3.10547,-0.957031 C1.88151,-0.16276 1.13281,0.403646 0.859375,0.742188 C0.716146,0.924479 0.644531,1.11328 0.644531,1.30859 C0.644531,1.52995 0.729167,1.71875 0.898438,1.875 C1.05469,2.04427 1.25,2.12891 1.48438,2.12891 C1.86198,2.12891 2.65625,1.73828 3.86719,0.957031 C5.0651,0.175781 5.80729,-0.390625 6.09375,-0.742188 C6.23698,-0.911458 6.30859,-1.10026 6.30859,-1.30859 M5.27344,-2.75391 C6.39323,-2.75391 6.95312,-2.27214 6.95312,-1.30859 C6.95312,-0.839844 6.81641,-0.292969 6.54297,0.332031 C6.26953,0.94401 5.90495,1.41276 5.44922,1.73828 C4.44661,2.41536 3.1901,2.75391 1.67969,2.75391 C0.559896,2.75391 0,2.27214 0,1.30859 C0,0.878906 0.136719,0.338542 0.410156,-0.3125 C0.670573,-0.9375 1.03516,-1.41276 1.50391,-1.73828 C2.50651,-2.41536 3.76302,-2.75391 5.27344,-2.75391"/>
<path class="Note" transform="matrix(0.850394,0,0,0.850394,239.171,17.0079)" d="M4.39453,-2.75391 C5.01953,-2.75391 5.54688,-2.59115 5.97656,-2.26562 C6.38021,-1.91406 6.58203,-1.47135 6.58203,-0.9375 C6.58203,-0.0390625 6.11979,0.800781 5.19531,1.58203 C4.25781,2.36328 3.25521,2.75391 2.1875,2.75391 C1.5625,2.75391 1.03516,2.59115 0.605469,2.26562 C0.201823,1.91406 0,1.47135 0,0.9375 C0,0.0390625 0.46875,-0.800781 1.40625,-1.58203 C2.31771,-2.36328 3.3138,-2.75391 4.39453,-2.75391"/>
<path class="Note" transform="matrix(0.850394,0,0,0.850394,227.256,14.8819)" d="M4.39453,-2.75391 C5.01953,-2.75391 5.54688,-2.59115 5.97656,-2.26562 C6.38021,-1.91406 6.58203,-1.47135 6.58203,-0.9375 C6.58203,-0.0390625 6.11979,0.800781 5.19531,1.58203 C4.25781,2.36328 3.25521,2.75391 2.1875,2.75391 C1.5625,2.75391 1.03516,2.59115 0.605469,2.26562 C0.201823,1.91406 0,1.47135 0,0.9375 C0,0.0390625 0.46875,-0.800781 1.40625,-1.58203 C2.31771,-2.36328 3.3138,-2.75391 4.39453,-2.75391"/>
<path class="Note" transform="matrix(0.850394,0,0,0.850394,215.341,21.2598)" d="M4.39453,-2.75391 C5.01953,-2.75391 5.54688,-2.59115 5.97656,-2.26562 C6.38021,-1.91406 6.58203,-1.47135 6.58203,-0.9375 C6.58203,-0.0390625 6.11979,0.800781 5.19531,1.58203 C4.25781,2.36328 3.25521,2.75391 2.1875,2.75391 C1.5625,2.75391 1.03516,2.59115 0.605469,2.26562 C0.201823,1.91406 0,1.47135 0,0.9375 C0,0.0390625 0.46875,-0.800781 1.40625,-1.58203 C2.31771,-2.36328 3.3138,-2.75391 4.39453,-2.75391"/>
<path class="Note" transform="matrix(0.850394,0,0,0.850394,203.272,67.5506)" d="M6.30859,-1.30859 C6.30859,-1.52995 6.22396,-1.71875 6.05469,-1.875 C5.88542,-2.04427 5.6901,-2.12891 5.46875,-2.12891 C5.07812,-2.12891 4.29036,-1.73828 3.10547,-0.957031 C1.88151,-0.16276 1.13281,0.403646 0.859375,0.742188 C0.716146,0.924479 0.644531,1.11328 0.644531,1.30859 C0.644531,1.52995 0.729167,1.71875 0.898438,1.875 C1.05469,2.04427 1.25,2.12891 1.48438,2.12891 C1.86198,2.12891 2.65625,1.73828 3.86719,0.957031 C5.0651,0.175781 5.80729,-0.390625 6.09375,-0.742188 C6.23698,-0.911458 6.30859,-1.10026 6.30859,-1.30859 M5.27344,-2.75391 C6.39323,-2.75391 6.95312,-2.27214 6.95312,-1.30859 C6.95312,-0.839844 6.81641,-0.292969 6.54297,0.332031 C6.26953,0.94401 5.90495,1.41276 5.44922,1.73828 C4.44661,2.41536 3.1901,2.75391 1.67969,2.75391 C0.559896,2.75391 0,2.27214 0,1.30859 C0,0.878906 0.136719,0.338542 0.410156,-0.3125 C0.670573,-0.9375 1.03516,-1.41276 1.50391,-1.73828 C2.50651,-2.41536 3.76302,-2.75391 5.27344,-2.75391"/>
<path class="Note" transform="matrix(0.850394,0,0,0.850394,203.272,25.5118)" d="M6.30859,-1.30859 C6.30859,-1.52995 6.22396,-1.71875 6.05469,-1.875 C5.88542,-2.04427 5.6901,-2.12891 5.46875,-2.12891 C5.07812,-2.12891 4.29036,-1.73828 3.10547,-0.957031 C1.88151,-0.16276 1.13281,0.403646 0.859375,0.742188 C0.716146,0.924479 0.644531,1.11328 0.644531,1.30859 C0.644531,1.52995 0.729167,1.71875 0.898438,1.875 C1.05469,2.04427 1.25,2.12891 1.48438,2.12891 C1.86198,2.12891 2.65625,1.73828 3.86719,0.957031 C5.0651,0.175781 5.80729,-0.390625 6.09375,-0.742188 C6.23698,-0.911458 6.30859,-1.10026 6.30859,-1.30859 M5.27344,-2.75391 C6.39323,-2.75391 6.95312,-2.27214 6.95312,-1.30859 C6.95312,-0.839844 6.81641,-0.292969 6.54297,0.332031 C6.26953,0.94401 5.90495,1.41276 5.44922,1.73828 C4.44661,2.41536 3.1901,2.75391 1.67969,2.75391 C0.559896,2.75391 0,2.27214 0,1.30859 C0,0.878906 0.136719,0.338542 0.410156,-0.3125 C0.670573,-0.9375 1.03516,-1.41276 1.50391,-1.73828 C2.50651,-2.41536 3.76302,-2.75391 5.27344,-2.75391"/>
<path class="Note" transform="matrix(0.850394,0,0,0.850394,167.05,19.1339)" d="M4.39453,-2.75391 C5.01953,-2.75391 5.54688,-2.59115 5.97656,-2.26562 C6.38021,-1.91406 6.58203,-1.47135 6.58203,-0.9375 C6.58203,-0.0390625 6.11979,0.800781 5.19531,1.58203 C4.25781,2.36328 3.25521,2.75391 2.1875,2.75391 C1.5625,2.75391 1.03516,2.59115 0.605469,2.26562 C0.201823,1.91406 0,1.47135 0,0.9375 C0,0.0390625 0.46875,-0.800781 1.40625,-1.58203 C2.31771,-2.36328 3.3138,-2.75391 4.39453,-2.75391"/>
<path class="Note" transform="matrix(0.850394,0,0,0.850394,158.06,21.2598)" d="M4.39453,-2.75391 C5.01953,-2.75391 5.54688,-2.59115 5.97656,-2.26562 C6.38021,-1.91406 6.58203,-1.47135 6.58203,-0.9375 C6.58203,-0.0390625 6.11979,0.800781 5.19531,1.58203 C4.25781,2.36328 3.25521,2.75391 2.1875,2.75391 C1.5625,2.75391 1.03516,2.59115 0.605469,2.26562 C0.201823,1.91406 0,1.47135 0,0.9375 C0,0.0390625 0.46875,-0.800781 1.40625,-1.58203 C2.31771,-2.36328 3.3138,-2.75391 4.39453,-2.75391"/>
<path class="Note" transform="matrix(0.850394,0,0,0.850394,149.071,17.0079)" d="M4.39453,-2.75391 C5.01953,-2.75391 5.54688,-2.59115 5.97656,-2.26562 C6.38021,-1.91406 6.58203,-1.47135 6.58203,-0.9375 C6.58203,-0.0390625 6.11979,0.800781 5.19531,1.58203 C4.25781,2.36328 3.25521,2.75391 2.1875,2.75391 C1.5625,2.75391 1.03516,2.59115 0.605469,2.26562 C0.201823,1.91406 0,1.47135 0,0.9375 C0,0.0390625 0.46875,-0.800781 1.40625,-1.58203 C2.31771,-2.36328 3.3138,-2.75391 4.39453,-2.75391"/>
<path class="Note" transform="matrix(0.850394,0,0,0.850394,140.081,82.4325)" d="M4.39453,-2.75391 C5.01953,-2.75391 5.54688,-2.59115 5.97656,-2.26562 C6.38021,-1.91406 6.58203,-1.47135 6.58203,-0.9375 C6.58203,-0.0390625 6.11979,0.800781 5.19531,1.58203 C4.25781,2.36328 3.25521,2.75391 2.1875,2.75391 C1.5625,2.75391 1.03516,2.59115 0.605469,2.26562 C0.201823,1.91406 0,1.47135 0,0.9375 C0,0.0390625 0.46875,-0.800781 1.40625,-1.58203 C2.31771,-2.36328 3.3138,-2.75391 4.39453,-2.75391"/>
<path class="Note" transform="matrix(0.850394,0,0,0.850394,140.081,25.5118)" d="M4.39453,-2.75391 C5.01953,-2.75391 5.54688,-2.59115 5.97656,-2.26562 C6.38021,-1.91406 6.58203,-1.47135 6.58203,-0.9375 C6.58203,-0.0390625 6.11979,0.800781 5.19531,1.58203 C4.25781,2.36328 3.25521,2.75391 2.1875,2.75391 C1.5625,2.75391 1.03516,2.59115 0.605469,2.26562 C0.201823,1.91406 0,1.47135 0,0.9375 C0,0.0390625 0.46875,-0.800781 1.40625,-1.58203 C2.31771,-2.36328 3.3138,-2.75391 4.39453,-2.75391"/>
<path class="Note" transform="matrix(0.850394,0,0,0.850394,140.081,34.0157)" d="M4.39453,-2.75391 C5.01953,-2.75391 5.54688,-2.59115 5.97656,-2.26562 C6.38021,-1.91406 6.58203,-1.47135 6.58203,-0.9375 C6.58203,-0.0390625 6.11979,0.800781 5.19531,1.58203 C4.25781,2.36328 3.25521,2.75391 2.1875,2.75391 C1.5625,2.75391 1.03516,2.59115 0.605469,2.26562 C0.201823,1.91406 0,1.47135 0,0.9375 C0,0.0390625 0.46875,-0.800781 1.40625,-1.58203 C2.31771,-2.36328 3.3138,-2.75391 4.39453,-2.75391"/>
<path class="Note" transform="matrix(0.850394,0,0,0.850394,140.081,19.1339)" d="M4.39453,-2.75391 C5.01953,-2.75391 5.54688,-2.59115 5.97656,-2.26562 C6.38021,-1.91406 6.58203,-1.47135 6.58203,-0.9375 C6.58203,-0.0390625 6.11979,0.800781 5.19531,1.58203 C4.25781,2.36328 3.25521,2.75391 2.1875,2.75391 C1.5625,2.75391 1.03516,2.59115 0.605469,2.26562 C0.201823,1.91406 0,1.47135 0,0.9375 C0,0.0390625 0.46875,-0.800781 1.40625,-1.58203 C2.31771,-2.36328 3.3138,-2.75391 4.39453,-2.75391"/>
<path class="Note" transform="matrix(0.850394,0,0,0.850394,131.091,78.1806)" d="M4.39453,-2.75391 C5.01953,-2.75391 5.54688,-2.59115 5.97656,-2.26562 C6.38021,-1.91406 6.58203,-1.47135 6.58203,-0.9375 C6.58203,-0.0390625 6.11979,0.800781 5.19531,1.58203 C4.25781,2.36328 3.25521,2.75391 2.1875,2.75391 C1.5625,2.75391 1.03516,2.59115 0.605469,2.26562 C0.201823,1.91406 0,1.47135 0,0.9375 C0,0.0390625 0.46875,-0.800781 1.40625,-1.58203 C2.31771,-2.36328 3.3138,-2.75391 4.39453,-2.75391"/>
<path class="Note" transform="matrix(0.850394,0,0,0.850394,122.101,80.3065)" d="M4.39453,-2.75391 C5.01953,-2.75391 5.54688,-2.59115 5.97656,-2.26562 C6.38021,-1.91406 6.58203,-1.47135 6.58203,-0.9375 C6.58203,-0.0390625 6.11979,0.800781 5.19531,1.58203 C4.25781,2.36328 3.25521,2.75391 2.1875,2.75391 C1.5625,2.75391 1.03516,2.59115 0.605469,2.26562 C0.201823,1.91406 0,1.47135 0,0.9375 C0,0.0390625 0.46875,-0.800781 1.40625,-1.58203 C2.31771,-2.36328 3.3138,-2.75391 4.39453,-2.75391"/>
<path class="Note" transform="matrix(0.850394,0,0,0.850394,113.111,76.0546)" d="M4.39453,-2.75391 C5.01953,-2.75391 5.54688,-2.59115 5.97656,-2.26562 C6.38021,-1.91406 6.58203,-1.47135 6.58203,-0.9375 C6.58203,-0.0390625 6.11979,0.800781 5.19531,1.58203 C4.25781,2.36328 3.25521,2.75391 2.1875,2.75391 C1.5625,2.75391 1.03516,2.59115 0.605469,2.26562 C0.201823,1.91406 0,1.47135 0,0.9375 C0,0.0390625 0.46875,-0.800781 1.40625,-1.58203 C2.31771,-2.36328 3.3138,-2.75391 4.39453,-2.75391"/>
<path class="Note" transform="matrix(0.850394,0,0,0.850394,104.121,78.1806)" d="M4.39453,-2.75391 C5.01953,-2.75391 5.54688,-2.59115 5.97656,-2.26562 C6.38021,-1.91406 6.58203,-1.47135 6.58203,-0.9375 C6.58203,-0.0390625 6.11979,0.800781 5.19531,1.58203 C4.25781,2.36328 3.25521,2.75391 2.1875,2.75391 C1.5625,2.75391 1.03516,2.59115 0.605469,2.26562 C0.201823,1.91406 0,1.47135 0,0.9375 C0,0.0390625 0.46875,-0.800781 1.40625,-1.58203 C2.31771,-2.36328 3.3138,-2.75391 4.39453,-2.75391"/>
<path class="Note" transform="matrix(0.850394,0,0,0.850394,104.121,25.5118)" d="M4.39453,-2.75391 C5.01953,-2.75391 5.54688,-2.59115 5.97656,-2.26562 C6.38021,-1.91406 6.58203,-1.47135 6.58203,-0.9375 C6.58203,-0.0390625 6.11979,0.800781 5.19531,1.58203 C4.25781,2.36328 3.25521,2.75391 2.1875,2.75391 C1.5625,2.75391 1.03516,2.59115 0.605469,2.26562 C0.201823,1.91406 0,1.47135 0,0.9375 C0,0.0390625 0.46875,-0.800781 1.40625,-1.58203 C2.31771,-2.36328 3.3138,-2.75391 4.39453,-2.75391"/>
<path class="Note" transform="matrix(0.850394,0,0,0.850394,104.121,31.8898)" d="M4.39453,-2.75391 C5.01953,-2.75391 5.54688,-2.59115 5.97656,-2.26562 C6.38021,-1.91406 6.58203,-1.47135 6.58203,-0.9375 C6.58203,-0.0390625 6.11979,0.800781 5.19531,1.58203 C4.25781,2.36328 3.25521,2.75391 2.1875,2.75391 C1.5625,2.75391 1.03516,2.59115 0.605469,2.26562 C0.201823,1.91406 0,1.47135 0,0.9375 C0,0.0390625 0.46875,-0.800781 1.40625,-1.58203 C2.31771,-2.36328 3.3138,-2.75391 4.39453,-2.75391"/>
<path class="Note" transform="matrix(0.850394,0,0,0.850394,104.121,21.2598)" d="M4.39453,-2.75391 C5.01953,-2.75391 5.54688,-2.59115 5.97656,-2.26562 C6.38021,-1.91406 6.58203,-1.47135 6.58203,-0.9375 C6.58203,-0.0390625 6.11979,0.800781 5.19531,1.58203 C4.25781,2.36328 3.25521,2.75391 2.1875,2.75391 C1.5625,2.75391 1.03516,2.59115 0.605469,2.26562 C0.201823,1.91406 0,1.47135 0,0.9375 C0,0.0390625 0.46875,-0.800781 1.40625,-1.58203 C2.31771,-2.36328 3.3138,-2.75391 4.39453,-2.75391"/>
<path class="Note" transform="matrix(0.850394,0,0,0.850394,91.8649,17.0079)" d="M4.39453,-2.75391 C5.01953,-2.75391 5.54688,-2.59115 5.97656,-2.26562 C6.38021,-1.91406 6.58203,-1.47135 6.58203,-0.9375 C6.58203,-0.0390625 6.11979,0.800781 5.19531,1.58203 C4.25781,2.36328 3.25521,2.75391 2.1875,2.75391 C1.5625,2.75391 1.03516,2.59115 0.605469,2.26562 C0.201823,1.91406 0,1.47135 0,0.9375 C0,0.0390625 0.46875,-0.800781 1.40625,-1.58203 C2.31771,-2.36328 3.3138,-2.75391 4.39453,-2.75391"/>
<path class="Note" transform="matrix(0.850394,0,0,0.850394,82.8751,19.1339)" d="M4.39453,-2.75391 C5.01953,-2.75391 5.54688,-2.59115 5.97656,-2.26562 C6.38021,-1.91406 6.58203,-1.47135 6.58203,-0.9375 C6.58203,-0.0390625 6.11979,0.800781 5.19531,1.58203 C4.25781,2.36328 3.25521,2.75391 2.1875,2.75391 C1.5625,2.75391 1.03516,2.59115 0.605469,2.26562 C0.201823,1.91406 0,1.47135 0,0.9375 C0,0.0390625 0.46875,-0.800781 1.40625,-1.58203 C2.31771,-2.36328 3.3138,-2.75391 4.39453,-2.75391"/>
<path class="Note" transform="matrix(0.850394,0,0,0.850394,73.8852,14.8819)" d="M4.39453,-2.75391 C5.01953,-2.75391 5.54688,-2.59115 5.97656,-2.26562 C6.38021,-1.91406 6.58203,-1.47135 6.58203,-0.9375 C6.58203,-0.0390625 6.11979,0.800781 5.19531,1.58203 C4.25781,2.36328 3.25521,2.75391 2.1875,2.75391 C1.5625,2.75391 1.03516,2.59115 0.605469,2.26562 C0.201823,1.91406 0,1.47135 0,0.9375 C0,0.0390625 0.46875,-0.800781 1.40625,-1.58203 C2.31771,-2.36328 3.3138,-2.75391 4.39453,-2.75391"/>
<path class="Note" transform="matrix(0.850394,0,0,0.850394,64.8954,80.3065)" d="M4.39453,-2.75391 C5.01953,-2.75391 5.54688,-2.59115 5.97656,-2.26562 C6.38021,-1.91406 6.58203,-1.47135 6.58203,-0.9375 C6.58203,-0.0390625 6.11979,0.800781 5.19531,1.58203 C4.25781,2.36328 3.25521,2.75391 2.1875,2.75391 C1.5625,2.75391 1.03516,2.59115 0.605469,2.26562 C0.201823,1.91406 0,1.47135 0,0.9375 C0,0.0390625 0.46875,-0.800781 1.40625,-1.58203 C2.31771,-2.36328 3.3138,-2.75391 4.39453,-2.75391"/>
<path class="Note" transform="matrix(0.850394,0,0,0.850394,64.8954,23.3858)" d="M4.39453,-2.75391 C5.01953,-2.75391 5.54688,-2.59115 5.97656,-2.26562 C6.38021,-1.91406 6.58203,-1.47135 6.58203,-0.9375 C6.58203,-0.0390625 6.11979,0.800781 5.19531,1.58203 C4.25781,2.36328 3.25521,2.75391 2.1875,2.75391 C1.5625,2.75391 1.03516,2.59115 0.605469,2.26562 C0.201823,1.91406 0,1.47135 0,0.9375 C0,0.0390625 0.46875,-0.800781 1.40625,-1.58203 C2.31771,-2.36328 3.3138,-2.75391 4.39453,-2.75391"/>
<path class="Note" transform="matrix(0.850394,0,0,0.850394,64.8954,31.8898)" d="M4.39453,-2.75391 C5.01953,-2.75391 5.54688,-2.59115 5.97656,-2.26562 C6.38021,-1.91406 6.58203,-1.47135 6.58203,-0.9375 C6.58203,-0.0390625 6.11979,0.800781 5.19531,1.58203 C4.25781,2.36328 3.25521,2.75391 2.1875,2.75391 C1.5625,2.75391 1.03516,2.59115 0.605469,2.26562 C0.201823,1.91406 0,1.47135 0,0.9375 C0,0.0390625 0.46875,-0.800781 1.40625,-1.58203 C2.31771,-2.36328 3.3138,-2.75391 4.39453,-2.75391"/>
<path class="Note" transform="matrix(0.850394,0,0,0.850394,64.8954,17.0079)" d="M4.39453,-2.75391 C5.01953,-2.75391 5.54688,-2.59115 5.97656,-2.26562 C6.38021,-1.91406 6.58203,-1.47135 6.58203,-0.9375 C6.58203,-0.0390625 6.11979,0.800781 5.19531,1.58203 C4.25781,2.36328 3.25521,2.75391 2.1875,2.75391 C1.5625,2.75391 1.03516,2.59115 0.605469,2.26562 C0.201823,1.91406 0,1.47135 0,0.9375 C0,0.0390625 0.46875,-0.800781 1.40625,-1.58203 C2.31771,-2.36328 3.3138,-2.75391 4.39453,-2.75391"/>
<path class="Note" transform="matrix(0.850394,0,0,0.850394,55.9055,76.0546)" d="M4.39453,-2.75391 C5.01953,-2.75391 5.54688,-2.59115 5.97656,-2.26562 C6.38021,-1.91406 6.58203,-1.47135 6.58203,-0.9375 C6.58203,-0.0390625 6.11979,0.800781 5.19531,1.58203 C4.25781,2.36328 3.25521,2.75391 2.1875,2.75391 C1.5625,2.75391 1.03516,2.59115 0.605469,2.26562 C0.201823,1.91406 0,1.47135 0,0.9375 C0,0.0390625 0.46875,-0.800781 1.40625,-1.58203 C2.31771,-2.36328 3.3138,-2.75391 4.39453,-2.75391"/>
<path class="Note" transform="matrix(0.850394,0,0,0.850394,46.9157,78.1806)" d="M4.39453,-2.75391 C5.01953,-2.75391 5.54688,-2.59115 5.97656,-2.26562 C6.38021,-1.91406 6.58203,-1.47135 6.58203,-0.9375 C6.58203,-0.0390625 6.11979,0.800781 5.19531,1.58203 C4.25781,2.36328 3.25521,2.75391 2.1875,2.75391 C1.5625,2.75391 1.03516,2.59115 0.605469,2.26562 C0.201823,1.91406 0,1.47135 0,0.9375 C0,0.0390625 0.46875,-0.800781 1.40625,-1.58203 C2.31771,-2.36328 3.3138,-2.75391 4.39453,-2.75391"/>
<path class="Note" transform="matrix(0.850394,0,0,0.850394,37.9258,73.9286)" d="M4.39453,-2.75391 C5.01953,-2.75391 5.54688,-2.59115 5.97656,-2.26562 C6.38021,-1.91406 6.58203,-1.47135 6.58203,-0.9375 C6.58203,-0.0390625 6.11979,0.800781 5.19531,1.58203 C4.25781,2.36328 3.25521,2.75391 2.1875,2.75391 C1.5625,2.75391 1.03516,2.59115 0.605469,2.26562 C0.201823,1.91406 0,1.47135 0,0.9375 C0,0.0390625 0.46875,-0.800781 1.40625,-1.58203 C2.31771,-2.36328 3.3138,-2.75391 4.39453,-2.75391"/>
<path class="Note" transform="matrix(0.850394,0,0,0.850394,28.936,76.0546)" d="M4.39453,-2.75391 C5.01953,-2.75391 5.54688,-2.59115 5.97656,-2.26562 C6.38021,-1.91406 6.58203,-1.47135 6.58203,-0.9375 C6.58203,-0.0390625 6.11979,0.800781 5.19531,1.58203 C4.25781,2.36328 3.25521,2.75391 2.1875,2.75391 C1.5625,2.75391 1.03516,2.59115 0.605469,2.26562 C0.201823,1.91406 0,1.47135 0,0.9375 C0,0.0390625 0.46875,-0.800781 1.40625,-1.58203 C2.31771,-2.36328 3.3138,-2.75391 4.39453,-2.75391"/>
<path class="Note" transform="matrix(0.850394,0,0,0.850394,28.936,23.3858)" d="M4.39453,-2.75391 C5.01953,-2.75391 5.54688,-2.59115 5.97656,-2.26562 C6.38021,-1.91406 6.58203,-1.47135 6.58203,-0.9375 C6.58203,-0.0390625 6.11979,0.800781 5.19531,1.58203 C4.25781,2.36328 3.25521,2.75391 2.1875,2.75391 C1.5625,2.75391 1.03516,2.59115 0.605469,2.26562 C0.201823,1.91406 0,1.47135 0,0.9375 C0,0.0390625 0.46875,-0.800781 1.40625,-1.58203 C2.31771,-2.36328 3.3138,-2.75391 4.39453,-2.75391"/>
<path class="Note" transform="matrix(0.850394,0,0,0.850394,28.936,29.7638)" d="M4.39453,-2.75391 C5.01953,-2.75391 5.54688,-2.59115 5.97656,-2.26562 C6.38021,-1.91406 6.58203,-1.47135 6.58203,-0.9375 C6.58203,-0.0390625 6.11979,0.800781 5.19531,1.58203 C4.25781,2.36328 3.25521,2.75391 2.1875,2.75391 C1.5625,2.75391 1.03516,2.59115 0.605469,2.26562 C0.201823,1.91406 0,1.47135 0,0.9375 C0,0.0390625 0.46875,-0.800781 1.40625,-1.58203 C2.31771,-2.36328 3.3138,-2.75391 4.39453,-2.75391"/>
<path class="Note" transform="matrix(0.850394,0,0,0.850394,28.936,19.1339)" d="M4.39453,-2.75391 C5.01953,-2.75391 5.54688,-2.59115 5.97656,-2.26562 C6.38021,-1.91406 6.58203,-1.47135 6.58203,-0.9375 C6.58203,-0.0390625 6.11979,0.800781 5.19531,1.58203 C4.25781,2.36328 3.25521,2.75391 2.1875,2.75391 C1.5625,2.75391 1.03516,2.59115 0.605469,2.26562 C0.201823,1.91406 0,1.47135 0,0.9375 C0,0.0390625 0.46875,-0.800781 1.40625,-1.58203 C2.31771,-2.36328 3.3138,-2.75391 4.39453,-2.75391"/>
<path class="Clef" transform="matrix(0.850394,0,0,0.850394,10.5449,65.4246)" d="M11.4258,-1.77734 C11.2305,-1.97266 11.1328,-2.21354 11.1328,-2.5 C11.1328,-2.78646 11.2305,-3.02734 11.4258,-3.22266 C11.6211,-3.41797 11.862,-3.51562 12.1484,-3.51562 C12.4349,-3.51562 12.6758,-3.41797 12.8711,-3.22266 C13.0664,-3.02734 13.1641,-2.78646 13.1641,-2.5 C13.1641,-2.21354 13.0664,-1.97266 12.8711,-1.77734 C12.6758,-1.58203 12.4349,-1.48438 12.1484,-1.48438 C11.862,-1.48438 11.6211,-1.58203 11.4258,-1.77734 M11.4258,3.22266 C11.2305,3.02734 11.1328,2.78646 11.1328,2.5 C11.1328,2.21354 11.2305,1.97266 11.4258,1.77734 C11.6211,1.58203 11.862,1.48438 12.1484,1.48438 C12.4349,1.48438 12.6758,1.58203 12.8711,1.77734 C13.0664,1.97266 13.1641,2.21354 13.1641,2.5 C13.1641,2.78646 13.0664,3.02734 12.8711,3.22266 C12.6758,3.41797 12.4349,3.51562 12.1484,3.51562 C11.862,3.51562 11.6211,3.41797 11.4258,3.22266 M4.64844,-5.25391 C6.38021,-5.25391 7.79948,-4.81771 8.90625,-3.94531 C9.97396,-3.03385 10.5078,-1.79688 10.5078,-0.234375 C10.5078,0.820312 10.2995,1.78385 9.88281,2.65625 C9.49219,3.56771 8.97786,4.375 8.33984,5.07812 C7.6888,5.79427 6.90104,6.47135 5.97656,7.10938 C5.07812,7.73438 4.15365,8.29427 3.20312,8.78906 C1.27604,9.76562 0.208333,10.2539 0,10.2539 C-0.169271,10.2539 -0.253906,10.1693 -0.253906,10 C-0.253906,9.9349 -0.227865,9.8763 -0.175781,9.82422 C0.488281,9.43359 1.30208,8.93229 2.26562,8.32031 C2.89062,7.91667 3.61979,7.35677 4.45312,6.64062 C5.26042,5.96354 5.88542,5.32552 6.32812,4.72656 C6.78385,4.14062 7.20052,3.41146 7.57812,2.53906 C7.90365,1.66667 8.06641,0.807292 8.06641,-0.0390625 C8.06641,-1.30208 7.75391,-2.40234 7.12891,-3.33984 C6.50391,-4.27734 5.67708,-4.74609 4.64844,-4.74609 C3.91927,-4.74609 3.29427,-4.51172 2.77344,-4.04297 C2.21354,-3.5612 1.8099,-2.95573 1.5625,-2.22656 C1.8099,-2.33073 2.03776,-2.38281 2.24609,-2.38281 C2.79297,-2.38281 3.26172,-2.1875 3.65234,-1.79688 C4.04297,-1.38021 4.23828,-0.904948 4.23828,-0.371094 C4.23828,0.188802 4.04948,0.690104 3.67188,1.13281 C3.26823,1.53646 2.79297,1.73828 2.24609,1.73828 C1.66016,1.73828 1.13281,1.53646 0.664062,1.13281 C0.221354,0.690104 0,0.188802 0,-0.371094 C0,-1.71224 0.455729,-2.85807 1.36719,-3.80859 C2.26562,-4.77214 3.35938,-5.25391 4.64844,-5.25391"/>
<path class="Clef" transform="matrix(0.850394,0,0,0.850394,10.5449,25.5118)" d="M7.34375,-5.11719 C7.34375,-5.11719 7.38281,-5.11719 7.46094,-5.11719 C7.51302,-5.13021 7.55859,-5.13672 7.59766,-5.13672 C9.05599,-5.13672 10.2539,-4.6224 11.1914,-3.59375 C12.1289,-2.57812 12.5977,-1.39323 12.5977,-0.0390625 C12.5977,1.64062 11.901,3.00781 10.5078,4.0625 C10.1432,4.34896 9.66797,4.58333 9.08203,4.76562 C9.14714,5.61198 9.17969,6.29557 9.17969,6.81641 C9.17969,6.92057 9.16667,7.29818 9.14062,7.94922 C9.08854,9.16016 8.67188,10.2083 7.89062,11.0938 C7.13542,11.9661 6.19792,12.4023 5.07812,12.4023 C4.02344,12.4023 3.125,12.0312 2.38281,11.2891 C1.64062,10.5339 1.26953,9.6224 1.26953,8.55469 C1.26953,7.99479 1.48438,7.51953 1.91406,7.12891 C2.35677,6.73828 2.87109,6.54297 3.45703,6.54297 C3.97786,6.54297 4.41406,6.74479 4.76562,7.14844 C5.13021,7.52604 5.3125,7.99479 5.3125,8.55469 C5.3125,9.0625 5.13021,9.4987 4.76562,9.86328 C4.40104,10.2279 3.96484,10.4102 3.45703,10.4102 C3.2487,10.4102 3.04688,10.3711 2.85156,10.293 C3.42448,11.1393 4.1862,11.5625 5.13672,11.5625 C6.03516,11.5625 6.77083,11.1979 7.34375,10.4688 C7.94271,9.71354 8.26823,8.83464 8.32031,7.83203 C8.34635,7.20703 8.35938,6.84896 8.35938,6.75781 C8.35938,6.02865 8.33333,5.42969 8.28125,4.96094 C7.63021,5.0651 7.05078,5.11719 6.54297,5.11719 C4.73307,5.11719 3.1901,4.40104 1.91406,2.96875 C0.664062,1.52344 0.0390625,-0.195312 0.0390625,-2.1875 C0.0390625,-2.60417 0.078125,-3.02734 0.15625,-3.45703 C0.234375,-3.80859 0.332031,-4.19271 0.449219,-4.60938 C0.514323,-4.84375 0.690104,-5.22135 0.976562,-5.74219 C1.08073,-5.89844 1.19792,-6.09375 1.32812,-6.32812 C1.45833,-6.5625 1.54948,-6.71875 1.60156,-6.79688 C1.73177,-7.05729 1.98568,-7.40885 2.36328,-7.85156 C2.46745,-7.96875 2.57487,-8.09896 2.68555,-8.24219 C2.79622,-8.38542 2.89062,-8.5026 2.96875,-8.59375 C3.04688,-8.6849 3.10547,-8.75651 3.14453,-8.80859 C3.18359,-8.86068 3.47656,-9.20573 4.02344,-9.84375 C4.15365,-9.97396 4.2806,-10.1139 4.4043,-10.2637 C4.52799,-10.4134 4.62891,-10.5306 4.70703,-10.6152 C4.78516,-10.6999 4.84375,-10.7617 4.88281,-10.8008 C4.41406,-12.3503 4.12109,-13.5872 4.00391,-14.5117 C3.91276,-15.2539 3.86719,-16.2695 3.86719,-17.5586 C3.86719,-18.6914 4.1276,-19.7526 4.64844,-20.7422 C5.15625,-21.7708 5.86589,-22.6107 6.77734,-23.2617 C6.84245,-23.3008 6.90755,-23.3203 6.97266,-23.3203 C7.0638,-23.3203 7.12891,-23.3008 7.16797,-23.2617 C7.87109,-22.4154 8.47656,-21.3151 8.98438,-19.9609 C9.50521,-18.6068 9.76562,-17.3763 9.76562,-16.2695 C9.76562,-15.0195 9.46615,-13.8477 8.86719,-12.7539 C8.1901,-11.5951 7.31771,-10.3971 6.25,-9.16016 C6.52344,-8.30078 6.88802,-6.95312 7.34375,-5.11719 M9.00391,3.96484 C9.68099,3.71745 10.2083,3.29427 10.5859,2.69531 C11.0026,2.1224 11.2109,1.47786 11.2109,0.761719 C11.2109,-0.16276 10.8984,-0.983073 10.2734,-1.69922 C9.63542,-2.44141 8.82161,-2.85807 7.83203,-2.94922 C8.39193,-0.201823 8.78255,2.10286 9.00391,3.96484 M1.44531,-0.546875 C1.44531,0.742188 1.96615,1.875 3.00781,2.85156 C4.07552,3.80208 5.27344,4.27734 6.60156,4.27734 C7.14844,4.27734 7.68229,4.23828 8.20312,4.16016 C7.99479,2.18099 7.58464,-0.188802 6.97266,-2.94922 C6.23047,-2.87109 5.63802,-2.61068 5.19531,-2.16797 C4.76562,-1.71224 4.55078,-1.19792 4.55078,-0.625 C4.55078,0.364583 5.07812,1.16536 6.13281,1.77734 C6.22396,1.86849 6.26953,1.96615 6.26953,2.07031 C6.26953,2.17448 6.22396,2.27214 6.13281,2.36328 C6.05469,2.45443 5.95703,2.5 5.83984,2.5 C5.82682,2.5 5.76823,2.48698 5.66406,2.46094 C4.92188,2.05729 4.34896,1.53646 3.94531,0.898438 C3.56771,0.221354 3.37891,-0.46224 3.37891,-1.15234 C3.37891,-2.05078 3.65885,-2.86458 4.21875,-3.59375 C4.80469,-4.32292 5.56641,-4.79167 6.50391,-5 C6.13932,-6.45833 5.83984,-7.59766 5.60547,-8.41797 C5.39714,-8.18359 5.14648,-7.90039 4.85352,-7.56836 C4.56055,-7.23633 4.38802,-7.03776 4.33594,-6.97266 C3.86719,-6.36068 3.50911,-5.88542 3.26172,-5.54688 C2.81901,-4.9349 2.49349,-4.40755 2.28516,-3.96484 C2.0638,-3.47005 1.86849,-2.92969 1.69922,-2.34375 C1.52995,-1.78385 1.44531,-1.1849 1.44531,-0.546875 M7.96875,-20.4102 C6.99219,-19.9284 6.22396,-19.2383 5.66406,-18.3398 C5.09115,-17.4154 4.80469,-16.4193 4.80469,-15.3516 C4.80469,-14.4141 5.03906,-13.151 5.50781,-11.5625 C6.44531,-12.6953 7.14844,-13.7435 7.61719,-14.707 C8.11198,-15.7227 8.35938,-16.7839 8.35938,-17.8906 C8.35938,-18.724 8.22917,-19.5638 7.96875,-20.4102"/>
<path class="KeySig" transform="matrix(0.850394,0,0,0.850394,412.975,73.9286)" d="M0.917969,-0.820312 L0.917969,0.722656 C0.917969,1.26953 0.94401,1.70573 0.996094,2.03125 C1.42578,1.66667 1.73177,1.39323 1.91406,1.21094 C2.1224,1.0026 2.33073,0.716146 2.53906,0.351562 C2.7474,-0.0130208 2.85156,-0.377604 2.85156,-0.742188 C2.85156,-1.10677 2.77344,-1.41927 2.61719,-1.67969 C2.46094,-1.9401 2.2526,-2.07031 1.99219,-2.07031 C1.67969,-2.07031 1.41927,-1.95312 1.21094,-1.71875 C1.01562,-1.45833 0.917969,-1.15885 0.917969,-0.820312 M0.0976562,2.75391 L-0.15625,-9.14062 C0.0260417,-9.24479 0.208333,-9.29688 0.390625,-9.29688 C0.572917,-9.29688 0.755208,-9.24479 0.9375,-9.14062 L0.78125,-2.24609 C1.3151,-2.70182 1.92708,-2.92969 2.61719,-2.92969 C3.125,-2.92969 3.54818,-2.72135 3.88672,-2.30469 C4.22526,-1.88802 4.39453,-1.41276 4.39453,-0.878906 C4.39453,-0.540365 4.28385,-0.182292 4.0625,0.195312 C3.85417,0.546875 3.63281,0.820312 3.39844,1.01562 C3.26823,1.11979 2.9362,1.38021 2.40234,1.79688 C2.24609,1.91406 2.06055,2.05078 1.8457,2.20703 C1.63086,2.36328 1.4974,2.46094 1.44531,2.5 C1.35417,2.55208 1.26953,2.65625 1.19141,2.8125 C1.10026,2.94271 0.996094,3.05339 0.878906,3.14453 C0.78776,3.22266 0.677083,3.26172 0.546875,3.26172 C0.416667,3.26172 0.3125,3.21615 0.234375,3.125 C0.143229,3.03385 0.0976562,2.91016 0.0976562,2.75391"/>
<path class="KeySig" transform="matrix(0.850394,0,0,0.850394,412.975,21.2598)" d="M0.917969,-0.820312 L0.917969,0.722656 C0.917969,1.26953 0.94401,1.70573 0.996094,2.03125 C1.42578,1.66667 1.73177,1.39323 1.91406,1.21094 C2.1224,1.0026 2.33073,0.716146 2.53906,0.351562 C2.7474,-0.0130208 2.85156,-0.377604 2.85156,-0.742188 C2.85156,-1.10677 2.77344,-1.41927 2.61719,-1.67969 C2.46094,-1.9401 2.2526,-2.07031 1.99219,-2.07031 C1.67969,-2.07031 1.41927,-1.95312 1.21094,-1.71875 C1.01562,-1.45833 0.917969,-1.15885 0.917969,-0.820312 M0.0976562,2.75391 L-0.15625,-9.14062 C0.0260417,-9.24479 0.208333,-9.29688 0.390625,-9.29688 C0.572917,-9.29688 0.755208,-9.24479 0.9375,-9.14062 L0.78125,-2.24609 C1.3151,-2.70182 1.92708,-2.92969 2.61719,-2.92969 C3.125,-2.92969 3.54818,-2.72135 3.88672,-2.30469 C4.22526,-1.88802 4.39453,-1.41276 4.39453,-0.878906 C4.39453,-0.540365 4.28385,-0.182292 4.0625,0.195312 C3.85417,0.546875 3.63281,0.820312 3.39844,1.01562 C3.26823,1.11979 2.9362,1.38021 2.40234,1.79688 C2.24609,1.91406 2.06055,2.05078 1.8457,2.20703 C1.63086,2.36328 1.4974,2.46094 1.44531,2.5 C1.35417,2.55208 1.26953,2.65625 1.19141,2.8125 C1.10026,2.94271 0.996094,3.05339 0.878906,3.14453 C0.78776,3.22266 0.677083,3.26172 0.546875,3.26172 C0.416667,3.26172 0.3125,3.21615 0.234375,3.125 C0.143229,3.03385 0.0976562,2.91016 0.0976562,2.75391"/>
<path class="KeySig" transform="matrix(0.850394,0,0,0.850394,181.662,65.4246)" d="M4.31641,6.23047 C4.31641,6.47786 4.19271,6.60156 3.94531,6.60156 C3.69792,6.60156 3.57422,6.47786 3.57422,6.23047 L3.57422,3.33984 L1.91406,3.96484 L1.91406,7.12891 C1.91406,7.3763 1.79036,7.5 1.54297,7.5 C1.29557,7.5 1.17188,7.3763 1.17188,7.12891 L1.17188,4.21875 L0.546875,4.45312 C0.533854,4.46615 0.481771,4.47266 0.390625,4.47266 C0.286458,4.47266 0.195312,4.43359 0.117188,4.35547 C0.0390625,4.27734 0,4.1862 0,4.08203 L0,2.87109 C0,2.67578 0.0846354,2.55208 0.253906,2.5 L1.17188,2.1875 L1.17188,-1.01562 L0.546875,-0.800781 C0.533854,-0.78776 0.481771,-0.78125 0.390625,-0.78125 C0.286458,-0.78125 0.195312,-0.820312 0.117188,-0.898438 C0.0390625,-0.976562 0,-1.06771 0,-1.17188 L0,-2.38281 C0,-2.5651 0.0846354,-2.68229 0.253906,-2.73438 L1.17188,-3.08594 L1.17188,-6.23047 C1.17188,-6.47786 1.29557,-6.60156 1.54297,-6.60156 C1.79036,-6.60156 1.91406,-6.47786 1.91406,-6.23047 L1.91406,-3.33984 L3.57422,-3.96484 L3.57422,-7.12891 C3.57422,-7.3763 3.69792,-7.5 3.94531,-7.5 C4.19271,-7.5 4.31641,-7.3763 4.31641,-7.12891 L4.31641,-4.21875 L4.96094,-4.45312 C4.97396,-4.46615 5.01953,-4.47266 5.09766,-4.47266 C5.1888,-4.47266 5.28646,-4.43359 5.39062,-4.35547 C5.46875,-4.27734 5.50781,-4.1862 5.50781,-4.08203 L5.50781,-2.87109 C5.50781,-2.6888 5.41667,-2.5651 5.23438,-2.5 L4.31641,-2.1875 L4.31641,1.01562 L4.96094,0.800781 C4.97396,0.78776 5.01953,0.78125 5.09766,0.78125 C5.1888,0.78125 5.28646,0.820312 5.39062,0.898438 C5.46875,0.976562 5.50781,1.06771 5.50781,1.17188 L5.50781,2.38281 C5.50781,2.55208 5.41667,2.66927 5.23438,2.73438 L4.31641,3.08594 L4.31641,6.23047 M3.57422,-1.89453 L1.91406,-1.30859 L1.91406,1.89453 L3.57422,1.30859 L3.57422,-1.89453 "/>
<path class="KeySig" transform="matrix(0.850394,0,0,0.850394,181.662,12.7559)" d="M4.31641,6.23047 C4.31641,6.47786 4.19271,6.60156 3.94531,6.60156 C3.69792,6.60156 3.57422,6.47786 3.57422,6.23047 L3.57422,3.33984 L1.91406,3.96484 L1.91406,7.12891 C1.91406,7.3763 1.79036,7.5 1.54297,7.5 C1.29557,7.5 1.17188,7.3763 1.17188,7.12891 L1.17188,4.21875 L0.546875,4.45312 C0.533854,4.46615 0.481771,4.47266 0.390625,4.47266 C0.286458,4.47266 0.195312,4.43359 0.117188,4.35547 C0.0390625,4.27734 0,4.1862 0,4.08203 L0,2.87109 C0,2.67578 0.0846354,2.55208 0.253906,2.5 L1.17188,2.1875 L1.17188,-1.01562 L0.546875,-0.800781 C0.533854,-0.78776 0.481771,-0.78125 0.390625,-0.78125 C0.286458,-0.78125 0.195312,-0.820312 0.117188,-0.898438 C0.0390625,-0.976562 0,-1.06771 0,-1.17188 L0,-2.38281 C0,-2.5651 0.0846354,-2.68229 0.253906,-2.73438 L1.17188,-3.08594 L1.17188,-6.23047 C1.17188,-6.47786 1.29557,-6.60156 1.54297,-6.60156 C1.79036,-6.60156 1.91406,-6.47786 1.91406,-6.23047 L1.91406,-3.33984 L3.57422,-3.96484 L3.57422,-7.12891 C3.57422,-7.3763 3.69792,-7.5 3.94531,-7.5 C4.19271,-7.5 4.31641,-7.3763 4.31641,-7.12891 L4.31641,-4.21875 L4.96094,-4.45312 C4.97396,-4.46615 5.01953,-4.47266 5.09766,-4.47266 C5.1888,-4.47266 5.28646,-4.43359 5.39062,-4.35547 C5.46875,-4.27734 5.50781,-4.1862 5.50781,-4.08203 L5.50781,-2.87109 C5.50781,-2.6888 5.41667,-2.5651 5.23438,-2.5 L4.31641,-2.1875 L4.31641,1.01562 L4.96094,0.800781 C4.97396,0.78776 5.01953,0.78125 5.09766,0.78125 C5.1888,0.78125 5.28646,0.820312 5.39062,0.898438 C5.46875,0.976562 5.50781,1.06771 5.50781,1.17188 L5.50781,2.38281 C5.50781,2.55208 5.41667,2.66927 5.23438,2.73438 L4.31641,3.08594 L4.31641,6.23047 M3.57422,-1.89453 L1.91406,-1.30859 L1.91406,1.89453 L3.57422,1.30859 L3.57422,-1.89453 "/>
<path class="TimeSig" transform="matrix(0.850394,0,0,0.850394,419.164,65.4246)" d="M3.39844,-0.117188 C2.90365,-0.117188 2.59766,0.078125 2.48047,0.46875 C2.38932,0.755208 2.34375,1.23698 2.34375,1.91406 L2.34375,2.5 C2.34375,3.17708 2.38932,3.65885 2.48047,3.94531 C2.59766,4.33594 2.90365,4.53125 3.39844,4.53125 C3.94531,4.53125 4.29036,4.30339 4.43359,3.84766 C4.5638,3.41797 4.62891,2.87109 4.62891,2.20703 C4.62891,1.4388 4.55729,0.859375 4.41406,0.46875 C4.25781,0.078125 3.91927,-0.117188 3.39844,-0.117188 M2.34375,-0.3125 C2.73438,-0.46875 3.08594,-0.559896 3.39844,-0.585938 C4.4401,-0.585938 5.27344,-0.351562 5.89844,0.117188 C6.4974,0.598958 6.79688,1.28906 6.79688,2.1875 C6.79688,3.09896 6.49089,3.80208 5.87891,4.29688 C5.26693,4.76562 4.4401,5 3.39844,5 C2.33073,5 1.4974,4.50521 0.898438,3.51562 C0.299479,2.52604 0,1.35417 0,0 C0,-1.32812 0.351562,-2.5 1.05469,-3.51562 C1.77083,-4.50521 2.6888,-5 3.80859,-5 C4.53776,-5 5.18229,-4.8112 5.74219,-4.43359 C6.28906,-4.05599 6.5625,-3.5612 6.5625,-2.94922 C6.5625,-2.57161 6.43229,-2.25911 6.17188,-2.01172 C5.9375,-1.7513 5.63802,-1.62109 5.27344,-1.62109 C4.90885,-1.62109 4.59635,-1.7513 4.33594,-2.01172 C4.07552,-2.27214 3.94531,-2.58464 3.94531,-2.94922 C3.94531,-3.09245 4.07552,-3.25521 4.33594,-3.4375 C4.59635,-3.59375 4.72656,-3.75651 4.72656,-3.92578 C4.72656,-4.10807 4.63542,-4.25781 4.45312,-4.375 C4.24479,-4.47917 4.02995,-4.53125 3.80859,-4.53125 C3.20964,-4.53125 2.8125,-4.29036 2.61719,-3.80859 C2.40885,-3.33984 2.30469,-2.65625 2.30469,-1.75781 C2.30469,-1.4974 2.3112,-1.25651 2.32422,-1.03516 C2.33724,-0.813802 2.34375,-0.572917 2.34375,-0.3125"/>
<path class="TimeSig" transform="matrix(0.850394,0,0,0.850394,418.872,73.9286)" d="M5.17578,-0.761719 C5.82682,-1.47786 6.15234,-2.15495 6.15234,-2.79297 C6.15234,-3.32682 5.92448,-3.75 5.46875,-4.0625 C5.02604,-4.375 4.47917,-4.53125 3.82812,-4.53125 C3.3724,-4.53125 3.00781,-4.38802 2.73438,-4.10156 C2.46094,-3.8151 2.32422,-3.48958 2.32422,-3.125 C2.32422,-2.66927 2.52604,-2.31771 2.92969,-2.07031 L5.17578,-0.761719 M5.78125,-0.429688 C6.88802,0.208333 7.44141,1.0612 7.44141,2.12891 C7.44141,2.92318 7.10938,3.59375 6.44531,4.14062 C5.78125,4.71354 4.85026,5 3.65234,5 C2.63672,5 1.78385,4.73958 1.09375,4.21875 C0.364583,3.69792 0,3.02734 0,2.20703 C0,1.90755 0.0911458,1.58854 0.273438,1.25 C0.442708,0.950521 0.611979,0.716146 0.78125,0.546875 C0.859375,0.442708 1.10677,0.195312 1.52344,-0.195312 C0.716146,-0.768229 0.30599,-1.47786 0.292969,-2.32422 C0.292969,-3.04036 0.611979,-3.67188 1.25,-4.21875 C1.88802,-4.73958 2.7474,-5 3.82812,-5 C4.6875,-5 5.44271,-4.80469 6.09375,-4.41406 C6.71875,-4.02344 7.03125,-3.48307 7.03125,-2.79297 C7.00521,-2.08984 6.58854,-1.30208 5.78125,-0.429688 M2.12891,0.15625 C1.32161,0.872396 0.904948,1.55599 0.878906,2.20703 C0.878906,2.87109 1.15885,3.42448 1.71875,3.86719 C2.2526,4.3099 2.89714,4.53125 3.65234,4.53125 C4.1862,4.53125 4.60286,4.36198 4.90234,4.02344 C5.21484,3.71094 5.37109,3.32682 5.37109,2.87109 C5.37109,2.3112 5.14323,1.90104 4.6875,1.64062 L2.12891,0.15625 "/>
<path class="TimeSig" transform="matrix(0.850394,0,0,0.850394,419.164,17.0079)" d="M3.39844,-0.117188 C2.90365,-0.117188 2.59766,0.078125 2.48047,0.46875 C2.38932,0.755208 2.34375,1.23698 2.34375,1.91406 L2.34375,2.5 C2.34375,3.17708 2.38932,3.65885 2.48047,3.94531 C2.59766,4.33594 2.90365,4.53125 3.39844,4.53125 C3.94531,4.53125 4.29036,4.30339 4.43359,3.84766 C4.5638,3.41797 4.62891,2.87109 4.62891,2.20703 C4.62891,1.4388 4.55729,0.859375 4.41406,0.46875 C4.25781,0.078125 3.91927,-0.117188 3.39844,-0.117188 M2.34375,-0.3125 C2.73438,-0.46875 3.08594,-0.559896 3.39844,-0.585938 C4.4401,-0.585938 5.27344,-0.351562 5.89844,0.117188 C6.4974,0.598958 6.79688,1.28906 6.79688,2.1875 C6.79688,3.09896 6.49089,3.80208 5.87891,4.29688 C5.26693,4.76562 4.4401,5 3.39844,5 C2.33073,5 1.4974,4.50521 0.898438,3.51562 C0.299479,2.52604 0,1.35417 0,0 C0,-1.32812 0.351562,-2.5 1.05469,-3.51562 C1.77083,-4.50521 2.6888,-5 3.80859,-5 C4.53776,-5 5.18229,-4.8112 5.74219,-4.43359 C6.28906,-4.05599 6.5625,-3.5612 6.5625,-2.94922 C6.5625,-2.57161 6.43229,-2.25911 6.17188,-2.01172 C5.9375,-1.7513 5.63802,-1.62109 5.27344,-1.62109 C4.90885,-1.62109 4.59635,-1.7513 4.33594,-2.01172 C4.07552,-2.27214 3.94531,-2.58464 3.94531,-2.94922 C3.94531,-3.09245 4.07552,-3.25521 4.33594,-3.4375 C4.59635,-3.59375 4.72656,-3.75651 4.72656,-3.92578 C4.72656,-4.10807 4.63542,-4.25781 4.45312,-4.375 C4.24479,-4.47917 4.02995,-4.53125 3.80859,-4.53125 C3.20964,-4.53125 2.8125,-4.29036 2.61719,-3.80859 C2.40885,-3.33984 2.30469,-2.65625 2.30469,-1.75781 C2.30469,-1.4974 2.3112,-1.25651 2.32422,-1.03516 C2.33724,-0.813802 2.34375,-0.572917 2.34375,-0.3125"/>
<path class="TimeSig" transform="matrix(0.850394,0,0,0.850394,418.872,25.5118)" d="M5.17578,-0.761719 C5.82682,-1.47786 6.15234,-2.15495 6.15234,-2.79297 C6.15234,-3.32682 5.92448,-3.75 5.46875,-4.0625 C5.02604,-4.375 4.47917,-4.53125 3.82812,-4.53125 C3.3724,-4.53125 3.00781,-4.38802 2.73438,-4.10156 C2.46094,-3.8151 2.32422,-3.48958 2.32422,-3.125 C2.32422,-2.66927 2.52604,-2.31771 2.92969,-2.07031 L5.17578,-0.761719 M5.78125,-0.429688 C6.88802,0.208333 7.44141,1.0612 7.44141,2.12891 C7.44141,2.92318 7.10938,3.59375 6.44531,4.14062 C5.78125,4.71354 4.85026,5 3.65234,5 C2.63672,5 1.78385,4.73958 1.09375,4.21875 C0.364583,3.69792 0,3.02734 0,2.20703 C0,1.90755 0.0911458,1.58854 0.273438,1.25 C0.442708,0.950521 0.611979,0.716146 0.78125,0.546875 C0.859375,0.442708 1.10677,0.195312 1.52344,-0.195312 C0.716146,-0.768229 0.30599,-1.47786 0.292969,-2.32422 C0.292969,-3.04036 0.611979,-3.67188 1.25,-4.21875 C1.88802,-4.73958 2.7474,-5 3.82812,-5 C4.6875,-5 5.44271,-4.80469 6.09375,-4.41406 C6.71875,-4.02344 7.03125,-3.48307 7.03125,-2.79297 C7.00521,-2.08984 6.58854,-1.30208 5.78125,-0.429688 M2.12891,0.15625 C1.32161,0.872396 0.904948,1.55599 0.878906,2.20703 C0.878906,2.87109 1.15885,3.42448 1.71875,3.86719 C2.2526,4.3099 2.89714,4.53125 3.65234,4.53125 C4.1862,4.53125 4.60286,4.36198 4.90234,4.02344 C5.21484,3.71094 5.37109,3.32682 5.37109,2.87109 C5.37109,2.3112 5.14323,1.90104 4.6875,1.64062 L2.12891,0.15625 "/>
<path class="TimeSig" transform="matrix(0.850394,0,0,0.850394,188.472,69.6766)" d="M7.1875,-0.546875 C6.84896,-0.546875 6.51042,-0.677083 6.17188,-0.9375 C5.84635,-1.1849 5.68359,-1.54948 5.68359,-2.03125 C5.68359,-2.4349 5.82031,-2.79297 6.09375,-3.10547 C6.35417,-3.41797 6.69922,-3.57422 7.12891,-3.57422 C7.27214,-3.57422 7.36328,-3.56771 7.40234,-3.55469 C6.80339,-4.32292 6.0026,-4.72005 5,-4.74609 L4.74609,-4.74609 L4.74609,4.74609 C4.78516,4.74609 4.83073,4.7526 4.88281,4.76562 C4.88281,4.76562 4.92188,4.76562 5,4.76562 C5.78125,4.76562 6.44531,4.47917 6.99219,3.90625 C7.55208,3.34635 7.94271,2.6237 8.16406,1.73828 C8.20312,1.60807 8.28125,1.54297 8.39844,1.54297 C8.56771,1.54297 8.65234,1.62109 8.65234,1.77734 C8.65234,1.86849 8.61328,2.04427 8.53516,2.30469 C8.45703,2.55208 8.32031,2.83854 8.125,3.16406 C7.96875,3.47656 7.7474,3.80859 7.46094,4.16016 C7.20052,4.45964 6.84896,4.72005 6.40625,4.94141 C5.98958,5.14974 5.52083,5.25391 5,5.25391 C4.94792,5.25391 4.90885,5.2474 4.88281,5.23438 C4.88281,5.23438 4.83724,5.23438 4.74609,5.23438 L4.74609,6.79688 C4.74609,6.92708 4.67448,6.99219 4.53125,6.99219 L4.19922,6.99219 C4.06901,6.99219 4.00391,6.92708 4.00391,6.79688 L4.00391,5.17578 C2.63672,4.95443 1.6276,4.375 0.976562,3.4375 C0.325521,2.47396 0,1.32812 0,0 C0,-1.36719 0.325521,-2.51302 0.976562,-3.4375 C1.58854,-4.375 2.59766,-4.95443 4.00391,-5.17578 L4.00391,-6.79688 C4.00391,-6.92708 4.06901,-6.99219 4.19922,-6.99219 L4.53125,-6.99219 C4.66146,-6.99219 4.73307,-6.92708 4.74609,-6.79688 L4.74609,-5.23438 L5,-5.23438 C6.06771,-5.23438 6.91406,-4.86979 7.53906,-4.14062 C8.1901,-3.41146 8.51562,-2.6888 8.51562,-1.97266 C8.51562,-1.55599 8.38542,-1.21745 8.125,-0.957031 C7.89062,-0.683594 7.57812,-0.546875 7.1875,-0.546875 M4.00391,4.60938 L4.00391,-4.60938 C3.47005,-4.41406 3.125,-4.03646 2.96875,-3.47656 C2.8125,-2.90365 2.73438,-2.08333 2.73438,-1.01562 L2.73438,0 L2.73438,1.01562 C2.73438,2.08333 2.8125,2.90365 2.96875,3.47656 C3.125,4.03646 3.47005,4.41406 4.00391,4.60938"/>
<path class="TimeSig" transform="matrix(0.850394,0,0,0.850394,188.472,21.2598)" d="M7.1875,-0.546875 C6.84896,-0.546875 6.51042,-0.677083 6.17188,-0.9375 C5.84635,-1.1849 5.68359,-1.54948 5.68359,-2.03125 C5.68359,-2.4349 5.82031,-2.79297 6.09375,-3.10547 C6.35417,-3.41797 6.69922,-3.57422 7.12891,-3.57422 C7.27214,-3.57422 7.36328,-3.56771 7.40234,-3.55469 C6.80339,-4.32292 6.0026,-4.72005 5,-4.74609 L4.74609,-4.74609 L4.74609,4.74609 C4.78516,4.74609 4.83073,4.7526 4.88281,4.76562 C4.88281,4.76562 4.92188,4.76562 5,4.76562 C5.78125,4.76562 6.44531,4.47917 6.99219,3.90625 C7.55208,3.34635 7.94271,2.6237 8.16406,1.73828 C8.20312,1.60807 8.28125,1.54297 8.39844,1.54297 C8.56771,1.54297 8.65234,1.62109 8.65234,1.77734 C8.65234,1.86849 8.61328,2.04427 8.53516,2.30469 C8.45703,2.55208 8.32031,2.83854 8.125,3.16406 C7.96875,3.47656 7.7474,3.80859 7.46094,4.16016 C7.20052,4.45964 6.84896,4.72005 6.40625,4.94141 C5.98958,5.14974 5.52083,5.25391 5,5.25391 C4.94792,5.25391 4.90885,5.2474 4.88281,5.23438 C4.88281,5.23438 4.83724,5.23438 4.74609,5.23438 L4.74609,6.79688 C4.74609,6.92708 4.67448,6.99219 4.53125,6.99219 L4.19922,6.99219 C4.06901,6.99219 4.00391,6.92708 4.00391,6.79688 L4.00391,5.17578 C2.63672,4.95443 1.6276,4.375 0.976562,3.4375 C0.325521,2.47396 0,1.32812 0,0 C0,-1.36719 0.325521,-2.51302 0.976562,-3.4375 C1.58854,-4.375 2.59766,-4.95443 4.00391,-5.17578 L4.00391,-6.79688 C4.00391,-6.92708 4.06901,-6.99219 4.19922,-6.99219 L4.53125,-6.99219 C4.66146,-6.99219 4.73307,-6.92708 4.74609,-6.79688 L4.74609,-5.23438 L5,-5.23438 C6.06771,-5.23438 6.91406,-4.86979 7.53906,-4.14062 C8.1901,-3.41146 8.51562,-2.6888 8.51562,-1.97266 C8.51562,-1.55599 8.38542,-1.21745 8.125,-0.957031 C7.89062,-0.683594 7.57812,-0.546875 7.1875,-0.546875 M4.00391,4.60938 L4.00391,-4.60938 C3.47005,-4.41406 3.125,-4.03646 2.96875,-3.47656 C2.8125,-2.90365 2.73438,-2.08333 2.73438,-1.01562 L2.73438,0 L2.73438,1.01562 C2.73438,2.08333 2.8125,2.90365 2.96875,3.47656 C3.125,4.03646 3.47005,4.41406 4.00391,4.60938"/>
<path class="Rest" transform="matrix(0.850394,0,0,0.850394,456.431,69.6766)" d="M1.40625,-4.10156 C1.78385,-4.10156 2.07031,-3.9974 2.26562,-3.78906 C2.46094,-3.55469 2.5651,-3.33333 2.57812,-3.125 C2.60417,-2.92969 2.66927,-2.70833 2.77344,-2.46094 C2.89062,-2.2526 3.04036,-2.14844 3.22266,-2.14844 C3.36589,-2.14844 3.58073,-2.3112 3.86719,-2.63672 C4.1276,-2.92318 4.31641,-3.17708 4.43359,-3.39844 C4.4987,-3.52865 4.58984,-3.59375 4.70703,-3.59375 L4.72656,-3.59375 C4.85677,-3.58073 4.94792,-3.51562 5,-3.39844 L2.53906,5 C2.40885,5.13021 2.22656,5.19531 1.99219,5.19531 C1.75781,5.19531 1.57552,5.13021 1.44531,5 L3.78906,-1.52344 C2.95573,-1.22396 2.2526,-1.07422 1.67969,-1.07422 C1.21094,-1.07422 0.807292,-1.22396 0.46875,-1.52344 C0.117188,-1.8099 -0.0585938,-2.1875 -0.0585938,-2.65625 C-0.0585938,-3.0599 0.0846354,-3.39844 0.371094,-3.67188 C0.657552,-3.95833 1.0026,-4.10156 1.40625,-4.10156"/>
<path class="Rest" transform="matrix(0.850394,0,0,0.850394,456.431,29.7638)" d="M1.40625,-4.10156 C1.78385,-4.10156 2.07031,-3.9974 2.26562,-3.78906 C2.46094,-3.55469 2.5651,-3.33333 2.57812,-3.125 C2.60417,-2.92969 2.66927,-2.70833 2.77344,-2.46094 C2.89062,-2.2526 3.04036,-2.14844 3.22266,-2.14844 C3.36589,-2.14844 3.58073,-2.3112 3.86719,-2.63672 C4.1276,-2.92318 4.31641,-3.17708 4.43359,-3.39844 C4.4987,-3.52865 4.58984,-3.59375 4.70703,-3.59375 L4.72656,-3.59375 C4.85677,-3.58073 4.94792,-3.51562 5,-3.39844 L2.53906,5 C2.40885,5.13021 2.22656,5.19531 1.99219,5.19531 C1.75781,5.19531 1.57552,5.13021 1.44531,5 L3.78906,-1.52344 C2.95573,-1.22396 2.2526,-1.07422 1.67969,-1.07422 C1.21094,-1.07422 0.807292,-1.22396 0.46875,-1.52344 C0.117188,-1.8099 -0.0585938,-2.1875 -0.0585938,-2.65625 C-0.0585938,-3.0599 0.0846354,-3.39844 0.371094,-3.67188 C0.657552,-3.95833 1.0026,-4.10156 1.40625,-4.10156"/>
<path class="Rest" transform="matrix(0.850394,0,0,0.850394,433.089,69.6766)" d="M-0.117188,-1.5625 C-0.117188,-1.79688 0.0130208,-2.05729 0.273438,-2.34375 C0.46875,-2.55208 0.755208,-2.79948 1.13281,-3.08594 C1.41927,-3.28125 1.69922,-3.57422 1.97266,-3.96484 C2.23307,-4.34245 2.36328,-4.7526 2.36328,-5.19531 C2.36328,-5.71615 2.19401,-6.17839 1.85547,-6.58203 L1.15234,-7.42188 C1.10026,-7.47396 1.07422,-7.53906 1.07422,-7.61719 C1.07422,-7.69531 1.11328,-7.76693 1.19141,-7.83203 C1.28255,-7.89714 1.36068,-7.92969 1.42578,-7.92969 C1.51693,-7.92969 1.58854,-7.89062 1.64062,-7.8125 L4.66797,-4.21875 C4.79818,-4.04948 4.86328,-3.88021 4.86328,-3.71094 C4.86328,-3.47656 4.73307,-3.21615 4.47266,-2.92969 C4.30339,-2.7474 4.02344,-2.5 3.63281,-2.1875 C3.33333,-2.00521 3.04688,-1.71224 2.77344,-1.30859 C2.51302,-0.93099 2.38281,-0.520833 2.38281,-0.078125 C2.38281,0.46875 2.53906,0.93099 2.85156,1.30859 L4.53125,3.28125 C4.57031,3.32031 4.60286,3.38542 4.62891,3.47656 C4.62891,3.56771 4.59635,3.64583 4.53125,3.71094 C4.4401,3.77604 4.36198,3.80859 4.29688,3.80859 C4.27083,3.80859 4.16667,3.73698 3.98438,3.59375 C3.78906,3.4375 3.52865,3.28776 3.20312,3.14453 C2.83854,3.0013 2.48047,2.92969 2.12891,2.92969 C1.80339,2.92969 1.53646,3.02083 1.32812,3.20312 C1.14583,3.38542 1.05469,3.73698 1.05469,4.25781 C1.05469,5.05208 1.24349,5.67708 1.62109,6.13281 C1.66016,6.1849 1.66667,6.25 1.64062,6.32812 C1.61458,6.38021 1.56901,6.40625 1.50391,6.40625 C1.41276,6.40625 1.21094,6.17188 0.898438,5.70312 C0.572917,5.20833 0.266927,4.64193 -0.0195312,4.00391 C-0.31901,3.32682 -0.46875,2.76693 -0.46875,2.32422 C-0.46875,1.76432 -0.201823,1.48438 0.332031,1.48438 C0.94401,1.48438 1.73828,1.69271 2.71484,2.10938 L0.078125,-1.05469 C-0.0520833,-1.22396 -0.117188,-1.39323 -0.117188,-1.5625"/>
<path class="Rest" transform="matrix(0.850394,0,0,0.850394,433.089,29.7638)" d="M-0.117188,-1.5625 C-0.117188,-1.79688 0.0130208,-2.05729 0.273438,-2.34375 C0.46875,-2.55208 0.755208,-2.79948 1.13281,-3.08594 C1.41927,-3.28125 1.69922,-3.57422 1.97266,-3.96484 C2.23307,-4.34245 2.36328,-4.7526 2.36328,-5.19531 C2.36328,-5.71615 2.19401,-6.17839 1.85547,-6.58203 L1.15234,-7.42188 C1.10026,-7.47396 1.07422,-7.53906 1.07422,-7.61719 C1.07422,-7.69531 1.11328,-7.76693 1.19141,-7.83203 C1.28255,-7.89714 1.36068,-7.92969 1.42578,-7.92969 C1.51693,-7.92969 1.58854,-7.89062 1.64062,-7.8125 L4.66797,-4.21875 C4.79818,-4.04948 4.86328,-3.88021 4.86328,-3.71094 C4.86328,-3.47656 4.73307,-3.21615 4.47266,-2.92969 C4.30339,-2.7474 4.02344,-2.5 3.63281,-2.1875 C3.33333,-2.00521 3.04688,-1.71224 2.77344,-1.30859 C2.51302,-0.93099 2.38281,-0.520833 2.38281,-0.078125 C2.38281,0.46875 2.53906,0.93099 2.85156,1.30859 L4.53125,3.28125 C4.57031,3.32031 4.60286,3.38542 4.62891,3.47656 C4.62891,3.56771 4.59635,3.64583 4.53125,3.71094 C4.4401,3.77604 4.36198,3.80859 4.29688,3.80859 C4.27083,3.80859 4.16667,3.73698 3.98438,3.59375 C3.78906,3.4375 3.52865,3.28776 3.20312,3.14453 C2.83854,3.0013 2.48047,2.92969 2.12891,2.92969 C1.80339,2.92969 1.53646,3.02083 1.32812,3.20312 C1.14583,3.38542 1.05469,3.73698 1.05469,4.25781 C1.05469,5.05208 1.24349,5.67708 1.62109,6.13281 C1.66016,6.1849 1.66667,6.25 1.64062,6.32812 C1.61458,6.38021 1.56901,6.40625 1.50391,6.40625 C1.41276,6.40625 1.21094,6.17188 0.898438,5.70312 C0.572917,5.20833 0.266927,4.64193 -0.0195312,4.00391 C-0.31901,3.32682 -0.46875,2.76693 -0.46875,2.32422 C-0.46875,1.76432 -0.201823,1.48438 0.332031,1.48438 C0.94401,1.48438 1.73828,1.69271 2.71484,2.10938 L0.078125,-1.05469 C-0.0520833,-1.22396 -0.117188,-1.39323 -0.117188,-1.5625"/>
<path class="Rest" transform="matrix(0.850394,0,0,0.850394,203.425,12.7559)" d="M1.40625,-4.10156 C1.78385,-4.10156 2.07031,-3.9974 2.26562,-3.78906 C2.46094,-3.55469 2.5651,-3.33333 2.57812,-3.125 C2.60417,-2.92969 2.66927,-2.70833 2.77344,-2.46094 C2.89062,-2.2526 3.04036,-2.14844 3.22266,-2.14844 C3.36589,-2.14844 3.58073,-2.3112 3.86719,-2.63672 C4.1276,-2.92318 4.31641,-3.17708 4.43359,-3.39844 C4.4987,-3.52865 4.58984,-3.59375 4.70703,-3.59375 L4.72656,-3.59375 C4.85677,-3.58073 4.94792,-3.51562 5,-3.39844 L2.53906,5 C2.40885,5.13021 2.22656,5.19531 1.99219,5.19531 C1.75781,5.19531 1.57552,5.13021 1.44531,5 L3.78906,-1.52344 C2.95573,-1.22396 2.2526,-1.07422 1.67969,-1.07422 C1.21094,-1.07422 0.807292,-1.22396 0.46875,-1.52344 C0.117188,-1.8099 -0.0585938,-2.1875 -0.0585938,-2.65625 C-0.0585938,-3.0599 0.0846354,-3.39844 0.371094,-3.67188 C0.657552,-3.95833 1.0026,-4.10156 1.40625,-4.10156"/>
<path class="Beam" fill-rule="evenodd" d="M555.762,56.8761 L582.685,59.0467 L582.685,61.1727 L555.762,59.0021 L555.762,56.8761 "/>
<path class="Beam" fill-rule="evenodd" d="M550.717,42.5197 L577.64,45.7755 L577.64,47.9015 L550.717,44.6457 L550.717,42.5197 "/>
<path class="Beam" fill-rule="evenodd" d="M516.207,4.20741 L543.13,6.37795 L543.13,8.50394 L516.207,6.33339 L516.207,4.20741 "/>
<path class="Beam" fill-rule="evenodd" d="M473.147,55.757 L497.041,60.1097 L497.041,62.2357 L473.147,57.883 L473.147,55.757 "/>
<path class="Beam" fill-rule="evenodd" d="M468.101,38.2677 L491.996,42.6204 L491.996,44.7464 L468.101,40.3937 L468.101,38.2677 "/>
<path class="Beam" fill-rule="evenodd" d="M438.135,2.07564 L462.029,4.25197 L462.029,6.37795 L438.135,4.20162 L438.135,2.07564 "/>
<path class="Beam" fill-rule="evenodd" d="M369.469,42.5197 L395.785,38.1765 L395.785,40.3025 L369.469,44.6457 L369.469,42.5197 "/>
<path class="Beam" fill-rule="evenodd" d="M322.989,4.25197 L349.304,4.25197 L349.304,6.37795 L322.989,6.37795 L322.989,4.25197 "/>
<path class="Beam" fill-rule="evenodd" d="M263.38,41.4567 L287.763,38.1937 L287.763,40.3197 L263.38,43.5827 L263.38,41.4567 "/>
<path class="Beam" fill-rule="evenodd" d="M220.386,3.18898 L244.769,3.18898 L244.769,5.31496 L220.386,5.31496 L220.386,3.18898 "/>
<path class="Beam" fill-rule="evenodd" d="M145.126,3.18898 L172.648,3.18898 L172.648,5.31496 L145.126,5.31496 L145.126,3.18898 "/>
<path class="Beam" fill-rule="evenodd" d="M145.126,6.37795 L172.648,6.37795 L172.648,8.50394 L145.126,8.50394 L145.126,6.37795 "/>
<path class="Beam" fill-rule="evenodd" d="M109.167,61.1727 L136.689,61.1727 L136.689,63.2987 L109.167,63.2987 L109.167,61.1727 "/>
<path class="Beam" fill-rule="evenodd" d="M109.167,64.3617 L136.689,64.3617 L136.689,66.4876 L109.167,66.4876 L109.167,64.3617 "/>
<path class="Beam" fill-rule="evenodd" d="M69.9406,-3.55271e-15 L97.4629,-3.55271e-15 L97.4629,2.12598 L69.9406,2.12598 L69.9406,-3.55271e-15 "/>
<path class="Beam" fill-rule="evenodd" d="M69.9406,3.18898 L97.4629,3.18898 L97.4629,5.31496 L69.9406,5.31496 L69.9406,3.18898 "/>
<path class="Beam" fill-rule="evenodd" d="M33.9812,60.1097 L61.5035,60.1097 L61.5035,62.2357 L33.9812,62.2357 L33.9812,60.1097 "/>
<path class="Beam" fill-rule="evenodd" d="M33.9812,63.2987 L61.5035,63.2987 L61.5035,65.4246 L33.9812,65.4246 L33.9812,63.2987 "/>
<path class="Hook" transform="matrix(0.850394,0,0,0.850394,582.132,9.56693)" d="M0,5 L0,0 L0.625,0 C0.625,0.742188 0.768229,1.48438 1.05469,2.22656 C1.36719,3.03385 1.71224,3.73698 2.08984,4.33594 C2.36328,4.76562 2.77344,5.42318 3.32031,6.30859 C3.73698,6.98568 4.08854,7.69531 4.375,8.4375 C4.66146,9.17969 4.80469,9.92188 4.80469,10.6641 C4.80469,12.0182 4.52474,13.3984 3.96484,14.8047 C3.8737,14.9609 3.75,15.0391 3.59375,15.0391 C3.46354,15.0391 3.34635,14.987 3.24219,14.8828 C3.16406,14.8047 3.125,14.707 3.125,14.5898 L3.125,14.4922 C3.6849,13.2031 3.96484,11.9271 3.96484,10.6641 C3.96484,10.013 3.76953,9.3099 3.37891,8.55469 C2.98828,7.78646 2.59115,7.17448 2.1875,6.71875 C1.73177,6.1849 1.21094,5.61198 0.625,5 L0,5 "/>
<path class="Hook" transform="matrix(0.850394,0,0,0.850394,542.577,59.5782)" d="M0,5 L0,0 L0.625,0 C0.625,0.742188 0.768229,1.48438 1.05469,2.22656 C1.36719,3.03385 1.71224,3.73698 2.08984,4.33594 C2.36328,4.76562 2.77344,5.42318 3.32031,6.30859 C3.73698,6.98568 4.08854,7.69531 4.375,8.4375 C4.66146,9.17969 4.80469,9.92188 4.80469,10.6641 C4.80469,12.0182 4.52474,13.3984 3.96484,14.8047 C3.8737,14.9609 3.75,15.0391 3.59375,15.0391 C3.46354,15.0391 3.34635,14.987 3.24219,14.8828 C3.16406,14.8047 3.125,14.707 3.125,14.5898 L3.125,14.4922 C3.6849,13.2031 3.96484,11.9271 3.96484,10.6641 C3.96484,10.013 3.76953,9.3099 3.37891,8.55469 C2.98828,7.78646 2.59115,7.17448 2.1875,6.71875 C1.73177,6.1849 1.21094,5.61198 0.625,5 L0,5 "/>
<path class="Hook" transform="matrix(0.850394,0,0,0.850394,537.532,46.7717)" d="M4.55078,-14.4727 C4.85026,-14.4727 5.16927,-13.9844 5.50781,-13.0078 C5.83333,-12.0443 5.99609,-11.1263 5.99609,-10.2539 C5.99609,-9.51172 5.8138,-8.77604 5.44922,-8.04688 C5.07161,-7.26562 4.6224,-6.58854 4.10156,-6.01562 L2.5,-4.21875 C2.00521,-3.64583 1.5625,-2.98177 1.17188,-2.22656 C0.807292,-1.4974 0.625,-0.755208 0.625,0 L0,0 L0,-5 L0.625,-5 C0.976562,-5.22135 1.4974,-5.57292 2.1875,-6.05469 C2.5,-6.28906 2.96875,-6.67969 3.59375,-7.22656 C4.10156,-7.69531 4.48568,-8.17708 4.74609,-8.67188 C5.01953,-9.19271 5.15625,-9.72005 5.15625,-10.2539 C5.15625,-11.4909 4.79818,-12.7214 4.08203,-13.9453 C4.08203,-13.9453 4.08203,-13.9714 4.08203,-14.0234 C4.08203,-14.1406 4.12109,-14.2383 4.19922,-14.3164 C4.30339,-14.4206 4.42057,-14.4727 4.55078,-14.4727"/>
<path class="Hook" transform="matrix(0.850394,0,0,0.850394,496.488,7.97244)" d="M0,5 L0,0 L0.625,0 C0.625,0.742188 0.768229,1.48438 1.05469,2.22656 C1.36719,3.03385 1.71224,3.73698 2.08984,4.33594 C2.36328,4.76562 2.77344,5.42318 3.32031,6.30859 C3.73698,6.98568 4.08854,7.69531 4.375,8.4375 C4.66146,9.17969 4.80469,9.92188 4.80469,10.6641 C4.80469,12.0182 4.52474,13.3984 3.96484,14.8047 C3.8737,14.9609 3.75,15.0391 3.59375,15.0391 C3.46354,15.0391 3.34635,14.987 3.24219,14.8828 C3.16406,14.8047 3.125,14.707 3.125,14.5898 L3.125,14.4922 C3.6849,13.2031 3.96484,11.9271 3.96484,10.6641 C3.96484,10.013 3.76953,9.3099 3.37891,8.55469 C2.98828,7.78646 2.59115,7.17448 2.1875,6.71875 C1.73177,6.1849 1.21094,5.61198 0.625,5 L0,5 "/>
<path class="Hook" transform="matrix(0.850394,0,0,0.850394,356.588,42.5197)" d="M4.55078,-14.4727 C4.85026,-14.4727 5.16927,-13.9844 5.50781,-13.0078 C5.83333,-12.0443 5.99609,-11.1263 5.99609,-10.2539 C5.99609,-9.51172 5.8138,-8.77604 5.44922,-8.04688 C5.07161,-7.26562 4.6224,-6.58854 4.10156,-6.01562 L2.5,-4.21875 C2.00521,-3.64583 1.5625,-2.98177 1.17188,-2.22656 C0.807292,-1.4974 0.625,-0.755208 0.625,0 L0,0 L0,-5 L0.625,-5 C0.976562,-5.22135 1.4974,-5.57292 2.1875,-6.05469 C2.5,-6.28906 2.96875,-6.67969 3.59375,-7.22656 C4.10156,-7.69531 4.48568,-8.17708 4.74609,-8.67188 C5.01953,-9.19271 5.15625,-9.72005 5.15625,-10.2539 C5.15625,-11.4909 4.79818,-12.7214 4.08203,-13.9453 C4.08203,-13.9453 4.08203,-13.9714 4.08203,-14.0234 C4.08203,-14.1406 4.12109,-14.2383 4.19922,-14.3164 C4.30339,-14.4206 4.42057,-14.4727 4.55078,-14.4727"/>
<path class="Hook" transform="matrix(0.850394,0,0,0.850394,310.107,6.37795)" d="M0,5 L0,0 L0.625,0 C0.625,0.742188 0.768229,1.48438 1.05469,2.22656 C1.36719,3.03385 1.71224,3.73698 2.08984,4.33594 C2.36328,4.76562 2.77344,5.42318 3.32031,6.30859 C3.73698,6.98568 4.08854,7.69531 4.375,8.4375 C4.66146,9.17969 4.80469,9.92188 4.80469,10.6641 C4.80469,12.0182 4.52474,13.3984 3.96484,14.8047 C3.8737,14.9609 3.75,15.0391 3.59375,15.0391 C3.46354,15.0391 3.34635,14.987 3.24219,14.8828 C3.16406,14.8047 3.125,14.707 3.125,14.5898 L3.125,14.4922 C3.6849,13.2031 3.96484,11.9271 3.96484,10.6641 C3.96484,10.013 3.76953,9.3099 3.37891,8.55469 C2.98828,7.78646 2.59115,7.17448 2.1875,6.71875 C1.73177,6.1849 1.21094,5.61198 0.625,5 L0,5 "/>
<path class="Hook" transform="matrix(0.850394,0,0,0.850394,251.465,40.3937)" d="M4.55078,-14.4727 C4.85026,-14.4727 5.16927,-13.9844 5.50781,-13.0078 C5.83333,-12.0443 5.99609,-11.1263 5.99609,-10.2539 C5.99609,-9.51172 5.8138,-8.77604 5.44922,-8.04688 C5.07161,-7.26562 4.6224,-6.58854 4.10156,-6.01562 L2.5,-4.21875 C2.00521,-3.64583 1.5625,-2.98177 1.17188,-2.22656 C0.807292,-1.4974 0.625,-0.755208 0.625,0 L0,0 L0,-5 L0.625,-5 C0.976562,-5.22135 1.4974,-5.57292 2.1875,-6.05469 C2.5,-6.28906 2.96875,-6.67969 3.59375,-7.22656 C4.10156,-7.69531 4.48568,-8.17708 4.74609,-8.67188 C5.01953,-9.19271 5.15625,-9.72005 5.15625,-10.2539 C5.15625,-11.4909 4.79818,-12.7214 4.08203,-13.9453 C4.08203,-13.9453 4.08203,-13.9714 4.08203,-14.0234 C4.08203,-14.1406 4.12109,-14.2383 4.19922,-14.3164 C4.30339,-14.4206 4.42057,-14.4727 4.55078,-14.4727"/>
<path class="StaffText" d="M582.272,46.4757 C582.41,46.4757 582.528,46.5267 582.627,46.6287 C582.726,46.7307 582.776,46.8507 582.776,46.9887 C582.776,47.1207 582.725,47.2347 582.623,47.3307 C582.521,47.4267 582.401,47.4747 582.263,47.4747 C582.131,47.4747 582.017,47.4267 581.921,47.3307 C581.825,47.2347 581.777,47.1207 581.777,46.9887 C581.777,46.8507 581.826,46.7307 581.925,46.6287 C582.024,46.5267 582.14,46.4757 582.272,46.4757 M584.522,46.4757 C584.66,46.4757 584.778,46.5267 584.877,46.6287 C584.976,46.7307 585.026,46.8507 585.026,46.9887 C585.026,47.1207 584.975,47.2347 584.873,47.3307 C584.771,47.4267 584.651,47.4747 584.513,47.4747 C584.381,47.4747 584.267,47.4267 584.171,47.3307 C584.075,47.2347 584.027,47.1207 584.027,46.9887 C584.027,46.8507 584.076,46.7307 584.175,46.6287 C584.274,46.5267 584.39,46.4757 584.522,46.4757 M586.772,46.4757 C586.91,46.4757 587.028,46.5267 587.127,46.6287 C587.226,46.7307 587.276,46.8507 587.276,46.9887 C587.276,47.1207 587.225,47.2347 587.123,47.3307 C587.021,47.4267 586.901,47.4747 586.763,47.4747 C586.631,47.4747 586.517,47.4267 586.421,47.3307 C586.325,47.2347 586.277,47.1207 586.277,46.9887 C586.277,46.8507 586.326,46.7307 586.425,46.6287 C586.524,46.5267 586.64,46.4757 586.772,46.4757"/>
<path class="StaffText" d="M400.416,46.4757 C400.554,46.4757 400.673,46.5267 400.772,46.6287 C400.871,46.7307 400.92,46.8507 400.92,46.9887 C400.92,47.1207 400.869,47.2347 400.767,47.3307 C400.665,47.4267 400.545,47.4747 400.407,47.4747 C400.275,47.4747 400.161,47.4267 400.065,47.3307 C399.969,47.2347 399.921,47.1207 399.921,46.9887 C399.921,46.8507 399.971,46.7307 400.07,46.6287 C400.169,46.5267 400.284,46.4757 400.416,46.4757 M402.666,46.4757 C402.804,46.4757 402.923,46.5267 403.022,46.6287 C403.121,46.7307 403.17,46.8507 403.17,46.9887 C403.17,47.1207 403.119,47.2347 403.017,47.3307 C402.915,47.4267 402.795,47.4747 402.657,47.4747 C402.525,47.4747 402.411,47.4267 402.315,47.3307 C402.219,47.2347 402.171,47.1207 402.171,46.9887 C402.171,46.8507 402.221,46.7307 402.32,46.6287 C402.419,46.5267 402.534,46.4757 402.666,46.4757 M404.916,46.4757 C405.054,46.4757 405.173,46.5267 405.272,46.6287 C405.371,46.7307 405.42,46.8507 405.42,46.9887 C405.42,47.1207 405.369,47.2347 405.267,47.3307 C405.165,47.4267 405.045,47.4747 404.907,47.4747 C404.775,47.4747 404.661,47.4267 404.565,47.3307 C404.469,47.2347 404.421,47.1207 404.421,46.9887 C404.421,46.8507 404.471,46.7307 404.57,46.6287 C404.669,46.5267 404.784,46.4757 404.916,46.4757"/>
<path class="StaffText" d="M170.534,46.4757 C170.672,46.4757 170.79,46.5267 170.889,46.6287 C170.988,46.7307 171.038,46.8507 171.038,46.9887 C171.038,47.1207 170.987,47.2347 170.885,47.3307 C170.783,47.4267 170.663,47.4747 170.525,47.4747 C170.393,47.4747 170.279,47.4267 170.183,47.3307 C170.087,47.2347 170.039,47.1207 170.039,46.9887 C170.039,46.8507 170.088,46.7307 170.187,46.6287 C170.286,46.5267 170.402,46.4757 170.534,46.4757 M172.784,46.4757 C172.922,46.4757 173.04,46.5267 173.139,46.6287 C173.238,46.7307 173.288,46.8507 173.288,46.9887 C173.288,47.1207 173.237,47.2347 173.135,47.3307 C173.033,47.4267 172.913,47.4747 172.775,47.4747 C172.643,47.4747 172.529,47.4267 172.433,47.3307 C172.337,47.2347 172.289,47.1207 172.289,46.9887 C172.289,46.8507 172.338,46.7307 172.437,46.6287 C172.536,46.5267 172.652,46.4757 172.784,46.4757 M175.034,46.4757 C175.172,46.4757 175.29,46.5267 175.389,46.6287 C175.488,46.7307 175.538,46.8507 175.538,46.9887 C175.538,47.1207 175.487,47.2347 175.385,47.3307 C175.283,47.4267 175.163,47.4747 175.025,47.4747 C174.893,47.4747 174.779,47.4267 174.683,47.3307 C174.587,47.2347 174.539,47.1207 174.539,46.9887 C174.539,46.8507 174.588,46.7307 174.687,46.6287 C174.786,46.5267 174.902,46.4757 175.034,46.4757"/>
<path class="Bracket" fill-rule="evenodd" d="M5.36477,36.0323 C5.36477,30.7615 1.94376,25.6381 1.94376,20.5884 C1.94376,18.0452 2.87676,15.5756 5.75352,13.3641 C5.7924,13.3364 5.81183,13.2904 5.81183,13.2627 C5.81183,13.1798 5.59802,13.1061 5.44252,13.1061 C5.36477,13.1061 5.22871,13.1153 5.13152,13.1798 C1.39951,16.0179 0.155501,19.2984 0.155501,22.6157 C0.155501,27.9602 3.80976,33.1205 3.80976,38.2439 C3.80976,40.7871 2.87676,43.183 -3.77476e-15,45.3945 L-3.77476e-15,45.4682 L-3.77476e-15,45.5419 C2.87676,47.7535 3.80976,50.1493 3.80976,52.6926 C3.80976,57.816 0.155501,62.9762 0.155501,68.3208 C0.155501,71.6381 1.39951,74.9185 5.13152,77.7567 C5.22871,77.8212 5.36477,77.8304 5.44252,77.8304 C5.59802,77.8304 5.81183,77.7567 5.81183,77.6737 C5.81183,77.6461 5.7924,77.6 5.75352,77.5724 C2.87676,75.3608 1.94376,72.8913 1.94376,70.348 C1.94376,65.2983 5.36477,60.175 5.36477,54.9041 C5.36477,51.55 4.12076,48.3432 0.466502,45.4682 C4.12076,42.5932 5.36477,39.3865 5.36477,36.0323"/>
</svg>
