<?xml version="1.0" encoding="UTF-8" standalone="no"?>
<svg width="305.972px" height="32.2244px" viewBox="0 0 305.972 32.2244"
 xmlns="http://www.w3.org/2000/svg" xmlns:xlink="http://www.w3.org/1999/xlink" version="1.2" baseProfile="tiny">
<title>Transzformálás</title>
<desc>Generated by MuseScore 2.3.2</desc>
<polyline class="StaffLines" fill="none" stroke="#000000" stroke-width="0.34" stroke-linejoin="bevel" points="0,8.58347 305.972,8.58347"/>
<polyline class="StaffLines" fill="none" stroke="#000000" stroke-width="0.34" stroke-linejoin="bevel" points="0,12.8354 305.972,12.8354"/>
<polyline class="StaffLines" fill="none" stroke="#000000" stroke-width="0.34" stroke-linejoin="bevel" points="0,17.0874 305.972,17.0874"/>
<polyline class="StaffLines" fill="none" stroke="#000000" stroke-width="0.34" stroke-linejoin="bevel" points="0,21.3394 305.972,21.3394"/>
<polyline class="StaffLines" fill="none" stroke="#000000" stroke-width="0.34" stroke-linejoin="bevel" points="0,25.5913 305.972,25.5913"/>
<polyline class="BarLine" fill="none" stroke="#000000" stroke-width="0.68" stroke-linejoin="bevel" points="301.805,8.58347 301.805,25.5913"/>
<polyline class="BarLine" fill="none" stroke="#000000" stroke-width="2.13" stroke-linejoin="bevel" points="304.909,8.58347 304.909,25.5913"/>
<polyline class="BarLine" fill="none" stroke="#000000" stroke-width="0.68" stroke-linejoin="bevel" points="226.847,8.58347 226.847,25.5913"/>
<polyline class="BarLine" fill="none" stroke="#000000" stroke-width="0.68" stroke-linejoin="bevel" points="155.291,8.58347 155.291,25.5913"/>
<polyline class="BarLine" fill="none" stroke="#000000" stroke-width="0.68" stroke-linejoin="bevel" points="89.377,8.58347 89.377,25.5913"/>
<path class="Accidental" transform="matrix(0.850394,0,0,0.850394,258.232,27.7173)" d="M0.917969,-0.820312 L0.917969,0.722656 C0.917969,1.26953 0.94401,1.70573 0.996094,2.03125 C1.42578,1.66667 1.73177,1.39323 1.91406,1.21094 C2.1224,1.0026 2.33073,0.716146 2.53906,0.351562 C2.7474,-0.0130208 2.85156,-0.377604 2.85156,-0.742188 C2.85156,-1.10677 2.77344,-1.41927 2.61719,-1.67969 C2.46094,-1.9401 2.2526,-2.07031 1.99219,-2.07031 C1.67969,-2.07031 1.41927,-1.95312 1.21094,-1.71875 C1.01562,-1.45833 0.917969,-1.15885 0.917969,-0.820312 M0.0976562,2.75391 L-0.15625,-9.14062 C0.0260417,-9.24479 0.208333,-9.29688 0.390625,-9.29688 C0.572917,-9.29688 0.755208,-9.24479 0.9375,-9.14062 L0.78125,-2.24609 C1.3151,-2.70182 1.92708,-2.92969 2.61719,-2.92969 C3.125,-2.92969 3.54818,-2.72135 3.88672,-2.30469 C4.22526,-1.88802 4.39453,-1.41276 4.39453,-0.878906 C4.39453,-0.540365 4.28385,-0.182292 4.0625,0.195312 C3.85417,0.546875 3.63281,0.820312 3.39844,1.01562 C3.26823,1.11979 2.9362,1.38021 2.40234,1.79688 C2.24609,1.91406 2.06055,2.05078 1.8457,2.20703 C1.63086,2.36328 1.4974,2.46094 1.44531,2.5 C1.35417,2.55208 1.26953,2.65625 1.19141,2.8125 C1.10026,2.94271 0.996094,3.05339 0.878906,3.14453 C0.78776,3.22266 0.677083,3.26172 0.546875,3.26172 C0.416667,3.26172 0.3125,3.21615 0.234375,3.125 C0.143229,3.03385 0.0976562,2.91016 0.0976562,2.75391"/>
<path class="Accidental" transform="matrix(0.850394,0,0,0.850394,176.954,19.2134)" d="M0.917969,-0.820312 L0.917969,0.722656 C0.917969,1.26953 0.94401,1.70573 0.996094,2.03125 C1.42578,1.66667 1.73177,1.39323 1.91406,1.21094 C2.1224,1.0026 2.33073,0.716146 2.53906,0.351562 C2.7474,-0.0130208 2.85156,-0.377604 2.85156,-0.742188 C2.85156,-1.10677 2.77344,-1.41927 2.61719,-1.67969 C2.46094,-1.9401 2.2526,-2.07031 1.99219,-2.07031 C1.67969,-2.07031 1.41927,-1.95312 1.21094,-1.71875 C1.01562,-1.45833 0.917969,-1.15885 0.917969,-0.820312 M0.0976562,2.75391 L-0.15625,-9.14062 C0.0260417,-9.24479 0.208333,-9.29688 0.390625,-9.29688 C0.572917,-9.29688 0.755208,-9.24479 0.9375,-9.14062 L0.78125,-2.24609 C1.3151,-2.70182 1.92708,-2.92969 2.61719,-2.92969 C3.125,-2.92969 3.54818,-2.72135 3.88672,-2.30469 C4.22526,-1.88802 4.39453,-1.41276 4.39453,-0.878906 C4.39453,-0.540365 4.28385,-0.182292 4.0625,0.195312 C3.85417,0.546875 3.63281,0.820312 3.39844,1.01562 C3.26823,1.11979 2.9362,1.38021 2.40234,1.79688 C2.24609,1.91406 2.06055,2.05078 1.8457,2.20703 C1.63086,2.36328 1.4974,2.46094 1.44531,2.5 C1.35417,2.55208 1.26953,2.65625 1.19141,2.8125 C1.10026,2.94271 0.996094,3.05339 0.878906,3.14453 C0.78776,3.22266 0.677083,3.26172 0.546875,3.26172 C0.416667,3.26172 0.3125,3.21615 0.234375,3.125 C0.143229,3.03385 0.0976562,2.91016 0.0976562,2.75391"/>
<polyline class="LedgerLine" fill="none" stroke="#000000" stroke-width="0.68" stroke-linecap="square" stroke-linejoin="bevel" points="285.512,29.8433 293.661,29.8433"/>
<polyline class="LedgerLine" fill="none" stroke="#000000" stroke-width="0.68" stroke-linecap="square" stroke-linejoin="bevel" points="270.836,29.8433 278.985,29.8433"/>
<polyline class="LedgerLine" fill="none" stroke="#000000" stroke-width="0.68" stroke-linecap="square" stroke-linejoin="bevel" points="110.247,29.8433 118.396,29.8433"/>
<polyline class="LedgerLine" fill="none" stroke="#000000" stroke-width="0.68" stroke-linecap="square" stroke-linejoin="bevel" points="93.5439,29.8433 101.693,29.8433"/>
<polyline class="LedgerLine" fill="none" stroke="#000000" stroke-width="0.68" stroke-linecap="square" stroke-linejoin="bevel" points="46.9125,29.8433 55.0617,29.8433"/>
<polyline class="LedgerLine" fill="none" stroke="#000000" stroke-width="0.68" stroke-linecap="square" stroke-linejoin="bevel" points="31.2015,29.8433 39.3506,29.8433"/>
<polyline class="Stem" fill="none" stroke="#000000" stroke-width="0.55" stroke-linecap="round" stroke-linejoin="bevel" points="292.109,29.0447 292.109,14.9614"/>
<polyline class="Stem" fill="none" stroke="#000000" stroke-width="0.55" stroke-linecap="round" stroke-linejoin="bevel" points="277.433,29.0447 277.433,14.9614"/>
<polyline class="Stem" fill="none" stroke="#000000" stroke-width="0.55" stroke-linecap="round" stroke-linejoin="bevel" points="268.26,26.9187 268.26,13.8984"/>
<polyline class="Stem" fill="none" stroke="#000000" stroke-width="0.55" stroke-linecap="round" stroke-linejoin="bevel" points="255.957,24.7928 255.957,11.7649"/>
<polyline class="Stem" fill="none" stroke="#000000" stroke-width="0.55" stroke-linecap="round" stroke-linejoin="bevel" points="246.784,22.6668 246.784,10.1742"/>
<polyline class="Stem" fill="none" stroke="#000000" stroke-width="0.55" stroke-linecap="round" stroke-linejoin="bevel" points="237.611,20.5408 237.611,8.58347"/>
<polyline class="Stem" fill="none" stroke="#000000" stroke-width="0.55" stroke-linecap="round" stroke-linejoin="bevel" points="218.03,18.4148 218.03,5.39449"/>
<polyline class="Stem" fill="none" stroke="#000000" stroke-width="0.55" stroke-linecap="round" stroke-linejoin="bevel" points="204.231,22.6668 204.231,8.58347"/>
<polyline class="Stem" fill="none" stroke="#000000" stroke-width="0.55" stroke-linecap="round" stroke-linejoin="bevel" points="195.607,20.5408 195.607,5.39449"/>
<polyline class="Stem" fill="none" stroke="#000000" stroke-width="0.55" stroke-linecap="round" stroke-linejoin="bevel" points="186.982,18.4148 186.982,4.1536"/>
<polyline class="Stem" fill="none" stroke="#000000" stroke-width="0.55" stroke-linecap="round" stroke-linejoin="bevel" points="174.68,16.2888 174.68,2.38342"/>
<polyline class="Stem" fill="none" stroke="#000000" stroke-width="0.55" stroke-linecap="round" stroke-linejoin="bevel" points="166.055,14.1628 166.055,1.14252"/>
<polyline class="Stem" fill="none" stroke="#000000" stroke-width="0.55" stroke-linecap="round" stroke-linejoin="bevel" points="146.91,20.5408 146.91,6.98898"/>
<polyline class="Stem" fill="none" stroke="#000000" stroke-width="0.55" stroke-linecap="round" stroke-linejoin="bevel" points="133.547,20.5408 133.547,6.98898"/>
<polyline class="Stem" fill="none" stroke="#000000" stroke-width="0.55" stroke-linecap="round" stroke-linejoin="bevel" points="125.196,24.7928 125.196,13.8984"/>
<polyline class="Stem" fill="none" stroke="#000000" stroke-width="0.55" stroke-linecap="round" stroke-linejoin="bevel" points="116.844,29.0447 116.844,13.8984"/>
<polyline class="Stem" fill="none" stroke="#000000" stroke-width="0.55" stroke-linecap="round" stroke-linejoin="bevel" points="108.493,24.7928 108.493,13.8984"/>
<polyline class="Stem" fill="none" stroke="#000000" stroke-width="0.55" stroke-linecap="round" stroke-linejoin="bevel" points="100.141,29.0447 100.141,13.8984"/>
<polyline class="Stem" fill="none" stroke="#000000" stroke-width="0.55" stroke-linecap="round" stroke-linejoin="bevel" points="81.7896,20.5408 81.7896,6.98898"/>
<polyline class="Stem" fill="none" stroke="#000000" stroke-width="0.55" stroke-linecap="round" stroke-linejoin="bevel" points="69.2208,20.5408 69.2208,6.98898"/>
<polyline class="Stem" fill="none" stroke="#000000" stroke-width="0.55" stroke-linecap="round" stroke-linejoin="bevel" points="61.3653,24.7928 61.3653,13.8984"/>
<polyline class="Stem" fill="none" stroke="#000000" stroke-width="0.55" stroke-linecap="round" stroke-linejoin="bevel" points="53.5097,29.0447 53.5097,13.8984"/>
<polyline class="Stem" fill="none" stroke="#000000" stroke-width="0.55" stroke-linecap="round" stroke-linejoin="bevel" points="45.6542,24.7928 45.6542,13.8984"/>
<polyline class="Stem" fill="none" stroke="#000000" stroke-width="0.55" stroke-linecap="round" stroke-linejoin="bevel" points="37.7987,29.0447 37.7987,13.8984"/>
<path class="Note" transform="matrix(0.850394,0,0,0.850394,286.788,29.8433)" d="M4.39453,-2.75391 C5.01953,-2.75391 5.54688,-2.59115 5.97656,-2.26562 C6.38021,-1.91406 6.58203,-1.47135 6.58203,-0.9375 C6.58203,-0.0390625 6.11979,0.800781 5.19531,1.58203 C4.25781,2.36328 3.25521,2.75391 2.1875,2.75391 C1.5625,2.75391 1.03516,2.59115 0.605469,2.26562 C0.201823,1.91406 0,1.47135 0,0.9375 C0,0.0390625 0.46875,-0.800781 1.40625,-1.58203 C2.31771,-2.36328 3.3138,-2.75391 4.39453,-2.75391"/>
<path class="Note" transform="matrix(0.850394,0,0,0.850394,272.111,29.8433)" d="M4.39453,-2.75391 C5.01953,-2.75391 5.54688,-2.59115 5.97656,-2.26562 C6.38021,-1.91406 6.58203,-1.47135 6.58203,-0.9375 C6.58203,-0.0390625 6.11979,0.800781 5.19531,1.58203 C4.25781,2.36328 3.25521,2.75391 2.1875,2.75391 C1.5625,2.75391 1.03516,2.59115 0.605469,2.26562 C0.201823,1.91406 0,1.47135 0,0.9375 C0,0.0390625 0.46875,-0.800781 1.40625,-1.58203 C2.31771,-2.36328 3.3138,-2.75391 4.39453,-2.75391"/>
<path class="Note" transform="matrix(0.850394,0,0,0.850394,262.938,27.7173)" d="M4.39453,-2.75391 C5.01953,-2.75391 5.54688,-2.59115 5.97656,-2.26562 C6.38021,-1.91406 6.58203,-1.47135 6.58203,-0.9375 C6.58203,-0.0390625 6.11979,0.800781 5.19531,1.58203 C4.25781,2.36328 3.25521,2.75391 2.1875,2.75391 C1.5625,2.75391 1.03516,2.59115 0.605469,2.26562 C0.201823,1.91406 0,1.47135 0,0.9375 C0,0.0390625 0.46875,-0.800781 1.40625,-1.58203 C2.31771,-2.36328 3.3138,-2.75391 4.39453,-2.75391"/>
<path class="Note" transform="matrix(0.850394,0,0,0.850394,250.635,25.5913)" d="M4.39453,-2.75391 C5.01953,-2.75391 5.54688,-2.59115 5.97656,-2.26562 C6.38021,-1.91406 6.58203,-1.47135 6.58203,-0.9375 C6.58203,-0.0390625 6.11979,0.800781 5.19531,1.58203 C4.25781,2.36328 3.25521,2.75391 2.1875,2.75391 C1.5625,2.75391 1.03516,2.59115 0.605469,2.26562 C0.201823,1.91406 0,1.47135 0,0.9375 C0,0.0390625 0.46875,-0.800781 1.40625,-1.58203 C2.31771,-2.36328 3.3138,-2.75391 4.39453,-2.75391"/>
<path class="Note" transform="matrix(0.850394,0,0,0.850394,241.463,23.4654)" d="M4.39453,-2.75391 C5.01953,-2.75391 5.54688,-2.59115 5.97656,-2.26562 C6.38021,-1.91406 6.58203,-1.47135 6.58203,-0.9375 C6.58203,-0.0390625 6.11979,0.800781 5.19531,1.58203 C4.25781,2.36328 3.25521,2.75391 2.1875,2.75391 C1.5625,2.75391 1.03516,2.59115 0.605469,2.26562 C0.201823,1.91406 0,1.47135 0,0.9375 C0,0.0390625 0.46875,-0.800781 1.40625,-1.58203 C2.31771,-2.36328 3.3138,-2.75391 4.39453,-2.75391"/>
<path class="Note" transform="matrix(0.850394,0,0,0.850394,232.29,21.3394)" d="M4.39453,-2.75391 C5.01953,-2.75391 5.54688,-2.59115 5.97656,-2.26562 C6.38021,-1.91406 6.58203,-1.47135 6.58203,-0.9375 C6.58203,-0.0390625 6.11979,0.800781 5.19531,1.58203 C4.25781,2.36328 3.25521,2.75391 2.1875,2.75391 C1.5625,2.75391 1.03516,2.59115 0.605469,2.26562 C0.201823,1.91406 0,1.47135 0,0.9375 C0,0.0390625 0.46875,-0.800781 1.40625,-1.58203 C2.31771,-2.36328 3.3138,-2.75391 4.39453,-2.75391"/>
<path class="Note" transform="matrix(0.850394,0,0,0.850394,212.708,19.2134)" d="M4.39453,-2.75391 C5.01953,-2.75391 5.54688,-2.59115 5.97656,-2.26562 C6.38021,-1.91406 6.58203,-1.47135 6.58203,-0.9375 C6.58203,-0.0390625 6.11979,0.800781 5.19531,1.58203 C4.25781,2.36328 3.25521,2.75391 2.1875,2.75391 C1.5625,2.75391 1.03516,2.59115 0.605469,2.26562 C0.201823,1.91406 0,1.47135 0,0.9375 C0,0.0390625 0.46875,-0.800781 1.40625,-1.58203 C2.31771,-2.36328 3.3138,-2.75391 4.39453,-2.75391"/>
<path class="Note" transform="matrix(0.850394,0,0,0.850394,198.909,23.4654)" d="M4.39453,-2.75391 C5.01953,-2.75391 5.54688,-2.59115 5.97656,-2.26562 C6.38021,-1.91406 6.58203,-1.47135 6.58203,-0.9375 C6.58203,-0.0390625 6.11979,0.800781 5.19531,1.58203 C4.25781,2.36328 3.25521,2.75391 2.1875,2.75391 C1.5625,2.75391 1.03516,2.59115 0.605469,2.26562 C0.201823,1.91406 0,1.47135 0,0.9375 C0,0.0390625 0.46875,-0.800781 1.40625,-1.58203 C2.31771,-2.36328 3.3138,-2.75391 4.39453,-2.75391"/>
<path class="Note" transform="matrix(0.850394,0,0,0.850394,190.285,21.3394)" d="M4.39453,-2.75391 C5.01953,-2.75391 5.54688,-2.59115 5.97656,-2.26562 C6.38021,-1.91406 6.58203,-1.47135 6.58203,-0.9375 C6.58203,-0.0390625 6.11979,0.800781 5.19531,1.58203 C4.25781,2.36328 3.25521,2.75391 2.1875,2.75391 C1.5625,2.75391 1.03516,2.59115 0.605469,2.26562 C0.201823,1.91406 0,1.47135 0,0.9375 C0,0.0390625 0.46875,-0.800781 1.40625,-1.58203 C2.31771,-2.36328 3.3138,-2.75391 4.39453,-2.75391"/>
<path class="Note" transform="matrix(0.850394,0,0,0.850394,181.661,19.2134)" d="M4.39453,-2.75391 C5.01953,-2.75391 5.54688,-2.59115 5.97656,-2.26562 C6.38021,-1.91406 6.58203,-1.47135 6.58203,-0.9375 C6.58203,-0.0390625 6.11979,0.800781 5.19531,1.58203 C4.25781,2.36328 3.25521,2.75391 2.1875,2.75391 C1.5625,2.75391 1.03516,2.59115 0.605469,2.26562 C0.201823,1.91406 0,1.47135 0,0.9375 C0,0.0390625 0.46875,-0.800781 1.40625,-1.58203 C2.31771,-2.36328 3.3138,-2.75391 4.39453,-2.75391"/>
<path class="Note" transform="matrix(0.850394,0,0,0.850394,169.358,17.0874)" d="M4.39453,-2.75391 C5.01953,-2.75391 5.54688,-2.59115 5.97656,-2.26562 C6.38021,-1.91406 6.58203,-1.47135 6.58203,-0.9375 C6.58203,-0.0390625 6.11979,0.800781 5.19531,1.58203 C4.25781,2.36328 3.25521,2.75391 2.1875,2.75391 C1.5625,2.75391 1.03516,2.59115 0.605469,2.26562 C0.201823,1.91406 0,1.47135 0,0.9375 C0,0.0390625 0.46875,-0.800781 1.40625,-1.58203 C2.31771,-2.36328 3.3138,-2.75391 4.39453,-2.75391"/>
<path class="Note" transform="matrix(0.850394,0,0,0.850394,160.734,14.9614)" d="M4.39453,-2.75391 C5.01953,-2.75391 5.54688,-2.59115 5.97656,-2.26562 C6.38021,-1.91406 6.58203,-1.47135 6.58203,-0.9375 C6.58203,-0.0390625 6.11979,0.800781 5.19531,1.58203 C4.25781,2.36328 3.25521,2.75391 2.1875,2.75391 C1.5625,2.75391 1.03516,2.59115 0.605469,2.26562 C0.201823,1.91406 0,1.47135 0,0.9375 C0,0.0390625 0.46875,-0.800781 1.40625,-1.58203 C2.31771,-2.36328 3.3138,-2.75391 4.39453,-2.75391"/>
<path class="Note" transform="matrix(0.850394,0,0,0.850394,141.588,21.3394)" d="M4.39453,-2.75391 C5.01953,-2.75391 5.54688,-2.59115 5.97656,-2.26562 C6.38021,-1.91406 6.58203,-1.47135 6.58203,-0.9375 C6.58203,-0.0390625 6.11979,0.800781 5.19531,1.58203 C4.25781,2.36328 3.25521,2.75391 2.1875,2.75391 C1.5625,2.75391 1.03516,2.59115 0.605469,2.26562 C0.201823,1.91406 0,1.47135 0,0.9375 C0,0.0390625 0.46875,-0.800781 1.40625,-1.58203 C2.31771,-2.36328 3.3138,-2.75391 4.39453,-2.75391"/>
<path class="Note" transform="matrix(0.850394,0,0,0.850394,128.226,21.3394)" d="M4.39453,-2.75391 C5.01953,-2.75391 5.54688,-2.59115 5.97656,-2.26562 C6.38021,-1.91406 6.58203,-1.47135 6.58203,-0.9375 C6.58203,-0.0390625 6.11979,0.800781 5.19531,1.58203 C4.25781,2.36328 3.25521,2.75391 2.1875,2.75391 C1.5625,2.75391 1.03516,2.59115 0.605469,2.26562 C0.201823,1.91406 0,1.47135 0,0.9375 C0,0.0390625 0.46875,-0.800781 1.40625,-1.58203 C2.31771,-2.36328 3.3138,-2.75391 4.39453,-2.75391"/>
<path class="Note" transform="matrix(0.850394,0,0,0.850394,119.874,25.5913)" d="M4.39453,-2.75391 C5.01953,-2.75391 5.54688,-2.59115 5.97656,-2.26562 C6.38021,-1.91406 6.58203,-1.47135 6.58203,-0.9375 C6.58203,-0.0390625 6.11979,0.800781 5.19531,1.58203 C4.25781,2.36328 3.25521,2.75391 2.1875,2.75391 C1.5625,2.75391 1.03516,2.59115 0.605469,2.26562 C0.201823,1.91406 0,1.47135 0,0.9375 C0,0.0390625 0.46875,-0.800781 1.40625,-1.58203 C2.31771,-2.36328 3.3138,-2.75391 4.39453,-2.75391"/>
<path class="Note" transform="matrix(0.850394,0,0,0.850394,111.523,29.8433)" d="M4.39453,-2.75391 C5.01953,-2.75391 5.54688,-2.59115 5.97656,-2.26562 C6.38021,-1.91406 6.58203,-1.47135 6.58203,-0.9375 C6.58203,-0.0390625 6.11979,0.800781 5.19531,1.58203 C4.25781,2.36328 3.25521,2.75391 2.1875,2.75391 C1.5625,2.75391 1.03516,2.59115 0.605469,2.26562 C0.201823,1.91406 0,1.47135 0,0.9375 C0,0.0390625 0.46875,-0.800781 1.40625,-1.58203 C2.31771,-2.36328 3.3138,-2.75391 4.39453,-2.75391"/>
<path class="Note" transform="matrix(0.850394,0,0,0.850394,103.171,25.5913)" d="M4.39453,-2.75391 C5.01953,-2.75391 5.54688,-2.59115 5.97656,-2.26562 C6.38021,-1.91406 6.58203,-1.47135 6.58203,-0.9375 C6.58203,-0.0390625 6.11979,0.800781 5.19531,1.58203 C4.25781,2.36328 3.25521,2.75391 2.1875,2.75391 C1.5625,2.75391 1.03516,2.59115 0.605469,2.26562 C0.201823,1.91406 0,1.47135 0,0.9375 C0,0.0390625 0.46875,-0.800781 1.40625,-1.58203 C2.31771,-2.36328 3.3138,-2.75391 4.39453,-2.75391"/>
<path class="Note" transform="matrix(0.850394,0,0,0.850394,94.8195,29.8433)" d="M4.39453,-2.75391 C5.01953,-2.75391 5.54688,-2.59115 5.97656,-2.26562 C6.38021,-1.91406 6.58203,-1.47135 6.58203,-0.9375 C6.58203,-0.0390625 6.11979,0.800781 5.19531,1.58203 C4.25781,2.36328 3.25521,2.75391 2.1875,2.75391 C1.5625,2.75391 1.03516,2.59115 0.605469,2.26562 C0.201823,1.91406 0,1.47135 0,0.9375 C0,0.0390625 0.46875,-0.800781 1.40625,-1.58203 C2.31771,-2.36328 3.3138,-2.75391 4.39453,-2.75391"/>
<path class="Note" transform="matrix(0.850394,0,0,0.850394,76.468,21.3394)" d="M4.39453,-2.75391 C5.01953,-2.75391 5.54688,-2.59115 5.97656,-2.26562 C6.38021,-1.91406 6.58203,-1.47135 6.58203,-0.9375 C6.58203,-0.0390625 6.11979,0.800781 5.19531,1.58203 C4.25781,2.36328 3.25521,2.75391 2.1875,2.75391 C1.5625,2.75391 1.03516,2.59115 0.605469,2.26562 C0.201823,1.91406 0,1.47135 0,0.9375 C0,0.0390625 0.46875,-0.800781 1.40625,-1.58203 C2.31771,-2.36328 3.3138,-2.75391 4.39453,-2.75391"/>
<path class="Note" transform="matrix(0.850394,0,0,0.850394,63.8992,21.3394)" d="M4.39453,-2.75391 C5.01953,-2.75391 5.54688,-2.59115 5.97656,-2.26562 C6.38021,-1.91406 6.58203,-1.47135 6.58203,-0.9375 C6.58203,-0.0390625 6.11979,0.800781 5.19531,1.58203 C4.25781,2.36328 3.25521,2.75391 2.1875,2.75391 C1.5625,2.75391 1.03516,2.59115 0.605469,2.26562 C0.201823,1.91406 0,1.47135 0,0.9375 C0,0.0390625 0.46875,-0.800781 1.40625,-1.58203 C2.31771,-2.36328 3.3138,-2.75391 4.39453,-2.75391"/>
<path class="Note" transform="matrix(0.850394,0,0,0.850394,56.0436,25.5913)" d="M4.39453,-2.75391 C5.01953,-2.75391 5.54688,-2.59115 5.97656,-2.26562 C6.38021,-1.91406 6.58203,-1.47135 6.58203,-0.9375 C6.58203,-0.0390625 6.11979,0.800781 5.19531,1.58203 C4.25781,2.36328 3.25521,2.75391 2.1875,2.75391 C1.5625,2.75391 1.03516,2.59115 0.605469,2.26562 C0.201823,1.91406 0,1.47135 0,0.9375 C0,0.0390625 0.46875,-0.800781 1.40625,-1.58203 C2.31771,-2.36328 3.3138,-2.75391 4.39453,-2.75391"/>
<path class="Note" transform="matrix(0.850394,0,0,0.850394,48.1881,29.8433)" d="M4.39453,-2.75391 C5.01953,-2.75391 5.54688,-2.59115 5.97656,-2.26562 C6.38021,-1.91406 6.58203,-1.47135 6.58203,-0.9375 C6.58203,-0.0390625 6.11979,0.800781 5.19531,1.58203 C4.25781,2.36328 3.25521,2.75391 2.1875,2.75391 C1.5625,2.75391 1.03516,2.59115 0.605469,2.26562 C0.201823,1.91406 0,1.47135 0,0.9375 C0,0.0390625 0.46875,-0.800781 1.40625,-1.58203 C2.31771,-2.36328 3.3138,-2.75391 4.39453,-2.75391"/>
<path class="Note" transform="matrix(0.850394,0,0,0.850394,40.3326,25.5913)" d="M4.39453,-2.75391 C5.01953,-2.75391 5.54688,-2.59115 5.97656,-2.26562 C6.38021,-1.91406 6.58203,-1.47135 6.58203,-0.9375 C6.58203,-0.0390625 6.11979,0.800781 5.19531,1.58203 C4.25781,2.36328 3.25521,2.75391 2.1875,2.75391 C1.5625,2.75391 1.03516,2.59115 0.605469,2.26562 C0.201823,1.91406 0,1.47135 0,0.9375 C0,0.0390625 0.46875,-0.800781 1.40625,-1.58203 C2.31771,-2.36328 3.3138,-2.75391 4.39453,-2.75391"/>
<path class="Note" transform="matrix(0.850394,0,0,0.850394,32.4771,29.8433)" d="M4.39453,-2.75391 C5.01953,-2.75391 5.54688,-2.59115 5.97656,-2.26562 C6.38021,-1.91406 6.58203,-1.47135 6.58203,-0.9375 C6.58203,-0.0390625 6.11979,0.800781 5.19531,1.58203 C4.25781,2.36328 3.25521,2.75391 2.1875,2.75391 C1.5625,2.75391 1.03516,2.59115 0.605469,2.26562 C0.201823,1.91406 0,1.47135 0,0.9375 C0,0.0390625 0.46875,-0.800781 1.40625,-1.58203 C2.31771,-2.36328 3.3138,-2.75391 4.39453,-2.75391"/>
<path class="Clef" transform="matrix(0.850394,0,0,0.850394,2.72126,21.3394)" d="M7.34375,-5.11719 C7.34375,-5.11719 7.38281,-5.11719 7.46094,-5.11719 C7.51302,-5.13021 7.55859,-5.13672 7.59766,-5.13672 C9.05599,-5.13672 10.2539,-4.6224 11.1914,-3.59375 C12.1289,-2.57812 12.5977,-1.39323 12.5977,-0.0390625 C12.5977,1.64062 11.901,3.00781 10.5078,4.0625 C10.1432,4.34896 9.66797,4.58333 9.08203,4.76562 C9.14714,5.61198 9.17969,6.29557 9.17969,6.81641 C9.17969,6.92057 9.16667,7.29818 9.14062,7.94922 C9.08854,9.16016 8.67188,10.2083 7.89062,11.0938 C7.13542,11.9661 6.19792,12.4023 5.07812,12.4023 C4.02344,12.4023 3.125,12.0312 2.38281,11.2891 C1.64062,10.5339 1.26953,9.6224 1.26953,8.55469 C1.26953,7.99479 1.48438,7.51953 1.91406,7.12891 C2.35677,6.73828 2.87109,6.54297 3.45703,6.54297 C3.97786,6.54297 4.41406,6.74479 4.76562,7.14844 C5.13021,7.52604 5.3125,7.99479 5.3125,8.55469 C5.3125,9.0625 5.13021,9.4987 4.76562,9.86328 C4.40104,10.2279 3.96484,10.4102 3.45703,10.4102 C3.2487,10.4102 3.04688,10.3711 2.85156,10.293 C3.42448,11.1393 4.1862,11.5625 5.13672,11.5625 C6.03516,11.5625 6.77083,11.1979 7.34375,10.4688 C7.94271,9.71354 8.26823,8.83464 8.32031,7.83203 C8.34635,7.20703 8.35938,6.84896 8.35938,6.75781 C8.35938,6.02865 8.33333,5.42969 8.28125,4.96094 C7.63021,5.0651 7.05078,5.11719 6.54297,5.11719 C4.73307,5.11719 3.1901,4.40104 1.91406,2.96875 C0.664062,1.52344 0.0390625,-0.195312 0.0390625,-2.1875 C0.0390625,-2.60417 0.078125,-3.02734 0.15625,-3.45703 C0.234375,-3.80859 0.332031,-4.19271 0.449219,-4.60938 C0.514323,-4.84375 0.690104,-5.22135 0.976562,-5.74219 C1.08073,-5.89844 1.19792,-6.09375 1.32812,-6.32812 C1.45833,-6.5625 1.54948,-6.71875 1.60156,-6.79688 C1.73177,-7.05729 1.98568,-7.40885 2.36328,-7.85156 C2.46745,-7.96875 2.57487,-8.09896 2.68555,-8.24219 C2.79622,-8.38542 2.89062,-8.5026 2.96875,-8.59375 C3.04688,-8.6849 3.10547,-8.75651 3.14453,-8.80859 C3.18359,-8.86068 3.47656,-9.20573 4.02344,-9.84375 C4.15365,-9.97396 4.2806,-10.1139 4.4043,-10.2637 C4.52799,-10.4134 4.62891,-10.5306 4.70703,-10.6152 C4.78516,-10.6999 4.84375,-10.7617 4.88281,-10.8008 C4.41406,-12.3503 4.12109,-13.5872 4.00391,-14.5117 C3.91276,-15.2539 3.86719,-16.2695 3.86719,-17.5586 C3.86719,-18.6914 4.1276,-19.7526 4.64844,-20.7422 C5.15625,-21.7708 5.86589,-22.6107 6.77734,-23.2617 C6.84245,-23.3008 6.90755,-23.3203 6.97266,-23.3203 C7.0638,-23.3203 7.12891,-23.3008 7.16797,-23.2617 C7.87109,-22.4154 8.47656,-21.3151 8.98438,-19.9609 C9.50521,-18.6068 9.76562,-17.3763 9.76562,-16.2695 C9.76562,-15.0195 9.46615,-13.8477 8.86719,-12.7539 C8.1901,-11.5951 7.31771,-10.3971 6.25,-9.16016 C6.52344,-8.30078 6.88802,-6.95312 7.34375,-5.11719 M9.00391,3.96484 C9.68099,3.71745 10.2083,3.29427 10.5859,2.69531 C11.0026,2.1224 11.2109,1.47786 11.2109,0.761719 C11.2109,-0.16276 10.8984,-0.983073 10.2734,-1.69922 C9.63542,-2.44141 8.82161,-2.85807 7.83203,-2.94922 C8.39193,-0.201823 8.78255,2.10286 9.00391,3.96484 M1.44531,-0.546875 C1.44531,0.742188 1.96615,1.875 3.00781,2.85156 C4.07552,3.80208 5.27344,4.27734 6.60156,4.27734 C7.14844,4.27734 7.68229,4.23828 8.20312,4.16016 C7.99479,2.18099 7.58464,-0.188802 6.97266,-2.94922 C6.23047,-2.87109 5.63802,-2.61068 5.19531,-2.16797 C4.76562,-1.71224 4.55078,-1.19792 4.55078,-0.625 C4.55078,0.364583 5.07812,1.16536 6.13281,1.77734 C6.22396,1.86849 6.26953,1.96615 6.26953,2.07031 C6.26953,2.17448 6.22396,2.27214 6.13281,2.36328 C6.05469,2.45443 5.95703,2.5 5.83984,2.5 C5.82682,2.5 5.76823,2.48698 5.66406,2.46094 C4.92188,2.05729 4.34896,1.53646 3.94531,0.898438 C3.56771,0.221354 3.37891,-0.46224 3.37891,-1.15234 C3.37891,-2.05078 3.65885,-2.86458 4.21875,-3.59375 C4.80469,-4.32292 5.56641,-4.79167 6.50391,-5 C6.13932,-6.45833 5.83984,-7.59766 5.60547,-8.41797 C5.39714,-8.18359 5.14648,-7.90039 4.85352,-7.56836 C4.56055,-7.23633 4.38802,-7.03776 4.33594,-6.97266 C3.86719,-6.36068 3.50911,-5.88542 3.26172,-5.54688 C2.81901,-4.9349 2.49349,-4.40755 2.28516,-3.96484 C2.0638,-3.47005 1.86849,-2.92969 1.69922,-2.34375 C1.52995,-1.78385 1.44531,-1.1849 1.44531,-0.546875 M7.96875,-20.4102 C6.99219,-19.9284 6.22396,-19.2383 5.66406,-18.3398 C5.09115,-17.4154 4.80469,-16.4193 4.80469,-15.3516 C4.80469,-14.4141 5.03906,-13.151 5.50781,-11.5625 C6.44531,-12.6953 7.14844,-13.7435 7.61719,-14.707 C8.11198,-15.7227 8.35938,-16.7839 8.35938,-17.8906 C8.35938,-18.724 8.22917,-19.5638 7.96875,-20.4102"/>
<path class="TimeSig" transform="matrix(0.850394,0,0,0.850394,17.6776,17.0874)" d="M7.1875,-0.546875 C6.84896,-0.546875 6.51042,-0.677083 6.17188,-0.9375 C5.84635,-1.1849 5.68359,-1.54948 5.68359,-2.03125 C5.68359,-2.4349 5.82031,-2.79297 6.09375,-3.10547 C6.35417,-3.41797 6.69922,-3.57422 7.12891,-3.57422 C7.27214,-3.57422 7.36328,-3.56771 7.40234,-3.55469 C6.80339,-4.32292 6.0026,-4.72005 5,-4.74609 C4.24479,-4.74609 3.67188,-4.53125 3.28125,-4.10156 C3.15104,-3.93229 3.03385,-3.65885 2.92969,-3.28125 C2.82552,-2.90365 2.77344,-2.5651 2.77344,-2.26562 C2.7474,-2.05729 2.73438,-1.64062 2.73438,-1.01562 L2.73438,1.01562 C2.73438,1.64062 2.7474,2.0638 2.77344,2.28516 C2.82552,3.13151 2.99479,3.73698 3.28125,4.10156 C3.6849,4.54427 4.25781,4.76562 5,4.76562 C5.78125,4.76562 6.44531,4.47917 6.99219,3.90625 C7.55208,3.34635 7.94271,2.6237 8.16406,1.73828 C8.20312,1.60807 8.28125,1.54297 8.39844,1.54297 C8.56771,1.54297 8.65234,1.62109 8.65234,1.77734 C8.65234,1.86849 8.61328,2.04427 8.53516,2.30469 C8.35286,2.89062 7.99479,3.50911 7.46094,4.16016 C6.82292,4.88932 6.0026,5.25391 5,5.25391 C4.41406,5.25391 3.8151,5.16927 3.20312,5 C2.60417,4.79167 2.07682,4.50521 1.62109,4.14062 C1.11328,3.73698 0.716146,3.1901 0.429688,2.5 C0.143229,1.74479 0,0.911458 0,0 C0,-1.58854 0.429688,-2.85156 1.28906,-3.78906 C2.1224,-4.7526 3.35938,-5.23438 5,-5.23438 C6.06771,-5.23438 6.91406,-4.86979 7.53906,-4.14062 C8.1901,-3.41146 8.51562,-2.6888 8.51562,-1.97266 C8.51562,-1.55599 8.38542,-1.21745 8.125,-0.957031 C7.89062,-0.683594 7.57812,-0.546875 7.1875,-0.546875"/>
<path class="Beam" fill-rule="evenodd" d="M237.335,7.42462 L268.536,12.8354 L268.536,14.9614 L237.335,9.55061 L237.335,7.42462 "/>
<path class="Beam" fill-rule="evenodd" d="M165.779,1.77636e-15 L195.883,4.3315 L195.883,6.45749 L165.779,2.12598 L165.779,1.77636e-15 "/>
<path class="Beam" fill-rule="evenodd" d="M99.8648,12.8354 L125.472,12.8354 L125.472,14.9614 L99.8648,14.9614 L99.8648,12.8354 "/>
<path class="Beam" fill-rule="evenodd" d="M37.5223,12.8354 L61.6416,12.8354 L61.6416,14.9614 L37.5223,14.9614 L37.5223,12.8354 "/>
</svg>
