<?xml version="1.0" encoding="UTF-8" standalone="no"?>
<svg width="538.747px" height="43.075px" viewBox="0 0 538.747 43.075"
 xmlns="http://www.w3.org/2000/svg" xmlns:xlink="http://www.w3.org/1999/xlink" version="1.2" baseProfile="tiny">
<title>Basszus</title>
<desc>Generated by MuseScore 2.3.2</desc>
<polyline class="StaffLines" fill="none" stroke="#000000" stroke-width="0.40" stroke-linejoin="bevel" points="0,4.075 538.747,4.075"/>
<polyline class="StaffLines" fill="none" stroke="#000000" stroke-width="0.40" stroke-linejoin="bevel" points="0,9.07501 538.747,9.07501"/>
<polyline class="StaffLines" fill="none" stroke="#000000" stroke-width="0.40" stroke-linejoin="bevel" points="0,14.075 538.747,14.075"/>
<polyline class="StaffLines" fill="none" stroke="#000000" stroke-width="0.40" stroke-linejoin="bevel" points="0,19.075 538.747,19.075"/>
<polyline class="StaffLines" fill="none" stroke="#000000" stroke-width="0.40" stroke-linejoin="bevel" points="0,24.075 538.747,24.075"/>
<polyline class="BarLine" fill="none" stroke="#000000" stroke-width="0.80" stroke-linejoin="bevel" points="533.847,4.075 533.847,24.075"/>
<polyline class="BarLine" fill="none" stroke="#000000" stroke-width="2.50" stroke-linejoin="bevel" points="537.497,4.075 537.497,24.075"/>
<polyline class="BarLine" fill="none" stroke="#000000" stroke-width="0.80" stroke-linejoin="bevel" points="410.94,4.075 410.94,24.075"/>
<polyline class="BarLine" fill="none" stroke="#000000" stroke-width="0.80" stroke-linejoin="bevel" points="280.562,4.075 280.562,24.075"/>
<polyline class="BarLine" fill="none" stroke="#000000" stroke-width="0.80" stroke-linejoin="bevel" points="157.655,4.075 157.655,24.075"/>
<polyline class="Stem" fill="none" stroke="#000000" stroke-width="0.65" stroke-linecap="round" stroke-linejoin="bevel" points="488.282,15.807 488.282,0.325"/>
<polyline class="Stem" fill="none" stroke="#000000" stroke-width="0.65" stroke-linecap="round" stroke-linejoin="bevel" points="449.917,15.0141 449.917,29.7"/>
<polyline class="Stem" fill="none" stroke="#000000" stroke-width="0.65" stroke-linecap="round" stroke-linejoin="bevel" points="417.665,15.0141 417.665,29.7"/>
<polyline class="Stem" fill="none" stroke="#000000" stroke-width="0.65" stroke-linecap="round" stroke-linejoin="bevel" points="379.971,12.5141 379.971,27.825"/>
<polyline class="Stem" fill="none" stroke="#000000" stroke-width="0.65" stroke-linecap="round" stroke-linejoin="bevel" points="349.076,12.5141 349.076,27.825"/>
<polyline class="Stem" fill="none" stroke="#000000" stroke-width="0.65" stroke-linecap="round" stroke-linejoin="bevel" points="318.181,10.0141 318.181,25.95"/>
<polyline class="Stem" fill="none" stroke="#000000" stroke-width="0.65" stroke-linecap="round" stroke-linejoin="bevel" points="287.287,10.0141 287.287,25.95"/>
<polyline class="Stem" fill="none" stroke="#000000" stroke-width="0.65" stroke-linecap="round" stroke-linejoin="bevel" points="228.703,7.359 228.703,24.075"/>
<polyline class="Stem" fill="none" stroke="#000000" stroke-width="0.65" stroke-linecap="round" stroke-linejoin="bevel" points="196.632,5.01407 196.632,21.575"/>
<polyline class="Stem" fill="none" stroke="#000000" stroke-width="0.65" stroke-linecap="round" stroke-linejoin="bevel" points="164.38,5.01407 164.38,21.575"/>
<polyline class="Stem" fill="none" stroke="#000000" stroke-width="0.65" stroke-linecap="round" stroke-linejoin="bevel" points="127.736,7.51407 127.736,24.075"/>
<polyline class="Stem" fill="none" stroke="#000000" stroke-width="0.65" stroke-linecap="round" stroke-linejoin="bevel" points="97.8909,7.51407 97.8909,24.075"/>
<polyline class="Stem" fill="none" stroke="#000000" stroke-width="0.65" stroke-linecap="round" stroke-linejoin="bevel" points="73.979,15.6359 73.979,0.325"/>
<polyline class="Stem" fill="none" stroke="#000000" stroke-width="0.65" stroke-linecap="round" stroke-linejoin="bevel" points="44.1344,15.6359 44.1344,0.325"/>
<path class="Note" d="M487.972,15.2664 C487.972,15.0451 487.888,14.8563 487.718,14.7 C487.549,14.5307 487.354,14.4461 487.132,14.4461 C486.742,14.4461 485.954,14.8367 484.769,15.618 C483.545,16.4123 482.796,16.9787 482.523,17.3172 C482.38,17.4995 482.308,17.6883 482.308,17.8836 C482.308,18.105 482.393,18.2938 482.562,18.45 C482.718,18.6193 482.914,18.7039 483.148,18.7039 C483.526,18.7039 484.32,18.3133 485.531,17.532 C486.729,16.7508 487.471,16.1844 487.757,15.8328 C487.901,15.6636 487.972,15.4748 487.972,15.2664 M486.937,13.8211 C488.057,13.8211 488.617,14.3029 488.617,15.2664 C488.617,15.7352 488.48,16.282 488.207,16.907 C487.933,17.519 487.569,17.9878 487.113,18.3133 C486.11,18.9904 484.854,19.3289 483.343,19.3289 C482.224,19.3289 481.664,18.8471 481.664,17.8836 C481.664,17.4539 481.8,16.9136 482.074,16.2625 C482.334,15.6375 482.699,15.1623 483.168,14.8367 C484.17,14.1596 485.427,13.8211 486.937,13.8211"/>
<path class="Note" d="M453.987,11.3211 C454.612,11.3211 455.139,11.4839 455.569,11.8094 C455.972,12.1609 456.174,12.6037 456.174,13.1375 C456.174,14.0359 455.712,14.8758 454.788,15.657 C453.85,16.4383 452.847,16.8289 451.78,16.8289 C451.155,16.8289 450.627,16.6662 450.198,16.3406 C449.794,15.9891 449.592,15.5464 449.592,15.0125 C449.592,14.1141 450.061,13.2742 450.999,12.493 C451.91,11.7117 452.906,11.3211 453.987,11.3211"/>
<path class="Note" d="M421.735,11.3211 C422.36,11.3211 422.887,11.4839 423.317,11.8094 C423.721,12.1609 423.922,12.6037 423.922,13.1375 C423.922,14.0359 423.46,14.8758 422.536,15.657 C421.598,16.4383 420.596,16.8289 419.528,16.8289 C418.903,16.8289 418.376,16.6662 417.946,16.3406 C417.542,15.9891 417.34,15.5464 417.34,15.0125 C417.34,14.1141 417.809,13.2742 418.747,12.493 C419.658,11.7117 420.654,11.3211 421.735,11.3211"/>
<path class="Note" d="M384.04,8.8211 C384.665,8.8211 385.193,8.98386 385.622,9.30938 C386.026,9.66094 386.228,10.1037 386.228,10.6375 C386.228,11.5359 385.766,12.3758 384.841,13.157 C383.904,13.9383 382.901,14.3289 381.833,14.3289 C381.208,14.3289 380.681,14.1662 380.251,13.8406 C379.848,13.4891 379.646,13.0464 379.646,12.5125 C379.646,11.6141 380.115,10.7742 381.052,9.99298 C381.963,9.21173 382.96,8.8211 384.04,8.8211"/>
<path class="Note" d="M353.146,8.8211 C353.771,8.8211 354.298,8.98386 354.728,9.30938 C355.131,9.66094 355.333,10.1037 355.333,10.6375 C355.333,11.5359 354.871,12.3758 353.946,13.157 C353.009,13.9383 352.006,14.3289 350.939,14.3289 C350.314,14.3289 349.786,14.1662 349.357,13.8406 C348.953,13.4891 348.751,13.0464 348.751,12.5125 C348.751,11.6141 349.22,10.7742 350.157,9.99298 C351.069,9.21173 352.065,8.8211 353.146,8.8211"/>
<path class="Note" d="M322.251,6.3211 C322.876,6.3211 323.403,6.48386 323.833,6.80938 C324.237,7.16094 324.439,7.60365 324.439,8.13751 C324.439,9.03594 323.976,9.87579 323.052,10.657 C322.114,11.4383 321.112,11.8289 320.044,11.8289 C319.419,11.8289 318.892,11.6662 318.462,11.3406 C318.058,10.9891 317.856,10.5464 317.856,10.0125 C317.856,9.11407 318.325,8.27422 319.263,7.49297 C320.174,6.71172 321.17,6.3211 322.251,6.3211"/>
<path class="Note" d="M291.356,6.3211 C291.981,6.3211 292.509,6.48386 292.938,6.80938 C293.342,7.16094 293.544,7.60365 293.544,8.13751 C293.544,9.03594 293.082,9.87579 292.157,10.657 C291.22,11.4383 290.217,11.8289 289.149,11.8289 C288.524,11.8289 287.997,11.6662 287.567,11.3406 C287.164,10.9891 286.962,10.5464 286.962,10.0125 C286.962,9.11407 287.431,8.27422 288.368,7.49297 C289.28,6.71172 290.276,6.3211 291.356,6.3211"/>
<path class="Note" d="M234.687,5.26641 C234.687,5.04506 234.602,4.85625 234.433,4.7 C234.264,4.53073 234.069,4.4461 233.847,4.4461 C233.457,4.4461 232.669,4.83672 231.484,5.61797 C230.26,6.41224 229.511,6.97865 229.238,7.31719 C229.095,7.49948 229.023,7.68829 229.023,7.8836 C229.023,8.10495 229.108,8.29375 229.277,8.45 C229.433,8.61927 229.628,8.70391 229.863,8.70391 C230.24,8.70391 231.035,8.31329 232.246,7.53204 C233.444,6.75079 234.186,6.18438 234.472,5.83282 C234.615,5.66355 234.687,5.47474 234.687,5.26641 M233.652,3.8211 C234.772,3.8211 235.332,4.30287 235.332,5.26641 C235.332,5.73516 235.195,6.28204 234.921,6.90704 C234.648,7.51901 234.283,7.98776 233.828,8.31329 C232.825,8.99037 231.569,9.32891 230.058,9.32891 C228.938,9.32891 228.378,8.84714 228.378,7.8836 C228.378,7.45391 228.515,6.91355 228.789,6.2625 C229.049,5.6375 229.414,5.16224 229.882,4.83672 C230.885,4.15964 232.141,3.8211 233.652,3.8211"/>
<path class="Note" d="M200.702,1.3211 C201.327,1.3211 201.854,1.48386 202.284,1.80938 C202.687,2.16094 202.889,2.60365 202.889,3.1375 C202.889,4.03594 202.427,4.87578 201.502,5.65703 C200.565,6.43828 199.562,6.82891 198.495,6.82891 C197.87,6.82891 197.342,6.66615 196.912,6.34063 C196.509,5.98907 196.307,5.54636 196.307,5.0125 C196.307,4.11407 196.776,3.27422 197.713,2.49297 C198.625,1.71172 199.621,1.3211 200.702,1.3211"/>
<path class="Note" d="M168.45,1.3211 C169.075,1.3211 169.602,1.48386 170.032,1.80938 C170.435,2.16094 170.637,2.60365 170.637,3.1375 C170.637,4.03594 170.175,4.87578 169.25,5.65703 C168.313,6.43828 167.31,6.82891 166.243,6.82891 C165.618,6.82891 165.09,6.66615 164.661,6.34063 C164.257,5.98907 164.055,5.54636 164.055,5.0125 C164.055,4.11407 164.524,3.27422 165.461,2.49297 C166.373,1.71172 167.369,1.3211 168.45,1.3211"/>
<path class="Note" d="M131.805,3.8211 C132.43,3.8211 132.957,3.98386 133.387,4.30938 C133.791,4.66094 133.993,5.10365 133.993,5.6375 C133.993,6.53594 133.53,7.37579 132.606,8.15704 C131.668,8.93829 130.666,9.32891 129.598,9.32891 C128.973,9.32891 128.446,9.16615 128.016,8.84063 C127.612,8.48907 127.411,8.04636 127.411,7.5125 C127.411,6.61407 127.879,5.77422 128.817,4.99297 C129.728,4.21172 130.724,3.8211 131.805,3.8211"/>
<path class="Note" d="M101.96,3.8211 C102.585,3.8211 103.113,3.98386 103.542,4.30938 C103.946,4.66094 104.148,5.10365 104.148,5.6375 C104.148,6.53594 103.686,7.37579 102.761,8.15704 C101.824,8.93829 100.821,9.32891 99.7534,9.32891 C99.1284,9.32891 98.601,9.16615 98.1713,8.84063 C97.7677,8.48907 97.5659,8.04636 97.5659,7.5125 C97.5659,6.61407 98.0346,5.77422 98.9721,4.99297 C99.8836,4.21172 100.88,3.8211 101.96,3.8211"/>
<path class="Note" d="M72.1158,13.8211 C72.7408,13.8211 73.2681,13.9839 73.6978,14.3094 C74.1014,14.6609 74.3033,15.1037 74.3033,15.6375 C74.3033,16.5359 73.841,17.3758 72.9165,18.157 C71.979,18.9383 70.9764,19.3289 69.9087,19.3289 C69.2837,19.3289 68.7564,19.1662 68.3267,18.8406 C67.923,18.4891 67.7212,18.0464 67.7212,17.5125 C67.7212,16.6141 68.19,15.7742 69.1275,14.993 C70.0389,14.2117 71.035,13.8211 72.1158,13.8211"/>
<path class="Note" d="M42.2711,13.8211 C42.8961,13.8211 43.4235,13.9839 43.8531,14.3094 C44.2568,14.6609 44.4586,15.1037 44.4586,15.6375 C44.4586,16.5359 43.9964,17.3758 43.0719,18.157 C42.1344,18.9383 41.1318,19.3289 40.0641,19.3289 C39.4391,19.3289 38.9117,19.1662 38.4821,18.8406 C38.0784,18.4891 37.8766,18.0464 37.8766,17.5125 C37.8766,16.6141 38.3453,15.7742 39.2828,14.993 C40.1943,14.2117 41.1904,13.8211 42.2711,13.8211"/>
<path class="Clef" d="M14.6258,7.29766 C14.4305,7.10235 14.3328,6.86146 14.3328,6.57501 C14.3328,6.28855 14.4305,6.04766 14.6258,5.85235 C14.8211,5.65704 15.062,5.55938 15.3484,5.55938 C15.6349,5.55938 15.8758,5.65704 16.0711,5.85235 C16.2664,6.04766 16.3641,6.28855 16.3641,6.57501 C16.3641,6.86146 16.2664,7.10235 16.0711,7.29766 C15.8758,7.49297 15.6349,7.59063 15.3484,7.59063 C15.062,7.59063 14.8211,7.49297 14.6258,7.29766 M14.6258,12.2977 C14.4305,12.1023 14.3328,11.8615 14.3328,11.575 C14.3328,11.2885 14.4305,11.0477 14.6258,10.8523 C14.8211,10.657 15.062,10.5594 15.3484,10.5594 C15.6349,10.5594 15.8758,10.657 16.0711,10.8523 C16.2664,11.0477 16.3641,11.2885 16.3641,11.575 C16.3641,11.8615 16.2664,12.1023 16.0711,12.2977 C15.8758,12.493 15.6349,12.5906 15.3484,12.5906 C15.062,12.5906 14.8211,12.493 14.6258,12.2977 M7.84844,3.8211 C9.58021,3.8211 10.9995,4.2573 12.1063,5.12969 C13.174,6.04115 13.7078,7.27813 13.7078,8.84063 C13.7078,9.89532 13.4995,10.8589 13.0828,11.7313 C12.6922,12.6427 12.1779,13.45 11.5398,14.1531 C10.8888,14.8693 10.101,15.5464 9.17656,16.1844 C8.27813,16.8094 7.35365,17.3693 6.40313,17.8641 C4.47604,18.8406 3.40834,19.3289 3.2,19.3289 C3.03073,19.3289 2.9461,19.2443 2.9461,19.075 C2.9461,19.0099 2.97214,18.9513 3.02422,18.8992 C3.68828,18.5086 4.50209,18.0073 5.46563,17.3953 C6.09063,16.9917 6.81979,16.4318 7.65313,15.7156 C8.46042,15.0385 9.08542,14.4005 9.52813,13.8016 C9.98386,13.2156 10.4005,12.4865 10.7781,11.6141 C11.1036,10.7417 11.2664,9.8823 11.2664,9.03594 C11.2664,7.77292 10.9539,6.67266 10.3289,5.73516 C9.70391,4.79766 8.87709,4.32891 7.84844,4.32891 C7.11927,4.32891 6.49427,4.56329 5.97344,5.03204 C5.41354,5.51381 5.0099,6.11928 4.7625,6.84844 C5.0099,6.74428 5.23776,6.69219 5.4461,6.69219 C5.99297,6.69219 6.46172,6.88751 6.85235,7.27813 C7.24297,7.6948 7.43828,8.17006 7.43828,8.70391 C7.43828,9.26381 7.24948,9.76511 6.87188,10.2078 C6.46823,10.6115 5.99297,10.8133 5.4461,10.8133 C4.86016,10.8133 4.33281,10.6115 3.86406,10.2078 C3.42136,9.76511 3.2,9.26381 3.2,8.70391 C3.2,7.36277 3.65573,6.21693 4.56719,5.26641 C5.46563,4.30287 6.55938,3.8211 7.84844,3.8211"/>
<path class="TimeSig" d="M25.6188,4.32891 C26.0094,4.32891 26.3414,4.28334 26.6149,4.19219 C26.8883,4.10105 27.0641,4.05547 27.1422,4.05547 C27.2333,4.05547 27.305,4.08152 27.357,4.1336 C27.3961,4.17266 27.4221,4.21823 27.4352,4.27032 C27.4352,4.29636 27.4221,4.33542 27.3961,4.38751 L21.7125,10.9891 L25.0524,10.9891 L25.0524,8.37188 C25.0524,8.20261 25.0979,8.05938 25.1891,7.94219 C25.3453,7.81198 25.4755,7.73386 25.5797,7.70782 C25.749,7.62969 25.9573,7.4474 26.2047,7.16094 C26.413,6.92657 26.6604,6.51641 26.9469,5.93047 C26.986,5.85235 27.0445,5.81329 27.1227,5.81329 C27.2789,5.81329 27.3701,5.90443 27.3961,6.08672 L27.3961,10.9891 L28.8219,10.9891 C29.0042,10.9891 29.1083,11.0867 29.1344,11.282 C29.1344,11.4773 29.0302,11.575 28.8219,11.575 L27.3961,11.575 L27.3961,11.7313 C27.3961,12.2521 27.5263,12.6948 27.7867,13.0594 C28.0862,13.424 28.4378,13.6063 28.8414,13.6063 C28.9977,13.6063 29.0758,13.6844 29.0758,13.8406 C29.0758,13.9969 28.9977,14.075 28.8414,14.075 C28.568,14.075 28.1253,14.0359 27.5133,13.9578 C26.9534,13.8667 26.5172,13.8211 26.2047,13.8211 C25.8792,13.8211 25.443,13.8667 24.8961,13.9578 C24.3102,14.0359 23.874,14.075 23.5875,14.075 C23.4313,14.075 23.3531,13.9969 23.3531,13.8406 C23.3531,13.6844 23.4313,13.6063 23.5875,13.6063 C23.9912,13.6063 24.3427,13.424 24.6422,13.0594 C24.9156,12.6948 25.0524,12.2521 25.0524,11.7313 L25.0524,11.575 L21.7125,11.575 C21.4912,11.575 21.3349,11.5229 21.2438,11.4188 C21.1396,11.3406 21.0875,11.2365 21.0875,11.1063 C21.0875,11.0672 21.1852,10.9305 21.3805,10.6961 C21.6018,10.4357 21.8362,10.1167 22.0836,9.73907 C22.3701,9.29636 22.6435,8.84063 22.9039,8.37188 C23.1904,7.83803 23.4182,7.22605 23.5875,6.53594 C23.7828,5.83282 23.8805,5.11667 23.8805,4.38751 C23.8805,4.17917 23.9716,4.07501 24.1539,4.07501 C24.193,4.07501 24.2776,4.09454 24.4078,4.1336 C24.4469,4.14662 24.5283,4.16615 24.652,4.19219 C24.7757,4.21823 24.8766,4.24428 24.9547,4.27032 C25.1891,4.30938 25.4104,4.32891 25.6188,4.32891"/>
<path class="TimeSig" d="M25.6188,14.3289 C26.0094,14.3289 26.3414,14.2833 26.6149,14.1922 C26.8883,14.1011 27.0641,14.0555 27.1422,14.0555 C27.2333,14.0555 27.305,14.0815 27.357,14.1336 C27.3961,14.1727 27.4221,14.2182 27.4352,14.2703 C27.4352,14.2964 27.4221,14.3354 27.3961,14.3875 L21.7125,20.9891 L25.0524,20.9891 L25.0524,18.3719 C25.0524,18.2026 25.0979,18.0594 25.1891,17.9422 C25.3453,17.812 25.4755,17.7339 25.5797,17.7078 C25.749,17.6297 25.9573,17.4474 26.2047,17.1609 C26.413,16.9266 26.6604,16.5164 26.9469,15.9305 C26.986,15.8524 27.0445,15.8133 27.1227,15.8133 C27.2789,15.8133 27.3701,15.9044 27.3961,16.0867 L27.3961,20.9891 L28.8219,20.9891 C29.0042,20.9891 29.1083,21.0867 29.1344,21.282 C29.1344,21.4774 29.0302,21.575 28.8219,21.575 L27.3961,21.575 L27.3961,21.7313 C27.3961,22.2521 27.5263,22.6948 27.7867,23.0594 C28.0862,23.424 28.4378,23.6063 28.8414,23.6063 C28.9977,23.6063 29.0758,23.6844 29.0758,23.8406 C29.0758,23.9969 28.9977,24.075 28.8414,24.075 C28.568,24.075 28.1253,24.0359 27.5133,23.9578 C26.9534,23.8667 26.5172,23.8211 26.2047,23.8211 C25.8792,23.8211 25.443,23.8667 24.8961,23.9578 C24.3102,24.0359 23.874,24.075 23.5875,24.075 C23.4313,24.075 23.3531,23.9969 23.3531,23.8406 C23.3531,23.6844 23.4313,23.6063 23.5875,23.6063 C23.9912,23.6063 24.3427,23.424 24.6422,23.0594 C24.9156,22.6948 25.0524,22.2521 25.0524,21.7313 L25.0524,21.575 L21.7125,21.575 C21.4912,21.575 21.3349,21.5229 21.2438,21.4188 C21.1396,21.3406 21.0875,21.2365 21.0875,21.1063 C21.0875,21.0672 21.1852,20.9305 21.3805,20.6961 C21.6018,20.4357 21.8362,20.1167 22.0836,19.7391 C22.3701,19.2964 22.6435,18.8406 22.9039,18.3719 C23.1904,17.838 23.4182,17.2261 23.5875,16.5359 C23.7828,15.8328 23.8805,15.1167 23.8805,14.3875 C23.8805,14.1792 23.9716,14.075 24.1539,14.075 C24.193,14.075 24.2776,14.0945 24.4078,14.1336 C24.4469,14.1466 24.5283,14.1662 24.652,14.1922 C24.7757,14.2182 24.8766,14.2443 24.9547,14.2703 C25.1891,14.3094 25.4104,14.3289 25.6188,14.3289"/>
<path class="FiguredBass" d="M453.352,35.4344 C452.967,35.4344 452.71,35.5893 452.583,35.8992 C452.455,36.2091 452.391,36.6479 452.391,37.2156 L452.391,38.1375 C452.662,38.0281 452.897,37.9709 453.095,37.9656 C453.772,37.9656 454.304,38.1154 454.692,38.4149 C455.08,38.7143 455.274,39.1597 455.274,39.7508 C455.274,40.3419 455.078,40.7886 454.684,41.0906 C454.291,41.3927 453.761,41.5438 453.095,41.5438 C452.412,41.5438 451.878,41.2274 451.493,40.5946 C451.108,39.9617 450.915,39.2104 450.915,38.3406 C450.915,37.4761 451.139,36.7261 451.587,36.0906 C452.035,35.4552 452.623,35.1375 453.352,35.1375 C453.832,35.1375 454.246,35.2586 454.595,35.5008 C454.944,35.743 455.118,36.062 455.118,36.4578 C455.118,36.687 455.035,36.8849 454.868,37.0516 C454.701,37.2183 454.502,37.3016 454.27,37.3016 C454.039,37.3016 453.839,37.2183 453.673,37.0516 C453.506,36.8849 453.423,36.687 453.423,36.4578 C453.423,36.2339 453.506,36.036 453.673,35.8641 C453.73,35.7964 453.811,35.7391 453.915,35.6922 C453.889,35.6245 453.837,35.5724 453.759,35.536 C453.644,35.4683 453.509,35.4344 453.352,35.4344 M453.735,38.6297 C453.641,38.3849 453.436,38.2625 453.118,38.2625 C452.8,38.2625 452.604,38.3849 452.528,38.6297 C452.453,38.8745 452.415,39.2469 452.415,39.7469 C452.415,40.3354 452.453,40.7313 452.528,40.9344 C452.604,41.1375 452.8,41.2391 453.118,41.2391 C453.436,41.2391 453.641,41.1167 453.735,40.8719 C453.829,40.6271 453.876,40.2534 453.876,39.7508 C453.876,39.2482 453.829,38.8745 453.735,38.6297"/>
<path class="FiguredBass" d="M419.155,35.7156 C419.171,35.7156 419.205,35.6818 419.257,35.6141 C419.481,35.2964 419.793,35.1375 420.194,35.1375 C420.517,35.1375 420.822,35.2573 421.108,35.4969 C421.395,35.7365 421.632,35.8563 421.819,35.8563 C422.022,35.8563 422.215,35.7964 422.397,35.6766 C422.58,35.5568 422.724,35.437 422.831,35.3172 C422.938,35.1974 423.007,35.1375 423.038,35.1375 C423.09,35.1375 423.137,35.1544 423.179,35.1883 C423.22,35.2222 423.241,35.2651 423.241,35.3172 C423.241,35.3537 423.134,35.5334 422.921,35.8563 C422.707,36.1792 422.47,36.5529 422.21,36.9774 C421.95,37.4018 421.713,37.9318 421.499,38.5672 C421.285,39.2026 421.179,39.8094 421.179,40.3875 C421.179,40.6115 421.202,40.8693 421.249,41.161 C421.285,41.3849 421.285,41.5125 421.249,41.5438 C421.223,41.5698 421.179,41.5828 421.116,41.5828 C421.09,41.5828 420.969,41.549 420.753,41.4813 C420.537,41.4136 420.33,41.3797 420.132,41.3797 C419.955,41.3797 419.75,41.4136 419.519,41.4813 C419.287,41.549 419.158,41.5828 419.132,41.5828 C419.075,41.5828 419.028,41.5594 418.991,41.5125 C418.955,41.4656 418.95,41.4162 418.976,41.3641 C419.283,40.6297 419.657,39.9149 420.097,39.2196 C420.537,38.5242 421.088,37.7235 421.749,36.8172 C421.499,36.9526 421.246,37.0203 420.991,37.0203 C420.72,37.0203 420.447,36.8992 420.171,36.6571 C419.895,36.4149 419.668,36.2938 419.491,36.2938 C419.361,36.2938 419.248,36.368 419.151,36.5164 C419.055,36.6649 419.007,36.8875 419.007,37.1844 L419.007,38.1453 C419.007,38.2755 418.947,38.3406 418.827,38.3406 C418.697,38.3406 418.632,38.2755 418.632,38.1453 L418.632,35.3328 C418.632,35.2026 418.697,35.1375 418.827,35.1375 C418.947,35.1375 419.007,35.2026 419.007,35.3328 L419.007,35.5125 C419.007,35.5542 419.017,35.5906 419.038,35.6219 C419.101,35.6844 419.14,35.7156 419.155,35.7156"/>
<path class="FiguredBass" d="M352.511,35.4344 C352.126,35.4344 351.869,35.5893 351.742,35.8992 C351.614,36.2091 351.55,36.6479 351.55,37.2156 L351.55,38.1375 C351.821,38.0281 352.056,37.9709 352.253,37.9656 C352.931,37.9656 353.463,38.1154 353.851,38.4149 C354.239,38.7143 354.433,39.1597 354.433,39.7508 C354.433,40.3419 354.237,40.7886 353.843,41.0906 C353.45,41.3927 352.92,41.5438 352.253,41.5438 C351.571,41.5438 351.037,41.2274 350.652,40.5946 C350.266,39.9617 350.074,39.2104 350.074,38.3406 C350.074,37.4761 350.298,36.7261 350.746,36.0906 C351.194,35.4552 351.782,35.1375 352.511,35.1375 C352.99,35.1375 353.405,35.2586 353.753,35.5008 C354.102,35.743 354.277,36.062 354.277,36.4578 C354.277,36.687 354.194,36.8849 354.027,37.0516 C353.86,37.2183 353.661,37.3016 353.429,37.3016 C353.197,37.3016 352.998,37.2183 352.832,37.0516 C352.665,36.8849 352.582,36.687 352.582,36.4578 C352.582,36.2339 352.665,36.036 352.832,35.8641 C352.889,35.7964 352.97,35.7391 353.074,35.6922 C353.048,35.6245 352.996,35.5724 352.918,35.536 C352.803,35.4683 352.668,35.4344 352.511,35.4344 M352.894,38.6297 C352.8,38.3849 352.595,38.2625 352.277,38.2625 C351.959,38.2625 351.763,38.3849 351.687,38.6297 C351.612,38.8745 351.574,39.2469 351.574,39.7469 C351.574,40.3354 351.612,40.7313 351.687,40.9344 C351.763,41.1375 351.959,41.2391 352.277,41.2391 C352.595,41.2391 352.8,41.1167 352.894,40.8719 C352.988,40.6271 353.035,40.2534 353.035,39.7508 C353.035,39.2482 352.988,38.8745 352.894,38.6297"/>
<path class="FiguredBass" d="M321.968,41.5438 C321.463,41.5438 321.096,41.4031 320.867,41.1219 C320.783,41.0177 320.677,40.9214 320.546,40.8328 C320.416,40.7443 320.273,40.7 320.117,40.7 C319.914,40.7 319.731,40.7638 319.57,40.8914 C319.408,41.019 319.328,41.1896 319.328,41.4031 C319.328,41.4969 319.281,41.5438 319.187,41.5438 C319.083,41.5438 319.031,41.4969 319.031,41.4031 C319.031,41.0854 319.105,40.7951 319.253,40.5321 C319.402,40.269 319.588,40.0477 319.812,39.868 C320.036,39.6883 320.278,39.4956 320.539,39.2899 C320.799,39.0841 321.04,38.8849 321.261,38.6922 C321.483,38.4995 321.667,38.256 321.816,37.9617 C321.964,37.6675 322.039,37.3459 322.039,36.9969 C322.039,36.5594 321.967,36.1896 321.824,35.8875 C321.68,35.5854 321.455,35.4344 321.148,35.4344 C320.971,35.4344 320.817,35.4774 320.687,35.5633 C320.557,35.6492 320.492,35.7625 320.492,35.9031 C320.492,36.0125 320.566,36.1558 320.714,36.3328 C320.863,36.5099 320.937,36.6584 320.937,36.7781 C320.937,37.0281 320.852,37.2378 320.683,37.4071 C320.514,37.5763 320.309,37.661 320.07,37.661 C319.82,37.661 319.61,37.5737 319.441,37.3992 C319.272,37.2248 319.187,37.0177 319.187,36.7781 C319.187,36.299 319.378,35.9058 319.761,35.5985 C320.144,35.2912 320.606,35.1375 321.148,35.1375 C321.789,35.1375 322.347,35.3107 322.824,35.6571 C323.3,36.0034 323.539,36.45 323.539,36.9969 C323.539,37.3667 323.472,37.687 323.339,37.9578 C323.206,38.2287 323.016,38.4474 322.769,38.6141 C322.522,38.7808 322.274,38.9227 322.027,39.0399 C321.779,39.1571 321.489,39.2834 321.156,39.4188 C320.822,39.5542 320.554,39.687 320.351,39.8172 C320.46,39.7912 320.572,39.7781 320.687,39.7781 C321.072,39.7781 321.473,39.9031 321.89,40.1531 C322.307,40.4031 322.635,40.5281 322.874,40.5281 C323.01,40.5281 323.121,40.5034 323.206,40.4539 C323.292,40.4044 323.348,40.3498 323.374,40.2899 C323.4,40.23 323.43,40.174 323.464,40.1219 C323.498,40.0698 323.536,40.0438 323.578,40.0438 C323.682,40.0438 323.734,40.0959 323.734,40.2 C323.734,40.424 323.572,40.7039 323.249,41.0399 C322.927,41.3758 322.499,41.5438 321.968,41.5438"/>
<path class="FiguredBass" d="M200.067,35.4344 C199.682,35.4344 199.425,35.5893 199.298,35.8992 C199.17,36.2091 199.106,36.6479 199.106,37.2156 L199.106,38.1375 C199.377,38.0281 199.611,37.9709 199.809,37.9656 C200.486,37.9656 201.019,38.1154 201.407,38.4149 C201.795,38.7143 201.989,39.1597 201.989,39.7508 C201.989,40.3419 201.792,40.7886 201.399,41.0906 C201.006,41.3927 200.476,41.5438 199.809,41.5438 C199.127,41.5438 198.593,41.2274 198.208,40.5946 C197.822,39.9617 197.63,39.2104 197.63,38.3406 C197.63,37.4761 197.854,36.7261 198.302,36.0906 C198.749,35.4552 199.338,35.1375 200.067,35.1375 C200.546,35.1375 200.96,35.2586 201.309,35.5008 C201.658,35.743 201.833,36.062 201.833,36.4578 C201.833,36.687 201.749,36.8849 201.583,37.0516 C201.416,37.2183 201.217,37.3016 200.985,37.3016 C200.753,37.3016 200.554,37.2183 200.387,37.0516 C200.221,36.8849 200.137,36.687 200.137,36.4578 C200.137,36.2339 200.221,36.036 200.387,35.8641 C200.445,35.7964 200.526,35.7391 200.63,35.6922 C200.604,35.6245 200.552,35.5724 200.473,35.536 C200.359,35.4683 200.223,35.4344 200.067,35.4344 M200.45,38.6297 C200.356,38.3849 200.151,38.2625 199.833,38.2625 C199.515,38.2625 199.318,38.3849 199.243,38.6297 C199.167,38.8745 199.13,39.2469 199.13,39.7469 C199.13,40.3354 199.167,40.7313 199.243,40.9344 C199.318,41.1375 199.515,41.2391 199.833,41.2391 C200.151,41.2391 200.356,41.1167 200.45,40.8719 C200.544,40.6271 200.591,40.2534 200.591,39.7508 C200.591,39.2482 200.544,38.8745 200.45,38.6297 M204.044,40.7313 L204.044,42.3641 C204.044,42.5255 203.962,42.6063 203.798,42.6063 C203.634,42.6063 203.552,42.5255 203.552,42.3641 L203.552,40.9422 L203.302,41.0438 C203.276,41.0542 203.242,41.0594 203.2,41.0594 C203.132,41.0594 203.072,41.0334 203.02,40.9813 C202.968,40.9292 202.942,40.8693 202.942,40.8016 L202.942,40.0047 C202.942,39.8901 202.997,39.8094 203.106,39.7625 L203.552,39.575 L203.552,37.9344 L203.302,38.036 C203.286,38.0412 203.265,38.0438 203.239,38.0438 C203.229,38.0438 203.216,38.0438 203.2,38.0438 C203.122,38.0334 203.059,38.0047 203.012,37.9578 C202.966,37.911 202.942,37.8563 202.942,37.7938 L202.942,36.9969 C202.942,36.8875 202.997,36.8094 203.106,36.7625 L203.552,36.575 L203.552,34.911 C203.552,34.7495 203.634,34.6688 203.798,34.6688 C203.962,34.6688 204.044,34.7495 204.044,34.911 L204.044,36.3719 L205.052,35.95 L205.052,34.3172 C205.052,34.1558 205.132,34.075 205.294,34.075 C205.455,34.075 205.536,34.1558 205.536,34.3172 L205.536,35.7547 L205.809,35.6375 C205.835,35.6271 205.864,35.6219 205.895,35.6219 C205.963,35.6219 206.024,35.6479 206.079,35.7 C206.134,35.7521 206.161,35.812 206.161,35.8797 L206.161,36.6766 C206.161,36.7912 206.104,36.8719 205.989,36.9188 L205.536,37.1063 L205.536,38.7547 L205.809,38.6453 C205.825,38.6401 205.843,38.6375 205.864,38.6375 C205.874,38.6375 205.885,38.6375 205.895,38.6375 C205.984,38.6531 206.05,38.6818 206.095,38.7235 C206.139,38.7651 206.161,38.8198 206.161,38.8875 L206.161,39.6844 C206.161,39.7938 206.104,39.8719 205.989,39.9188 L205.536,40.1063 L205.536,41.7703 C205.536,41.9318 205.455,42.0125 205.294,42.0125 C205.132,42.0125 205.052,41.9318 205.052,41.7703 L205.052,40.3094 L204.044,40.7313 M204.044,39.3719 L205.052,38.9578 L205.052,37.3094 L204.044,37.7313 L204.044,39.3719 "/>
<path class="FiguredBass" d="M165.87,35.7156 C165.886,35.7156 165.919,35.6818 165.972,35.6141 C166.196,35.2964 166.508,35.1375 166.909,35.1375 C167.232,35.1375 167.537,35.2573 167.823,35.4969 C168.11,35.7365 168.347,35.8563 168.534,35.8563 C168.737,35.8563 168.93,35.7964 169.112,35.6766 C169.294,35.5568 169.439,35.437 169.546,35.3172 C169.653,35.1974 169.722,35.1375 169.753,35.1375 C169.805,35.1375 169.852,35.1544 169.893,35.1883 C169.935,35.2222 169.956,35.2651 169.956,35.3172 C169.956,35.3537 169.849,35.5334 169.636,35.8563 C169.422,36.1792 169.185,36.5529 168.925,36.9774 C168.664,37.4018 168.427,37.9318 168.214,38.5672 C168,39.2026 167.893,39.8094 167.893,40.3875 C167.893,40.6115 167.917,40.8693 167.964,41.161 C168,41.3849 168,41.5125 167.964,41.5438 C167.938,41.5698 167.893,41.5828 167.831,41.5828 C167.805,41.5828 167.684,41.549 167.468,41.4813 C167.252,41.4136 167.044,41.3797 166.847,41.3797 C166.669,41.3797 166.465,41.4136 166.233,41.4813 C166.002,41.549 165.873,41.5828 165.847,41.5828 C165.789,41.5828 165.742,41.5594 165.706,41.5125 C165.669,41.4656 165.664,41.4162 165.69,41.3641 C165.998,40.6297 166.371,39.9149 166.811,39.2196 C167.252,38.5242 167.802,37.7235 168.464,36.8172 C168.214,36.9526 167.961,37.0203 167.706,37.0203 C167.435,37.0203 167.162,36.8992 166.886,36.6571 C166.61,36.4149 166.383,36.2938 166.206,36.2938 C166.076,36.2938 165.962,36.368 165.866,36.5164 C165.77,36.6649 165.722,36.8875 165.722,37.1844 L165.722,38.1453 C165.722,38.2755 165.662,38.3406 165.542,38.3406 C165.412,38.3406 165.347,38.2755 165.347,38.1453 L165.347,35.3328 C165.347,35.2026 165.412,35.1375 165.542,35.1375 C165.662,35.1375 165.722,35.2026 165.722,35.3328 L165.722,35.5125 C165.722,35.5542 165.732,35.5906 165.753,35.6219 C165.815,35.6844 165.854,35.7156 165.87,35.7156"/>
<path class="FiguredBass" d="M132.171,38.1453 C132.171,38.2287 132.218,38.3094 132.311,38.3875 C132.405,38.4656 132.508,38.5399 132.62,38.6102 C132.732,38.6805 132.835,38.8133 132.928,39.0086 C133.022,39.2039 133.069,39.45 133.069,39.7469 C133.069,40.3198 132.853,40.7625 132.421,41.075 C131.988,41.3875 131.441,41.5438 130.78,41.5438 C130.249,41.5438 129.787,41.411 129.393,41.1453 C129,40.8797 128.803,40.5308 128.803,40.0985 C128.803,39.8693 128.887,39.6701 129.053,39.5008 C129.22,39.3315 129.419,39.2469 129.651,39.2469 C129.883,39.2469 130.08,39.3302 130.241,39.4969 C130.402,39.6636 130.483,39.8641 130.483,40.0985 C130.483,40.2026 130.397,40.3159 130.225,40.4383 C130.053,40.5607 129.968,40.674 129.968,40.7781 C129.968,40.9396 130.047,41.0581 130.206,41.1336 C130.365,41.2091 130.556,41.2469 130.78,41.2469 C131.072,41.2469 131.279,41.1024 131.401,40.8133 C131.524,40.5242 131.585,40.1688 131.585,39.7469 L131.585,39.5438 C131.585,39.2625 131.576,39.049 131.557,38.9031 C131.539,38.7573 131.482,38.6271 131.386,38.5125 C131.289,38.3979 131.142,38.3406 130.944,38.3406 L129.921,38.3406 C129.801,38.3406 129.741,38.2755 129.741,38.1453 C129.741,38.0255 129.801,37.9656 129.921,37.9656 L130.944,37.9656 C131.158,37.9656 131.324,37.8849 131.444,37.7235 C131.486,37.6662 131.52,37.5724 131.546,37.4422 C131.572,37.2703 131.585,37.0229 131.585,36.7 L131.585,36.5985 C131.585,35.8224 131.298,35.4344 130.725,35.4344 C130.22,35.4344 129.968,35.575 129.968,35.8563 C129.968,35.95 130.044,36.0503 130.198,36.1571 C130.352,36.2638 130.428,36.3641 130.428,36.4578 C130.428,36.661 130.357,36.8354 130.214,36.9813 C130.07,37.1271 129.896,37.2 129.69,37.2 C129.484,37.2 129.311,37.1271 129.171,36.9813 C129.03,36.8354 128.96,36.661 128.96,36.4578 C128.96,36.0568 129.134,35.7365 129.483,35.4969 C129.832,35.2573 130.246,35.1375 130.725,35.1375 C131.356,35.1375 131.874,35.2586 132.28,35.5008 C132.686,35.743 132.889,36.1089 132.889,36.5985 C132.889,36.9474 132.853,37.2183 132.78,37.411 C132.707,37.6037 132.624,37.7209 132.53,37.7625 C132.436,37.8042 132.353,37.8524 132.28,37.9071 C132.207,37.9617 132.171,38.0412 132.171,38.1453"/>
<path class="FiguredBass" d="M101.271,35.3016 C101.469,35.3016 101.678,35.2729 101.896,35.2156 L102.248,35.1219 C102.316,35.1219 102.369,35.1479 102.408,35.2 C102.447,35.2521 102.443,35.299 102.396,35.3406 L98.7635,39.5672 L100.896,39.5672 L100.896,37.8953 C100.896,37.7755 100.929,37.6831 100.994,37.618 C101.059,37.5529 101.142,37.5008 101.244,37.4617 C101.346,37.4227 101.478,37.3068 101.642,37.1141 C101.806,36.9214 101.964,36.661 102.115,36.3328 C102.141,36.2808 102.18,36.2547 102.232,36.2547 C102.342,36.2547 102.396,36.3146 102.396,36.4344 L102.396,39.5672 L103.318,39.5672 C103.448,39.5672 103.514,39.6271 103.514,39.7469 C103.514,39.8771 103.448,39.9422 103.318,39.9422 L102.396,39.9422 L102.396,40.0438 C102.396,40.3667 102.482,40.6479 102.654,40.8875 C102.826,41.1271 103.047,41.2469 103.318,41.2469 C103.422,41.2469 103.474,41.2938 103.474,41.3875 C103.474,41.4917 103.422,41.5438 103.318,41.5438 C103.131,41.5438 102.852,41.5164 102.482,41.4617 C102.112,41.4071 101.833,41.3797 101.642,41.3797 C101.452,41.3797 101.172,41.4071 100.803,41.4617 C100.433,41.5164 100.154,41.5438 99.9667,41.5438 C99.8625,41.5438 99.8104,41.4917 99.8104,41.3875 C99.8104,41.2938 99.8625,41.2469 99.9667,41.2469 C100.237,41.2469 100.46,41.1271 100.635,40.8875 C100.809,40.6479 100.896,40.3667 100.896,40.0438 L100.896,39.9422 L98.7635,39.9422 C98.6281,39.9422 98.5278,39.9097 98.4627,39.8446 C98.3976,39.7794 98.3651,39.713 98.3651,39.6453 C98.3651,39.6193 98.4263,39.5294 98.5487,39.3758 C98.6711,39.2222 98.8208,39.0177 98.9979,38.7625 C99.175,38.5073 99.3508,38.2169 99.5252,37.8914 C99.6997,37.5659 99.8482,37.1753 99.9706,36.7196 C100.093,36.2638 100.154,35.8042 100.154,35.3406 C100.154,35.2052 100.211,35.1375 100.326,35.1375 C100.342,35.1375 100.396,35.1505 100.49,35.1766 C100.584,35.2026 100.704,35.23 100.849,35.2586 C100.995,35.2873 101.136,35.3016 101.271,35.3016"/>
</svg>
