<?xml version="1.0" encoding="UTF-8" standalone="no"?>
<svg width="538.747px" height="151.7px" viewBox="0 0 538.747 151.7"
 xmlns="http://www.w3.org/2000/svg" xmlns:xlink="http://www.w3.org/1999/xlink" version="1.2" baseProfile="tiny">
<title>MixtuÌra</title>
<desc>Generated by MuseScore 2.3.2</desc>
<polyline class="StaffLines" fill="none" stroke="#000000" stroke-width="0.40" stroke-linejoin="bevel" points="0,27 538.747,27"/>
<polyline class="StaffLines" fill="none" stroke="#000000" stroke-width="0.40" stroke-linejoin="bevel" points="0,32 538.747,32"/>
<polyline class="StaffLines" fill="none" stroke="#000000" stroke-width="0.40" stroke-linejoin="bevel" points="0,37 538.747,37"/>
<polyline class="StaffLines" fill="none" stroke="#000000" stroke-width="0.40" stroke-linejoin="bevel" points="0,42 538.747,42"/>
<polyline class="StaffLines" fill="none" stroke="#000000" stroke-width="0.40" stroke-linejoin="bevel" points="0,47 538.747,47"/>
<polyline class="StaffLines" fill="none" stroke="#000000" stroke-width="0.40" stroke-linejoin="bevel" points="0,122 538.747,122"/>
<polyline class="StaffLines" fill="none" stroke="#000000" stroke-width="0.40" stroke-linejoin="bevel" points="0,127 538.747,127"/>
<polyline class="StaffLines" fill="none" stroke="#000000" stroke-width="0.40" stroke-linejoin="bevel" points="0,132 538.747,132"/>
<polyline class="StaffLines" fill="none" stroke="#000000" stroke-width="0.40" stroke-linejoin="bevel" points="0,137 538.747,137"/>
<polyline class="StaffLines" fill="none" stroke="#000000" stroke-width="0.40" stroke-linejoin="bevel" points="0,142 538.747,142"/>
<polyline class="BarLine" fill="none" stroke="#000000" stroke-width="0.80" stroke-linejoin="bevel" points="536.047,122 536.047,142"/>
<polyline class="BarLine" fill="none" stroke="#000000" stroke-width="0.80" stroke-linejoin="bevel" points="538.347,122 538.347,142"/>
<polyline class="BarLine" fill="none" stroke="#000000" stroke-width="0.80" stroke-linejoin="bevel" points="411.29,122 411.29,142"/>
<polyline class="BarLine" fill="none" stroke="#000000" stroke-width="0.80" stroke-linejoin="bevel" points="289.948,122 289.948,142"/>
<polyline class="BarLine" fill="none" stroke="#000000" stroke-width="0.80" stroke-linejoin="bevel" points="150.615,122 150.615,142"/>
<polyline class="BarLine" fill="none" stroke="#000000" stroke-width="0.80" stroke-linejoin="bevel" points="536.047,27 536.047,47"/>
<polyline class="BarLine" fill="none" stroke="#000000" stroke-width="0.80" stroke-linejoin="bevel" points="538.347,27 538.347,47"/>
<polyline class="BarLine" fill="none" stroke="#000000" stroke-width="0.80" stroke-linejoin="bevel" points="407.922,27 407.922,47"/>
<polyline class="BarLine" fill="none" stroke="#000000" stroke-width="0.80" stroke-linejoin="bevel" points="281.145,27 281.145,47"/>
<polyline class="BarLine" fill="none" stroke="#000000" stroke-width="0.80" stroke-linejoin="bevel" points="154.368,27 154.368,47"/>
<path class="Accidental" d="M293.866,141.18 L293.866,142.723 C293.866,143.27 293.892,143.706 293.944,144.031 C294.374,143.667 294.68,143.393 294.862,143.211 C295.07,143.003 295.279,142.716 295.487,142.352 C295.695,141.987 295.799,141.622 295.799,141.258 C295.799,140.893 295.721,140.581 295.565,140.32 C295.409,140.06 295.2,139.93 294.94,139.93 C294.627,139.93 294.367,140.047 294.159,140.281 C293.963,140.542 293.866,140.841 293.866,141.18 M293.045,144.754 L292.792,132.859 C292.974,132.755 293.156,132.703 293.338,132.703 C293.521,132.703 293.703,132.755 293.885,132.859 L293.729,139.754 C294.263,139.298 294.875,139.07 295.565,139.07 C296.073,139.07 296.496,139.279 296.835,139.695 C297.173,140.112 297.342,140.587 297.342,141.121 C297.342,141.46 297.232,141.818 297.01,142.195 C296.802,142.547 296.581,142.82 296.346,143.016 C296.216,143.12 295.884,143.38 295.35,143.797 C295.194,143.914 295.008,144.051 294.793,144.207 C294.579,144.363 294.445,144.461 294.393,144.5 C294.302,144.552 294.217,144.656 294.139,144.813 C294.048,144.943 293.944,145.053 293.827,145.145 C293.736,145.223 293.625,145.262 293.495,145.262 C293.364,145.262 293.26,145.216 293.182,145.125 C293.091,145.034 293.045,144.91 293.045,144.754"/>
<path class="Accidental" d="M252.214,127 C252.383,126.909 252.552,126.863 252.721,126.863 C252.891,126.863 253.06,126.909 253.229,127 L253.171,130.652 L255.3,130.262 L255.378,130.262 C255.612,130.262 255.729,130.372 255.729,130.594 L255.866,142 C255.697,142.091 255.527,142.137 255.358,142.137 C255.189,142.137 255.02,142.091 254.85,142 L254.909,138.348 L252.8,138.738 L252.721,138.738 C252.487,138.738 252.37,138.628 252.37,138.406 L252.214,127 M254.929,136.395 L254.987,132.254 L253.151,132.606 L253.093,136.746 L254.929,136.395 "/>
<path class="Accidental" d="M219.614,124.5 C219.783,124.409 219.953,124.363 220.122,124.363 C220.291,124.363 220.46,124.409 220.63,124.5 L220.571,128.152 L222.7,127.762 L222.778,127.762 C223.012,127.762 223.13,127.872 223.13,128.094 L223.266,139.5 C223.097,139.591 222.928,139.637 222.758,139.637 C222.589,139.637 222.42,139.591 222.251,139.5 L222.309,135.848 L220.2,136.238 L220.122,136.238 C219.887,136.238 219.77,136.128 219.77,135.906 L219.614,124.5 M222.329,133.895 L222.387,129.754 L220.551,130.106 L220.493,134.246 L222.329,133.895 "/>
<path class="Accidental" d="M187.132,133.68 L187.132,135.223 C187.132,135.77 187.158,136.206 187.21,136.531 C187.64,136.167 187.946,135.893 188.128,135.711 C188.337,135.503 188.545,135.216 188.753,134.852 C188.962,134.487 189.066,134.122 189.066,133.758 C189.066,133.393 188.988,133.081 188.831,132.82 C188.675,132.56 188.467,132.43 188.206,132.43 C187.894,132.43 187.634,132.547 187.425,132.781 C187.23,133.042 187.132,133.341 187.132,133.68 M186.312,137.254 L186.058,125.359 C186.24,125.255 186.423,125.203 186.605,125.203 C186.787,125.203 186.969,125.255 187.152,125.359 L186.995,132.254 C187.529,131.798 188.141,131.57 188.831,131.57 C189.339,131.57 189.762,131.779 190.101,132.195 C190.44,132.612 190.609,133.087 190.609,133.621 C190.609,133.96 190.498,134.318 190.277,134.695 C190.068,135.047 189.847,135.32 189.613,135.516 C189.482,135.62 189.15,135.88 188.617,136.297 C188.46,136.414 188.275,136.551 188.06,136.707 C187.845,136.863 187.712,136.961 187.66,137 C187.568,137.052 187.484,137.156 187.406,137.313 C187.315,137.443 187.21,137.553 187.093,137.645 C187.002,137.723 186.891,137.762 186.761,137.762 C186.631,137.762 186.527,137.716 186.449,137.625 C186.357,137.534 186.312,137.41 186.312,137.254"/>
<path class="Accidental" d="M154.532,131.18 L154.532,132.723 C154.532,133.27 154.559,133.706 154.611,134.031 C155.04,133.667 155.346,133.393 155.529,133.211 C155.737,133.003 155.945,132.716 156.154,132.352 C156.362,131.987 156.466,131.622 156.466,131.258 C156.466,130.893 156.388,130.581 156.232,130.32 C156.075,130.06 155.867,129.93 155.607,129.93 C155.294,129.93 155.034,130.047 154.825,130.281 C154.63,130.542 154.532,130.841 154.532,131.18 M153.712,134.754 L153.458,122.859 C153.641,122.755 153.823,122.703 154.005,122.703 C154.187,122.703 154.37,122.755 154.552,122.859 L154.396,129.754 C154.93,129.298 155.542,129.07 156.232,129.07 C156.74,129.07 157.163,129.279 157.501,129.695 C157.84,130.112 158.009,130.587 158.009,131.121 C158.009,131.46 157.898,131.818 157.677,132.195 C157.469,132.547 157.247,132.82 157.013,133.016 C156.883,133.12 156.551,133.38 156.017,133.797 C155.861,133.914 155.675,134.051 155.46,134.207 C155.245,134.363 155.112,134.461 155.06,134.5 C154.969,134.552 154.884,134.656 154.806,134.813 C154.715,134.943 154.611,135.053 154.493,135.145 C154.402,135.223 154.292,135.262 154.161,135.262 C154.031,135.262 153.927,135.216 153.849,135.125 C153.758,135.034 153.712,134.91 153.712,134.754"/>
<path class="Accidental" d="M114.179,131.18 L114.179,132.723 C114.179,133.27 114.205,133.706 114.257,134.031 C114.687,133.667 114.993,133.393 115.175,133.211 C115.383,133.003 115.592,132.716 115.8,132.352 C116.008,131.987 116.112,131.622 116.112,131.258 C116.112,130.893 116.034,130.581 115.878,130.32 C115.722,130.06 115.513,129.93 115.253,129.93 C114.941,129.93 114.68,130.047 114.472,130.281 C114.277,130.542 114.179,130.841 114.179,131.18 M113.359,134.754 L113.105,122.859 C113.287,122.755 113.469,122.703 113.652,122.703 C113.834,122.703 114.016,122.755 114.198,122.859 L114.042,129.754 C114.576,129.298 115.188,129.07 115.878,129.07 C116.386,129.07 116.809,129.279 117.148,129.695 C117.486,130.112 117.655,130.587 117.655,131.121 C117.655,131.46 117.545,131.818 117.323,132.195 C117.115,132.547 116.894,132.82 116.659,133.016 C116.529,133.12 116.197,133.38 115.663,133.797 C115.507,133.914 115.321,134.051 115.107,134.207 C114.892,134.363 114.758,134.461 114.706,134.5 C114.615,134.552 114.53,134.656 114.452,134.813 C114.361,134.943 114.257,135.053 114.14,135.145 C114.049,135.223 113.938,135.262 113.808,135.262 C113.678,135.262 113.573,135.216 113.495,135.125 C113.404,135.034 113.359,134.91 113.359,134.754"/>
<path class="Accidental" d="M82.7596,133.68 L82.7596,135.223 C82.7596,135.77 82.7856,136.206 82.8377,136.531 C83.2674,136.167 83.5734,135.893 83.7557,135.711 C83.964,135.503 84.1724,135.216 84.3807,134.852 C84.589,134.487 84.6932,134.122 84.6932,133.758 C84.6932,133.393 84.6151,133.081 84.4588,132.82 C84.3026,132.56 84.0942,132.43 83.8338,132.43 C83.5213,132.43 83.2609,132.547 83.0526,132.781 C82.8573,133.042 82.7596,133.341 82.7596,133.68 M81.9393,137.254 L81.6854,125.359 C81.8677,125.255 82.05,125.203 82.2323,125.203 C82.4146,125.203 82.5968,125.255 82.7791,125.359 L82.6229,132.254 C83.1567,131.798 83.7687,131.57 84.4588,131.57 C84.9666,131.57 85.3898,131.779 85.7284,132.195 C86.0669,132.612 86.2362,133.087 86.2362,133.621 C86.2362,133.96 86.1255,134.318 85.9041,134.695 C85.6958,135.047 85.4745,135.32 85.2401,135.516 C85.1099,135.62 84.7778,135.88 84.244,136.297 C84.0877,136.414 83.9022,136.551 83.6873,136.707 C83.4725,136.863 83.339,136.961 83.287,137 C83.1958,137.052 83.1112,137.156 83.033,137.313 C82.9419,137.443 82.8377,137.553 82.7205,137.645 C82.6294,137.723 82.5187,137.762 82.3885,137.762 C82.2583,137.762 82.1541,137.716 82.076,137.625 C81.9849,137.534 81.9393,137.41 81.9393,137.254"/>
<polyline class="Stem" fill="none" stroke="#000000" stroke-width="0.65" stroke-linecap="round" stroke-linejoin="bevel" points="491.706,138.732 491.706,112.625"/>
<polyline class="Stem" fill="none" stroke="#000000" stroke-width="0.65" stroke-linecap="round" stroke-linejoin="bevel" points="468.625,138.561 468.625,112.625"/>
<polyline class="Stem" fill="none" stroke="#000000" stroke-width="0.65" stroke-linecap="round" stroke-linejoin="bevel" points="418.015,125.439 418.015,151.375"/>
<polyline class="Stem" fill="none" stroke="#000000" stroke-width="0.65" stroke-linecap="round" stroke-linejoin="bevel" points="383.113,125.439 383.113,151.375"/>
<polyline class="Stem" fill="none" stroke="#000000" stroke-width="0.65" stroke-linecap="round" stroke-linejoin="bevel" points="360.944,138.561 360.944,112.625"/>
<polyline class="Stem" fill="none" stroke="#000000" stroke-width="0.65" stroke-linecap="round" stroke-linejoin="bevel" points="332.842,141.061 332.842,114.5"/>
<polyline class="Stem" fill="none" stroke="#000000" stroke-width="0.65" stroke-linecap="round" stroke-linejoin="bevel" points="304.74,141.061 304.74,114.5"/>
<polyline class="Stem" fill="none" stroke="#000000" stroke-width="0.65" stroke-linecap="round" stroke-linejoin="bevel" points="263.206,138.561 263.206,112.625"/>
<polyline class="Stem" fill="none" stroke="#000000" stroke-width="0.65" stroke-linecap="round" stroke-linejoin="bevel" points="224.673,125.439 224.673,151.375"/>
<polyline class="Stem" fill="none" stroke="#000000" stroke-width="0.65" stroke-linecap="round" stroke-linejoin="bevel" points="192.074,122.939 192.074,149.5"/>
<polyline class="Stem" fill="none" stroke="#000000" stroke-width="0.65" stroke-linecap="round" stroke-linejoin="bevel" points="159.474,120.439 159.474,147.625"/>
<polyline class="Stem" fill="none" stroke="#000000" stroke-width="0.65" stroke-linecap="round" stroke-linejoin="bevel" points="119.12,120.439 119.12,147.625"/>
<polyline class="Stem" fill="none" stroke="#000000" stroke-width="0.65" stroke-linecap="round" stroke-linejoin="bevel" points="87.701,122.939 87.701,149.5"/>
<polyline class="Stem" fill="none" stroke="#000000" stroke-width="0.65" stroke-linecap="round" stroke-linejoin="bevel" points="56.2818,125.439 56.2818,151.375"/>
<polyline class="Stem" fill="none" stroke="#000000" stroke-width="0.65" stroke-linecap="round" stroke-linejoin="bevel" points="24.8625,125.439 24.8625,151.375"/>
<polyline class="Stem" fill="none" stroke="#000000" stroke-width="0.65" stroke-linecap="round" stroke-linejoin="bevel" points="490.267,43.732 490.267,17.625"/>
<polyline class="Stem" fill="none" stroke="#000000" stroke-width="0.65" stroke-linecap="round" stroke-linejoin="bevel" points="466.533,43.561 466.533,17.625"/>
<polyline class="Stem" fill="none" stroke="#000000" stroke-width="0.65" stroke-linecap="round" stroke-linejoin="bevel" points="414.647,30.4391 414.647,56.375"/>
<polyline class="Stem" fill="none" stroke="#000000" stroke-width="0.65" stroke-linecap="round" stroke-linejoin="bevel" points="377.852,30.4391 377.852,56.375"/>
<polyline class="Stem" fill="none" stroke="#000000" stroke-width="0.65" stroke-linecap="round" stroke-linejoin="bevel" points="353.791,43.561 353.791,17.625"/>
<polyline class="Stem" fill="none" stroke="#000000" stroke-width="0.65" stroke-linecap="round" stroke-linejoin="bevel" points="323.797,46.061 323.797,19.5"/>
<polyline class="Stem" fill="none" stroke="#000000" stroke-width="0.65" stroke-linecap="round" stroke-linejoin="bevel" points="293.802,46.061 293.802,19.5"/>
<polyline class="Stem" fill="none" stroke="#000000" stroke-width="0.65" stroke-linecap="round" stroke-linejoin="bevel" points="257.008,43.561 257.008,17.625"/>
<polyline class="Stem" fill="none" stroke="#000000" stroke-width="0.65" stroke-linecap="round" stroke-linejoin="bevel" points="221.081,30.4391 221.081,56.375"/>
<polyline class="Stem" fill="none" stroke="#000000" stroke-width="0.65" stroke-linecap="round" stroke-linejoin="bevel" points="191.087,27.9391 191.087,54.5"/>
<polyline class="Stem" fill="none" stroke="#000000" stroke-width="0.65" stroke-linecap="round" stroke-linejoin="bevel" points="161.093,25.4391 161.093,52.625"/>
<polyline class="Stem" fill="none" stroke="#000000" stroke-width="0.65" stroke-linecap="round" stroke-linejoin="bevel" points="125.348,25.4391 125.348,52.625"/>
<polyline class="Stem" fill="none" stroke="#000000" stroke-width="0.65" stroke-linecap="round" stroke-linejoin="bevel" points="96.4041,27.9391 96.4041,54.5"/>
<polyline class="Stem" fill="none" stroke="#000000" stroke-width="0.65" stroke-linecap="round" stroke-linejoin="bevel" points="67.4599,30.4391 67.4599,56.375"/>
<polyline class="Stem" fill="none" stroke="#000000" stroke-width="0.65" stroke-linecap="round" stroke-linejoin="bevel" points="38.5156,30.4391 38.5156,56.375"/>
<path class="Note" d="M491.396,125.691 C491.396,125.47 491.311,125.281 491.142,125.125 C490.972,124.956 490.777,124.871 490.556,124.871 C490.165,124.871 489.377,125.262 488.192,126.043 C486.968,126.837 486.22,127.404 485.946,127.742 C485.803,127.925 485.731,128.113 485.731,128.309 C485.731,128.53 485.816,128.719 485.985,128.875 C486.142,129.044 486.337,129.129 486.571,129.129 C486.949,129.129 487.743,128.738 488.954,127.957 C490.152,127.176 490.894,126.609 491.181,126.258 C491.324,126.089 491.396,125.9 491.396,125.691 M490.36,124.246 C491.48,124.246 492.04,124.728 492.04,125.691 C492.04,126.16 491.903,126.707 491.63,127.332 C491.356,127.944 490.992,128.413 490.536,128.738 C489.534,129.415 488.277,129.754 486.767,129.754 C485.647,129.754 485.087,129.272 485.087,128.309 C485.087,127.879 485.224,127.339 485.497,126.688 C485.758,126.063 486.122,125.587 486.591,125.262 C487.593,124.585 488.85,124.246 490.36,124.246"/>
<path class="Note" d="M491.396,133.191 C491.396,132.97 491.311,132.781 491.142,132.625 C490.972,132.456 490.777,132.371 490.556,132.371 C490.165,132.371 489.377,132.762 488.192,133.543 C486.968,134.337 486.22,134.904 485.946,135.242 C485.803,135.425 485.731,135.613 485.731,135.809 C485.731,136.03 485.816,136.219 485.985,136.375 C486.142,136.544 486.337,136.629 486.571,136.629 C486.949,136.629 487.743,136.238 488.954,135.457 C490.152,134.676 490.894,134.109 491.181,133.758 C491.324,133.589 491.396,133.4 491.396,133.191 M490.36,131.746 C491.48,131.746 492.04,132.228 492.04,133.191 C492.04,133.66 491.903,134.207 491.63,134.832 C491.356,135.444 490.992,135.913 490.536,136.238 C489.534,136.915 488.277,137.254 486.767,137.254 C485.647,137.254 485.087,136.772 485.087,135.809 C485.087,135.379 485.224,134.839 485.497,134.188 C485.758,133.563 486.122,133.087 486.591,132.762 C487.593,132.085 488.85,131.746 490.36,131.746"/>
<path class="Note" d="M491.396,138.191 C491.396,137.97 491.311,137.781 491.142,137.625 C490.972,137.456 490.777,137.371 490.556,137.371 C490.165,137.371 489.377,137.762 488.192,138.543 C486.968,139.337 486.22,139.904 485.946,140.242 C485.803,140.425 485.731,140.613 485.731,140.809 C485.731,141.03 485.816,141.219 485.985,141.375 C486.142,141.544 486.337,141.629 486.571,141.629 C486.949,141.629 487.743,141.238 488.954,140.457 C490.152,139.676 490.894,139.109 491.181,138.758 C491.324,138.589 491.396,138.4 491.396,138.191 M490.36,136.746 C491.48,136.746 492.04,137.228 492.04,138.191 C492.04,138.66 491.903,139.207 491.63,139.832 C491.356,140.444 490.992,140.913 490.536,141.238 C489.534,141.915 488.277,142.254 486.767,142.254 C485.647,142.254 485.087,141.772 485.087,140.809 C485.087,140.379 485.224,139.839 485.497,139.188 C485.758,138.563 486.122,138.087 486.591,137.762 C487.593,137.085 488.85,136.746 490.36,136.746"/>
<path class="Note" d="M466.762,124.246 C467.387,124.246 467.914,124.409 468.344,124.734 C468.748,125.086 468.95,125.529 468.95,126.063 C468.95,126.961 468.487,127.801 467.563,128.582 C466.625,129.363 465.623,129.754 464.555,129.754 C463.93,129.754 463.403,129.591 462.973,129.266 C462.569,128.914 462.368,128.471 462.368,127.938 C462.368,127.039 462.836,126.199 463.774,125.418 C464.685,124.637 465.681,124.246 466.762,124.246"/>
<path class="Note" d="M466.762,131.746 C467.387,131.746 467.914,131.909 468.344,132.234 C468.748,132.586 468.95,133.029 468.95,133.563 C468.95,134.461 468.487,135.301 467.563,136.082 C466.625,136.863 465.623,137.254 464.555,137.254 C463.93,137.254 463.403,137.091 462.973,136.766 C462.569,136.414 462.368,135.971 462.368,135.438 C462.368,134.539 462.836,133.699 463.774,132.918 C464.685,132.137 465.681,131.746 466.762,131.746"/>
<path class="Note" d="M466.762,136.746 C467.387,136.746 467.914,136.909 468.344,137.234 C468.748,137.586 468.95,138.029 468.95,138.563 C468.95,139.461 468.487,140.301 467.563,141.082 C466.625,141.863 465.623,142.254 464.555,142.254 C463.93,142.254 463.403,142.091 462.973,141.766 C462.569,141.414 462.368,140.971 462.368,140.438 C462.368,139.539 462.836,138.699 463.774,137.918 C464.685,137.137 465.681,136.746 466.762,136.746"/>
<path class="Note" d="M422.085,121.746 C422.71,121.746 423.237,121.909 423.667,122.234 C424.071,122.586 424.272,123.029 424.272,123.563 C424.272,124.461 423.81,125.301 422.886,126.082 C421.948,126.863 420.946,127.254 419.878,127.254 C419.253,127.254 418.726,127.091 418.296,126.766 C417.892,126.414 417.69,125.971 417.69,125.438 C417.69,124.539 418.159,123.699 419.097,122.918 C420.008,122.137 421.004,121.746 422.085,121.746"/>
<path class="Note" d="M422.085,129.246 C422.71,129.246 423.237,129.409 423.667,129.734 C424.071,130.086 424.272,130.529 424.272,131.063 C424.272,131.961 423.81,132.801 422.886,133.582 C421.948,134.363 420.946,134.754 419.878,134.754 C419.253,134.754 418.726,134.591 418.296,134.266 C417.892,133.914 417.69,133.471 417.69,132.938 C417.69,132.039 418.159,131.199 419.097,130.418 C420.008,129.637 421.004,129.246 422.085,129.246"/>
<path class="Note" d="M422.085,134.246 C422.71,134.246 423.237,134.409 423.667,134.734 C424.071,135.086 424.272,135.529 424.272,136.063 C424.272,136.961 423.81,137.801 422.886,138.582 C421.948,139.363 420.946,139.754 419.878,139.754 C419.253,139.754 418.726,139.591 418.296,139.266 C417.892,138.914 417.69,138.471 417.69,137.938 C417.69,137.039 418.159,136.199 419.097,135.418 C420.008,134.637 421.004,134.246 422.085,134.246"/>
<path class="Note" d="M387.183,121.746 C387.808,121.746 388.335,121.909 388.765,122.234 C389.169,122.586 389.37,123.029 389.37,123.563 C389.37,124.461 388.908,125.301 387.984,126.082 C387.046,126.863 386.044,127.254 384.976,127.254 C384.351,127.254 383.824,127.091 383.394,126.766 C382.99,126.414 382.788,125.971 382.788,125.438 C382.788,124.539 383.257,123.699 384.195,122.918 C385.106,122.137 386.102,121.746 387.183,121.746"/>
<path class="Note" d="M387.183,129.246 C387.808,129.246 388.335,129.409 388.765,129.734 C389.169,130.086 389.37,130.529 389.37,131.063 C389.37,131.961 388.908,132.801 387.984,133.582 C387.046,134.363 386.044,134.754 384.976,134.754 C384.351,134.754 383.824,134.591 383.394,134.266 C382.99,133.914 382.788,133.471 382.788,132.938 C382.788,132.039 383.257,131.199 384.195,130.418 C385.106,129.637 386.102,129.246 387.183,129.246"/>
<path class="Note" d="M387.183,134.246 C387.808,134.246 388.335,134.409 388.765,134.734 C389.169,135.086 389.37,135.529 389.37,136.063 C389.37,136.961 388.908,137.801 387.984,138.582 C387.046,139.363 386.044,139.754 384.976,139.754 C384.351,139.754 383.824,139.591 383.394,139.266 C382.99,138.914 382.788,138.471 382.788,137.938 C382.788,137.039 383.257,136.199 384.195,135.418 C385.106,134.637 386.102,134.246 387.183,134.246"/>
<path class="Note" d="M359.081,124.246 C359.706,124.246 360.233,124.409 360.663,124.734 C361.066,125.086 361.268,125.529 361.268,126.063 C361.268,126.961 360.806,127.801 359.882,128.582 C358.944,129.363 357.941,129.754 356.874,129.754 C356.249,129.754 355.721,129.591 355.292,129.266 C354.888,128.914 354.686,128.471 354.686,127.938 C354.686,127.039 355.155,126.199 356.093,125.418 C357.004,124.637 358,124.246 359.081,124.246"/>
<path class="Note" d="M359.081,131.746 C359.706,131.746 360.233,131.909 360.663,132.234 C361.066,132.586 361.268,133.029 361.268,133.563 C361.268,134.461 360.806,135.301 359.882,136.082 C358.944,136.863 357.941,137.254 356.874,137.254 C356.249,137.254 355.721,137.091 355.292,136.766 C354.888,136.414 354.686,135.971 354.686,135.438 C354.686,134.539 355.155,133.699 356.093,132.918 C357.004,132.137 358,131.746 359.081,131.746"/>
<path class="Note" d="M359.081,136.746 C359.706,136.746 360.233,136.909 360.663,137.234 C361.066,137.586 361.268,138.029 361.268,138.563 C361.268,139.461 360.806,140.301 359.882,141.082 C358.944,141.863 357.941,142.254 356.874,142.254 C356.249,142.254 355.721,142.091 355.292,141.766 C354.888,141.414 354.686,140.971 354.686,140.438 C354.686,139.539 355.155,138.699 356.093,137.918 C357.004,137.137 358,136.746 359.081,136.746"/>
<path class="Note" d="M330.979,126.746 C331.604,126.746 332.131,126.909 332.561,127.234 C332.964,127.586 333.166,128.029 333.166,128.563 C333.166,129.461 332.704,130.301 331.78,131.082 C330.842,131.863 329.839,132.254 328.772,132.254 C328.147,132.254 327.619,132.091 327.19,131.766 C326.786,131.414 326.584,130.971 326.584,130.438 C326.584,129.539 327.053,128.699 327.99,127.918 C328.902,127.137 329.898,126.746 330.979,126.746"/>
<path class="Note" d="M330.979,134.246 C331.604,134.246 332.131,134.409 332.561,134.734 C332.964,135.086 333.166,135.529 333.166,136.063 C333.166,136.961 332.704,137.801 331.78,138.582 C330.842,139.363 329.839,139.754 328.772,139.754 C328.147,139.754 327.619,139.591 327.19,139.266 C326.786,138.914 326.584,138.471 326.584,137.938 C326.584,137.039 327.053,136.199 327.99,135.418 C328.902,134.637 329.898,134.246 330.979,134.246"/>
<path class="Note" d="M330.979,139.246 C331.604,139.246 332.131,139.409 332.561,139.734 C332.964,140.086 333.166,140.529 333.166,141.063 C333.166,141.961 332.704,142.801 331.78,143.582 C330.842,144.363 329.839,144.754 328.772,144.754 C328.147,144.754 327.619,144.591 327.19,144.266 C326.786,143.914 326.584,143.471 326.584,142.938 C326.584,142.039 327.053,141.199 327.99,140.418 C328.902,139.637 329.898,139.246 330.979,139.246"/>
<path class="Note" d="M302.877,126.746 C303.502,126.746 304.029,126.909 304.459,127.234 C304.862,127.586 305.064,128.029 305.064,128.563 C305.064,129.461 304.602,130.301 303.677,131.082 C302.74,131.863 301.737,132.254 300.67,132.254 C300.045,132.254 299.517,132.091 299.088,131.766 C298.684,131.414 298.482,130.971 298.482,130.438 C298.482,129.539 298.951,128.699 299.888,127.918 C300.8,127.137 301.796,126.746 302.877,126.746"/>
<path class="Note" d="M302.877,134.246 C303.502,134.246 304.029,134.409 304.459,134.734 C304.862,135.086 305.064,135.529 305.064,136.063 C305.064,136.961 304.602,137.801 303.677,138.582 C302.74,139.363 301.737,139.754 300.67,139.754 C300.045,139.754 299.517,139.591 299.088,139.266 C298.684,138.914 298.482,138.471 298.482,137.938 C298.482,137.039 298.951,136.199 299.888,135.418 C300.8,134.637 301.796,134.246 302.877,134.246"/>
<path class="Note" d="M302.877,139.246 C303.502,139.246 304.029,139.409 304.459,139.734 C304.862,140.086 305.064,140.529 305.064,141.063 C305.064,141.961 304.602,142.801 303.677,143.582 C302.74,144.363 301.737,144.754 300.67,144.754 C300.045,144.754 299.517,144.591 299.088,144.266 C298.684,143.914 298.482,143.471 298.482,142.938 C298.482,142.039 298.951,141.199 299.888,140.418 C300.8,139.637 301.796,139.246 302.877,139.246"/>
<path class="Note" d="M261.343,124.246 C261.968,124.246 262.495,124.409 262.925,124.734 C263.328,125.086 263.53,125.529 263.53,126.063 C263.53,126.961 263.068,127.801 262.143,128.582 C261.206,129.363 260.203,129.754 259.136,129.754 C258.511,129.754 257.983,129.591 257.554,129.266 C257.15,128.914 256.948,128.471 256.948,127.938 C256.948,127.039 257.417,126.199 258.354,125.418 C259.266,124.637 260.262,124.246 261.343,124.246"/>
<path class="Note" d="M261.343,131.746 C261.968,131.746 262.495,131.909 262.925,132.234 C263.328,132.586 263.53,133.029 263.53,133.563 C263.53,134.461 263.068,135.301 262.143,136.082 C261.206,136.863 260.203,137.254 259.136,137.254 C258.511,137.254 257.983,137.091 257.554,136.766 C257.15,136.414 256.948,135.971 256.948,135.438 C256.948,134.539 257.417,133.699 258.354,132.918 C259.266,132.137 260.262,131.746 261.343,131.746"/>
<path class="Note" d="M261.343,136.746 C261.968,136.746 262.495,136.909 262.925,137.234 C263.328,137.586 263.53,138.029 263.53,138.563 C263.53,139.461 263.068,140.301 262.143,141.082 C261.206,141.863 260.203,142.254 259.136,142.254 C258.511,142.254 257.983,142.091 257.554,141.766 C257.15,141.414 256.948,140.971 256.948,140.438 C256.948,139.539 257.417,138.699 258.354,137.918 C259.266,137.137 260.262,136.746 261.343,136.746"/>
<path class="Note" d="M228.743,121.746 C229.368,121.746 229.895,121.909 230.325,122.234 C230.729,122.586 230.93,123.029 230.93,123.563 C230.93,124.461 230.468,125.301 229.544,126.082 C228.606,126.863 227.604,127.254 226.536,127.254 C225.911,127.254 225.383,127.091 224.954,126.766 C224.55,126.414 224.348,125.971 224.348,125.438 C224.348,124.539 224.817,123.699 225.755,122.918 C226.666,122.137 227.662,121.746 228.743,121.746"/>
<path class="Note" d="M228.743,129.246 C229.368,129.246 229.895,129.409 230.325,129.734 C230.729,130.086 230.93,130.529 230.93,131.063 C230.93,131.961 230.468,132.801 229.544,133.582 C228.606,134.363 227.604,134.754 226.536,134.754 C225.911,134.754 225.383,134.591 224.954,134.266 C224.55,133.914 224.348,133.471 224.348,132.938 C224.348,132.039 224.817,131.199 225.755,130.418 C226.666,129.637 227.662,129.246 228.743,129.246"/>
<path class="Note" d="M228.743,134.246 C229.368,134.246 229.895,134.409 230.325,134.734 C230.729,135.086 230.93,135.529 230.93,136.063 C230.93,136.961 230.468,137.801 229.544,138.582 C228.606,139.363 227.604,139.754 226.536,139.754 C225.911,139.754 225.383,139.591 224.954,139.266 C224.55,138.914 224.348,138.471 224.348,137.938 C224.348,137.039 224.817,136.199 225.755,135.418 C226.666,134.637 227.662,134.246 228.743,134.246"/>
<path class="Note" d="M196.143,119.246 C196.768,119.246 197.295,119.409 197.725,119.734 C198.129,120.086 198.331,120.529 198.331,121.063 C198.331,121.961 197.868,122.801 196.944,123.582 C196.006,124.363 195.004,124.754 193.936,124.754 C193.311,124.754 192.784,124.591 192.354,124.266 C191.95,123.914 191.749,123.471 191.749,122.938 C191.749,122.039 192.217,121.199 193.155,120.418 C194.066,119.637 195.062,119.246 196.143,119.246"/>
<path class="Note" d="M196.143,126.746 C196.768,126.746 197.295,126.909 197.725,127.234 C198.129,127.586 198.331,128.029 198.331,128.563 C198.331,129.461 197.868,130.301 196.944,131.082 C196.006,131.863 195.004,132.254 193.936,132.254 C193.311,132.254 192.784,132.091 192.354,131.766 C191.95,131.414 191.749,130.971 191.749,130.438 C191.749,129.539 192.217,128.699 193.155,127.918 C194.066,127.137 195.062,126.746 196.143,126.746"/>
<path class="Note" d="M196.143,131.746 C196.768,131.746 197.295,131.909 197.725,132.234 C198.129,132.586 198.331,133.029 198.331,133.563 C198.331,134.461 197.868,135.301 196.944,136.082 C196.006,136.863 195.004,137.254 193.936,137.254 C193.311,137.254 192.784,137.091 192.354,136.766 C191.95,136.414 191.749,135.971 191.749,135.438 C191.749,134.539 192.217,133.699 193.155,132.918 C194.066,132.137 195.062,131.746 196.143,131.746"/>
<path class="Note" d="M163.543,116.746 C164.168,116.746 164.696,116.909 165.125,117.234 C165.529,117.586 165.731,118.029 165.731,118.563 C165.731,119.461 165.269,120.301 164.344,121.082 C163.407,121.863 162.404,122.254 161.336,122.254 C160.711,122.254 160.184,122.091 159.754,121.766 C159.351,121.414 159.149,120.971 159.149,120.438 C159.149,119.539 159.618,118.699 160.555,117.918 C161.467,117.137 162.463,116.746 163.543,116.746"/>
<path class="Note" d="M163.543,124.246 C164.168,124.246 164.696,124.409 165.125,124.734 C165.529,125.086 165.731,125.529 165.731,126.063 C165.731,126.961 165.269,127.801 164.344,128.582 C163.407,129.363 162.404,129.754 161.336,129.754 C160.711,129.754 160.184,129.591 159.754,129.266 C159.351,128.914 159.149,128.471 159.149,127.938 C159.149,127.039 159.618,126.199 160.555,125.418 C161.467,124.637 162.463,124.246 163.543,124.246"/>
<path class="Note" d="M163.543,129.246 C164.168,129.246 164.696,129.409 165.125,129.734 C165.529,130.086 165.731,130.529 165.731,131.063 C165.731,131.961 165.269,132.801 164.344,133.582 C163.407,134.363 162.404,134.754 161.336,134.754 C160.711,134.754 160.184,134.591 159.754,134.266 C159.351,133.914 159.149,133.471 159.149,132.938 C159.149,132.039 159.618,131.199 160.555,130.418 C161.467,129.637 162.463,129.246 163.543,129.246"/>
<path class="Note" d="M123.19,116.746 C123.815,116.746 124.342,116.909 124.772,117.234 C125.175,117.586 125.377,118.029 125.377,118.563 C125.377,119.461 124.915,120.301 123.991,121.082 C123.053,121.863 122.05,122.254 120.983,122.254 C120.358,122.254 119.83,122.091 119.401,121.766 C118.997,121.414 118.795,120.971 118.795,120.438 C118.795,119.539 119.264,118.699 120.202,117.918 C121.113,117.137 122.109,116.746 123.19,116.746"/>
<path class="Note" d="M123.19,124.246 C123.815,124.246 124.342,124.409 124.772,124.734 C125.175,125.086 125.377,125.529 125.377,126.063 C125.377,126.961 124.915,127.801 123.991,128.582 C123.053,129.363 122.05,129.754 120.983,129.754 C120.358,129.754 119.83,129.591 119.401,129.266 C118.997,128.914 118.795,128.471 118.795,127.938 C118.795,127.039 119.264,126.199 120.202,125.418 C121.113,124.637 122.109,124.246 123.19,124.246"/>
<path class="Note" d="M123.19,129.246 C123.815,129.246 124.342,129.409 124.772,129.734 C125.175,130.086 125.377,130.529 125.377,131.063 C125.377,131.961 124.915,132.801 123.991,133.582 C123.053,134.363 122.05,134.754 120.983,134.754 C120.358,134.754 119.83,134.591 119.401,134.266 C118.997,133.914 118.795,133.471 118.795,132.938 C118.795,132.039 119.264,131.199 120.202,130.418 C121.113,129.637 122.109,129.246 123.19,129.246"/>
<path class="Note" d="M91.7705,119.246 C92.3955,119.246 92.9229,119.409 93.3526,119.734 C93.7562,120.086 93.958,120.529 93.958,121.063 C93.958,121.961 93.4958,122.801 92.5713,123.582 C91.6338,124.363 90.6312,124.754 89.5635,124.754 C88.9385,124.754 88.4112,124.591 87.9815,124.266 C87.5778,123.914 87.376,123.471 87.376,122.938 C87.376,122.039 87.8448,121.199 88.7823,120.418 C89.6937,119.637 90.6898,119.246 91.7705,119.246"/>
<path class="Note" d="M91.7705,126.746 C92.3955,126.746 92.9229,126.909 93.3526,127.234 C93.7562,127.586 93.958,128.029 93.958,128.563 C93.958,129.461 93.4958,130.301 92.5713,131.082 C91.6338,131.863 90.6312,132.254 89.5635,132.254 C88.9385,132.254 88.4112,132.091 87.9815,131.766 C87.5778,131.414 87.376,130.971 87.376,130.438 C87.376,129.539 87.8448,128.699 88.7823,127.918 C89.6937,127.137 90.6898,126.746 91.7705,126.746"/>
<path class="Note" d="M91.7705,131.746 C92.3955,131.746 92.9229,131.909 93.3526,132.234 C93.7562,132.586 93.958,133.029 93.958,133.563 C93.958,134.461 93.4958,135.301 92.5713,136.082 C91.6338,136.863 90.6312,137.254 89.5635,137.254 C88.9385,137.254 88.4112,137.091 87.9815,136.766 C87.5778,136.414 87.376,135.971 87.376,135.438 C87.376,134.539 87.8448,133.699 88.7823,132.918 C89.6937,132.137 90.6898,131.746 91.7705,131.746"/>
<path class="Note" d="M60.3513,121.746 C60.9763,121.746 61.5036,121.909 61.9333,122.234 C62.337,122.586 62.5388,123.029 62.5388,123.563 C62.5388,124.461 62.0766,125.301 61.1521,126.082 C60.2146,126.863 59.212,127.254 58.1443,127.254 C57.5193,127.254 56.9919,127.091 56.5622,126.766 C56.1586,126.414 55.9568,125.971 55.9568,125.438 C55.9568,124.539 56.4255,123.699 57.363,122.918 C58.2745,122.137 59.2706,121.746 60.3513,121.746"/>
<path class="Note" d="M60.3513,129.246 C60.9763,129.246 61.5036,129.409 61.9333,129.734 C62.337,130.086 62.5388,130.529 62.5388,131.063 C62.5388,131.961 62.0766,132.801 61.1521,133.582 C60.2146,134.363 59.212,134.754 58.1443,134.754 C57.5193,134.754 56.9919,134.591 56.5622,134.266 C56.1586,133.914 55.9568,133.471 55.9568,132.938 C55.9568,132.039 56.4255,131.199 57.363,130.418 C58.2745,129.637 59.2706,129.246 60.3513,129.246"/>
<path class="Note" d="M60.3513,134.246 C60.9763,134.246 61.5036,134.409 61.9333,134.734 C62.337,135.086 62.5388,135.529 62.5388,136.063 C62.5388,136.961 62.0766,137.801 61.1521,138.582 C60.2146,139.363 59.212,139.754 58.1443,139.754 C57.5193,139.754 56.9919,139.591 56.5622,139.266 C56.1586,138.914 55.9568,138.471 55.9568,137.938 C55.9568,137.039 56.4255,136.199 57.363,135.418 C58.2745,134.637 59.2706,134.246 60.3513,134.246"/>
<path class="Note" d="M28.932,121.746 C29.557,121.746 30.0844,121.909 30.5141,122.234 C30.9177,122.586 31.1195,123.029 31.1195,123.563 C31.1195,124.461 30.6573,125.301 29.7328,126.082 C28.7953,126.863 27.7927,127.254 26.725,127.254 C26.1,127.254 25.5727,127.091 25.143,126.766 C24.7393,126.414 24.5375,125.971 24.5375,125.438 C24.5375,124.539 25.0063,123.699 25.9438,122.918 C26.8552,122.137 27.8513,121.746 28.932,121.746"/>
<path class="Note" d="M28.932,129.246 C29.557,129.246 30.0844,129.409 30.5141,129.734 C30.9177,130.086 31.1195,130.529 31.1195,131.063 C31.1195,131.961 30.6573,132.801 29.7328,133.582 C28.7953,134.363 27.7927,134.754 26.725,134.754 C26.1,134.754 25.5727,134.591 25.143,134.266 C24.7393,133.914 24.5375,133.471 24.5375,132.938 C24.5375,132.039 25.0063,131.199 25.9438,130.418 C26.8552,129.637 27.8513,129.246 28.932,129.246"/>
<path class="Note" d="M28.932,134.246 C29.557,134.246 30.0844,134.409 30.5141,134.734 C30.9177,135.086 31.1195,135.529 31.1195,136.063 C31.1195,136.961 30.6573,137.801 29.7328,138.582 C28.7953,139.363 27.7927,139.754 26.725,139.754 C26.1,139.754 25.5727,139.591 25.143,139.266 C24.7393,138.914 24.5375,138.471 24.5375,137.938 C24.5375,137.039 25.0063,136.199 25.9438,135.418 C26.8552,134.637 27.8513,134.246 28.932,134.246"/>
<path class="Note" d="M489.957,30.6914 C489.957,30.4701 489.872,30.2813 489.703,30.125 C489.534,29.9557 489.338,29.8711 489.117,29.8711 C488.726,29.8711 487.938,30.2617 486.754,31.043 C485.53,31.8373 484.781,32.4037 484.507,32.7422 C484.364,32.9245 484.293,33.1133 484.293,33.3086 C484.293,33.53 484.377,33.7188 484.547,33.875 C484.703,34.0443 484.898,34.1289 485.132,34.1289 C485.51,34.1289 486.304,33.7383 487.515,32.9571 C488.713,32.1758 489.455,31.6094 489.742,31.2578 C489.885,31.0886 489.957,30.8998 489.957,30.6914 M488.922,29.2461 C490.041,29.2461 490.601,29.7279 490.601,30.6914 C490.601,31.1602 490.465,31.7071 490.191,32.3321 C489.918,32.944 489.553,33.4128 489.097,33.7383 C488.095,34.4154 486.838,34.7539 485.328,34.7539 C484.208,34.7539 483.648,34.2722 483.648,33.3086 C483.648,32.8789 483.785,32.3386 484.058,31.6875 C484.319,31.0625 484.683,30.5873 485.152,30.2617 C486.155,29.5847 487.411,29.2461 488.922,29.2461"/>
<path class="Note" d="M489.957,38.1914 C489.957,37.9701 489.872,37.7813 489.703,37.625 C489.534,37.4558 489.338,37.3711 489.117,37.3711 C488.726,37.3711 487.938,37.7617 486.754,38.543 C485.53,39.3373 484.781,39.9037 484.507,40.2422 C484.364,40.4245 484.293,40.6133 484.293,40.8086 C484.293,41.03 484.377,41.2188 484.547,41.375 C484.703,41.5443 484.898,41.6289 485.132,41.6289 C485.51,41.6289 486.304,41.2383 487.515,40.4571 C488.713,39.6758 489.455,39.1094 489.742,38.7578 C489.885,38.5886 489.957,38.3998 489.957,38.1914 M488.922,36.7461 C490.041,36.7461 490.601,37.2279 490.601,38.1914 C490.601,38.6602 490.465,39.2071 490.191,39.8321 C489.918,40.444 489.553,40.9128 489.097,41.2383 C488.095,41.9154 486.838,42.2539 485.328,42.2539 C484.208,42.2539 483.648,41.7722 483.648,40.8086 C483.648,40.3789 483.785,39.8386 484.058,39.1875 C484.319,38.5625 484.683,38.0873 485.152,37.7617 C486.155,37.0847 487.411,36.7461 488.922,36.7461"/>
<path class="Note" d="M489.957,43.1914 C489.957,42.9701 489.872,42.7813 489.703,42.625 C489.534,42.4558 489.338,42.3711 489.117,42.3711 C488.726,42.3711 487.938,42.7617 486.754,43.543 C485.53,44.3373 484.781,44.9037 484.507,45.2422 C484.364,45.4245 484.293,45.6133 484.293,45.8086 C484.293,46.03 484.377,46.2188 484.547,46.375 C484.703,46.5443 484.898,46.6289 485.132,46.6289 C485.51,46.6289 486.304,46.2383 487.515,45.4571 C488.713,44.6758 489.455,44.1094 489.742,43.7578 C489.885,43.5886 489.957,43.3998 489.957,43.1914 M488.922,41.7461 C490.041,41.7461 490.601,42.2279 490.601,43.1914 C490.601,43.6602 490.465,44.2071 490.191,44.8321 C489.918,45.444 489.553,45.9128 489.097,46.2383 C488.095,46.9154 486.838,47.2539 485.328,47.2539 C484.208,47.2539 483.648,46.7722 483.648,45.8086 C483.648,45.3789 483.785,44.8386 484.058,44.1875 C484.319,43.5625 484.683,43.0873 485.152,42.7617 C486.155,42.0847 487.411,41.7461 488.922,41.7461"/>
<path class="Note" d="M464.669,29.2461 C465.294,29.2461 465.822,29.4089 466.251,29.7344 C466.655,30.086 466.857,30.5287 466.857,31.0625 C466.857,31.961 466.395,32.8008 465.47,33.5821 C464.533,34.3633 463.53,34.7539 462.462,34.7539 C461.837,34.7539 461.31,34.5912 460.88,34.2656 C460.477,33.9141 460.275,33.4714 460.275,32.9375 C460.275,32.0391 460.743,31.1992 461.681,30.418 C462.592,29.6367 463.589,29.2461 464.669,29.2461"/>
<path class="Note" d="M464.669,36.7461 C465.294,36.7461 465.822,36.9089 466.251,37.2344 C466.655,37.586 466.857,38.0287 466.857,38.5625 C466.857,39.461 466.395,40.3008 465.47,41.0821 C464.533,41.8633 463.53,42.2539 462.462,42.2539 C461.837,42.2539 461.31,42.0912 460.88,41.7656 C460.477,41.4141 460.275,40.9714 460.275,40.4375 C460.275,39.5391 460.743,38.6992 461.681,37.918 C462.592,37.1367 463.589,36.7461 464.669,36.7461"/>
<path class="Note" d="M464.669,41.7461 C465.294,41.7461 465.822,41.9089 466.251,42.2344 C466.655,42.586 466.857,43.0287 466.857,43.5625 C466.857,44.461 466.395,45.3008 465.47,46.0821 C464.533,46.8633 463.53,47.2539 462.462,47.2539 C461.837,47.2539 461.31,47.0912 460.88,46.7657 C460.477,46.4141 460.275,45.9714 460.275,45.4375 C460.275,44.5391 460.743,43.6992 461.681,42.918 C462.592,42.1367 463.589,41.7461 464.669,41.7461"/>
<path class="Note" d="M418.716,26.7461 C419.341,26.7461 419.869,26.9089 420.298,27.2344 C420.702,27.586 420.904,28.0287 420.904,28.5625 C420.904,29.461 420.441,30.3008 419.517,31.082 C418.579,31.8633 417.577,32.2539 416.509,32.2539 C415.884,32.2539 415.357,32.0912 414.927,31.7656 C414.523,31.4141 414.322,30.9714 414.322,30.4375 C414.322,29.5391 414.79,28.6992 415.728,27.918 C416.639,27.1367 417.635,26.7461 418.716,26.7461"/>
<path class="Note" d="M418.716,34.2461 C419.341,34.2461 419.869,34.4089 420.298,34.7344 C420.702,35.086 420.904,35.5287 420.904,36.0625 C420.904,36.961 420.441,37.8008 419.517,38.5821 C418.579,39.3633 417.577,39.7539 416.509,39.7539 C415.884,39.7539 415.357,39.5912 414.927,39.2656 C414.523,38.9141 414.322,38.4714 414.322,37.9375 C414.322,37.0391 414.79,36.1992 415.728,35.418 C416.639,34.6367 417.635,34.2461 418.716,34.2461"/>
<path class="Note" d="M418.716,39.2461 C419.341,39.2461 419.869,39.4089 420.298,39.7344 C420.702,40.086 420.904,40.5287 420.904,41.0625 C420.904,41.961 420.441,42.8008 419.517,43.5821 C418.579,44.3633 417.577,44.7539 416.509,44.7539 C415.884,44.7539 415.357,44.5912 414.927,44.2657 C414.523,43.9141 414.322,43.4714 414.322,42.9375 C414.322,42.0391 414.79,41.1992 415.728,40.418 C416.639,39.6367 417.635,39.2461 418.716,39.2461"/>
<path class="Note" d="M381.922,26.7461 C382.547,26.7461 383.074,26.9089 383.504,27.2344 C383.908,27.586 384.109,28.0287 384.109,28.5625 C384.109,29.461 383.647,30.3008 382.723,31.082 C381.785,31.8633 380.783,32.2539 379.715,32.2539 C379.09,32.2539 378.563,32.0912 378.133,31.7656 C377.729,31.4141 377.527,30.9714 377.527,30.4375 C377.527,29.5391 377.996,28.6992 378.934,27.918 C379.845,27.1367 380.841,26.7461 381.922,26.7461"/>
<path class="Note" d="M381.922,34.2461 C382.547,34.2461 383.074,34.4089 383.504,34.7344 C383.908,35.086 384.109,35.5287 384.109,36.0625 C384.109,36.961 383.647,37.8008 382.723,38.5821 C381.785,39.3633 380.783,39.7539 379.715,39.7539 C379.09,39.7539 378.563,39.5912 378.133,39.2656 C377.729,38.9141 377.527,38.4714 377.527,37.9375 C377.527,37.0391 377.996,36.1992 378.934,35.418 C379.845,34.6367 380.841,34.2461 381.922,34.2461"/>
<path class="Note" d="M381.922,39.2461 C382.547,39.2461 383.074,39.4089 383.504,39.7344 C383.908,40.086 384.109,40.5287 384.109,41.0625 C384.109,41.961 383.647,42.8008 382.723,43.5821 C381.785,44.3633 380.783,44.7539 379.715,44.7539 C379.09,44.7539 378.563,44.5912 378.133,44.2657 C377.729,43.9141 377.527,43.4714 377.527,42.9375 C377.527,42.0391 377.996,41.1992 378.934,40.418 C379.845,39.6367 380.841,39.2461 381.922,39.2461"/>
<path class="Note" d="M351.928,29.2461 C352.553,29.2461 353.08,29.4089 353.51,29.7344 C353.913,30.086 354.115,30.5287 354.115,31.0625 C354.115,31.961 353.653,32.8008 352.728,33.5821 C351.791,34.3633 350.788,34.7539 349.721,34.7539 C349.096,34.7539 348.568,34.5912 348.139,34.2656 C347.735,33.9141 347.533,33.4714 347.533,32.9375 C347.533,32.0391 348.002,31.1992 348.939,30.418 C349.851,29.6367 350.847,29.2461 351.928,29.2461"/>
<path class="Note" d="M351.928,36.7461 C352.553,36.7461 353.08,36.9089 353.51,37.2344 C353.913,37.586 354.115,38.0287 354.115,38.5625 C354.115,39.461 353.653,40.3008 352.728,41.0821 C351.791,41.8633 350.788,42.2539 349.721,42.2539 C349.096,42.2539 348.568,42.0912 348.139,41.7656 C347.735,41.4141 347.533,40.9714 347.533,40.4375 C347.533,39.5391 348.002,38.6992 348.939,37.918 C349.851,37.1367 350.847,36.7461 351.928,36.7461"/>
<path class="Note" d="M351.928,41.7461 C352.553,41.7461 353.08,41.9089 353.51,42.2344 C353.913,42.586 354.115,43.0287 354.115,43.5625 C354.115,44.461 353.653,45.3008 352.728,46.0821 C351.791,46.8633 350.788,47.2539 349.721,47.2539 C349.096,47.2539 348.568,47.0912 348.139,46.7657 C347.735,46.4141 347.533,45.9714 347.533,45.4375 C347.533,44.5391 348.002,43.6992 348.939,42.918 C349.851,42.1367 350.847,41.7461 351.928,41.7461"/>
<path class="Note" d="M321.933,31.7461 C322.558,31.7461 323.086,31.9089 323.515,32.2344 C323.919,32.586 324.121,33.0287 324.121,33.5625 C324.121,34.461 323.659,35.3008 322.734,36.0821 C321.797,36.8633 320.794,37.2539 319.726,37.2539 C319.101,37.2539 318.574,37.0912 318.144,36.7656 C317.741,36.4141 317.539,35.9714 317.539,35.4375 C317.539,34.5391 318.008,33.6992 318.945,32.918 C319.857,32.1367 320.853,31.7461 321.933,31.7461"/>
<path class="Note" d="M321.933,39.2461 C322.558,39.2461 323.086,39.4089 323.515,39.7344 C323.919,40.086 324.121,40.5287 324.121,41.0625 C324.121,41.961 323.659,42.8008 322.734,43.5821 C321.797,44.3633 320.794,44.7539 319.726,44.7539 C319.101,44.7539 318.574,44.5912 318.144,44.2657 C317.741,43.9141 317.539,43.4714 317.539,42.9375 C317.539,42.0391 318.008,41.1992 318.945,40.418 C319.857,39.6367 320.853,39.2461 321.933,39.2461"/>
<path class="Note" d="M321.933,44.2461 C322.558,44.2461 323.086,44.4089 323.515,44.7344 C323.919,45.086 324.121,45.5287 324.121,46.0625 C324.121,46.961 323.659,47.8008 322.734,48.5821 C321.797,49.3633 320.794,49.7539 319.726,49.7539 C319.101,49.7539 318.574,49.5912 318.144,49.2657 C317.741,48.9141 317.539,48.4714 317.539,47.9375 C317.539,47.0391 318.008,46.1992 318.945,45.418 C319.857,44.6367 320.853,44.2461 321.933,44.2461"/>
<path class="Note" d="M291.939,31.7461 C292.564,31.7461 293.092,31.9089 293.521,32.2344 C293.925,32.586 294.127,33.0287 294.127,33.5625 C294.127,34.461 293.664,35.3008 292.74,36.0821 C291.802,36.8633 290.8,37.2539 289.732,37.2539 C289.107,37.2539 288.58,37.0912 288.15,36.7656 C287.746,36.4141 287.545,35.9714 287.545,35.4375 C287.545,34.5391 288.013,33.6992 288.951,32.918 C289.862,32.1367 290.858,31.7461 291.939,31.7461"/>
<path class="Note" d="M291.939,39.2461 C292.564,39.2461 293.092,39.4089 293.521,39.7344 C293.925,40.086 294.127,40.5287 294.127,41.0625 C294.127,41.961 293.664,42.8008 292.74,43.5821 C291.802,44.3633 290.8,44.7539 289.732,44.7539 C289.107,44.7539 288.58,44.5912 288.15,44.2657 C287.746,43.9141 287.545,43.4714 287.545,42.9375 C287.545,42.0391 288.013,41.1992 288.951,40.418 C289.862,39.6367 290.858,39.2461 291.939,39.2461"/>
<path class="Note" d="M291.939,44.2461 C292.564,44.2461 293.092,44.4089 293.521,44.7344 C293.925,45.086 294.127,45.5287 294.127,46.0625 C294.127,46.961 293.664,47.8008 292.74,48.5821 C291.802,49.3633 290.8,49.7539 289.732,49.7539 C289.107,49.7539 288.58,49.5912 288.15,49.2657 C287.746,48.9141 287.545,48.4714 287.545,47.9375 C287.545,47.0391 288.013,46.1992 288.951,45.418 C289.862,44.6367 290.858,44.2461 291.939,44.2461"/>
<path class="Note" d="M255.145,29.2461 C255.77,29.2461 256.297,29.4089 256.727,29.7344 C257.131,30.086 257.332,30.5287 257.332,31.0625 C257.332,31.961 256.87,32.8008 255.946,33.5821 C255.008,34.3633 254.006,34.7539 252.938,34.7539 C252.313,34.7539 251.786,34.5912 251.356,34.2656 C250.952,33.9141 250.75,33.4714 250.75,32.9375 C250.75,32.0391 251.219,31.1992 252.157,30.418 C253.068,29.6367 254.064,29.2461 255.145,29.2461"/>
<path class="Note" d="M255.145,36.7461 C255.77,36.7461 256.297,36.9089 256.727,37.2344 C257.131,37.586 257.332,38.0287 257.332,38.5625 C257.332,39.461 256.87,40.3008 255.946,41.0821 C255.008,41.8633 254.006,42.2539 252.938,42.2539 C252.313,42.2539 251.786,42.0912 251.356,41.7656 C250.952,41.4141 250.75,40.9714 250.75,40.4375 C250.75,39.5391 251.219,38.6992 252.157,37.918 C253.068,37.1367 254.064,36.7461 255.145,36.7461"/>
<path class="Note" d="M255.145,41.7461 C255.77,41.7461 256.297,41.9089 256.727,42.2344 C257.131,42.586 257.332,43.0287 257.332,43.5625 C257.332,44.461 256.87,45.3008 255.946,46.0821 C255.008,46.8633 254.006,47.2539 252.938,47.2539 C252.313,47.2539 251.786,47.0912 251.356,46.7657 C250.952,46.4141 250.75,45.9714 250.75,45.4375 C250.75,44.5391 251.219,43.6992 252.157,42.918 C253.068,42.1367 254.064,41.7461 255.145,41.7461"/>
<path class="Note" d="M225.151,26.7461 C225.776,26.7461 226.303,26.9089 226.733,27.2344 C227.136,27.586 227.338,28.0287 227.338,28.5625 C227.338,29.461 226.876,30.3008 225.951,31.082 C225.014,31.8633 224.011,32.2539 222.944,32.2539 C222.319,32.2539 221.791,32.0912 221.362,31.7656 C220.958,31.4141 220.756,30.9714 220.756,30.4375 C220.756,29.5391 221.225,28.6992 222.162,27.918 C223.074,27.1367 224.07,26.7461 225.151,26.7461"/>
<path class="Note" d="M225.151,34.2461 C225.776,34.2461 226.303,34.4089 226.733,34.7344 C227.136,35.086 227.338,35.5287 227.338,36.0625 C227.338,36.961 226.876,37.8008 225.951,38.5821 C225.014,39.3633 224.011,39.7539 222.944,39.7539 C222.319,39.7539 221.791,39.5912 221.362,39.2656 C220.958,38.9141 220.756,38.4714 220.756,37.9375 C220.756,37.0391 221.225,36.1992 222.162,35.418 C223.074,34.6367 224.07,34.2461 225.151,34.2461"/>
<path class="Note" d="M225.151,39.2461 C225.776,39.2461 226.303,39.4089 226.733,39.7344 C227.136,40.086 227.338,40.5287 227.338,41.0625 C227.338,41.961 226.876,42.8008 225.951,43.5821 C225.014,44.3633 224.011,44.7539 222.944,44.7539 C222.319,44.7539 221.791,44.5912 221.362,44.2657 C220.958,43.9141 220.756,43.4714 220.756,42.9375 C220.756,42.0391 221.225,41.1992 222.162,40.418 C223.074,39.6367 224.07,39.2461 225.151,39.2461"/>
<path class="Note" d="M195.156,24.2461 C195.781,24.2461 196.309,24.4089 196.738,24.7344 C197.142,25.086 197.344,25.5287 197.344,26.0625 C197.344,26.961 196.882,27.8008 195.957,28.582 C195.02,29.3633 194.017,29.7539 192.949,29.7539 C192.324,29.7539 191.797,29.5912 191.367,29.2656 C190.964,28.9141 190.762,28.4714 190.762,27.9375 C190.762,27.0391 191.231,26.1992 192.168,25.418 C193.08,24.6367 194.076,24.2461 195.156,24.2461"/>
<path class="Note" d="M195.156,31.7461 C195.781,31.7461 196.309,31.9089 196.738,32.2344 C197.142,32.586 197.344,33.0287 197.344,33.5625 C197.344,34.461 196.882,35.3008 195.957,36.0821 C195.02,36.8633 194.017,37.2539 192.949,37.2539 C192.324,37.2539 191.797,37.0912 191.367,36.7656 C190.964,36.4141 190.762,35.9714 190.762,35.4375 C190.762,34.5391 191.231,33.6992 192.168,32.918 C193.08,32.1367 194.076,31.7461 195.156,31.7461"/>
<path class="Note" d="M195.156,36.7461 C195.781,36.7461 196.309,36.9089 196.738,37.2344 C197.142,37.586 197.344,38.0287 197.344,38.5625 C197.344,39.461 196.882,40.3008 195.957,41.0821 C195.02,41.8633 194.017,42.2539 192.949,42.2539 C192.324,42.2539 191.797,42.0912 191.367,41.7656 C190.964,41.4141 190.762,40.9714 190.762,40.4375 C190.762,39.5391 191.231,38.6992 192.168,37.918 C193.08,37.1367 194.076,36.7461 195.156,36.7461"/>
<path class="Note" d="M165.162,21.7461 C165.787,21.7461 166.315,21.9089 166.744,22.2344 C167.148,22.586 167.35,23.0287 167.35,23.5625 C167.35,24.461 166.887,25.3008 165.963,26.082 C165.025,26.8633 164.023,27.2539 162.955,27.2539 C162.33,27.2539 161.803,27.0912 161.373,26.7656 C160.969,26.4141 160.768,25.9714 160.768,25.4375 C160.768,24.5391 161.236,23.6992 162.174,22.918 C163.085,22.1367 164.081,21.7461 165.162,21.7461"/>
<path class="Note" d="M165.162,29.2461 C165.787,29.2461 166.315,29.4089 166.744,29.7344 C167.148,30.086 167.35,30.5287 167.35,31.0625 C167.35,31.961 166.887,32.8008 165.963,33.5821 C165.025,34.3633 164.023,34.7539 162.955,34.7539 C162.33,34.7539 161.803,34.5912 161.373,34.2656 C160.969,33.9141 160.768,33.4714 160.768,32.9375 C160.768,32.0391 161.236,31.1992 162.174,30.418 C163.085,29.6367 164.081,29.2461 165.162,29.2461"/>
<path class="Note" d="M165.162,34.2461 C165.787,34.2461 166.315,34.4089 166.744,34.7344 C167.148,35.086 167.35,35.5287 167.35,36.0625 C167.35,36.961 166.887,37.8008 165.963,38.5821 C165.025,39.3633 164.023,39.7539 162.955,39.7539 C162.33,39.7539 161.803,39.5912 161.373,39.2656 C160.969,38.9141 160.768,38.4714 160.768,37.9375 C160.768,37.0391 161.236,36.1992 162.174,35.418 C163.085,34.6367 164.081,34.2461 165.162,34.2461"/>
<path class="Note" d="M129.418,21.7461 C130.043,21.7461 130.57,21.9089 131,22.2344 C131.404,22.586 131.605,23.0287 131.605,23.5625 C131.605,24.461 131.143,25.3008 130.219,26.082 C129.281,26.8633 128.279,27.2539 127.211,27.2539 C126.586,27.2539 126.059,27.0912 125.629,26.7656 C125.225,26.4141 125.023,25.9714 125.023,25.4375 C125.023,24.5391 125.492,23.6992 126.43,22.918 C127.341,22.1367 128.337,21.7461 129.418,21.7461"/>
<path class="Note" d="M129.418,29.2461 C130.043,29.2461 130.57,29.4089 131,29.7344 C131.404,30.086 131.605,30.5287 131.605,31.0625 C131.605,31.961 131.143,32.8008 130.219,33.5821 C129.281,34.3633 128.279,34.7539 127.211,34.7539 C126.586,34.7539 126.059,34.5912 125.629,34.2656 C125.225,33.9141 125.023,33.4714 125.023,32.9375 C125.023,32.0391 125.492,31.1992 126.43,30.418 C127.341,29.6367 128.337,29.2461 129.418,29.2461"/>
<path class="Note" d="M129.418,34.2461 C130.043,34.2461 130.57,34.4089 131,34.7344 C131.404,35.086 131.605,35.5287 131.605,36.0625 C131.605,36.961 131.143,37.8008 130.219,38.5821 C129.281,39.3633 128.279,39.7539 127.211,39.7539 C126.586,39.7539 126.059,39.5912 125.629,39.2656 C125.225,38.9141 125.023,38.4714 125.023,37.9375 C125.023,37.0391 125.492,36.1992 126.43,35.418 C127.341,34.6367 128.337,34.2461 129.418,34.2461"/>
<path class="Note" d="M100.474,24.2461 C101.099,24.2461 101.626,24.4089 102.056,24.7344 C102.459,25.086 102.661,25.5287 102.661,26.0625 C102.661,26.961 102.199,27.8008 101.274,28.582 C100.337,29.3633 99.3344,29.7539 98.2666,29.7539 C97.6416,29.7539 97.1143,29.5912 96.6846,29.2656 C96.281,28.9141 96.0791,28.4714 96.0791,27.9375 C96.0791,27.0391 96.5479,26.1992 97.4854,25.418 C98.3969,24.6367 99.3929,24.2461 100.474,24.2461"/>
<path class="Note" d="M100.474,31.7461 C101.099,31.7461 101.626,31.9089 102.056,32.2344 C102.459,32.586 102.661,33.0287 102.661,33.5625 C102.661,34.461 102.199,35.3008 101.274,36.0821 C100.337,36.8633 99.3344,37.2539 98.2666,37.2539 C97.6416,37.2539 97.1143,37.0912 96.6846,36.7656 C96.281,36.4141 96.0791,35.9714 96.0791,35.4375 C96.0791,34.5391 96.5479,33.6992 97.4854,32.918 C98.3969,32.1367 99.3929,31.7461 100.474,31.7461"/>
<path class="Note" d="M100.474,36.7461 C101.099,36.7461 101.626,36.9089 102.056,37.2344 C102.459,37.586 102.661,38.0287 102.661,38.5625 C102.661,39.461 102.199,40.3008 101.274,41.0821 C100.337,41.8633 99.3344,42.2539 98.2666,42.2539 C97.6416,42.2539 97.1143,42.0912 96.6846,41.7656 C96.281,41.4141 96.0791,40.9714 96.0791,40.4375 C96.0791,39.5391 96.5479,38.6992 97.4854,37.918 C98.3969,37.1367 99.3929,36.7461 100.474,36.7461"/>
<path class="Note" d="M71.5294,26.7461 C72.1544,26.7461 72.6818,26.9089 73.1115,27.2344 C73.5151,27.586 73.7169,28.0287 73.7169,28.5625 C73.7169,29.461 73.2547,30.3008 72.3302,31.082 C71.3927,31.8633 70.3901,32.2539 69.3224,32.2539 C68.6974,32.2539 68.1701,32.0912 67.7404,31.7656 C67.3367,31.4141 67.1349,30.9714 67.1349,30.4375 C67.1349,29.5391 67.6036,28.6992 68.5411,27.918 C69.4526,27.1367 70.4487,26.7461 71.5294,26.7461"/>
<path class="Note" d="M71.5294,34.2461 C72.1544,34.2461 72.6818,34.4089 73.1115,34.7344 C73.5151,35.086 73.7169,35.5287 73.7169,36.0625 C73.7169,36.961 73.2547,37.8008 72.3302,38.5821 C71.3927,39.3633 70.3901,39.7539 69.3224,39.7539 C68.6974,39.7539 68.1701,39.5912 67.7404,39.2656 C67.3367,38.9141 67.1349,38.4714 67.1349,37.9375 C67.1349,37.0391 67.6036,36.1992 68.5411,35.418 C69.4526,34.6367 70.4487,34.2461 71.5294,34.2461"/>
<path class="Note" d="M71.5294,39.2461 C72.1544,39.2461 72.6818,39.4089 73.1115,39.7344 C73.5151,40.086 73.7169,40.5287 73.7169,41.0625 C73.7169,41.961 73.2547,42.8008 72.3302,43.5821 C71.3927,44.3633 70.3901,44.7539 69.3224,44.7539 C68.6974,44.7539 68.1701,44.5912 67.7404,44.2657 C67.3367,43.9141 67.1349,43.4714 67.1349,42.9375 C67.1349,42.0391 67.6036,41.1992 68.5411,40.418 C69.4526,39.6367 70.4487,39.2461 71.5294,39.2461"/>
<path class="Note" d="M42.5852,26.7461 C43.2102,26.7461 43.7375,26.9089 44.1672,27.2344 C44.5709,27.586 44.7727,28.0287 44.7727,28.5625 C44.7727,29.461 44.3104,30.3008 43.386,31.082 C42.4485,31.8633 41.4459,32.2539 40.3781,32.2539 C39.7531,32.2539 39.2258,32.0912 38.7961,31.7656 C38.3925,31.4141 38.1906,30.9714 38.1906,30.4375 C38.1906,29.5391 38.6594,28.6992 39.5969,27.918 C40.5084,27.1367 41.5045,26.7461 42.5852,26.7461"/>
<path class="Note" d="M42.5852,34.2461 C43.2102,34.2461 43.7375,34.4089 44.1672,34.7344 C44.5709,35.086 44.7727,35.5287 44.7727,36.0625 C44.7727,36.961 44.3104,37.8008 43.386,38.5821 C42.4485,39.3633 41.4459,39.7539 40.3781,39.7539 C39.7531,39.7539 39.2258,39.5912 38.7961,39.2656 C38.3925,38.9141 38.1906,38.4714 38.1906,37.9375 C38.1906,37.0391 38.6594,36.1992 39.5969,35.418 C40.5084,34.6367 41.5045,34.2461 42.5852,34.2461"/>
<path class="Note" d="M42.5852,39.2461 C43.2102,39.2461 43.7375,39.4089 44.1672,39.7344 C44.5709,40.086 44.7727,40.5287 44.7727,41.0625 C44.7727,41.961 44.3104,42.8008 43.386,43.5821 C42.4485,44.3633 41.4459,44.7539 40.3781,44.7539 C39.7531,44.7539 39.2258,44.5912 38.7961,44.2657 C38.3925,43.9141 38.1906,43.4714 38.1906,42.9375 C38.1906,42.0391 38.6594,41.1992 39.5969,40.418 C40.5084,39.6367 41.5045,39.2461 42.5852,39.2461"/>
<path class="Clef" d="M10.5438,131.883 C10.5438,131.883 10.5828,131.883 10.6609,131.883 C10.713,131.87 10.7586,131.863 10.7977,131.863 C12.256,131.863 13.4539,132.378 14.3914,133.406 C15.3289,134.422 15.7977,135.607 15.7977,136.961 C15.7977,138.641 15.101,140.008 13.7078,141.063 C13.3432,141.349 12.868,141.583 12.282,141.766 C12.3471,142.612 12.3797,143.296 12.3797,143.816 C12.3797,143.921 12.3667,144.298 12.3406,144.949 C12.2885,146.16 11.8719,147.208 11.0906,148.094 C10.3354,148.966 9.39792,149.402 8.27813,149.402 C7.22344,149.402 6.325,149.031 5.58281,148.289 C4.84063,147.534 4.46953,146.622 4.46953,145.555 C4.46953,144.995 4.68438,144.52 5.11406,144.129 C5.55677,143.738 6.0711,143.543 6.65703,143.543 C7.17787,143.543 7.61406,143.745 7.96563,144.149 C8.33021,144.526 8.5125,144.995 8.5125,145.555 C8.5125,146.063 8.33021,146.499 7.96563,146.863 C7.60104,147.228 7.16485,147.41 6.65703,147.41 C6.4487,147.41 6.24688,147.371 6.05156,147.293 C6.62448,148.139 7.3862,148.563 8.33672,148.563 C9.23516,148.563 9.97084,148.198 10.5438,147.469 C11.1427,146.714 11.4682,145.835 11.5203,144.832 C11.5464,144.207 11.5594,143.849 11.5594,143.758 C11.5594,143.029 11.5333,142.43 11.4813,141.961 C10.8302,142.065 10.2508,142.117 9.74297,142.117 C7.93307,142.117 6.39011,141.401 5.11406,139.969 C3.86406,138.524 3.23906,136.805 3.23906,134.813 C3.23906,134.396 3.27813,133.973 3.35625,133.543 C3.43438,133.191 3.53203,132.807 3.64922,132.391 C3.71432,132.156 3.89011,131.779 4.17656,131.258 C4.28073,131.102 4.39792,130.906 4.52813,130.672 C4.65834,130.438 4.74948,130.281 4.80156,130.203 C4.93177,129.943 5.18568,129.591 5.56328,129.149 C5.66745,129.031 5.77487,128.901 5.88555,128.758 C5.99623,128.615 6.09063,128.497 6.16875,128.406 C6.24688,128.315 6.30547,128.244 6.34453,128.191 C6.3836,128.139 6.67656,127.794 7.22344,127.156 C7.35365,127.026 7.4806,126.886 7.6043,126.736 C7.728,126.587 7.82891,126.469 7.90703,126.385 C7.98516,126.3 8.04375,126.238 8.08281,126.199 C7.61406,124.65 7.3211,123.413 7.20391,122.488 C7.11276,121.746 7.06719,120.731 7.06719,119.441 C7.06719,118.309 7.32761,117.247 7.84844,116.258 C8.35625,115.229 9.06589,114.389 9.97735,113.738 C10.0424,113.699 10.1076,113.68 10.1727,113.68 C10.2638,113.68 10.3289,113.699 10.368,113.738 C11.0711,114.585 11.6766,115.685 12.1844,117.039 C12.7052,118.393 12.9656,119.624 12.9656,120.731 C12.9656,121.981 12.6661,123.152 12.0672,124.246 C11.3901,125.405 10.5177,126.603 9.45,127.84 C9.72344,128.699 10.088,130.047 10.5438,131.883 M12.2039,140.965 C12.881,140.718 13.4083,140.294 13.7859,139.695 C14.2026,139.122 14.4109,138.478 14.4109,137.762 C14.4109,136.837 14.0984,136.017 13.4734,135.301 C12.8354,134.559 12.0216,134.142 11.032,134.051 C11.5919,136.798 11.9826,139.103 12.2039,140.965 M4.64531,136.453 C4.64531,137.742 5.16615,138.875 6.20781,139.852 C7.27552,140.802 8.47344,141.277 9.80156,141.277 C10.3484,141.277 10.8823,141.238 11.4031,141.16 C11.1948,139.181 10.7846,136.811 10.1727,134.051 C9.43047,134.129 8.83802,134.389 8.39531,134.832 C7.96563,135.288 7.75078,135.802 7.75078,136.375 C7.75078,137.365 8.27813,138.165 9.33281,138.777 C9.42396,138.869 9.46953,138.966 9.46953,139.07 C9.46953,139.175 9.42396,139.272 9.33281,139.363 C9.25469,139.455 9.15703,139.5 9.03985,139.5 C9.02682,139.5 8.96823,139.487 8.86406,139.461 C8.12188,139.057 7.54896,138.537 7.14531,137.899 C6.76771,137.221 6.57891,136.538 6.57891,135.848 C6.57891,134.949 6.85886,134.136 7.41875,133.406 C8.00469,132.677 8.76641,132.208 9.70391,132 C9.33932,130.542 9.03985,129.402 8.80547,128.582 C8.59714,128.816 8.34649,129.1 8.05352,129.432 C7.76055,129.764 7.58802,129.962 7.53594,130.027 C7.06719,130.639 6.70912,131.115 6.46172,131.453 C6.01901,132.065 5.69349,132.593 5.48516,133.035 C5.2638,133.53 5.06849,134.07 4.89922,134.656 C4.72995,135.216 4.64531,135.815 4.64531,136.453 M11.1688,116.59 C10.1922,117.072 9.42396,117.762 8.86406,118.66 C8.29115,119.585 8.00469,120.581 8.00469,121.649 C8.00469,122.586 8.23906,123.849 8.70781,125.438 C9.64531,124.305 10.3484,123.257 10.8172,122.293 C11.312,121.277 11.5594,120.216 11.5594,119.109 C11.5594,118.276 11.4292,117.436 11.1688,116.59"/>
<path class="Clef" d="M10.5438,36.8828 C10.5438,36.8828 10.5828,36.8828 10.6609,36.8828 C10.713,36.8698 10.7586,36.8633 10.7977,36.8633 C12.256,36.8633 13.4539,37.3776 14.3914,38.4063 C15.3289,39.4219 15.7977,40.6068 15.7977,41.961 C15.7977,43.6407 15.101,45.0078 13.7078,46.0625 C13.3432,46.349 12.868,46.5834 12.282,46.7657 C12.3471,47.612 12.3797,48.2956 12.3797,48.8164 C12.3797,48.9206 12.3667,49.2982 12.3406,49.9492 C12.2885,51.1602 11.8719,52.2084 11.0906,53.0938 C10.3354,53.9662 9.39792,54.4024 8.27813,54.4024 C7.22344,54.4024 6.325,54.0313 5.58281,53.2891 C4.84063,52.5339 4.46953,51.6224 4.46953,50.5547 C4.46953,49.9948 4.68438,49.5196 5.11406,49.1289 C5.55677,48.7383 6.0711,48.543 6.65703,48.543 C7.17787,48.543 7.61406,48.7448 7.96563,49.1485 C8.33021,49.5261 8.5125,49.9948 8.5125,50.5547 C8.5125,51.0625 8.33021,51.4987 7.96563,51.8633 C7.60104,52.2279 7.16485,52.4102 6.65703,52.4102 C6.4487,52.4102 6.24688,52.3711 6.05156,52.293 C6.62448,53.1393 7.3862,53.5625 8.33672,53.5625 C9.23516,53.5625 9.97084,53.1979 10.5438,52.4688 C11.1427,51.7136 11.4682,50.8347 11.5203,49.8321 C11.5464,49.2071 11.5594,48.849 11.5594,48.7578 C11.5594,48.0287 11.5333,47.4297 11.4813,46.961 C10.8302,47.0651 10.2508,47.1172 9.74297,47.1172 C7.93307,47.1172 6.39011,46.4011 5.11406,44.9688 C3.86406,43.5235 3.23906,41.8047 3.23906,39.8125 C3.23906,39.3959 3.27813,38.9727 3.35625,38.543 C3.43438,38.1914 3.53203,37.8073 3.64922,37.3907 C3.71432,37.1563 3.89011,36.7787 4.17656,36.2578 C4.28073,36.1016 4.39792,35.9063 4.52813,35.6719 C4.65834,35.4375 4.74948,35.2813 4.80156,35.2032 C4.93177,34.9427 5.18568,34.5912 5.56328,34.1485 C5.66745,34.0313 5.77487,33.9011 5.88555,33.7578 C5.99623,33.6146 6.09063,33.4974 6.16875,33.4063 C6.24688,33.3151 6.30547,33.2435 6.34453,33.1914 C6.3836,33.1393 6.67656,32.7943 7.22344,32.1563 C7.35365,32.0261 7.4806,31.8861 7.6043,31.7364 C7.728,31.5866 7.82891,31.4694 7.90703,31.3848 C7.98516,31.3002 8.04375,31.2383 8.08281,31.1992 C7.61406,29.6498 7.3211,28.4128 7.20391,27.4883 C7.11276,26.7461 7.06719,25.7305 7.06719,24.4414 C7.06719,23.3086 7.32761,22.2474 7.84844,21.2578 C8.35625,20.2292 9.06589,19.3893 9.97735,18.7383 C10.0424,18.6992 10.1076,18.6797 10.1727,18.6797 C10.2638,18.6797 10.3289,18.6992 10.368,18.7383 C11.0711,19.5847 11.6766,20.6849 12.1844,22.0391 C12.7052,23.3933 12.9656,24.6237 12.9656,25.7305 C12.9656,26.9805 12.6661,28.1524 12.0672,29.2461 C11.3901,30.405 10.5177,31.6029 9.45,32.8399 C9.72344,33.6992 10.088,35.0469 10.5438,36.8828 M12.2039,45.9649 C12.881,45.7175 13.4083,45.2943 13.7859,44.6953 C14.2026,44.1224 14.4109,43.4779 14.4109,42.7617 C14.4109,41.8373 14.0984,41.017 13.4734,40.3008 C12.8354,39.5586 12.0216,39.142 11.032,39.0508 C11.5919,41.7982 11.9826,44.1029 12.2039,45.9649 M4.64531,41.4532 C4.64531,42.7422 5.16615,43.875 6.20781,44.8516 C7.27552,45.8021 8.47344,46.2774 9.80156,46.2774 C10.3484,46.2774 10.8823,46.2383 11.4031,46.1602 C11.1948,44.181 10.7846,41.8112 10.1727,39.0508 C9.43047,39.1289 8.83802,39.3893 8.39531,39.8321 C7.96563,40.2878 7.75078,40.8021 7.75078,41.375 C7.75078,42.3646 8.27813,43.1654 9.33281,43.7774 C9.42396,43.8685 9.46953,43.9662 9.46953,44.0703 C9.46953,44.1745 9.42396,44.2722 9.33281,44.3633 C9.25469,44.4545 9.15703,44.5 9.03985,44.5 C9.02682,44.5 8.96823,44.487 8.86406,44.461 C8.12188,44.0573 7.54896,43.5365 7.14531,42.8985 C6.76771,42.2214 6.57891,41.5378 6.57891,40.8477 C6.57891,39.9492 6.85886,39.1354 7.41875,38.4063 C8.00469,37.6771 8.76641,37.2084 9.70391,37 C9.33932,35.5417 9.03985,34.4024 8.80547,33.5821 C8.59714,33.8164 8.34649,34.0996 8.05352,34.4317 C7.76055,34.7637 7.58802,34.9623 7.53594,35.0274 C7.06719,35.6393 6.70912,36.1146 6.46172,36.4532 C6.01901,37.0651 5.69349,37.5925 5.48516,38.0352 C5.2638,38.53 5.06849,39.0703 4.89922,39.6563 C4.72995,40.2162 4.64531,40.8151 4.64531,41.4532 M11.1688,21.5899 C10.1922,22.0716 9.42396,22.7617 8.86406,23.6602 C8.29115,24.5847 8.00469,25.5808 8.00469,26.6485 C8.00469,27.586 8.23906,28.849 8.70781,30.4375 C9.64531,29.3047 10.3484,28.2565 10.8172,27.293 C11.312,26.2774 11.5594,25.2162 11.5594,24.1094 C11.5594,23.2761 11.4292,22.4362 11.1688,21.5899"/>
<path class="TimeSig" d="M27.975,36.4531 C27.6365,36.4531 27.2979,36.3229 26.9594,36.0625 C26.6339,35.8151 26.4711,35.4505 26.4711,34.9688 C26.4711,34.5651 26.6078,34.2071 26.8813,33.8946 C27.1417,33.5821 27.4867,33.4258 27.9164,33.4258 C28.0596,33.4258 28.1508,33.4323 28.1899,33.4453 C27.5909,32.6771 26.7901,32.28 25.7875,32.2539 L25.5336,32.2539 L25.5336,41.7461 C25.5727,41.7461 25.6182,41.7526 25.6703,41.7656 C25.6703,41.7656 25.7094,41.7656 25.7875,41.7656 C26.5688,41.7656 27.2328,41.4792 27.7797,40.9063 C28.3396,40.3464 28.7302,39.6237 28.9516,38.7383 C28.9906,38.6081 29.0688,38.543 29.186,38.543 C29.3552,38.543 29.4399,38.6211 29.4399,38.7774 C29.4399,38.8685 29.4008,39.0443 29.3227,39.3047 C29.2445,39.5521 29.1078,39.8386 28.9125,40.1641 C28.7563,40.4766 28.5349,40.8086 28.2485,41.1602 C27.988,41.4597 27.6365,41.7201 27.1938,41.9414 C26.7771,42.1498 26.3083,42.2539 25.7875,42.2539 C25.7354,42.2539 25.6964,42.2474 25.6703,42.2344 C25.6703,42.2344 25.6248,42.2344 25.5336,42.2344 L25.5336,43.7969 C25.5336,43.9271 25.462,43.9922 25.3188,43.9922 L24.9867,43.9922 C24.8565,43.9922 24.7914,43.9271 24.7914,43.7969 L24.7914,42.1758 C23.4242,41.9545 22.4151,41.375 21.7641,40.4375 C21.113,39.474 20.7875,38.3281 20.7875,37 C20.7875,35.6328 21.113,34.487 21.7641,33.5625 C22.3761,32.625 23.3852,32.0456 24.7914,31.8242 L24.7914,30.2031 C24.7914,30.0729 24.8565,30.0078 24.9867,30.0078 L25.3188,30.0078 C25.449,30.0078 25.5206,30.0729 25.5336,30.2031 L25.5336,31.7656 L25.7875,31.7656 C26.8552,31.7656 27.7016,32.1302 28.3266,32.8594 C28.9776,33.5886 29.3031,34.3112 29.3031,35.0274 C29.3031,35.444 29.1729,35.7826 28.9125,36.043 C28.6781,36.3164 28.3656,36.4531 27.975,36.4531 M24.7914,41.6094 L24.7914,32.3906 C24.2576,32.586 23.9125,32.9636 23.7563,33.5235 C23.6,34.0964 23.5219,34.9167 23.5219,35.9844 L23.5219,37 L23.5219,38.0156 C23.5219,39.0834 23.6,39.9037 23.7563,40.4766 C23.9125,41.0365 24.2576,41.4141 24.7914,41.6094"/>
<path class="Hook" d="M468.3,117.625 L468.3,112.625 L468.925,112.625 C468.925,113.367 469.069,114.109 469.355,114.852 C469.668,115.659 470.013,116.362 470.39,116.961 C470.664,117.391 471.074,118.048 471.621,118.934 C472.037,119.611 472.389,120.32 472.675,121.063 C472.962,121.805 473.105,122.547 473.105,123.289 C473.105,124.643 472.825,126.024 472.265,127.43 C472.174,127.586 472.05,127.664 471.894,127.664 C471.764,127.664 471.647,127.612 471.543,127.508 C471.464,127.43 471.425,127.332 471.425,127.215 L471.425,127.117 C471.985,125.828 472.265,124.552 472.265,123.289 C472.265,122.638 472.07,121.935 471.679,121.18 C471.289,120.412 470.891,119.8 470.488,119.344 C470.032,118.81 469.511,118.237 468.925,117.625 L468.3,117.625 "/>
<path class="Hook" d="M466.208,22.625 L466.208,17.625 L466.833,17.625 C466.833,18.3672 466.976,19.1094 467.262,19.8516 C467.575,20.6589 467.92,21.362 468.297,21.9609 C468.571,22.3906 468.981,23.0482 469.528,23.9336 C469.945,24.6107 470.296,25.3203 470.583,26.0625 C470.869,26.8047 471.012,27.5469 471.012,28.2891 C471.012,29.6432 470.732,31.0234 470.172,32.4297 C470.081,32.5859 469.958,32.6641 469.801,32.6641 C469.671,32.6641 469.554,32.612 469.45,32.5078 C469.372,32.4297 469.333,32.332 469.333,32.2149 L469.333,32.1172 C469.892,30.8281 470.172,29.5521 470.172,28.2891 C470.172,27.638 469.977,26.9349 469.586,26.1797 C469.196,25.4115 468.799,24.7995 468.395,24.3438 C467.939,23.8099 467.418,23.237 466.833,22.625 L466.208,22.625 "/>
<path class="StaffText" d="M27.4475,104.38 C27.7342,104.38 28.0075,104.403 28.2675,104.45 C28.5275,104.497 28.7958,104.578 29.0725,104.695 C29.3492,104.812 29.5708,104.993 29.7375,105.24 C29.9042,105.487 29.9875,105.787 29.9875,106.14 C29.9875,107.027 29.4008,107.58 28.2275,107.8 C28.2075,107.807 28.1908,107.81 28.1775,107.81 L30.2375,110.34 C30.3775,110.507 30.5092,110.623 30.6325,110.69 C30.7558,110.757 30.9142,110.797 31.1075,110.81 L31.1075,111 L29.4975,111 L27.1175,107.92 L26.5575,107.94 L26.5575,109.91 C26.5575,110.27 26.6108,110.503 26.7175,110.61 C26.8242,110.717 27.0708,110.783 27.4575,110.81 L27.4575,111 L24.6875,111 L24.6875,110.81 C25.0608,110.783 25.2958,110.712 25.3925,110.595 C25.4892,110.478 25.5375,110.213 25.5375,109.8 L25.5375,105.47 C25.5375,105.117 25.4892,104.888 25.3925,104.785 C25.2958,104.682 25.0608,104.61 24.6875,104.57 L24.6875,104.38 L27.4475,104.38 M26.5575,107.57 C27.3642,107.557 27.9558,107.45 28.3325,107.25 C28.7092,107.05 28.8975,106.673 28.8975,106.12 C28.8975,105.653 28.7492,105.308 28.4525,105.085 C28.1558,104.862 27.6942,104.75 27.0675,104.75 C26.8675,104.75 26.7325,104.775 26.6625,104.825 C26.5925,104.875 26.5575,104.97 26.5575,105.11 L26.5575,107.57 M32.1638,108.23 C32.1771,108.65 32.2338,109.012 32.3338,109.315 C32.4338,109.618 32.5638,109.845 32.7238,109.995 C32.8838,110.145 33.0454,110.252 33.2088,110.315 C33.3721,110.378 33.5438,110.41 33.7238,110.41 C34.0438,110.41 34.3221,110.33 34.5588,110.17 C34.7954,110.01 35.0338,109.74 35.2738,109.36 L35.4338,109.43 C35.2271,109.97 34.9404,110.383 34.5738,110.67 C34.2071,110.957 33.7871,111.1 33.3138,111.1 C32.7404,111.1 32.2854,110.898 31.9488,110.495 C31.6121,110.092 31.4438,109.547 31.4438,108.86 C31.4438,108.12 31.6388,107.525 32.0288,107.075 C32.4188,106.625 32.9204,106.4 33.5338,106.4 C34.0404,106.4 34.4338,106.552 34.7138,106.855 C34.9938,107.158 35.1704,107.617 35.2438,108.23 L32.1638,108.23 M32.1838,107.91 L34.2238,107.91 C34.1571,107.477 34.0538,107.177 33.9138,107.01 C33.7738,106.843 33.5504,106.76 33.2438,106.76 C32.6438,106.76 32.2904,107.143 32.1838,107.91 M37.3713,105.95 L36.9713,105.95 L38.4413,104.47 C38.5946,104.317 38.7346,104.24 38.8613,104.24 C39.0946,104.24 39.2113,104.347 39.2113,104.56 C39.2113,104.713 39.1113,104.853 38.9113,104.98 L37.3713,105.95 M35.8813,110.03 C35.8813,109.91 35.8946,109.798 35.9213,109.695 C35.9479,109.592 35.9946,109.495 36.0613,109.405 C36.1279,109.315 36.1913,109.233 36.2513,109.16 C36.3113,109.087 36.4013,109.012 36.5213,108.935 C36.6413,108.858 36.7413,108.795 36.8213,108.745 C36.9013,108.695 37.0229,108.635 37.1863,108.565 C37.3496,108.495 37.4746,108.442 37.5613,108.405 C37.6479,108.368 37.7846,108.313 37.9713,108.24 C38.1579,108.167 38.2946,108.113 38.3813,108.08 L38.3813,107.47 C38.3813,106.917 38.1279,106.64 37.6213,106.64 C37.4213,106.64 37.2513,106.688 37.1113,106.785 C36.9713,106.882 36.9013,106.997 36.9013,107.13 C36.9013,107.183 36.9096,107.257 36.9263,107.35 C36.9429,107.443 36.9513,107.503 36.9513,107.53 C36.9513,107.643 36.9063,107.742 36.8163,107.825 C36.7263,107.908 36.6213,107.95 36.5013,107.95 C36.3879,107.95 36.2879,107.907 36.2013,107.82 C36.1146,107.733 36.0713,107.633 36.0713,107.52 C36.0713,107.207 36.2329,106.942 36.5563,106.725 C36.8796,106.508 37.2779,106.4 37.7513,106.4 C38.2979,106.4 38.6746,106.532 38.8813,106.795 C39.0879,107.058 39.1913,107.46 39.1913,108 L39.1913,109.95 C39.1913,110.17 39.2129,110.322 39.2563,110.405 C39.2996,110.488 39.3779,110.53 39.4913,110.53 C39.6313,110.53 39.7779,110.467 39.9313,110.34 L39.9313,110.6 C39.7579,110.793 39.6063,110.925 39.4763,110.995 C39.3463,111.065 39.1979,111.1 39.0313,111.1 C38.8246,111.1 38.6729,111.043 38.5763,110.93 C38.4796,110.817 38.4179,110.63 38.3913,110.37 C37.8179,110.857 37.3313,111.1 36.9313,111.1 C36.6246,111.1 36.3729,111 36.1763,110.8 C35.9796,110.6 35.8813,110.343 35.8813,110.03 M38.3813,109.77 L38.3813,108.32 C37.7813,108.54 37.3613,108.753 37.1213,108.96 C36.8813,109.167 36.7613,109.417 36.7613,109.71 C36.7613,109.983 36.8279,110.187 36.9613,110.32 C37.0946,110.453 37.2379,110.52 37.3913,110.52 C37.6179,110.52 37.8613,110.443 38.1213,110.29 C38.2279,110.23 38.2979,110.167 38.3313,110.1 C38.3646,110.033 38.3813,109.923 38.3813,109.77 M40.075,104.77 L40.075,104.61 C40.735,104.45 41.265,104.303 41.665,104.17 L41.705,104.19 L41.705,110.16 C41.705,110.433 41.75,110.612 41.84,110.695 C41.93,110.778 42.135,110.83 42.455,110.85 L42.455,111 L40.095,111 L40.095,110.85 C40.4083,110.823 40.615,110.763 40.715,110.67 C40.815,110.577 40.865,110.397 40.865,110.13 L40.865,105.36 C40.865,105.127 40.835,104.967 40.775,104.88 C40.715,104.793 40.605,104.75 40.445,104.75 C40.3117,104.75 40.1883,104.757 40.075,104.77 M43.1731,107.07 C43.0265,107.07 42.8865,107.08 42.7531,107.1 L42.7531,106.95 C43.2198,106.817 43.7365,106.633 44.3031,106.4 L44.3431,106.43 L44.3431,109.98 C44.3431,110.34 44.3848,110.568 44.4681,110.665 C44.5515,110.762 44.7565,110.823 45.0831,110.85 L45.0831,111 L42.7131,111 L42.7131,110.85 C43.0598,110.83 43.2781,110.77 43.3681,110.67 C43.4581,110.57 43.5031,110.34 43.5031,109.98 L43.5031,107.66 C43.5031,107.44 43.4781,107.287 43.4281,107.2 C43.3781,107.113 43.2931,107.07 43.1731,107.07 M43.8331,104.17 C43.9798,104.17 44.1031,104.22 44.2031,104.32 C44.3031,104.42 44.3531,104.54 44.3531,104.68 C44.3531,104.827 44.3031,104.948 44.2031,105.045 C44.1031,105.142 43.9798,105.19 43.8331,105.19 C43.6931,105.19 43.5748,105.14 43.4781,105.04 C43.3815,104.94 43.3331,104.82 43.3331,104.68 C43.3331,104.54 43.3831,104.42 43.4831,104.32 C43.5831,104.22 43.6998,104.17 43.8331,104.17 M47.9988,106.6 C48.0054,106.6 48.0588,106.567 48.1588,106.5 L48.2688,106.5 L48.3088,107.86 L48.1588,107.86 C48.0454,107.413 47.9054,107.097 47.7388,106.91 C47.5721,106.723 47.3454,106.63 47.0588,106.63 C46.8321,106.63 46.6471,106.693 46.5038,106.82 C46.3604,106.947 46.2888,107.11 46.2888,107.31 C46.2888,107.597 46.4321,107.823 46.7188,107.99 L47.7988,108.63 C48.0988,108.81 48.3138,108.992 48.4438,109.175 C48.5738,109.358 48.6388,109.573 48.6388,109.82 C48.6388,110.167 48.5004,110.467 48.2238,110.72 C47.9471,110.973 47.6154,111.1 47.2288,111.1 C47.0621,111.1 46.8388,111.07 46.5588,111.01 C46.2788,110.95 46.1054,110.92 46.0388,110.92 C45.9388,110.92 45.8621,110.96 45.8088,111.04 L45.6788,111.04 L45.6788,109.48 L45.8388,109.48 C45.9454,109.947 46.0721,110.277 46.2188,110.47 C46.4321,110.743 46.7288,110.88 47.1088,110.88 C47.3621,110.88 47.5638,110.815 47.7138,110.685 C47.8638,110.555 47.9388,110.38 47.9388,110.16 C47.9388,109.86 47.7654,109.61 47.4188,109.41 L46.8388,109.08 C46.4121,108.84 46.1104,108.61 45.9338,108.39 C45.7571,108.17 45.6688,107.92 45.6688,107.64 C45.6688,107.28 45.7971,106.985 46.0538,106.755 C46.3104,106.525 46.6354,106.41 47.0288,106.41 C47.2488,106.41 47.4554,106.442 47.6488,106.505 C47.8421,106.568 47.9588,106.6 47.9988,106.6 M50.335,106.41 C50.4883,106.41 50.62,106.467 50.73,106.58 C50.84,106.693 50.895,106.827 50.895,106.98 C50.895,107.127 50.8383,107.253 50.725,107.36 C50.6117,107.467 50.4783,107.52 50.325,107.52 C50.1783,107.52 50.0517,107.467 49.945,107.36 C49.8383,107.253 49.785,107.127 49.785,106.98 C49.785,106.827 49.84,106.693 49.95,106.58 C50.06,106.467 50.1883,106.41 50.335,106.41 M50.335,110 C50.4883,110 50.62,110.057 50.73,110.17 C50.84,110.283 50.895,110.417 50.895,110.57 C50.895,110.717 50.8383,110.843 50.725,110.95 C50.6117,111.057 50.4783,111.11 50.325,111.11 C50.1783,111.11 50.0517,111.057 49.945,110.95 C49.8383,110.843 49.785,110.717 49.785,110.57 C49.785,110.417 49.84,110.283 49.95,110.17 C50.06,110.057 50.1883,110 50.335,110"/>
<path class="StaffText" d="M40.7106,9.8 L40.1706,9.8 C39.6106,9.8 39.2356,9.87667 39.0456,10.03 C38.8556,10.1833 38.7006,10.5333 38.5806,11.08 L38.3406,11.08 L38.4006,9.38 L44.0406,9.38 L44.1006,11.08 L43.8606,11.08 C43.7473,10.5267 43.5956,10.175 43.4056,10.025 C43.2156,9.875 42.8373,9.8 42.2706,9.8 L41.7306,9.8 L41.7306,14.91 C41.7306,15.2767 41.7873,15.5133 41.9006,15.62 C42.014,15.7267 42.2773,15.79 42.6906,15.81 L42.6906,16 L39.7706,16 L39.7706,15.81 C40.184,15.7833 40.444,15.715 40.5506,15.605 C40.6573,15.495 40.7106,15.2267 40.7106,14.8 L40.7106,9.8 M46.6975,11.4 C47.3375,11.4 47.8642,11.6133 48.2775,12.04 C48.6909,12.4667 48.8975,13.0067 48.8975,13.66 C48.8975,14.3533 48.6842,14.9333 48.2575,15.4 C47.8309,15.8667 47.3042,16.1 46.6775,16.1 C46.0509,16.1 45.5292,15.875 45.1125,15.425 C44.6959,14.975 44.4875,14.4133 44.4875,13.74 C44.4875,13.0533 44.6925,12.4917 45.1025,12.055 C45.5125,11.6183 46.0442,11.4 46.6975,11.4 M45.3875,13.25 C45.3875,13.9633 45.5175,14.57 45.7775,15.07 C46.0375,15.57 46.3775,15.82 46.7975,15.82 C47.1709,15.82 47.4642,15.66 47.6775,15.34 C47.8909,15.02 47.9975,14.5767 47.9975,14.01 C47.9975,13.3233 47.8642,12.7633 47.5975,12.33 C47.3309,11.8967 46.9875,11.68 46.5675,11.68 C46.2142,11.68 45.9292,11.8233 45.7125,12.11 C45.4959,12.3967 45.3875,12.7767 45.3875,13.25 M49.2438,12.02 L49.2438,11.85 C49.7371,11.7033 50.1971,11.5533 50.6238,11.4 L50.6938,11.42 L50.6938,12.21 C51.0338,11.89 51.3021,11.675 51.4988,11.565 C51.6954,11.455 51.9104,11.4 52.1438,11.4 C52.5104,11.4 52.7988,11.5317 53.0088,11.795 C53.2188,12.0583 53.3238,12.4267 53.3238,12.9 L53.3238,15.19 C53.3238,15.4367 53.3638,15.6017 53.4438,15.685 C53.5238,15.7683 53.6871,15.8233 53.9338,15.85 L53.9338,16 L51.8538,16 L51.8538,15.85 C52.1071,15.83 52.2754,15.7633 52.3588,15.65 C52.4421,15.5367 52.4838,15.3233 52.4838,15.01 L52.4838,12.92 C52.4838,12.2733 52.2404,11.95 51.7538,11.95 C51.5871,11.95 51.4338,11.9883 51.2938,12.065 C51.1538,12.1417 50.9638,12.2933 50.7238,12.52 L50.7238,15.33 C50.7238,15.51 50.7704,15.6367 50.8638,15.71 C50.9571,15.7833 51.1304,15.83 51.3838,15.85 L51.3838,16 L49.2638,16 L49.2638,15.85 C49.5171,15.83 49.6838,15.7717 49.7638,15.675 C49.8438,15.5783 49.8838,15.3867 49.8838,15.1 L49.8838,12.62 C49.8838,12.3733 49.8571,12.205 49.8038,12.115 C49.7504,12.025 49.6538,11.98 49.5138,11.98 C49.3871,11.98 49.2971,11.9933 49.2438,12.02 M55.7588,10.95 L55.3588,10.95 L56.8288,9.47 C56.9821,9.31667 57.1221,9.24 57.2488,9.24 C57.4821,9.24 57.5988,9.34667 57.5988,9.56 C57.5988,9.71334 57.4988,9.85334 57.2988,9.98 L55.7588,10.95 M54.2688,15.03 C54.2688,14.91 54.2821,14.7983 54.3088,14.695 C54.3354,14.5917 54.3821,14.495 54.4488,14.405 C54.5154,14.315 54.5788,14.2333 54.6388,14.16 C54.6988,14.0867 54.7888,14.0117 54.9088,13.935 C55.0288,13.8583 55.1288,13.795 55.2088,13.745 C55.2888,13.695 55.4104,13.635 55.5738,13.565 C55.7371,13.495 55.8621,13.4417 55.9488,13.405 C56.0354,13.3683 56.1721,13.3133 56.3588,13.24 C56.5454,13.1667 56.6821,13.1133 56.7688,13.08 L56.7688,12.47 C56.7688,11.9167 56.5154,11.64 56.0088,11.64 C55.8088,11.64 55.6388,11.6883 55.4988,11.785 C55.3588,11.8817 55.2888,11.9967 55.2888,12.13 C55.2888,12.1833 55.2971,12.2567 55.3138,12.35 C55.3304,12.4433 55.3388,12.5033 55.3388,12.53 C55.3388,12.6433 55.2938,12.7417 55.2038,12.825 C55.1138,12.9083 55.0088,12.95 54.8888,12.95 C54.7754,12.95 54.6754,12.9067 54.5888,12.82 C54.5021,12.7333 54.4588,12.6333 54.4588,12.52 C54.4588,12.2067 54.6204,11.9417 54.9438,11.725 C55.2671,11.5083 55.6654,11.4 56.1388,11.4 C56.6854,11.4 57.0621,11.5317 57.2688,11.795 C57.4754,12.0583 57.5788,12.46 57.5788,13 L57.5788,14.95 C57.5788,15.17 57.6004,15.3217 57.6438,15.405 C57.6871,15.4883 57.7654,15.53 57.8788,15.53 C58.0188,15.53 58.1654,15.4667 58.3188,15.34 L58.3188,15.6 C58.1454,15.7933 57.9938,15.925 57.8638,15.995 C57.7338,16.065 57.5854,16.1 57.4188,16.1 C57.2121,16.1 57.0604,16.0433 56.9638,15.93 C56.8671,15.8167 56.8054,15.63 56.7788,15.37 C56.2054,15.8567 55.7188,16.1 55.3188,16.1 C55.0121,16.1 54.7604,16 54.5638,15.8 C54.3671,15.6 54.2688,15.3433 54.2688,15.03 M56.7688,14.77 L56.7688,13.32 C56.1688,13.54 55.7488,13.7533 55.5088,13.96 C55.2688,14.1667 55.1488,14.4167 55.1488,14.71 C55.1488,14.9833 55.2154,15.1867 55.3488,15.32 C55.4821,15.4533 55.6254,15.52 55.7788,15.52 C56.0054,15.52 56.2488,15.4433 56.5088,15.29 C56.6154,15.23 56.6854,15.1667 56.7188,15.1 C56.7521,15.0333 56.7688,14.9233 56.7688,14.77 M58.4625,9.77 L58.4625,9.61 C59.1225,9.45 59.6525,9.30334 60.0525,9.17 L60.0925,9.19 L60.0925,15.16 C60.0925,15.4333 60.1375,15.6117 60.2275,15.695 C60.3175,15.7783 60.5225,15.83 60.8425,15.85 L60.8425,16 L58.4825,16 L58.4825,15.85 C58.7959,15.8233 59.0025,15.7633 59.1025,15.67 C59.2025,15.5767 59.2525,15.3967 59.2525,15.13 L59.2525,10.36 C59.2525,10.1267 59.2225,9.96667 59.1625,9.88 C59.1025,9.79334 58.9925,9.75 58.8325,9.75 C58.6992,9.75 58.5759,9.75667 58.4625,9.77 M61.5606,12.07 C61.414,12.07 61.274,12.08 61.1406,12.1 L61.1406,11.95 C61.6073,11.8167 62.124,11.6333 62.6906,11.4 L62.7306,11.43 L62.7306,14.98 C62.7306,15.34 62.7723,15.5683 62.8556,15.665 C62.939,15.7617 63.144,15.8233 63.4706,15.85 L63.4706,16 L61.1006,16 L61.1006,15.85 C61.4473,15.83 61.6656,15.77 61.7556,15.67 C61.8456,15.57 61.8906,15.34 61.8906,14.98 L61.8906,12.66 C61.8906,12.44 61.8656,12.2867 61.8156,12.2 C61.7656,12.1133 61.6806,12.07 61.5606,12.07 M62.2206,9.17 C62.3673,9.17 62.4906,9.22 62.5906,9.32 C62.6906,9.42 62.7406,9.54 62.7406,9.68 C62.7406,9.82667 62.6906,9.94834 62.5906,10.045 C62.4906,10.1417 62.3673,10.19 62.2206,10.19 C62.0806,10.19 61.9623,10.14 61.8656,10.04 C61.769,9.94 61.7206,9.82 61.7206,9.68 C61.7206,9.54 61.7706,9.42 61.8706,9.32 C61.9706,9.22 62.0873,9.17 62.2206,9.17 M66.3863,11.6 C66.3929,11.6 66.4463,11.5667 66.5463,11.5 L66.6563,11.5 L66.6963,12.86 L66.5463,12.86 C66.4329,12.4133 66.2929,12.0967 66.1263,11.91 C65.9596,11.7233 65.7329,11.63 65.4463,11.63 C65.2196,11.63 65.0346,11.6933 64.8913,11.82 C64.7479,11.9467 64.6763,12.11 64.6763,12.31 C64.6763,12.5967 64.8196,12.8233 65.1063,12.99 L66.1863,13.63 C66.4863,13.81 66.7013,13.9917 66.8313,14.175 C66.9613,14.3583 67.0263,14.5733 67.0263,14.82 C67.0263,15.1667 66.8879,15.4667 66.6113,15.72 C66.3346,15.9733 66.0029,16.1 65.6163,16.1 C65.4496,16.1 65.2263,16.07 64.9463,16.01 C64.6663,15.95 64.4929,15.92 64.4263,15.92 C64.3263,15.92 64.2496,15.96 64.1963,16.04 L64.0663,16.04 L64.0663,14.48 L64.2263,14.48 C64.3329,14.9467 64.4596,15.2767 64.6063,15.47 C64.8196,15.7433 65.1163,15.88 65.4963,15.88 C65.7496,15.88 65.9513,15.815 66.1013,15.685 C66.2513,15.555 66.3263,15.38 66.3263,15.16 C66.3263,14.86 66.1529,14.61 65.8063,14.41 L65.2263,14.08 C64.7996,13.84 64.4979,13.61 64.3213,13.39 C64.1446,13.17 64.0563,12.92 64.0563,12.64 C64.0563,12.28 64.1846,11.985 64.4413,11.755 C64.6979,11.525 65.0229,11.41 65.4163,11.41 C65.6363,11.41 65.8429,11.4417 66.0363,11.505 C66.2296,11.5683 66.3463,11.6 66.3863,11.6 M68.7225,11.41 C68.8759,11.41 69.0075,11.4667 69.1175,11.58 C69.2275,11.6933 69.2825,11.8267 69.2825,11.98 C69.2825,12.1267 69.2259,12.2533 69.1125,12.36 C68.9992,12.4667 68.8659,12.52 68.7125,12.52 C68.5659,12.52 68.4392,12.4667 68.3325,12.36 C68.2259,12.2533 68.1725,12.1267 68.1725,11.98 C68.1725,11.8267 68.2275,11.6933 68.3375,11.58 C68.4475,11.4667 68.5759,11.41 68.7225,11.41 M68.7225,15 C68.8759,15 69.0075,15.0567 69.1175,15.17 C69.2275,15.2833 69.2825,15.4167 69.2825,15.57 C69.2825,15.7167 69.2259,15.8433 69.1125,15.95 C68.9992,16.0567 68.8659,16.11 68.7125,16.11 C68.5659,16.11 68.4392,16.0567 68.3325,15.95 C68.2259,15.8433 68.1725,15.7167 68.1725,15.57 C68.1725,15.4167 68.2275,15.2833 68.3375,15.17 C68.4475,15.0567 68.5759,15 68.7225,15"/>
<path class="NoteDot" d="M426.355,125.301 C426.134,125.08 426.023,124.813 426.023,124.5 C426.023,124.188 426.134,123.921 426.355,123.699 C426.577,123.478 426.844,123.367 427.156,123.367 C427.469,123.367 427.735,123.478 427.957,123.699 C428.178,123.921 428.289,124.188 428.289,124.5 C428.289,124.813 428.178,125.08 427.957,125.301 C427.735,125.522 427.469,125.633 427.156,125.633 C426.844,125.633 426.577,125.522 426.355,125.301"/>
<path class="NoteDot" d="M426.355,130.301 C426.134,130.08 426.023,129.813 426.023,129.5 C426.023,129.188 426.134,128.921 426.355,128.699 C426.577,128.478 426.844,128.367 427.156,128.367 C427.469,128.367 427.735,128.478 427.957,128.699 C428.178,128.921 428.289,129.188 428.289,129.5 C428.289,129.813 428.178,130.08 427.957,130.301 C427.735,130.522 427.469,130.633 427.156,130.633 C426.844,130.633 426.577,130.522 426.355,130.301"/>
<path class="NoteDot" d="M426.355,135.301 C426.134,135.08 426.023,134.813 426.023,134.5 C426.023,134.188 426.134,133.921 426.355,133.699 C426.577,133.478 426.844,133.367 427.156,133.367 C427.469,133.367 427.735,133.478 427.957,133.699 C428.178,133.921 428.289,134.188 428.289,134.5 C428.289,134.813 428.178,135.08 427.957,135.301 C427.735,135.522 427.469,135.633 427.156,135.633 C426.844,135.633 426.577,135.522 426.355,135.301"/>
<path class="NoteDot" d="M422.987,30.3008 C422.765,30.0794 422.654,29.8125 422.654,29.5 C422.654,29.1875 422.765,28.9206 422.987,28.6992 C423.208,28.4779 423.475,28.3672 423.787,28.3672 C424.1,28.3672 424.367,28.4779 424.588,28.6992 C424.809,28.9206 424.92,29.1875 424.92,29.5 C424.92,29.8125 424.809,30.0794 424.588,30.3008 C424.367,30.5222 424.1,30.6328 423.787,30.6328 C423.475,30.6328 423.208,30.5222 422.987,30.3008"/>
<path class="NoteDot" d="M422.987,35.3008 C422.765,35.0794 422.654,34.8125 422.654,34.5 C422.654,34.1875 422.765,33.9206 422.987,33.6992 C423.208,33.4779 423.475,33.3672 423.787,33.3672 C424.1,33.3672 424.367,33.4779 424.588,33.6992 C424.809,33.9206 424.92,34.1875 424.92,34.5 C424.92,34.8125 424.809,35.0794 424.588,35.3008 C424.367,35.5222 424.1,35.6328 423.787,35.6328 C423.475,35.6328 423.208,35.5222 422.987,35.3008"/>
<path class="NoteDot" d="M422.987,40.3008 C422.765,40.0795 422.654,39.8125 422.654,39.5 C422.654,39.1875 422.765,38.9206 422.987,38.6992 C423.208,38.4779 423.475,38.3672 423.787,38.3672 C424.1,38.3672 424.367,38.4779 424.588,38.6992 C424.809,38.9206 424.92,39.1875 424.92,39.5 C424.92,39.8125 424.809,40.0795 424.588,40.3008 C424.367,40.5222 424.1,40.6328 423.787,40.6328 C423.475,40.6328 423.208,40.5222 422.987,40.3008"/>
</svg>
