<?xml version="1.0" encoding="UTF-8" standalone="no"?>
<svg width="536.482px" height="111.271px" viewBox="0 0 536.482 111.271"
 xmlns="http://www.w3.org/2000/svg" xmlns:xlink="http://www.w3.org/1999/xlink" version="1.2" baseProfile="tiny">
<title>Figuráció</title>
<desc>Generated by MuseScore 2.3.2</desc>
<polyline class="StaffLines" fill="none" stroke="#000000" stroke-width="0.40" stroke-linejoin="bevel" points="8.40053,22.7656 536.482,22.7656"/>
<polyline class="StaffLines" fill="none" stroke="#000000" stroke-width="0.40" stroke-linejoin="bevel" points="8.40053,27.7659 536.482,27.7659"/>
<polyline class="StaffLines" fill="none" stroke="#000000" stroke-width="0.40" stroke-linejoin="bevel" points="8.40053,32.7663 536.482,32.7663"/>
<polyline class="StaffLines" fill="none" stroke="#000000" stroke-width="0.40" stroke-linejoin="bevel" points="8.40053,37.7666 536.482,37.7666"/>
<polyline class="StaffLines" fill="none" stroke="#000000" stroke-width="0.40" stroke-linejoin="bevel" points="8.40053,42.7669 536.482,42.7669"/>
<polyline class="StaffLines" fill="none" stroke="#000000" stroke-width="0.40" stroke-linejoin="bevel" points="8.40053,75.2689 536.482,75.2689"/>
<polyline class="StaffLines" fill="none" stroke="#000000" stroke-width="0.40" stroke-linejoin="bevel" points="8.40053,80.2693 536.482,80.2693"/>
<polyline class="StaffLines" fill="none" stroke="#000000" stroke-width="0.40" stroke-linejoin="bevel" points="8.40053,85.2696 536.482,85.2696"/>
<polyline class="StaffLines" fill="none" stroke="#000000" stroke-width="0.40" stroke-linejoin="bevel" points="8.40053,90.2699 536.482,90.2699"/>
<polyline class="StaffLines" fill="none" stroke="#000000" stroke-width="0.40" stroke-linejoin="bevel" points="8.40053,95.2702 536.482,95.2702"/>
<path class="SlurSegment" stroke="#000000" stroke-width="0.35" stroke-linecap="round" stroke-linejoin="round" fill-rule="evenodd" d="M343.382,94.0201 C358.719,100.121 404.73,100.121 420.066,94.0201 C404.73,100.921 358.719,100.921 343.382,94.0201"/>
<path class="SlurSegment" stroke="#000000" stroke-width="0.35" stroke-linecap="round" stroke-linejoin="round" fill-rule="evenodd" d="M348.776,48.7102 C362.416,54.8106 403.333,54.8106 416.972,48.7102 C403.333,55.6107 362.416,55.6107 348.776,48.7102"/>
<path class="SlurSegment" stroke="#000000" stroke-width="0.35" stroke-linecap="round" stroke-linejoin="round" fill-rule="evenodd" d="M348.776,58.7109 C362.416,64.8113 403.333,64.8113 416.972,58.7109 C403.333,65.6113 362.416,65.6113 348.776,58.7109"/>
<polyline class="BarLine" stroke="#000000" stroke-width="0.80" stroke-linejoin="bevel" points="8.80055,22.7656 8.80055,95.2702"/>
<polyline class="BarLine" stroke="#000000" stroke-width="0.80" stroke-linejoin="bevel" points="531.582,22.7656 531.582,95.2702"/>
<polyline class="BarLine" stroke="#000000" stroke-width="2.50" stroke-linejoin="bevel" points="535.232,22.7656 535.232,95.2702"/>
<polyline class="BarLine" stroke="#000000" stroke-width="0.80" stroke-linejoin="bevel" points="329.521,22.7656 329.521,95.2702"/>
<path class="Accidental" d="M499.535,53.9977 C499.535,54.2451 499.411,54.3688 499.164,54.3688 C498.916,54.3688 498.793,54.2451 498.793,53.9977 L498.793,51.1071 L497.133,51.7321 L497.133,54.8961 C497.133,55.1435 497.009,55.2672 496.761,55.2672 C496.514,55.2672 496.39,55.1435 496.39,54.8961 L496.39,51.986 L495.765,52.2203 C495.752,52.2334 495.7,52.2399 495.609,52.2399 C495.505,52.2399 495.414,52.2008 495.336,52.1227 C495.258,52.0446 495.219,51.9534 495.219,51.8492 L495.219,50.6383 C495.219,50.443 495.303,50.3193 495.472,50.2672 L496.39,49.9547 L496.39,46.7516 L495.765,46.9664 C495.752,46.9794 495.7,46.986 495.609,46.986 C495.505,46.986 495.414,46.9469 495.336,46.8688 C495.258,46.7906 495.219,46.6995 495.219,46.5953 L495.219,45.3844 C495.219,45.2021 495.303,45.0849 495.472,45.0328 L496.39,44.6813 L496.39,41.5367 C496.39,41.2893 496.514,41.1656 496.761,41.1656 C497.009,41.1656 497.133,41.2893 497.133,41.5367 L497.133,44.4274 L498.793,43.8024 L498.793,40.6383 C498.793,40.3909 498.916,40.2672 499.164,40.2672 C499.411,40.2672 499.535,40.3909 499.535,40.6383 L499.535,43.5485 L500.179,43.3141 C500.192,43.3011 500.238,43.2946 500.316,43.2946 C500.407,43.2946 500.505,43.3336 500.609,43.4117 C500.687,43.4899 500.726,43.581 500.726,43.6852 L500.726,44.8961 C500.726,45.0784 500.635,45.2021 500.453,45.2672 L499.535,45.5797 L499.535,48.7828 L500.179,48.568 C500.192,48.555 500.238,48.5485 500.316,48.5485 C500.407,48.5485 500.505,48.5875 500.609,48.6656 C500.687,48.7438 500.726,48.8349 500.726,48.9391 L500.726,50.15 C500.726,50.3193 500.635,50.4365 500.453,50.5016 L499.535,50.8531 L499.535,53.9977 M498.793,45.8727 L497.133,46.4586 L497.133,49.6617 L498.793,49.0758 L498.793,45.8727 "/>
<polyline class="LedgerLine" stroke="#000000" stroke-width="0.80" stroke-linecap="square" stroke-linejoin="bevel" points="501.327,47.7672 510.91,47.7672"/>
<polyline class="LedgerLine" stroke="#000000" stroke-width="0.80" stroke-linecap="square" stroke-linejoin="bevel" points="501.327,52.7675 510.91,52.7675"/>
<polyline class="LedgerLine" stroke="#000000" stroke-width="0.80" stroke-linecap="square" stroke-linejoin="bevel" points="444.437,47.7672 454.381,47.7672"/>
<polyline class="LedgerLine" stroke="#000000" stroke-width="0.80" stroke-linecap="square" stroke-linejoin="bevel" points="444.437,52.7675 454.381,52.7675"/>
<polyline class="LedgerLine" stroke="#000000" stroke-width="0.80" stroke-linecap="square" stroke-linejoin="bevel" points="444.437,57.7678 454.381,57.7678"/>
<polyline class="LedgerLine" stroke="#000000" stroke-width="0.80" stroke-linecap="square" stroke-linejoin="bevel" points="416.262,47.7672 425.846,47.7672"/>
<polyline class="LedgerLine" stroke="#000000" stroke-width="0.80" stroke-linecap="square" stroke-linejoin="bevel" points="416.262,52.7675 425.846,52.7675"/>
<polyline class="LedgerLine" stroke="#000000" stroke-width="0.80" stroke-linecap="square" stroke-linejoin="bevel" points="334.422,47.7672 348.899,47.7672"/>
<polyline class="LedgerLine" stroke="#000000" stroke-width="0.80" stroke-linecap="square" stroke-linejoin="bevel" points="334.422,52.7675 348.899,52.7675"/>
<polyline class="LedgerLine" stroke="#000000" stroke-width="0.80" stroke-linecap="square" stroke-linejoin="bevel" points="239.273,47.7672 249.217,47.7672"/>
<polyline class="LedgerLine" stroke="#000000" stroke-width="0.80" stroke-linecap="square" stroke-linejoin="bevel" points="154.716,47.7672 169.194,47.7672"/>
<polyline class="LedgerLine" stroke="#000000" stroke-width="0.56" stroke-linecap="square" stroke-linejoin="bevel" points="128.762,47.7672 136.37,47.7672"/>
<polyline class="LedgerLine" stroke="#000000" stroke-width="0.56" stroke-linecap="square" stroke-linejoin="bevel" points="128.762,52.7675 136.37,52.7675"/>
<polyline class="LedgerLine" stroke="#000000" stroke-width="0.80" stroke-linecap="square" stroke-linejoin="bevel" points="43.0371,47.7672 57.5146,47.7672"/>
<path class="Note" d="M507.221,90.0161 C507.846,90.0161 508.374,90.1789 508.803,90.5044 C509.207,90.856 509.409,91.2987 509.409,91.8325 C509.409,92.731 508.947,93.5708 508.022,94.3521 C507.085,95.1333 506.082,95.5239 505.014,95.5239 C504.389,95.5239 503.862,95.3612 503.432,95.0357 C503.029,94.6841 502.827,94.2414 502.827,93.7075 C502.827,92.8091 503.296,91.9693 504.233,91.188 C505.145,90.4068 506.141,90.0161 507.221,90.0161"/>
<path class="Note" d="M507.221,45.0133 C507.846,45.0133 508.374,45.1761 508.803,45.5016 C509.207,45.8531 509.409,46.2959 509.409,46.8297 C509.409,47.7281 508.947,48.568 508.022,49.3492 C507.085,50.1305 506.082,50.5211 505.014,50.5211 C504.389,50.5211 503.862,50.3584 503.432,50.0328 C503.029,49.6813 502.827,49.2386 502.827,48.7047 C502.827,47.8063 503.296,46.9664 504.233,46.1852 C505.145,45.4039 506.141,45.0133 507.221,45.0133"/>
<path class="Note" d="M507.221,50.0136 C507.846,50.0136 508.374,50.1764 508.803,50.5019 C509.207,50.8535 509.409,51.2962 509.409,51.83 C509.409,52.7285 508.947,53.5683 508.022,54.3496 C507.085,55.1308 506.082,55.5214 505.014,55.5214 C504.389,55.5214 503.862,55.3587 503.432,55.0331 C503.029,54.6816 502.827,54.2389 502.827,53.705 C502.827,52.8066 503.296,51.9667 504.233,51.1855 C505.145,50.4042 506.141,50.0136 507.221,50.0136"/>
<path class="Note" d="M507.221,40.013 C507.846,40.013 508.374,40.1757 508.803,40.5013 C509.207,40.8528 509.409,41.2955 509.409,41.8294 C509.409,42.7278 508.947,43.5677 508.022,44.3489 C507.085,45.1302 506.082,45.5208 505.014,45.5208 C504.389,45.5208 503.862,45.358 503.432,45.0325 C503.029,44.681 502.827,44.2382 502.827,43.7044 C502.827,42.806 503.296,41.9661 504.233,41.1849 C505.145,40.4036 506.141,40.013 507.221,40.013"/>
<path class="Note" transform="matrix(0.700044,0,0,0.700044,475.459,42.7669)" d="M4.39453,-2.75391 C5.01953,-2.75391 5.54688,-2.59115 5.97656,-2.26562 C6.38021,-1.91406 6.58203,-1.47135 6.58203,-0.9375 C6.58203,-0.0390625 6.11979,0.800781 5.19531,1.58203 C4.25781,2.36328 3.25521,2.75391 2.1875,2.75391 C1.5625,2.75391 1.03516,2.59115 0.605469,2.26562 C0.201823,1.91406 0,1.47135 0,0.9375 C0,0.0390625 0.46875,-0.800781 1.40625,-1.58203 C2.31771,-2.36328 3.3138,-2.75391 4.39453,-2.75391"/>
<path class="Note" d="M452.245,83.961 C452.245,83.7396 452.161,83.5508 451.991,83.3946 C451.822,83.2253 451.627,83.1407 451.405,83.1407 C451.015,83.1407 450.227,83.5313 449.042,84.3125 C447.818,85.1068 447.07,85.6732 446.796,86.0118 C446.653,86.1941 446.581,86.3829 446.581,86.5782 C446.581,86.7995 446.666,86.9883 446.835,87.1446 C446.991,87.3138 447.187,87.3985 447.421,87.3985 C447.799,87.3985 448.593,87.0079 449.804,86.2266 C451.002,85.4454 451.744,84.8789 452.03,84.5274 C452.174,84.3581 452.245,84.1693 452.245,83.961 M451.21,82.5157 C452.33,82.5157 452.89,82.9974 452.89,83.961 C452.89,84.4297 452.753,84.9766 452.48,85.6016 C452.206,86.2136 451.842,86.6823 451.386,87.0079 C450.383,87.6849 449.127,88.0235 447.616,88.0235 C446.497,88.0235 445.937,87.5417 445.937,86.5782 C445.937,86.1485 446.073,85.6081 446.347,84.9571 C446.607,84.3321 446.972,83.8568 447.441,83.5313 C448.443,82.8542 449.7,82.5157 451.21,82.5157"/>
<path class="Note" d="M452.245,51.4589 C452.245,51.2376 452.161,51.0488 451.991,50.8925 C451.822,50.7233 451.627,50.6386 451.405,50.6386 C451.015,50.6386 450.227,51.0292 449.042,51.8105 C447.818,52.6048 447.07,53.1712 446.796,53.5097 C446.653,53.692 446.581,53.8808 446.581,54.0761 C446.581,54.2975 446.666,54.4863 446.835,54.6425 C446.991,54.8118 447.187,54.8964 447.421,54.8964 C447.799,54.8964 448.593,54.5058 449.804,53.7246 C451.002,52.9433 451.744,52.3769 452.03,52.0253 C452.174,51.8561 452.245,51.6673 452.245,51.4589 M451.21,50.0136 C452.33,50.0136 452.89,50.4954 452.89,51.4589 C452.89,51.9277 452.753,52.4746 452.48,53.0996 C452.206,53.7115 451.842,54.1803 451.386,54.5058 C450.383,55.1829 449.127,55.5214 447.616,55.5214 C446.497,55.5214 445.937,55.0397 445.937,54.0761 C445.937,53.6464 446.073,53.1061 446.347,52.455 C446.607,51.83 446.972,51.3548 447.441,51.0292 C448.443,50.3522 449.7,50.0136 451.21,50.0136"/>
<path class="Note" d="M452.245,56.4592 C452.245,56.2379 452.161,56.0491 451.991,55.8928 C451.822,55.7236 451.627,55.6389 451.405,55.6389 C451.015,55.6389 450.227,56.0296 449.042,56.8108 C447.818,57.6051 447.07,58.1715 446.796,58.51 C446.653,58.6923 446.581,58.8811 446.581,59.0764 C446.581,59.2978 446.666,59.4866 446.835,59.6428 C446.991,59.8121 447.187,59.8967 447.421,59.8967 C447.799,59.8967 448.593,59.5061 449.804,58.7249 C451.002,57.9436 451.744,57.3772 452.03,57.0257 C452.174,56.8564 452.245,56.6676 452.245,56.4592 M451.21,55.0139 C452.33,55.0139 452.89,55.4957 452.89,56.4592 C452.89,56.928 452.753,57.4749 452.48,58.0999 C452.206,58.7118 451.842,59.1806 451.386,59.5061 C450.383,60.1832 449.127,60.5217 447.616,60.5217 C446.497,60.5217 445.937,60.04 445.937,59.0764 C445.937,58.6467 446.073,58.1064 446.347,57.4553 C446.607,56.8303 446.972,56.3551 447.441,56.0296 C448.443,55.3525 449.7,55.0139 451.21,55.0139"/>
<path class="Note" d="M450.512,42.5131 C451.137,42.5131 451.664,42.6759 452.094,43.0014 C452.497,43.353 452.699,43.7957 452.699,44.3296 C452.699,45.228 452.237,46.0678 451.312,46.8491 C450.375,47.6303 449.372,48.021 448.305,48.021 C447.68,48.021 447.152,47.8582 446.723,47.5327 C446.319,47.1811 446.117,46.7384 446.117,46.2046 C446.117,45.3061 446.586,44.4663 447.523,43.685 C448.435,42.9038 449.431,42.5131 450.512,42.5131"/>
<path class="Note" d="M422.157,87.516 C422.782,87.516 423.309,87.6787 423.739,88.0043 C424.143,88.3558 424.344,88.7985 424.344,89.3324 C424.344,90.2308 423.882,91.0707 422.958,91.8519 C422.02,92.6332 421.018,93.0238 419.95,93.0238 C419.325,93.0238 418.798,92.861 418.368,92.5355 C417.964,92.1839 417.762,91.7412 417.762,91.2074 C417.762,90.3089 418.231,89.4691 419.169,88.6879 C420.08,87.9066 421.076,87.516 422.157,87.516"/>
<path class="Note" d="M422.157,42.5131 C422.782,42.5131 423.309,42.6759 423.739,43.0014 C424.143,43.353 424.344,43.7957 424.344,44.3296 C424.344,45.228 423.882,46.0678 422.958,46.8491 C422.02,47.6303 421.018,48.021 419.95,48.021 C419.325,48.021 418.798,47.8582 418.368,47.5327 C417.964,47.1811 417.762,46.7384 417.762,46.2046 C417.762,45.3061 418.231,44.4663 419.169,43.685 C420.08,42.9038 421.076,42.5131 422.157,42.5131"/>
<path class="Note" d="M422.157,52.5138 C422.782,52.5138 423.309,52.6765 423.739,53.0021 C424.143,53.3536 424.344,53.7963 424.344,54.3302 C424.344,55.2286 423.882,56.0685 422.958,56.8497 C422.02,57.631 421.018,58.0216 419.95,58.0216 C419.325,58.0216 418.798,57.8588 418.368,57.5333 C417.964,57.1817 417.762,56.739 417.762,56.2052 C417.762,55.3067 418.231,54.4669 419.169,53.6856 C420.08,52.9044 421.076,52.5138 422.157,52.5138"/>
<path class="Note" d="M422.157,37.5128 C422.782,37.5128 423.309,37.6756 423.739,38.0011 C424.143,38.3527 424.344,38.7954 424.344,39.3292 C424.344,40.2277 423.882,41.0675 422.958,41.8488 C422.02,42.63 421.018,43.0206 419.95,43.0206 C419.325,43.0206 418.798,42.8579 418.368,42.5324 C417.964,42.1808 417.762,41.7381 417.762,41.2042 C417.762,40.3058 418.231,39.466 419.169,38.6847 C420.08,37.9035 421.076,37.5128 422.157,37.5128"/>
<path class="Note" d="M338.5,88.141 C339.307,87.7243 340.362,87.516 341.664,87.516 C342.966,87.516 344.021,87.7243 344.828,88.141 C345.635,88.5446 346.163,88.9938 346.41,89.4886 L346.41,88.0238 C346.41,87.6853 346.573,87.516 346.898,87.516 C347.224,87.516 347.387,87.6853 347.387,88.0238 L347.387,92.516 C347.387,92.8545 347.224,93.0238 346.898,93.0238 C346.573,93.0238 346.41,92.8545 346.41,92.516 L346.41,91.0511 C346.163,91.5459 345.635,91.9951 344.828,92.3988 C344.021,92.8155 342.966,93.0238 341.664,93.0238 C340.362,93.0238 339.307,92.8155 338.5,92.3988 C337.68,91.9821 337.146,91.5329 336.898,91.0511 L336.898,92.516 C336.898,92.8545 336.736,93.0238 336.41,93.0238 C336.085,93.0238 335.922,92.8545 335.922,92.516 L335.922,88.0238 C335.922,87.6853 336.085,87.516 336.41,87.516 C336.736,87.516 336.898,87.6853 336.898,88.0238 L336.898,89.4886 C337.146,89.0069 337.68,88.5576 338.5,88.141 M341,88.0238 C340.557,88.0238 340.219,88.1866 339.984,88.5121 C339.75,88.8506 339.633,89.2738 339.633,89.7816 C339.633,90.3936 339.796,90.9209 340.121,91.3636 C340.434,91.7933 340.792,92.0928 341.195,92.2621 C341.573,92.4313 341.944,92.516 342.309,92.516 C342.79,92.516 343.135,92.3532 343.344,92.0277 C343.565,91.6892 343.676,91.266 343.676,90.7582 C343.676,90.1462 343.513,89.6188 343.187,89.1761 C342.901,88.7595 342.549,88.46 342.133,88.2777 C341.755,88.1084 341.378,88.0238 341,88.0238"/>
<path class="Note" d="M338.5,43.1381 C339.307,42.7215 340.362,42.5131 341.664,42.5131 C342.966,42.5131 344.021,42.7215 344.828,43.1381 C345.635,43.5418 346.163,43.991 346.41,44.4858 L346.41,43.021 C346.41,42.6824 346.573,42.5131 346.898,42.5131 C347.224,42.5131 347.387,42.6824 347.387,43.021 L347.387,47.5131 C347.387,47.8517 347.224,48.021 346.898,48.021 C346.573,48.021 346.41,47.8517 346.41,47.5131 L346.41,46.0483 C346.163,46.5431 345.635,46.9923 344.828,47.396 C344.021,47.8126 342.966,48.021 341.664,48.021 C340.362,48.021 339.307,47.8126 338.5,47.396 C337.68,46.9793 337.146,46.5301 336.898,46.0483 L336.898,47.5131 C336.898,47.8517 336.736,48.021 336.41,48.021 C336.085,48.021 335.922,47.8517 335.922,47.5131 L335.922,43.021 C335.922,42.6824 336.085,42.5131 336.41,42.5131 C336.736,42.5131 336.898,42.6824 336.898,43.021 L336.898,44.4858 C337.146,44.004 337.68,43.5548 338.5,43.1381 M341,43.021 C340.557,43.021 340.219,43.1837 339.984,43.5092 C339.75,43.8478 339.633,44.271 339.633,44.7788 C339.633,45.3907 339.796,45.9181 340.121,46.3608 C340.434,46.7905 340.792,47.09 341.195,47.2592 C341.573,47.4285 341.944,47.5131 342.309,47.5131 C342.79,47.5131 343.135,47.3504 343.344,47.0249 C343.565,46.6863 343.676,46.2631 343.676,45.7553 C343.676,45.1434 343.513,44.616 343.187,44.1733 C342.901,43.7566 342.549,43.4572 342.133,43.2749 C341.755,43.1056 341.378,43.021 341,43.021"/>
<path class="Note" d="M338.5,53.1388 C339.307,52.7221 340.362,52.5138 341.664,52.5138 C342.966,52.5138 344.021,52.7221 344.828,53.1388 C345.635,53.5424 346.163,53.9916 346.41,54.4864 L346.41,53.0216 C346.41,52.683 346.573,52.5138 346.898,52.5138 C347.224,52.5138 347.387,52.683 347.387,53.0216 L347.387,57.5138 C347.387,57.8523 347.224,58.0216 346.898,58.0216 C346.573,58.0216 346.41,57.8523 346.41,57.5138 L346.41,56.0489 C346.163,56.5437 345.635,56.9929 344.828,57.3966 C344.021,57.8133 342.966,58.0216 341.664,58.0216 C340.362,58.0216 339.307,57.8133 338.5,57.3966 C337.68,56.9799 337.146,56.5307 336.898,56.0489 L336.898,57.5138 C336.898,57.8523 336.736,58.0216 336.41,58.0216 C336.085,58.0216 335.922,57.8523 335.922,57.5138 L335.922,53.0216 C335.922,52.683 336.085,52.5138 336.41,52.5138 C336.736,52.5138 336.898,52.683 336.898,53.0216 L336.898,54.4864 C337.146,54.0047 337.68,53.5554 338.5,53.1388 M341,53.0216 C340.557,53.0216 340.219,53.1843 339.984,53.5099 C339.75,53.8484 339.633,54.2716 339.633,54.7794 C339.633,55.3914 339.796,55.9187 340.121,56.3614 C340.434,56.7911 340.792,57.0906 341.195,57.2599 C341.573,57.4291 341.944,57.5138 342.309,57.5138 C342.79,57.5138 343.135,57.351 343.344,57.0255 C343.565,56.687 343.676,56.2638 343.676,55.756 C343.676,55.144 343.513,54.6166 343.187,54.1739 C342.901,53.7573 342.549,53.4578 342.133,53.2755 C341.755,53.1062 341.378,53.0216 341,53.0216"/>
<path class="Note" d="M338.5,35.6377 C339.307,35.221 340.362,35.0127 341.664,35.0127 C342.966,35.0127 344.021,35.221 344.828,35.6377 C345.635,36.0413 346.163,36.4905 346.41,36.9853 L346.41,35.5205 C346.41,35.1819 346.573,35.0127 346.898,35.0127 C347.224,35.0127 347.387,35.1819 347.387,35.5205 L347.387,40.0127 C347.387,40.3512 347.224,40.5205 346.898,40.5205 C346.573,40.5205 346.41,40.3512 346.41,40.0127 L346.41,38.5478 C346.163,39.0426 345.635,39.4918 344.828,39.8955 C344.021,40.3122 342.966,40.5205 341.664,40.5205 C340.362,40.5205 339.307,40.3122 338.5,39.8955 C337.68,39.4788 337.146,39.0296 336.898,38.5478 L336.898,40.0127 C336.898,40.3512 336.736,40.5205 336.41,40.5205 C336.085,40.5205 335.922,40.3512 335.922,40.0127 L335.922,35.5205 C335.922,35.1819 336.085,35.0127 336.41,35.0127 C336.736,35.0127 336.898,35.1819 336.898,35.5205 L336.898,36.9853 C337.146,36.5036 337.68,36.0543 338.5,35.6377 M341,35.5205 C340.557,35.5205 340.219,35.6832 339.984,36.0088 C339.75,36.3473 339.633,36.7705 339.633,37.2783 C339.633,37.8903 339.796,38.4176 340.121,38.8603 C340.434,39.29 340.792,39.5895 341.195,39.7588 C341.573,39.928 341.944,40.0127 342.309,40.0127 C342.79,40.0127 343.135,39.8499 343.344,39.5244 C343.565,39.1858 343.676,38.7627 343.676,38.2549 C343.676,37.6429 343.513,37.1155 343.187,36.6728 C342.901,36.2562 342.549,35.9567 342.133,35.7744 C341.755,35.6051 341.378,35.5205 341,35.5205"/>
<path class="Note" d="M304.127,35.0127 C304.752,35.0127 305.279,35.1754 305.709,35.501 C306.112,35.8525 306.314,36.2952 306.314,36.8291 C306.314,37.7275 305.852,38.5674 304.927,39.3486 C303.99,40.1299 302.987,40.5205 301.92,40.5205 C301.295,40.5205 300.767,40.3577 300.338,40.0322 C299.934,39.6806 299.732,39.2379 299.732,38.7041 C299.732,37.8056 300.201,36.9658 301.138,36.1845 C302.05,35.4033 303.046,35.0127 304.127,35.0127"/>
<path class="Note" transform="matrix(0.700044,0,0,0.700044,271.33,37.7666)" d="M4.39453,-2.75391 C5.01953,-2.75391 5.54688,-2.59115 5.97656,-2.26562 C6.38021,-1.91406 6.58203,-1.47135 6.58203,-0.9375 C6.58203,-0.0390625 6.11979,0.800781 5.19531,1.58203 C4.25781,2.36328 3.25521,2.75391 2.1875,2.75391 C1.5625,2.75391 1.03516,2.59115 0.605469,2.26562 C0.201823,1.91406 0,1.47135 0,0.9375 C0,0.0390625 0.46875,-0.800781 1.40625,-1.58203 C2.31771,-2.36328 3.3138,-2.75391 4.39453,-2.75391"/>
<path class="Note" d="M247.082,86.4611 C247.082,86.2398 246.997,86.051 246.828,85.8947 C246.658,85.7255 246.463,85.6408 246.242,85.6408 C245.851,85.6408 245.063,86.0314 243.879,86.8127 C242.655,87.607 241.906,88.1734 241.632,88.5119 C241.489,88.6942 241.418,88.883 241.418,89.0783 C241.418,89.2997 241.502,89.4885 241.671,89.6447 C241.828,89.814 242.023,89.8986 242.257,89.8986 C242.635,89.8986 243.429,89.508 244.64,88.7268 C245.838,87.9455 246.58,87.3791 246.867,87.0275 C247.01,86.8583 247.082,86.6695 247.082,86.4611 M246.046,85.0158 C247.166,85.0158 247.726,85.4976 247.726,86.4611 C247.726,86.9299 247.589,87.4768 247.316,88.1018 C247.043,88.7137 246.678,89.1825 246.222,89.508 C245.22,90.1851 243.963,90.5236 242.453,90.5236 C241.333,90.5236 240.773,90.0419 240.773,89.0783 C240.773,88.6486 240.91,88.1083 241.183,87.4572 C241.444,86.8322 241.808,86.357 242.277,86.0314 C243.28,85.3544 244.536,85.0158 246.046,85.0158"/>
<path class="Note" d="M247.082,41.4583 C247.082,41.2369 246.997,41.0481 246.828,40.8919 C246.658,40.7226 246.463,40.638 246.242,40.638 C245.851,40.638 245.063,41.0286 243.879,41.8099 C242.655,42.6041 241.906,43.1705 241.632,43.5091 C241.489,43.6914 241.418,43.8802 241.418,44.0755 C241.418,44.2968 241.502,44.4856 241.671,44.6419 C241.828,44.8112 242.023,44.8958 242.257,44.8958 C242.635,44.8958 243.429,44.5052 244.64,43.7239 C245.838,42.9427 246.58,42.3763 246.867,42.0247 C247.01,41.8554 247.082,41.6666 247.082,41.4583 M246.046,40.013 C247.166,40.013 247.726,40.4948 247.726,41.4583 C247.726,41.9271 247.589,42.4739 247.316,43.0989 C247.043,43.7109 246.678,44.1797 246.222,44.5052 C245.22,45.1823 243.963,45.5208 242.453,45.5208 C241.333,45.5208 240.773,45.039 240.773,44.0755 C240.773,43.6458 240.91,43.1054 241.183,42.4544 C241.444,41.8294 241.808,41.3541 242.277,41.0286 C243.28,40.3515 244.536,40.013 246.046,40.013"/>
<path class="Note" d="M247.082,46.4586 C247.082,46.2373 246.997,46.0485 246.828,45.8922 C246.658,45.7229 246.463,45.6383 246.242,45.6383 C245.851,45.6383 245.063,46.0289 243.879,46.8102 C242.655,47.6044 241.906,48.1709 241.632,48.5094 C241.489,48.6917 241.418,48.8805 241.418,49.0758 C241.418,49.2972 241.502,49.486 241.671,49.6422 C241.828,49.8115 242.023,49.8961 242.257,49.8961 C242.635,49.8961 243.429,49.5055 244.64,48.7242 C245.838,47.943 246.58,47.3766 246.867,47.025 C247.01,46.8558 247.082,46.6669 247.082,46.4586 M246.046,45.0133 C247.166,45.0133 247.726,45.4951 247.726,46.4586 C247.726,46.9274 247.589,47.4742 247.316,48.0992 C247.043,48.7112 246.678,49.18 246.222,49.5055 C245.22,50.1826 243.963,50.5211 242.453,50.5211 C241.333,50.5211 240.773,50.0393 240.773,49.0758 C240.773,48.6461 240.91,48.1058 241.183,47.4547 C241.444,46.8297 241.808,46.3544 242.277,46.0289 C243.28,45.3518 244.536,45.0133 246.046,45.0133"/>
<path class="Note" d="M245.348,32.5125 C245.973,32.5125 246.5,32.6753 246.93,33.0008 C247.334,33.3524 247.536,33.7951 247.536,34.3289 C247.536,35.2274 247.073,36.0672 246.149,36.8485 C245.211,37.6297 244.209,38.0203 243.141,38.0203 C242.516,38.0203 241.989,37.8576 241.559,37.532 C241.155,37.1805 240.954,36.7378 240.954,36.2039 C240.954,35.3055 241.422,34.4656 242.36,33.6844 C243.271,32.9031 244.267,32.5125 245.348,32.5125"/>
<path class="Note" d="M158.795,80.6405 C159.602,80.2238 160.657,80.0155 161.959,80.0155 C163.261,80.0155 164.315,80.2238 165.123,80.6405 C165.93,81.0442 166.457,81.4934 166.705,81.9882 L166.705,80.5233 C166.705,80.1848 166.868,80.0155 167.193,80.0155 C167.519,80.0155 167.681,80.1848 167.681,80.5233 L167.681,85.0155 C167.681,85.354 167.519,85.5233 167.193,85.5233 C166.868,85.5233 166.705,85.354 166.705,85.0155 L166.705,83.5507 C166.457,84.0455 165.93,84.4947 165.123,84.8983 C164.315,85.315 163.261,85.5233 161.959,85.5233 C160.657,85.5233 159.602,85.315 158.795,84.8983 C157.974,84.4817 157.44,84.0324 157.193,83.5507 L157.193,85.0155 C157.193,85.354 157.03,85.5233 156.705,85.5233 C156.379,85.5233 156.216,85.354 156.216,85.0155 L156.216,80.5233 C156.216,80.1848 156.379,80.0155 156.705,80.0155 C157.03,80.0155 157.193,80.1848 157.193,80.5233 L157.193,81.9882 C157.44,81.5064 157.974,81.0572 158.795,80.6405 M161.295,80.5233 C160.852,80.5233 160.513,80.6861 160.279,81.0116 C160.045,81.3501 159.927,81.7733 159.927,82.2811 C159.927,82.8931 160.09,83.4205 160.416,83.8632 C160.728,84.2929 161.086,84.5923 161.49,84.7616 C161.868,84.9309 162.239,85.0155 162.603,85.0155 C163.085,85.0155 163.43,84.8527 163.638,84.5272 C163.86,84.1887 163.97,83.7655 163.97,83.2577 C163.97,82.6457 163.808,82.1184 163.482,81.6757 C163.196,81.259 162.844,80.9595 162.427,80.7772 C162.05,80.608 161.672,80.5233 161.295,80.5233"/>
<path class="Note" d="M158.795,40.638 C159.602,40.2213 160.657,40.013 161.959,40.013 C163.261,40.013 164.315,40.2213 165.123,40.638 C165.93,41.0416 166.457,41.4909 166.705,41.9856 L166.705,40.5208 C166.705,40.1823 166.868,40.013 167.193,40.013 C167.519,40.013 167.681,40.1823 167.681,40.5208 L167.681,45.013 C167.681,45.3515 167.519,45.5208 167.193,45.5208 C166.868,45.5208 166.705,45.3515 166.705,45.013 L166.705,43.5481 C166.457,44.0429 165.93,44.4922 165.123,44.8958 C164.315,45.3125 163.261,45.5208 161.959,45.5208 C160.657,45.5208 159.602,45.3125 158.795,44.8958 C157.974,44.4791 157.44,44.0299 157.193,43.5481 L157.193,45.013 C157.193,45.3515 157.03,45.5208 156.705,45.5208 C156.379,45.5208 156.216,45.3515 156.216,45.013 L156.216,40.5208 C156.216,40.1823 156.379,40.013 156.705,40.013 C157.03,40.013 157.193,40.1823 157.193,40.5208 L157.193,41.9856 C157.44,41.5039 157.974,41.0547 158.795,40.638 M161.295,40.5208 C160.852,40.5208 160.513,40.6836 160.279,41.0091 C160.045,41.3476 159.927,41.7708 159.927,42.2786 C159.927,42.8906 160.09,43.4179 160.416,43.8606 C160.728,44.2903 161.086,44.5898 161.49,44.7591 C161.868,44.9284 162.239,45.013 162.603,45.013 C163.085,45.013 163.43,44.8502 163.638,44.5247 C163.86,44.1862 163.97,43.763 163.97,43.2552 C163.97,42.6432 163.808,42.1159 163.482,41.6731 C163.196,41.2565 162.844,40.957 162.427,40.7747 C162.05,40.6054 161.672,40.5208 161.295,40.5208"/>
<path class="Note" d="M158.795,48.1385 C159.602,47.7218 160.657,47.5135 161.959,47.5135 C163.261,47.5135 164.315,47.7218 165.123,48.1385 C165.93,48.5421 166.457,48.9913 166.705,49.4861 L166.705,48.0213 C166.705,47.6827 166.868,47.5135 167.193,47.5135 C167.519,47.5135 167.681,47.6827 167.681,48.0213 L167.681,52.5135 C167.681,52.852 167.519,53.0213 167.193,53.0213 C166.868,53.0213 166.705,52.852 166.705,52.5135 L166.705,51.0486 C166.457,51.5434 165.93,51.9926 165.123,52.3963 C164.315,52.8129 163.261,53.0213 161.959,53.0213 C160.657,53.0213 159.602,52.8129 158.795,52.3963 C157.974,51.9796 157.44,51.5304 157.193,51.0486 L157.193,52.5135 C157.193,52.852 157.03,53.0213 156.705,53.0213 C156.379,53.0213 156.216,52.852 156.216,52.5135 L156.216,48.0213 C156.216,47.6827 156.379,47.5135 156.705,47.5135 C157.03,47.5135 157.193,47.6827 157.193,48.0213 L157.193,49.4861 C157.44,49.0043 157.974,48.5551 158.795,48.1385 M161.295,48.0213 C160.852,48.0213 160.513,48.184 160.279,48.5096 C160.045,48.8481 159.927,49.2713 159.927,49.7791 C159.927,50.3911 160.09,50.9184 160.416,51.3611 C160.728,51.7908 161.086,52.0903 161.49,52.2596 C161.868,52.4288 162.239,52.5135 162.603,52.5135 C163.085,52.5135 163.43,52.3507 163.638,52.0252 C163.86,51.6866 163.97,51.2635 163.97,50.7556 C163.97,50.1437 163.808,49.6163 163.482,49.1736 C163.196,48.7569 162.844,48.4575 162.427,48.2752 C162.05,48.1059 161.672,48.0213 161.295,48.0213"/>
<path class="Note" d="M158.795,35.6377 C159.602,35.221 160.657,35.0127 161.959,35.0127 C163.261,35.0127 164.315,35.221 165.123,35.6377 C165.93,36.0413 166.457,36.4905 166.705,36.9853 L166.705,35.5205 C166.705,35.1819 166.868,35.0127 167.193,35.0127 C167.519,35.0127 167.681,35.1819 167.681,35.5205 L167.681,40.0127 C167.681,40.3512 167.519,40.5205 167.193,40.5205 C166.868,40.5205 166.705,40.3512 166.705,40.0127 L166.705,38.5478 C166.457,39.0426 165.93,39.4918 165.123,39.8955 C164.315,40.3122 163.261,40.5205 161.959,40.5205 C160.657,40.5205 159.602,40.3122 158.795,39.8955 C157.974,39.4788 157.44,39.0296 157.193,38.5478 L157.193,40.0127 C157.193,40.3512 157.03,40.5205 156.705,40.5205 C156.379,40.5205 156.216,40.3512 156.216,40.0127 L156.216,35.5205 C156.216,35.1819 156.379,35.0127 156.705,35.0127 C157.03,35.0127 157.193,35.1819 157.193,35.5205 L157.193,36.9853 C157.44,36.5036 157.974,36.0543 158.795,35.6377 M161.295,35.5205 C160.852,35.5205 160.513,35.6832 160.279,36.0088 C160.045,36.3473 159.927,36.7705 159.927,37.2783 C159.927,37.8903 160.09,38.4176 160.416,38.8603 C160.728,39.29 161.086,39.5895 161.49,39.7588 C161.868,39.928 162.239,40.0127 162.603,40.0127 C163.085,40.0127 163.43,39.8499 163.638,39.5244 C163.86,39.1858 163.97,38.7627 163.97,38.2549 C163.97,37.6429 163.808,37.1155 163.482,36.6728 C163.196,36.2562 162.844,35.9567 162.427,35.7744 C162.05,35.6051 161.672,35.5205 161.295,35.5205"/>
<path class="Note" transform="matrix(0.700044,0,0,0.700044,130.262,75.2689)" d="M4.39453,-2.75391 C5.01953,-2.75391 5.54688,-2.59115 5.97656,-2.26562 C6.38021,-1.91406 6.58203,-1.47135 6.58203,-0.9375 C6.58203,-0.0390625 6.11979,0.800781 5.19531,1.58203 C4.25781,2.36328 3.25521,2.75391 2.1875,2.75391 C1.5625,2.75391 1.03516,2.59115 0.605469,2.26562 C0.201823,1.91406 0,1.47135 0,0.9375 C0,0.0390625 0.46875,-0.800781 1.40625,-1.58203 C2.31771,-2.36328 3.3138,-2.75391 4.39453,-2.75391"/>
<path class="Note" transform="matrix(0.700044,0,0,0.700044,130.262,47.7672)" d="M4.39453,-2.75391 C5.01953,-2.75391 5.54688,-2.59115 5.97656,-2.26562 C6.38021,-1.91406 6.58203,-1.47135 6.58203,-0.9375 C6.58203,-0.0390625 6.11979,0.800781 5.19531,1.58203 C4.25781,2.36328 3.25521,2.75391 2.1875,2.75391 C1.5625,2.75391 1.03516,2.59115 0.605469,2.26562 C0.201823,1.91406 0,1.47135 0,0.9375 C0,0.0390625 0.46875,-0.800781 1.40625,-1.58203 C2.31771,-2.36328 3.3138,-2.75391 4.39453,-2.75391"/>
<path class="Note" transform="matrix(0.700044,0,0,0.700044,130.262,52.7675)" d="M4.39453,-2.75391 C5.01953,-2.75391 5.54688,-2.59115 5.97656,-2.26562 C6.38021,-1.91406 6.58203,-1.47135 6.58203,-0.9375 C6.58203,-0.0390625 6.11979,0.800781 5.19531,1.58203 C4.25781,2.36328 3.25521,2.75391 2.1875,2.75391 C1.5625,2.75391 1.03516,2.59115 0.605469,2.26562 C0.201823,1.91406 0,1.47135 0,0.9375 C0,0.0390625 0.46875,-0.800781 1.40625,-1.58203 C2.31771,-2.36328 3.3138,-2.75391 4.39453,-2.75391"/>
<path class="Note" transform="matrix(0.700044,0,0,0.700044,130.262,42.7669)" d="M4.39453,-2.75391 C5.01953,-2.75391 5.54688,-2.59115 5.97656,-2.26562 C6.38021,-1.91406 6.58203,-1.47135 6.58203,-0.9375 C6.58203,-0.0390625 6.11979,0.800781 5.19531,1.58203 C4.25781,2.36328 3.25521,2.75391 2.1875,2.75391 C1.5625,2.75391 1.03516,2.59115 0.605469,2.26562 C0.201823,1.91406 0,1.47135 0,0.9375 C0,0.0390625 0.46875,-0.800781 1.40625,-1.58203 C2.31771,-2.36328 3.3138,-2.75391 4.39453,-2.75391"/>
<path class="Note" d="M47.1153,80.6405 C47.9226,80.2238 48.9773,80.0155 50.2794,80.0155 C51.5815,80.0155 52.6361,80.2238 53.4434,80.6405 C54.2507,81.0442 54.7781,81.4934 55.0255,81.9882 L55.0255,80.5233 C55.0255,80.1848 55.1882,80.0155 55.5137,80.0155 C55.8393,80.0155 56.002,80.1848 56.002,80.5233 L56.002,85.0155 C56.002,85.354 55.8393,85.5233 55.5137,85.5233 C55.1882,85.5233 55.0255,85.354 55.0255,85.0155 L55.0255,83.5507 C54.7781,84.0455 54.2507,84.4947 53.4434,84.8983 C52.6361,85.315 51.5815,85.5233 50.2794,85.5233 C48.9773,85.5233 47.9226,85.315 47.1153,84.8983 C46.295,84.4817 45.7611,84.0324 45.5137,83.5507 L45.5137,85.0155 C45.5137,85.354 45.351,85.5233 45.0255,85.5233 C44.6999,85.5233 44.5372,85.354 44.5372,85.0155 L44.5372,80.5233 C44.5372,80.1848 44.6999,80.0155 45.0255,80.0155 C45.351,80.0155 45.5137,80.1848 45.5137,80.5233 L45.5137,81.9882 C45.7611,81.5064 46.295,81.0572 47.1153,80.6405 M49.6153,80.5233 C49.1726,80.5233 48.8341,80.6861 48.5997,81.0116 C48.3653,81.3501 48.2481,81.7733 48.2481,82.2811 C48.2481,82.8931 48.4109,83.4205 48.7364,83.8632 C49.0489,84.2929 49.407,84.5923 49.8106,84.7616 C50.1882,84.9309 50.5593,85.0155 50.9239,85.0155 C51.4057,85.0155 51.7507,84.8527 51.9591,84.5272 C52.1804,84.1887 52.2911,83.7655 52.2911,83.2577 C52.2911,82.6457 52.1283,82.1184 51.8028,81.6757 C51.5163,81.259 51.1648,80.9595 50.7481,80.7772 C50.3705,80.608 49.9929,80.5233 49.6153,80.5233"/>
<path class="Note" d="M47.1153,40.638 C47.9226,40.2213 48.9773,40.013 50.2794,40.013 C51.5815,40.013 52.6361,40.2213 53.4434,40.638 C54.2507,41.0416 54.7781,41.4909 55.0255,41.9856 L55.0255,40.5208 C55.0255,40.1823 55.1882,40.013 55.5137,40.013 C55.8393,40.013 56.002,40.1823 56.002,40.5208 L56.002,45.013 C56.002,45.3515 55.8393,45.5208 55.5137,45.5208 C55.1882,45.5208 55.0255,45.3515 55.0255,45.013 L55.0255,43.5481 C54.7781,44.0429 54.2507,44.4922 53.4434,44.8958 C52.6361,45.3125 51.5815,45.5208 50.2794,45.5208 C48.9773,45.5208 47.9226,45.3125 47.1153,44.8958 C46.295,44.4791 45.7611,44.0299 45.5137,43.5481 L45.5137,45.013 C45.5137,45.3515 45.351,45.5208 45.0255,45.5208 C44.6999,45.5208 44.5372,45.3515 44.5372,45.013 L44.5372,40.5208 C44.5372,40.1823 44.6999,40.013 45.0255,40.013 C45.351,40.013 45.5137,40.1823 45.5137,40.5208 L45.5137,41.9856 C45.7611,41.5039 46.295,41.0547 47.1153,40.638 M49.6153,40.5208 C49.1726,40.5208 48.8341,40.6836 48.5997,41.0091 C48.3653,41.3476 48.2481,41.7708 48.2481,42.2786 C48.2481,42.8906 48.4109,43.4179 48.7364,43.8606 C49.0489,44.2903 49.407,44.5898 49.8106,44.7591 C50.1882,44.9284 50.5593,45.013 50.9239,45.013 C51.4057,45.013 51.7507,44.8502 51.9591,44.5247 C52.1804,44.1862 52.2911,43.763 52.2911,43.2552 C52.2911,42.6432 52.1283,42.1159 51.8028,41.6731 C51.5163,41.2565 51.1648,40.957 50.7481,40.7747 C50.3705,40.6054 49.9929,40.5208 49.6153,40.5208"/>
<path class="Note" d="M47.1153,48.1385 C47.9226,47.7218 48.9773,47.5135 50.2794,47.5135 C51.5815,47.5135 52.6361,47.7218 53.4434,48.1385 C54.2507,48.5421 54.7781,48.9913 55.0255,49.4861 L55.0255,48.0213 C55.0255,47.6827 55.1882,47.5135 55.5137,47.5135 C55.8393,47.5135 56.002,47.6827 56.002,48.0213 L56.002,52.5135 C56.002,52.852 55.8393,53.0213 55.5137,53.0213 C55.1882,53.0213 55.0255,52.852 55.0255,52.5135 L55.0255,51.0486 C54.7781,51.5434 54.2507,51.9926 53.4434,52.3963 C52.6361,52.8129 51.5815,53.0213 50.2794,53.0213 C48.9773,53.0213 47.9226,52.8129 47.1153,52.3963 C46.295,51.9796 45.7611,51.5304 45.5137,51.0486 L45.5137,52.5135 C45.5137,52.852 45.351,53.0213 45.0255,53.0213 C44.6999,53.0213 44.5372,52.852 44.5372,52.5135 L44.5372,48.0213 C44.5372,47.6827 44.6999,47.5135 45.0255,47.5135 C45.351,47.5135 45.5137,47.6827 45.5137,48.0213 L45.5137,49.4861 C45.7611,49.0043 46.295,48.5551 47.1153,48.1385 M49.6153,48.0213 C49.1726,48.0213 48.8341,48.184 48.5997,48.5096 C48.3653,48.8481 48.2481,49.2713 48.2481,49.7791 C48.2481,50.3911 48.4109,50.9184 48.7364,51.3611 C49.0489,51.7908 49.407,52.0903 49.8106,52.2596 C50.1882,52.4288 50.5593,52.5135 50.9239,52.5135 C51.4057,52.5135 51.7507,52.3507 51.9591,52.0252 C52.1804,51.6866 52.2911,51.2635 52.2911,50.7556 C52.2911,50.1437 52.1283,49.6163 51.8028,49.1736 C51.5163,48.7569 51.1648,48.4575 50.7481,48.2752 C50.3705,48.1059 49.9929,48.0213 49.6153,48.0213"/>
<path class="Note" d="M47.1153,35.6377 C47.9226,35.221 48.9773,35.0127 50.2794,35.0127 C51.5815,35.0127 52.6361,35.221 53.4434,35.6377 C54.2507,36.0413 54.7781,36.4905 55.0255,36.9853 L55.0255,35.5205 C55.0255,35.1819 55.1882,35.0127 55.5137,35.0127 C55.8393,35.0127 56.002,35.1819 56.002,35.5205 L56.002,40.0127 C56.002,40.3512 55.8393,40.5205 55.5137,40.5205 C55.1882,40.5205 55.0255,40.3512 55.0255,40.0127 L55.0255,38.5478 C54.7781,39.0426 54.2507,39.4918 53.4434,39.8955 C52.6361,40.3122 51.5815,40.5205 50.2794,40.5205 C48.9773,40.5205 47.9226,40.3122 47.1153,39.8955 C46.295,39.4788 45.7611,39.0296 45.5137,38.5478 L45.5137,40.0127 C45.5137,40.3512 45.351,40.5205 45.0255,40.5205 C44.6999,40.5205 44.5372,40.3512 44.5372,40.0127 L44.5372,35.5205 C44.5372,35.1819 44.6999,35.0127 45.0255,35.0127 C45.351,35.0127 45.5137,35.1819 45.5137,35.5205 L45.5137,36.9853 C45.7611,36.5036 46.295,36.0543 47.1153,35.6377 M49.6153,35.5205 C49.1726,35.5205 48.8341,35.6832 48.5997,36.0088 C48.3653,36.3473 48.2481,36.7705 48.2481,37.2783 C48.2481,37.8903 48.4109,38.4176 48.7364,38.8603 C49.0489,39.29 49.407,39.5895 49.8106,39.7588 C50.1882,39.928 50.5593,40.0127 50.9239,40.0127 C51.4057,40.0127 51.7507,39.8499 51.9591,39.5244 C52.1804,39.1858 52.2911,38.7627 52.2911,38.2549 C52.2911,37.6429 52.1283,37.1155 51.8028,36.6728 C51.5163,36.2562 51.1648,35.9567 50.7481,35.7744 C50.3705,35.6051 49.9929,35.5205 49.6153,35.5205"/>
<path class="Clef" d="M23.8266,78.4919 C23.6312,78.2966 23.5336,78.0557 23.5336,77.7693 C23.5336,77.4828 23.6312,77.2419 23.8266,77.0466 C24.0219,76.8513 24.2628,76.7536 24.5492,76.7536 C24.8357,76.7536 25.0766,76.8513 25.2719,77.0466 C25.4672,77.2419 25.5648,77.4828 25.5648,77.7693 C25.5648,78.0557 25.4672,78.2966 25.2719,78.4919 C25.0766,78.6872 24.8357,78.7849 24.5492,78.7849 C24.2628,78.7849 24.0219,78.6872 23.8266,78.4919 M23.8266,83.4919 C23.6312,83.2966 23.5336,83.0557 23.5336,82.7693 C23.5336,82.4828 23.6312,82.2419 23.8266,82.0466 C24.0219,81.8513 24.2628,81.7536 24.5492,81.7536 C24.8357,81.7536 25.0766,81.8513 25.2719,82.0466 C25.4672,82.2419 25.5648,82.4828 25.5648,82.7693 C25.5648,83.0557 25.4672,83.2966 25.2719,83.4919 C25.0766,83.6872 24.8357,83.7849 24.5492,83.7849 C24.2628,83.7849 24.0219,83.6872 23.8266,83.4919 M17.0492,75.0153 C18.781,75.0153 20.2003,75.4515 21.307,76.3239 C22.3747,77.2354 22.9086,78.4724 22.9086,80.0349 C22.9086,81.0896 22.7003,82.0531 22.2836,82.9255 C21.893,83.837 21.3786,84.6443 20.7406,85.3474 C20.0896,86.0635 19.3018,86.7406 18.3773,87.3786 C17.4789,88.0036 16.5544,88.5635 15.6039,89.0583 C13.6768,90.0349 12.6091,90.5232 12.4008,90.5232 C12.2315,90.5232 12.1469,90.4385 12.1469,90.2693 C12.1469,90.2042 12.1729,90.1456 12.225,90.0935 C12.8891,89.7028 13.7029,89.2015 14.6664,88.5896 C15.2914,88.1859 16.0206,87.626 16.8539,86.9099 C17.6612,86.2328 18.2862,85.5948 18.7289,84.9958 C19.1846,84.4099 19.6013,83.6807 19.9789,82.8083 C20.3044,81.9359 20.4672,81.0765 20.4672,80.2302 C20.4672,78.9672 20.1547,77.8669 19.5297,76.9294 C18.9047,75.9919 18.0779,75.5232 17.0492,75.5232 C16.3201,75.5232 15.6951,75.7575 15.1742,76.2263 C14.6143,76.7081 14.2107,77.3135 13.9633,78.0427 C14.2107,77.9385 14.4385,77.8864 14.6469,77.8864 C15.1937,77.8864 15.6625,78.0818 16.0531,78.4724 C16.4437,78.889 16.6391,79.3643 16.6391,79.8982 C16.6391,80.4581 16.4503,80.9594 16.0727,81.4021 C15.669,81.8057 15.1937,82.0075 14.6469,82.0075 C14.0609,82.0075 13.5336,81.8057 13.0648,81.4021 C12.6221,80.9594 12.4008,80.4581 12.4008,79.8982 C12.4008,78.557 12.8565,77.4112 13.768,76.4607 C14.6664,75.4971 15.7602,75.0153 17.0492,75.0153"/>
<path class="Clef" d="M19.7445,32.6494 C19.7445,32.6494 19.7836,32.6494 19.8617,32.6494 C19.9138,32.6364 19.9594,32.6299 19.9984,32.6299 C21.4568,32.6299 22.6547,33.1442 23.5922,34.1728 C24.5297,35.1885 24.9984,36.3733 24.9984,37.7275 C24.9984,39.4072 24.3018,40.7744 22.9086,41.8291 C22.544,42.1155 22.0687,42.3499 21.4828,42.5322 C21.5479,43.3786 21.5805,44.0622 21.5805,44.583 C21.5805,44.6872 21.5674,45.0648 21.5414,45.7158 C21.4893,46.9267 21.0727,47.9749 20.2914,48.8603 C19.5362,49.7327 18.5987,50.1689 17.4789,50.1689 C16.4242,50.1689 15.5258,49.7978 14.7836,49.0556 C14.0414,48.3004 13.6703,47.389 13.6703,46.3213 C13.6703,45.7614 13.8852,45.2861 14.3148,44.8955 C14.7576,44.5049 15.2719,44.3095 15.8578,44.3095 C16.3786,44.3095 16.8148,44.5114 17.1664,44.915 C17.531,45.2926 17.7133,45.7614 17.7133,46.3213 C17.7133,46.8291 17.531,47.2653 17.1664,47.6299 C16.8018,47.9944 16.3656,48.1767 15.8578,48.1767 C15.6495,48.1767 15.4477,48.1377 15.2523,48.0595 C15.8253,48.9059 16.587,49.3291 17.5375,49.3291 C18.4359,49.3291 19.1716,48.9645 19.7445,48.2353 C20.3435,47.4801 20.669,46.6012 20.7211,45.5986 C20.7471,44.9736 20.7602,44.6155 20.7602,44.5244 C20.7602,43.7952 20.7341,43.1963 20.682,42.7275 C20.031,42.8317 19.4516,42.8838 18.9437,42.8838 C17.1339,42.8838 15.5909,42.1676 14.3148,40.7353 C13.0648,39.29 12.4398,37.5713 12.4398,35.5791 C12.4398,35.1624 12.4789,34.7392 12.557,34.3095 C12.6352,33.958 12.7328,33.5739 12.85,33.1572 C12.9151,32.9228 13.0909,32.5452 13.3773,32.0244 C13.4815,31.8681 13.5987,31.6728 13.7289,31.4385 C13.8591,31.2041 13.9503,31.0478 14.0023,30.9697 C14.1326,30.7093 14.3865,30.3577 14.7641,29.915 C14.8682,29.7978 14.9757,29.6676 15.0863,29.5244 C15.197,29.3812 15.2914,29.264 15.3695,29.1728 C15.4477,29.0817 15.5062,29.0101 15.5453,28.958 C15.5844,28.9059 15.8773,28.5608 16.4242,27.9228 C16.5544,27.7926 16.6814,27.6526 16.8051,27.5029 C16.9288,27.3532 17.0297,27.236 17.1078,27.1513 C17.1859,27.0667 17.2445,27.0049 17.2836,26.9658 C16.8148,25.4163 16.5219,24.1793 16.4047,23.2549 C16.3135,22.5127 16.268,21.497 16.268,20.208 C16.268,19.0752 16.5284,18.014 17.0492,17.0244 C17.557,15.9957 18.2667,15.1559 19.1781,14.5049 C19.2432,14.4658 19.3083,14.4463 19.3734,14.4463 C19.4646,14.4463 19.5297,14.4658 19.5687,14.5049 C20.2719,15.3512 20.8773,16.4515 21.3852,17.8056 C21.906,19.1598 22.1664,20.3903 22.1664,21.497 C22.1664,22.747 21.8669,23.9189 21.268,25.0127 C20.5909,26.1715 19.7185,27.3694 18.6508,28.6064 C18.9242,29.4658 19.2888,30.8135 19.7445,32.6494 M21.4047,41.7314 C22.0818,41.484 22.6091,41.0608 22.9867,40.4619 C23.4034,39.889 23.6117,39.2444 23.6117,38.5283 C23.6117,37.6038 23.2992,36.7835 22.6742,36.0674 C22.0362,35.3252 21.2224,34.9085 20.2328,34.8174 C20.7927,37.5648 21.1833,39.8694 21.4047,41.7314 M13.8461,37.2197 C13.8461,38.5088 14.3669,39.6416 15.4086,40.6181 C16.4763,41.5687 17.6742,42.0439 19.0023,42.0439 C19.5492,42.0439 20.0831,42.0049 20.6039,41.9267 C20.3956,39.9476 19.9854,37.5778 19.3734,34.8174 C18.6312,34.8955 18.0388,35.1559 17.5961,35.5986 C17.1664,36.0543 16.9516,36.5687 16.9516,37.1416 C16.9516,38.1312 17.4789,38.9319 18.5336,39.5439 C18.6247,39.6351 18.6703,39.7327 18.6703,39.8369 C18.6703,39.9411 18.6247,40.0387 18.5336,40.1299 C18.4555,40.221 18.3578,40.2666 18.2406,40.2666 C18.2276,40.2666 18.169,40.2536 18.0648,40.2275 C17.3227,39.8239 16.7497,39.303 16.3461,38.665 C15.9685,37.9879 15.7797,37.3043 15.7797,36.6142 C15.7797,35.7158 16.0596,34.902 16.6195,34.1728 C17.2055,33.4437 17.9672,32.9749 18.9047,32.7666 C18.5401,31.3082 18.2406,30.1689 18.0062,29.3486 C17.7979,29.583 17.5473,29.8662 17.2543,30.1982 C16.9613,30.5303 16.7888,30.7288 16.7367,30.7939 C16.268,31.4059 15.9099,31.8812 15.6625,32.2197 C15.2198,32.8317 14.8943,33.359 14.6859,33.8017 C14.4646,34.2965 14.2693,34.8369 14.1,35.4228 C13.9307,35.9827 13.8461,36.5817 13.8461,37.2197 M20.3695,17.3564 C19.393,17.8382 18.6247,18.5283 18.0648,19.4267 C17.4919,20.3512 17.2055,21.3473 17.2055,22.415 C17.2055,23.3525 17.4398,24.6155 17.9086,26.2041 C18.8461,25.0713 19.5492,24.0231 20.018,23.0595 C20.5128,22.0439 20.7602,20.9827 20.7602,19.876 C20.7602,19.0426 20.6299,18.2028 20.3695,17.3564"/>
<path class="KeySig" d="M32.0947,86.4997 C32.0947,86.7471 31.971,86.8708 31.7236,86.8708 C31.4762,86.8708 31.3525,86.7471 31.3525,86.4997 L31.3525,83.6091 L29.6924,84.2341 L29.6924,87.3982 C29.6924,87.6456 29.5687,87.7693 29.3213,87.7693 C29.0739,87.7693 28.9502,87.6456 28.9502,87.3982 L28.9502,84.488 L28.3252,84.7224 C28.3122,84.7354 28.2601,84.7419 28.1689,84.7419 C28.0648,84.7419 27.9736,84.7028 27.8955,84.6247 C27.8174,84.5466 27.7783,84.4555 27.7783,84.3513 L27.7783,83.1403 C27.7783,82.945 27.8629,82.8213 28.0322,82.7693 L28.9502,82.4568 L28.9502,79.2536 L28.3252,79.4685 C28.3122,79.4815 28.2601,79.488 28.1689,79.488 C28.0648,79.488 27.9736,79.4489 27.8955,79.3708 C27.8174,79.2927 27.7783,79.2015 27.7783,79.0974 L27.7783,77.8864 C27.7783,77.7042 27.8629,77.587 28.0322,77.5349 L28.9502,77.1833 L28.9502,74.0388 C28.9502,73.7914 29.0739,73.6677 29.3213,73.6677 C29.5687,73.6677 29.6924,73.7914 29.6924,74.0388 L29.6924,76.9294 L31.3525,76.3044 L31.3525,73.1403 C31.3525,72.893 31.4762,72.7693 31.7236,72.7693 C31.971,72.7693 32.0947,72.893 32.0947,73.1403 L32.0947,76.0505 L32.7392,75.8161 C32.7523,75.8031 32.7978,75.7966 32.876,75.7966 C32.9671,75.7966 33.0648,75.8357 33.1689,75.9138 C33.2471,75.9919 33.2861,76.0831 33.2861,76.1872 L33.2861,77.3982 C33.2861,77.5805 33.195,77.7042 33.0127,77.7693 L32.0947,78.0818 L32.0947,81.2849 L32.7392,81.07 C32.7523,81.057 32.7978,81.0505 32.876,81.0505 C32.9671,81.0505 33.0648,81.0896 33.1689,81.1677 C33.2471,81.2458 33.2861,81.337 33.2861,81.4411 L33.2861,82.6521 C33.2861,82.8213 33.195,82.9385 33.0127,83.0036 L32.0947,83.3552 L32.0947,86.4997 M31.3525,78.3747 L29.6924,78.9607 L29.6924,82.1638 L31.3525,81.5778 L31.3525,78.3747 "/>
<path class="KeySig" d="M32.0947,28.9961 C32.0947,29.2435 31.971,29.3672 31.7236,29.3672 C31.4762,29.3672 31.3525,29.2435 31.3525,28.9961 L31.3525,26.1055 L29.6924,26.7305 L29.6924,29.8945 C29.6924,30.1419 29.5687,30.2656 29.3213,30.2656 C29.0739,30.2656 28.9502,30.1419 28.9502,29.8945 L28.9502,26.9844 L28.3252,27.2188 C28.3122,27.2318 28.2601,27.2383 28.1689,27.2383 C28.0648,27.2383 27.9736,27.1992 27.8955,27.1211 C27.8174,27.043 27.7783,26.9518 27.7783,26.8477 L27.7783,25.6367 C27.7783,25.4414 27.8629,25.3177 28.0322,25.2656 L28.9502,24.9531 L28.9502,21.75 L28.3252,21.9649 C28.3122,21.9779 28.2601,21.9844 28.1689,21.9844 C28.0648,21.9844 27.9736,21.9453 27.8955,21.8672 C27.8174,21.7891 27.7783,21.6979 27.7783,21.5938 L27.7783,20.3828 C27.7783,20.2005 27.8629,20.0833 28.0322,20.0313 L28.9502,19.6797 L28.9502,16.5352 C28.9502,16.2878 29.0739,16.1641 29.3213,16.1641 C29.5687,16.1641 29.6924,16.2878 29.6924,16.5352 L29.6924,19.4258 L31.3525,18.8008 L31.3525,15.6367 C31.3525,15.3893 31.4762,15.2656 31.7236,15.2656 C31.971,15.2656 32.0947,15.3893 32.0947,15.6367 L32.0947,18.5469 L32.7392,18.3125 C32.7523,18.2995 32.7978,18.293 32.876,18.293 C32.9671,18.293 33.0648,18.332 33.1689,18.4102 C33.2471,18.4883 33.2861,18.5794 33.2861,18.6836 L33.2861,19.8945 C33.2861,20.0768 33.195,20.2005 33.0127,20.2656 L32.0947,20.5781 L32.0947,23.7813 L32.7392,23.5664 C32.7523,23.5534 32.7978,23.5469 32.876,23.5469 C32.9671,23.5469 33.0648,23.5859 33.1689,23.6641 C33.2471,23.7422 33.2861,23.8333 33.2861,23.9375 L33.2861,25.1484 C33.2861,25.3177 33.195,25.4349 33.0127,25.5 L32.0947,25.8516 L32.0947,28.9961 M31.3525,20.8711 L29.6924,21.457 L29.6924,24.6602 L31.3525,24.0742 L31.3525,20.8711 "/>
<path class="StaffText" d="M504.657,103.341 C504.537,103.341 504.297,103.414 503.937,103.561 L503.937,103.421 L505.737,102.511 L505.817,102.531 L505.817,108.531 C505.817,108.771 505.877,108.927 505.997,109.001 C506.117,109.074 506.373,109.114 506.767,109.121 L506.767,109.271 L504.007,109.271 L504.007,109.121 C504.38,109.107 504.632,109.052 504.762,108.956 C504.892,108.859 504.957,108.654 504.957,108.341 L504.957,103.811 C504.957,103.497 504.857,103.341 504.657,103.341 M509.077,108.271 C509.23,108.271 509.362,108.327 509.472,108.441 C509.582,108.554 509.637,108.687 509.637,108.841 C509.637,108.987 509.58,109.114 509.467,109.221 C509.353,109.327 509.22,109.381 509.067,109.381 C508.92,109.381 508.793,109.327 508.687,109.221 C508.58,109.114 508.527,108.987 508.527,108.841 C508.527,108.687 508.582,108.554 508.692,108.441 C508.802,108.327 508.93,108.271 509.077,108.271 M512.927,103.041 L512.927,102.881 C513.587,102.721 514.117,102.574 514.517,102.441 L514.557,102.461 L514.557,108.431 C514.557,108.704 514.602,108.882 514.692,108.966 C514.782,109.049 514.987,109.101 515.307,109.121 L515.307,109.271 L512.947,109.271 L512.947,109.121 C513.26,109.094 513.467,109.034 513.567,108.941 C513.667,108.847 513.717,108.667 513.717,108.401 L513.717,103.631 C513.717,103.397 513.687,103.237 513.627,103.151 C513.567,103.064 513.457,103.021 513.297,103.021 C513.163,103.021 513.04,103.027 512.927,103.041 M517.345,104.221 L516.945,104.221 L518.415,102.741 C518.568,102.587 518.708,102.511 518.835,102.511 C519.068,102.511 519.185,102.617 519.185,102.831 C519.185,102.984 519.085,103.124 518.885,103.251 L517.345,104.221 M516.375,106.501 C516.388,106.921 516.445,107.282 516.545,107.586 C516.645,107.889 516.775,108.116 516.935,108.266 C517.095,108.416 517.257,108.522 517.42,108.586 C517.583,108.649 517.755,108.681 517.935,108.681 C518.255,108.681 518.533,108.601 518.77,108.441 C519.007,108.281 519.245,108.011 519.485,107.631 L519.645,107.701 C519.438,108.241 519.152,108.654 518.785,108.941 C518.418,109.227 517.998,109.371 517.525,109.371 C516.952,109.371 516.497,109.169 516.16,108.766 C515.823,108.362 515.655,107.817 515.655,107.131 C515.655,106.391 515.85,105.796 516.24,105.346 C516.63,104.896 517.132,104.671 517.745,104.671 C518.252,104.671 518.645,104.822 518.925,105.126 C519.205,105.429 519.382,105.887 519.455,106.501 L516.375,106.501 M516.395,106.181 L518.435,106.181 C518.368,105.747 518.265,105.447 518.125,105.281 C517.985,105.114 517.762,105.031 517.455,105.031 C516.855,105.031 516.502,105.414 516.395,106.181 M519.982,105.341 L519.982,105.181 C520.402,105.054 520.882,104.884 521.422,104.671 L521.482,104.691 L521.482,105.461 C521.909,104.934 522.389,104.671 522.922,104.671 C523.409,104.671 523.809,104.871 524.122,105.271 C524.436,105.671 524.592,106.181 524.592,106.801 C524.592,107.527 524.391,108.137 523.987,108.631 C523.584,109.124 523.086,109.371 522.492,109.371 C522.279,109.371 522.101,109.341 521.957,109.281 C521.814,109.221 521.656,109.107 521.482,108.941 L521.482,110.511 C521.482,110.824 521.536,111.026 521.642,111.116 C521.749,111.206 521.989,111.254 522.362,111.261 L522.362,111.441 L519.942,111.441 L519.942,111.271 C520.236,111.244 520.426,111.187 520.512,111.101 C520.599,111.014 520.642,110.841 520.642,110.581 L520.642,105.901 C520.642,105.667 520.616,105.514 520.562,105.441 C520.509,105.367 520.399,105.331 520.232,105.331 C520.126,105.331 520.042,105.334 519.982,105.341 M521.482,105.931 L521.482,108.391 C521.482,108.537 521.597,108.684 521.827,108.831 C522.057,108.977 522.289,109.051 522.522,109.051 C522.882,109.051 523.174,108.879 523.397,108.536 C523.621,108.192 523.732,107.744 523.732,107.191 C523.732,106.611 523.621,106.146 523.397,105.796 C523.174,105.446 522.876,105.271 522.502,105.271 C522.269,105.271 522.041,105.344 521.817,105.491 C521.594,105.637 521.482,105.784 521.482,105.931 M526.782,104.221 L526.382,104.221 L527.852,102.741 C528.006,102.587 528.146,102.511 528.272,102.511 C528.506,102.511 528.622,102.617 528.622,102.831 C528.622,102.984 528.522,103.124 528.322,103.251 L526.782,104.221 M525.812,106.501 C525.826,106.921 525.882,107.282 525.982,107.586 C526.082,107.889 526.212,108.116 526.372,108.266 C526.532,108.416 526.694,108.522 526.857,108.586 C527.021,108.649 527.192,108.681 527.372,108.681 C527.692,108.681 527.971,108.601 528.207,108.441 C528.444,108.281 528.682,108.011 528.922,107.631 L529.082,107.701 C528.876,108.241 528.589,108.654 528.222,108.941 C527.856,109.227 527.436,109.371 526.962,109.371 C526.389,109.371 525.934,109.169 525.597,108.766 C525.261,108.362 525.092,107.817 525.092,107.131 C525.092,106.391 525.287,105.796 525.677,105.346 C526.067,104.896 526.569,104.671 527.182,104.671 C527.689,104.671 528.082,104.822 528.362,105.126 C528.642,105.429 528.819,105.887 528.892,106.501 L525.812,106.501 M525.832,106.181 L527.872,106.181 C527.806,105.747 527.702,105.447 527.562,105.281 C527.422,105.114 527.199,105.031 526.892,105.031 C526.292,105.031 525.939,105.414 525.832,106.181 M531.96,104.871 C531.967,104.871 532.02,104.837 532.12,104.771 L532.23,104.771 L532.27,106.131 L532.12,106.131 C532.007,105.684 531.867,105.367 531.7,105.181 C531.533,104.994 531.307,104.901 531.02,104.901 C530.793,104.901 530.608,104.964 530.465,105.091 C530.322,105.217 530.25,105.381 530.25,105.581 C530.25,105.867 530.393,106.094 530.68,106.261 L531.76,106.901 C532.06,107.081 532.275,107.262 532.405,107.446 C532.535,107.629 532.6,107.844 532.6,108.091 C532.6,108.437 532.462,108.737 532.185,108.991 C531.908,109.244 531.577,109.371 531.19,109.371 C531.023,109.371 530.8,109.341 530.52,109.281 C530.24,109.221 530.067,109.191 530,109.191 C529.9,109.191 529.823,109.231 529.77,109.311 L529.64,109.311 L529.64,107.751 L529.8,107.751 C529.907,108.217 530.033,108.547 530.18,108.741 C530.393,109.014 530.69,109.151 531.07,109.151 C531.323,109.151 531.525,109.086 531.675,108.956 C531.825,108.826 531.9,108.651 531.9,108.431 C531.9,108.131 531.727,107.881 531.38,107.681 L530.8,107.351 C530.373,107.111 530.072,106.881 529.895,106.661 C529.718,106.441 529.63,106.191 529.63,105.911 C529.63,105.551 529.758,105.256 530.015,105.026 C530.272,104.796 530.597,104.681 530.99,104.681 C531.21,104.681 531.417,104.712 531.61,104.776 C531.803,104.839 531.92,104.871 531.96,104.871"/>
<path class="StaffText" d="M448.711,107.331 C448.711,106.977 448.633,106.664 448.476,106.391 C448.319,106.117 448.129,105.906 447.906,105.756 C447.683,105.606 447.433,105.482 447.156,105.386 C446.879,105.289 446.639,105.226 446.436,105.196 C446.233,105.166 446.054,105.151 445.901,105.151 C445.821,105.151 445.781,105.124 445.781,105.071 C445.781,105.051 445.784,105.034 445.791,105.021 L446.881,102.651 L448.971,102.651 C449.078,102.651 449.163,102.634 449.226,102.601 C449.289,102.567 449.358,102.497 449.431,102.391 L449.521,102.461 L449.141,103.351 C449.114,103.411 449.038,103.441 448.911,103.441 L446.951,103.441 L446.531,104.291 C447.504,104.464 448.228,104.746 448.701,105.136 C449.174,105.526 449.411,106.097 449.411,106.851 C449.411,107.244 449.349,107.594 449.226,107.901 C449.103,108.207 448.946,108.454 448.756,108.641 C448.566,108.827 448.346,108.981 448.096,109.101 C447.846,109.221 447.606,109.302 447.376,109.346 C447.146,109.389 446.914,109.411 446.681,109.411 C446.308,109.411 446.011,109.356 445.791,109.246 C445.571,109.136 445.461,108.984 445.461,108.791 C445.461,108.544 445.604,108.421 445.891,108.421 C446.078,108.421 446.319,108.524 446.616,108.731 C446.913,108.937 447.148,109.041 447.321,109.041 C447.714,109.041 448.044,108.876 448.311,108.546 C448.578,108.216 448.711,107.811 448.711,107.331 M451.391,108.271 C451.544,108.271 451.676,108.327 451.786,108.441 C451.896,108.554 451.951,108.687 451.951,108.841 C451.951,108.987 451.894,109.114 451.781,109.221 C451.668,109.327 451.534,109.381 451.381,109.381 C451.234,109.381 451.108,109.327 451.001,109.221 C450.894,109.114 450.841,108.987 450.841,108.841 C450.841,108.687 450.896,108.554 451.006,108.441 C451.116,108.327 451.244,108.271 451.391,108.271 M455.241,103.041 L455.241,102.881 C455.901,102.721 456.431,102.574 456.831,102.441 L456.871,102.461 L456.871,108.431 C456.871,108.704 456.916,108.882 457.006,108.966 C457.096,109.049 457.301,109.101 457.621,109.121 L457.621,109.271 L455.261,109.271 L455.261,109.121 C455.574,109.094 455.781,109.034 455.881,108.941 C455.981,108.847 456.031,108.667 456.031,108.401 L456.031,103.631 C456.031,103.397 456.001,103.237 455.941,103.151 C455.881,103.064 455.771,103.021 455.611,103.021 C455.478,103.021 455.354,103.027 455.241,103.041 M459.659,104.221 L459.259,104.221 L460.729,102.741 C460.883,102.587 461.023,102.511 461.149,102.511 C461.383,102.511 461.499,102.617 461.499,102.831 C461.499,102.984 461.399,103.124 461.199,103.251 L459.659,104.221 M458.689,106.501 C458.703,106.921 458.759,107.282 458.859,107.586 C458.959,107.889 459.089,108.116 459.249,108.266 C459.409,108.416 459.571,108.522 459.734,108.586 C459.898,108.649 460.069,108.681 460.249,108.681 C460.569,108.681 460.848,108.601 461.084,108.441 C461.321,108.281 461.559,108.011 461.799,107.631 L461.959,107.701 C461.753,108.241 461.466,108.654 461.099,108.941 C460.733,109.227 460.313,109.371 459.839,109.371 C459.266,109.371 458.811,109.169 458.474,108.766 C458.138,108.362 457.969,107.817 457.969,107.131 C457.969,106.391 458.164,105.796 458.554,105.346 C458.944,104.896 459.446,104.671 460.059,104.671 C460.566,104.671 460.959,104.822 461.239,105.126 C461.519,105.429 461.696,105.887 461.769,106.501 L458.689,106.501 M458.709,106.181 L460.749,106.181 C460.683,105.747 460.579,105.447 460.439,105.281 C460.299,105.114 460.076,105.031 459.769,105.031 C459.169,105.031 458.816,105.414 458.709,106.181 M462.297,105.341 L462.297,105.181 C462.717,105.054 463.197,104.884 463.737,104.671 L463.797,104.691 L463.797,105.461 C464.223,104.934 464.703,104.671 465.237,104.671 C465.723,104.671 466.123,104.871 466.437,105.271 C466.75,105.671 466.907,106.181 466.907,106.801 C466.907,107.527 466.705,108.137 466.302,108.631 C465.898,109.124 465.4,109.371 464.807,109.371 C464.593,109.371 464.415,109.341 464.272,109.281 C464.128,109.221 463.97,109.107 463.797,108.941 L463.797,110.511 C463.797,110.824 463.85,111.026 463.957,111.116 C464.063,111.206 464.303,111.254 464.677,111.261 L464.677,111.441 L462.257,111.441 L462.257,111.271 C462.55,111.244 462.74,111.187 462.827,111.101 C462.913,111.014 462.957,110.841 462.957,110.581 L462.957,105.901 C462.957,105.667 462.93,105.514 462.877,105.441 C462.823,105.367 462.713,105.331 462.547,105.331 C462.44,105.331 462.357,105.334 462.297,105.341 M463.797,105.931 L463.797,108.391 C463.797,108.537 463.912,108.684 464.142,108.831 C464.372,108.977 464.603,109.051 464.837,109.051 C465.197,109.051 465.488,108.879 465.712,108.536 C465.935,108.192 466.047,107.744 466.047,107.191 C466.047,106.611 465.935,106.146 465.712,105.796 C465.488,105.446 465.19,105.271 464.817,105.271 C464.583,105.271 464.355,105.344 464.132,105.491 C463.908,105.637 463.797,105.784 463.797,105.931 M469.097,104.221 L468.697,104.221 L470.167,102.741 C470.32,102.587 470.46,102.511 470.587,102.511 C470.82,102.511 470.937,102.617 470.937,102.831 C470.937,102.984 470.837,103.124 470.637,103.251 L469.097,104.221 M468.127,106.501 C468.14,106.921 468.197,107.282 468.297,107.586 C468.397,107.889 468.527,108.116 468.687,108.266 C468.847,108.416 469.008,108.522 469.172,108.586 C469.335,108.649 469.507,108.681 469.687,108.681 C470.007,108.681 470.285,108.601 470.522,108.441 C470.758,108.281 470.997,108.011 471.237,107.631 L471.397,107.701 C471.19,108.241 470.903,108.654 470.537,108.941 C470.17,109.227 469.75,109.371 469.277,109.371 C468.703,109.371 468.248,109.169 467.912,108.766 C467.575,108.362 467.407,107.817 467.407,107.131 C467.407,106.391 467.602,105.796 467.992,105.346 C468.382,104.896 468.883,104.671 469.497,104.671 C470.003,104.671 470.397,104.822 470.677,105.126 C470.957,105.429 471.133,105.887 471.207,106.501 L468.127,106.501 M468.147,106.181 L470.187,106.181 C470.12,105.747 470.017,105.447 469.877,105.281 C469.737,105.114 469.513,105.031 469.207,105.031 C468.607,105.031 468.253,105.414 468.147,106.181 M474.274,104.871 C474.281,104.871 474.334,104.837 474.434,104.771 L474.544,104.771 L474.584,106.131 L474.434,106.131 C474.321,105.684 474.181,105.367 474.014,105.181 C473.848,104.994 473.621,104.901 473.334,104.901 C473.108,104.901 472.923,104.964 472.779,105.091 C472.636,105.217 472.564,105.381 472.564,105.581 C472.564,105.867 472.708,106.094 472.994,106.261 L474.074,106.901 C474.374,107.081 474.589,107.262 474.719,107.446 C474.849,107.629 474.914,107.844 474.914,108.091 C474.914,108.437 474.776,108.737 474.499,108.991 C474.223,109.244 473.891,109.371 473.504,109.371 C473.338,109.371 473.114,109.341 472.834,109.281 C472.554,109.221 472.381,109.191 472.314,109.191 C472.214,109.191 472.138,109.231 472.084,109.311 L471.954,109.311 L471.954,107.751 L472.114,107.751 C472.221,108.217 472.348,108.547 472.494,108.741 C472.708,109.014 473.004,109.151 473.384,109.151 C473.638,109.151 473.839,109.086 473.989,108.956 C474.139,108.826 474.214,108.651 474.214,108.431 C474.214,108.131 474.041,107.881 473.694,107.681 L473.114,107.351 C472.688,107.111 472.386,106.881 472.209,106.661 C472.033,106.441 471.944,106.191 471.944,105.911 C471.944,105.551 472.073,105.256 472.329,105.026 C472.586,104.796 472.911,104.681 473.304,104.681 C473.524,104.681 473.731,104.712 473.924,104.776 C474.118,104.839 474.234,104.871 474.274,104.871"/>
<path class="StaffText" d="M338.203,108.491 C338.356,108.491 338.584,108.584 338.888,108.771 C339.191,108.957 339.456,109.051 339.683,109.051 C340.049,109.051 340.359,108.907 340.613,108.621 C340.866,108.334 340.993,107.981 340.993,107.561 C340.993,107.301 340.948,107.071 340.858,106.871 C340.768,106.671 340.653,106.516 340.513,106.406 C340.373,106.296 340.206,106.206 340.013,106.136 C339.819,106.066 339.638,106.021 339.468,106.001 C339.298,105.981 339.116,105.971 338.923,105.971 L338.923,105.841 C339.149,105.761 339.344,105.682 339.508,105.606 C339.671,105.529 339.843,105.426 340.023,105.296 C340.203,105.166 340.341,105.007 340.438,104.821 C340.534,104.634 340.583,104.421 340.583,104.181 C340.583,103.867 340.481,103.611 340.278,103.411 C340.074,103.211 339.809,103.111 339.483,103.111 C339.169,103.111 338.894,103.196 338.658,103.366 C338.421,103.536 338.199,103.804 337.993,104.171 L337.843,104.131 C338.016,103.657 338.251,103.269 338.548,102.966 C338.844,102.662 339.266,102.511 339.813,102.511 C340.273,102.511 340.648,102.637 340.938,102.891 C341.228,103.144 341.373,103.474 341.373,103.881 C341.373,104.154 341.303,104.394 341.163,104.601 C341.023,104.807 340.779,105.027 340.433,105.261 C340.833,105.434 341.146,105.656 341.373,105.926 C341.599,106.196 341.713,106.581 341.713,107.081 C341.713,107.787 341.451,108.352 340.928,108.776 C340.404,109.199 339.746,109.411 338.953,109.411 C338.606,109.411 338.331,109.359 338.128,109.256 C337.924,109.152 337.823,109.014 337.823,108.841 C337.823,108.734 337.858,108.649 337.928,108.586 C337.998,108.522 338.089,108.491 338.203,108.491 M343.643,108.271 C343.796,108.271 343.928,108.327 344.038,108.441 C344.148,108.554 344.203,108.687 344.203,108.841 C344.203,108.987 344.146,109.114 344.033,109.221 C343.919,109.327 343.786,109.381 343.633,109.381 C343.486,109.381 343.359,109.327 343.253,109.221 C343.146,109.114 343.093,108.987 343.093,108.841 C343.093,108.687 343.148,108.554 343.258,108.441 C343.368,108.327 343.496,108.271 343.643,108.271 M347.493,103.041 L347.493,102.881 C348.153,102.721 348.683,102.574 349.083,102.441 L349.123,102.461 L349.123,108.431 C349.123,108.704 349.168,108.882 349.258,108.966 C349.348,109.049 349.553,109.101 349.873,109.121 L349.873,109.271 L347.513,109.271 L347.513,109.121 C347.826,109.094 348.033,109.034 348.133,108.941 C348.233,108.847 348.283,108.667 348.283,108.401 L348.283,103.631 C348.283,103.397 348.253,103.237 348.193,103.151 C348.133,103.064 348.023,103.021 347.863,103.021 C347.729,103.021 347.606,103.027 347.493,103.041 M351.911,104.221 L351.511,104.221 L352.981,102.741 C353.134,102.587 353.274,102.511 353.401,102.511 C353.634,102.511 353.751,102.617 353.751,102.831 C353.751,102.984 353.651,103.124 353.451,103.251 L351.911,104.221 M350.941,106.501 C350.954,106.921 351.011,107.282 351.111,107.586 C351.211,107.889 351.341,108.116 351.501,108.266 C351.661,108.416 351.823,108.522 351.986,108.586 C352.149,108.649 352.321,108.681 352.501,108.681 C352.821,108.681 353.099,108.601 353.336,108.441 C353.573,108.281 353.811,108.011 354.051,107.631 L354.211,107.701 C354.004,108.241 353.718,108.654 353.351,108.941 C352.984,109.227 352.564,109.371 352.091,109.371 C351.518,109.371 351.063,109.169 350.726,108.766 C350.389,108.362 350.221,107.817 350.221,107.131 C350.221,106.391 350.416,105.796 350.806,105.346 C351.196,104.896 351.698,104.671 352.311,104.671 C352.818,104.671 353.211,104.822 353.491,105.126 C353.771,105.429 353.948,105.887 354.021,106.501 L350.941,106.501 M350.961,106.181 L353.001,106.181 C352.934,105.747 352.831,105.447 352.691,105.281 C352.551,105.114 352.328,105.031 352.021,105.031 C351.421,105.031 351.068,105.414 350.961,106.181 M354.548,105.341 L354.548,105.181 C354.968,105.054 355.448,104.884 355.988,104.671 L356.048,104.691 L356.048,105.461 C356.475,104.934 356.955,104.671 357.488,104.671 C357.975,104.671 358.375,104.871 358.688,105.271 C359.002,105.671 359.158,106.181 359.158,106.801 C359.158,107.527 358.957,108.137 358.553,108.631 C358.15,109.124 357.652,109.371 357.058,109.371 C356.845,109.371 356.667,109.341 356.523,109.281 C356.38,109.221 356.222,109.107 356.048,108.941 L356.048,110.511 C356.048,110.824 356.102,111.026 356.208,111.116 C356.315,111.206 356.555,111.254 356.928,111.261 L356.928,111.441 L354.508,111.441 L354.508,111.271 C354.802,111.244 354.992,111.187 355.078,111.101 C355.165,111.014 355.208,110.841 355.208,110.581 L355.208,105.901 C355.208,105.667 355.182,105.514 355.128,105.441 C355.075,105.367 354.965,105.331 354.798,105.331 C354.692,105.331 354.608,105.334 354.548,105.341 M356.048,105.931 L356.048,108.391 C356.048,108.537 356.163,108.684 356.393,108.831 C356.623,108.977 356.855,109.051 357.088,109.051 C357.448,109.051 357.74,108.879 357.963,108.536 C358.187,108.192 358.298,107.744 358.298,107.191 C358.298,106.611 358.187,106.146 357.963,105.796 C357.74,105.446 357.442,105.271 357.068,105.271 C356.835,105.271 356.607,105.344 356.383,105.491 C356.16,105.637 356.048,105.784 356.048,105.931 M361.348,104.221 L360.948,104.221 L362.418,102.741 C362.572,102.587 362.712,102.511 362.838,102.511 C363.072,102.511 363.188,102.617 363.188,102.831 C363.188,102.984 363.088,103.124 362.888,103.251 L361.348,104.221 M360.378,106.501 C360.392,106.921 360.448,107.282 360.548,107.586 C360.648,107.889 360.778,108.116 360.938,108.266 C361.098,108.416 361.26,108.522 361.423,108.586 C361.587,108.649 361.758,108.681 361.938,108.681 C362.258,108.681 362.537,108.601 362.773,108.441 C363.01,108.281 363.248,108.011 363.488,107.631 L363.648,107.701 C363.442,108.241 363.155,108.654 362.788,108.941 C362.422,109.227 362.002,109.371 361.528,109.371 C360.955,109.371 360.5,109.169 360.163,108.766 C359.827,108.362 359.658,107.817 359.658,107.131 C359.658,106.391 359.853,105.796 360.243,105.346 C360.633,104.896 361.135,104.671 361.748,104.671 C362.255,104.671 362.648,104.822 362.928,105.126 C363.208,105.429 363.385,105.887 363.458,106.501 L360.378,106.501 M360.398,106.181 L362.438,106.181 C362.372,105.747 362.268,105.447 362.128,105.281 C361.988,105.114 361.765,105.031 361.458,105.031 C360.858,105.031 360.505,105.414 360.398,106.181 M366.526,104.871 C366.533,104.871 366.586,104.837 366.686,104.771 L366.796,104.771 L366.836,106.131 L366.686,106.131 C366.573,105.684 366.433,105.367 366.266,105.181 C366.099,104.994 365.873,104.901 365.586,104.901 C365.359,104.901 365.174,104.964 365.031,105.091 C364.888,105.217 364.816,105.381 364.816,105.581 C364.816,105.867 364.959,106.094 365.246,106.261 L366.326,106.901 C366.626,107.081 366.841,107.262 366.971,107.446 C367.101,107.629 367.166,107.844 367.166,108.091 C367.166,108.437 367.028,108.737 366.751,108.991 C366.474,109.244 366.143,109.371 365.756,109.371 C365.589,109.371 365.366,109.341 365.086,109.281 C364.806,109.221 364.633,109.191 364.566,109.191 C364.466,109.191 364.389,109.231 364.336,109.311 L364.206,109.311 L364.206,107.751 L364.366,107.751 C364.473,108.217 364.599,108.547 364.746,108.741 C364.959,109.014 365.256,109.151 365.636,109.151 C365.889,109.151 366.091,109.086 366.241,108.956 C366.391,108.826 366.466,108.651 366.466,108.431 C366.466,108.131 366.293,107.881 365.946,107.681 L365.366,107.351 C364.939,107.111 364.638,106.881 364.461,106.661 C364.284,106.441 364.196,106.191 364.196,105.911 C364.196,105.551 364.324,105.256 364.581,105.026 C364.838,104.796 365.163,104.681 365.556,104.681 C365.776,104.681 365.983,104.712 366.176,104.776 C366.369,104.839 366.486,104.871 366.526,104.871"/>
<path class="StaffText" d="M245.674,106.961 L245.674,107.601 L244.654,107.601 L244.654,109.271 L243.884,109.271 L243.884,107.601 L241.074,107.601 L241.074,106.961 L244.214,102.511 L244.654,102.511 L244.654,106.961 L245.674,106.961 M243.874,106.961 L243.874,103.531 L241.474,106.961 L243.874,106.961 M247.204,108.271 C247.357,108.271 247.489,108.327 247.599,108.441 C247.709,108.554 247.764,108.687 247.764,108.841 C247.764,108.987 247.707,109.114 247.594,109.221 C247.48,109.327 247.347,109.381 247.194,109.381 C247.047,109.381 246.92,109.327 246.814,109.221 C246.707,109.114 246.654,108.987 246.654,108.841 C246.654,108.687 246.709,108.554 246.819,108.441 C246.929,108.327 247.057,108.271 247.204,108.271 M251.054,103.041 L251.054,102.881 C251.714,102.721 252.244,102.574 252.644,102.441 L252.684,102.461 L252.684,108.431 C252.684,108.704 252.729,108.882 252.819,108.966 C252.909,109.049 253.114,109.101 253.434,109.121 L253.434,109.271 L251.074,109.271 L251.074,109.121 C251.387,109.094 251.594,109.034 251.694,108.941 C251.794,108.847 251.844,108.667 251.844,108.401 L251.844,103.631 C251.844,103.397 251.814,103.237 251.754,103.151 C251.694,103.064 251.584,103.021 251.424,103.021 C251.29,103.021 251.167,103.027 251.054,103.041 M255.472,104.221 L255.072,104.221 L256.542,102.741 C256.695,102.587 256.835,102.511 256.962,102.511 C257.195,102.511 257.312,102.617 257.312,102.831 C257.312,102.984 257.212,103.124 257.012,103.251 L255.472,104.221 M254.502,106.501 C254.515,106.921 254.572,107.282 254.672,107.586 C254.772,107.889 254.902,108.116 255.062,108.266 C255.222,108.416 255.383,108.522 255.547,108.586 C255.71,108.649 255.882,108.681 256.062,108.681 C256.382,108.681 256.66,108.601 256.897,108.441 C257.133,108.281 257.372,108.011 257.612,107.631 L257.772,107.701 C257.565,108.241 257.278,108.654 256.912,108.941 C256.545,109.227 256.125,109.371 255.652,109.371 C255.078,109.371 254.623,109.169 254.287,108.766 C253.95,108.362 253.782,107.817 253.782,107.131 C253.782,106.391 253.977,105.796 254.367,105.346 C254.757,104.896 255.258,104.671 255.872,104.671 C256.378,104.671 256.772,104.822 257.052,105.126 C257.332,105.429 257.508,105.887 257.582,106.501 L254.502,106.501 M254.522,106.181 L256.562,106.181 C256.495,105.747 256.392,105.447 256.252,105.281 C256.112,105.114 255.888,105.031 255.582,105.031 C254.982,105.031 254.628,105.414 254.522,106.181 M258.109,105.341 L258.109,105.181 C258.529,105.054 259.009,104.884 259.549,104.671 L259.609,104.691 L259.609,105.461 C260.036,104.934 260.516,104.671 261.049,104.671 C261.536,104.671 261.936,104.871 262.249,105.271 C262.562,105.671 262.719,106.181 262.719,106.801 C262.719,107.527 262.517,108.137 262.114,108.631 C261.711,109.124 261.212,109.371 260.619,109.371 C260.406,109.371 260.227,109.341 260.084,109.281 C259.941,109.221 259.782,109.107 259.609,108.941 L259.609,110.511 C259.609,110.824 259.662,111.026 259.769,111.116 C259.876,111.206 260.116,111.254 260.489,111.261 L260.489,111.441 L258.069,111.441 L258.069,111.271 C258.362,111.244 258.552,111.187 258.639,111.101 C258.726,111.014 258.769,110.841 258.769,110.581 L258.769,105.901 C258.769,105.667 258.742,105.514 258.689,105.441 C258.636,105.367 258.526,105.331 258.359,105.331 C258.252,105.331 258.169,105.334 258.109,105.341 M259.609,105.931 L259.609,108.391 C259.609,108.537 259.724,108.684 259.954,108.831 C260.184,108.977 260.416,109.051 260.649,109.051 C261.009,109.051 261.301,108.879 261.524,108.536 C261.747,108.192 261.859,107.744 261.859,107.191 C261.859,106.611 261.747,106.146 261.524,105.796 C261.301,105.446 261.002,105.271 260.629,105.271 C260.396,105.271 260.167,105.344 259.944,105.491 C259.721,105.637 259.609,105.784 259.609,105.931 M264.909,104.221 L264.509,104.221 L265.979,102.741 C266.132,102.587 266.272,102.511 266.399,102.511 C266.632,102.511 266.749,102.617 266.749,102.831 C266.749,102.984 266.649,103.124 266.449,103.251 L264.909,104.221 M263.939,106.501 C263.952,106.921 264.009,107.282 264.109,107.586 C264.209,107.889 264.339,108.116 264.499,108.266 C264.659,108.416 264.821,108.522 264.984,108.586 C265.147,108.649 265.319,108.681 265.499,108.681 C265.819,108.681 266.097,108.601 266.334,108.441 C266.571,108.281 266.809,108.011 267.049,107.631 L267.209,107.701 C267.002,108.241 266.716,108.654 266.349,108.941 C265.982,109.227 265.562,109.371 265.089,109.371 C264.516,109.371 264.061,109.169 263.724,108.766 C263.387,108.362 263.219,107.817 263.219,107.131 C263.219,106.391 263.414,105.796 263.804,105.346 C264.194,104.896 264.696,104.671 265.309,104.671 C265.816,104.671 266.209,104.822 266.489,105.126 C266.769,105.429 266.946,105.887 267.019,106.501 L263.939,106.501 M263.959,106.181 L265.999,106.181 C265.932,105.747 265.829,105.447 265.689,105.281 C265.549,105.114 265.326,105.031 265.019,105.031 C264.419,105.031 264.066,105.414 263.959,106.181 M270.087,104.871 C270.093,104.871 270.147,104.837 270.247,104.771 L270.357,104.771 L270.397,106.131 L270.247,106.131 C270.133,105.684 269.993,105.367 269.827,105.181 C269.66,104.994 269.433,104.901 269.147,104.901 C268.92,104.901 268.735,104.964 268.592,105.091 C268.448,105.217 268.377,105.381 268.377,105.581 C268.377,105.867 268.52,106.094 268.807,106.261 L269.887,106.901 C270.187,107.081 270.402,107.262 270.532,107.446 C270.662,107.629 270.727,107.844 270.727,108.091 C270.727,108.437 270.588,108.737 270.312,108.991 C270.035,109.244 269.703,109.371 269.317,109.371 C269.15,109.371 268.927,109.341 268.647,109.281 C268.367,109.221 268.193,109.191 268.127,109.191 C268.027,109.191 267.95,109.231 267.897,109.311 L267.767,109.311 L267.767,107.751 L267.927,107.751 C268.033,108.217 268.16,108.547 268.307,108.741 C268.52,109.014 268.817,109.151 269.197,109.151 C269.45,109.151 269.652,109.086 269.802,108.956 C269.952,108.826 270.027,108.651 270.027,108.431 C270.027,108.131 269.853,107.881 269.507,107.681 L268.927,107.351 C268.5,107.111 268.198,106.881 268.022,106.661 C267.845,106.441 267.757,106.191 267.757,105.911 C267.757,105.551 267.885,105.256 268.142,105.026 C268.398,104.796 268.723,104.681 269.117,104.681 C269.337,104.681 269.543,104.712 269.737,104.776 C269.93,104.839 270.047,104.871 270.087,104.871"/>
<path class="StaffText" d="M128.608,104.501 C128.642,104.347 128.675,104.214 128.708,104.101 C128.742,103.987 128.813,103.822 128.923,103.606 C129.033,103.389 129.157,103.209 129.293,103.066 C129.43,102.922 129.62,102.794 129.863,102.681 C130.107,102.567 130.382,102.511 130.688,102.511 C131.208,102.511 131.647,102.681 132.003,103.021 C132.36,103.361 132.538,103.781 132.538,104.281 C132.538,105.034 132.112,105.857 131.258,106.751 L129.578,108.511 L131.968,108.511 C132.195,108.511 132.363,108.472 132.473,108.396 C132.583,108.319 132.732,108.137 132.918,107.851 L133.048,107.901 L132.498,109.271 L128.598,109.271 L128.598,109.151 L130.378,107.261 C131.245,106.341 131.678,105.474 131.678,104.661 C131.678,104.241 131.548,103.901 131.288,103.641 C131.028,103.381 130.688,103.251 130.268,103.251 C129.922,103.251 129.643,103.346 129.433,103.536 C129.223,103.726 129.018,104.064 128.818,104.551 L128.608,104.501 M134.548,108.271 C134.702,108.271 134.833,108.327 134.943,108.441 C135.053,108.554 135.108,108.687 135.108,108.841 C135.108,108.987 135.052,109.114 134.938,109.221 C134.825,109.327 134.692,109.381 134.538,109.381 C134.392,109.381 134.265,109.327 134.158,109.221 C134.052,109.114 133.998,108.987 133.998,108.841 C133.998,108.687 134.053,108.554 134.163,108.441 C134.273,108.327 134.402,108.271 134.548,108.271 M138.398,103.041 L138.398,102.881 C139.058,102.721 139.588,102.574 139.988,102.441 L140.028,102.461 L140.028,108.431 C140.028,108.704 140.073,108.882 140.163,108.966 C140.253,109.049 140.458,109.101 140.778,109.121 L140.778,109.271 L138.418,109.271 L138.418,109.121 C138.732,109.094 138.938,109.034 139.038,108.941 C139.138,108.847 139.188,108.667 139.188,108.401 L139.188,103.631 C139.188,103.397 139.158,103.237 139.098,103.151 C139.038,103.064 138.928,103.021 138.768,103.021 C138.635,103.021 138.512,103.027 138.398,103.041 M142.816,104.221 L142.416,104.221 L143.886,102.741 C144.04,102.587 144.18,102.511 144.306,102.511 C144.54,102.511 144.656,102.617 144.656,102.831 C144.656,102.984 144.556,103.124 144.356,103.251 L142.816,104.221 M141.846,106.501 C141.86,106.921 141.916,107.282 142.016,107.586 C142.116,107.889 142.246,108.116 142.406,108.266 C142.566,108.416 142.728,108.522 142.891,108.586 C143.055,108.649 143.226,108.681 143.406,108.681 C143.726,108.681 144.005,108.601 144.241,108.441 C144.478,108.281 144.716,108.011 144.956,107.631 L145.116,107.701 C144.91,108.241 144.623,108.654 144.256,108.941 C143.89,109.227 143.47,109.371 142.996,109.371 C142.423,109.371 141.968,109.169 141.631,108.766 C141.295,108.362 141.126,107.817 141.126,107.131 C141.126,106.391 141.321,105.796 141.711,105.346 C142.101,104.896 142.603,104.671 143.216,104.671 C143.723,104.671 144.116,104.822 144.396,105.126 C144.676,105.429 144.853,105.887 144.926,106.501 L141.846,106.501 M141.866,106.181 L143.906,106.181 C143.84,105.747 143.736,105.447 143.596,105.281 C143.456,105.114 143.233,105.031 142.926,105.031 C142.326,105.031 141.973,105.414 141.866,106.181 M145.454,105.341 L145.454,105.181 C145.874,105.054 146.354,104.884 146.894,104.671 L146.954,104.691 L146.954,105.461 C147.38,104.934 147.86,104.671 148.394,104.671 C148.88,104.671 149.28,104.871 149.594,105.271 C149.907,105.671 150.064,106.181 150.064,106.801 C150.064,107.527 149.862,108.137 149.459,108.631 C149.055,109.124 148.557,109.371 147.964,109.371 C147.75,109.371 147.572,109.341 147.429,109.281 C147.285,109.221 147.127,109.107 146.954,108.941 L146.954,110.511 C146.954,110.824 147.007,111.026 147.114,111.116 C147.22,111.206 147.46,111.254 147.834,111.261 L147.834,111.441 L145.414,111.441 L145.414,111.271 C145.707,111.244 145.897,111.187 145.984,111.101 C146.07,111.014 146.114,110.841 146.114,110.581 L146.114,105.901 C146.114,105.667 146.087,105.514 146.034,105.441 C145.98,105.367 145.87,105.331 145.704,105.331 C145.597,105.331 145.514,105.334 145.454,105.341 M146.954,105.931 L146.954,108.391 C146.954,108.537 147.069,108.684 147.299,108.831 C147.529,108.977 147.76,109.051 147.994,109.051 C148.354,109.051 148.645,108.879 148.869,108.536 C149.092,108.192 149.204,107.744 149.204,107.191 C149.204,106.611 149.092,106.146 148.869,105.796 C148.645,105.446 148.347,105.271 147.974,105.271 C147.74,105.271 147.512,105.344 147.289,105.491 C147.065,105.637 146.954,105.784 146.954,105.931 M152.254,104.221 L151.854,104.221 L153.324,102.741 C153.477,102.587 153.617,102.511 153.744,102.511 C153.977,102.511 154.094,102.617 154.094,102.831 C154.094,102.984 153.994,103.124 153.794,103.251 L152.254,104.221 M151.284,106.501 C151.297,106.921 151.354,107.282 151.454,107.586 C151.554,107.889 151.684,108.116 151.844,108.266 C152.004,108.416 152.165,108.522 152.329,108.586 C152.492,108.649 152.664,108.681 152.844,108.681 C153.164,108.681 153.442,108.601 153.679,108.441 C153.915,108.281 154.154,108.011 154.394,107.631 L154.554,107.701 C154.347,108.241 154.06,108.654 153.694,108.941 C153.327,109.227 152.907,109.371 152.434,109.371 C151.86,109.371 151.405,109.169 151.069,108.766 C150.732,108.362 150.564,107.817 150.564,107.131 C150.564,106.391 150.759,105.796 151.149,105.346 C151.539,104.896 152.04,104.671 152.654,104.671 C153.16,104.671 153.554,104.822 153.834,105.126 C154.114,105.429 154.29,105.887 154.364,106.501 L151.284,106.501 M151.304,106.181 L153.344,106.181 C153.277,105.747 153.174,105.447 153.034,105.281 C152.894,105.114 152.67,105.031 152.364,105.031 C151.764,105.031 151.41,105.414 151.304,106.181 M157.431,104.871 C157.438,104.871 157.491,104.837 157.591,104.771 L157.701,104.771 L157.741,106.131 L157.591,106.131 C157.478,105.684 157.338,105.367 157.171,105.181 C157.005,104.994 156.778,104.901 156.491,104.901 C156.265,104.901 156.08,104.964 155.936,105.091 C155.793,105.217 155.721,105.381 155.721,105.581 C155.721,105.867 155.865,106.094 156.151,106.261 L157.231,106.901 C157.531,107.081 157.746,107.262 157.876,107.446 C158.006,107.629 158.071,107.844 158.071,108.091 C158.071,108.437 157.933,108.737 157.656,108.991 C157.38,109.244 157.048,109.371 156.661,109.371 C156.495,109.371 156.271,109.341 155.991,109.281 C155.711,109.221 155.538,109.191 155.471,109.191 C155.371,109.191 155.295,109.231 155.241,109.311 L155.111,109.311 L155.111,107.751 L155.271,107.751 C155.378,108.217 155.505,108.547 155.651,108.741 C155.865,109.014 156.161,109.151 156.541,109.151 C156.795,109.151 156.996,109.086 157.146,108.956 C157.296,108.826 157.371,108.651 157.371,108.431 C157.371,108.131 157.198,107.881 156.851,107.681 L156.271,107.351 C155.845,107.111 155.543,106.881 155.366,106.661 C155.19,106.441 155.101,106.191 155.101,105.911 C155.101,105.551 155.23,105.256 155.486,105.026 C155.743,104.796 156.068,104.681 156.461,104.681 C156.681,104.681 156.888,104.712 157.081,104.776 C157.275,104.839 157.391,104.871 157.431,104.871"/>
<path class="StaffText" d="M45.8861,103.341 C45.7661,103.341 45.5261,103.414 45.1661,103.561 L45.1661,103.421 L46.9661,102.511 L47.0461,102.531 L47.0461,108.531 C47.0461,108.771 47.1061,108.927 47.2261,109.001 C47.3461,109.074 47.6028,109.114 47.9961,109.121 L47.9961,109.271 L45.2361,109.271 L45.2361,109.121 C45.6094,109.107 45.8611,109.052 45.9911,108.956 C46.1211,108.859 46.1861,108.654 46.1861,108.341 L46.1861,103.811 C46.1861,103.497 46.0861,103.341 45.8861,103.341 M50.3061,108.271 C50.4594,108.271 50.5911,108.327 50.7011,108.441 C50.8111,108.554 50.8661,108.687 50.8661,108.841 C50.8661,108.987 50.8094,109.114 50.6961,109.221 C50.5828,109.327 50.4494,109.381 50.2961,109.381 C50.1494,109.381 50.0228,109.327 49.9161,109.221 C49.8094,109.114 49.7561,108.987 49.7561,108.841 C49.7561,108.687 49.8111,108.554 49.9211,108.441 C50.0311,108.327 50.1594,108.271 50.3061,108.271 M54.1561,103.041 L54.1561,102.881 C54.8161,102.721 55.3461,102.574 55.7461,102.441 L55.7861,102.461 L55.7861,108.431 C55.7861,108.704 55.8311,108.882 55.9211,108.966 C56.0111,109.049 56.2161,109.101 56.5361,109.121 L56.5361,109.271 L54.1761,109.271 L54.1761,109.121 C54.4894,109.094 54.6961,109.034 54.7961,108.941 C54.8961,108.847 54.9461,108.667 54.9461,108.401 L54.9461,103.631 C54.9461,103.397 54.9161,103.237 54.8561,103.151 C54.7961,103.064 54.6861,103.021 54.5261,103.021 C54.3928,103.021 54.2694,103.027 54.1561,103.041 M58.5742,104.221 L58.1742,104.221 L59.6442,102.741 C59.7975,102.587 59.9375,102.511 60.0642,102.511 C60.2975,102.511 60.4142,102.617 60.4142,102.831 C60.4142,102.984 60.3142,103.124 60.1142,103.251 L58.5742,104.221 M57.6042,106.501 C57.6175,106.921 57.6742,107.282 57.7742,107.586 C57.8742,107.889 58.0042,108.116 58.1642,108.266 C58.3242,108.416 58.4859,108.522 58.6492,108.586 C58.8125,108.649 58.9842,108.681 59.1642,108.681 C59.4842,108.681 59.7625,108.601 59.9992,108.441 C60.2359,108.281 60.4742,108.011 60.7142,107.631 L60.8742,107.701 C60.6675,108.241 60.3809,108.654 60.0142,108.941 C59.6475,109.227 59.2275,109.371 58.7542,109.371 C58.1809,109.371 57.7259,109.169 57.3892,108.766 C57.0525,108.362 56.8842,107.817 56.8842,107.131 C56.8842,106.391 57.0792,105.796 57.4692,105.346 C57.8592,104.896 58.3609,104.671 58.9742,104.671 C59.4809,104.671 59.8742,104.822 60.1542,105.126 C60.4342,105.429 60.6109,105.887 60.6842,106.501 L57.6042,106.501 M57.6242,106.181 L59.6642,106.181 C59.5975,105.747 59.4942,105.447 59.3542,105.281 C59.2142,105.114 58.9909,105.031 58.6842,105.031 C58.0842,105.031 57.7309,105.414 57.6242,106.181 M61.2117,105.341 L61.2117,105.181 C61.6317,105.054 62.1117,104.884 62.6517,104.671 L62.7117,104.691 L62.7117,105.461 C63.1384,104.934 63.6184,104.671 64.1517,104.671 C64.6384,104.671 65.0384,104.871 65.3517,105.271 C65.665,105.671 65.8217,106.181 65.8217,106.801 C65.8217,107.527 65.62,108.137 65.2167,108.631 C64.8134,109.124 64.315,109.371 63.7217,109.371 C63.5084,109.371 63.33,109.341 63.1867,109.281 C63.0434,109.221 62.885,109.107 62.7117,108.941 L62.7117,110.511 C62.7117,110.824 62.765,111.026 62.8717,111.116 C62.9784,111.206 63.2184,111.254 63.5917,111.261 L63.5917,111.441 L61.1717,111.441 L61.1717,111.271 C61.465,111.244 61.655,111.187 61.7417,111.101 C61.8284,111.014 61.8717,110.841 61.8717,110.581 L61.8717,105.901 C61.8717,105.667 61.845,105.514 61.7917,105.441 C61.7384,105.367 61.6284,105.331 61.4617,105.331 C61.355,105.331 61.2717,105.334 61.2117,105.341 M62.7117,105.931 L62.7117,108.391 C62.7117,108.537 62.8267,108.684 63.0567,108.831 C63.2867,108.977 63.5184,109.051 63.7517,109.051 C64.1117,109.051 64.4034,108.879 64.6267,108.536 C64.85,108.192 64.9617,107.744 64.9617,107.191 C64.9617,106.611 64.85,106.146 64.6267,105.796 C64.4034,105.446 64.105,105.271 63.7317,105.271 C63.4984,105.271 63.27,105.344 63.0467,105.491 C62.8234,105.637 62.7117,105.784 62.7117,105.931 M68.0117,104.221 L67.6117,104.221 L69.0817,102.741 C69.235,102.587 69.375,102.511 69.5017,102.511 C69.735,102.511 69.8517,102.617 69.8517,102.831 C69.8517,102.984 69.7517,103.124 69.5517,103.251 L68.0117,104.221 M67.0417,106.501 C67.055,106.921 67.1117,107.282 67.2117,107.586 C67.3117,107.889 67.4417,108.116 67.6017,108.266 C67.7617,108.416 67.9234,108.522 68.0867,108.586 C68.25,108.649 68.4217,108.681 68.6017,108.681 C68.9217,108.681 69.2,108.601 69.4367,108.441 C69.6734,108.281 69.9117,108.011 70.1517,107.631 L70.3117,107.701 C70.105,108.241 69.8184,108.654 69.4517,108.941 C69.085,109.227 68.665,109.371 68.1917,109.371 C67.6184,109.371 67.1634,109.169 66.8267,108.766 C66.49,108.362 66.3217,107.817 66.3217,107.131 C66.3217,106.391 66.5167,105.796 66.9067,105.346 C67.2967,104.896 67.7984,104.671 68.4117,104.671 C68.9184,104.671 69.3117,104.822 69.5917,105.126 C69.8717,105.429 70.0484,105.887 70.1217,106.501 L67.0417,106.501 M67.0617,106.181 L69.1017,106.181 C69.035,105.747 68.9317,105.447 68.7917,105.281 C68.6517,105.114 68.4284,105.031 68.1217,105.031 C67.5217,105.031 67.1684,105.414 67.0617,106.181 M73.1892,104.871 C73.1959,104.871 73.2492,104.837 73.3492,104.771 L73.4592,104.771 L73.4992,106.131 L73.3492,106.131 C73.2359,105.684 73.0959,105.367 72.9292,105.181 C72.7625,104.994 72.5359,104.901 72.2492,104.901 C72.0225,104.901 71.8375,104.964 71.6942,105.091 C71.5509,105.217 71.4792,105.381 71.4792,105.581 C71.4792,105.867 71.6225,106.094 71.9092,106.261 L72.9892,106.901 C73.2892,107.081 73.5042,107.262 73.6342,107.446 C73.7642,107.629 73.8292,107.844 73.8292,108.091 C73.8292,108.437 73.6909,108.737 73.4142,108.991 C73.1375,109.244 72.8059,109.371 72.4192,109.371 C72.2525,109.371 72.0292,109.341 71.7492,109.281 C71.4692,109.221 71.2959,109.191 71.2292,109.191 C71.1292,109.191 71.0525,109.231 70.9992,109.311 L70.8692,109.311 L70.8692,107.751 L71.0292,107.751 C71.1359,108.217 71.2625,108.547 71.4092,108.741 C71.6225,109.014 71.9192,109.151 72.2992,109.151 C72.5525,109.151 72.7542,109.086 72.9042,108.956 C73.0542,108.826 73.1292,108.651 73.1292,108.431 C73.1292,108.131 72.9559,107.881 72.6092,107.681 L72.0292,107.351 C71.6025,107.111 71.3009,106.881 71.1242,106.661 C70.9475,106.441 70.8592,106.191 70.8592,105.911 C70.8592,105.551 70.9875,105.256 71.2442,105.026 C71.5009,104.796 71.8259,104.681 72.2192,104.681 C72.4392,104.681 72.6459,104.712 72.8392,104.776 C73.0325,104.839 73.1492,104.871 73.1892,104.871"/>
<path class="StaffText" d="M46.3182,4.23 C46.3515,4.07667 46.3848,3.94333 46.4182,3.83 C46.4515,3.71667 46.5232,3.55167 46.6332,3.335 C46.7432,3.11833 46.8665,2.93833 47.0032,2.795 C47.1398,2.65167 47.3298,2.52333 47.5732,2.41 C47.8165,2.29667 48.0915,2.24 48.3982,2.24 C48.9182,2.24 49.3565,2.41 49.7132,2.75 C50.0698,3.09 50.2482,3.51 50.2482,4.01 C50.2482,4.76333 49.8215,5.58667 48.9682,6.48 L47.2882,8.24 L49.6782,8.24 C49.9048,8.24 50.0732,8.20167 50.1832,8.125 C50.2932,8.04833 50.4415,7.86667 50.6282,7.58 L50.7582,7.63 L50.2082,9 L46.3082,9 L46.3082,8.88 L48.0882,6.99 C48.9548,6.07 49.3882,5.20333 49.3882,4.39 C49.3882,3.97 49.2582,3.63 48.9982,3.37 C48.7382,3.11 48.3982,2.98 47.9782,2.98 C47.6315,2.98 47.3532,3.075 47.1432,3.265 C46.9332,3.455 46.7282,3.79333 46.5282,4.28 L46.3182,4.23 M52.2582,8 C52.4115,8 52.5432,8.05667 52.6532,8.17 C52.7632,8.28333 52.8182,8.41667 52.8182,8.57 C52.8182,8.71667 52.7615,8.84333 52.6482,8.95 C52.5348,9.05667 52.4015,9.11 52.2482,9.11 C52.1015,9.11 51.9748,9.05667 51.8682,8.95 C51.7615,8.84333 51.7082,8.71667 51.7082,8.57 C51.7082,8.41667 51.7632,8.28333 51.8732,8.17 C51.9832,8.05667 52.1115,8 52.2582,8 M58.5982,4.5 L58.5982,4.82 L57.5882,4.82 L57.5882,7.68 C57.5882,7.99333 57.6282,8.22167 57.7082,8.365 C57.7882,8.50833 57.9215,8.58 58.1082,8.58 C58.3148,8.58 58.5148,8.46333 58.7082,8.23 L58.8382,8.34 C58.5182,8.84667 58.1182,9.1 57.6382,9.1 C57.0448,9.1 56.7482,8.67667 56.7482,7.83 L56.7482,4.82 L56.2182,4.82 C56.1915,4.8 56.1782,4.77667 56.1782,4.75 C56.1782,4.71667 56.1882,4.69 56.2082,4.67 C56.2282,4.65 56.2665,4.62167 56.3232,4.585 C56.3798,4.54833 56.4482,4.49833 56.5282,4.435 C56.6082,4.37167 56.7182,4.25667 56.8582,4.09 C56.9982,3.92333 57.1515,3.72333 57.3182,3.49 C57.4248,3.33667 57.4915,3.24333 57.5182,3.21 C57.5648,3.21 57.5882,3.25333 57.5882,3.34 L57.5882,4.5 L58.5982,4.5 M60.8763,3.95 L60.4763,3.95 L61.9463,2.47 C62.0996,2.31667 62.2396,2.24 62.3663,2.24 C62.5996,2.24 62.7163,2.34667 62.7163,2.56 C62.7163,2.71333 62.6163,2.85333 62.4163,2.98 L60.8763,3.95 M61.2963,4.4 C61.9363,4.4 62.463,4.61333 62.8763,5.04 C63.2896,5.46667 63.4963,6.00667 63.4963,6.66 C63.4963,7.35333 63.283,7.93333 62.8563,8.4 C62.4296,8.86667 61.903,9.1 61.2763,9.1 C60.6496,9.1 60.128,8.875 59.7113,8.425 C59.2946,7.975 59.0863,7.41333 59.0863,6.74 C59.0863,6.05333 59.2913,5.49167 59.7013,5.055 C60.1113,4.61833 60.643,4.4 61.2963,4.4 M59.9863,6.25 C59.9863,6.96333 60.1163,7.57 60.3763,8.07 C60.6363,8.57 60.9763,8.82 61.3963,8.82 C61.7696,8.82 62.063,8.66 62.2763,8.34 C62.4896,8.02 62.5963,7.57667 62.5963,7.01 C62.5963,6.32333 62.463,5.76333 62.1963,5.33 C61.9296,4.89667 61.5863,4.68 61.1663,4.68 C60.813,4.68 60.528,4.82333 60.3113,5.11 C60.0946,5.39667 59.9863,5.77667 59.9863,6.25 M63.8425,5.02 L63.8425,4.85 C64.3359,4.70333 64.7959,4.55333 65.2225,4.4 L65.2925,4.42 L65.2925,5.21 C65.6325,4.89 65.9009,4.675 66.0975,4.565 C66.2942,4.455 66.5092,4.4 66.7425,4.4 C67.1092,4.4 67.3975,4.53167 67.6075,4.795 C67.8175,5.05833 67.9225,5.42667 67.9225,5.9 L67.9225,8.19 C67.9225,8.43667 67.9625,8.60167 68.0425,8.685 C68.1225,8.76833 68.2859,8.82333 68.5325,8.85 L68.5325,9 L66.4525,9 L66.4525,8.85 C66.7059,8.83 66.8742,8.76333 66.9575,8.65 C67.0409,8.53667 67.0825,8.32333 67.0825,8.01 L67.0825,5.92 C67.0825,5.27333 66.8392,4.95 66.3525,4.95 C66.1859,4.95 66.0325,4.98833 65.8925,5.065 C65.7525,5.14167 65.5625,5.29333 65.3225,5.52 L65.3225,8.33 C65.3225,8.51 65.3692,8.63667 65.4625,8.71 C65.5559,8.78333 65.7292,8.83 65.9825,8.85 L65.9825,9 L63.8625,9 L63.8625,8.85 C64.1159,8.83 64.2825,8.77167 64.3625,8.675 C64.4425,8.57833 64.4825,8.38667 64.4825,8.1 L64.4825,5.62 C64.4825,5.37333 64.4559,5.205 64.4025,5.115 C64.3492,5.025 64.2525,4.98 64.1125,4.98 C63.9859,4.98 63.8959,4.99333 63.8425,5.02 M73.4175,8.5 L73.4175,8.64 C72.8975,8.78 72.4409,8.93 72.0475,9.09 L72.0075,9.07 L72.0075,8.24 C71.9875,8.26 71.9292,8.32 71.8325,8.42 C71.7359,8.52 71.6675,8.58833 71.6275,8.625 C71.5875,8.66167 71.5192,8.71833 71.4225,8.795 C71.3259,8.87167 71.2409,8.92667 71.1675,8.96 C71.0942,8.99333 71.0009,9.025 70.8875,9.055 C70.7742,9.085 70.6609,9.1 70.5475,9.1 C70.1809,9.1 69.8875,8.98167 69.6675,8.745 C69.4475,8.50833 69.3375,8.19333 69.3375,7.8 L69.3375,5.28 C69.3375,5.04667 69.2942,4.885 69.2075,4.795 C69.1209,4.705 68.9575,4.65333 68.7175,4.64 L68.7175,4.5 L70.1775,4.5 L70.1775,7.76 C70.1775,7.96667 70.2475,8.145 70.3875,8.295 C70.5275,8.445 70.6942,8.52 70.8875,8.52 C70.9609,8.52 71.0475,8.51 71.1475,8.49 C71.2475,8.47 71.3625,8.43167 71.4925,8.375 C71.6225,8.31833 71.7325,8.22833 71.8225,8.105 C71.9125,7.98167 71.9575,7.83 71.9575,7.65 L71.9575,5.3 C71.9575,5.05333 71.9125,4.89 71.8225,4.81 C71.7325,4.73 71.5309,4.68333 71.2175,4.67 L71.2175,4.5 L72.7975,4.5 L72.7975,7.93 C72.7975,8.16333 72.8342,8.31667 72.9075,8.39 C72.9809,8.46333 73.1342,8.5 73.3675,8.5 L73.4175,8.5 M76.1882,4.6 C76.1948,4.6 76.2482,4.56667 76.3482,4.5 L76.4582,4.5 L76.4982,5.86 L76.3482,5.86 C76.2348,5.41333 76.0948,5.09667 75.9282,4.91 C75.7615,4.72333 75.5348,4.63 75.2482,4.63 C75.0215,4.63 74.8365,4.69333 74.6932,4.82 C74.5498,4.94667 74.4782,5.11 74.4782,5.31 C74.4782,5.59667 74.6215,5.82333 74.9082,5.99 L75.9882,6.63 C76.2882,6.81 76.5032,6.99167 76.6332,7.175 C76.7632,7.35833 76.8282,7.57333 76.8282,7.82 C76.8282,8.16667 76.6898,8.46667 76.4132,8.72 C76.1365,8.97333 75.8048,9.1 75.4182,9.1 C75.2515,9.1 75.0282,9.07 74.7482,9.01 C74.4682,8.95 74.2948,8.92 74.2282,8.92 C74.1282,8.92 74.0515,8.96 73.9982,9.04 L73.8682,9.04 L73.8682,7.48 L74.0282,7.48 C74.1348,7.94667 74.2615,8.27667 74.4082,8.47 C74.6215,8.74333 74.9182,8.88 75.2982,8.88 C75.5515,8.88 75.7532,8.815 75.9032,8.685 C76.0532,8.555 76.1282,8.38 76.1282,8.16 C76.1282,7.86 75.9548,7.61 75.6082,7.41 L75.0282,7.08 C74.6015,6.84 74.2998,6.61 74.1232,6.39 C73.9465,6.17 73.8582,5.92 73.8582,5.64 C73.8582,5.28 73.9865,4.985 74.2432,4.755 C74.4998,4.525 74.8248,4.41 75.2182,4.41 C75.4382,4.41 75.6448,4.44167 75.8382,4.505 C76.0315,4.56833 76.1482,4.6 76.1882,4.6"/>
<path class="Bracket" fill-rule="evenodd" d="M6.30897,48.5609 C6.30897,42.7197 2.28586,37.0419 2.28586,31.4458 C2.28586,28.6273 3.38307,25.8905 6.76614,23.4396 C6.81186,23.409 6.83472,23.3579 6.83472,23.3273 C6.83472,23.2354 6.58327,23.1537 6.4004,23.1537 C6.30897,23.1537 6.14896,23.1639 6.03467,23.2354 C1.64582,26.3807 0.182869,30.0161 0.182869,33.6924 C0.182869,39.6153 4.48028,45.334 4.48028,51.0118 C4.48028,53.8303 3.38307,56.4854 4.52971e-14,58.9362 L4.52971e-14,59.0179 L4.52971e-14,59.0996 C3.38307,61.5505 4.48028,64.2056 4.48028,67.0241 C4.48028,72.7019 0.182869,78.4205 0.182869,84.3435 C0.182869,88.0197 1.64582,91.6552 6.03467,94.8005 C6.14896,94.8719 6.30897,94.8821 6.4004,94.8821 C6.58327,94.8821 6.83472,94.8005 6.83472,94.7085 C6.83472,94.6779 6.81186,94.6269 6.76614,94.5962 C3.38307,92.1454 2.28586,89.4086 2.28586,86.5901 C2.28586,80.9939 6.30897,75.3161 6.30897,69.4749 C6.30897,65.7578 4.84602,62.204 0.548606,59.0179 C4.84602,55.8318 6.30897,52.2781 6.30897,48.5609"/>
</svg>
