<?xml version="1.0" encoding="UTF-8" standalone="no"?>
<svg width="280.636px" height="106.822px" viewBox="0 0 280.636 106.822"
 xmlns="http://www.w3.org/2000/svg" xmlns:xlink="http://www.w3.org/1999/xlink" version="1.2" baseProfile="tiny">
<title>Akkordinga</title>
<desc>Generated by MuseScore 2.3.1</desc>
<polyline class="StaffLines" fill="none" stroke="#000000" stroke-width="0.40" stroke-linejoin="bevel" points="8.40001,8.32188 280.636,8.32188"/>
<polyline class="StaffLines" fill="none" stroke="#000000" stroke-width="0.40" stroke-linejoin="bevel" points="8.40001,13.3219 280.636,13.3219"/>
<polyline class="StaffLines" fill="none" stroke="#000000" stroke-width="0.40" stroke-linejoin="bevel" points="8.40001,18.3219 280.636,18.3219"/>
<polyline class="StaffLines" fill="none" stroke="#000000" stroke-width="0.40" stroke-linejoin="bevel" points="8.40001,23.3219 280.636,23.3219"/>
<polyline class="StaffLines" fill="none" stroke="#000000" stroke-width="0.40" stroke-linejoin="bevel" points="8.40001,28.3219 280.636,28.3219"/>
<polyline class="StaffLines" fill="none" stroke="#000000" stroke-width="0.40" stroke-linejoin="bevel" points="8.40001,60.8219 280.636,60.8219"/>
<polyline class="StaffLines" fill="none" stroke="#000000" stroke-width="0.40" stroke-linejoin="bevel" points="8.40001,65.8219 280.636,65.8219"/>
<polyline class="StaffLines" fill="none" stroke="#000000" stroke-width="0.40" stroke-linejoin="bevel" points="8.40001,70.8219 280.636,70.8219"/>
<polyline class="StaffLines" fill="none" stroke="#000000" stroke-width="0.40" stroke-linejoin="bevel" points="8.40001,75.8219 280.636,75.8219"/>
<polyline class="StaffLines" fill="none" stroke="#000000" stroke-width="0.40" stroke-linejoin="bevel" points="8.40001,80.8219 280.636,80.8219"/>
<polyline class="BarLine" fill="none" stroke="#000000" stroke-width="0.80" stroke-linejoin="bevel" points="8.80001,8.32188 8.80001,80.8219"/>
<path class="BarLine" d="M271.403,16.6227 C271.181,16.4013 271.07,16.1344 271.07,15.8219 C271.07,15.5094 271.181,15.2425 271.403,15.0211 C271.624,14.7998 271.891,14.6891 272.203,14.6891 C272.516,14.6891 272.783,14.7998 273.004,15.0211 C273.225,15.2425 273.336,15.5094 273.336,15.8219 C273.336,16.1344 273.225,16.4013 273.004,16.6227 C272.783,16.844 272.516,16.9547 272.203,16.9547 C271.891,16.9547 271.624,16.844 271.403,16.6227"/>
<path class="BarLine" d="M271.403,21.6227 C271.181,21.4013 271.07,21.1344 271.07,20.8219 C271.07,20.5094 271.181,20.2425 271.403,20.0211 C271.624,19.7998 271.891,19.6891 272.203,19.6891 C272.516,19.6891 272.783,19.7998 273.004,20.0211 C273.225,20.2425 273.336,20.5094 273.336,20.8219 C273.336,21.1344 273.225,21.4013 273.004,21.6227 C272.783,21.844 272.516,21.9547 272.203,21.9547 C271.891,21.9547 271.624,21.844 271.403,21.6227"/>
<path class="BarLine" d="M271.403,69.1227 C271.181,68.9013 271.07,68.6344 271.07,68.3219 C271.07,68.0094 271.181,67.7425 271.403,67.5211 C271.624,67.2998 271.891,67.1891 272.203,67.1891 C272.516,67.1891 272.783,67.2998 273.004,67.5211 C273.225,67.7425 273.336,68.0094 273.336,68.3219 C273.336,68.6344 273.225,68.9013 273.004,69.1227 C272.783,69.3441 272.516,69.4547 272.203,69.4547 C271.891,69.4547 271.624,69.3441 271.403,69.1227"/>
<path class="BarLine" d="M271.403,74.1227 C271.181,73.9013 271.07,73.6344 271.07,73.3219 C271.07,73.0094 271.181,72.7425 271.403,72.5211 C271.624,72.2998 271.891,72.1891 272.203,72.1891 C272.516,72.1891 272.783,72.2998 273.004,72.5211 C273.225,72.7425 273.336,73.0094 273.336,73.3219 C273.336,73.6344 273.225,73.9013 273.004,74.1227 C272.783,74.3441 272.516,74.4547 272.203,74.4547 C271.891,74.4547 271.624,74.3441 271.403,74.1227"/>
<polyline class="BarLine" fill="none" stroke="#000000" stroke-width="0.80" stroke-linejoin="bevel" points="275.736,8.32188 275.736,80.8219"/>
<polyline class="BarLine" fill="none" stroke="#000000" stroke-width="2.50" stroke-linejoin="bevel" points="279.386,8.32188 279.386,80.8219"/>
<polyline class="BarLine" fill="none" stroke="#000000" stroke-width="0.80" stroke-linejoin="bevel" points="154.705,8.32188 154.705,80.8219"/>
<polyline class="Stem" fill="none" stroke="#000000" stroke-width="0.65" stroke-linecap="round" stroke-linejoin="bevel" points="250.252,79.8829 250.252,63.3219"/>
<polyline class="Stem" fill="none" stroke="#000000" stroke-width="0.65" stroke-linecap="round" stroke-linejoin="bevel" points="223.176,79.8829 223.176,63.3219"/>
<polyline class="Stem" fill="none" stroke="#000000" stroke-width="0.65" stroke-linecap="round" stroke-linejoin="bevel" points="196.099,79.8829 196.099,63.3219"/>
<polyline class="Stem" fill="none" stroke="#000000" stroke-width="0.65" stroke-linecap="round" stroke-linejoin="bevel" points="169.023,79.8829 169.023,63.3219"/>
<polyline class="Stem" fill="none" stroke="#000000" stroke-width="0.65" stroke-linecap="round" stroke-linejoin="bevel" points="134.322,72.3829 134.322,57.0719"/>
<polyline class="Stem" fill="none" stroke="#000000" stroke-width="0.65" stroke-linecap="round" stroke-linejoin="bevel" points="108.08,72.3829 108.08,57.0719"/>
<polyline class="Stem" fill="none" stroke="#000000" stroke-width="0.65" stroke-linecap="round" stroke-linejoin="bevel" points="81.839,72.3829 81.839,57.0719"/>
<polyline class="Stem" fill="none" stroke="#000000" stroke-width="0.65" stroke-linecap="round" stroke-linejoin="bevel" points="55.5977,72.3829 55.5977,57.0719"/>
<path class="Note" d="M248.389,78.068 C249.014,78.068 249.541,78.2308 249.971,78.5563 C250.374,78.9079 250.576,79.3506 250.576,79.8844 C250.576,80.7829 250.114,81.6227 249.19,82.404 C248.252,83.1852 247.249,83.5758 246.182,83.5758 C245.557,83.5758 245.029,83.4131 244.6,83.0876 C244.196,82.736 243.994,82.2933 243.994,81.7594 C243.994,80.861 244.463,80.0211 245.4,79.2399 C246.312,78.4586 247.308,78.068 248.389,78.068"/>
<path class="Note" d="M221.312,78.068 C221.937,78.068 222.465,78.2308 222.894,78.5563 C223.298,78.9079 223.5,79.3506 223.5,79.8844 C223.5,80.7829 223.038,81.6227 222.113,82.404 C221.176,83.1852 220.173,83.5758 219.105,83.5758 C218.48,83.5758 217.953,83.4131 217.523,83.0876 C217.12,82.736 216.918,82.2933 216.918,81.7594 C216.918,80.861 217.387,80.0211 218.324,79.2399 C219.236,78.4586 220.232,78.068 221.312,78.068"/>
<path class="Note" d="M194.236,78.068 C194.861,78.068 195.388,78.2308 195.818,78.5563 C196.222,78.9079 196.424,79.3506 196.424,79.8844 C196.424,80.7829 195.961,81.6227 195.037,82.404 C194.099,83.1852 193.097,83.5758 192.029,83.5758 C191.404,83.5758 190.877,83.4131 190.447,83.0876 C190.043,82.736 189.842,82.2933 189.842,81.7594 C189.842,80.861 190.31,80.0211 191.248,79.2399 C192.159,78.4586 193.155,78.068 194.236,78.068"/>
<path class="Note" d="M167.16,78.068 C167.785,78.068 168.312,78.2308 168.742,78.5563 C169.146,78.9079 169.347,79.3506 169.347,79.8844 C169.347,80.7829 168.885,81.6227 167.961,82.404 C167.023,83.1852 166.021,83.5758 164.953,83.5758 C164.328,83.5758 163.8,83.4131 163.371,83.0876 C162.967,82.736 162.765,82.2933 162.765,81.7594 C162.765,80.861 163.234,80.0211 164.172,79.2399 C165.083,78.4586 166.079,78.068 167.16,78.068"/>
<path class="Note" d="M165.402,16.0758 C164.933,16.0758 164.595,16.2386 164.386,16.5641 C164.152,16.8766 164.035,17.2998 164.035,17.8336 C164.035,18.4456 164.198,18.9729 164.523,19.4156 C164.849,19.8453 165.207,20.1448 165.597,20.3141 C165.949,20.4833 166.32,20.568 166.711,20.568 C167.166,20.568 167.511,20.4052 167.746,20.0797 C167.967,19.7542 168.078,19.331 168.078,18.8102 C168.078,18.1982 167.915,17.6708 167.59,17.2281 C167.264,16.8115 166.912,16.512 166.535,16.3297 C166.157,16.1604 165.78,16.0758 165.402,16.0758 M166.066,15.568 C167.472,15.568 168.644,15.8414 169.582,16.3883 C170.532,16.9352 171.008,17.5797 171.008,18.3219 C171.008,19.1162 170.519,19.7672 169.543,20.275 C168.566,20.8089 167.407,21.0758 166.066,21.0758 C164.686,21.0758 163.514,20.8024 162.55,20.2555 C161.587,19.7086 161.105,19.0641 161.105,18.3219 C161.105,17.5276 161.6,16.8766 162.59,16.3688 C163.566,15.8349 164.725,15.568 166.066,15.568"/>
<path class="Note" d="M165.402,21.0758 C164.933,21.0758 164.595,21.2386 164.386,21.5641 C164.152,21.8766 164.035,22.2998 164.035,22.8336 C164.035,23.4456 164.198,23.9729 164.523,24.4156 C164.849,24.8453 165.207,25.1448 165.597,25.3141 C165.949,25.4833 166.32,25.568 166.711,25.568 C167.166,25.568 167.511,25.4052 167.746,25.0797 C167.967,24.7542 168.078,24.331 168.078,23.8102 C168.078,23.1982 167.915,22.6708 167.59,22.2281 C167.264,21.8115 166.912,21.512 166.535,21.3297 C166.157,21.1604 165.78,21.0758 165.402,21.0758 M166.066,20.568 C167.472,20.568 168.644,20.8414 169.582,21.3883 C170.532,21.9352 171.008,22.5797 171.008,23.3219 C171.008,24.1162 170.519,24.7672 169.543,25.275 C168.566,25.8089 167.407,26.0758 166.066,26.0758 C164.686,26.0758 163.514,25.8024 162.55,25.2555 C161.587,24.7086 161.105,24.0641 161.105,23.3219 C161.105,22.5276 161.6,21.8766 162.59,21.3688 C163.566,20.8349 164.725,20.568 166.066,20.568"/>
<path class="Note" d="M165.402,28.5758 C164.933,28.5758 164.595,28.7386 164.386,29.0641 C164.152,29.3766 164.035,29.7998 164.035,30.3336 C164.035,30.9456 164.198,31.4729 164.523,31.9156 C164.849,32.3453 165.207,32.6448 165.597,32.8141 C165.949,32.9834 166.32,33.068 166.711,33.068 C167.166,33.068 167.511,32.9052 167.746,32.5797 C167.967,32.2542 168.078,31.831 168.078,31.3102 C168.078,30.6982 167.915,30.1709 167.59,29.7281 C167.264,29.3115 166.912,29.012 166.535,28.8297 C166.157,28.6604 165.78,28.5758 165.402,28.5758 M166.066,28.068 C167.472,28.068 168.644,28.3414 169.582,28.8883 C170.532,29.4352 171.008,30.0797 171.008,30.8219 C171.008,31.6162 170.519,32.2672 169.543,32.775 C168.566,33.3089 167.407,33.5758 166.066,33.5758 C164.686,33.5758 163.514,33.3024 162.55,32.7555 C161.587,32.2086 161.105,31.5641 161.105,30.8219 C161.105,30.0276 161.6,29.3766 162.59,28.8688 C163.566,28.3349 164.725,28.068 166.066,28.068"/>
<path class="Note" d="M132.458,70.568 C133.083,70.568 133.611,70.7308 134.04,71.0563 C134.444,71.4079 134.646,71.8506 134.646,72.3844 C134.646,73.2829 134.184,74.1227 133.259,74.904 C132.322,75.6852 131.319,76.0758 130.251,76.0758 C129.626,76.0758 129.099,75.9131 128.669,75.5875 C128.266,75.236 128.064,74.7933 128.064,74.2594 C128.064,73.361 128.533,72.5211 129.47,71.7399 C130.382,70.9586 131.378,70.568 132.458,70.568"/>
<path class="Note" d="M106.217,70.568 C106.842,70.568 107.369,70.7308 107.799,71.0563 C108.203,71.4079 108.405,71.8506 108.405,72.3844 C108.405,73.2829 107.942,74.1227 107.018,74.904 C106.08,75.6852 105.078,76.0758 104.01,76.0758 C103.385,76.0758 102.858,75.9131 102.428,75.5875 C102.024,75.236 101.823,74.7933 101.823,74.2594 C101.823,73.361 102.291,72.5211 103.229,71.7399 C104.14,70.9586 105.136,70.568 106.217,70.568"/>
<path class="Note" d="M79.9757,70.568 C80.6007,70.568 81.1281,70.7308 81.5578,71.0563 C81.9614,71.4079 82.1632,71.8506 82.1632,72.3844 C82.1632,73.2829 81.701,74.1227 80.7765,74.904 C79.839,75.6852 78.8364,76.0758 77.7687,76.0758 C77.1437,76.0758 76.6164,75.9131 76.1867,75.5875 C75.783,75.236 75.5812,74.7933 75.5812,74.2594 C75.5812,73.361 76.0499,72.5211 76.9874,71.7399 C77.8989,70.9586 78.895,70.568 79.9757,70.568"/>
<path class="Note" d="M53.7344,70.568 C54.3594,70.568 54.8867,70.7308 55.3164,71.0563 C55.7201,71.4079 55.9219,71.8506 55.9219,72.3844 C55.9219,73.2829 55.4597,74.1227 54.5352,74.904 C53.5977,75.6852 52.5951,76.0758 51.5274,76.0758 C50.9024,76.0758 50.375,75.9131 49.9453,75.5875 C49.5417,75.236 49.3399,74.7933 49.3399,74.2594 C49.3399,73.361 49.8086,72.5211 50.7461,71.7399 C51.6576,70.9586 52.6537,70.568 53.7344,70.568"/>
<path class="Note" d="M51.9766,13.5758 C51.5078,13.5758 51.1693,13.7386 50.961,14.0641 C50.7266,14.3766 50.6094,14.7997 50.6094,15.3336 C50.6094,15.9456 50.7722,16.4729 51.0977,16.9156 C51.4232,17.3453 51.7813,17.6448 52.1719,17.8141 C52.5235,17.9833 52.8946,18.068 53.2852,18.068 C53.7409,18.068 54.086,17.9052 54.3203,17.5797 C54.5417,17.2542 54.6524,16.831 54.6524,16.3102 C54.6524,15.6982 54.4896,15.1708 54.1641,14.7281 C53.8386,14.3115 53.487,14.012 53.1094,13.8297 C52.7318,13.6604 52.3542,13.5758 51.9766,13.5758 M52.6407,13.068 C54.0469,13.068 55.2188,13.3414 56.1563,13.8883 C57.1068,14.4352 57.5821,15.0797 57.5821,15.8219 C57.5821,16.6162 57.0938,17.2672 56.1172,17.775 C55.1407,18.3089 53.9818,18.5758 52.6407,18.5758 C51.2604,18.5758 50.0886,18.3024 49.125,17.7555 C48.1615,17.2086 47.6797,16.5641 47.6797,15.8219 C47.6797,15.0276 48.1745,14.3766 49.1641,13.8688 C50.1407,13.3349 51.2995,13.068 52.6407,13.068"/>
<path class="Note" d="M51.9766,21.0758 C51.5078,21.0758 51.1693,21.2386 50.961,21.5641 C50.7266,21.8766 50.6094,22.2998 50.6094,22.8336 C50.6094,23.4456 50.7722,23.9729 51.0977,24.4156 C51.4232,24.8453 51.7813,25.1448 52.1719,25.3141 C52.5235,25.4833 52.8946,25.568 53.2852,25.568 C53.7409,25.568 54.086,25.4052 54.3203,25.0797 C54.5417,24.7542 54.6524,24.331 54.6524,23.8102 C54.6524,23.1982 54.4896,22.6708 54.1641,22.2281 C53.8386,21.8115 53.487,21.512 53.1094,21.3297 C52.7318,21.1604 52.3542,21.0758 51.9766,21.0758 M52.6407,20.568 C54.0469,20.568 55.2188,20.8414 56.1563,21.3883 C57.1068,21.9352 57.5821,22.5797 57.5821,23.3219 C57.5821,24.1162 57.0938,24.7672 56.1172,25.275 C55.1407,25.8089 53.9818,26.0758 52.6407,26.0758 C51.2604,26.0758 50.0886,25.8024 49.125,25.2555 C48.1615,24.7086 47.6797,24.0641 47.6797,23.3219 C47.6797,22.5276 48.1745,21.8766 49.1641,21.3688 C50.1407,20.8349 51.2995,20.568 52.6407,20.568"/>
<path class="Note" d="M51.9766,26.0758 C51.5078,26.0758 51.1693,26.2386 50.961,26.5641 C50.7266,26.8766 50.6094,27.2998 50.6094,27.8336 C50.6094,28.4456 50.7722,28.9729 51.0977,29.4156 C51.4232,29.8453 51.7813,30.1448 52.1719,30.3141 C52.5235,30.4834 52.8946,30.568 53.2852,30.568 C53.7409,30.568 54.086,30.4052 54.3203,30.0797 C54.5417,29.7542 54.6524,29.331 54.6524,28.8102 C54.6524,28.1982 54.4896,27.6709 54.1641,27.2281 C53.8386,26.8115 53.487,26.512 53.1094,26.3297 C52.7318,26.1604 52.3542,26.0758 51.9766,26.0758 M52.6407,25.568 C54.0469,25.568 55.2188,25.8414 56.1563,26.3883 C57.1068,26.9352 57.5821,27.5797 57.5821,28.3219 C57.5821,29.1162 57.0938,29.7672 56.1172,30.275 C55.1407,30.8089 53.9818,31.0758 52.6407,31.0758 C51.2604,31.0758 50.0886,30.8024 49.125,30.2555 C48.1615,29.7086 47.6797,29.0641 47.6797,28.3219 C47.6797,27.5276 48.1745,26.8766 49.1641,26.3688 C50.1407,25.8349 51.2995,25.568 52.6407,25.568"/>
<path class="Clef" d="M23.8258,64.0446 C23.6305,63.8493 23.5328,63.6084 23.5328,63.3219 C23.5328,63.0355 23.6305,62.7946 23.8258,62.5993 C24.0211,62.4039 24.262,62.3063 24.5484,62.3063 C24.8349,62.3063 25.0758,62.4039 25.2711,62.5993 C25.4664,62.7946 25.5641,63.0355 25.5641,63.3219 C25.5641,63.6084 25.4664,63.8493 25.2711,64.0446 C25.0758,64.2399 24.8349,64.3375 24.5484,64.3375 C24.262,64.3375 24.0211,64.2399 23.8258,64.0446 M23.8258,69.0446 C23.6305,68.8493 23.5328,68.6084 23.5328,68.3219 C23.5328,68.0355 23.6305,67.7946 23.8258,67.5993 C24.0211,67.4039 24.262,67.3063 24.5484,67.3063 C24.8349,67.3063 25.0758,67.4039 25.2711,67.5993 C25.4664,67.7946 25.5641,68.0355 25.5641,68.3219 C25.5641,68.6084 25.4664,68.8493 25.2711,69.0446 C25.0758,69.2399 24.8349,69.3375 24.5484,69.3375 C24.262,69.3375 24.0211,69.2399 23.8258,69.0446 M17.0484,60.568 C18.7802,60.568 20.1995,61.0042 21.3063,61.8766 C22.374,62.7881 22.9078,64.025 22.9078,65.5875 C22.9078,66.6422 22.6995,67.6058 22.2828,68.4782 C21.8922,69.3896 21.3779,70.1969 20.7399,70.9 C20.0888,71.6162 19.301,72.2933 18.3766,72.9313 C17.4781,73.5563 16.5537,74.1162 15.6031,74.611 C13.676,75.5875 12.6083,76.0758 12.4,76.0758 C12.2307,76.0758 12.1461,75.9912 12.1461,75.8219 C12.1461,75.7568 12.1721,75.6982 12.2242,75.6461 C12.8883,75.2555 13.7021,74.7542 14.6656,74.1422 C15.2906,73.7386 16.0198,73.1787 16.8531,72.4625 C17.6604,71.7855 18.2854,71.1474 18.7281,70.5485 C19.1839,69.9625 19.6005,69.2334 19.9781,68.361 C20.3037,67.4886 20.4664,66.6292 20.4664,65.7829 C20.4664,64.5198 20.1539,63.4196 19.5289,62.4821 C18.9039,61.5446 18.0771,61.0758 17.0484,61.0758 C16.3193,61.0758 15.6943,61.3102 15.1734,61.7789 C14.6135,62.2607 14.2099,62.8662 13.9625,63.5954 C14.2099,63.4912 14.4378,63.4391 14.6461,63.4391 C15.193,63.4391 15.6617,63.6344 16.0524,64.025 C16.443,64.4417 16.6383,64.917 16.6383,65.4508 C16.6383,66.0107 16.4495,66.512 16.0719,66.9547 C15.6682,67.3584 15.193,67.5602 14.6461,67.5602 C14.0602,67.5602 13.5328,67.3584 13.0641,66.9547 C12.6214,66.512 12.4,66.0107 12.4,65.4508 C12.4,64.1097 12.8557,62.9638 13.7672,62.0133 C14.6656,61.0498 15.7594,60.568 17.0484,60.568"/>
<path class="Clef" d="M19.7438,18.2047 C19.7438,18.2047 19.7828,18.2047 19.8609,18.2047 C19.913,18.1917 19.9586,18.1852 19.9977,18.1852 C21.456,18.1852 22.6539,18.6995 23.5914,19.7281 C24.5289,20.7438 24.9977,21.9287 24.9977,23.2828 C24.9977,24.9625 24.301,26.3297 22.9078,27.3844 C22.5432,27.6708 22.068,27.9052 21.482,28.0875 C21.5471,28.9339 21.5797,29.6175 21.5797,30.1383 C21.5797,30.2425 21.5667,30.6201 21.5406,31.2711 C21.4885,32.482 21.0719,33.5302 20.2906,34.4156 C19.5354,35.288 18.5979,35.7242 17.4781,35.7242 C16.4234,35.7242 15.525,35.3531 14.7828,34.611 C14.0406,33.8557 13.6695,32.9443 13.6695,31.8766 C13.6695,31.3167 13.8844,30.8414 14.3141,30.4508 C14.7568,30.0602 15.2711,29.8649 15.857,29.8649 C16.3779,29.8649 16.8141,30.0667 17.1656,30.4703 C17.5302,30.8479 17.7125,31.3167 17.7125,31.8766 C17.7125,32.3844 17.5302,32.8206 17.1656,33.1852 C16.801,33.5498 16.3649,33.732 15.857,33.732 C15.6487,33.732 15.4469,33.693 15.2516,33.6149 C15.8245,34.4612 16.5862,34.8844 17.5367,34.8844 C18.4352,34.8844 19.1708,34.5198 19.7438,33.7906 C20.3427,33.0354 20.6682,32.1565 20.7203,31.1539 C20.7464,30.5289 20.7594,30.1708 20.7594,30.0797 C20.7594,29.3505 20.7333,28.7516 20.6813,28.2828 C20.0302,28.387 19.4508,28.4391 18.943,28.4391 C17.1331,28.4391 15.5901,27.7229 14.3141,26.2906 C13.0641,24.8453 12.4391,23.1266 12.4391,21.1344 C12.4391,20.7177 12.4781,20.2945 12.5563,19.8649 C12.6344,19.5133 12.732,19.1292 12.8492,18.7125 C12.9143,18.4781 13.0901,18.1005 13.3766,17.5797 C13.4807,17.4235 13.5979,17.2281 13.7281,16.9938 C13.8583,16.7594 13.9495,16.6031 14.0016,16.525 C14.1318,16.2646 14.3857,15.913 14.7633,15.4703 C14.8675,15.3531 14.9749,15.2229 15.0856,15.0797 C15.1962,14.9365 15.2906,14.8193 15.3688,14.7281 C15.4469,14.637 15.5055,14.5654 15.5445,14.5133 C15.5836,14.4612 15.8766,14.1162 16.4234,13.4781 C16.5537,13.3479 16.6806,13.208 16.8043,13.0582 C16.928,12.9085 17.0289,12.7913 17.107,12.7067 C17.1852,12.622 17.2438,12.5602 17.2828,12.5211 C16.8141,10.9716 16.5211,9.73465 16.4039,8.81017 C16.3128,8.06798 16.2672,7.05236 16.2672,5.7633 C16.2672,4.63048 16.5276,3.56929 17.0484,2.5797 C17.5563,1.55106 18.2659,0.711213 19.1774,0.0601709 C19.2425,0.0211084 19.3076,0.00157719 19.3727,0.00157719 C19.4638,0.00157719 19.5289,0.0211084 19.568,0.0601709 C20.2711,0.906525 20.8766,2.00679 21.3844,3.36095 C21.9052,4.71512 22.1656,5.94559 22.1656,7.05236 C22.1656,8.30236 21.8662,9.47423 21.2672,10.568 C20.5901,11.7268 19.7177,12.9248 18.65,14.1617 C18.9234,15.0211 19.288,16.3688 19.7438,18.2047 M21.4039,27.2867 C22.081,27.0393 22.6083,26.6162 22.9859,26.0172 C23.4026,25.4443 23.6109,24.7998 23.6109,24.0836 C23.6109,23.1591 23.2984,22.3388 22.6734,21.6227 C22.0354,20.8805 21.2216,20.4638 20.232,20.3727 C20.7919,23.1201 21.1826,25.4248 21.4039,27.2867 M13.8453,22.775 C13.8453,24.0641 14.3662,25.1969 15.4078,26.1735 C16.4755,27.124 17.6734,27.5992 19.0016,27.5992 C19.5484,27.5992 20.0823,27.5602 20.6031,27.482 C20.3948,25.5029 19.9846,23.1331 19.3727,20.3727 C18.6305,20.4508 18.038,20.7112 17.5953,21.1539 C17.1656,21.6097 16.9508,22.124 16.9508,22.6969 C16.9508,23.6865 17.4781,24.4873 18.5328,25.0992 C18.624,25.1904 18.6695,25.288 18.6695,25.3922 C18.6695,25.4964 18.624,25.594 18.5328,25.6852 C18.4547,25.7763 18.357,25.8219 18.2399,25.8219 C18.2268,25.8219 18.1682,25.8089 18.0641,25.7828 C17.3219,25.3792 16.749,24.8583 16.3453,24.2203 C15.9677,23.5432 15.7789,22.8597 15.7789,22.1695 C15.7789,21.2711 16.0589,20.4573 16.6188,19.7281 C17.2047,18.999 17.9664,18.5302 18.9039,18.3219 C18.5393,16.8636 18.2399,15.7242 18.0055,14.9039 C17.7971,15.1383 17.5465,15.4215 17.2535,15.7535 C16.9606,16.0856 16.788,16.2841 16.7359,16.3492 C16.2672,16.9612 15.9091,17.4365 15.6617,17.775 C15.219,18.387 14.8935,18.9143 14.6852,19.357 C14.4638,19.8518 14.2685,20.3922 14.0992,20.9781 C13.93,21.538 13.8453,22.137 13.8453,22.775 M20.3688,2.91173 C19.3922,3.3935 18.624,4.08361 18.0641,4.98205 C17.4912,5.90653 17.2047,6.90262 17.2047,7.97033 C17.2047,8.90783 17.4391,10.1708 17.9078,11.7594 C18.8453,10.6266 19.5484,9.5784 20.0172,8.61486 C20.512,7.59923 20.7594,6.53804 20.7594,5.43126 C20.7594,4.59793 20.6292,3.75809 20.3688,2.91173"/>
<path class="TimeSig" d="M37.4641,70.275 C37.1255,70.275 36.787,70.1448 36.4485,69.8844 C36.1229,69.637 35.9602,69.2724 35.9602,68.7907 C35.9602,68.387 36.0969,68.029 36.3703,67.7165 C36.6307,67.404 36.9758,67.2477 37.4055,67.2477 C37.5487,67.2477 37.6399,67.2542 37.6789,67.2672 C37.08,66.499 36.2792,66.1019 35.2766,66.0758 C34.5214,66.0758 33.9485,66.2907 33.5578,66.7204 C33.4276,66.8896 33.3104,67.1631 33.2063,67.5407 C33.1021,67.9183 33.05,68.2568 33.05,68.5563 C33.024,68.7646 33.011,69.1813 33.011,69.8063 L33.011,71.8375 C33.011,72.4625 33.024,72.8857 33.05,73.1071 C33.1021,73.9534 33.2714,74.5589 33.5578,74.9235 C33.9615,75.3662 34.5344,75.5875 35.2766,75.5875 C36.0578,75.5875 36.7219,75.3011 37.2688,74.7282 C37.8287,74.1683 38.2193,73.4456 38.4406,72.5602 C38.4797,72.43 38.5578,72.3649 38.675,72.3649 C38.8443,72.3649 38.9289,72.443 38.9289,72.5993 C38.9289,72.6904 38.8899,72.8662 38.8117,73.1266 C38.6294,73.7125 38.2714,74.331 37.7375,74.9821 C37.0995,75.7112 36.2792,76.0758 35.2766,76.0758 C34.6906,76.0758 34.0917,75.9912 33.4797,75.8219 C32.8807,75.6136 32.3534,75.3271 31.8977,74.9625 C31.3899,74.5589 30.9927,74.012 30.7063,73.3219 C30.4198,72.5667 30.2766,71.7334 30.2766,70.8219 C30.2766,69.2334 30.7063,67.9704 31.5656,67.0329 C32.399,66.0693 33.636,65.5875 35.2766,65.5875 C36.3443,65.5875 37.1906,65.9521 37.8156,66.6813 C38.4667,67.4105 38.7922,68.1331 38.7922,68.8493 C38.7922,69.2659 38.662,69.6045 38.4016,69.8649 C38.1672,70.1383 37.8547,70.275 37.4641,70.275"/>
<path class="TimeSig" d="M37.4641,17.775 C37.1255,17.775 36.787,17.6448 36.4485,17.3844 C36.1229,17.137 35.9602,16.7724 35.9602,16.2906 C35.9602,15.887 36.0969,15.5289 36.3703,15.2164 C36.6307,14.9039 36.9758,14.7477 37.4055,14.7477 C37.5487,14.7477 37.6399,14.7542 37.6789,14.7672 C37.08,13.999 36.2792,13.6018 35.2766,13.5758 C34.5214,13.5758 33.9485,13.7906 33.5578,14.2203 C33.4276,14.3896 33.3104,14.663 33.2063,15.0406 C33.1021,15.4182 33.05,15.7568 33.05,16.0563 C33.024,16.2646 33.011,16.6813 33.011,17.3063 L33.011,19.3375 C33.011,19.9625 33.024,20.3857 33.05,20.607 C33.1021,21.4534 33.2714,22.0589 33.5578,22.4234 C33.9615,22.8662 34.5344,23.0875 35.2766,23.0875 C36.0578,23.0875 36.7219,22.8011 37.2688,22.2281 C37.8287,21.6682 38.2193,20.9456 38.4406,20.0602 C38.4797,19.93 38.5578,19.8649 38.675,19.8649 C38.8443,19.8649 38.9289,19.943 38.9289,20.0992 C38.9289,20.1904 38.8899,20.3662 38.8117,20.6266 C38.6294,21.2125 38.2714,21.831 37.7375,22.482 C37.0995,23.2112 36.2792,23.5758 35.2766,23.5758 C34.6906,23.5758 34.0917,23.4912 33.4797,23.3219 C32.8807,23.1136 32.3534,22.8271 31.8977,22.4625 C31.3899,22.0589 30.9927,21.512 30.7063,20.8219 C30.4198,20.0667 30.2766,19.2333 30.2766,18.3219 C30.2766,16.7333 30.7063,15.4703 31.5656,14.5328 C32.399,13.5693 33.636,13.0875 35.2766,13.0875 C36.3443,13.0875 37.1906,13.4521 37.8156,14.1813 C38.4667,14.9104 38.7922,15.6331 38.7922,16.3492 C38.7922,16.7659 38.662,17.1044 38.4016,17.3649 C38.1672,17.6383 37.8547,17.775 37.4641,17.775"/>
<path class="FiguredBass" d="M169.508,91.4782 L169.508,91.6657 C169.268,91.6761 169.099,91.7334 169,91.8376 C168.901,91.9417 168.773,92.1839 168.617,92.5641 L166.468,97.9938 L166.328,97.9938 L163.945,92.6813 C163.758,92.2542 163.601,91.9808 163.476,91.861 C163.351,91.7412 163.166,91.6761 162.922,91.6657 L162.922,91.4782 L165.492,91.4782 L165.492,91.6657 C165.31,91.6761 165.216,91.6813 165.211,91.6813 C164.914,91.7021 164.765,91.8011 164.765,91.9782 C164.765,92.1084 164.898,92.4678 165.164,93.0563 L166.625,96.3297 L168.047,92.7751 C168.172,92.4678 168.234,92.2334 168.234,92.0719 C168.234,91.9365 168.182,91.8376 168.078,91.7751 C167.974,91.7126 167.789,91.6761 167.523,91.6657 L167.523,91.4782 L169.508,91.4782 "/>
<path class="FiguredBass" d="M164.66,105.92 C164.308,105.92 163.881,105.838 163.379,105.673 L163.379,104.966 C163.881,105.216 164.319,105.341 164.691,105.341 C164.912,105.341 165.096,105.282 165.242,105.162 C165.388,105.042 165.461,104.892 165.461,104.713 C165.461,104.45 165.256,104.232 164.847,104.06 L164.398,103.869 C163.734,103.593 163.402,103.196 163.402,102.677 C163.402,102.308 163.533,102.017 163.795,101.804 C164.056,101.592 164.415,101.486 164.871,101.486 C165.108,101.486 165.401,101.519 165.75,101.584 L165.91,101.615 L165.91,102.256 C165.48,102.128 165.139,102.064 164.886,102.064 C164.392,102.064 164.144,102.244 164.144,102.603 C164.144,102.835 164.332,103.03 164.707,103.189 L165.078,103.345 C165.497,103.522 165.794,103.709 165.968,103.906 C166.143,104.103 166.23,104.348 166.23,104.642 C166.23,105.015 166.083,105.321 165.789,105.56 C165.495,105.8 165.118,105.92 164.66,105.92"/>
<path class="FiguredBass" d="M50.4492,96.8297 L50.4492,92.5329 C50.4492,92.1787 50.3972,91.9521 50.293,91.8532 C50.1888,91.7542 49.9284,91.6917 49.5117,91.6657 L49.5117,91.4782 L52.3867,91.4782 L52.3867,91.6657 C51.9805,91.6865 51.7214,91.7477 51.6094,91.8493 C51.4974,91.9508 51.4414,92.1787 51.4414,92.5329 L51.4414,96.8297 C51.4414,97.1839 51.4987,97.4144 51.6133,97.5212 C51.7279,97.6279 51.9857,97.6891 52.3867,97.7047 L52.3867,97.8844 L49.5117,97.8844 L49.5117,97.7047 C49.918,97.6943 50.1758,97.6357 50.2852,97.529 C50.3946,97.4222 50.4492,97.1891 50.4492,96.8297"/>
<path class="FiguredBass" d="M52.8321,105.822 L52.8321,105.025 C52.5196,105.621 52.0482,105.92 51.418,105.92 C50.9076,105.92 50.5059,105.733 50.2129,105.361 C49.92,104.989 49.7735,104.479 49.7735,103.834 C49.7735,103.128 49.9395,102.56 50.2715,102.131 C50.6035,101.701 51.0404,101.486 51.5821,101.486 C52.0847,101.486 52.5013,101.679 52.8321,102.064 L52.8321,99.654 L53.6055,99.654 L53.6055,105.822 L52.8321,105.822 M52.8321,102.591 C52.4336,102.24 52.056,102.064 51.6992,102.064 C50.9623,102.064 50.5938,102.628 50.5938,103.756 C50.5938,104.748 50.9219,105.244 51.5782,105.244 C52.0052,105.244 52.4232,105.011 52.8321,104.545 L52.8321,102.591 "/>
<path class="StaffText" d="M18.1109,95.2035 C18.1109,94.1635 18.4309,93.3185 19.0709,92.6685 C19.7109,92.0185 20.5076,91.6935 21.4609,91.6935 C21.8876,91.6935 22.2876,91.7485 22.6609,91.8585 C23.0342,91.9685 23.2509,92.0235 23.3109,92.0235 C23.5309,92.0235 23.6709,91.9135 23.7309,91.6935 L23.9409,91.6935 L24.0309,93.9535 L23.8009,93.9535 C23.4342,92.7135 22.7176,92.0935 21.6509,92.0935 C20.9242,92.0935 20.3459,92.3635 19.9159,92.9035 C19.4859,93.4435 19.2709,94.1668 19.2709,95.0735 C19.2709,95.6535 19.3459,96.1551 19.4959,96.5785 C19.6459,97.0018 19.8476,97.3218 20.1009,97.5385 C20.3542,97.7551 20.6159,97.9118 20.8859,98.0085 C21.1559,98.1051 21.4442,98.1535 21.7509,98.1535 C22.5376,98.1535 23.2809,97.8168 23.9809,97.1435 L24.1609,97.3235 C23.8542,97.7301 23.4642,98.0435 22.9909,98.2635 C22.5176,98.4835 21.9976,98.5935 21.4309,98.5935 C20.4442,98.5935 19.6442,98.2835 19.0309,97.6635 C18.4176,97.0435 18.1109,96.2235 18.1109,95.2035 M25.8084,93.8635 C25.9617,93.8635 26.0934,93.9201 26.2034,94.0335 C26.3134,94.1468 26.3684,94.2801 26.3684,94.4335 C26.3684,94.5801 26.3117,94.7068 26.1984,94.8135 C26.0851,94.9201 25.9517,94.9735 25.7984,94.9735 C25.6517,94.9735 25.5251,94.9201 25.4184,94.8135 C25.3117,94.7068 25.2584,94.5801 25.2584,94.4335 C25.2584,94.2801 25.3134,94.1468 25.4234,94.0335 C25.5334,93.9201 25.6617,93.8635 25.8084,93.8635 M25.8084,97.4535 C25.9617,97.4535 26.0934,97.5101 26.2034,97.6235 C26.3134,97.7368 26.3684,97.8701 26.3684,98.0235 C26.3684,98.1701 26.3117,98.2968 26.1984,98.4035 C26.0851,98.5101 25.9517,98.5635 25.7984,98.5635 C25.6517,98.5635 25.5251,98.5101 25.4184,98.4035 C25.3117,98.2968 25.2584,98.1701 25.2584,98.0235 C25.2584,97.8701 25.3134,97.7368 25.4234,97.6235 C25.5334,97.5101 25.6617,97.4535 25.8084,97.4535"/>
<path class="Bracket" fill-rule="evenodd" d="M6.30858,34.1156 C6.30858,28.2747 2.28572,22.5972 2.28572,17.0015 C2.28572,14.1832 3.38286,11.4465 6.76572,8.99582 C6.81143,8.96519 6.83429,8.91413 6.83429,8.8835 C6.83429,8.7916 6.58286,8.70991 6.4,8.70991 C6.30858,8.70991 6.14858,8.72012 6.03429,8.7916 C1.64572,11.9367 0.182857,15.5719 0.182857,19.2479 C0.182857,25.1705 4.48,30.8888 4.48,36.5663 C4.48,39.3846 3.38286,42.0395 -1.53211e-14,44.4902 L-1.53211e-14,44.5719 L-1.53211e-14,44.6536 C3.38286,47.1043 4.48,49.7592 4.48,52.5775 C4.48,58.255 0.182857,63.9733 0.182857,69.8959 C0.182857,73.5719 1.64572,77.2071 6.03429,80.3522 C6.14858,80.4237 6.30858,80.4339 6.4,80.4339 C6.58286,80.4339 6.83429,80.3522 6.83429,80.2603 C6.83429,80.2297 6.81143,80.1786 6.76572,80.148 C3.38286,77.6973 2.28572,74.9607 2.28572,72.1423 C2.28572,66.5466 6.30858,60.8691 6.30858,55.0282 C6.30858,51.3113 4.84572,47.7578 0.548572,44.5719 C4.84572,41.386 6.30858,37.8325 6.30858,34.1156"/>
</svg>
