<?xml version="1.0" encoding="UTF-8" standalone="no"?>
<svg width="253.188px" height="232.215px" viewBox="0 0 253.188 232.215"
 xmlns="http://www.w3.org/2000/svg" xmlns:xlink="http://www.w3.org/1999/xlink" version="1.2" baseProfile="tiny">
<title>Akkordinga</title>
<desc>Generated by MuseScore 2.3.2</desc>
<polyline class="StaffLines" fill="none" stroke="#000000" stroke-width="0.40" stroke-linejoin="bevel" points="8.40053,27.0017 253.188,27.0017"/>
<polyline class="StaffLines" fill="none" stroke="#000000" stroke-width="0.40" stroke-linejoin="bevel" points="8.40053,32.002 253.188,32.002"/>
<polyline class="StaffLines" fill="none" stroke="#000000" stroke-width="0.40" stroke-linejoin="bevel" points="8.40053,37.0023 253.188,37.0023"/>
<polyline class="StaffLines" fill="none" stroke="#000000" stroke-width="0.40" stroke-linejoin="bevel" points="8.40053,42.0026 253.188,42.0026"/>
<polyline class="StaffLines" fill="none" stroke="#000000" stroke-width="0.40" stroke-linejoin="bevel" points="8.40053,47.003 253.188,47.003"/>
<polyline class="StaffLines" fill="none" stroke="#000000" stroke-width="0.40" stroke-linejoin="bevel" points="8.40053,79.505 253.188,79.505"/>
<polyline class="StaffLines" fill="none" stroke="#000000" stroke-width="0.40" stroke-linejoin="bevel" points="8.40053,84.5053 253.188,84.5053"/>
<polyline class="StaffLines" fill="none" stroke="#000000" stroke-width="0.40" stroke-linejoin="bevel" points="8.40053,89.5056 253.188,89.5056"/>
<polyline class="StaffLines" fill="none" stroke="#000000" stroke-width="0.40" stroke-linejoin="bevel" points="8.40053,94.506 253.188,94.506"/>
<polyline class="StaffLines" fill="none" stroke="#000000" stroke-width="0.40" stroke-linejoin="bevel" points="8.40053,99.5063 253.188,99.5063"/>
<polyline class="StaffLines" fill="none" stroke="#000000" stroke-width="0.40" stroke-linejoin="bevel" points="8.40053,154.51 253.188,154.51"/>
<polyline class="StaffLines" fill="none" stroke="#000000" stroke-width="0.40" stroke-linejoin="bevel" points="8.40053,159.51 253.188,159.51"/>
<polyline class="StaffLines" fill="none" stroke="#000000" stroke-width="0.40" stroke-linejoin="bevel" points="8.40053,164.51 253.188,164.51"/>
<polyline class="StaffLines" fill="none" stroke="#000000" stroke-width="0.40" stroke-linejoin="bevel" points="8.40053,169.511 253.188,169.511"/>
<polyline class="StaffLines" fill="none" stroke="#000000" stroke-width="0.40" stroke-linejoin="bevel" points="8.40053,174.511 253.188,174.511"/>
<polyline class="StaffLines" fill="none" stroke="#000000" stroke-width="0.40" stroke-linejoin="bevel" points="8.40053,207.013 253.188,207.013"/>
<polyline class="StaffLines" fill="none" stroke="#000000" stroke-width="0.40" stroke-linejoin="bevel" points="8.40053,212.013 253.188,212.013"/>
<polyline class="StaffLines" fill="none" stroke="#000000" stroke-width="0.40" stroke-linejoin="bevel" points="8.40053,217.014 253.188,217.014"/>
<polyline class="StaffLines" fill="none" stroke="#000000" stroke-width="0.40" stroke-linejoin="bevel" points="8.40053,222.014 253.188,222.014"/>
<polyline class="StaffLines" fill="none" stroke="#000000" stroke-width="0.40" stroke-linejoin="bevel" points="8.40053,227.014 253.188,227.014"/>
<polyline class="BarLine" fill="none" stroke="#000000" stroke-width="0.80" stroke-linejoin="bevel" points="8.80055,154.51 8.80055,227.014"/>
<polyline class="BarLine" fill="none" stroke="#000000" stroke-width="0.80" stroke-linejoin="bevel" points="8.80055,27.0017 8.80055,99.5063"/>
<path class="BarLine" d="M243.954,162.811 C243.733,162.59 243.622,162.323 243.622,162.01 C243.622,161.698 243.733,161.431 243.954,161.21 C244.175,160.988 244.442,160.878 244.755,160.878 C245.067,160.878 245.334,160.988 245.555,161.21 C245.777,161.431 245.888,161.698 245.888,162.01 C245.888,162.323 245.777,162.59 245.555,162.811 C245.334,163.032 245.067,163.143 244.755,163.143 C244.442,163.143 244.175,163.032 243.954,162.811"/>
<path class="BarLine" d="M243.954,167.811 C243.733,167.59 243.622,167.323 243.622,167.011 C243.622,166.698 243.733,166.431 243.954,166.21 C244.175,165.989 244.442,165.878 244.755,165.878 C245.067,165.878 245.334,165.989 245.555,166.21 C245.777,166.431 245.888,166.698 245.888,167.011 C245.888,167.323 245.777,167.59 245.555,167.811 C245.334,168.033 245.067,168.143 244.755,168.143 C244.442,168.143 244.175,168.033 243.954,167.811"/>
<path class="BarLine" d="M243.954,215.314 C243.733,215.093 243.622,214.826 243.622,214.514 C243.622,214.201 243.733,213.934 243.954,213.713 C244.175,213.492 244.442,213.381 244.755,213.381 C245.067,213.381 245.334,213.492 245.555,213.713 C245.777,213.934 245.888,214.201 245.888,214.514 C245.888,214.826 245.777,215.093 245.555,215.314 C245.334,215.536 245.067,215.646 244.755,215.646 C244.442,215.646 244.175,215.536 243.954,215.314"/>
<path class="BarLine" d="M243.954,220.315 C243.733,220.093 243.622,219.826 243.622,219.514 C243.622,219.201 243.733,218.935 243.954,218.713 C244.175,218.492 244.442,218.381 244.755,218.381 C245.067,218.381 245.334,218.492 245.555,218.713 C245.777,218.935 245.888,219.201 245.888,219.514 C245.888,219.826 245.777,220.093 245.555,220.315 C245.334,220.536 245.067,220.647 244.755,220.647 C244.442,220.647 244.175,220.536 243.954,220.315"/>
<polyline class="BarLine" fill="none" stroke="#000000" stroke-width="0.80" stroke-linejoin="bevel" points="248.288,154.51 248.288,227.014"/>
<polyline class="BarLine" fill="none" stroke="#000000" stroke-width="2.50" stroke-linejoin="bevel" points="251.938,154.51 251.938,227.014"/>
<path class="BarLine" d="M49.0617,162.811 C48.8403,162.59 48.7296,162.323 48.7296,162.01 C48.7296,161.698 48.8403,161.431 49.0617,161.21 C49.283,160.988 49.5499,160.878 49.8624,160.878 C50.1749,160.878 50.4419,160.988 50.6632,161.21 C50.8846,161.431 50.9953,161.698 50.9953,162.01 C50.9953,162.323 50.8846,162.59 50.6632,162.811 C50.4419,163.032 50.1749,163.143 49.8624,163.143 C49.5499,163.143 49.283,163.032 49.0617,162.811"/>
<path class="BarLine" d="M49.0617,167.811 C48.8403,167.59 48.7296,167.323 48.7296,167.011 C48.7296,166.698 48.8403,166.431 49.0617,166.21 C49.283,165.989 49.5499,165.878 49.8624,165.878 C50.1749,165.878 50.4419,165.989 50.6632,166.21 C50.8846,166.431 50.9953,166.698 50.9953,167.011 C50.9953,167.323 50.8846,167.59 50.6632,167.811 C50.4419,168.033 50.1749,168.143 49.8624,168.143 C49.5499,168.143 49.283,168.033 49.0617,167.811"/>
<path class="BarLine" d="M49.0617,215.314 C48.8403,215.093 48.7296,214.826 48.7296,214.514 C48.7296,214.201 48.8403,213.934 49.0617,213.713 C49.283,213.492 49.5499,213.381 49.8624,213.381 C50.1749,213.381 50.4419,213.492 50.6632,213.713 C50.8846,213.934 50.9953,214.201 50.9953,214.514 C50.9953,214.826 50.8846,215.093 50.6632,215.314 C50.4419,215.536 50.1749,215.646 49.8624,215.646 C49.5499,215.646 49.283,215.536 49.0617,215.314"/>
<path class="BarLine" d="M49.0617,220.315 C48.8403,220.093 48.7296,219.826 48.7296,219.514 C48.7296,219.201 48.8403,218.935 49.0617,218.713 C49.283,218.492 49.5499,218.381 49.8624,218.381 C50.1749,218.381 50.4419,218.492 50.6632,218.713 C50.8846,218.935 50.9953,219.201 50.9953,219.514 C50.9953,219.826 50.8846,220.093 50.6632,220.315 C50.4419,220.536 50.1749,220.647 49.8624,220.647 C49.5499,220.647 49.283,220.536 49.0617,220.315"/>
<polyline class="BarLine" fill="none" stroke="#000000" stroke-width="0.80" stroke-linejoin="bevel" points="46.3326,154.51 46.3326,227.014"/>
<polyline class="BarLine" fill="none" stroke="#000000" stroke-width="2.50" stroke-linejoin="bevel" points="42.6824,154.51 42.6824,227.014"/>
<path class="BarLine" d="M243.954,35.3031 C243.733,35.0818 243.622,34.8148 243.622,34.5023 C243.622,34.1898 243.733,33.9229 243.954,33.7015 C244.175,33.4802 244.442,33.3695 244.755,33.3695 C245.067,33.3695 245.334,33.4802 245.555,33.7015 C245.777,33.9229 245.888,34.1898 245.888,34.5023 C245.888,34.8148 245.777,35.0818 245.555,35.3031 C245.334,35.5245 245.067,35.6351 244.755,35.6351 C244.442,35.6351 244.175,35.5245 243.954,35.3031"/>
<path class="BarLine" d="M243.954,40.3034 C243.733,40.0821 243.622,39.8151 243.622,39.5026 C243.622,39.1901 243.733,38.9232 243.954,38.7019 C244.175,38.4805 244.442,38.3698 244.755,38.3698 C245.067,38.3698 245.334,38.4805 245.555,38.7019 C245.777,38.9232 245.888,39.1901 245.888,39.5026 C245.888,39.8151 245.777,40.0821 245.555,40.3034 C245.334,40.5248 245.067,40.6355 244.755,40.6355 C244.442,40.6355 244.175,40.5248 243.954,40.3034"/>
<path class="BarLine" d="M243.954,87.8064 C243.733,87.5851 243.622,87.3181 243.622,87.0056 C243.622,86.6931 243.733,86.4262 243.954,86.2049 C244.175,85.9835 244.442,85.8728 244.755,85.8728 C245.067,85.8728 245.334,85.9835 245.555,86.2049 C245.777,86.4262 245.888,86.6931 245.888,87.0056 C245.888,87.3181 245.777,87.5851 245.555,87.8064 C245.334,88.0278 245.067,88.1385 244.755,88.1385 C244.442,88.1385 244.175,88.0278 243.954,87.8064"/>
<path class="BarLine" d="M243.954,92.8067 C243.733,92.5854 243.622,92.3185 243.622,92.006 C243.622,91.6935 243.733,91.4265 243.954,91.2052 C244.175,90.9838 244.442,90.8731 244.755,90.8731 C245.067,90.8731 245.334,90.9838 245.555,91.2052 C245.777,91.4265 245.888,91.6935 245.888,92.006 C245.888,92.3185 245.777,92.5854 245.555,92.8067 C245.334,93.0281 245.067,93.1388 244.755,93.1388 C244.442,93.1388 244.175,93.0281 243.954,92.8067"/>
<polyline class="BarLine" fill="none" stroke="#000000" stroke-width="0.80" stroke-linejoin="bevel" points="248.288,27.0017 248.288,99.5063"/>
<polyline class="BarLine" fill="none" stroke="#000000" stroke-width="2.50" stroke-linejoin="bevel" points="251.938,27.0017 251.938,99.5063"/>
<path class="BarLine" d="M138.625,35.3031 C138.403,35.0818 138.293,34.8148 138.293,34.5023 C138.293,34.1898 138.403,33.9229 138.625,33.7015 C138.846,33.4802 139.113,33.3695 139.425,33.3695 C139.738,33.3695 140.005,33.4802 140.226,33.7015 C140.447,33.9229 140.558,34.1898 140.558,34.5023 C140.558,34.8148 140.447,35.0818 140.226,35.3031 C140.005,35.5245 139.738,35.6351 139.425,35.6351 C139.113,35.6351 138.846,35.5245 138.625,35.3031"/>
<path class="BarLine" d="M138.625,40.3034 C138.403,40.0821 138.293,39.8151 138.293,39.5026 C138.293,39.1901 138.403,38.9232 138.625,38.7019 C138.846,38.4805 139.113,38.3698 139.425,38.3698 C139.738,38.3698 140.005,38.4805 140.226,38.7019 C140.447,38.9232 140.558,39.1901 140.558,39.5026 C140.558,39.8151 140.447,40.0821 140.226,40.3034 C140.005,40.5248 139.738,40.6355 139.425,40.6355 C139.113,40.6355 138.846,40.5248 138.625,40.3034"/>
<path class="BarLine" d="M138.625,87.8064 C138.403,87.5851 138.293,87.3181 138.293,87.0056 C138.293,86.6931 138.403,86.4262 138.625,86.2049 C138.846,85.9835 139.113,85.8728 139.425,85.8728 C139.738,85.8728 140.005,85.9835 140.226,86.2049 C140.447,86.4262 140.558,86.6931 140.558,87.0056 C140.558,87.3181 140.447,87.5851 140.226,87.8064 C140.005,88.0278 139.738,88.1385 139.425,88.1385 C139.113,88.1385 138.846,88.0278 138.625,87.8064"/>
<path class="BarLine" d="M138.625,92.8067 C138.403,92.5854 138.293,92.3185 138.293,92.006 C138.293,91.6935 138.403,91.4265 138.625,91.2052 C138.846,90.9838 139.113,90.8731 139.425,90.8731 C139.738,90.8731 140.005,90.9838 140.226,91.2052 C140.447,91.4265 140.558,91.6935 140.558,92.006 C140.558,92.3185 140.447,92.5854 140.226,92.8067 C140.005,93.0281 139.738,93.1388 139.425,93.1388 C139.113,93.1388 138.846,93.0281 138.625,92.8067"/>
<path class="BarLine" d="M152.985,35.3031 C152.763,35.0818 152.653,34.8148 152.653,34.5023 C152.653,34.1898 152.763,33.9229 152.985,33.7015 C153.206,33.4802 153.473,33.3695 153.786,33.3695 C154.098,33.3695 154.365,33.4802 154.586,33.7015 C154.808,33.9229 154.918,34.1898 154.918,34.5023 C154.918,34.8148 154.808,35.0818 154.586,35.3031 C154.365,35.5245 154.098,35.6351 153.786,35.6351 C153.473,35.6351 153.206,35.5245 152.985,35.3031"/>
<path class="BarLine" d="M152.985,40.3034 C152.763,40.0821 152.653,39.8151 152.653,39.5026 C152.653,39.1901 152.763,38.9232 152.985,38.7019 C153.206,38.4805 153.473,38.3698 153.786,38.3698 C154.098,38.3698 154.365,38.4805 154.586,38.7019 C154.808,38.9232 154.918,39.1901 154.918,39.5026 C154.918,39.8151 154.808,40.0821 154.586,40.3034 C154.365,40.5248 154.098,40.6355 153.786,40.6355 C153.473,40.6355 153.206,40.5248 152.985,40.3034"/>
<path class="BarLine" d="M152.985,87.8064 C152.763,87.5851 152.653,87.3181 152.653,87.0056 C152.653,86.6931 152.763,86.4262 152.985,86.2049 C153.206,85.9835 153.473,85.8728 153.786,85.8728 C154.098,85.8728 154.365,85.9835 154.586,86.2049 C154.808,86.4262 154.918,86.6931 154.918,87.0056 C154.918,87.3181 154.808,87.5851 154.586,87.8064 C154.365,88.0278 154.098,88.1385 153.786,88.1385 C153.473,88.1385 153.206,88.0278 152.985,87.8064"/>
<path class="BarLine" d="M152.985,92.8067 C152.763,92.5854 152.653,92.3185 152.653,92.006 C152.653,91.6935 152.763,91.4265 152.985,91.2052 C153.206,90.9838 153.473,90.8731 153.786,90.8731 C154.098,90.8731 154.365,90.9838 154.586,91.2052 C154.808,91.4265 154.918,91.6935 154.918,92.006 C154.918,92.3185 154.808,92.5854 154.586,92.8067 C154.365,93.0281 154.098,93.1388 153.786,93.1388 C153.473,93.1388 153.206,93.0281 152.985,92.8067"/>
<polyline class="BarLine" fill="none" stroke="#000000" stroke-width="0.80" stroke-linejoin="bevel" points="142.958,27.0017 142.958,99.5063"/>
<polyline class="BarLine" fill="none" stroke="#000000" stroke-width="2.50" stroke-linejoin="bevel" points="146.609,27.0017 146.609,99.5063"/>
<polyline class="BarLine" fill="none" stroke="#000000" stroke-width="0.80" stroke-linejoin="bevel" points="150.259,27.0017 150.259,99.5063"/>
<path class="BarLine" d="M48.4585,35.3031 C48.2371,35.0818 48.1265,34.8148 48.1265,34.5023 C48.1265,34.1898 48.2371,33.9229 48.4585,33.7015 C48.6799,33.4802 48.9468,33.3695 49.2593,33.3695 C49.5718,33.3695 49.8387,33.4802 50.0601,33.7015 C50.2814,33.9229 50.3921,34.1898 50.3921,34.5023 C50.3921,34.8148 50.2814,35.0818 50.0601,35.3031 C49.8387,35.5245 49.5718,35.6351 49.2593,35.6351 C48.9468,35.6351 48.6799,35.5245 48.4585,35.3031"/>
<path class="BarLine" d="M48.4585,40.3034 C48.2371,40.0821 48.1265,39.8151 48.1265,39.5026 C48.1265,39.1901 48.2371,38.9232 48.4585,38.7019 C48.6799,38.4805 48.9468,38.3698 49.2593,38.3698 C49.5718,38.3698 49.8387,38.4805 50.0601,38.7019 C50.2814,38.9232 50.3921,39.1901 50.3921,39.5026 C50.3921,39.8151 50.2814,40.0821 50.0601,40.3034 C49.8387,40.5248 49.5718,40.6355 49.2593,40.6355 C48.9468,40.6355 48.6799,40.5248 48.4585,40.3034"/>
<path class="BarLine" d="M48.4585,87.8064 C48.2371,87.5851 48.1265,87.3181 48.1265,87.0056 C48.1265,86.6931 48.2371,86.4262 48.4585,86.2049 C48.6799,85.9835 48.9468,85.8728 49.2593,85.8728 C49.5718,85.8728 49.8387,85.9835 50.0601,86.2049 C50.2814,86.4262 50.3921,86.6931 50.3921,87.0056 C50.3921,87.3181 50.2814,87.5851 50.0601,87.8064 C49.8387,88.0278 49.5718,88.1385 49.2593,88.1385 C48.9468,88.1385 48.6799,88.0278 48.4585,87.8064"/>
<path class="BarLine" d="M48.4585,92.8067 C48.2371,92.5854 48.1265,92.3185 48.1265,92.006 C48.1265,91.6935 48.2371,91.4265 48.4585,91.2052 C48.6799,90.9838 48.9468,90.8731 49.2593,90.8731 C49.5718,90.8731 49.8387,90.9838 50.0601,91.2052 C50.2814,91.4265 50.3921,91.6935 50.3921,92.006 C50.3921,92.3185 50.2814,92.5854 50.0601,92.8067 C49.8387,93.0281 49.5718,93.1388 49.2593,93.1388 C48.9468,93.1388 48.6799,93.0281 48.4585,92.8067"/>
<polyline class="BarLine" fill="none" stroke="#000000" stroke-width="0.80" stroke-linejoin="bevel" points="45.7294,27.0017 45.7294,99.5063"/>
<polyline class="BarLine" fill="none" stroke="#000000" stroke-width="2.50" stroke-linejoin="bevel" points="42.0792,27.0017 42.0792,99.5063"/>
<polyline class="Stem" fill="none" stroke="#000000" stroke-width="0.65" stroke-linecap="round" stroke-linejoin="bevel" points="203.269,226.075 203.269,209.513"/>
<polyline class="Stem" fill="none" stroke="#000000" stroke-width="0.65" stroke-linecap="round" stroke-linejoin="bevel" points="156.659,226.075 156.659,209.513"/>
<polyline class="Stem" fill="none" stroke="#000000" stroke-width="0.65" stroke-linecap="round" stroke-linejoin="bevel" points="156.839,176.243 156.839,148.884"/>
<polyline class="Stem" fill="none" stroke="#000000" stroke-width="0.65" stroke-linecap="round" stroke-linejoin="bevel" points="110.048,218.575 110.048,203.263"/>
<polyline class="Stem" fill="none" stroke="#000000" stroke-width="0.65" stroke-linecap="round" stroke-linejoin="bevel" points="63.4374,218.575 63.4374,203.263"/>
<polyline class="Stem" fill="none" stroke="#000000" stroke-width="0.65" stroke-linecap="round" stroke-linejoin="bevel" points="63.6179,173.743 63.6179,147.009"/>
<polyline class="Stem" fill="none" stroke="#000000" stroke-width="0.65" stroke-linecap="round" stroke-linejoin="bevel" points="208.622,98.5671 208.622,82.0052"/>
<polyline class="Stem" fill="none" stroke="#000000" stroke-width="0.65" stroke-linecap="round" stroke-linejoin="bevel" points="167.364,98.5671 167.364,82.0052"/>
<polyline class="Stem" fill="none" stroke="#000000" stroke-width="0.65" stroke-linecap="round" stroke-linejoin="bevel" points="167.544,48.7351 167.544,21.3763"/>
<polyline class="Stem" fill="none" stroke="#000000" stroke-width="0.65" stroke-linecap="round" stroke-linejoin="bevel" points="103.693,91.0667 103.693,75.7548"/>
<polyline class="Stem" fill="none" stroke="#000000" stroke-width="0.65" stroke-linecap="round" stroke-linejoin="bevel" points="62.8343,91.0667 62.8343,75.7548"/>
<polyline class="Stem" fill="none" stroke="#000000" stroke-width="0.65" stroke-linecap="round" stroke-linejoin="bevel" points="63.0148,46.2349 63.0148,19.5012"/>
<path class="Note" d="M201.406,224.26 C202.031,224.26 202.558,224.423 202.988,224.749 C203.391,225.1 203.593,225.543 203.593,226.077 C203.593,226.975 203.131,227.815 202.207,228.596 C201.269,229.378 200.266,229.768 199.199,229.768 C198.574,229.768 198.046,229.605 197.617,229.28 C197.213,228.928 197.011,228.486 197.011,227.952 C197.011,227.053 197.48,226.214 198.417,225.432 C199.329,224.651 200.325,224.26 201.406,224.26"/>
<path class="Note" d="M154.795,224.26 C155.42,224.26 155.947,224.423 156.377,224.749 C156.781,225.1 156.983,225.543 156.983,226.077 C156.983,226.975 156.52,227.815 155.596,228.596 C154.658,229.378 153.656,229.768 152.588,229.768 C151.963,229.768 151.436,229.605 151.006,229.28 C150.602,228.928 150.401,228.486 150.401,227.952 C150.401,227.053 150.869,226.214 151.807,225.432 C152.718,224.651 153.714,224.26 154.795,224.26"/>
<path class="Note" d="M156.529,163.202 C156.529,162.98 156.444,162.792 156.275,162.635 C156.105,162.466 155.91,162.381 155.689,162.381 C155.298,162.381 154.51,162.772 153.326,163.553 C152.102,164.348 151.353,164.914 151.079,165.253 C150.936,165.435 150.865,165.624 150.865,165.819 C150.865,166.04 150.949,166.229 151.119,166.385 C151.275,166.555 151.47,166.639 151.704,166.639 C152.082,166.639 152.876,166.249 154.087,165.467 C155.285,164.686 156.027,164.12 156.314,163.768 C156.457,163.599 156.529,163.41 156.529,163.202 M155.494,161.756 C156.613,161.756 157.173,162.238 157.173,163.202 C157.173,163.671 157.036,164.217 156.763,164.842 C156.49,165.454 156.125,165.923 155.669,166.249 C154.667,166.926 153.41,167.264 151.9,167.264 C150.78,167.264 150.22,166.782 150.22,165.819 C150.22,165.389 150.357,164.849 150.63,164.198 C150.891,163.573 151.255,163.098 151.724,162.772 C152.727,162.095 153.983,161.756 155.494,161.756"/>
<path class="Note" d="M156.529,168.202 C156.529,167.981 156.444,167.792 156.275,167.636 C156.105,167.466 155.91,167.382 155.689,167.382 C155.298,167.382 154.51,167.772 153.326,168.554 C152.102,169.348 151.353,169.914 151.079,170.253 C150.936,170.435 150.865,170.624 150.865,170.819 C150.865,171.041 150.949,171.229 151.119,171.386 C151.275,171.555 151.47,171.64 151.704,171.64 C152.082,171.64 152.876,171.249 154.087,170.468 C155.285,169.686 156.027,169.12 156.314,168.768 C156.457,168.599 156.529,168.41 156.529,168.202 M155.494,166.757 C156.613,166.757 157.173,167.239 157.173,168.202 C157.173,168.671 157.036,169.218 156.763,169.843 C156.49,170.455 156.125,170.923 155.669,171.249 C154.667,171.926 153.41,172.265 151.9,172.265 C150.78,172.265 150.22,171.783 150.22,170.819 C150.22,170.39 150.357,169.849 150.63,169.198 C150.891,168.573 151.255,168.098 151.724,167.772 C152.727,167.095 153.983,166.757 155.494,166.757"/>
<path class="Note" d="M156.529,175.703 C156.529,175.481 156.444,175.292 156.275,175.136 C156.105,174.967 155.91,174.882 155.689,174.882 C155.298,174.882 154.51,175.273 153.326,176.054 C152.102,176.848 151.353,177.415 151.079,177.753 C150.936,177.936 150.865,178.124 150.865,178.32 C150.865,178.541 150.949,178.73 151.119,178.886 C151.275,179.055 151.47,179.14 151.704,179.14 C152.082,179.14 152.876,178.749 154.087,177.968 C155.285,177.187 156.027,176.621 156.314,176.269 C156.457,176.1 156.529,175.911 156.529,175.703 M155.494,174.257 C156.613,174.257 157.173,174.739 157.173,175.703 C157.173,176.171 157.036,176.718 156.763,177.343 C156.49,177.955 156.125,178.424 155.669,178.749 C154.667,179.427 153.41,179.765 151.9,179.765 C150.78,179.765 150.22,179.283 150.22,178.32 C150.22,177.89 150.357,177.35 150.63,176.699 C150.891,176.074 151.255,175.598 151.724,175.273 C152.727,174.596 153.983,174.257 155.494,174.257"/>
<path class="Note" d="M108.184,216.76 C108.809,216.76 109.337,216.923 109.766,217.248 C110.17,217.6 110.372,218.042 110.372,218.576 C110.372,219.475 109.91,220.315 108.985,221.096 C108.048,221.877 107.045,222.268 105.977,222.268 C105.352,222.268 104.825,222.105 104.395,221.779 C103.992,221.428 103.79,220.985 103.79,220.451 C103.79,219.553 104.259,218.713 105.196,217.932 C106.108,217.151 107.104,216.76 108.184,216.76"/>
<path class="Note" d="M61.5738,216.76 C62.1988,216.76 62.7261,216.923 63.1558,217.248 C63.5594,217.6 63.7613,218.042 63.7613,218.576 C63.7613,219.475 63.299,220.315 62.3746,221.096 C61.4371,221.877 60.4344,222.268 59.3667,222.268 C58.7417,222.268 58.2144,222.105 57.7847,221.779 C57.3811,221.428 57.1792,220.985 57.1792,220.451 C57.1792,219.553 57.648,218.713 58.5855,217.932 C59.4969,217.151 60.493,216.76 61.5738,216.76"/>
<path class="Note" d="M63.3074,160.702 C63.3074,160.48 63.2227,160.291 63.0534,160.135 C62.8842,159.966 62.6889,159.881 62.4675,159.881 C62.0769,159.881 61.2891,160.272 60.1042,161.053 C58.8803,161.847 58.1316,162.414 57.8581,162.752 C57.7149,162.935 57.6433,163.123 57.6433,163.319 C57.6433,163.54 57.7279,163.729 57.8972,163.885 C58.0534,164.054 58.2488,164.139 58.4831,164.139 C58.8607,164.139 59.655,163.748 60.8659,162.967 C62.0639,162.186 62.8061,161.62 63.0925,161.268 C63.2357,161.099 63.3074,160.91 63.3074,160.702 M62.2722,159.256 C63.392,159.256 63.9519,159.738 63.9519,160.702 C63.9519,161.17 63.8152,161.717 63.5417,162.342 C63.2683,162.954 62.9037,163.423 62.448,163.748 C61.4454,164.426 60.1889,164.764 58.6784,164.764 C57.5587,164.764 56.9988,164.282 56.9988,163.319 C56.9988,162.889 57.1355,162.349 57.4089,161.698 C57.6693,161.073 58.0339,160.597 58.5027,160.272 C59.5053,159.595 60.7618,159.256 62.2722,159.256"/>
<path class="Note" d="M63.3074,168.202 C63.3074,167.981 63.2227,167.792 63.0534,167.636 C62.8842,167.466 62.6889,167.382 62.4675,167.382 C62.0769,167.382 61.2891,167.772 60.1042,168.554 C58.8803,169.348 58.1316,169.914 57.8581,170.253 C57.7149,170.435 57.6433,170.624 57.6433,170.819 C57.6433,171.041 57.7279,171.229 57.8972,171.386 C58.0534,171.555 58.2488,171.64 58.4831,171.64 C58.8607,171.64 59.655,171.249 60.8659,170.468 C62.0639,169.686 62.8061,169.12 63.0925,168.768 C63.2357,168.599 63.3074,168.41 63.3074,168.202 M62.2722,166.757 C63.392,166.757 63.9519,167.239 63.9519,168.202 C63.9519,168.671 63.8152,169.218 63.5417,169.843 C63.2683,170.455 62.9037,170.923 62.448,171.249 C61.4454,171.926 60.1889,172.265 58.6784,172.265 C57.5587,172.265 56.9988,171.783 56.9988,170.819 C56.9988,170.39 57.1355,169.849 57.4089,169.198 C57.6693,168.573 58.0339,168.098 58.5027,167.772 C59.5053,167.095 60.7618,166.757 62.2722,166.757"/>
<path class="Note" d="M63.3074,173.202 C63.3074,172.981 63.2227,172.792 63.0534,172.636 C62.8842,172.467 62.6889,172.382 62.4675,172.382 C62.0769,172.382 61.2891,172.773 60.1042,173.554 C58.8803,174.348 58.1316,174.915 57.8581,175.253 C57.7149,175.435 57.6433,175.624 57.6433,175.82 C57.6433,176.041 57.7279,176.23 57.8972,176.386 C58.0534,176.555 58.2488,176.64 58.4831,176.64 C58.8607,176.64 59.655,176.249 60.8659,175.468 C62.0639,174.687 62.8061,174.12 63.0925,173.769 C63.2357,173.6 63.3074,173.411 63.3074,173.202 M62.2722,171.757 C63.392,171.757 63.9519,172.239 63.9519,173.202 C63.9519,173.671 63.8152,174.218 63.5417,174.843 C63.2683,175.455 62.9037,175.924 62.448,176.249 C61.4454,176.926 60.1889,177.265 58.6784,177.265 C57.5587,177.265 56.9988,176.783 56.9988,175.82 C56.9988,175.39 57.1355,174.85 57.4089,174.198 C57.6693,173.573 58.0339,173.098 58.5027,172.773 C59.5053,172.096 60.7618,171.757 62.2722,171.757"/>
<path class="Note" d="M206.758,96.7524 C207.383,96.7524 207.911,96.9151 208.34,97.2406 C208.744,97.5922 208.946,98.0349 208.946,98.5688 C208.946,99.4672 208.483,100.307 207.559,101.088 C206.621,101.87 205.619,102.26 204.551,102.26 C203.926,102.26 203.399,102.097 202.969,101.772 C202.565,101.42 202.364,100.978 202.364,100.444 C202.364,99.5453 202.832,98.7055 203.77,97.9242 C204.681,97.143 205.677,96.7524 206.758,96.7524"/>
<path class="Note" d="M165.5,96.7524 C166.125,96.7524 166.652,96.9151 167.082,97.2406 C167.486,97.5922 167.687,98.0349 167.687,98.5688 C167.687,99.4672 167.225,100.307 166.301,101.088 C165.363,101.87 164.361,102.26 163.293,102.26 C162.668,102.26 162.141,102.097 161.711,101.772 C161.307,101.42 161.105,100.978 161.105,100.444 C161.105,99.5453 161.574,98.7055 162.512,97.9242 C163.423,97.143 164.419,96.7524 165.5,96.7524"/>
<path class="Note" d="M167.234,35.6937 C167.234,35.4724 167.149,35.2836 166.98,35.1273 C166.81,34.9581 166.615,34.8734 166.394,34.8734 C166.003,34.8734 165.215,35.264 164.03,36.0453 C162.806,36.8396 162.058,37.406 161.784,37.7445 C161.641,37.9268 161.569,38.1156 161.569,38.3109 C161.569,38.5323 161.654,38.7211 161.823,38.8773 C161.98,39.0466 162.175,39.1312 162.409,39.1312 C162.787,39.1312 163.581,38.7406 164.792,37.9594 C165.99,37.1781 166.732,36.6117 167.019,36.2601 C167.162,36.0909 167.234,35.9021 167.234,35.6937 M166.198,34.2484 C167.318,34.2484 167.878,34.7302 167.878,35.6937 C167.878,36.1625 167.741,36.7094 167.468,37.3344 C167.194,37.9463 166.83,38.4151 166.374,38.7406 C165.372,39.4177 164.115,39.7562 162.605,39.7562 C161.485,39.7562 160.925,39.2745 160.925,38.3109 C160.925,37.8812 161.062,37.3409 161.335,36.6898 C161.595,36.0648 161.96,35.5896 162.429,35.264 C163.431,34.587 164.688,34.2484 166.198,34.2484"/>
<path class="Note" d="M167.234,40.6941 C167.234,40.4727 167.149,40.2839 166.98,40.1276 C166.81,39.9584 166.615,39.8737 166.394,39.8737 C166.003,39.8737 165.215,40.2644 164.03,41.0456 C162.806,41.8399 162.058,42.4063 161.784,42.7448 C161.641,42.9271 161.569,43.1159 161.569,43.3112 C161.569,43.5326 161.654,43.7214 161.823,43.8776 C161.98,44.0469 162.175,44.1316 162.409,44.1316 C162.787,44.1316 163.581,43.7409 164.792,42.9597 C165.99,42.1784 166.732,41.612 167.019,41.2605 C167.162,41.0912 167.234,40.9024 167.234,40.6941 M166.198,39.2487 C167.318,39.2487 167.878,39.7305 167.878,40.6941 C167.878,41.1628 167.741,41.7097 167.468,42.3347 C167.194,42.9467 166.83,43.4154 166.374,43.7409 C165.372,44.418 164.115,44.7566 162.605,44.7566 C161.485,44.7566 160.925,44.2748 160.925,43.3112 C160.925,42.8816 161.062,42.3412 161.335,41.6901 C161.595,41.0651 161.96,40.5899 162.429,40.2644 C163.431,39.5873 164.688,39.2487 166.198,39.2487"/>
<path class="Note" d="M167.234,48.1945 C167.234,47.9732 167.149,47.7844 166.98,47.6281 C166.81,47.4588 166.615,47.3742 166.394,47.3742 C166.003,47.3742 165.215,47.7648 164.03,48.5461 C162.806,49.3404 162.058,49.9068 161.784,50.2453 C161.641,50.4276 161.569,50.6164 161.569,50.8117 C161.569,51.0331 161.654,51.2219 161.823,51.3781 C161.98,51.5474 162.175,51.632 162.409,51.632 C162.787,51.632 163.581,51.2414 164.792,50.4601 C165.99,49.6789 166.732,49.1125 167.019,48.7609 C167.162,48.5917 167.234,48.4029 167.234,48.1945 M166.198,46.7492 C167.318,46.7492 167.878,47.231 167.878,48.1945 C167.878,48.6633 167.741,49.2101 167.468,49.8351 C167.194,50.4471 166.83,50.9159 166.374,51.2414 C165.372,51.9185 164.115,52.257 162.605,52.257 C161.485,52.257 160.925,51.7753 160.925,50.8117 C160.925,50.382 161.062,49.8417 161.335,49.1906 C161.595,48.5656 161.96,48.0904 162.429,47.7648 C163.431,47.0878 164.688,46.7492 166.198,46.7492"/>
<path class="Note" d="M101.829,89.2519 C102.454,89.2519 102.981,89.4146 103.411,89.7402 C103.815,90.0917 104.016,90.5344 104.016,91.0683 C104.016,91.9667 103.554,92.8066 102.63,93.5878 C101.692,94.3691 100.69,94.7597 99.6218,94.7597 C98.9968,94.7597 98.4695,94.5969 98.0398,94.2714 C97.6361,93.9199 97.4343,93.4771 97.4343,92.9433 C97.4343,92.0449 97.903,91.205 98.8405,90.4238 C99.752,89.6425 100.748,89.2519 101.829,89.2519"/>
<path class="Note" d="M60.9706,89.2519 C61.5956,89.2519 62.123,89.4146 62.5526,89.7402 C62.9563,90.0917 63.1581,90.5344 63.1581,91.0683 C63.1581,91.9667 62.6959,92.8066 61.7714,93.5878 C60.8339,94.3691 59.8313,94.7597 58.7636,94.7597 C58.1386,94.7597 57.6112,94.5969 57.1815,94.2714 C56.7779,93.9199 56.5761,93.4771 56.5761,92.9433 C56.5761,92.0449 57.0448,91.205 57.9823,90.4238 C58.8938,89.6425 59.8899,89.2519 60.9706,89.2519"/>
<path class="Note" d="M62.7042,33.1936 C62.7042,32.9722 62.6196,32.7834 62.4503,32.6272 C62.281,32.4579 62.0857,32.3733 61.8643,32.3733 C61.4737,32.3733 60.686,32.7639 59.5011,33.5451 C58.2771,34.3394 57.5284,34.9058 57.255,35.2444 C57.1117,35.4267 57.0401,35.6155 57.0401,35.8108 C57.0401,36.0321 57.1248,36.2209 57.294,36.3772 C57.4503,36.5464 57.6456,36.6311 57.88,36.6311 C58.2576,36.6311 59.0518,36.2405 60.2628,35.4592 C61.4607,34.678 62.2029,34.1115 62.4893,33.76 C62.6326,33.5907 62.7042,33.4019 62.7042,33.1936 M61.669,31.7483 C62.7888,31.7483 63.3487,32.23 63.3487,33.1936 C63.3487,33.6623 63.212,34.2092 62.9386,34.8342 C62.6651,35.4462 62.3005,35.9149 61.8448,36.2405 C60.8422,36.9175 59.5857,37.2561 58.0753,37.2561 C56.9555,37.2561 56.3956,36.7743 56.3956,35.8108 C56.3956,35.3811 56.5323,34.8407 56.8058,34.1897 C57.0662,33.5647 57.4308,33.0894 57.8995,32.7639 C58.9021,32.0868 60.1586,31.7483 61.669,31.7483"/>
<path class="Note" d="M62.7042,40.6941 C62.7042,40.4727 62.6196,40.2839 62.4503,40.1276 C62.281,39.9584 62.0857,39.8737 61.8643,39.8737 C61.4737,39.8737 60.686,40.2644 59.5011,41.0456 C58.2771,41.8399 57.5284,42.4063 57.255,42.7448 C57.1117,42.9271 57.0401,43.1159 57.0401,43.3112 C57.0401,43.5326 57.1248,43.7214 57.294,43.8776 C57.4503,44.0469 57.6456,44.1316 57.88,44.1316 C58.2576,44.1316 59.0518,43.7409 60.2628,42.9597 C61.4607,42.1784 62.2029,41.612 62.4893,41.2605 C62.6326,41.0912 62.7042,40.9024 62.7042,40.6941 M61.669,39.2487 C62.7888,39.2487 63.3487,39.7305 63.3487,40.6941 C63.3487,41.1628 63.212,41.7097 62.9386,42.3347 C62.6651,42.9467 62.3005,43.4154 61.8448,43.7409 C60.8422,44.418 59.5857,44.7566 58.0753,44.7566 C56.9555,44.7566 56.3956,44.2748 56.3956,43.3112 C56.3956,42.8816 56.5323,42.3412 56.8058,41.6901 C57.0662,41.0651 57.4308,40.5899 57.8995,40.2644 C58.9021,39.5873 60.1586,39.2487 61.669,39.2487"/>
<path class="Note" d="M62.7042,45.6944 C62.7042,45.473 62.6196,45.2842 62.4503,45.128 C62.281,44.9587 62.0857,44.8741 61.8643,44.8741 C61.4737,44.8741 60.686,45.2647 59.5011,46.0459 C58.2771,46.8402 57.5284,47.4066 57.255,47.7451 C57.1117,47.9274 57.0401,48.1162 57.0401,48.3116 C57.0401,48.5329 57.1248,48.7217 57.294,48.878 C57.4503,49.0472 57.6456,49.1319 57.88,49.1319 C58.2576,49.1319 59.0518,48.7412 60.2628,47.96 C61.4607,47.1787 62.2029,46.6123 62.4893,46.2608 C62.6326,46.0915 62.7042,45.9027 62.7042,45.6944 M61.669,44.2491 C62.7888,44.2491 63.3487,44.7308 63.3487,45.6944 C63.3487,46.1631 63.212,46.71 62.9386,47.335 C62.6651,47.947 62.3005,48.4157 61.8448,48.7412 C60.8422,49.4183 59.5857,49.7569 58.0753,49.7569 C56.9555,49.7569 56.3956,49.2751 56.3956,48.3116 C56.3956,47.8819 56.5323,47.3415 56.8058,46.6905 C57.0662,46.0655 57.4308,45.5902 57.8995,45.2647 C58.9021,44.5876 60.1586,44.2491 61.669,44.2491"/>
<path class="Clef" d="M23.8266,210.236 C23.6312,210.041 23.5336,209.8 23.5336,209.513 C23.5336,209.227 23.6312,208.986 23.8266,208.791 C24.0219,208.595 24.2628,208.498 24.5492,208.498 C24.8357,208.498 25.0766,208.595 25.2719,208.791 C25.4672,208.986 25.5648,209.227 25.5648,209.513 C25.5648,209.8 25.4672,210.041 25.2719,210.236 C25.0766,210.431 24.8357,210.529 24.5492,210.529 C24.2628,210.529 24.0219,210.431 23.8266,210.236 M23.8266,215.236 C23.6312,215.041 23.5336,214.8 23.5336,214.513 C23.5336,214.227 23.6312,213.986 23.8266,213.791 C24.0219,213.595 24.2628,213.498 24.5492,213.498 C24.8357,213.498 25.0766,213.595 25.2719,213.791 C25.4672,213.986 25.5648,214.227 25.5648,214.513 C25.5648,214.8 25.4672,215.041 25.2719,215.236 C25.0766,215.431 24.8357,215.529 24.5492,215.529 C24.2628,215.529 24.0219,215.431 23.8266,215.236 M17.0492,206.759 C18.781,206.759 20.2003,207.196 21.307,208.068 C22.3747,208.98 22.9086,210.216 22.9086,211.779 C22.9086,212.834 22.7003,213.797 22.2836,214.67 C21.893,215.581 21.3786,216.388 20.7406,217.091 C20.0896,217.808 19.3018,218.485 18.3773,219.123 C17.4789,219.748 16.5544,220.308 15.6039,220.802 C13.6768,221.779 12.6091,222.267 12.4008,222.267 C12.2315,222.267 12.1469,222.183 12.1469,222.013 C12.1469,221.948 12.1729,221.89 12.225,221.838 C12.8891,221.447 13.7029,220.946 14.6664,220.334 C15.2914,219.93 16.0206,219.37 16.8539,218.654 C17.6612,217.977 18.2862,217.339 18.7289,216.74 C19.1846,216.154 19.6013,215.425 19.9789,214.552 C20.3044,213.68 20.4672,212.821 20.4672,211.974 C20.4672,210.711 20.1547,209.611 19.5297,208.674 C18.9047,207.736 18.0779,207.267 17.0492,207.267 C16.3201,207.267 15.6951,207.502 15.1742,207.97 C14.6143,208.452 14.2107,209.058 13.9633,209.787 C14.2107,209.683 14.4385,209.631 14.6469,209.631 C15.1937,209.631 15.6625,209.826 16.0531,210.216 C16.4437,210.633 16.6391,211.108 16.6391,211.642 C16.6391,212.202 16.4503,212.703 16.0727,213.146 C15.669,213.55 15.1937,213.752 14.6469,213.752 C14.0609,213.752 13.5336,213.55 13.0648,213.146 C12.6221,212.703 12.4008,212.202 12.4008,211.642 C12.4008,210.301 12.8565,209.155 13.768,208.205 C14.6664,207.241 15.7602,206.759 17.0492,206.759"/>
<path class="Clef" d="M19.7445,164.393 C19.7445,164.393 19.7836,164.393 19.8617,164.393 C19.9138,164.38 19.9594,164.374 19.9984,164.374 C21.4568,164.374 22.6547,164.888 23.5922,165.917 C24.5297,166.933 24.9984,168.117 24.9984,169.472 C24.9984,171.151 24.3018,172.518 22.9086,173.573 C22.544,173.86 22.0687,174.094 21.4828,174.276 C21.5479,175.123 21.5805,175.806 21.5805,176.327 C21.5805,176.431 21.5674,176.809 21.5414,177.46 C21.4893,178.671 21.0727,179.719 20.2914,180.604 C19.5362,181.477 18.5987,181.913 17.4789,181.913 C16.4242,181.913 15.5258,181.542 14.7836,180.8 C14.0414,180.045 13.6703,179.133 13.6703,178.065 C13.6703,177.505 13.8852,177.03 14.3148,176.64 C14.7576,176.249 15.2719,176.054 15.8578,176.054 C16.3786,176.054 16.8148,176.255 17.1664,176.659 C17.531,177.037 17.7133,177.505 17.7133,178.065 C17.7133,178.573 17.531,179.009 17.1664,179.374 C16.8018,179.739 16.3656,179.921 15.8578,179.921 C15.6495,179.921 15.4477,179.882 15.2523,179.804 C15.8253,180.65 16.587,181.073 17.5375,181.073 C18.4359,181.073 19.1716,180.709 19.7445,179.979 C20.3435,179.224 20.669,178.345 20.7211,177.343 C20.7471,176.718 20.7602,176.36 20.7602,176.268 C20.7602,175.539 20.7341,174.94 20.682,174.472 C20.031,174.576 19.4516,174.628 18.9437,174.628 C17.1339,174.628 15.5909,173.912 14.3148,172.479 C13.0648,171.034 12.4398,169.315 12.4398,167.323 C12.4398,166.907 12.4789,166.483 12.557,166.054 C12.6352,165.702 12.7328,165.318 12.85,164.901 C12.9151,164.667 13.0909,164.289 13.3773,163.768 C13.4815,163.612 13.5987,163.417 13.7289,163.183 C13.8591,162.948 13.9503,162.792 14.0023,162.714 C14.1326,162.453 14.3865,162.102 14.7641,161.659 C14.8682,161.542 14.9757,161.412 15.0863,161.268 C15.197,161.125 15.2914,161.008 15.3695,160.917 C15.4477,160.826 15.5062,160.754 15.5453,160.702 C15.5844,160.65 15.8773,160.305 16.4242,159.667 C16.5544,159.537 16.6814,159.397 16.8051,159.247 C16.9288,159.097 17.0297,158.98 17.1078,158.895 C17.1859,158.811 17.2445,158.749 17.2836,158.71 C16.8148,157.16 16.5219,155.923 16.4047,154.999 C16.3135,154.257 16.268,153.241 16.268,151.952 C16.268,150.819 16.5284,149.758 17.0492,148.768 C17.557,147.74 18.2667,146.9 19.1781,146.249 C19.2432,146.21 19.3083,146.19 19.3734,146.19 C19.4646,146.19 19.5297,146.21 19.5687,146.249 C20.2719,147.095 20.8773,148.196 21.3852,149.55 C21.906,150.904 22.1664,152.134 22.1664,153.241 C22.1664,154.491 21.8669,155.663 21.268,156.757 C20.5909,157.916 19.7185,159.114 18.6508,160.351 C18.9242,161.21 19.2888,162.558 19.7445,164.393 M21.4047,173.476 C22.0818,173.228 22.6091,172.805 22.9867,172.206 C23.4034,171.633 23.6117,170.989 23.6117,170.272 C23.6117,169.348 23.2992,168.528 22.6742,167.811 C22.0362,167.069 21.2224,166.653 20.2328,166.561 C20.7927,169.309 21.1833,171.614 21.4047,173.476 M13.8461,168.964 C13.8461,170.253 14.3669,171.386 15.4086,172.362 C16.4763,173.313 17.6742,173.788 19.0023,173.788 C19.5492,173.788 20.0831,173.749 20.6039,173.671 C20.3956,171.692 19.9854,169.322 19.3734,166.561 C18.6312,166.64 18.0388,166.9 17.5961,167.343 C17.1664,167.798 16.9516,168.313 16.9516,168.886 C16.9516,169.875 17.4789,170.676 18.5336,171.288 C18.6247,171.379 18.6703,171.477 18.6703,171.581 C18.6703,171.685 18.6247,171.783 18.5336,171.874 C18.4555,171.965 18.3578,172.011 18.2406,172.011 C18.2276,172.011 18.169,171.998 18.0648,171.972 C17.3227,171.568 16.7497,171.047 16.3461,170.409 C15.9685,169.732 15.7797,169.048 15.7797,168.358 C15.7797,167.46 16.0596,166.646 16.6195,165.917 C17.2055,165.188 17.9672,164.719 18.9047,164.511 C18.5401,163.052 18.2406,161.913 18.0062,161.093 C17.7979,161.327 17.5473,161.61 17.2543,161.942 C16.9613,162.274 16.7888,162.473 16.7367,162.538 C16.268,163.15 15.9099,163.625 15.6625,163.964 C15.2198,164.576 14.8943,165.103 14.6859,165.546 C14.4646,166.041 14.2693,166.581 14.1,167.167 C13.9307,167.727 13.8461,168.326 13.8461,168.964 M20.3695,149.101 C19.393,149.582 18.6247,150.272 18.0648,151.171 C17.4919,152.095 17.2055,153.091 17.2055,154.159 C17.2055,155.097 17.4398,156.36 17.9086,157.948 C18.8461,156.815 19.5492,155.767 20.018,154.804 C20.5128,153.788 20.7602,152.727 20.7602,151.62 C20.7602,150.787 20.6299,149.947 20.3695,149.101"/>
<path class="Clef" d="M23.8266,82.728 C23.6312,82.5327 23.5336,82.2918 23.5336,82.0053 C23.5336,81.7189 23.6312,81.478 23.8266,81.2827 C24.0219,81.0874 24.2628,80.9897 24.5492,80.9897 C24.8357,80.9897 25.0766,81.0874 25.2719,81.2827 C25.4672,81.478 25.5648,81.7189 25.5648,82.0053 C25.5648,82.2918 25.4672,82.5327 25.2719,82.728 C25.0766,82.9233 24.8357,83.0209 24.5492,83.0209 C24.2628,83.0209 24.0219,82.9233 23.8266,82.728 M23.8266,87.728 C23.6312,87.5327 23.5336,87.2918 23.5336,87.0053 C23.5336,86.7189 23.6312,86.478 23.8266,86.2827 C24.0219,86.0874 24.2628,85.9897 24.5492,85.9897 C24.8357,85.9897 25.0766,86.0874 25.2719,86.2827 C25.4672,86.478 25.5648,86.7189 25.5648,87.0053 C25.5648,87.2918 25.4672,87.5327 25.2719,87.728 C25.0766,87.9233 24.8357,88.0209 24.5492,88.0209 C24.2628,88.0209 24.0219,87.9233 23.8266,87.728 M17.0492,79.2514 C18.781,79.2514 20.2003,79.6876 21.307,80.56 C22.3747,81.4715 22.9086,82.7084 22.9086,84.2709 C22.9086,85.3256 22.7003,86.2892 22.2836,87.1616 C21.893,88.073 21.3786,88.8803 20.7406,89.5834 C20.0896,90.2996 19.3018,90.9767 18.3773,91.6147 C17.4789,92.2397 16.5544,92.7996 15.6039,93.2944 C13.6768,94.2709 12.6091,94.7592 12.4008,94.7592 C12.2315,94.7592 12.1469,94.6746 12.1469,94.5053 C12.1469,94.4402 12.1729,94.3816 12.225,94.3295 C12.8891,93.9389 13.7029,93.4376 14.6664,92.8256 C15.2914,92.422 16.0206,91.8621 16.8539,91.1459 C17.6612,90.4689 18.2862,89.8308 18.7289,89.2319 C19.1846,88.6459 19.6013,87.9168 19.9789,87.0444 C20.3044,86.172 20.4672,85.3126 20.4672,84.4663 C20.4672,83.2032 20.1547,82.103 19.5297,81.1655 C18.9047,80.228 18.0779,79.7592 17.0492,79.7592 C16.3201,79.7592 15.6951,79.9936 15.1742,80.4624 C14.6143,80.9441 14.2107,81.5496 13.9633,82.2788 C14.2107,82.1746 14.4385,82.1225 14.6469,82.1225 C15.1937,82.1225 15.6625,82.3178 16.0531,82.7084 C16.4437,83.1251 16.6391,83.6004 16.6391,84.1342 C16.6391,84.6941 16.4503,85.1954 16.0727,85.6381 C15.669,86.0418 15.1937,86.2436 14.6469,86.2436 C14.0609,86.2436 13.5336,86.0418 13.0648,85.6381 C12.6221,85.1954 12.4008,84.6941 12.4008,84.1342 C12.4008,82.7931 12.8565,81.6472 13.768,80.6967 C14.6664,79.7332 15.7602,79.2514 17.0492,79.2514"/>
<path class="Clef" d="M19.7445,36.8855 C19.7445,36.8855 19.7836,36.8855 19.8617,36.8855 C19.9138,36.8724 19.9594,36.8659 19.9984,36.8659 C21.4568,36.8659 22.6547,37.3802 23.5922,38.4089 C24.5297,39.4245 24.9984,40.6094 24.9984,41.9636 C24.9984,43.6433 24.3018,45.0105 22.9086,46.0651 C22.544,46.3516 22.0687,46.586 21.4828,46.7683 C21.5479,47.6146 21.5805,48.2982 21.5805,48.8191 C21.5805,48.9232 21.5674,49.3008 21.5414,49.9519 C21.4893,51.1628 21.0727,52.211 20.2914,53.0964 C19.5362,53.9688 18.5987,54.405 17.4789,54.405 C16.4242,54.405 15.5258,54.0339 14.7836,53.2917 C14.0414,52.5365 13.6703,51.625 13.6703,50.5573 C13.6703,49.9974 13.8852,49.5222 14.3148,49.1316 C14.7576,48.7409 15.2719,48.5456 15.8578,48.5456 C16.3786,48.5456 16.8148,48.7474 17.1664,49.1511 C17.531,49.5287 17.7133,49.9974 17.7133,50.5573 C17.7133,51.0651 17.531,51.5013 17.1664,51.8659 C16.8018,52.2305 16.3656,52.4128 15.8578,52.4128 C15.6495,52.4128 15.4477,52.3737 15.2523,52.2956 C15.8253,53.142 16.587,53.5651 17.5375,53.5651 C18.4359,53.5651 19.1716,53.2006 19.7445,52.4714 C20.3435,51.7162 20.669,50.8373 20.7211,49.8347 C20.7471,49.2097 20.7602,48.8516 20.7602,48.7605 C20.7602,48.0313 20.7341,47.4323 20.682,46.9636 C20.031,47.0677 19.4516,47.1198 18.9437,47.1198 C17.1339,47.1198 15.5909,46.4037 14.3148,44.9714 C13.0648,43.5261 12.4398,41.8073 12.4398,39.8151 C12.4398,39.3985 12.4789,38.9753 12.557,38.5456 C12.6352,38.1941 12.7328,37.8099 12.85,37.3933 C12.9151,37.1589 13.0909,36.7813 13.3773,36.2605 C13.4815,36.1042 13.5987,35.9089 13.7289,35.6745 C13.8591,35.4401 13.9503,35.2839 14.0023,35.2058 C14.1326,34.9454 14.3865,34.5938 14.7641,34.1511 C14.8682,34.0339 14.9757,33.9037 15.0863,33.7605 C15.197,33.6172 15.2914,33.5 15.3695,33.4089 C15.4477,33.3177 15.5062,33.2461 15.5453,33.1941 C15.5844,33.142 15.8773,32.7969 16.4242,32.1589 C16.5544,32.0287 16.6814,31.8887 16.8051,31.739 C16.9288,31.5892 17.0297,31.472 17.1078,31.3874 C17.1859,31.3028 17.2445,31.2409 17.2836,31.2019 C16.8148,29.6524 16.5219,28.4154 16.4047,27.4909 C16.3135,26.7487 16.268,25.7331 16.268,24.4441 C16.268,23.3112 16.5284,22.25 17.0492,21.2605 C17.557,20.2318 18.2667,19.392 19.1781,18.7409 C19.2432,18.7019 19.3083,18.6823 19.3734,18.6823 C19.4646,18.6823 19.5297,18.7019 19.5687,18.7409 C20.2719,19.5873 20.8773,20.6875 21.3852,22.0417 C21.906,23.3959 22.1664,24.6263 22.1664,25.7331 C22.1664,26.9831 21.8669,28.155 21.268,29.2487 C20.5909,30.4076 19.7185,31.6055 18.6508,32.8425 C18.9242,33.7019 19.2888,35.0495 19.7445,36.8855 M21.4047,45.9675 C22.0818,45.7201 22.6091,45.2969 22.9867,44.698 C23.4034,44.125 23.6117,43.4805 23.6117,42.7644 C23.6117,41.8399 23.2992,41.0196 22.6742,40.3034 C22.0362,39.5612 21.2224,39.1446 20.2328,39.0534 C20.7927,41.8008 21.1833,44.1055 21.4047,45.9675 M13.8461,41.4558 C13.8461,42.7448 14.3669,43.8776 15.4086,44.8542 C16.4763,45.8047 17.6742,46.28 19.0023,46.28 C19.5492,46.28 20.0831,46.2409 20.6039,46.1628 C20.3956,44.1836 19.9854,41.8138 19.3734,39.0534 C18.6312,39.1316 18.0388,39.392 17.5961,39.8347 C17.1664,40.2904 16.9516,40.8047 16.9516,41.3776 C16.9516,42.3672 17.4789,43.168 18.5336,43.78 C18.6247,43.8711 18.6703,43.9688 18.6703,44.073 C18.6703,44.1771 18.6247,44.2748 18.5336,44.3659 C18.4555,44.4571 18.3578,44.5026 18.2406,44.5026 C18.2276,44.5026 18.169,44.4896 18.0648,44.4636 C17.3227,44.0599 16.7497,43.5391 16.3461,42.9011 C15.9685,42.224 15.7797,41.5404 15.7797,40.8503 C15.7797,39.9519 16.0596,39.1381 16.6195,38.4089 C17.2055,37.6797 17.9672,37.211 18.9047,37.0026 C18.5401,35.5443 18.2406,34.405 18.0062,33.5847 C17.7979,33.8191 17.5473,34.1023 17.2543,34.4343 C16.9613,34.7663 16.7888,34.9649 16.7367,35.03 C16.268,35.642 15.9099,36.1172 15.6625,36.4558 C15.2198,37.0677 14.8943,37.5951 14.6859,38.0378 C14.4646,38.5326 14.2693,39.073 14.1,39.6589 C13.9307,40.2188 13.8461,40.8177 13.8461,41.4558 M20.3695,21.5925 C19.393,22.0743 18.6247,22.7644 18.0648,23.6628 C17.4919,24.5873 17.2055,25.5834 17.2055,26.6511 C17.2055,27.5886 17.4398,28.8516 17.9086,30.4401 C18.8461,29.3073 19.5492,28.2592 20.018,27.2956 C20.5128,26.28 20.7602,25.2188 20.7602,24.112 C20.7602,23.2787 20.6299,22.4388 20.3695,21.5925"/>
<path class="TimeSig" d="M37.466,216.467 C37.1274,216.467 36.7889,216.337 36.4503,216.076 C36.1248,215.829 35.9621,215.464 35.9621,214.982 C35.9621,214.579 36.0988,214.221 36.3722,213.908 C36.6326,213.596 36.9777,213.439 37.4074,213.439 C37.5506,213.439 37.6418,213.446 37.6808,213.459 C37.0819,212.691 36.2811,212.294 35.2785,212.268 C34.5233,212.268 33.9503,212.482 33.5597,212.912 C33.4295,213.081 33.3123,213.355 33.2082,213.732 C33.104,214.11 33.0519,214.449 33.0519,214.748 C33.0259,214.956 33.0128,215.373 33.0128,215.998 L33.0128,218.029 C33.0128,218.654 33.0259,219.077 33.0519,219.299 C33.104,220.145 33.2733,220.751 33.5597,221.115 C33.9634,221.558 34.5363,221.779 35.2785,221.779 C36.0597,221.779 36.7238,221.493 37.2707,220.92 C37.8306,220.36 38.2212,219.637 38.4425,218.752 C38.4816,218.622 38.5597,218.557 38.6769,218.557 C38.8462,218.557 38.9308,218.635 38.9308,218.791 C38.9308,218.882 38.8918,219.058 38.8136,219.318 C38.6313,219.904 38.2733,220.523 37.7394,221.174 C37.1014,221.903 36.2811,222.268 35.2785,222.268 C34.6925,222.268 34.0936,222.183 33.4816,222.014 C32.8826,221.805 32.3553,221.519 31.8996,221.154 C31.3918,220.751 30.9946,220.204 30.7082,219.514 C30.4217,218.758 30.2785,217.925 30.2785,217.014 C30.2785,215.425 30.7082,214.162 31.5675,213.225 C32.4009,212.261 33.6378,211.779 35.2785,211.779 C36.3462,211.779 37.1925,212.144 37.8175,212.873 C38.4686,213.602 38.7941,214.325 38.7941,215.041 C38.7941,215.458 38.6639,215.796 38.4035,216.057 C38.1691,216.33 37.8566,216.467 37.466,216.467"/>
<path class="TimeSig" d="M37.466,163.963 C37.1274,163.963 36.7889,163.833 36.4503,163.573 C36.1248,163.325 35.9621,162.961 35.9621,162.479 C35.9621,162.075 36.0988,161.717 36.3722,161.405 C36.6326,161.092 36.9777,160.936 37.4074,160.936 C37.5506,160.936 37.6418,160.943 37.6808,160.956 C37.0819,160.187 36.2811,159.79 35.2785,159.764 C34.5233,159.764 33.9503,159.979 33.5597,160.409 C33.4295,160.578 33.3123,160.852 33.2082,161.229 C33.104,161.607 33.0519,161.945 33.0519,162.245 C33.0259,162.453 33.0128,162.87 33.0128,163.495 L33.0128,165.526 C33.0128,166.151 33.0259,166.574 33.0519,166.796 C33.104,167.642 33.2733,168.247 33.5597,168.612 C33.9634,169.055 34.5363,169.276 35.2785,169.276 C36.0597,169.276 36.7238,168.99 37.2707,168.417 C37.8306,167.857 38.2212,167.134 38.4425,166.249 C38.4816,166.118 38.5597,166.053 38.6769,166.053 C38.8462,166.053 38.9308,166.131 38.9308,166.288 C38.9308,166.379 38.8918,166.555 38.8136,166.815 C38.6313,167.401 38.2733,168.019 37.7394,168.671 C37.1014,169.4 36.2811,169.764 35.2785,169.764 C34.6925,169.764 34.0936,169.68 33.4816,169.51 C32.8826,169.302 32.3553,169.016 31.8996,168.651 C31.3918,168.247 30.9946,167.7 30.7082,167.01 C30.4217,166.255 30.2785,165.422 30.2785,164.51 C30.2785,162.922 30.7082,161.659 31.5675,160.721 C32.4009,159.758 33.6378,159.276 35.2785,159.276 C36.3462,159.276 37.1925,159.641 37.8175,160.37 C38.4686,161.099 38.7941,161.822 38.7941,162.538 C38.7941,162.954 38.6639,163.293 38.4035,163.553 C38.1691,163.827 37.8566,163.963 37.466,163.963"/>
<path class="TimeSig" d="M35.2426,89.5053 C34.8519,89.5053 34.5004,89.4337 34.1879,89.2905 C33.8754,89.1472 33.654,88.9975 33.5238,88.8413 C33.3545,88.6459 33.1853,88.4962 33.016,88.392 C32.8077,88.2488 32.5928,88.1772 32.3715,88.1772 C32.0329,88.1772 31.753,88.2814 31.5316,88.4897 C31.2972,88.685 31.167,88.9519 31.141,89.2905 C31.115,89.4337 31.0368,89.5053 30.9066,89.5053 C30.7504,89.5053 30.6722,89.4337 30.6722,89.2905 C30.6722,88.7827 30.7894,88.3269 31.0238,87.9233 C31.2582,87.5066 31.5446,87.1616 31.8832,86.8881 C32.1696,86.6407 32.5472,86.3413 33.016,85.9897 C33.0941,85.9246 33.2601,85.7879 33.514,85.5795 C33.7679,85.3712 33.9795,85.1954 34.1488,85.0522 C34.4873,84.7657 34.7803,84.3881 35.0277,83.9194 C35.2621,83.4506 35.3793,82.9428 35.3793,82.3959 C35.3793,81.7319 35.2686,81.159 35.0472,80.6772 C34.8129,80.2084 34.4548,79.9741 33.973,79.9741 C33.6735,79.9741 33.4327,80.0392 33.2504,80.1694 C33.0551,80.2996 32.9574,80.4754 32.9574,80.6967 C32.9574,80.879 33.0746,81.1069 33.309,81.3803 C33.5433,81.6538 33.6605,81.8816 33.6605,82.0639 C33.6605,82.4545 33.5238,82.7866 33.2504,83.06 C32.99,83.3204 32.6709,83.4506 32.2933,83.4506 C31.9027,83.4506 31.5707,83.3139 31.2972,83.0405 C31.0368,82.754 30.9066,82.4285 30.9066,82.0639 C30.9066,81.3217 31.2061,80.7097 31.8051,80.228 C32.404,79.7462 33.1267,79.5053 33.973,79.5053 C34.9756,79.5053 35.848,79.7788 36.5902,80.3256 C37.3324,80.8465 37.7035,81.5366 37.7035,82.3959 C37.7035,82.9819 37.5993,83.4832 37.391,83.8999 C37.1957,84.3426 36.9027,84.6876 36.5121,84.935 C36.0694,85.2215 35.6853,85.4428 35.3597,85.5991 C34.904,85.8074 34.4483,86.0027 33.9926,86.185 C33.4457,86.4064 33.0225,86.6147 32.723,86.81 C32.8923,86.7709 33.0681,86.7514 33.2504,86.7514 C33.8493,86.7514 34.4743,86.9467 35.1254,87.3374 C35.7894,87.728 36.3038,87.9233 36.6683,87.9233 C36.8897,87.9233 37.0655,87.8842 37.1957,87.8061 C37.3259,87.728 37.4105,87.6433 37.4496,87.5522 C37.5017,87.422 37.5472,87.3308 37.5863,87.2788 C37.6384,87.2006 37.7035,87.1616 37.7816,87.1616 C37.9379,87.1616 38.016,87.2397 38.016,87.3959 C38.016,87.7605 37.7556,88.2032 37.2347,88.7241 C36.7269,89.2449 36.0629,89.5053 35.2426,89.5053"/>
<path class="TimeSig" d="M34.8207,89.7599 C35.2113,89.7599 35.5433,89.7143 35.8168,89.6231 C36.0902,89.532 36.266,89.4864 36.3441,89.4864 C36.4352,89.4864 36.5069,89.5125 36.5589,89.5645 C36.598,89.6036 36.624,89.6492 36.6371,89.7013 C36.6371,89.7273 36.624,89.7664 36.598,89.8185 L30.9144,96.42 L34.2543,96.42 L34.2543,93.8028 C34.2543,93.6336 34.2998,93.4903 34.391,93.3731 C34.5472,93.2429 34.6774,93.1648 34.7816,93.1388 C34.9509,93.0606 35.1592,92.8783 35.4066,92.5919 C35.6149,92.3575 35.8623,91.9474 36.1488,91.3614 C36.1878,91.2833 36.2464,91.2442 36.3246,91.2442 C36.4808,91.2442 36.572,91.3354 36.598,91.5177 L36.598,96.42 L38.0238,96.42 C38.2061,96.42 38.3102,96.5177 38.3363,96.713 C38.3363,96.9083 38.2321,97.006 38.0238,97.006 L36.598,97.006 L36.598,97.1622 C36.598,97.683 36.7282,98.1257 36.9886,98.4903 C37.2881,98.8549 37.6397,99.0372 38.0433,99.0372 C38.1996,99.0372 38.2777,99.1153 38.2777,99.2716 C38.2777,99.4278 38.1996,99.506 38.0433,99.506 C37.7699,99.506 37.3272,99.4669 36.7152,99.3888 C36.1553,99.2976 35.7191,99.252 35.4066,99.252 C35.0811,99.252 34.6449,99.2976 34.098,99.3888 C33.5121,99.4669 33.0759,99.506 32.7894,99.506 C32.6332,99.506 32.555,99.4278 32.555,99.2716 C32.555,99.1153 32.6332,99.0372 32.7894,99.0372 C33.1931,99.0372 33.5446,98.8549 33.8441,98.4903 C34.1175,98.1257 34.2543,97.683 34.2543,97.1622 L34.2543,97.006 L30.9144,97.006 C30.6931,97.006 30.5368,96.9539 30.4457,96.8497 C30.3415,96.7716 30.2894,96.6674 30.2894,96.5372 C30.2894,96.4981 30.3871,96.3614 30.5824,96.127 C30.8037,95.8666 31.0381,95.5476 31.2855,95.17 C31.572,94.7273 31.8454,94.2716 32.1058,93.8028 C32.3923,93.269 32.6201,92.657 32.7894,91.9669 C32.9847,91.2638 33.0824,90.5476 33.0824,89.8185 C33.0824,89.6101 33.1735,89.506 33.3558,89.506 C33.3949,89.506 33.4795,89.5255 33.6097,89.5645 C33.6488,89.5776 33.7302,89.5971 33.8539,89.6231 C33.9776,89.6492 34.0785,89.6752 34.1566,89.7013 C34.391,89.7403 34.6123,89.7599 34.8207,89.7599"/>
<path class="TimeSig" d="M35.2426,37.002 C34.8519,37.002 34.5004,36.9304 34.1879,36.7872 C33.8754,36.6439 33.654,36.4942 33.5238,36.338 C33.3545,36.1426 33.1853,35.9929 33.016,35.8887 C32.8077,35.7455 32.5928,35.6739 32.3715,35.6739 C32.0329,35.6739 31.753,35.7781 31.5316,35.9864 C31.2972,36.1817 31.167,36.4486 31.141,36.7872 C31.115,36.9304 31.0368,37.002 30.9066,37.002 C30.7504,37.002 30.6722,36.9304 30.6722,36.7872 C30.6722,36.2794 30.7894,35.8236 31.0238,35.42 C31.2582,35.0033 31.5446,34.6583 31.8832,34.3848 C32.1696,34.1374 32.5472,33.838 33.016,33.4864 C33.0941,33.4213 33.2601,33.2846 33.514,33.0762 C33.7679,32.8679 33.9795,32.6921 34.1488,32.5489 C34.4873,32.2624 34.7803,31.8848 35.0277,31.4161 C35.2621,30.9473 35.3793,30.4395 35.3793,29.8926 C35.3793,29.2286 35.2686,28.6557 35.0472,28.1739 C34.8129,27.7051 34.4548,27.4708 33.973,27.4708 C33.6735,27.4708 33.4327,27.5359 33.2504,27.6661 C33.0551,27.7963 32.9574,27.9721 32.9574,28.1934 C32.9574,28.3757 33.0746,28.6036 33.309,28.877 C33.5433,29.1505 33.6605,29.3783 33.6605,29.5606 C33.6605,29.9512 33.5238,30.2833 33.2504,30.5567 C32.99,30.8171 32.6709,30.9473 32.2933,30.9473 C31.9027,30.9473 31.5707,30.8106 31.2972,30.5372 C31.0368,30.2507 30.9066,29.9252 30.9066,29.5606 C30.9066,28.8184 31.2061,28.2064 31.8051,27.7247 C32.404,27.2429 33.1267,27.002 33.973,27.002 C34.9756,27.002 35.848,27.2755 36.5902,27.8223 C37.3324,28.3432 37.7035,29.0333 37.7035,29.8926 C37.7035,30.4786 37.5993,30.9799 37.391,31.3965 C37.1957,31.8393 36.9027,32.1843 36.5121,32.4317 C36.0694,32.7182 35.6853,32.9395 35.3597,33.0958 C34.904,33.3041 34.4483,33.4994 33.9926,33.6817 C33.4457,33.9031 33.0225,34.1114 32.723,34.3067 C32.8923,34.2676 33.0681,34.2481 33.2504,34.2481 C33.8493,34.2481 34.4743,34.4434 35.1254,34.834 C35.7894,35.2247 36.3038,35.42 36.6683,35.42 C36.8897,35.42 37.0655,35.3809 37.1957,35.3028 C37.3259,35.2247 37.4105,35.14 37.4496,35.0489 C37.5017,34.9187 37.5472,34.8275 37.5863,34.7755 C37.6384,34.6973 37.7035,34.6583 37.7816,34.6583 C37.9379,34.6583 38.016,34.7364 38.016,34.8926 C38.016,35.2572 37.7556,35.6999 37.2347,36.2208 C36.7269,36.7416 36.0629,37.002 35.2426,37.002"/>
<path class="TimeSig" d="M34.8207,37.2566 C35.2113,37.2566 35.5433,37.211 35.8168,37.1198 C36.0902,37.0287 36.266,36.9831 36.3441,36.9831 C36.4352,36.9831 36.5069,37.0092 36.5589,37.0612 C36.598,37.1003 36.624,37.1459 36.6371,37.198 C36.6371,37.224 36.624,37.2631 36.598,37.3151 L30.9144,43.9167 L34.2543,43.9167 L34.2543,41.2995 C34.2543,41.1302 34.2998,40.987 34.391,40.8698 C34.5472,40.7396 34.6774,40.6615 34.7816,40.6355 C34.9509,40.5573 35.1592,40.375 35.4066,40.0886 C35.6149,39.8542 35.8623,39.4441 36.1488,38.8581 C36.1878,38.78 36.2464,38.7409 36.3246,38.7409 C36.4808,38.7409 36.572,38.8321 36.598,39.0144 L36.598,43.9167 L38.0238,43.9167 C38.2061,43.9167 38.3102,44.0144 38.3363,44.2097 C38.3363,44.405 38.2321,44.5026 38.0238,44.5026 L36.598,44.5026 L36.598,44.6589 C36.598,45.1797 36.7282,45.6224 36.9886,45.987 C37.2881,46.3516 37.6397,46.5339 38.0433,46.5339 C38.1996,46.5339 38.2777,46.612 38.2777,46.7683 C38.2777,46.9245 38.1996,47.0026 38.0433,47.0026 C37.7699,47.0026 37.3272,46.9636 36.7152,46.8855 C36.1553,46.7943 35.7191,46.7487 35.4066,46.7487 C35.0811,46.7487 34.6449,46.7943 34.098,46.8855 C33.5121,46.9636 33.0759,47.0026 32.7894,47.0026 C32.6332,47.0026 32.555,46.9245 32.555,46.7683 C32.555,46.612 32.6332,46.5339 32.7894,46.5339 C33.1931,46.5339 33.5446,46.3516 33.8441,45.987 C34.1175,45.6224 34.2543,45.1797 34.2543,44.6589 L34.2543,44.5026 L30.9144,44.5026 C30.6931,44.5026 30.5368,44.4506 30.4457,44.3464 C30.3415,44.2683 30.2894,44.1641 30.2894,44.0339 C30.2894,43.9948 30.3871,43.8581 30.5824,43.6237 C30.8037,43.3633 31.0381,43.0443 31.2855,42.6667 C31.572,42.224 31.8454,41.7683 32.1058,41.2995 C32.3923,40.7657 32.6201,40.1537 32.7894,39.4636 C32.9847,38.7605 33.0824,38.0443 33.0824,37.3151 C33.0824,37.1068 33.1735,37.0026 33.3558,37.0026 C33.3949,37.0026 33.4795,37.0222 33.6097,37.0612 C33.6488,37.0743 33.7302,37.0938 33.8539,37.1198 C33.9776,37.1459 34.0785,37.1719 34.1566,37.198 C34.391,37.237 34.6123,37.2566 34.8207,37.2566"/>
<path class="StaffText" d="M57.4892,138.738 C57.5226,138.585 57.5559,138.452 57.5892,138.338 C57.6226,138.225 57.6942,138.06 57.8042,137.843 C57.9142,137.627 58.0376,137.447 58.1742,137.303 C58.3109,137.16 58.5009,137.032 58.7442,136.918 C58.9876,136.805 59.2626,136.748 59.5692,136.748 C60.0892,136.748 60.5276,136.918 60.8842,137.258 C61.2409,137.598 61.4192,138.018 61.4192,138.518 C61.4192,139.272 60.9926,140.095 60.1392,140.988 L58.4592,142.748 L60.8492,142.748 C61.0759,142.748 61.2442,142.71 61.3542,142.633 C61.4642,142.557 61.6126,142.375 61.7992,142.088 L61.9292,142.138 L61.3792,143.508 L57.4792,143.508 L57.4792,143.388 L59.2592,141.498 C60.1259,140.578 60.5592,139.712 60.5592,138.898 C60.5592,138.478 60.4292,138.138 60.1692,137.878 C59.9092,137.618 59.5692,137.488 59.1492,137.488 C58.8026,137.488 58.5242,137.583 58.3142,137.773 C58.1042,137.963 57.8992,138.302 57.6992,138.788 L57.4892,138.738 M64.9292,142.538 C64.9292,142.418 64.9426,142.307 64.9692,142.203 C64.9959,142.1 65.0426,142.003 65.1092,141.913 C65.1759,141.823 65.2392,141.742 65.2992,141.668 C65.3592,141.595 65.4492,141.52 65.5692,141.443 C65.6892,141.367 65.7892,141.303 65.8692,141.253 C65.9492,141.203 66.0709,141.143 66.2342,141.073 C66.3976,141.003 66.5226,140.95 66.6092,140.913 C66.6959,140.877 66.8326,140.822 67.0192,140.748 C67.2059,140.675 67.3426,140.622 67.4292,140.588 L67.4292,139.978 C67.4292,139.425 67.1759,139.148 66.6692,139.148 C66.4692,139.148 66.2992,139.197 66.1592,139.293 C66.0192,139.39 65.9492,139.505 65.9492,139.638 C65.9492,139.692 65.9576,139.765 65.9742,139.858 C65.9909,139.952 65.9992,140.012 65.9992,140.038 C65.9992,140.152 65.9542,140.25 65.8642,140.333 C65.7742,140.417 65.6692,140.458 65.5492,140.458 C65.4359,140.458 65.3359,140.415 65.2492,140.328 C65.1626,140.242 65.1192,140.142 65.1192,140.028 C65.1192,139.715 65.2809,139.45 65.6042,139.233 C65.9276,139.017 66.3259,138.908 66.7992,138.908 C67.3459,138.908 67.7226,139.04 67.9292,139.303 C68.1359,139.567 68.2392,139.968 68.2392,140.508 L68.2392,142.458 C68.2392,142.678 68.2609,142.83 68.3042,142.913 C68.3476,142.997 68.4259,143.038 68.5392,143.038 C68.6792,143.038 68.8259,142.975 68.9792,142.848 L68.9792,143.108 C68.8059,143.302 68.6542,143.433 68.5242,143.503 C68.3942,143.573 68.2459,143.608 68.0792,143.608 C67.8726,143.608 67.7209,143.552 67.6242,143.438 C67.5276,143.325 67.4659,143.138 67.4392,142.878 C66.8659,143.365 66.3792,143.608 65.9792,143.608 C65.6726,143.608 65.4209,143.508 65.2242,143.308 C65.0276,143.108 64.9292,142.852 64.9292,142.538 M67.4292,142.278 L67.4292,140.828 C66.8292,141.048 66.4092,141.262 66.1692,141.468 C65.9292,141.675 65.8092,141.925 65.8092,142.218 C65.8092,142.492 65.8759,142.695 66.0092,142.828 C66.1426,142.962 66.2859,143.028 66.4392,143.028 C66.6659,143.028 66.9092,142.952 67.1692,142.798 C67.2759,142.738 67.3459,142.675 67.3792,142.608 C67.4126,142.542 67.4292,142.432 67.4292,142.278 M69.123,137.278 L69.123,137.118 C69.6897,136.978 70.2063,136.832 70.673,136.678 L70.713,136.698 L70.713,140.898 L72.083,139.678 C72.2363,139.545 72.313,139.432 72.313,139.338 C72.313,139.272 72.278,139.225 72.208,139.198 C72.138,139.172 72.0063,139.155 71.813,139.148 L71.813,139.008 L73.853,139.008 L73.853,139.158 C73.6997,139.158 73.578,139.167 73.488,139.183 C73.398,139.2 73.2697,139.245 73.103,139.318 C72.9363,139.392 72.7413,139.518 72.518,139.698 C72.2947,139.878 72.0197,140.118 71.693,140.418 L71.403,140.688 L72.933,142.628 C73.1397,142.882 73.3313,143.063 73.508,143.173 C73.6847,143.283 73.883,143.345 74.103,143.358 L74.103,143.508 L71.923,143.508 L71.923,143.358 C72.1897,143.358 72.323,143.308 72.323,143.208 C72.323,143.182 72.313,143.15 72.293,143.113 C72.273,143.077 72.2413,143.033 72.198,142.983 C72.1547,142.933 72.1263,142.895 72.113,142.868 L70.713,140.998 L70.713,142.708 C70.713,142.948 70.7513,143.102 70.828,143.168 C70.9047,143.235 71.1163,143.298 71.463,143.358 L71.463,143.508 L69.123,143.508 L69.123,143.358 C69.483,143.298 69.698,143.237 69.768,143.173 C69.838,143.11 69.873,142.948 69.873,142.688 L69.873,137.868 C69.873,137.628 69.843,137.467 69.783,137.383 C69.723,137.3 69.6097,137.258 69.443,137.258 C69.3497,137.258 69.243,137.265 69.123,137.278 M74.248,137.278 L74.248,137.118 C74.8147,136.978 75.3313,136.832 75.798,136.678 L75.838,136.698 L75.838,140.898 L77.208,139.678 C77.3613,139.545 77.438,139.432 77.438,139.338 C77.438,139.272 77.403,139.225 77.333,139.198 C77.263,139.172 77.1313,139.155 76.938,139.148 L76.938,139.008 L78.978,139.008 L78.978,139.158 C78.8247,139.158 78.703,139.167 78.613,139.183 C78.523,139.2 78.3947,139.245 78.228,139.318 C78.0613,139.392 77.8663,139.518 77.643,139.698 C77.4197,139.878 77.1447,140.118 76.818,140.418 L76.528,140.688 L78.058,142.628 C78.2647,142.882 78.4563,143.063 78.633,143.173 C78.8097,143.283 79.008,143.345 79.228,143.358 L79.228,143.508 L77.048,143.508 L77.048,143.358 C77.3147,143.358 77.448,143.308 77.448,143.208 C77.448,143.182 77.438,143.15 77.418,143.113 C77.398,143.077 77.3663,143.033 77.323,142.983 C77.2797,142.933 77.2513,142.895 77.238,142.868 L75.838,140.998 L75.838,142.708 C75.838,142.948 75.8763,143.102 75.953,143.168 C76.0297,143.235 76.2413,143.298 76.588,143.358 L76.588,143.508 L74.248,143.508 L74.248,143.358 C74.608,143.298 74.823,143.237 74.893,143.173 C74.963,143.11 74.998,142.948 74.998,142.688 L74.998,137.868 C74.998,137.628 74.968,137.467 74.908,137.383 C74.848,137.3 74.7347,137.258 74.568,137.258 C74.4747,137.258 74.368,137.265 74.248,137.278 M81.733,138.908 C82.373,138.908 82.8997,139.122 83.313,139.548 C83.7263,139.975 83.933,140.515 83.933,141.168 C83.933,141.862 83.7197,142.442 83.293,142.908 C82.8663,143.375 82.3397,143.608 81.713,143.608 C81.0863,143.608 80.5647,143.383 80.148,142.933 C79.7313,142.483 79.523,141.922 79.523,141.248 C79.523,140.562 79.728,140 80.138,139.563 C80.548,139.127 81.0797,138.908 81.733,138.908 M80.423,140.758 C80.423,141.472 80.553,142.078 80.813,142.578 C81.073,143.078 81.413,143.328 81.833,143.328 C82.2063,143.328 82.4997,143.168 82.713,142.848 C82.9263,142.528 83.033,142.085 83.033,141.518 C83.033,140.832 82.8997,140.272 82.633,139.838 C82.3663,139.405 82.023,139.188 81.603,139.188 C81.2497,139.188 80.9647,139.332 80.748,139.618 C80.5313,139.905 80.423,140.285 80.423,140.758 M87.1892,139.888 C87.0892,139.888 86.9659,139.83 86.8192,139.713 C86.6726,139.597 86.5759,139.538 86.5292,139.538 C86.3959,139.538 86.2459,139.635 86.0792,139.828 C85.9126,140.022 85.8292,140.198 85.8292,140.358 L85.8292,142.608 C85.8292,142.895 85.8859,143.088 85.9992,143.188 C86.1126,143.288 86.3392,143.345 86.6792,143.358 L86.6792,143.508 L84.2792,143.508 L84.2792,143.358 C84.5992,143.298 84.7976,143.232 84.8742,143.158 C84.9509,143.085 84.9892,142.922 84.9892,142.668 L84.9892,140.168 C84.9892,139.948 84.9642,139.793 84.9142,139.703 C84.8642,139.613 84.7759,139.568 84.6492,139.568 C84.5426,139.568 84.4259,139.582 84.2992,139.608 L84.2992,139.448 C84.8326,139.275 85.3259,139.095 85.7792,138.908 L85.8292,138.928 L85.8292,139.848 C86.0759,139.495 86.2859,139.25 86.4592,139.113 C86.6326,138.977 86.8226,138.908 87.0292,138.908 C87.2026,138.908 87.3376,138.955 87.4342,139.048 C87.5309,139.142 87.5792,139.272 87.5792,139.438 C87.5792,139.578 87.5442,139.688 87.4742,139.768 C87.4042,139.848 87.3092,139.888 87.1892,139.888 M91.0367,143.608 L90.9967,143.578 L90.9967,142.938 C90.6767,143.385 90.2501,143.608 89.7167,143.608 C89.1634,143.608 88.7167,143.41 88.3767,143.013 C88.0367,142.617 87.8667,142.098 87.8667,141.458 C87.8667,140.752 88.0701,140.15 88.4767,139.653 C88.8834,139.157 89.3734,138.908 89.9467,138.908 C90.3067,138.908 90.6567,139.052 90.9967,139.338 L90.9967,137.778 C90.9967,137.572 90.9667,137.435 90.9067,137.368 C90.8467,137.302 90.7234,137.268 90.5367,137.268 C90.4434,137.268 90.3701,137.272 90.3167,137.278 L90.3167,137.118 C90.9234,136.958 91.4134,136.812 91.7867,136.678 L91.8367,136.698 L91.8367,142.368 C91.8367,142.602 91.8651,142.755 91.9217,142.828 C91.9784,142.902 92.0967,142.938 92.2767,142.938 C92.3101,142.938 92.3867,142.935 92.5067,142.928 L92.5067,143.088 L91.0367,143.608 M90.1067,143.088 C90.3601,143.088 90.5717,143.017 90.7417,142.873 C90.9117,142.73 90.9967,142.602 90.9967,142.488 L90.9967,140.188 C90.9967,139.922 90.8934,139.688 90.6867,139.488 C90.4801,139.288 90.2434,139.188 89.9767,139.188 C89.5967,139.188 89.2934,139.358 89.0667,139.698 C88.8401,140.038 88.7267,140.492 88.7267,141.058 C88.7267,141.672 88.8534,142.163 89.1067,142.533 C89.3601,142.903 89.6934,143.088 90.1067,143.088 M95.0611,138.908 C95.7011,138.908 96.2278,139.122 96.6411,139.548 C97.0544,139.975 97.2611,140.515 97.2611,141.168 C97.2611,141.862 97.0478,142.442 96.6211,142.908 C96.1944,143.375 95.6678,143.608 95.0411,143.608 C94.4144,143.608 93.8928,143.383 93.4761,142.933 C93.0594,142.483 92.8511,141.922 92.8511,141.248 C92.8511,140.562 93.0561,140 93.4661,139.563 C93.8761,139.127 94.4078,138.908 95.0611,138.908 M93.7511,140.758 C93.7511,141.472 93.8811,142.078 94.1411,142.578 C94.4011,143.078 94.7411,143.328 95.1611,143.328 C95.5344,143.328 95.8278,143.168 96.0411,142.848 C96.2544,142.528 96.3611,142.085 96.3611,141.518 C96.3611,140.832 96.2278,140.272 95.9611,139.838 C95.6944,139.405 95.3511,139.188 94.9311,139.188 C94.5778,139.188 94.2928,139.332 94.0761,139.618 C93.8594,139.905 93.7511,140.285 93.7511,140.758 M97.6074,139.528 L97.6074,139.358 C98.1007,139.212 98.5607,139.062 98.9874,138.908 L99.0574,138.928 L99.0574,139.718 C99.3974,139.398 99.6657,139.183 99.8624,139.073 C100.059,138.963 100.274,138.908 100.507,138.908 C100.874,138.908 101.162,139.04 101.372,139.303 C101.582,139.567 101.687,139.935 101.687,140.408 L101.687,142.698 C101.687,142.945 101.727,143.11 101.807,143.193 C101.887,143.277 102.051,143.332 102.297,143.358 L102.297,143.508 L100.217,143.508 L100.217,143.358 C100.471,143.338 100.639,143.272 100.722,143.158 C100.806,143.045 100.847,142.832 100.847,142.518 L100.847,140.428 C100.847,139.782 100.604,139.458 100.117,139.458 C99.9507,139.458 99.7974,139.497 99.6574,139.573 C99.5174,139.65 99.3274,139.802 99.0874,140.028 L99.0874,142.838 C99.0874,143.018 99.134,143.145 99.2274,143.218 C99.3207,143.292 99.494,143.338 99.7474,143.358 L99.7474,143.508 L97.6274,143.508 L97.6274,143.358 C97.8807,143.338 98.0474,143.28 98.1274,143.183 C98.2074,143.087 98.2474,142.895 98.2474,142.608 L98.2474,140.128 C98.2474,139.882 98.2207,139.713 98.1674,139.623 C98.114,139.533 98.0174,139.488 97.8774,139.488 C97.7507,139.488 97.6607,139.502 97.6074,139.528 M102.482,137.278 L102.482,137.118 C103.049,136.978 103.566,136.832 104.032,136.678 L104.072,136.698 L104.072,140.898 L105.442,139.678 C105.596,139.545 105.672,139.432 105.672,139.338 C105.672,139.272 105.637,139.225 105.567,139.198 C105.497,139.172 105.366,139.155 105.172,139.148 L105.172,139.008 L107.212,139.008 L107.212,139.158 C107.059,139.158 106.937,139.167 106.847,139.183 C106.757,139.2 106.629,139.245 106.462,139.318 C106.296,139.392 106.101,139.518 105.877,139.698 C105.654,139.878 105.379,140.118 105.052,140.418 L104.762,140.688 L106.292,142.628 C106.499,142.882 106.691,143.063 106.867,143.173 C107.044,143.283 107.242,143.345 107.462,143.358 L107.462,143.508 L105.282,143.508 L105.282,143.358 C105.549,143.358 105.682,143.308 105.682,143.208 C105.682,143.182 105.672,143.15 105.652,143.113 C105.632,143.077 105.601,143.033 105.557,142.983 C105.514,142.933 105.486,142.895 105.472,142.868 L104.072,140.998 L104.072,142.708 C104.072,142.948 104.111,143.102 104.187,143.168 C104.264,143.235 104.476,143.298 104.822,143.358 L104.822,143.508 L102.482,143.508 L102.482,143.358 C102.842,143.298 103.057,143.237 103.127,143.173 C103.197,143.11 103.232,142.948 103.232,142.688 L103.232,137.868 C103.232,137.628 103.202,137.467 103.142,137.383 C103.082,137.3 102.969,137.258 102.802,137.258 C102.709,137.258 102.602,137.265 102.482,137.278 M109.447,138.458 L109.047,138.458 L110.517,136.978 C110.671,136.825 110.811,136.748 110.937,136.748 C111.171,136.748 111.287,136.855 111.287,137.068 C111.287,137.222 111.187,137.362 110.987,137.488 L109.447,138.458 M108.477,140.738 C108.491,141.158 108.547,141.52 108.647,141.823 C108.747,142.127 108.877,142.353 109.037,142.503 C109.197,142.653 109.359,142.76 109.522,142.823 C109.686,142.887 109.857,142.918 110.037,142.918 C110.357,142.918 110.636,142.838 110.872,142.678 C111.109,142.518 111.347,142.248 111.587,141.868 L111.747,141.938 C111.541,142.478 111.254,142.892 110.887,143.178 C110.521,143.465 110.101,143.608 109.627,143.608 C109.054,143.608 108.599,143.407 108.262,143.003 C107.926,142.6 107.757,142.055 107.757,141.368 C107.757,140.628 107.952,140.033 108.342,139.583 C108.732,139.133 109.234,138.908 109.847,138.908 C110.354,138.908 110.747,139.06 111.027,139.363 C111.307,139.667 111.484,140.125 111.557,140.738 L108.477,140.738 M108.497,140.418 L110.537,140.418 C110.471,139.985 110.367,139.685 110.227,139.518 C110.087,139.352 109.864,139.268 109.557,139.268 C108.957,139.268 108.604,139.652 108.497,140.418 M112.045,139.528 L112.045,139.358 C112.538,139.212 112.998,139.062 113.425,138.908 L113.495,138.928 L113.495,139.718 C113.835,139.398 114.103,139.183 114.3,139.073 C114.497,138.963 114.712,138.908 114.945,138.908 C115.312,138.908 115.6,139.04 115.81,139.303 C116.02,139.567 116.125,139.935 116.125,140.408 L116.125,142.698 C116.125,142.945 116.165,143.11 116.245,143.193 C116.325,143.277 116.488,143.332 116.735,143.358 L116.735,143.508 L114.655,143.508 L114.655,143.358 C114.908,143.338 115.077,143.272 115.16,143.158 C115.243,143.045 115.285,142.832 115.285,142.518 L115.285,140.428 C115.285,139.782 115.042,139.458 114.555,139.458 C114.388,139.458 114.235,139.497 114.095,139.573 C113.955,139.65 113.765,139.802 113.525,140.028 L113.525,142.838 C113.525,143.018 113.572,143.145 113.665,143.218 C113.758,143.292 113.932,143.338 114.185,143.358 L114.185,143.508 L112.065,143.508 L112.065,143.358 C112.318,143.338 112.485,143.28 112.565,143.183 C112.645,143.087 112.685,142.895 112.685,142.608 L112.685,140.128 C112.685,139.882 112.658,139.713 112.605,139.623 C112.552,139.533 112.455,139.488 112.315,139.488 C112.188,139.488 112.098,139.502 112.045,139.528 M119.41,139.008 L119.41,139.328 L118.4,139.328 L118.4,142.188 C118.4,142.502 118.44,142.73 118.52,142.873 C118.6,143.017 118.733,143.088 118.92,143.088 C119.127,143.088 119.327,142.972 119.52,142.738 L119.65,142.848 C119.33,143.355 118.93,143.608 118.45,143.608 C117.857,143.608 117.56,143.185 117.56,142.338 L117.56,139.328 L117.03,139.328 C117.003,139.308 116.99,139.285 116.99,139.258 C116.99,139.225 117,139.198 117.02,139.178 C117.04,139.158 117.078,139.13 117.135,139.093 C117.192,139.057 117.26,139.007 117.34,138.943 C117.42,138.88 117.53,138.765 117.67,138.598 C117.81,138.432 117.963,138.232 118.13,137.998 C118.237,137.845 118.303,137.752 118.33,137.718 C118.377,137.718 118.4,137.762 118.4,137.848 L118.4,139.008 L119.41,139.008 M121.008,138.918 C121.161,138.918 121.293,138.975 121.403,139.088 C121.513,139.202 121.568,139.335 121.568,139.488 C121.568,139.635 121.511,139.762 121.398,139.868 C121.285,139.975 121.151,140.028 120.998,140.028 C120.851,140.028 120.725,139.975 120.618,139.868 C120.511,139.762 120.458,139.635 120.458,139.488 C120.458,139.335 120.513,139.202 120.623,139.088 C120.733,138.975 120.861,138.918 121.008,138.918 M121.008,142.508 C121.161,142.508 121.293,142.565 121.403,142.678 C121.513,142.792 121.568,142.925 121.568,143.078 C121.568,143.225 121.511,143.352 121.398,143.458 C121.285,143.565 121.151,143.618 120.998,143.618 C120.851,143.618 120.725,143.565 120.618,143.458 C120.511,143.352 120.458,143.225 120.458,143.078 C120.458,142.925 120.513,142.792 120.623,142.678 C120.733,142.565 120.861,142.508 121.008,142.508"/>
<path class="StaffText" d="M58.4061,10.0704 C58.2861,10.0704 58.0461,10.1438 57.6861,10.2904 L57.6861,10.1504 L59.4861,9.24044 L59.5661,9.26044 L59.5661,15.2604 C59.5661,15.5004 59.6261,15.6571 59.7461,15.7304 C59.8661,15.8038 60.1227,15.8438 60.5161,15.8504 L60.5161,16.0004 L57.7561,16.0004 L57.7561,15.8504 C58.1294,15.8371 58.3811,15.7821 58.5111,15.6854 C58.6411,15.5888 58.7061,15.3838 58.7061,15.0704 L58.7061,10.5404 C58.7061,10.2271 58.6061,10.0704 58.4061,10.0704 M64.3261,15.0304 C64.3261,14.9104 64.3394,14.7988 64.3661,14.6954 C64.3927,14.5921 64.4394,14.4954 64.5061,14.4054 C64.5727,14.3154 64.6361,14.2338 64.6961,14.1604 C64.7561,14.0871 64.8461,14.0121 64.9661,13.9354 C65.0861,13.8588 65.1861,13.7954 65.2661,13.7454 C65.3461,13.6954 65.4677,13.6354 65.6311,13.5654 C65.7944,13.4954 65.9194,13.4421 66.0061,13.4054 C66.0927,13.3688 66.2294,13.3138 66.4161,13.2404 C66.6027,13.1671 66.7394,13.1138 66.8261,13.0804 L66.8261,12.4704 C66.8261,11.9171 66.5727,11.6404 66.0661,11.6404 C65.8661,11.6404 65.6961,11.6888 65.5561,11.7854 C65.4161,11.8821 65.3461,11.9971 65.3461,12.1304 C65.3461,12.1838 65.3544,12.2571 65.3711,12.3504 C65.3877,12.4438 65.3961,12.5038 65.3961,12.5304 C65.3961,12.6438 65.3511,12.7421 65.2611,12.8254 C65.1711,12.9088 65.0661,12.9504 64.9461,12.9504 C64.8327,12.9504 64.7327,12.9071 64.6461,12.8204 C64.5594,12.7338 64.5161,12.6338 64.5161,12.5204 C64.5161,12.2071 64.6777,11.9421 65.0011,11.7254 C65.3244,11.5088 65.7227,11.4004 66.1961,11.4004 C66.7427,11.4004 67.1194,11.5321 67.3261,11.7954 C67.5327,12.0588 67.6361,12.4604 67.6361,13.0004 L67.6361,14.9504 C67.6361,15.1704 67.6577,15.3221 67.7011,15.4054 C67.7444,15.4888 67.8227,15.5304 67.9361,15.5304 C68.0761,15.5304 68.2227,15.4671 68.3761,15.3404 L68.3761,15.6004 C68.2027,15.7938 68.0511,15.9254 67.9211,15.9954 C67.7911,16.0654 67.6427,16.1004 67.4761,16.1004 C67.2694,16.1004 67.1177,16.0438 67.0211,15.9304 C66.9244,15.8171 66.8627,15.6304 66.8361,15.3704 C66.2627,15.8571 65.7761,16.1004 65.3761,16.1004 C65.0694,16.1004 64.8177,16.0004 64.6211,15.8004 C64.4244,15.6004 64.3261,15.3438 64.3261,15.0304 M66.8261,14.7704 L66.8261,13.3204 C66.2261,13.5404 65.8061,13.7538 65.5661,13.9604 C65.3261,14.1671 65.2061,14.4171 65.2061,14.7104 C65.2061,14.9838 65.2727,15.1871 65.4061,15.3204 C65.5394,15.4538 65.6827,15.5204 65.8361,15.5204 C66.0627,15.5204 66.3061,15.4438 66.5661,15.2904 C66.6727,15.2304 66.7427,15.1671 66.7761,15.1004 C66.8094,15.0338 66.8261,14.9238 66.8261,14.7704 M68.5198,9.77044 L68.5198,9.61044 C69.0865,9.47044 69.6032,9.32377 70.0698,9.17044 L70.1098,9.19044 L70.1098,13.3904 L71.4798,12.1704 C71.6332,12.0371 71.7098,11.9238 71.7098,11.8304 C71.7098,11.7638 71.6748,11.7171 71.6048,11.6904 C71.5348,11.6638 71.4032,11.6471 71.2098,11.6404 L71.2098,11.5004 L73.2498,11.5004 L73.2498,11.6504 C73.0965,11.6504 72.9748,11.6588 72.8848,11.6754 C72.7948,11.6921 72.6665,11.7371 72.4998,11.8104 C72.3332,11.8838 72.1382,12.0104 71.9148,12.1904 C71.6915,12.3704 71.4165,12.6104 71.0898,12.9104 L70.7998,13.1804 L72.3298,15.1204 C72.5365,15.3738 72.7282,15.5554 72.9048,15.6654 C73.0815,15.7754 73.2798,15.8371 73.4998,15.8504 L73.4998,16.0004 L71.3198,16.0004 L71.3198,15.8504 C71.5865,15.8504 71.7198,15.8004 71.7198,15.7004 C71.7198,15.6738 71.7098,15.6421 71.6898,15.6054 C71.6698,15.5688 71.6382,15.5254 71.5948,15.4754 C71.5515,15.4254 71.5232,15.3871 71.5098,15.3604 L70.1098,13.4904 L70.1098,15.2004 C70.1098,15.4404 70.1482,15.5938 70.2248,15.6604 C70.3015,15.7271 70.5132,15.7904 70.8598,15.8504 L70.8598,16.0004 L68.5198,16.0004 L68.5198,15.8504 C68.8798,15.7904 69.0948,15.7288 69.1648,15.6654 C69.2348,15.6021 69.2698,15.4404 69.2698,15.1804 L69.2698,10.3604 C69.2698,10.1204 69.2398,9.95877 69.1798,9.87544 C69.1198,9.79211 69.0065,9.75044 68.8398,9.75044 C68.7465,9.75044 68.6398,9.75711 68.5198,9.77044 M73.6448,9.77044 L73.6448,9.61044 C74.2115,9.47044 74.7282,9.32377 75.1948,9.17044 L75.2348,9.19044 L75.2348,13.3904 L76.6048,12.1704 C76.7582,12.0371 76.8348,11.9238 76.8348,11.8304 C76.8348,11.7638 76.7998,11.7171 76.7298,11.6904 C76.6598,11.6638 76.5282,11.6471 76.3348,11.6404 L76.3348,11.5004 L78.3748,11.5004 L78.3748,11.6504 C78.2215,11.6504 78.0998,11.6588 78.0098,11.6754 C77.9198,11.6921 77.7915,11.7371 77.6248,11.8104 C77.4582,11.8838 77.2632,12.0104 77.0398,12.1904 C76.8165,12.3704 76.5415,12.6104 76.2148,12.9104 L75.9248,13.1804 L77.4548,15.1204 C77.6615,15.3738 77.8532,15.5554 78.0298,15.6654 C78.2065,15.7754 78.4048,15.8371 78.6248,15.8504 L78.6248,16.0004 L76.4448,16.0004 L76.4448,15.8504 C76.7115,15.8504 76.8448,15.8004 76.8448,15.7004 C76.8448,15.6738 76.8348,15.6421 76.8148,15.6054 C76.7948,15.5688 76.7632,15.5254 76.7198,15.4754 C76.6765,15.4254 76.6482,15.3871 76.6348,15.3604 L75.2348,13.4904 L75.2348,15.2004 C75.2348,15.4404 75.2732,15.5938 75.3498,15.6604 C75.4265,15.7271 75.6382,15.7904 75.9848,15.8504 L75.9848,16.0004 L73.6448,16.0004 L73.6448,15.8504 C74.0048,15.7904 74.2198,15.7288 74.2898,15.6654 C74.3598,15.6021 74.3948,15.4404 74.3948,15.1804 L74.3948,10.3604 C74.3948,10.1204 74.3648,9.95877 74.3048,9.87544 C74.2448,9.79211 74.1315,9.75044 73.9648,9.75044 C73.8715,9.75044 73.7648,9.75711 73.6448,9.77044 M81.1298,11.4004 C81.7698,11.4004 82.2965,11.6138 82.7098,12.0404 C83.1232,12.4671 83.3298,13.0071 83.3298,13.6604 C83.3298,14.3538 83.1165,14.9338 82.6898,15.4004 C82.2632,15.8671 81.7365,16.1004 81.1098,16.1004 C80.4832,16.1004 79.9615,15.8754 79.5448,15.4254 C79.1282,14.9754 78.9198,14.4138 78.9198,13.7404 C78.9198,13.0538 79.1248,12.4921 79.5348,12.0554 C79.9448,11.6188 80.4765,11.4004 81.1298,11.4004 M79.8198,13.2504 C79.8198,13.9638 79.9498,14.5704 80.2098,15.0704 C80.4698,15.5704 80.8098,15.8204 81.2298,15.8204 C81.6032,15.8204 81.8965,15.6604 82.1098,15.3404 C82.3232,15.0204 82.4298,14.5771 82.4298,14.0104 C82.4298,13.3238 82.2965,12.7638 82.0298,12.3304 C81.7632,11.8971 81.4198,11.6804 80.9998,11.6804 C80.6465,11.6804 80.3615,11.8238 80.1448,12.1104 C79.9282,12.3971 79.8198,12.7771 79.8198,13.2504 M86.5861,12.3804 C86.4861,12.3804 86.3627,12.3221 86.2161,12.2054 C86.0694,12.0888 85.9727,12.0304 85.9261,12.0304 C85.7927,12.0304 85.6427,12.1271 85.4761,12.3204 C85.3094,12.5138 85.2261,12.6904 85.2261,12.8504 L85.2261,15.1004 C85.2261,15.3871 85.2827,15.5804 85.3961,15.6804 C85.5094,15.7804 85.7361,15.8371 86.0761,15.8504 L86.0761,16.0004 L83.6761,16.0004 L83.6761,15.8504 C83.9961,15.7904 84.1944,15.7238 84.2711,15.6504 C84.3477,15.5771 84.3861,15.4138 84.3861,15.1604 L84.3861,12.6604 C84.3861,12.4404 84.3611,12.2854 84.3111,12.1954 C84.2611,12.1054 84.1727,12.0604 84.0461,12.0604 C83.9394,12.0604 83.8227,12.0738 83.6961,12.1004 L83.6961,11.9404 C84.2294,11.7671 84.7227,11.5871 85.1761,11.4004 L85.2261,11.4204 L85.2261,12.3404 C85.4727,11.9871 85.6827,11.7421 85.8561,11.6054 C86.0294,11.4688 86.2194,11.4004 86.4261,11.4004 C86.5994,11.4004 86.7344,11.4471 86.8311,11.5404 C86.9277,11.6338 86.9761,11.7638 86.9761,11.9304 C86.9761,12.0704 86.9411,12.1804 86.8711,12.2604 C86.8011,12.3404 86.7061,12.3804 86.5861,12.3804 M90.4336,16.1004 L90.3936,16.0704 L90.3936,15.4304 C90.0736,15.8771 89.6469,16.1004 89.1136,16.1004 C88.5602,16.1004 88.1136,15.9021 87.7736,15.5054 C87.4336,15.1088 87.2636,14.5904 87.2636,13.9504 C87.2636,13.2438 87.4669,12.6421 87.8736,12.1454 C88.2802,11.6488 88.7702,11.4004 89.3436,11.4004 C89.7036,11.4004 90.0536,11.5438 90.3936,11.8304 L90.3936,10.2704 C90.3936,10.0638 90.3636,9.92711 90.3036,9.86044 C90.2436,9.79377 90.1202,9.76044 89.9336,9.76044 C89.8402,9.76044 89.7669,9.76377 89.7136,9.77044 L89.7136,9.61044 C90.3202,9.45044 90.8102,9.30377 91.1836,9.17044 L91.2336,9.19044 L91.2336,14.8604 C91.2336,15.0938 91.2619,15.2471 91.3186,15.3204 C91.3752,15.3938 91.4936,15.4304 91.6736,15.4304 C91.7069,15.4304 91.7836,15.4271 91.9036,15.4204 L91.9036,15.5804 L90.4336,16.1004 M89.5036,15.5804 C89.7569,15.5804 89.9686,15.5088 90.1386,15.3654 C90.3086,15.2221 90.3936,15.0938 90.3936,14.9804 L90.3936,12.6804 C90.3936,12.4138 90.2902,12.1804 90.0836,11.9804 C89.8769,11.7804 89.6402,11.6804 89.3736,11.6804 C88.9936,11.6804 88.6902,11.8504 88.4636,12.1904 C88.2369,12.5304 88.1236,12.9838 88.1236,13.5504 C88.1236,14.1638 88.2502,14.6554 88.5036,15.0254 C88.7569,15.3954 89.0902,15.5804 89.5036,15.5804 M94.458,11.4004 C95.098,11.4004 95.6246,11.6138 96.038,12.0404 C96.4513,12.4671 96.658,13.0071 96.658,13.6604 C96.658,14.3538 96.4446,14.9338 96.018,15.4004 C95.5913,15.8671 95.0646,16.1004 94.438,16.1004 C93.8113,16.1004 93.2896,15.8754 92.873,15.4254 C92.4563,14.9754 92.248,14.4138 92.248,13.7404 C92.248,13.0538 92.453,12.4921 92.863,12.0554 C93.273,11.6188 93.8046,11.4004 94.458,11.4004 M93.148,13.2504 C93.148,13.9638 93.278,14.5704 93.538,15.0704 C93.798,15.5704 94.138,15.8204 94.558,15.8204 C94.9313,15.8204 95.2246,15.6604 95.438,15.3404 C95.6513,15.0204 95.758,14.5771 95.758,14.0104 C95.758,13.3238 95.6246,12.7638 95.358,12.3304 C95.0913,11.8971 94.748,11.6804 94.328,11.6804 C93.9746,11.6804 93.6896,11.8238 93.473,12.1104 C93.2563,12.3971 93.148,12.7771 93.148,13.2504 M97.0042,12.0204 L97.0042,11.8504 C97.4975,11.7038 97.9575,11.5538 98.3842,11.4004 L98.4542,11.4204 L98.4542,12.2104 C98.7942,11.8904 99.0625,11.6754 99.2592,11.5654 C99.4559,11.4554 99.6709,11.4004 99.9042,11.4004 C100.271,11.4004 100.559,11.5321 100.769,11.7954 C100.979,12.0588 101.084,12.4271 101.084,12.9004 L101.084,15.1904 C101.084,15.4371 101.124,15.6021 101.204,15.6854 C101.284,15.7688 101.448,15.8238 101.694,15.8504 L101.694,16.0004 L99.6142,16.0004 L99.6142,15.8504 C99.8675,15.8304 100.036,15.7638 100.119,15.6504 C100.203,15.5371 100.244,15.3238 100.244,15.0104 L100.244,12.9204 C100.244,12.2738 100.001,11.9504 99.5142,11.9504 C99.3475,11.9504 99.1942,11.9888 99.0542,12.0654 C98.9142,12.1421 98.7242,12.2938 98.4842,12.5204 L98.4842,15.3304 C98.4842,15.5104 98.5309,15.6371 98.6242,15.7104 C98.7175,15.7838 98.8909,15.8304 99.1442,15.8504 L99.1442,16.0004 L97.0242,16.0004 L97.0242,15.8504 C97.2775,15.8304 97.4442,15.7721 97.5242,15.6754 C97.6042,15.5788 97.6442,15.3871 97.6442,15.1004 L97.6442,12.6204 C97.6442,12.3738 97.6175,12.2054 97.5642,12.1154 C97.5109,12.0254 97.4142,11.9804 97.2742,11.9804 C97.1475,11.9804 97.0575,11.9938 97.0042,12.0204 M101.879,9.77044 L101.879,9.61044 C102.446,9.47044 102.963,9.32377 103.429,9.17044 L103.469,9.19044 L103.469,13.3904 L104.839,12.1704 C104.993,12.0371 105.069,11.9238 105.069,11.8304 C105.069,11.7638 105.034,11.7171 104.964,11.6904 C104.894,11.6638 104.763,11.6471 104.569,11.6404 L104.569,11.5004 L106.609,11.5004 L106.609,11.6504 C106.456,11.6504 106.334,11.6588 106.244,11.6754 C106.154,11.6921 106.026,11.7371 105.859,11.8104 C105.693,11.8838 105.498,12.0104 105.274,12.1904 C105.051,12.3704 104.776,12.6104 104.449,12.9104 L104.159,13.1804 L105.689,15.1204 C105.896,15.3738 106.088,15.5554 106.264,15.6654 C106.441,15.7754 106.639,15.8371 106.859,15.8504 L106.859,16.0004 L104.679,16.0004 L104.679,15.8504 C104.946,15.8504 105.079,15.8004 105.079,15.7004 C105.079,15.6738 105.069,15.6421 105.049,15.6054 C105.029,15.5688 104.998,15.5254 104.954,15.4754 C104.911,15.4254 104.883,15.3871 104.869,15.3604 L103.469,13.4904 L103.469,15.2004 C103.469,15.4404 103.508,15.5938 103.584,15.6604 C103.661,15.7271 103.873,15.7904 104.219,15.8504 L104.219,16.0004 L101.879,16.0004 L101.879,15.8504 C102.239,15.7904 102.454,15.7288 102.524,15.6654 C102.594,15.6021 102.629,15.4404 102.629,15.1804 L102.629,10.3604 C102.629,10.1204 102.599,9.95877 102.539,9.87544 C102.479,9.79211 102.366,9.75044 102.199,9.75044 C102.106,9.75044 101.999,9.75711 101.879,9.77044 M108.844,10.9504 L108.444,10.9504 L109.914,9.47044 C110.068,9.31711 110.208,9.24044 110.334,9.24044 C110.568,9.24044 110.684,9.34711 110.684,9.56044 C110.684,9.71377 110.584,9.85377 110.384,9.98044 L108.844,10.9504 M107.874,13.2304 C107.888,13.6504 107.944,14.0121 108.044,14.3154 C108.144,14.6188 108.274,14.8454 108.434,14.9954 C108.594,15.1454 108.756,15.2521 108.919,15.3154 C109.083,15.3788 109.254,15.4104 109.434,15.4104 C109.754,15.4104 110.033,15.3304 110.269,15.1704 C110.506,15.0104 110.744,14.7404 110.984,14.3604 L111.144,14.4304 C110.938,14.9704 110.651,15.3838 110.284,15.6704 C109.918,15.9571 109.498,16.1004 109.024,16.1004 C108.451,16.1004 107.996,15.8988 107.659,15.4954 C107.323,15.0921 107.154,14.5471 107.154,13.8604 C107.154,13.1204 107.349,12.5254 107.739,12.0754 C108.129,11.6254 108.631,11.4004 109.244,11.4004 C109.751,11.4004 110.144,11.5521 110.424,11.8554 C110.704,12.1588 110.881,12.6171 110.954,13.2304 L107.874,13.2304 M107.894,12.9104 L109.934,12.9104 C109.868,12.4771 109.764,12.1771 109.624,12.0104 C109.484,11.8438 109.261,11.7604 108.954,11.7604 C108.354,11.7604 108.001,12.1438 107.894,12.9104 M111.442,12.0204 L111.442,11.8504 C111.935,11.7038 112.395,11.5538 112.822,11.4004 L112.892,11.4204 L112.892,12.2104 C113.232,11.8904 113.5,11.6754 113.697,11.5654 C113.893,11.4554 114.108,11.4004 114.342,11.4004 C114.708,11.4004 114.997,11.5321 115.207,11.7954 C115.417,12.0588 115.522,12.4271 115.522,12.9004 L115.522,15.1904 C115.522,15.4371 115.562,15.6021 115.642,15.6854 C115.722,15.7688 115.885,15.8238 116.132,15.8504 L116.132,16.0004 L114.052,16.0004 L114.052,15.8504 C114.305,15.8304 114.473,15.7638 114.557,15.6504 C114.64,15.5371 114.682,15.3238 114.682,15.0104 L114.682,12.9204 C114.682,12.2738 114.438,11.9504 113.952,11.9504 C113.785,11.9504 113.632,11.9888 113.492,12.0654 C113.352,12.1421 113.162,12.2938 112.922,12.5204 L112.922,15.3304 C112.922,15.5104 112.968,15.6371 113.062,15.7104 C113.155,15.7838 113.328,15.8304 113.582,15.8504 L113.582,16.0004 L111.462,16.0004 L111.462,15.8504 C111.715,15.8304 111.882,15.7721 111.962,15.6754 C112.042,15.5788 112.082,15.3871 112.082,15.1004 L112.082,12.6204 C112.082,12.3738 112.055,12.2054 112.002,12.1154 C111.948,12.0254 111.852,11.9804 111.712,11.9804 C111.585,11.9804 111.495,11.9938 111.442,12.0204 M118.807,11.5004 L118.807,11.8204 L117.797,11.8204 L117.797,14.6804 C117.797,14.9938 117.837,15.2221 117.917,15.3654 C117.997,15.5088 118.13,15.5804 118.317,15.5804 C118.523,15.5804 118.723,15.4638 118.917,15.2304 L119.047,15.3404 C118.727,15.8471 118.327,16.1004 117.847,16.1004 C117.253,16.1004 116.957,15.6771 116.957,14.8304 L116.957,11.8204 L116.427,11.8204 C116.4,11.8004 116.387,11.7771 116.387,11.7504 C116.387,11.7171 116.397,11.6904 116.417,11.6704 C116.437,11.6504 116.475,11.6221 116.532,11.5854 C116.588,11.5488 116.657,11.4988 116.737,11.4354 C116.817,11.3721 116.927,11.2571 117.067,11.0904 C117.207,10.9238 117.36,10.7238 117.527,10.4904 C117.633,10.3371 117.7,10.2438 117.727,10.2104 C117.773,10.2104 117.797,10.2538 117.797,10.3404 L117.797,11.5004 L118.807,11.5004 M120.405,11.4104 C120.558,11.4104 120.69,11.4671 120.8,11.5804 C120.91,11.6938 120.965,11.8271 120.965,11.9804 C120.965,12.1271 120.908,12.2538 120.795,12.3604 C120.681,12.4671 120.548,12.5204 120.395,12.5204 C120.248,12.5204 120.121,12.4671 120.015,12.3604 C119.908,12.2538 119.855,12.1271 119.855,11.9804 C119.855,11.8271 119.91,11.6938 120.02,11.5804 C120.13,11.4671 120.258,11.4104 120.405,11.4104 M120.405,15.0004 C120.558,15.0004 120.69,15.0571 120.8,15.1704 C120.91,15.2838 120.965,15.4171 120.965,15.5704 C120.965,15.7171 120.908,15.8438 120.795,15.9504 C120.681,16.0571 120.548,16.1104 120.395,16.1104 C120.248,16.1104 120.121,16.0571 120.015,15.9504 C119.908,15.8438 119.855,15.7171 119.855,15.5704 C119.855,15.4171 119.91,15.2838 120.02,15.1704 C120.13,15.0571 120.258,15.0004 120.405,15.0004"/>
<path class="Bracket" fill-rule="evenodd" d="M6.30897,180.305 C6.30897,174.464 2.28586,168.786 2.28586,163.19 C2.28586,160.371 3.38307,157.635 6.76614,155.184 C6.81186,155.153 6.83472,155.102 6.83472,155.071 C6.83472,154.979 6.58327,154.898 6.4004,154.898 C6.30897,154.898 6.14896,154.908 6.03467,154.979 C1.64582,158.125 0.182869,161.76 0.182869,165.436 C0.182869,171.359 4.48028,177.078 4.48028,182.756 C4.48028,185.574 3.38307,188.229 -1.15463e-14,190.68 L-1.15463e-14,190.762 L-1.15463e-14,190.844 C3.38307,193.295 4.48028,195.95 4.48028,198.768 C4.48028,204.446 0.182869,210.165 0.182869,216.088 C0.182869,219.764 1.64582,223.399 6.03467,226.545 C6.14896,226.616 6.30897,226.626 6.4004,226.626 C6.58327,226.626 6.83472,226.545 6.83472,226.453 C6.83472,226.422 6.81186,226.371 6.76614,226.34 C3.38307,223.889 2.28586,221.153 2.28586,218.334 C2.28586,212.738 6.30897,207.06 6.30897,201.219 C6.30897,197.502 4.84602,193.948 0.548606,190.762 C4.84602,187.576 6.30897,184.022 6.30897,180.305"/>
<path class="Bracket" fill-rule="evenodd" d="M6.30897,52.797 C6.30897,46.9558 2.28586,41.278 2.28586,35.6818 C2.28586,32.8633 3.38307,30.1265 6.76614,27.6757 C6.81186,27.6451 6.83472,27.594 6.83472,27.5634 C6.83472,27.4714 6.58327,27.3898 6.4004,27.3898 C6.30897,27.3898 6.14896,27.4 6.03467,27.4714 C1.64582,30.6167 0.182869,34.2522 0.182869,37.9284 C0.182869,43.8514 4.48028,49.57 4.48028,55.2478 C4.48028,58.0663 3.38307,60.7214 -1.15463e-14,63.1723 L-1.15463e-14,63.254 L-1.15463e-14,63.3357 C3.38307,65.7865 4.48028,68.4416 4.48028,71.2601 C4.48028,76.9379 0.182869,82.6566 0.182869,88.5795 C0.182869,92.2558 1.64582,95.8913 6.03467,99.0365 C6.14896,99.108 6.30897,99.1182 6.4004,99.1182 C6.58327,99.1182 6.83472,99.0365 6.83472,98.9446 C6.83472,98.914 6.81186,98.8629 6.76614,98.8323 C3.38307,96.3814 2.28586,93.6446 2.28586,90.8261 C2.28586,85.23 6.30897,79.5522 6.30897,73.711 C6.30897,69.9938 4.84602,66.4401 0.548606,63.254 C4.84602,60.0679 6.30897,56.5141 6.30897,52.797"/>
</svg>
