<?xml version="1.0" encoding="UTF-8" standalone="no"?>
<svg width="480.273px" height="79.0308px" viewBox="0 0 480.273 79.0308"
 xmlns="http://www.w3.org/2000/svg" xmlns:xlink="http://www.w3.org/1999/xlink" version="1.2" baseProfile="tiny">
<title>Keringő</title>
<desc>Generated by MuseScore 2.3.2</desc>
<polyline class="StaffLines" fill="none" stroke="#000000" stroke-width="0.34" stroke-linejoin="bevel" points="7.14331,8.68199 480.273,8.68199"/>
<polyline class="StaffLines" fill="none" stroke="#000000" stroke-width="0.34" stroke-linejoin="bevel" points="7.14331,12.934 480.273,12.934"/>
<polyline class="StaffLines" fill="none" stroke="#000000" stroke-width="0.34" stroke-linejoin="bevel" points="7.14331,17.1859 480.273,17.1859"/>
<polyline class="StaffLines" fill="none" stroke="#000000" stroke-width="0.34" stroke-linejoin="bevel" points="7.14331,21.4379 480.273,21.4379"/>
<polyline class="StaffLines" fill="none" stroke="#000000" stroke-width="0.34" stroke-linejoin="bevel" points="7.14331,25.6899 480.273,25.6899"/>
<polyline class="StaffLines" fill="none" stroke="#000000" stroke-width="0.34" stroke-linejoin="bevel" points="7.14331,46.9497 480.273,46.9497"/>
<polyline class="StaffLines" fill="none" stroke="#000000" stroke-width="0.34" stroke-linejoin="bevel" points="7.14331,51.2017 480.273,51.2017"/>
<polyline class="StaffLines" fill="none" stroke="#000000" stroke-width="0.34" stroke-linejoin="bevel" points="7.14331,55.4536 480.273,55.4536"/>
<polyline class="StaffLines" fill="none" stroke="#000000" stroke-width="0.34" stroke-linejoin="bevel" points="7.14331,59.7056 480.273,59.7056"/>
<polyline class="StaffLines" fill="none" stroke="#000000" stroke-width="0.34" stroke-linejoin="bevel" points="7.14331,63.9576 480.273,63.9576"/>
<polyline class="BarLine" fill="none" stroke="#000000" stroke-width="0.68" stroke-linejoin="bevel" points="7.48346,8.68199 7.48346,63.9576"/>
<polyline class="BarLine" fill="none" stroke="#000000" stroke-width="0.68" stroke-linejoin="bevel" points="476.106,8.68199 476.106,63.9576"/>
<polyline class="BarLine" fill="none" stroke="#000000" stroke-width="2.13" stroke-linejoin="bevel" points="479.21,8.68199 479.21,63.9576"/>
<polyline class="BarLine" fill="none" stroke="#000000" stroke-width="0.68" stroke-linejoin="bevel" points="371.739,8.68199 371.739,63.9576"/>
<polyline class="BarLine" fill="none" stroke="#000000" stroke-width="0.68" stroke-linejoin="bevel" points="265.416,8.68199 265.416,63.9576"/>
<polyline class="BarLine" fill="none" stroke="#000000" stroke-width="0.68" stroke-linejoin="bevel" points="267.372,8.68199 267.372,63.9576"/>
<polyline class="BarLine" fill="none" stroke="#000000" stroke-width="0.68" stroke-linejoin="bevel" points="161.049,8.68199 161.049,63.9576"/>
<polyline class="LedgerLine" fill="none" stroke="#000000" stroke-width="0.68" stroke-linecap="square" stroke-linejoin="bevel" points="441.762,4.43002 449.911,4.43002"/>
<polyline class="LedgerLine" fill="none" stroke="#000000" stroke-width="0.68" stroke-linecap="square" stroke-linejoin="bevel" points="409.033,4.43002 417.182,4.43002"/>
<polyline class="LedgerLine" fill="none" stroke="#000000" stroke-width="0.68" stroke-linecap="square" stroke-linejoin="bevel" points="376.151,68.2095 384.607,68.2095"/>
<polyline class="LedgerLine" fill="none" stroke="#000000" stroke-width="0.68" stroke-linecap="square" stroke-linejoin="bevel" points="376.151,72.4615 384.607,72.4615"/>
<polyline class="LedgerLine" fill="none" stroke="#000000" stroke-width="0.68" stroke-linecap="square" stroke-linejoin="bevel" points="376.151,76.7135 384.607,76.7135"/>
<polyline class="LedgerLine" fill="none" stroke="#000000" stroke-width="0.68" stroke-linecap="square" stroke-linejoin="bevel" points="337.395,4.43002 345.544,4.43002"/>
<polyline class="LedgerLine" fill="none" stroke="#000000" stroke-width="0.68" stroke-linecap="square" stroke-linejoin="bevel" points="304.666,4.43002 312.815,4.43002"/>
<polyline class="LedgerLine" fill="none" stroke="#000000" stroke-width="0.68" stroke-linecap="square" stroke-linejoin="bevel" points="271.784,68.2095 280.24,68.2095"/>
<polyline class="LedgerLine" fill="none" stroke="#000000" stroke-width="0.68" stroke-linecap="square" stroke-linejoin="bevel" points="226.026,4.43002 239.221,4.43002"/>
<polyline class="LedgerLine" fill="none" stroke="#000000" stroke-width="0.68" stroke-linecap="square" stroke-linejoin="bevel" points="193.298,4.43002 206.492,4.43002"/>
<polyline class="LedgerLine" fill="none" stroke="#000000" stroke-width="0.68" stroke-linecap="square" stroke-linejoin="bevel" points="165.461,68.2095 173.917,68.2095"/>
<polyline class="LedgerLine" fill="none" stroke="#000000" stroke-width="0.68" stroke-linecap="square" stroke-linejoin="bevel" points="165.461,72.4615 173.917,72.4615"/>
<polyline class="LedgerLine" fill="none" stroke="#000000" stroke-width="0.68" stroke-linecap="square" stroke-linejoin="bevel" points="122.943,4.43002 136.138,4.43002"/>
<polyline class="LedgerLine" fill="none" stroke="#000000" stroke-width="0.68" stroke-linecap="square" stroke-linejoin="bevel" points="91.4993,4.43002 104.694,4.43002"/>
<polyline class="Stem" fill="none" stroke="#000000" stroke-width="0.55" stroke-linecap="round" stroke-linejoin="bevel" points="443.314,5.2286 443.314,27.2844"/>
<polyline class="Stem" fill="none" stroke="#000000" stroke-width="0.55" stroke-linecap="round" stroke-linejoin="bevel" points="410.585,5.2286 410.585,27.2844"/>
<polyline class="Stem" fill="none" stroke="#000000" stroke-width="0.55" stroke-linecap="round" stroke-linejoin="bevel" points="383.055,76.0604 383.055,55.4536"/>
<polyline class="Stem" fill="none" stroke="#000000" stroke-width="0.55" stroke-linecap="round" stroke-linejoin="bevel" points="338.947,5.2286 338.947,27.2844"/>
<polyline class="Stem" fill="none" stroke="#000000" stroke-width="0.55" stroke-linecap="round" stroke-linejoin="bevel" points="306.218,5.2286 306.218,27.2844"/>
<polyline class="Stem" fill="none" stroke="#000000" stroke-width="0.55" stroke-linecap="round" stroke-linejoin="bevel" points="278.688,69.6824 278.688,55.4536"/>
<polyline class="Stem" fill="none" stroke="#000000" stroke-width="0.55" stroke-linecap="round" stroke-linejoin="bevel" points="232.623,3.10261 232.623,25.6899"/>
<polyline class="Stem" fill="none" stroke="#000000" stroke-width="0.55" stroke-linecap="round" stroke-linejoin="bevel" points="199.895,3.10261 199.895,25.6899"/>
<polyline class="Stem" fill="none" stroke="#000000" stroke-width="0.55" stroke-linecap="round" stroke-linejoin="bevel" points="172.365,71.8084 172.365,55.4536"/>
<polyline class="Stem" fill="none" stroke="#000000" stroke-width="0.55" stroke-linecap="round" stroke-linejoin="bevel" points="129.541,3.10261 129.541,25.6899"/>
<polyline class="Stem" fill="none" stroke="#000000" stroke-width="0.55" stroke-linecap="round" stroke-linejoin="bevel" points="98.0965,3.10261 98.0965,25.6899"/>
<polyline class="Stem" fill="none" stroke="#000000" stroke-width="0.55" stroke-linecap="round" stroke-linejoin="bevel" points="71.851,65.4305 71.851,51.2017"/>
<path class="Note" transform="matrix(0.850394,0,0,0.850394,443.037,4.43002)" d="M4.39453,-2.75391 C5.01953,-2.75391 5.54688,-2.59115 5.97656,-2.26562 C6.38021,-1.91406 6.58203,-1.47135 6.58203,-0.9375 C6.58203,-0.0390625 6.11979,0.800781 5.19531,1.58203 C4.25781,2.36328 3.25521,2.75391 2.1875,2.75391 C1.5625,2.75391 1.03516,2.59115 0.605469,2.26562 C0.201823,1.91406 0,1.47135 0,0.9375 C0,0.0390625 0.46875,-0.800781 1.40625,-1.58203 C2.31771,-2.36328 3.3138,-2.75391 4.39453,-2.75391"/>
<path class="Note" transform="matrix(0.850394,0,0,0.850394,443.037,8.68199)" d="M4.39453,-2.75391 C5.01953,-2.75391 5.54688,-2.59115 5.97656,-2.26562 C6.38021,-1.91406 6.58203,-1.47135 6.58203,-0.9375 C6.58203,-0.0390625 6.11979,0.800781 5.19531,1.58203 C4.25781,2.36328 3.25521,2.75391 2.1875,2.75391 C1.5625,2.75391 1.03516,2.59115 0.605469,2.26562 C0.201823,1.91406 0,1.47135 0,0.9375 C0,0.0390625 0.46875,-0.800781 1.40625,-1.58203 C2.31771,-2.36328 3.3138,-2.75391 4.39453,-2.75391"/>
<path class="Note" transform="matrix(0.850394,0,0,0.850394,437.992,10.808)" d="M4.39453,-2.75391 C5.01953,-2.75391 5.54688,-2.59115 5.97656,-2.26562 C6.38021,-1.91406 6.58203,-1.47135 6.58203,-0.9375 C6.58203,-0.0390625 6.11979,0.800781 5.19531,1.58203 C4.25781,2.36328 3.25521,2.75391 2.1875,2.75391 C1.5625,2.75391 1.03516,2.59115 0.605469,2.26562 C0.201823,1.91406 0,1.47135 0,0.9375 C0,0.0390625 0.46875,-0.800781 1.40625,-1.58203 C2.31771,-2.36328 3.3138,-2.75391 4.39453,-2.75391"/>
<path class="Note" transform="matrix(0.850394,0,0,0.850394,443.037,12.934)" d="M4.39453,-2.75391 C5.01953,-2.75391 5.54688,-2.59115 5.97656,-2.26562 C6.38021,-1.91406 6.58203,-1.47135 6.58203,-0.9375 C6.58203,-0.0390625 6.11979,0.800781 5.19531,1.58203 C4.25781,2.36328 3.25521,2.75391 2.1875,2.75391 C1.5625,2.75391 1.03516,2.59115 0.605469,2.26562 C0.201823,1.91406 0,1.47135 0,0.9375 C0,0.0390625 0.46875,-0.800781 1.40625,-1.58203 C2.31771,-2.36328 3.3138,-2.75391 4.39453,-2.75391"/>
<path class="Note" transform="matrix(0.850394,0,0,0.850394,410.309,4.43002)" d="M4.39453,-2.75391 C5.01953,-2.75391 5.54688,-2.59115 5.97656,-2.26562 C6.38021,-1.91406 6.58203,-1.47135 6.58203,-0.9375 C6.58203,-0.0390625 6.11979,0.800781 5.19531,1.58203 C4.25781,2.36328 3.25521,2.75391 2.1875,2.75391 C1.5625,2.75391 1.03516,2.59115 0.605469,2.26562 C0.201823,1.91406 0,1.47135 0,0.9375 C0,0.0390625 0.46875,-0.800781 1.40625,-1.58203 C2.31771,-2.36328 3.3138,-2.75391 4.39453,-2.75391"/>
<path class="Note" transform="matrix(0.850394,0,0,0.850394,410.309,8.68199)" d="M4.39453,-2.75391 C5.01953,-2.75391 5.54688,-2.59115 5.97656,-2.26562 C6.38021,-1.91406 6.58203,-1.47135 6.58203,-0.9375 C6.58203,-0.0390625 6.11979,0.800781 5.19531,1.58203 C4.25781,2.36328 3.25521,2.75391 2.1875,2.75391 C1.5625,2.75391 1.03516,2.59115 0.605469,2.26562 C0.201823,1.91406 0,1.47135 0,0.9375 C0,0.0390625 0.46875,-0.800781 1.40625,-1.58203 C2.31771,-2.36328 3.3138,-2.75391 4.39453,-2.75391"/>
<path class="Note" transform="matrix(0.850394,0,0,0.850394,405.264,10.808)" d="M4.39453,-2.75391 C5.01953,-2.75391 5.54688,-2.59115 5.97656,-2.26562 C6.38021,-1.91406 6.58203,-1.47135 6.58203,-0.9375 C6.58203,-0.0390625 6.11979,0.800781 5.19531,1.58203 C4.25781,2.36328 3.25521,2.75391 2.1875,2.75391 C1.5625,2.75391 1.03516,2.59115 0.605469,2.26562 C0.201823,1.91406 0,1.47135 0,0.9375 C0,0.0390625 0.46875,-0.800781 1.40625,-1.58203 C2.31771,-2.36328 3.3138,-2.75391 4.39453,-2.75391"/>
<path class="Note" transform="matrix(0.850394,0,0,0.850394,410.309,12.934)" d="M4.39453,-2.75391 C5.01953,-2.75391 5.54688,-2.59115 5.97656,-2.26562 C6.38021,-1.91406 6.58203,-1.47135 6.58203,-0.9375 C6.58203,-0.0390625 6.11979,0.800781 5.19531,1.58203 C4.25781,2.36328 3.25521,2.75391 2.1875,2.75391 C1.5625,2.75391 1.03516,2.59115 0.605469,2.26562 C0.201823,1.91406 0,1.47135 0,0.9375 C0,0.0390625 0.46875,-0.800781 1.40625,-1.58203 C2.31771,-2.36328 3.3138,-2.75391 4.39453,-2.75391"/>
<path class="Note" transform="matrix(0.850394,0,0,0.850394,377.427,76.7135)" d="M6.30859,-1.30859 C6.30859,-1.52995 6.22396,-1.71875 6.05469,-1.875 C5.88542,-2.04427 5.6901,-2.12891 5.46875,-2.12891 C5.07812,-2.12891 4.29036,-1.73828 3.10547,-0.957031 C1.88151,-0.16276 1.13281,0.403646 0.859375,0.742188 C0.716146,0.924479 0.644531,1.11328 0.644531,1.30859 C0.644531,1.52995 0.729167,1.71875 0.898438,1.875 C1.05469,2.04427 1.25,2.12891 1.48438,2.12891 C1.86198,2.12891 2.65625,1.73828 3.86719,0.957031 C5.0651,0.175781 5.80729,-0.390625 6.09375,-0.742188 C6.23698,-0.911458 6.30859,-1.10026 6.30859,-1.30859 M5.27344,-2.75391 C6.39323,-2.75391 6.95312,-2.27214 6.95312,-1.30859 C6.95312,-0.839844 6.81641,-0.292969 6.54297,0.332031 C6.26953,0.94401 5.90495,1.41276 5.44922,1.73828 C4.44661,2.41536 3.1901,2.75391 1.67969,2.75391 C0.559896,2.75391 0,2.27214 0,1.30859 C0,0.878906 0.136719,0.338542 0.410156,-0.3125 C0.670573,-0.9375 1.03516,-1.41276 1.50391,-1.73828 C2.50651,-2.41536 3.76302,-2.75391 5.27344,-2.75391"/>
<path class="Note" transform="matrix(0.850394,0,0,0.850394,338.67,4.43002)" d="M4.39453,-2.75391 C5.01953,-2.75391 5.54688,-2.59115 5.97656,-2.26562 C6.38021,-1.91406 6.58203,-1.47135 6.58203,-0.9375 C6.58203,-0.0390625 6.11979,0.800781 5.19531,1.58203 C4.25781,2.36328 3.25521,2.75391 2.1875,2.75391 C1.5625,2.75391 1.03516,2.59115 0.605469,2.26562 C0.201823,1.91406 0,1.47135 0,0.9375 C0,0.0390625 0.46875,-0.800781 1.40625,-1.58203 C2.31771,-2.36328 3.3138,-2.75391 4.39453,-2.75391"/>
<path class="Note" transform="matrix(0.850394,0,0,0.850394,338.67,8.68199)" d="M4.39453,-2.75391 C5.01953,-2.75391 5.54688,-2.59115 5.97656,-2.26562 C6.38021,-1.91406 6.58203,-1.47135 6.58203,-0.9375 C6.58203,-0.0390625 6.11979,0.800781 5.19531,1.58203 C4.25781,2.36328 3.25521,2.75391 2.1875,2.75391 C1.5625,2.75391 1.03516,2.59115 0.605469,2.26562 C0.201823,1.91406 0,1.47135 0,0.9375 C0,0.0390625 0.46875,-0.800781 1.40625,-1.58203 C2.31771,-2.36328 3.3138,-2.75391 4.39453,-2.75391"/>
<path class="Note" transform="matrix(0.850394,0,0,0.850394,333.625,10.808)" d="M4.39453,-2.75391 C5.01953,-2.75391 5.54688,-2.59115 5.97656,-2.26562 C6.38021,-1.91406 6.58203,-1.47135 6.58203,-0.9375 C6.58203,-0.0390625 6.11979,0.800781 5.19531,1.58203 C4.25781,2.36328 3.25521,2.75391 2.1875,2.75391 C1.5625,2.75391 1.03516,2.59115 0.605469,2.26562 C0.201823,1.91406 0,1.47135 0,0.9375 C0,0.0390625 0.46875,-0.800781 1.40625,-1.58203 C2.31771,-2.36328 3.3138,-2.75391 4.39453,-2.75391"/>
<path class="Note" transform="matrix(0.850394,0,0,0.850394,338.67,12.934)" d="M4.39453,-2.75391 C5.01953,-2.75391 5.54688,-2.59115 5.97656,-2.26562 C6.38021,-1.91406 6.58203,-1.47135 6.58203,-0.9375 C6.58203,-0.0390625 6.11979,0.800781 5.19531,1.58203 C4.25781,2.36328 3.25521,2.75391 2.1875,2.75391 C1.5625,2.75391 1.03516,2.59115 0.605469,2.26562 C0.201823,1.91406 0,1.47135 0,0.9375 C0,0.0390625 0.46875,-0.800781 1.40625,-1.58203 C2.31771,-2.36328 3.3138,-2.75391 4.39453,-2.75391"/>
<path class="Note" transform="matrix(0.850394,0,0,0.850394,305.942,4.43002)" d="M4.39453,-2.75391 C5.01953,-2.75391 5.54688,-2.59115 5.97656,-2.26562 C6.38021,-1.91406 6.58203,-1.47135 6.58203,-0.9375 C6.58203,-0.0390625 6.11979,0.800781 5.19531,1.58203 C4.25781,2.36328 3.25521,2.75391 2.1875,2.75391 C1.5625,2.75391 1.03516,2.59115 0.605469,2.26562 C0.201823,1.91406 0,1.47135 0,0.9375 C0,0.0390625 0.46875,-0.800781 1.40625,-1.58203 C2.31771,-2.36328 3.3138,-2.75391 4.39453,-2.75391"/>
<path class="Note" transform="matrix(0.850394,0,0,0.850394,305.942,8.68199)" d="M4.39453,-2.75391 C5.01953,-2.75391 5.54688,-2.59115 5.97656,-2.26562 C6.38021,-1.91406 6.58203,-1.47135 6.58203,-0.9375 C6.58203,-0.0390625 6.11979,0.800781 5.19531,1.58203 C4.25781,2.36328 3.25521,2.75391 2.1875,2.75391 C1.5625,2.75391 1.03516,2.59115 0.605469,2.26562 C0.201823,1.91406 0,1.47135 0,0.9375 C0,0.0390625 0.46875,-0.800781 1.40625,-1.58203 C2.31771,-2.36328 3.3138,-2.75391 4.39453,-2.75391"/>
<path class="Note" transform="matrix(0.850394,0,0,0.850394,300.896,10.808)" d="M4.39453,-2.75391 C5.01953,-2.75391 5.54688,-2.59115 5.97656,-2.26562 C6.38021,-1.91406 6.58203,-1.47135 6.58203,-0.9375 C6.58203,-0.0390625 6.11979,0.800781 5.19531,1.58203 C4.25781,2.36328 3.25521,2.75391 2.1875,2.75391 C1.5625,2.75391 1.03516,2.59115 0.605469,2.26562 C0.201823,1.91406 0,1.47135 0,0.9375 C0,0.0390625 0.46875,-0.800781 1.40625,-1.58203 C2.31771,-2.36328 3.3138,-2.75391 4.39453,-2.75391"/>
<path class="Note" transform="matrix(0.850394,0,0,0.850394,305.942,12.934)" d="M4.39453,-2.75391 C5.01953,-2.75391 5.54688,-2.59115 5.97656,-2.26562 C6.38021,-1.91406 6.58203,-1.47135 6.58203,-0.9375 C6.58203,-0.0390625 6.11979,0.800781 5.19531,1.58203 C4.25781,2.36328 3.25521,2.75391 2.1875,2.75391 C1.5625,2.75391 1.03516,2.59115 0.605469,2.26562 C0.201823,1.91406 0,1.47135 0,0.9375 C0,0.0390625 0.46875,-0.800781 1.40625,-1.58203 C2.31771,-2.36328 3.3138,-2.75391 4.39453,-2.75391"/>
<path class="Note" transform="matrix(0.850394,0,0,0.850394,273.059,70.3355)" d="M6.30859,-1.30859 C6.30859,-1.52995 6.22396,-1.71875 6.05469,-1.875 C5.88542,-2.04427 5.6901,-2.12891 5.46875,-2.12891 C5.07812,-2.12891 4.29036,-1.73828 3.10547,-0.957031 C1.88151,-0.16276 1.13281,0.403646 0.859375,0.742188 C0.716146,0.924479 0.644531,1.11328 0.644531,1.30859 C0.644531,1.52995 0.729167,1.71875 0.898438,1.875 C1.05469,2.04427 1.25,2.12891 1.48438,2.12891 C1.86198,2.12891 2.65625,1.73828 3.86719,0.957031 C5.0651,0.175781 5.80729,-0.390625 6.09375,-0.742188 C6.23698,-0.911458 6.30859,-1.10026 6.30859,-1.30859 M5.27344,-2.75391 C6.39323,-2.75391 6.95312,-2.27214 6.95312,-1.30859 C6.95312,-0.839844 6.81641,-0.292969 6.54297,0.332031 C6.26953,0.94401 5.90495,1.41276 5.44922,1.73828 C4.44661,2.41536 3.1901,2.75391 1.67969,2.75391 C0.559896,2.75391 0,2.27214 0,1.30859 C0,0.878906 0.136719,0.338542 0.410156,-0.3125 C0.670573,-0.9375 1.03516,-1.41276 1.50391,-1.73828 C2.50651,-2.41536 3.76302,-2.75391 5.27344,-2.75391"/>
<path class="Note" transform="matrix(0.850394,0,0,0.850394,232.347,2.30404)" d="M4.39453,-2.75391 C5.01953,-2.75391 5.54688,-2.59115 5.97656,-2.26562 C6.38021,-1.91406 6.58203,-1.47135 6.58203,-0.9375 C6.58203,-0.0390625 6.11979,0.800781 5.19531,1.58203 C4.25781,2.36328 3.25521,2.75391 2.1875,2.75391 C1.5625,2.75391 1.03516,2.59115 0.605469,2.26562 C0.201823,1.91406 0,1.47135 0,0.9375 C0,0.0390625 0.46875,-0.800781 1.40625,-1.58203 C2.31771,-2.36328 3.3138,-2.75391 4.39453,-2.75391"/>
<path class="Note" transform="matrix(0.850394,0,0,0.850394,227.302,4.43002)" d="M4.39453,-2.75391 C5.01953,-2.75391 5.54688,-2.59115 5.97656,-2.26562 C6.38021,-1.91406 6.58203,-1.47135 6.58203,-0.9375 C6.58203,-0.0390625 6.11979,0.800781 5.19531,1.58203 C4.25781,2.36328 3.25521,2.75391 2.1875,2.75391 C1.5625,2.75391 1.03516,2.59115 0.605469,2.26562 C0.201823,1.91406 0,1.47135 0,0.9375 C0,0.0390625 0.46875,-0.800781 1.40625,-1.58203 C2.31771,-2.36328 3.3138,-2.75391 4.39453,-2.75391"/>
<path class="Note" transform="matrix(0.850394,0,0,0.850394,232.347,8.68199)" d="M4.39453,-2.75391 C5.01953,-2.75391 5.54688,-2.59115 5.97656,-2.26562 C6.38021,-1.91406 6.58203,-1.47135 6.58203,-0.9375 C6.58203,-0.0390625 6.11979,0.800781 5.19531,1.58203 C4.25781,2.36328 3.25521,2.75391 2.1875,2.75391 C1.5625,2.75391 1.03516,2.59115 0.605469,2.26562 C0.201823,1.91406 0,1.47135 0,0.9375 C0,0.0390625 0.46875,-0.800781 1.40625,-1.58203 C2.31771,-2.36328 3.3138,-2.75391 4.39453,-2.75391"/>
<path class="Note" transform="matrix(0.850394,0,0,0.850394,227.302,10.808)" d="M4.39453,-2.75391 C5.01953,-2.75391 5.54688,-2.59115 5.97656,-2.26562 C6.38021,-1.91406 6.58203,-1.47135 6.58203,-0.9375 C6.58203,-0.0390625 6.11979,0.800781 5.19531,1.58203 C4.25781,2.36328 3.25521,2.75391 2.1875,2.75391 C1.5625,2.75391 1.03516,2.59115 0.605469,2.26562 C0.201823,1.91406 0,1.47135 0,0.9375 C0,0.0390625 0.46875,-0.800781 1.40625,-1.58203 C2.31771,-2.36328 3.3138,-2.75391 4.39453,-2.75391"/>
<path class="Note" transform="matrix(0.850394,0,0,0.850394,199.618,2.30404)" d="M4.39453,-2.75391 C5.01953,-2.75391 5.54688,-2.59115 5.97656,-2.26562 C6.38021,-1.91406 6.58203,-1.47135 6.58203,-0.9375 C6.58203,-0.0390625 6.11979,0.800781 5.19531,1.58203 C4.25781,2.36328 3.25521,2.75391 2.1875,2.75391 C1.5625,2.75391 1.03516,2.59115 0.605469,2.26562 C0.201823,1.91406 0,1.47135 0,0.9375 C0,0.0390625 0.46875,-0.800781 1.40625,-1.58203 C2.31771,-2.36328 3.3138,-2.75391 4.39453,-2.75391"/>
<path class="Note" transform="matrix(0.850394,0,0,0.850394,194.573,4.43002)" d="M4.39453,-2.75391 C5.01953,-2.75391 5.54688,-2.59115 5.97656,-2.26562 C6.38021,-1.91406 6.58203,-1.47135 6.58203,-0.9375 C6.58203,-0.0390625 6.11979,0.800781 5.19531,1.58203 C4.25781,2.36328 3.25521,2.75391 2.1875,2.75391 C1.5625,2.75391 1.03516,2.59115 0.605469,2.26562 C0.201823,1.91406 0,1.47135 0,0.9375 C0,0.0390625 0.46875,-0.800781 1.40625,-1.58203 C2.31771,-2.36328 3.3138,-2.75391 4.39453,-2.75391"/>
<path class="Note" transform="matrix(0.850394,0,0,0.850394,199.618,8.68199)" d="M4.39453,-2.75391 C5.01953,-2.75391 5.54688,-2.59115 5.97656,-2.26562 C6.38021,-1.91406 6.58203,-1.47135 6.58203,-0.9375 C6.58203,-0.0390625 6.11979,0.800781 5.19531,1.58203 C4.25781,2.36328 3.25521,2.75391 2.1875,2.75391 C1.5625,2.75391 1.03516,2.59115 0.605469,2.26562 C0.201823,1.91406 0,1.47135 0,0.9375 C0,0.0390625 0.46875,-0.800781 1.40625,-1.58203 C2.31771,-2.36328 3.3138,-2.75391 4.39453,-2.75391"/>
<path class="Note" transform="matrix(0.850394,0,0,0.850394,194.573,10.808)" d="M4.39453,-2.75391 C5.01953,-2.75391 5.54688,-2.59115 5.97656,-2.26562 C6.38021,-1.91406 6.58203,-1.47135 6.58203,-0.9375 C6.58203,-0.0390625 6.11979,0.800781 5.19531,1.58203 C4.25781,2.36328 3.25521,2.75391 2.1875,2.75391 C1.5625,2.75391 1.03516,2.59115 0.605469,2.26562 C0.201823,1.91406 0,1.47135 0,0.9375 C0,0.0390625 0.46875,-0.800781 1.40625,-1.58203 C2.31771,-2.36328 3.3138,-2.75391 4.39453,-2.75391"/>
<path class="Note" transform="matrix(0.850394,0,0,0.850394,166.736,72.4615)" d="M6.30859,-1.30859 C6.30859,-1.52995 6.22396,-1.71875 6.05469,-1.875 C5.88542,-2.04427 5.6901,-2.12891 5.46875,-2.12891 C5.07812,-2.12891 4.29036,-1.73828 3.10547,-0.957031 C1.88151,-0.16276 1.13281,0.403646 0.859375,0.742188 C0.716146,0.924479 0.644531,1.11328 0.644531,1.30859 C0.644531,1.52995 0.729167,1.71875 0.898438,1.875 C1.05469,2.04427 1.25,2.12891 1.48438,2.12891 C1.86198,2.12891 2.65625,1.73828 3.86719,0.957031 C5.0651,0.175781 5.80729,-0.390625 6.09375,-0.742188 C6.23698,-0.911458 6.30859,-1.10026 6.30859,-1.30859 M5.27344,-2.75391 C6.39323,-2.75391 6.95312,-2.27214 6.95312,-1.30859 C6.95312,-0.839844 6.81641,-0.292969 6.54297,0.332031 C6.26953,0.94401 5.90495,1.41276 5.44922,1.73828 C4.44661,2.41536 3.1901,2.75391 1.67969,2.75391 C0.559896,2.75391 0,2.27214 0,1.30859 C0,0.878906 0.136719,0.338542 0.410156,-0.3125 C0.670573,-0.9375 1.03516,-1.41276 1.50391,-1.73828 C2.50651,-2.41536 3.76302,-2.75391 5.27344,-2.75391"/>
<path class="Note" transform="matrix(0.850394,0,0,0.850394,129.264,2.30404)" d="M4.39453,-2.75391 C5.01953,-2.75391 5.54688,-2.59115 5.97656,-2.26562 C6.38021,-1.91406 6.58203,-1.47135 6.58203,-0.9375 C6.58203,-0.0390625 6.11979,0.800781 5.19531,1.58203 C4.25781,2.36328 3.25521,2.75391 2.1875,2.75391 C1.5625,2.75391 1.03516,2.59115 0.605469,2.26562 C0.201823,1.91406 0,1.47135 0,0.9375 C0,0.0390625 0.46875,-0.800781 1.40625,-1.58203 C2.31771,-2.36328 3.3138,-2.75391 4.39453,-2.75391"/>
<path class="Note" transform="matrix(0.850394,0,0,0.850394,124.219,4.43002)" d="M4.39453,-2.75391 C5.01953,-2.75391 5.54688,-2.59115 5.97656,-2.26562 C6.38021,-1.91406 6.58203,-1.47135 6.58203,-0.9375 C6.58203,-0.0390625 6.11979,0.800781 5.19531,1.58203 C4.25781,2.36328 3.25521,2.75391 2.1875,2.75391 C1.5625,2.75391 1.03516,2.59115 0.605469,2.26562 C0.201823,1.91406 0,1.47135 0,0.9375 C0,0.0390625 0.46875,-0.800781 1.40625,-1.58203 C2.31771,-2.36328 3.3138,-2.75391 4.39453,-2.75391"/>
<path class="Note" transform="matrix(0.850394,0,0,0.850394,129.264,8.68199)" d="M4.39453,-2.75391 C5.01953,-2.75391 5.54688,-2.59115 5.97656,-2.26562 C6.38021,-1.91406 6.58203,-1.47135 6.58203,-0.9375 C6.58203,-0.0390625 6.11979,0.800781 5.19531,1.58203 C4.25781,2.36328 3.25521,2.75391 2.1875,2.75391 C1.5625,2.75391 1.03516,2.59115 0.605469,2.26562 C0.201823,1.91406 0,1.47135 0,0.9375 C0,0.0390625 0.46875,-0.800781 1.40625,-1.58203 C2.31771,-2.36328 3.3138,-2.75391 4.39453,-2.75391"/>
<path class="Note" transform="matrix(0.850394,0,0,0.850394,124.219,10.808)" d="M4.39453,-2.75391 C5.01953,-2.75391 5.54688,-2.59115 5.97656,-2.26562 C6.38021,-1.91406 6.58203,-1.47135 6.58203,-0.9375 C6.58203,-0.0390625 6.11979,0.800781 5.19531,1.58203 C4.25781,2.36328 3.25521,2.75391 2.1875,2.75391 C1.5625,2.75391 1.03516,2.59115 0.605469,2.26562 C0.201823,1.91406 0,1.47135 0,0.9375 C0,0.0390625 0.46875,-0.800781 1.40625,-1.58203 C2.31771,-2.36328 3.3138,-2.75391 4.39453,-2.75391"/>
<path class="Note" transform="matrix(0.850394,0,0,0.850394,97.8201,2.30404)" d="M4.39453,-2.75391 C5.01953,-2.75391 5.54688,-2.59115 5.97656,-2.26562 C6.38021,-1.91406 6.58203,-1.47135 6.58203,-0.9375 C6.58203,-0.0390625 6.11979,0.800781 5.19531,1.58203 C4.25781,2.36328 3.25521,2.75391 2.1875,2.75391 C1.5625,2.75391 1.03516,2.59115 0.605469,2.26562 C0.201823,1.91406 0,1.47135 0,0.9375 C0,0.0390625 0.46875,-0.800781 1.40625,-1.58203 C2.31771,-2.36328 3.3138,-2.75391 4.39453,-2.75391"/>
<path class="Note" transform="matrix(0.850394,0,0,0.850394,92.7749,4.43002)" d="M4.39453,-2.75391 C5.01953,-2.75391 5.54688,-2.59115 5.97656,-2.26562 C6.38021,-1.91406 6.58203,-1.47135 6.58203,-0.9375 C6.58203,-0.0390625 6.11979,0.800781 5.19531,1.58203 C4.25781,2.36328 3.25521,2.75391 2.1875,2.75391 C1.5625,2.75391 1.03516,2.59115 0.605469,2.26562 C0.201823,1.91406 0,1.47135 0,0.9375 C0,0.0390625 0.46875,-0.800781 1.40625,-1.58203 C2.31771,-2.36328 3.3138,-2.75391 4.39453,-2.75391"/>
<path class="Note" transform="matrix(0.850394,0,0,0.850394,97.8201,8.68199)" d="M4.39453,-2.75391 C5.01953,-2.75391 5.54688,-2.59115 5.97656,-2.26562 C6.38021,-1.91406 6.58203,-1.47135 6.58203,-0.9375 C6.58203,-0.0390625 6.11979,0.800781 5.19531,1.58203 C4.25781,2.36328 3.25521,2.75391 2.1875,2.75391 C1.5625,2.75391 1.03516,2.59115 0.605469,2.26562 C0.201823,1.91406 0,1.47135 0,0.9375 C0,0.0390625 0.46875,-0.800781 1.40625,-1.58203 C2.31771,-2.36328 3.3138,-2.75391 4.39453,-2.75391"/>
<path class="Note" transform="matrix(0.850394,0,0,0.850394,92.7749,10.808)" d="M4.39453,-2.75391 C5.01953,-2.75391 5.54688,-2.59115 5.97656,-2.26562 C6.38021,-1.91406 6.58203,-1.47135 6.58203,-0.9375 C6.58203,-0.0390625 6.11979,0.800781 5.19531,1.58203 C4.25781,2.36328 3.25521,2.75391 2.1875,2.75391 C1.5625,2.75391 1.03516,2.59115 0.605469,2.26562 C0.201823,1.91406 0,1.47135 0,0.9375 C0,0.0390625 0.46875,-0.800781 1.40625,-1.58203 C2.31771,-2.36328 3.3138,-2.75391 4.39453,-2.75391"/>
<path class="Note" transform="matrix(0.850394,0,0,0.850394,66.2224,66.0836)" d="M6.30859,-1.30859 C6.30859,-1.52995 6.22396,-1.71875 6.05469,-1.875 C5.88542,-2.04427 5.6901,-2.12891 5.46875,-2.12891 C5.07812,-2.12891 4.29036,-1.73828 3.10547,-0.957031 C1.88151,-0.16276 1.13281,0.403646 0.859375,0.742188 C0.716146,0.924479 0.644531,1.11328 0.644531,1.30859 C0.644531,1.52995 0.729167,1.71875 0.898438,1.875 C1.05469,2.04427 1.25,2.12891 1.48438,2.12891 C1.86198,2.12891 2.65625,1.73828 3.86719,0.957031 C5.0651,0.175781 5.80729,-0.390625 6.09375,-0.742188 C6.23698,-0.911458 6.30859,-1.10026 6.30859,-1.30859 M5.27344,-2.75391 C6.39323,-2.75391 6.95312,-2.27214 6.95312,-1.30859 C6.95312,-0.839844 6.81641,-0.292969 6.54297,0.332031 C6.26953,0.94401 5.90495,1.41276 5.44922,1.73828 C4.44661,2.41536 3.1901,2.75391 1.67969,2.75391 C0.559896,2.75391 0,2.27214 0,1.30859 C0,0.878906 0.136719,0.338542 0.410156,-0.3125 C0.670573,-0.9375 1.03516,-1.41276 1.50391,-1.73828 C2.50651,-2.41536 3.76302,-2.75391 5.27344,-2.75391"/>
<path class="Clef" transform="matrix(0.850394,0,0,0.850394,10.5449,51.2017)" d="M11.4258,-1.77734 C11.2305,-1.97266 11.1328,-2.21354 11.1328,-2.5 C11.1328,-2.78646 11.2305,-3.02734 11.4258,-3.22266 C11.6211,-3.41797 11.862,-3.51562 12.1484,-3.51562 C12.4349,-3.51562 12.6758,-3.41797 12.8711,-3.22266 C13.0664,-3.02734 13.1641,-2.78646 13.1641,-2.5 C13.1641,-2.21354 13.0664,-1.97266 12.8711,-1.77734 C12.6758,-1.58203 12.4349,-1.48438 12.1484,-1.48438 C11.862,-1.48438 11.6211,-1.58203 11.4258,-1.77734 M11.4258,3.22266 C11.2305,3.02734 11.1328,2.78646 11.1328,2.5 C11.1328,2.21354 11.2305,1.97266 11.4258,1.77734 C11.6211,1.58203 11.862,1.48438 12.1484,1.48438 C12.4349,1.48438 12.6758,1.58203 12.8711,1.77734 C13.0664,1.97266 13.1641,2.21354 13.1641,2.5 C13.1641,2.78646 13.0664,3.02734 12.8711,3.22266 C12.6758,3.41797 12.4349,3.51562 12.1484,3.51562 C11.862,3.51562 11.6211,3.41797 11.4258,3.22266 M4.64844,-5.25391 C6.38021,-5.25391 7.79948,-4.81771 8.90625,-3.94531 C9.97396,-3.03385 10.5078,-1.79688 10.5078,-0.234375 C10.5078,0.820312 10.2995,1.78385 9.88281,2.65625 C9.49219,3.56771 8.97786,4.375 8.33984,5.07812 C7.6888,5.79427 6.90104,6.47135 5.97656,7.10938 C5.07812,7.73438 4.15365,8.29427 3.20312,8.78906 C1.27604,9.76562 0.208333,10.2539 0,10.2539 C-0.169271,10.2539 -0.253906,10.1693 -0.253906,10 C-0.253906,9.9349 -0.227865,9.8763 -0.175781,9.82422 C0.488281,9.43359 1.30208,8.93229 2.26562,8.32031 C2.89062,7.91667 3.61979,7.35677 4.45312,6.64062 C5.26042,5.96354 5.88542,5.32552 6.32812,4.72656 C6.78385,4.14062 7.20052,3.41146 7.57812,2.53906 C7.90365,1.66667 8.06641,0.807292 8.06641,-0.0390625 C8.06641,-1.30208 7.75391,-2.40234 7.12891,-3.33984 C6.50391,-4.27734 5.67708,-4.74609 4.64844,-4.74609 C3.91927,-4.74609 3.29427,-4.51172 2.77344,-4.04297 C2.21354,-3.5612 1.8099,-2.95573 1.5625,-2.22656 C1.8099,-2.33073 2.03776,-2.38281 2.24609,-2.38281 C2.79297,-2.38281 3.26172,-2.1875 3.65234,-1.79688 C4.04297,-1.38021 4.23828,-0.904948 4.23828,-0.371094 C4.23828,0.188802 4.04948,0.690104 3.67188,1.13281 C3.26823,1.53646 2.79297,1.73828 2.24609,1.73828 C1.66016,1.73828 1.13281,1.53646 0.664062,1.13281 C0.221354,0.690104 0,0.188802 0,-0.371094 C0,-1.71224 0.455729,-2.85807 1.36719,-3.80859 C2.26562,-4.77214 3.35938,-5.25391 4.64844,-5.25391"/>
<path class="Clef" transform="matrix(0.850394,0,0,0.850394,10.5449,12.934)" d="M11.4258,-1.77734 C11.2305,-1.97266 11.1328,-2.21354 11.1328,-2.5 C11.1328,-2.78646 11.2305,-3.02734 11.4258,-3.22266 C11.6211,-3.41797 11.862,-3.51562 12.1484,-3.51562 C12.4349,-3.51562 12.6758,-3.41797 12.8711,-3.22266 C13.0664,-3.02734 13.1641,-2.78646 13.1641,-2.5 C13.1641,-2.21354 13.0664,-1.97266 12.8711,-1.77734 C12.6758,-1.58203 12.4349,-1.48438 12.1484,-1.48438 C11.862,-1.48438 11.6211,-1.58203 11.4258,-1.77734 M11.4258,3.22266 C11.2305,3.02734 11.1328,2.78646 11.1328,2.5 C11.1328,2.21354 11.2305,1.97266 11.4258,1.77734 C11.6211,1.58203 11.862,1.48438 12.1484,1.48438 C12.4349,1.48438 12.6758,1.58203 12.8711,1.77734 C13.0664,1.97266 13.1641,2.21354 13.1641,2.5 C13.1641,2.78646 13.0664,3.02734 12.8711,3.22266 C12.6758,3.41797 12.4349,3.51562 12.1484,3.51562 C11.862,3.51562 11.6211,3.41797 11.4258,3.22266 M4.64844,-5.25391 C6.38021,-5.25391 7.79948,-4.81771 8.90625,-3.94531 C9.97396,-3.03385 10.5078,-1.79688 10.5078,-0.234375 C10.5078,0.820312 10.2995,1.78385 9.88281,2.65625 C9.49219,3.56771 8.97786,4.375 8.33984,5.07812 C7.6888,5.79427 6.90104,6.47135 5.97656,7.10938 C5.07812,7.73438 4.15365,8.29427 3.20312,8.78906 C1.27604,9.76562 0.208333,10.2539 0,10.2539 C-0.169271,10.2539 -0.253906,10.1693 -0.253906,10 C-0.253906,9.9349 -0.227865,9.8763 -0.175781,9.82422 C0.488281,9.43359 1.30208,8.93229 2.26562,8.32031 C2.89062,7.91667 3.61979,7.35677 4.45312,6.64062 C5.26042,5.96354 5.88542,5.32552 6.32812,4.72656 C6.78385,4.14062 7.20052,3.41146 7.57812,2.53906 C7.90365,1.66667 8.06641,0.807292 8.06641,-0.0390625 C8.06641,-1.30208 7.75391,-2.40234 7.12891,-3.33984 C6.50391,-4.27734 5.67708,-4.74609 4.64844,-4.74609 C3.91927,-4.74609 3.29427,-4.51172 2.77344,-4.04297 C2.21354,-3.5612 1.8099,-2.95573 1.5625,-2.22656 C1.8099,-2.33073 2.03776,-2.38281 2.24609,-2.38281 C2.79297,-2.38281 3.26172,-2.1875 3.65234,-1.79688 C4.04297,-1.38021 4.23828,-0.904948 4.23828,-0.371094 C4.23828,0.188802 4.04948,0.690104 3.67188,1.13281 C3.26823,1.53646 2.79297,1.73828 2.24609,1.73828 C1.66016,1.73828 1.13281,1.53646 0.664062,1.13281 C0.221354,0.690104 0,0.188802 0,-0.371094 C0,-1.71224 0.455729,-2.85807 1.36719,-3.80859 C2.26562,-4.77214 3.35938,-5.25391 4.64844,-5.25391"/>
<path class="KeySig" transform="matrix(0.850394,0,0,0.850394,44.8809,53.3277)" d="M4.31641,6.23047 C4.31641,6.47786 4.19271,6.60156 3.94531,6.60156 C3.69792,6.60156 3.57422,6.47786 3.57422,6.23047 L3.57422,3.33984 L1.91406,3.96484 L1.91406,7.12891 C1.91406,7.3763 1.79036,7.5 1.54297,7.5 C1.29557,7.5 1.17188,7.3763 1.17188,7.12891 L1.17188,4.21875 L0.546875,4.45312 C0.533854,4.46615 0.481771,4.47266 0.390625,4.47266 C0.286458,4.47266 0.195312,4.43359 0.117188,4.35547 C0.0390625,4.27734 0,4.1862 0,4.08203 L0,2.87109 C0,2.67578 0.0846354,2.55208 0.253906,2.5 L1.17188,2.1875 L1.17188,-1.01562 L0.546875,-0.800781 C0.533854,-0.78776 0.481771,-0.78125 0.390625,-0.78125 C0.286458,-0.78125 0.195312,-0.820312 0.117188,-0.898438 C0.0390625,-0.976562 0,-1.06771 0,-1.17188 L0,-2.38281 C0,-2.5651 0.0846354,-2.68229 0.253906,-2.73438 L1.17188,-3.08594 L1.17188,-6.23047 C1.17188,-6.47786 1.29557,-6.60156 1.54297,-6.60156 C1.79036,-6.60156 1.91406,-6.47786 1.91406,-6.23047 L1.91406,-3.33984 L3.57422,-3.96484 L3.57422,-7.12891 C3.57422,-7.3763 3.69792,-7.5 3.94531,-7.5 C4.19271,-7.5 4.31641,-7.3763 4.31641,-7.12891 L4.31641,-4.21875 L4.96094,-4.45312 C4.97396,-4.46615 5.01953,-4.47266 5.09766,-4.47266 C5.1888,-4.47266 5.28646,-4.43359 5.39062,-4.35547 C5.46875,-4.27734 5.50781,-4.1862 5.50781,-4.08203 L5.50781,-2.87109 C5.50781,-2.6888 5.41667,-2.5651 5.23438,-2.5 L4.31641,-2.1875 L4.31641,1.01562 L4.96094,0.800781 C4.97396,0.78776 5.01953,0.78125 5.09766,0.78125 C5.1888,0.78125 5.28646,0.820312 5.39062,0.898438 C5.46875,0.976562 5.50781,1.06771 5.50781,1.17188 L5.50781,2.38281 C5.50781,2.55208 5.41667,2.66927 5.23438,2.73438 L4.31641,3.08594 L4.31641,6.23047 M3.57422,-1.89453 L1.91406,-1.30859 L1.91406,1.89453 L3.57422,1.30859 L3.57422,-1.89453 "/>
<path class="KeySig" transform="matrix(0.850394,0,0,0.850394,40.6289,61.8316)" d="M4.31641,6.23047 C4.31641,6.47786 4.19271,6.60156 3.94531,6.60156 C3.69792,6.60156 3.57422,6.47786 3.57422,6.23047 L3.57422,3.33984 L1.91406,3.96484 L1.91406,7.12891 C1.91406,7.3763 1.79036,7.5 1.54297,7.5 C1.29557,7.5 1.17188,7.3763 1.17188,7.12891 L1.17188,4.21875 L0.546875,4.45312 C0.533854,4.46615 0.481771,4.47266 0.390625,4.47266 C0.286458,4.47266 0.195312,4.43359 0.117188,4.35547 C0.0390625,4.27734 0,4.1862 0,4.08203 L0,2.87109 C0,2.67578 0.0846354,2.55208 0.253906,2.5 L1.17188,2.1875 L1.17188,-1.01562 L0.546875,-0.800781 C0.533854,-0.78776 0.481771,-0.78125 0.390625,-0.78125 C0.286458,-0.78125 0.195312,-0.820312 0.117188,-0.898438 C0.0390625,-0.976562 0,-1.06771 0,-1.17188 L0,-2.38281 C0,-2.5651 0.0846354,-2.68229 0.253906,-2.73438 L1.17188,-3.08594 L1.17188,-6.23047 C1.17188,-6.47786 1.29557,-6.60156 1.54297,-6.60156 C1.79036,-6.60156 1.91406,-6.47786 1.91406,-6.23047 L1.91406,-3.33984 L3.57422,-3.96484 L3.57422,-7.12891 C3.57422,-7.3763 3.69792,-7.5 3.94531,-7.5 C4.19271,-7.5 4.31641,-7.3763 4.31641,-7.12891 L4.31641,-4.21875 L4.96094,-4.45312 C4.97396,-4.46615 5.01953,-4.47266 5.09766,-4.47266 C5.1888,-4.47266 5.28646,-4.43359 5.39062,-4.35547 C5.46875,-4.27734 5.50781,-4.1862 5.50781,-4.08203 L5.50781,-2.87109 C5.50781,-2.6888 5.41667,-2.5651 5.23438,-2.5 L4.31641,-2.1875 L4.31641,1.01562 L4.96094,0.800781 C4.97396,0.78776 5.01953,0.78125 5.09766,0.78125 C5.1888,0.78125 5.28646,0.820312 5.39062,0.898438 C5.46875,0.976562 5.50781,1.06771 5.50781,1.17188 L5.50781,2.38281 C5.50781,2.55208 5.41667,2.66927 5.23438,2.73438 L4.31641,3.08594 L4.31641,6.23047 M3.57422,-1.89453 L1.91406,-1.30859 L1.91406,1.89453 L3.57422,1.30859 L3.57422,-1.89453 "/>
<path class="KeySig" transform="matrix(0.850394,0,0,0.850394,36.3769,55.4536)" d="M4.31641,6.23047 C4.31641,6.47786 4.19271,6.60156 3.94531,6.60156 C3.69792,6.60156 3.57422,6.47786 3.57422,6.23047 L3.57422,3.33984 L1.91406,3.96484 L1.91406,7.12891 C1.91406,7.3763 1.79036,7.5 1.54297,7.5 C1.29557,7.5 1.17188,7.3763 1.17188,7.12891 L1.17188,4.21875 L0.546875,4.45312 C0.533854,4.46615 0.481771,4.47266 0.390625,4.47266 C0.286458,4.47266 0.195312,4.43359 0.117188,4.35547 C0.0390625,4.27734 0,4.1862 0,4.08203 L0,2.87109 C0,2.67578 0.0846354,2.55208 0.253906,2.5 L1.17188,2.1875 L1.17188,-1.01562 L0.546875,-0.800781 C0.533854,-0.78776 0.481771,-0.78125 0.390625,-0.78125 C0.286458,-0.78125 0.195312,-0.820312 0.117188,-0.898438 C0.0390625,-0.976562 0,-1.06771 0,-1.17188 L0,-2.38281 C0,-2.5651 0.0846354,-2.68229 0.253906,-2.73438 L1.17188,-3.08594 L1.17188,-6.23047 C1.17188,-6.47786 1.29557,-6.60156 1.54297,-6.60156 C1.79036,-6.60156 1.91406,-6.47786 1.91406,-6.23047 L1.91406,-3.33984 L3.57422,-3.96484 L3.57422,-7.12891 C3.57422,-7.3763 3.69792,-7.5 3.94531,-7.5 C4.19271,-7.5 4.31641,-7.3763 4.31641,-7.12891 L4.31641,-4.21875 L4.96094,-4.45312 C4.97396,-4.46615 5.01953,-4.47266 5.09766,-4.47266 C5.1888,-4.47266 5.28646,-4.43359 5.39062,-4.35547 C5.46875,-4.27734 5.50781,-4.1862 5.50781,-4.08203 L5.50781,-2.87109 C5.50781,-2.6888 5.41667,-2.5651 5.23438,-2.5 L4.31641,-2.1875 L4.31641,1.01562 L4.96094,0.800781 C4.97396,0.78776 5.01953,0.78125 5.09766,0.78125 C5.1888,0.78125 5.28646,0.820312 5.39062,0.898438 C5.46875,0.976562 5.50781,1.06771 5.50781,1.17188 L5.50781,2.38281 C5.50781,2.55208 5.41667,2.66927 5.23438,2.73438 L4.31641,3.08594 L4.31641,6.23047 M3.57422,-1.89453 L1.91406,-1.30859 L1.91406,1.89453 L3.57422,1.30859 L3.57422,-1.89453 "/>
<path class="KeySig" transform="matrix(0.850394,0,0,0.850394,32.125,49.0757)" d="M4.31641,6.23047 C4.31641,6.47786 4.19271,6.60156 3.94531,6.60156 C3.69792,6.60156 3.57422,6.47786 3.57422,6.23047 L3.57422,3.33984 L1.91406,3.96484 L1.91406,7.12891 C1.91406,7.3763 1.79036,7.5 1.54297,7.5 C1.29557,7.5 1.17188,7.3763 1.17188,7.12891 L1.17188,4.21875 L0.546875,4.45312 C0.533854,4.46615 0.481771,4.47266 0.390625,4.47266 C0.286458,4.47266 0.195312,4.43359 0.117188,4.35547 C0.0390625,4.27734 0,4.1862 0,4.08203 L0,2.87109 C0,2.67578 0.0846354,2.55208 0.253906,2.5 L1.17188,2.1875 L1.17188,-1.01562 L0.546875,-0.800781 C0.533854,-0.78776 0.481771,-0.78125 0.390625,-0.78125 C0.286458,-0.78125 0.195312,-0.820312 0.117188,-0.898438 C0.0390625,-0.976562 0,-1.06771 0,-1.17188 L0,-2.38281 C0,-2.5651 0.0846354,-2.68229 0.253906,-2.73438 L1.17188,-3.08594 L1.17188,-6.23047 C1.17188,-6.47786 1.29557,-6.60156 1.54297,-6.60156 C1.79036,-6.60156 1.91406,-6.47786 1.91406,-6.23047 L1.91406,-3.33984 L3.57422,-3.96484 L3.57422,-7.12891 C3.57422,-7.3763 3.69792,-7.5 3.94531,-7.5 C4.19271,-7.5 4.31641,-7.3763 4.31641,-7.12891 L4.31641,-4.21875 L4.96094,-4.45312 C4.97396,-4.46615 5.01953,-4.47266 5.09766,-4.47266 C5.1888,-4.47266 5.28646,-4.43359 5.39062,-4.35547 C5.46875,-4.27734 5.50781,-4.1862 5.50781,-4.08203 L5.50781,-2.87109 C5.50781,-2.6888 5.41667,-2.5651 5.23438,-2.5 L4.31641,-2.1875 L4.31641,1.01562 L4.96094,0.800781 C4.97396,0.78776 5.01953,0.78125 5.09766,0.78125 C5.1888,0.78125 5.28646,0.820312 5.39062,0.898438 C5.46875,0.976562 5.50781,1.06771 5.50781,1.17188 L5.50781,2.38281 C5.50781,2.55208 5.41667,2.66927 5.23438,2.73438 L4.31641,3.08594 L4.31641,6.23047 M3.57422,-1.89453 L1.91406,-1.30859 L1.91406,1.89453 L3.57422,1.30859 L3.57422,-1.89453 "/>
<path class="KeySig" transform="matrix(0.850394,0,0,0.850394,27.873,57.5796)" d="M4.31641,6.23047 C4.31641,6.47786 4.19271,6.60156 3.94531,6.60156 C3.69792,6.60156 3.57422,6.47786 3.57422,6.23047 L3.57422,3.33984 L1.91406,3.96484 L1.91406,7.12891 C1.91406,7.3763 1.79036,7.5 1.54297,7.5 C1.29557,7.5 1.17188,7.3763 1.17188,7.12891 L1.17188,4.21875 L0.546875,4.45312 C0.533854,4.46615 0.481771,4.47266 0.390625,4.47266 C0.286458,4.47266 0.195312,4.43359 0.117188,4.35547 C0.0390625,4.27734 0,4.1862 0,4.08203 L0,2.87109 C0,2.67578 0.0846354,2.55208 0.253906,2.5 L1.17188,2.1875 L1.17188,-1.01562 L0.546875,-0.800781 C0.533854,-0.78776 0.481771,-0.78125 0.390625,-0.78125 C0.286458,-0.78125 0.195312,-0.820312 0.117188,-0.898438 C0.0390625,-0.976562 0,-1.06771 0,-1.17188 L0,-2.38281 C0,-2.5651 0.0846354,-2.68229 0.253906,-2.73438 L1.17188,-3.08594 L1.17188,-6.23047 C1.17188,-6.47786 1.29557,-6.60156 1.54297,-6.60156 C1.79036,-6.60156 1.91406,-6.47786 1.91406,-6.23047 L1.91406,-3.33984 L3.57422,-3.96484 L3.57422,-7.12891 C3.57422,-7.3763 3.69792,-7.5 3.94531,-7.5 C4.19271,-7.5 4.31641,-7.3763 4.31641,-7.12891 L4.31641,-4.21875 L4.96094,-4.45312 C4.97396,-4.46615 5.01953,-4.47266 5.09766,-4.47266 C5.1888,-4.47266 5.28646,-4.43359 5.39062,-4.35547 C5.46875,-4.27734 5.50781,-4.1862 5.50781,-4.08203 L5.50781,-2.87109 C5.50781,-2.6888 5.41667,-2.5651 5.23438,-2.5 L4.31641,-2.1875 L4.31641,1.01562 L4.96094,0.800781 C4.97396,0.78776 5.01953,0.78125 5.09766,0.78125 C5.1888,0.78125 5.28646,0.820312 5.39062,0.898438 C5.46875,0.976562 5.50781,1.06771 5.50781,1.17188 L5.50781,2.38281 C5.50781,2.55208 5.41667,2.66927 5.23438,2.73438 L4.31641,3.08594 L4.31641,6.23047 M3.57422,-1.89453 L1.91406,-1.30859 L1.91406,1.89453 L3.57422,1.30859 L3.57422,-1.89453 "/>
<path class="KeySig" transform="matrix(0.850394,0,0,0.850394,23.621,51.2017)" d="M4.31641,6.23047 C4.31641,6.47786 4.19271,6.60156 3.94531,6.60156 C3.69792,6.60156 3.57422,6.47786 3.57422,6.23047 L3.57422,3.33984 L1.91406,3.96484 L1.91406,7.12891 C1.91406,7.3763 1.79036,7.5 1.54297,7.5 C1.29557,7.5 1.17188,7.3763 1.17188,7.12891 L1.17188,4.21875 L0.546875,4.45312 C0.533854,4.46615 0.481771,4.47266 0.390625,4.47266 C0.286458,4.47266 0.195312,4.43359 0.117188,4.35547 C0.0390625,4.27734 0,4.1862 0,4.08203 L0,2.87109 C0,2.67578 0.0846354,2.55208 0.253906,2.5 L1.17188,2.1875 L1.17188,-1.01562 L0.546875,-0.800781 C0.533854,-0.78776 0.481771,-0.78125 0.390625,-0.78125 C0.286458,-0.78125 0.195312,-0.820312 0.117188,-0.898438 C0.0390625,-0.976562 0,-1.06771 0,-1.17188 L0,-2.38281 C0,-2.5651 0.0846354,-2.68229 0.253906,-2.73438 L1.17188,-3.08594 L1.17188,-6.23047 C1.17188,-6.47786 1.29557,-6.60156 1.54297,-6.60156 C1.79036,-6.60156 1.91406,-6.47786 1.91406,-6.23047 L1.91406,-3.33984 L3.57422,-3.96484 L3.57422,-7.12891 C3.57422,-7.3763 3.69792,-7.5 3.94531,-7.5 C4.19271,-7.5 4.31641,-7.3763 4.31641,-7.12891 L4.31641,-4.21875 L4.96094,-4.45312 C4.97396,-4.46615 5.01953,-4.47266 5.09766,-4.47266 C5.1888,-4.47266 5.28646,-4.43359 5.39062,-4.35547 C5.46875,-4.27734 5.50781,-4.1862 5.50781,-4.08203 L5.50781,-2.87109 C5.50781,-2.6888 5.41667,-2.5651 5.23438,-2.5 L4.31641,-2.1875 L4.31641,1.01562 L4.96094,0.800781 C4.97396,0.78776 5.01953,0.78125 5.09766,0.78125 C5.1888,0.78125 5.28646,0.820312 5.39062,0.898438 C5.46875,0.976562 5.50781,1.06771 5.50781,1.17188 L5.50781,2.38281 C5.50781,2.55208 5.41667,2.66927 5.23438,2.73438 L4.31641,3.08594 L4.31641,6.23047 M3.57422,-1.89453 L1.91406,-1.30859 L1.91406,1.89453 L3.57422,1.30859 L3.57422,-1.89453 "/>
<path class="KeySig" transform="matrix(0.850394,0,0,0.850394,44.8809,15.0599)" d="M4.31641,6.23047 C4.31641,6.47786 4.19271,6.60156 3.94531,6.60156 C3.69792,6.60156 3.57422,6.47786 3.57422,6.23047 L3.57422,3.33984 L1.91406,3.96484 L1.91406,7.12891 C1.91406,7.3763 1.79036,7.5 1.54297,7.5 C1.29557,7.5 1.17188,7.3763 1.17188,7.12891 L1.17188,4.21875 L0.546875,4.45312 C0.533854,4.46615 0.481771,4.47266 0.390625,4.47266 C0.286458,4.47266 0.195312,4.43359 0.117188,4.35547 C0.0390625,4.27734 0,4.1862 0,4.08203 L0,2.87109 C0,2.67578 0.0846354,2.55208 0.253906,2.5 L1.17188,2.1875 L1.17188,-1.01562 L0.546875,-0.800781 C0.533854,-0.78776 0.481771,-0.78125 0.390625,-0.78125 C0.286458,-0.78125 0.195312,-0.820312 0.117188,-0.898438 C0.0390625,-0.976562 0,-1.06771 0,-1.17188 L0,-2.38281 C0,-2.5651 0.0846354,-2.68229 0.253906,-2.73438 L1.17188,-3.08594 L1.17188,-6.23047 C1.17188,-6.47786 1.29557,-6.60156 1.54297,-6.60156 C1.79036,-6.60156 1.91406,-6.47786 1.91406,-6.23047 L1.91406,-3.33984 L3.57422,-3.96484 L3.57422,-7.12891 C3.57422,-7.3763 3.69792,-7.5 3.94531,-7.5 C4.19271,-7.5 4.31641,-7.3763 4.31641,-7.12891 L4.31641,-4.21875 L4.96094,-4.45312 C4.97396,-4.46615 5.01953,-4.47266 5.09766,-4.47266 C5.1888,-4.47266 5.28646,-4.43359 5.39062,-4.35547 C5.46875,-4.27734 5.50781,-4.1862 5.50781,-4.08203 L5.50781,-2.87109 C5.50781,-2.6888 5.41667,-2.5651 5.23438,-2.5 L4.31641,-2.1875 L4.31641,1.01562 L4.96094,0.800781 C4.97396,0.78776 5.01953,0.78125 5.09766,0.78125 C5.1888,0.78125 5.28646,0.820312 5.39062,0.898438 C5.46875,0.976562 5.50781,1.06771 5.50781,1.17188 L5.50781,2.38281 C5.50781,2.55208 5.41667,2.66927 5.23438,2.73438 L4.31641,3.08594 L4.31641,6.23047 M3.57422,-1.89453 L1.91406,-1.30859 L1.91406,1.89453 L3.57422,1.30859 L3.57422,-1.89453 "/>
<path class="KeySig" transform="matrix(0.850394,0,0,0.850394,40.6289,23.5639)" d="M4.31641,6.23047 C4.31641,6.47786 4.19271,6.60156 3.94531,6.60156 C3.69792,6.60156 3.57422,6.47786 3.57422,6.23047 L3.57422,3.33984 L1.91406,3.96484 L1.91406,7.12891 C1.91406,7.3763 1.79036,7.5 1.54297,7.5 C1.29557,7.5 1.17188,7.3763 1.17188,7.12891 L1.17188,4.21875 L0.546875,4.45312 C0.533854,4.46615 0.481771,4.47266 0.390625,4.47266 C0.286458,4.47266 0.195312,4.43359 0.117188,4.35547 C0.0390625,4.27734 0,4.1862 0,4.08203 L0,2.87109 C0,2.67578 0.0846354,2.55208 0.253906,2.5 L1.17188,2.1875 L1.17188,-1.01562 L0.546875,-0.800781 C0.533854,-0.78776 0.481771,-0.78125 0.390625,-0.78125 C0.286458,-0.78125 0.195312,-0.820312 0.117188,-0.898438 C0.0390625,-0.976562 0,-1.06771 0,-1.17188 L0,-2.38281 C0,-2.5651 0.0846354,-2.68229 0.253906,-2.73438 L1.17188,-3.08594 L1.17188,-6.23047 C1.17188,-6.47786 1.29557,-6.60156 1.54297,-6.60156 C1.79036,-6.60156 1.91406,-6.47786 1.91406,-6.23047 L1.91406,-3.33984 L3.57422,-3.96484 L3.57422,-7.12891 C3.57422,-7.3763 3.69792,-7.5 3.94531,-7.5 C4.19271,-7.5 4.31641,-7.3763 4.31641,-7.12891 L4.31641,-4.21875 L4.96094,-4.45312 C4.97396,-4.46615 5.01953,-4.47266 5.09766,-4.47266 C5.1888,-4.47266 5.28646,-4.43359 5.39062,-4.35547 C5.46875,-4.27734 5.50781,-4.1862 5.50781,-4.08203 L5.50781,-2.87109 C5.50781,-2.6888 5.41667,-2.5651 5.23438,-2.5 L4.31641,-2.1875 L4.31641,1.01562 L4.96094,0.800781 C4.97396,0.78776 5.01953,0.78125 5.09766,0.78125 C5.1888,0.78125 5.28646,0.820312 5.39062,0.898438 C5.46875,0.976562 5.50781,1.06771 5.50781,1.17188 L5.50781,2.38281 C5.50781,2.55208 5.41667,2.66927 5.23438,2.73438 L4.31641,3.08594 L4.31641,6.23047 M3.57422,-1.89453 L1.91406,-1.30859 L1.91406,1.89453 L3.57422,1.30859 L3.57422,-1.89453 "/>
<path class="KeySig" transform="matrix(0.850394,0,0,0.850394,36.3769,17.1859)" d="M4.31641,6.23047 C4.31641,6.47786 4.19271,6.60156 3.94531,6.60156 C3.69792,6.60156 3.57422,6.47786 3.57422,6.23047 L3.57422,3.33984 L1.91406,3.96484 L1.91406,7.12891 C1.91406,7.3763 1.79036,7.5 1.54297,7.5 C1.29557,7.5 1.17188,7.3763 1.17188,7.12891 L1.17188,4.21875 L0.546875,4.45312 C0.533854,4.46615 0.481771,4.47266 0.390625,4.47266 C0.286458,4.47266 0.195312,4.43359 0.117188,4.35547 C0.0390625,4.27734 0,4.1862 0,4.08203 L0,2.87109 C0,2.67578 0.0846354,2.55208 0.253906,2.5 L1.17188,2.1875 L1.17188,-1.01562 L0.546875,-0.800781 C0.533854,-0.78776 0.481771,-0.78125 0.390625,-0.78125 C0.286458,-0.78125 0.195312,-0.820312 0.117188,-0.898438 C0.0390625,-0.976562 0,-1.06771 0,-1.17188 L0,-2.38281 C0,-2.5651 0.0846354,-2.68229 0.253906,-2.73438 L1.17188,-3.08594 L1.17188,-6.23047 C1.17188,-6.47786 1.29557,-6.60156 1.54297,-6.60156 C1.79036,-6.60156 1.91406,-6.47786 1.91406,-6.23047 L1.91406,-3.33984 L3.57422,-3.96484 L3.57422,-7.12891 C3.57422,-7.3763 3.69792,-7.5 3.94531,-7.5 C4.19271,-7.5 4.31641,-7.3763 4.31641,-7.12891 L4.31641,-4.21875 L4.96094,-4.45312 C4.97396,-4.46615 5.01953,-4.47266 5.09766,-4.47266 C5.1888,-4.47266 5.28646,-4.43359 5.39062,-4.35547 C5.46875,-4.27734 5.50781,-4.1862 5.50781,-4.08203 L5.50781,-2.87109 C5.50781,-2.6888 5.41667,-2.5651 5.23438,-2.5 L4.31641,-2.1875 L4.31641,1.01562 L4.96094,0.800781 C4.97396,0.78776 5.01953,0.78125 5.09766,0.78125 C5.1888,0.78125 5.28646,0.820312 5.39062,0.898438 C5.46875,0.976562 5.50781,1.06771 5.50781,1.17188 L5.50781,2.38281 C5.50781,2.55208 5.41667,2.66927 5.23438,2.73438 L4.31641,3.08594 L4.31641,6.23047 M3.57422,-1.89453 L1.91406,-1.30859 L1.91406,1.89453 L3.57422,1.30859 L3.57422,-1.89453 "/>
<path class="KeySig" transform="matrix(0.850394,0,0,0.850394,32.125,10.808)" d="M4.31641,6.23047 C4.31641,6.47786 4.19271,6.60156 3.94531,6.60156 C3.69792,6.60156 3.57422,6.47786 3.57422,6.23047 L3.57422,3.33984 L1.91406,3.96484 L1.91406,7.12891 C1.91406,7.3763 1.79036,7.5 1.54297,7.5 C1.29557,7.5 1.17188,7.3763 1.17188,7.12891 L1.17188,4.21875 L0.546875,4.45312 C0.533854,4.46615 0.481771,4.47266 0.390625,4.47266 C0.286458,4.47266 0.195312,4.43359 0.117188,4.35547 C0.0390625,4.27734 0,4.1862 0,4.08203 L0,2.87109 C0,2.67578 0.0846354,2.55208 0.253906,2.5 L1.17188,2.1875 L1.17188,-1.01562 L0.546875,-0.800781 C0.533854,-0.78776 0.481771,-0.78125 0.390625,-0.78125 C0.286458,-0.78125 0.195312,-0.820312 0.117188,-0.898438 C0.0390625,-0.976562 0,-1.06771 0,-1.17188 L0,-2.38281 C0,-2.5651 0.0846354,-2.68229 0.253906,-2.73438 L1.17188,-3.08594 L1.17188,-6.23047 C1.17188,-6.47786 1.29557,-6.60156 1.54297,-6.60156 C1.79036,-6.60156 1.91406,-6.47786 1.91406,-6.23047 L1.91406,-3.33984 L3.57422,-3.96484 L3.57422,-7.12891 C3.57422,-7.3763 3.69792,-7.5 3.94531,-7.5 C4.19271,-7.5 4.31641,-7.3763 4.31641,-7.12891 L4.31641,-4.21875 L4.96094,-4.45312 C4.97396,-4.46615 5.01953,-4.47266 5.09766,-4.47266 C5.1888,-4.47266 5.28646,-4.43359 5.39062,-4.35547 C5.46875,-4.27734 5.50781,-4.1862 5.50781,-4.08203 L5.50781,-2.87109 C5.50781,-2.6888 5.41667,-2.5651 5.23438,-2.5 L4.31641,-2.1875 L4.31641,1.01562 L4.96094,0.800781 C4.97396,0.78776 5.01953,0.78125 5.09766,0.78125 C5.1888,0.78125 5.28646,0.820312 5.39062,0.898438 C5.46875,0.976562 5.50781,1.06771 5.50781,1.17188 L5.50781,2.38281 C5.50781,2.55208 5.41667,2.66927 5.23438,2.73438 L4.31641,3.08594 L4.31641,6.23047 M3.57422,-1.89453 L1.91406,-1.30859 L1.91406,1.89453 L3.57422,1.30859 L3.57422,-1.89453 "/>
<path class="KeySig" transform="matrix(0.850394,0,0,0.850394,27.873,19.3119)" d="M4.31641,6.23047 C4.31641,6.47786 4.19271,6.60156 3.94531,6.60156 C3.69792,6.60156 3.57422,6.47786 3.57422,6.23047 L3.57422,3.33984 L1.91406,3.96484 L1.91406,7.12891 C1.91406,7.3763 1.79036,7.5 1.54297,7.5 C1.29557,7.5 1.17188,7.3763 1.17188,7.12891 L1.17188,4.21875 L0.546875,4.45312 C0.533854,4.46615 0.481771,4.47266 0.390625,4.47266 C0.286458,4.47266 0.195312,4.43359 0.117188,4.35547 C0.0390625,4.27734 0,4.1862 0,4.08203 L0,2.87109 C0,2.67578 0.0846354,2.55208 0.253906,2.5 L1.17188,2.1875 L1.17188,-1.01562 L0.546875,-0.800781 C0.533854,-0.78776 0.481771,-0.78125 0.390625,-0.78125 C0.286458,-0.78125 0.195312,-0.820312 0.117188,-0.898438 C0.0390625,-0.976562 0,-1.06771 0,-1.17188 L0,-2.38281 C0,-2.5651 0.0846354,-2.68229 0.253906,-2.73438 L1.17188,-3.08594 L1.17188,-6.23047 C1.17188,-6.47786 1.29557,-6.60156 1.54297,-6.60156 C1.79036,-6.60156 1.91406,-6.47786 1.91406,-6.23047 L1.91406,-3.33984 L3.57422,-3.96484 L3.57422,-7.12891 C3.57422,-7.3763 3.69792,-7.5 3.94531,-7.5 C4.19271,-7.5 4.31641,-7.3763 4.31641,-7.12891 L4.31641,-4.21875 L4.96094,-4.45312 C4.97396,-4.46615 5.01953,-4.47266 5.09766,-4.47266 C5.1888,-4.47266 5.28646,-4.43359 5.39062,-4.35547 C5.46875,-4.27734 5.50781,-4.1862 5.50781,-4.08203 L5.50781,-2.87109 C5.50781,-2.6888 5.41667,-2.5651 5.23438,-2.5 L4.31641,-2.1875 L4.31641,1.01562 L4.96094,0.800781 C4.97396,0.78776 5.01953,0.78125 5.09766,0.78125 C5.1888,0.78125 5.28646,0.820312 5.39062,0.898438 C5.46875,0.976562 5.50781,1.06771 5.50781,1.17188 L5.50781,2.38281 C5.50781,2.55208 5.41667,2.66927 5.23438,2.73438 L4.31641,3.08594 L4.31641,6.23047 M3.57422,-1.89453 L1.91406,-1.30859 L1.91406,1.89453 L3.57422,1.30859 L3.57422,-1.89453 "/>
<path class="KeySig" transform="matrix(0.850394,0,0,0.850394,23.621,12.934)" d="M4.31641,6.23047 C4.31641,6.47786 4.19271,6.60156 3.94531,6.60156 C3.69792,6.60156 3.57422,6.47786 3.57422,6.23047 L3.57422,3.33984 L1.91406,3.96484 L1.91406,7.12891 C1.91406,7.3763 1.79036,7.5 1.54297,7.5 C1.29557,7.5 1.17188,7.3763 1.17188,7.12891 L1.17188,4.21875 L0.546875,4.45312 C0.533854,4.46615 0.481771,4.47266 0.390625,4.47266 C0.286458,4.47266 0.195312,4.43359 0.117188,4.35547 C0.0390625,4.27734 0,4.1862 0,4.08203 L0,2.87109 C0,2.67578 0.0846354,2.55208 0.253906,2.5 L1.17188,2.1875 L1.17188,-1.01562 L0.546875,-0.800781 C0.533854,-0.78776 0.481771,-0.78125 0.390625,-0.78125 C0.286458,-0.78125 0.195312,-0.820312 0.117188,-0.898438 C0.0390625,-0.976562 0,-1.06771 0,-1.17188 L0,-2.38281 C0,-2.5651 0.0846354,-2.68229 0.253906,-2.73438 L1.17188,-3.08594 L1.17188,-6.23047 C1.17188,-6.47786 1.29557,-6.60156 1.54297,-6.60156 C1.79036,-6.60156 1.91406,-6.47786 1.91406,-6.23047 L1.91406,-3.33984 L3.57422,-3.96484 L3.57422,-7.12891 C3.57422,-7.3763 3.69792,-7.5 3.94531,-7.5 C4.19271,-7.5 4.31641,-7.3763 4.31641,-7.12891 L4.31641,-4.21875 L4.96094,-4.45312 C4.97396,-4.46615 5.01953,-4.47266 5.09766,-4.47266 C5.1888,-4.47266 5.28646,-4.43359 5.39062,-4.35547 C5.46875,-4.27734 5.50781,-4.1862 5.50781,-4.08203 L5.50781,-2.87109 C5.50781,-2.6888 5.41667,-2.5651 5.23438,-2.5 L4.31641,-2.1875 L4.31641,1.01562 L4.96094,0.800781 C4.97396,0.78776 5.01953,0.78125 5.09766,0.78125 C5.1888,0.78125 5.28646,0.820312 5.39062,0.898438 C5.46875,0.976562 5.50781,1.06771 5.50781,1.17188 L5.50781,2.38281 C5.50781,2.55208 5.41667,2.66927 5.23438,2.73438 L4.31641,3.08594 L4.31641,6.23047 M3.57422,-1.89453 L1.91406,-1.30859 L1.91406,1.89453 L3.57422,1.30859 L3.57422,-1.89453 "/>
<path class="TimeSig" transform="matrix(0.850394,0,0,0.850394,52.3311,51.2017)" d="M5.25391,-0.292969 C5.25391,-0.16276 5.32552,-0.0390625 5.46875,0.078125 C5.67708,0.234375 5.83984,0.351562 5.95703,0.429688 C6.11328,0.520833 6.27604,0.729167 6.44531,1.05469 C6.58854,1.36719 6.66016,1.7513 6.66016,2.20703 C6.66016,3.10547 6.32812,3.79557 5.66406,4.27734 C4.98698,4.75911 4.1276,5 3.08594,5 C2.23958,5 1.52344,4.79167 0.9375,4.375 C0.3125,3.98438 0,3.4375 0,2.73438 C0,2.39583 0.130208,2.08333 0.390625,1.79688 C0.664062,1.54948 0.976562,1.42578 1.32812,1.42578 C1.69271,1.42578 1.99219,1.55599 2.22656,1.81641 C2.48698,2.0638 2.61719,2.36979 2.61719,2.73438 C2.61719,2.90365 2.48698,3.08594 2.22656,3.28125 C1.95312,3.46354 1.81641,3.63932 1.81641,3.80859 C1.81641,4.05599 1.9401,4.23828 2.1875,4.35547 C2.44792,4.47266 2.7474,4.53125 3.08594,4.53125 C3.54167,4.53125 3.86719,4.3099 4.0625,3.86719 C4.24479,3.38542 4.33594,2.83203 4.33594,2.20703 L4.33594,1.875 C4.33594,1.4974 4.32292,1.16536 4.29688,0.878906 C4.27083,0.657552 4.17969,0.455729 4.02344,0.273438 C3.88021,0.0911458 3.65234,0 3.33984,0 L1.73828,0 C1.55599,0 1.46484,-0.0976562 1.46484,-0.292969 C1.46484,-0.46224 1.55599,-0.559896 1.73828,-0.585938 L3.33984,-0.585938 C3.70443,-0.585938 3.96484,-0.703125 4.12109,-0.9375 C4.2513,-1.11979 4.32292,-1.44531 4.33594,-1.91406 L4.33594,-2.55859 L4.33594,-2.71484 C4.33594,-3.92578 3.89323,-4.53125 3.00781,-4.53125 C2.22656,-4.53125 1.82943,-4.31641 1.81641,-3.88672 C1.81641,-3.74349 1.9401,-3.58724 2.1875,-3.41797 C2.42188,-3.2487 2.53906,-3.09245 2.53906,-2.94922 C2.53906,-2.6237 2.42188,-2.34375 2.1875,-2.10938 C1.96615,-1.88802 1.69271,-1.77734 1.36719,-1.77734 C1.05469,-1.77734 0.78776,-1.88802 0.566406,-2.10938 C0.345052,-2.35677 0.234375,-2.63672 0.234375,-2.94922 C0.234375,-3.5612 0.507812,-4.0625 1.05469,-4.45312 C1.6276,-4.81771 2.27865,-5 3.00781,-5 C3.98438,-5 4.79167,-4.8112 5.42969,-4.43359 C6.06771,-4.06901 6.38672,-3.49609 6.38672,-2.71484 C6.38672,-2.15495 6.32812,-1.73177 6.21094,-1.44531 C6.09375,-1.14583 5.96354,-0.963542 5.82031,-0.898438 C5.66406,-0.833333 5.53385,-0.755208 5.42969,-0.664062 C5.3125,-0.559896 5.25391,-0.436198 5.25391,-0.292969"/>
<path class="TimeSig" transform="matrix(0.850394,0,0,0.850394,51.7332,59.7056)" d="M4.49219,-4.74609 C4.88281,-4.74609 5.21484,-4.79167 5.48828,-4.88281 C5.76172,-4.97396 5.9375,-5.01953 6.01562,-5.01953 C6.10677,-5.01953 6.17839,-4.99349 6.23047,-4.94141 C6.26953,-4.90234 6.29557,-4.85677 6.30859,-4.80469 C6.30859,-4.77865 6.29557,-4.73958 6.26953,-4.6875 L0.585938,1.91406 L3.92578,1.91406 L3.92578,-0.703125 C3.92578,-0.872396 3.97135,-1.01562 4.0625,-1.13281 C4.21875,-1.26302 4.34896,-1.34115 4.45312,-1.36719 C4.6224,-1.44531 4.83073,-1.6276 5.07812,-1.91406 C5.28646,-2.14844 5.53385,-2.55859 5.82031,-3.14453 C5.85938,-3.22266 5.91797,-3.26172 5.99609,-3.26172 C6.15234,-3.26172 6.24349,-3.17057 6.26953,-2.98828 L6.26953,1.91406 L7.69531,1.91406 C7.8776,1.91406 7.98177,2.01172 8.00781,2.20703 C8.00781,2.40234 7.90365,2.5 7.69531,2.5 L6.26953,2.5 L6.26953,2.65625 C6.26953,3.17708 6.39974,3.61979 6.66016,3.98438 C6.95964,4.34896 7.3112,4.53125 7.71484,4.53125 C7.87109,4.53125 7.94922,4.60938 7.94922,4.76562 C7.94922,4.92188 7.87109,5 7.71484,5 C7.44141,5 6.9987,4.96094 6.38672,4.88281 C5.82682,4.79167 5.39062,4.74609 5.07812,4.74609 C4.7526,4.74609 4.31641,4.79167 3.76953,4.88281 C3.18359,4.96094 2.7474,5 2.46094,5 C2.30469,5 2.22656,4.92188 2.22656,4.76562 C2.22656,4.60938 2.30469,4.53125 2.46094,4.53125 C2.86458,4.53125 3.21615,4.34896 3.51562,3.98438 C3.78906,3.61979 3.92578,3.17708 3.92578,2.65625 L3.92578,2.5 L0.585938,2.5 C0.364583,2.5 0.208333,2.44792 0.117188,2.34375 C0.0130208,2.26562 -0.0390625,2.16146 -0.0390625,2.03125 C-0.0390625,1.99219 0.0585938,1.85547 0.253906,1.62109 C0.47526,1.36068 0.709635,1.04167 0.957031,0.664062 C1.24349,0.221354 1.51693,-0.234375 1.77734,-0.703125 C2.0638,-1.23698 2.29167,-1.84896 2.46094,-2.53906 C2.65625,-3.24219 2.75391,-3.95833 2.75391,-4.6875 C2.75391,-4.89583 2.84505,-5 3.02734,-5 C3.06641,-5 3.15104,-4.98047 3.28125,-4.94141 C3.32031,-4.92839 3.40169,-4.90885 3.52539,-4.88281 C3.64909,-4.85677 3.75,-4.83073 3.82812,-4.80469 C4.0625,-4.76562 4.28385,-4.74609 4.49219,-4.74609"/>
<path class="TimeSig" transform="matrix(0.850394,0,0,0.850394,52.3311,12.934)" d="M5.25391,-0.292969 C5.25391,-0.16276 5.32552,-0.0390625 5.46875,0.078125 C5.67708,0.234375 5.83984,0.351562 5.95703,0.429688 C6.11328,0.520833 6.27604,0.729167 6.44531,1.05469 C6.58854,1.36719 6.66016,1.7513 6.66016,2.20703 C6.66016,3.10547 6.32812,3.79557 5.66406,4.27734 C4.98698,4.75911 4.1276,5 3.08594,5 C2.23958,5 1.52344,4.79167 0.9375,4.375 C0.3125,3.98438 0,3.4375 0,2.73438 C0,2.39583 0.130208,2.08333 0.390625,1.79688 C0.664062,1.54948 0.976562,1.42578 1.32812,1.42578 C1.69271,1.42578 1.99219,1.55599 2.22656,1.81641 C2.48698,2.0638 2.61719,2.36979 2.61719,2.73438 C2.61719,2.90365 2.48698,3.08594 2.22656,3.28125 C1.95312,3.46354 1.81641,3.63932 1.81641,3.80859 C1.81641,4.05599 1.9401,4.23828 2.1875,4.35547 C2.44792,4.47266 2.7474,4.53125 3.08594,4.53125 C3.54167,4.53125 3.86719,4.3099 4.0625,3.86719 C4.24479,3.38542 4.33594,2.83203 4.33594,2.20703 L4.33594,1.875 C4.33594,1.4974 4.32292,1.16536 4.29688,0.878906 C4.27083,0.657552 4.17969,0.455729 4.02344,0.273438 C3.88021,0.0911458 3.65234,0 3.33984,0 L1.73828,0 C1.55599,0 1.46484,-0.0976562 1.46484,-0.292969 C1.46484,-0.46224 1.55599,-0.559896 1.73828,-0.585938 L3.33984,-0.585938 C3.70443,-0.585938 3.96484,-0.703125 4.12109,-0.9375 C4.2513,-1.11979 4.32292,-1.44531 4.33594,-1.91406 L4.33594,-2.55859 L4.33594,-2.71484 C4.33594,-3.92578 3.89323,-4.53125 3.00781,-4.53125 C2.22656,-4.53125 1.82943,-4.31641 1.81641,-3.88672 C1.81641,-3.74349 1.9401,-3.58724 2.1875,-3.41797 C2.42188,-3.2487 2.53906,-3.09245 2.53906,-2.94922 C2.53906,-2.6237 2.42188,-2.34375 2.1875,-2.10938 C1.96615,-1.88802 1.69271,-1.77734 1.36719,-1.77734 C1.05469,-1.77734 0.78776,-1.88802 0.566406,-2.10938 C0.345052,-2.35677 0.234375,-2.63672 0.234375,-2.94922 C0.234375,-3.5612 0.507812,-4.0625 1.05469,-4.45312 C1.6276,-4.81771 2.27865,-5 3.00781,-5 C3.98438,-5 4.79167,-4.8112 5.42969,-4.43359 C6.06771,-4.06901 6.38672,-3.49609 6.38672,-2.71484 C6.38672,-2.15495 6.32812,-1.73177 6.21094,-1.44531 C6.09375,-1.14583 5.96354,-0.963542 5.82031,-0.898438 C5.66406,-0.833333 5.53385,-0.755208 5.42969,-0.664062 C5.3125,-0.559896 5.25391,-0.436198 5.25391,-0.292969"/>
<path class="TimeSig" transform="matrix(0.850394,0,0,0.850394,51.7332,21.4379)" d="M4.49219,-4.74609 C4.88281,-4.74609 5.21484,-4.79167 5.48828,-4.88281 C5.76172,-4.97396 5.9375,-5.01953 6.01562,-5.01953 C6.10677,-5.01953 6.17839,-4.99349 6.23047,-4.94141 C6.26953,-4.90234 6.29557,-4.85677 6.30859,-4.80469 C6.30859,-4.77865 6.29557,-4.73958 6.26953,-4.6875 L0.585938,1.91406 L3.92578,1.91406 L3.92578,-0.703125 C3.92578,-0.872396 3.97135,-1.01562 4.0625,-1.13281 C4.21875,-1.26302 4.34896,-1.34115 4.45312,-1.36719 C4.6224,-1.44531 4.83073,-1.6276 5.07812,-1.91406 C5.28646,-2.14844 5.53385,-2.55859 5.82031,-3.14453 C5.85938,-3.22266 5.91797,-3.26172 5.99609,-3.26172 C6.15234,-3.26172 6.24349,-3.17057 6.26953,-2.98828 L6.26953,1.91406 L7.69531,1.91406 C7.8776,1.91406 7.98177,2.01172 8.00781,2.20703 C8.00781,2.40234 7.90365,2.5 7.69531,2.5 L6.26953,2.5 L6.26953,2.65625 C6.26953,3.17708 6.39974,3.61979 6.66016,3.98438 C6.95964,4.34896 7.3112,4.53125 7.71484,4.53125 C7.87109,4.53125 7.94922,4.60938 7.94922,4.76562 C7.94922,4.92188 7.87109,5 7.71484,5 C7.44141,5 6.9987,4.96094 6.38672,4.88281 C5.82682,4.79167 5.39062,4.74609 5.07812,4.74609 C4.7526,4.74609 4.31641,4.79167 3.76953,4.88281 C3.18359,4.96094 2.7474,5 2.46094,5 C2.30469,5 2.22656,4.92188 2.22656,4.76562 C2.22656,4.60938 2.30469,4.53125 2.46094,4.53125 C2.86458,4.53125 3.21615,4.34896 3.51562,3.98438 C3.78906,3.61979 3.92578,3.17708 3.92578,2.65625 L3.92578,2.5 L0.585938,2.5 C0.364583,2.5 0.208333,2.44792 0.117188,2.34375 C0.0130208,2.26562 -0.0390625,2.16146 -0.0390625,2.03125 C-0.0390625,1.99219 0.0585938,1.85547 0.253906,1.62109 C0.47526,1.36068 0.709635,1.04167 0.957031,0.664062 C1.24349,0.221354 1.51693,-0.234375 1.77734,-0.703125 C2.0638,-1.23698 2.29167,-1.84896 2.46094,-2.53906 C2.65625,-3.24219 2.75391,-3.95833 2.75391,-4.6875 C2.75391,-4.89583 2.84505,-5 3.02734,-5 C3.06641,-5 3.15104,-4.98047 3.28125,-4.94141 C3.32031,-4.92839 3.40169,-4.90885 3.52539,-4.88281 C3.64909,-4.85677 3.75,-4.83073 3.82812,-4.80469 C4.0625,-4.76562 4.28385,-4.74609 4.49219,-4.74609"/>
<path class="Rest" transform="matrix(0.850394,0,0,0.850394,377.58,17.1859)" d="M-0.117188,-1.5625 C-0.117188,-1.79688 0.0130208,-2.05729 0.273438,-2.34375 C0.46875,-2.55208 0.755208,-2.79948 1.13281,-3.08594 C1.41927,-3.28125 1.69922,-3.57422 1.97266,-3.96484 C2.23307,-4.34245 2.36328,-4.7526 2.36328,-5.19531 C2.36328,-5.71615 2.19401,-6.17839 1.85547,-6.58203 L1.15234,-7.42188 C1.10026,-7.47396 1.07422,-7.53906 1.07422,-7.61719 C1.07422,-7.69531 1.11328,-7.76693 1.19141,-7.83203 C1.28255,-7.89714 1.36068,-7.92969 1.42578,-7.92969 C1.51693,-7.92969 1.58854,-7.89062 1.64062,-7.8125 L4.66797,-4.21875 C4.79818,-4.04948 4.86328,-3.88021 4.86328,-3.71094 C4.86328,-3.47656 4.73307,-3.21615 4.47266,-2.92969 C4.30339,-2.7474 4.02344,-2.5 3.63281,-2.1875 C3.33333,-2.00521 3.04688,-1.71224 2.77344,-1.30859 C2.51302,-0.93099 2.38281,-0.520833 2.38281,-0.078125 C2.38281,0.46875 2.53906,0.93099 2.85156,1.30859 L4.53125,3.28125 C4.57031,3.32031 4.60286,3.38542 4.62891,3.47656 C4.62891,3.56771 4.59635,3.64583 4.53125,3.71094 C4.4401,3.77604 4.36198,3.80859 4.29688,3.80859 C4.27083,3.80859 4.16667,3.73698 3.98438,3.59375 C3.78906,3.4375 3.52865,3.28776 3.20312,3.14453 C2.83854,3.0013 2.48047,2.92969 2.12891,2.92969 C1.80339,2.92969 1.53646,3.02083 1.32812,3.20312 C1.14583,3.38542 1.05469,3.73698 1.05469,4.25781 C1.05469,5.05208 1.24349,5.67708 1.62109,6.13281 C1.66016,6.1849 1.66667,6.25 1.64062,6.32812 C1.61458,6.38021 1.56901,6.40625 1.50391,6.40625 C1.41276,6.40625 1.21094,6.17188 0.898438,5.70312 C0.572917,5.20833 0.266927,4.64193 -0.0195312,4.00391 C-0.31901,3.32682 -0.46875,2.76693 -0.46875,2.32422 C-0.46875,1.76432 -0.201823,1.48438 0.332031,1.48438 C0.94401,1.48438 1.73828,1.69271 2.71484,2.10938 L0.078125,-1.05469 C-0.0520833,-1.22396 -0.117188,-1.39323 -0.117188,-1.5625"/>
<path class="Rest" transform="matrix(0.850394,0,0,0.850394,273.213,17.1859)" d="M-0.117188,-1.5625 C-0.117188,-1.79688 0.0130208,-2.05729 0.273438,-2.34375 C0.46875,-2.55208 0.755208,-2.79948 1.13281,-3.08594 C1.41927,-3.28125 1.69922,-3.57422 1.97266,-3.96484 C2.23307,-4.34245 2.36328,-4.7526 2.36328,-5.19531 C2.36328,-5.71615 2.19401,-6.17839 1.85547,-6.58203 L1.15234,-7.42188 C1.10026,-7.47396 1.07422,-7.53906 1.07422,-7.61719 C1.07422,-7.69531 1.11328,-7.76693 1.19141,-7.83203 C1.28255,-7.89714 1.36068,-7.92969 1.42578,-7.92969 C1.51693,-7.92969 1.58854,-7.89062 1.64062,-7.8125 L4.66797,-4.21875 C4.79818,-4.04948 4.86328,-3.88021 4.86328,-3.71094 C4.86328,-3.47656 4.73307,-3.21615 4.47266,-2.92969 C4.30339,-2.7474 4.02344,-2.5 3.63281,-2.1875 C3.33333,-2.00521 3.04688,-1.71224 2.77344,-1.30859 C2.51302,-0.93099 2.38281,-0.520833 2.38281,-0.078125 C2.38281,0.46875 2.53906,0.93099 2.85156,1.30859 L4.53125,3.28125 C4.57031,3.32031 4.60286,3.38542 4.62891,3.47656 C4.62891,3.56771 4.59635,3.64583 4.53125,3.71094 C4.4401,3.77604 4.36198,3.80859 4.29688,3.80859 C4.27083,3.80859 4.16667,3.73698 3.98438,3.59375 C3.78906,3.4375 3.52865,3.28776 3.20312,3.14453 C2.83854,3.0013 2.48047,2.92969 2.12891,2.92969 C1.80339,2.92969 1.53646,3.02083 1.32812,3.20312 C1.14583,3.38542 1.05469,3.73698 1.05469,4.25781 C1.05469,5.05208 1.24349,5.67708 1.62109,6.13281 C1.66016,6.1849 1.66667,6.25 1.64062,6.32812 C1.61458,6.38021 1.56901,6.40625 1.50391,6.40625 C1.41276,6.40625 1.21094,6.17188 0.898438,5.70312 C0.572917,5.20833 0.266927,4.64193 -0.0195312,4.00391 C-0.31901,3.32682 -0.46875,2.76693 -0.46875,2.32422 C-0.46875,1.76432 -0.201823,1.48438 0.332031,1.48438 C0.94401,1.48438 1.73828,1.69271 2.71484,2.10938 L0.078125,-1.05469 C-0.0520833,-1.22396 -0.117188,-1.39323 -0.117188,-1.5625"/>
<path class="Rest" transform="matrix(0.850394,0,0,0.850394,166.89,17.1859)" d="M-0.117188,-1.5625 C-0.117188,-1.79688 0.0130208,-2.05729 0.273438,-2.34375 C0.46875,-2.55208 0.755208,-2.79948 1.13281,-3.08594 C1.41927,-3.28125 1.69922,-3.57422 1.97266,-3.96484 C2.23307,-4.34245 2.36328,-4.7526 2.36328,-5.19531 C2.36328,-5.71615 2.19401,-6.17839 1.85547,-6.58203 L1.15234,-7.42188 C1.10026,-7.47396 1.07422,-7.53906 1.07422,-7.61719 C1.07422,-7.69531 1.11328,-7.76693 1.19141,-7.83203 C1.28255,-7.89714 1.36068,-7.92969 1.42578,-7.92969 C1.51693,-7.92969 1.58854,-7.89062 1.64062,-7.8125 L4.66797,-4.21875 C4.79818,-4.04948 4.86328,-3.88021 4.86328,-3.71094 C4.86328,-3.47656 4.73307,-3.21615 4.47266,-2.92969 C4.30339,-2.7474 4.02344,-2.5 3.63281,-2.1875 C3.33333,-2.00521 3.04688,-1.71224 2.77344,-1.30859 C2.51302,-0.93099 2.38281,-0.520833 2.38281,-0.078125 C2.38281,0.46875 2.53906,0.93099 2.85156,1.30859 L4.53125,3.28125 C4.57031,3.32031 4.60286,3.38542 4.62891,3.47656 C4.62891,3.56771 4.59635,3.64583 4.53125,3.71094 C4.4401,3.77604 4.36198,3.80859 4.29688,3.80859 C4.27083,3.80859 4.16667,3.73698 3.98438,3.59375 C3.78906,3.4375 3.52865,3.28776 3.20312,3.14453 C2.83854,3.0013 2.48047,2.92969 2.12891,2.92969 C1.80339,2.92969 1.53646,3.02083 1.32812,3.20312 C1.14583,3.38542 1.05469,3.73698 1.05469,4.25781 C1.05469,5.05208 1.24349,5.67708 1.62109,6.13281 C1.66016,6.1849 1.66667,6.25 1.64062,6.32812 C1.61458,6.38021 1.56901,6.40625 1.50391,6.40625 C1.41276,6.40625 1.21094,6.17188 0.898438,5.70312 C0.572917,5.20833 0.266927,4.64193 -0.0195312,4.00391 C-0.31901,3.32682 -0.46875,2.76693 -0.46875,2.32422 C-0.46875,1.76432 -0.201823,1.48438 0.332031,1.48438 C0.94401,1.48438 1.73828,1.69271 2.71484,2.10938 L0.078125,-1.05469 C-0.0520833,-1.22396 -0.117188,-1.39323 -0.117188,-1.5625"/>
<path class="Rest" transform="matrix(0.850394,0,0,0.850394,66.3759,17.1859)" d="M-0.117188,-1.5625 C-0.117188,-1.79688 0.0130208,-2.05729 0.273438,-2.34375 C0.46875,-2.55208 0.755208,-2.79948 1.13281,-3.08594 C1.41927,-3.28125 1.69922,-3.57422 1.97266,-3.96484 C2.23307,-4.34245 2.36328,-4.7526 2.36328,-5.19531 C2.36328,-5.71615 2.19401,-6.17839 1.85547,-6.58203 L1.15234,-7.42188 C1.10026,-7.47396 1.07422,-7.53906 1.07422,-7.61719 C1.07422,-7.69531 1.11328,-7.76693 1.19141,-7.83203 C1.28255,-7.89714 1.36068,-7.92969 1.42578,-7.92969 C1.51693,-7.92969 1.58854,-7.89062 1.64062,-7.8125 L4.66797,-4.21875 C4.79818,-4.04948 4.86328,-3.88021 4.86328,-3.71094 C4.86328,-3.47656 4.73307,-3.21615 4.47266,-2.92969 C4.30339,-2.7474 4.02344,-2.5 3.63281,-2.1875 C3.33333,-2.00521 3.04688,-1.71224 2.77344,-1.30859 C2.51302,-0.93099 2.38281,-0.520833 2.38281,-0.078125 C2.38281,0.46875 2.53906,0.93099 2.85156,1.30859 L4.53125,3.28125 C4.57031,3.32031 4.60286,3.38542 4.62891,3.47656 C4.62891,3.56771 4.59635,3.64583 4.53125,3.71094 C4.4401,3.77604 4.36198,3.80859 4.29688,3.80859 C4.27083,3.80859 4.16667,3.73698 3.98438,3.59375 C3.78906,3.4375 3.52865,3.28776 3.20312,3.14453 C2.83854,3.0013 2.48047,2.92969 2.12891,2.92969 C1.80339,2.92969 1.53646,3.02083 1.32812,3.20312 C1.14583,3.38542 1.05469,3.73698 1.05469,4.25781 C1.05469,5.05208 1.24349,5.67708 1.62109,6.13281 C1.66016,6.1849 1.66667,6.25 1.64062,6.32812 C1.61458,6.38021 1.56901,6.40625 1.50391,6.40625 C1.41276,6.40625 1.21094,6.17188 0.898438,5.70312 C0.572917,5.20833 0.266927,4.64193 -0.0195312,4.00391 C-0.31901,3.32682 -0.46875,2.76693 -0.46875,2.32422 C-0.46875,1.76432 -0.201823,1.48438 0.332031,1.48438 C0.94401,1.48438 1.73828,1.69271 2.71484,2.10938 L0.078125,-1.05469 C-0.0520833,-1.22396 -0.117188,-1.39323 -0.117188,-1.5625"/>
<path class="NoteDot" transform="matrix(0.850394,0,0,0.850394,384.82,74.5875)" d="M0.332031,0.800781 C0.110677,0.579427 0,0.3125 0,0 C0,-0.3125 0.110677,-0.579427 0.332031,-0.800781 C0.553385,-1.02214 0.820312,-1.13281 1.13281,-1.13281 C1.44531,-1.13281 1.71224,-1.02214 1.93359,-0.800781 C2.15495,-0.579427 2.26562,-0.3125 2.26562,0 C2.26562,0.3125 2.15495,0.579427 1.93359,0.800781 C1.71224,1.02214 1.44531,1.13281 1.13281,1.13281 C0.820312,1.13281 0.553385,1.02214 0.332031,0.800781"/>
<path class="NoteDot" transform="matrix(0.850394,0,0,0.850394,280.453,70.3355)" d="M0.332031,0.800781 C0.110677,0.579427 0,0.3125 0,0 C0,-0.3125 0.110677,-0.579427 0.332031,-0.800781 C0.553385,-1.02214 0.820312,-1.13281 1.13281,-1.13281 C1.44531,-1.13281 1.71224,-1.02214 1.93359,-0.800781 C2.15495,-0.579427 2.26562,-0.3125 2.26562,0 C2.26562,0.3125 2.15495,0.579427 1.93359,0.800781 C1.71224,1.02214 1.44531,1.13281 1.13281,1.13281 C0.820312,1.13281 0.553385,1.02214 0.332031,0.800781"/>
<path class="NoteDot" transform="matrix(0.850394,0,0,0.850394,174.129,70.3355)" d="M0.332031,0.800781 C0.110677,0.579427 0,0.3125 0,0 C0,-0.3125 0.110677,-0.579427 0.332031,-0.800781 C0.553385,-1.02214 0.820312,-1.13281 1.13281,-1.13281 C1.44531,-1.13281 1.71224,-1.02214 1.93359,-0.800781 C2.15495,-0.579427 2.26562,-0.3125 2.26562,0 C2.26562,0.3125 2.15495,0.579427 1.93359,0.800781 C1.71224,1.02214 1.44531,1.13281 1.13281,1.13281 C0.820312,1.13281 0.553385,1.02214 0.332031,0.800781"/>
<path class="NoteDot" transform="matrix(0.850394,0,0,0.850394,73.6155,66.0836)" d="M0.332031,0.800781 C0.110677,0.579427 0,0.3125 0,0 C0,-0.3125 0.110677,-0.579427 0.332031,-0.800781 C0.553385,-1.02214 0.820312,-1.13281 1.13281,-1.13281 C1.44531,-1.13281 1.71224,-1.02214 1.93359,-0.800781 C2.15495,-0.579427 2.26562,-0.3125 2.26562,0 C2.26562,0.3125 2.15495,0.579427 1.93359,0.800781 C1.71224,1.02214 1.44531,1.13281 1.13281,1.13281 C0.820312,1.13281 0.553385,1.02214 0.332031,0.800781"/>
<path class="Bracket" fill-rule="evenodd" d="M5.36477,28.3476 C5.36477,23.8945 1.94376,19.5658 1.94376,15.2995 C1.94376,13.1507 2.87676,11.0643 5.75352,9.19582 C5.7924,9.17246 5.81183,9.13354 5.81183,9.11018 C5.81183,9.04011 5.59802,8.97783 5.44252,8.97783 C5.36477,8.97783 5.22871,8.98561 5.13152,9.04011 C1.39951,11.438 0.155501,14.2095 0.155501,17.0123 C0.155501,21.5277 3.80976,25.8875 3.80976,30.2161 C3.80976,32.3649 2.87676,34.389 1.39888e-14,36.2575 L1.39888e-14,36.3198 L1.39888e-14,36.3821 C2.87676,38.2505 3.80976,40.2747 3.80976,42.4235 C3.80976,46.7521 0.155501,51.1118 0.155501,55.6273 C0.155501,58.43 1.39951,61.2016 5.13152,63.5995 C5.22871,63.654 5.36477,63.6617 5.44252,63.6617 C5.59802,63.6617 5.81183,63.5995 5.81183,63.5294 C5.81183,63.506 5.7924,63.4671 5.75352,63.4437 C2.87676,61.5753 1.94376,59.4888 1.94376,57.3401 C1.94376,53.0737 5.36477,48.7451 5.36477,44.2919 C5.36477,41.4581 4.12076,38.7488 0.466502,36.3198 C4.12076,33.8908 5.36477,31.1815 5.36477,28.3476"/>
</svg>
