<?xml version="1.0" encoding="UTF-8" standalone="no"?>
<svg width="480.273px" height="79.0946px" viewBox="0 0 480.273 79.0946"
 xmlns="http://www.w3.org/2000/svg" xmlns:xlink="http://www.w3.org/1999/xlink" version="1.2" baseProfile="tiny">
<title>Szamba</title>
<desc>Generated by MuseScore 2.3.2</desc>
<polyline class="StaffLines" fill="none" stroke="#000000" stroke-width="0.34" stroke-linejoin="bevel" points="7.14331,8.68199 480.273,8.68199"/>
<polyline class="StaffLines" fill="none" stroke="#000000" stroke-width="0.34" stroke-linejoin="bevel" points="7.14331,12.934 480.273,12.934"/>
<polyline class="StaffLines" fill="none" stroke="#000000" stroke-width="0.34" stroke-linejoin="bevel" points="7.14331,17.1859 480.273,17.1859"/>
<polyline class="StaffLines" fill="none" stroke="#000000" stroke-width="0.34" stroke-linejoin="bevel" points="7.14331,21.4379 480.273,21.4379"/>
<polyline class="StaffLines" fill="none" stroke="#000000" stroke-width="0.34" stroke-linejoin="bevel" points="7.14331,25.6899 480.273,25.6899"/>
<polyline class="StaffLines" fill="none" stroke="#000000" stroke-width="0.34" stroke-linejoin="bevel" points="7.14331,46.9497 480.273,46.9497"/>
<polyline class="StaffLines" fill="none" stroke="#000000" stroke-width="0.34" stroke-linejoin="bevel" points="7.14331,51.2017 480.273,51.2017"/>
<polyline class="StaffLines" fill="none" stroke="#000000" stroke-width="0.34" stroke-linejoin="bevel" points="7.14331,55.4536 480.273,55.4536"/>
<polyline class="StaffLines" fill="none" stroke="#000000" stroke-width="0.34" stroke-linejoin="bevel" points="7.14331,59.7056 480.273,59.7056"/>
<polyline class="StaffLines" fill="none" stroke="#000000" stroke-width="0.34" stroke-linejoin="bevel" points="7.14331,63.9576 480.273,63.9576"/>
<polyline class="BarLine" fill="none" stroke="#000000" stroke-width="0.68" stroke-linejoin="bevel" points="7.48346,8.68199 7.48346,63.9576"/>
<polyline class="BarLine" fill="none" stroke="#000000" stroke-width="0.68" stroke-linejoin="bevel" points="476.106,8.68199 476.106,63.9576"/>
<polyline class="BarLine" fill="none" stroke="#000000" stroke-width="2.13" stroke-linejoin="bevel" points="479.21,8.68199 479.21,63.9576"/>
<polyline class="BarLine" fill="none" stroke="#000000" stroke-width="0.68" stroke-linejoin="bevel" points="265.516,8.68199 265.516,63.9576"/>
<polyline class="BarLine" fill="none" stroke="#000000" stroke-width="0.68" stroke-linejoin="bevel" points="267.471,8.68199 267.471,63.9576"/>
<polyline class="LedgerLine" fill="none" stroke="#000000" stroke-width="0.68" stroke-linecap="square" stroke-linejoin="bevel" points="449.145,4.43002 457.294,4.43002"/>
<polyline class="LedgerLine" fill="none" stroke="#000000" stroke-width="0.68" stroke-linecap="square" stroke-linejoin="bevel" points="423.799,68.2095 431.948,68.2095"/>
<polyline class="LedgerLine" fill="none" stroke="#000000" stroke-width="0.68" stroke-linecap="square" stroke-linejoin="bevel" points="423.799,72.4615 431.948,72.4615"/>
<polyline class="LedgerLine" fill="none" stroke="#000000" stroke-width="0.68" stroke-linecap="square" stroke-linejoin="bevel" points="423.799,76.7135 431.948,76.7135"/>
<polyline class="LedgerLine" fill="none" stroke="#000000" stroke-width="0.68" stroke-linecap="square" stroke-linejoin="bevel" points="398.453,4.43002 406.602,4.43002"/>
<polyline class="LedgerLine" fill="none" stroke="#000000" stroke-width="0.68" stroke-linecap="square" stroke-linejoin="bevel" points="373.107,4.43002 381.256,4.43002"/>
<polyline class="LedgerLine" fill="none" stroke="#000000" stroke-width="0.68" stroke-linecap="square" stroke-linejoin="bevel" points="322.415,4.43002 330.564,4.43002"/>
<polyline class="LedgerLine" fill="none" stroke="#000000" stroke-width="0.68" stroke-linecap="square" stroke-linejoin="bevel" points="297.069,4.43002 305.218,4.43002"/>
<polyline class="LedgerLine" fill="none" stroke="#000000" stroke-width="0.68" stroke-linecap="square" stroke-linejoin="bevel" points="271.723,68.2095 279.873,68.2095"/>
<polyline class="LedgerLine" fill="none" stroke="#000000" stroke-width="0.68" stroke-linecap="square" stroke-linejoin="bevel" points="234.03,4.43002 247.224,4.43002"/>
<polyline class="LedgerLine" fill="none" stroke="#000000" stroke-width="0.68" stroke-linecap="square" stroke-linejoin="bevel" points="214.25,68.2095 222.399,68.2095"/>
<polyline class="LedgerLine" fill="none" stroke="#000000" stroke-width="0.68" stroke-linecap="square" stroke-linejoin="bevel" points="214.25,72.4615 222.399,72.4615"/>
<polyline class="LedgerLine" fill="none" stroke="#000000" stroke-width="0.68" stroke-linecap="square" stroke-linejoin="bevel" points="184.379,4.43002 197.574,4.43002"/>
<polyline class="LedgerLine" fill="none" stroke="#000000" stroke-width="0.68" stroke-linecap="square" stroke-linejoin="bevel" points="159.554,4.43002 172.749,4.43002"/>
<polyline class="LedgerLine" fill="none" stroke="#000000" stroke-width="0.68" stroke-linecap="square" stroke-linejoin="bevel" points="109.904,4.43002 123.099,4.43002"/>
<polyline class="LedgerLine" fill="none" stroke="#000000" stroke-width="0.68" stroke-linecap="square" stroke-linejoin="bevel" points="85.0794,4.43002 98.2738,4.43002"/>
<polyline class="Stem" fill="none" stroke="#000000" stroke-width="0.55" stroke-linecap="round" stroke-linejoin="bevel" points="450.697,5.2286 450.697,27.8158"/>
<polyline class="Stem" fill="none" stroke="#000000" stroke-width="0.55" stroke-linecap="round" stroke-linejoin="bevel" points="430.396,75.9149 430.396,55.4536"/>
<polyline class="Stem" fill="none" stroke="#000000" stroke-width="0.55" stroke-linecap="round" stroke-linejoin="bevel" points="400.005,5.2286 400.005,25.6899"/>
<polyline class="Stem" fill="none" stroke="#000000" stroke-width="0.55" stroke-linecap="round" stroke-linejoin="bevel" points="374.659,5.2286 374.659,25.6899"/>
<polyline class="Stem" fill="none" stroke="#000000" stroke-width="0.55" stroke-linecap="round" stroke-linejoin="bevel" points="354.358,61.033 354.358,46.9497"/>
<polyline class="Stem" fill="none" stroke="#000000" stroke-width="0.55" stroke-linecap="round" stroke-linejoin="bevel" points="323.967,5.2286 323.967,25.6899"/>
<polyline class="Stem" fill="none" stroke="#000000" stroke-width="0.55" stroke-linecap="round" stroke-linejoin="bevel" points="298.621,5.2286 298.621,25.6899"/>
<polyline class="Stem" fill="none" stroke="#000000" stroke-width="0.55" stroke-linecap="round" stroke-linejoin="bevel" points="278.321,69.537 278.321,55.4536"/>
<polyline class="Stem" fill="none" stroke="#000000" stroke-width="0.55" stroke-linecap="round" stroke-linejoin="bevel" points="240.627,3.10261 240.627,25.6899"/>
<polyline class="Stem" fill="none" stroke="#000000" stroke-width="0.55" stroke-linecap="round" stroke-linejoin="bevel" points="220.847,71.6629 220.847,55.4536"/>
<polyline class="Stem" fill="none" stroke="#000000" stroke-width="0.55" stroke-linecap="round" stroke-linejoin="bevel" points="190.977,3.10261 190.977,24.6269"/>
<polyline class="Stem" fill="none" stroke="#000000" stroke-width="0.55" stroke-linecap="round" stroke-linejoin="bevel" points="166.152,3.10261 166.152,24.6269"/>
<polyline class="Stem" fill="none" stroke="#000000" stroke-width="0.55" stroke-linecap="round" stroke-linejoin="bevel" points="146.372,56.781 146.372,43.7607"/>
<polyline class="Stem" fill="none" stroke="#000000" stroke-width="0.55" stroke-linecap="round" stroke-linejoin="bevel" points="116.502,3.10261 116.502,24.6269"/>
<polyline class="Stem" fill="none" stroke="#000000" stroke-width="0.55" stroke-linecap="round" stroke-linejoin="bevel" points="91.6766,3.10261 91.6766,24.6269"/>
<polyline class="Stem" fill="none" stroke="#000000" stroke-width="0.55" stroke-linecap="round" stroke-linejoin="bevel" points="71.8968,65.285 71.8968,51.2017"/>
<path class="Note" transform="matrix(0.850394,0,0,0.850394,450.42,4.43002)" d="M4.39453,-2.75391 C5.01953,-2.75391 5.54688,-2.59115 5.97656,-2.26562 C6.38021,-1.91406 6.58203,-1.47135 6.58203,-0.9375 C6.58203,-0.0390625 6.11979,0.800781 5.19531,1.58203 C4.25781,2.36328 3.25521,2.75391 2.1875,2.75391 C1.5625,2.75391 1.03516,2.59115 0.605469,2.26562 C0.201823,1.91406 0,1.47135 0,0.9375 C0,0.0390625 0.46875,-0.800781 1.40625,-1.58203 C2.31771,-2.36328 3.3138,-2.75391 4.39453,-2.75391"/>
<path class="Note" transform="matrix(0.850394,0,0,0.850394,450.42,8.68199)" d="M4.39453,-2.75391 C5.01953,-2.75391 5.54688,-2.59115 5.97656,-2.26562 C6.38021,-1.91406 6.58203,-1.47135 6.58203,-0.9375 C6.58203,-0.0390625 6.11979,0.800781 5.19531,1.58203 C4.25781,2.36328 3.25521,2.75391 2.1875,2.75391 C1.5625,2.75391 1.03516,2.59115 0.605469,2.26562 C0.201823,1.91406 0,1.47135 0,0.9375 C0,0.0390625 0.46875,-0.800781 1.40625,-1.58203 C2.31771,-2.36328 3.3138,-2.75391 4.39453,-2.75391"/>
<path class="Note" transform="matrix(0.850394,0,0,0.850394,445.375,10.808)" d="M4.39453,-2.75391 C5.01953,-2.75391 5.54688,-2.59115 5.97656,-2.26562 C6.38021,-1.91406 6.58203,-1.47135 6.58203,-0.9375 C6.58203,-0.0390625 6.11979,0.800781 5.19531,1.58203 C4.25781,2.36328 3.25521,2.75391 2.1875,2.75391 C1.5625,2.75391 1.03516,2.59115 0.605469,2.26562 C0.201823,1.91406 0,1.47135 0,0.9375 C0,0.0390625 0.46875,-0.800781 1.40625,-1.58203 C2.31771,-2.36328 3.3138,-2.75391 4.39453,-2.75391"/>
<path class="Note" transform="matrix(0.850394,0,0,0.850394,450.42,12.934)" d="M4.39453,-2.75391 C5.01953,-2.75391 5.54688,-2.59115 5.97656,-2.26562 C6.38021,-1.91406 6.58203,-1.47135 6.58203,-0.9375 C6.58203,-0.0390625 6.11979,0.800781 5.19531,1.58203 C4.25781,2.36328 3.25521,2.75391 2.1875,2.75391 C1.5625,2.75391 1.03516,2.59115 0.605469,2.26562 C0.201823,1.91406 0,1.47135 0,0.9375 C0,0.0390625 0.46875,-0.800781 1.40625,-1.58203 C2.31771,-2.36328 3.3138,-2.75391 4.39453,-2.75391"/>
<path class="Note" transform="matrix(0.850394,0,0,0.850394,425.074,76.7135)" d="M4.39453,-2.75391 C5.01953,-2.75391 5.54688,-2.59115 5.97656,-2.26562 C6.38021,-1.91406 6.58203,-1.47135 6.58203,-0.9375 C6.58203,-0.0390625 6.11979,0.800781 5.19531,1.58203 C4.25781,2.36328 3.25521,2.75391 2.1875,2.75391 C1.5625,2.75391 1.03516,2.59115 0.605469,2.26562 C0.201823,1.91406 0,1.47135 0,0.9375 C0,0.0390625 0.46875,-0.800781 1.40625,-1.58203 C2.31771,-2.36328 3.3138,-2.75391 4.39453,-2.75391"/>
<path class="Note" transform="matrix(0.850394,0,0,0.850394,399.728,4.43002)" d="M4.39453,-2.75391 C5.01953,-2.75391 5.54688,-2.59115 5.97656,-2.26562 C6.38021,-1.91406 6.58203,-1.47135 6.58203,-0.9375 C6.58203,-0.0390625 6.11979,0.800781 5.19531,1.58203 C4.25781,2.36328 3.25521,2.75391 2.1875,2.75391 C1.5625,2.75391 1.03516,2.59115 0.605469,2.26562 C0.201823,1.91406 0,1.47135 0,0.9375 C0,0.0390625 0.46875,-0.800781 1.40625,-1.58203 C2.31771,-2.36328 3.3138,-2.75391 4.39453,-2.75391"/>
<path class="Note" transform="matrix(0.850394,0,0,0.850394,399.728,8.68199)" d="M4.39453,-2.75391 C5.01953,-2.75391 5.54688,-2.59115 5.97656,-2.26562 C6.38021,-1.91406 6.58203,-1.47135 6.58203,-0.9375 C6.58203,-0.0390625 6.11979,0.800781 5.19531,1.58203 C4.25781,2.36328 3.25521,2.75391 2.1875,2.75391 C1.5625,2.75391 1.03516,2.59115 0.605469,2.26562 C0.201823,1.91406 0,1.47135 0,0.9375 C0,0.0390625 0.46875,-0.800781 1.40625,-1.58203 C2.31771,-2.36328 3.3138,-2.75391 4.39453,-2.75391"/>
<path class="Note" transform="matrix(0.850394,0,0,0.850394,394.683,10.808)" d="M4.39453,-2.75391 C5.01953,-2.75391 5.54688,-2.59115 5.97656,-2.26562 C6.38021,-1.91406 6.58203,-1.47135 6.58203,-0.9375 C6.58203,-0.0390625 6.11979,0.800781 5.19531,1.58203 C4.25781,2.36328 3.25521,2.75391 2.1875,2.75391 C1.5625,2.75391 1.03516,2.59115 0.605469,2.26562 C0.201823,1.91406 0,1.47135 0,0.9375 C0,0.0390625 0.46875,-0.800781 1.40625,-1.58203 C2.31771,-2.36328 3.3138,-2.75391 4.39453,-2.75391"/>
<path class="Note" transform="matrix(0.850394,0,0,0.850394,399.728,12.934)" d="M4.39453,-2.75391 C5.01953,-2.75391 5.54688,-2.59115 5.97656,-2.26562 C6.38021,-1.91406 6.58203,-1.47135 6.58203,-0.9375 C6.58203,-0.0390625 6.11979,0.800781 5.19531,1.58203 C4.25781,2.36328 3.25521,2.75391 2.1875,2.75391 C1.5625,2.75391 1.03516,2.59115 0.605469,2.26562 C0.201823,1.91406 0,1.47135 0,0.9375 C0,0.0390625 0.46875,-0.800781 1.40625,-1.58203 C2.31771,-2.36328 3.3138,-2.75391 4.39453,-2.75391"/>
<path class="Note" transform="matrix(0.850394,0,0,0.850394,374.383,4.43002)" d="M4.39453,-2.75391 C5.01953,-2.75391 5.54688,-2.59115 5.97656,-2.26562 C6.38021,-1.91406 6.58203,-1.47135 6.58203,-0.9375 C6.58203,-0.0390625 6.11979,0.800781 5.19531,1.58203 C4.25781,2.36328 3.25521,2.75391 2.1875,2.75391 C1.5625,2.75391 1.03516,2.59115 0.605469,2.26562 C0.201823,1.91406 0,1.47135 0,0.9375 C0,0.0390625 0.46875,-0.800781 1.40625,-1.58203 C2.31771,-2.36328 3.3138,-2.75391 4.39453,-2.75391"/>
<path class="Note" transform="matrix(0.850394,0,0,0.850394,374.383,8.68199)" d="M4.39453,-2.75391 C5.01953,-2.75391 5.54688,-2.59115 5.97656,-2.26562 C6.38021,-1.91406 6.58203,-1.47135 6.58203,-0.9375 C6.58203,-0.0390625 6.11979,0.800781 5.19531,1.58203 C4.25781,2.36328 3.25521,2.75391 2.1875,2.75391 C1.5625,2.75391 1.03516,2.59115 0.605469,2.26562 C0.201823,1.91406 0,1.47135 0,0.9375 C0,0.0390625 0.46875,-0.800781 1.40625,-1.58203 C2.31771,-2.36328 3.3138,-2.75391 4.39453,-2.75391"/>
<path class="Note" transform="matrix(0.850394,0,0,0.850394,369.337,10.808)" d="M4.39453,-2.75391 C5.01953,-2.75391 5.54688,-2.59115 5.97656,-2.26562 C6.38021,-1.91406 6.58203,-1.47135 6.58203,-0.9375 C6.58203,-0.0390625 6.11979,0.800781 5.19531,1.58203 C4.25781,2.36328 3.25521,2.75391 2.1875,2.75391 C1.5625,2.75391 1.03516,2.59115 0.605469,2.26562 C0.201823,1.91406 0,1.47135 0,0.9375 C0,0.0390625 0.46875,-0.800781 1.40625,-1.58203 C2.31771,-2.36328 3.3138,-2.75391 4.39453,-2.75391"/>
<path class="Note" transform="matrix(0.850394,0,0,0.850394,374.383,12.934)" d="M4.39453,-2.75391 C5.01953,-2.75391 5.54688,-2.59115 5.97656,-2.26562 C6.38021,-1.91406 6.58203,-1.47135 6.58203,-0.9375 C6.58203,-0.0390625 6.11979,0.800781 5.19531,1.58203 C4.25781,2.36328 3.25521,2.75391 2.1875,2.75391 C1.5625,2.75391 1.03516,2.59115 0.605469,2.26562 C0.201823,1.91406 0,1.47135 0,0.9375 C0,0.0390625 0.46875,-0.800781 1.40625,-1.58203 C2.31771,-2.36328 3.3138,-2.75391 4.39453,-2.75391"/>
<path class="Note" transform="matrix(0.850394,0,0,0.850394,349.037,61.8316)" d="M4.39453,-2.75391 C5.01953,-2.75391 5.54688,-2.59115 5.97656,-2.26562 C6.38021,-1.91406 6.58203,-1.47135 6.58203,-0.9375 C6.58203,-0.0390625 6.11979,0.800781 5.19531,1.58203 C4.25781,2.36328 3.25521,2.75391 2.1875,2.75391 C1.5625,2.75391 1.03516,2.59115 0.605469,2.26562 C0.201823,1.91406 0,1.47135 0,0.9375 C0,0.0390625 0.46875,-0.800781 1.40625,-1.58203 C2.31771,-2.36328 3.3138,-2.75391 4.39453,-2.75391"/>
<path class="Note" transform="matrix(0.850394,0,0,0.850394,323.691,4.43002)" d="M4.39453,-2.75391 C5.01953,-2.75391 5.54688,-2.59115 5.97656,-2.26562 C6.38021,-1.91406 6.58203,-1.47135 6.58203,-0.9375 C6.58203,-0.0390625 6.11979,0.800781 5.19531,1.58203 C4.25781,2.36328 3.25521,2.75391 2.1875,2.75391 C1.5625,2.75391 1.03516,2.59115 0.605469,2.26562 C0.201823,1.91406 0,1.47135 0,0.9375 C0,0.0390625 0.46875,-0.800781 1.40625,-1.58203 C2.31771,-2.36328 3.3138,-2.75391 4.39453,-2.75391"/>
<path class="Note" transform="matrix(0.850394,0,0,0.850394,323.691,8.68199)" d="M4.39453,-2.75391 C5.01953,-2.75391 5.54688,-2.59115 5.97656,-2.26562 C6.38021,-1.91406 6.58203,-1.47135 6.58203,-0.9375 C6.58203,-0.0390625 6.11979,0.800781 5.19531,1.58203 C4.25781,2.36328 3.25521,2.75391 2.1875,2.75391 C1.5625,2.75391 1.03516,2.59115 0.605469,2.26562 C0.201823,1.91406 0,1.47135 0,0.9375 C0,0.0390625 0.46875,-0.800781 1.40625,-1.58203 C2.31771,-2.36328 3.3138,-2.75391 4.39453,-2.75391"/>
<path class="Note" transform="matrix(0.850394,0,0,0.850394,318.646,10.808)" d="M4.39453,-2.75391 C5.01953,-2.75391 5.54688,-2.59115 5.97656,-2.26562 C6.38021,-1.91406 6.58203,-1.47135 6.58203,-0.9375 C6.58203,-0.0390625 6.11979,0.800781 5.19531,1.58203 C4.25781,2.36328 3.25521,2.75391 2.1875,2.75391 C1.5625,2.75391 1.03516,2.59115 0.605469,2.26562 C0.201823,1.91406 0,1.47135 0,0.9375 C0,0.0390625 0.46875,-0.800781 1.40625,-1.58203 C2.31771,-2.36328 3.3138,-2.75391 4.39453,-2.75391"/>
<path class="Note" transform="matrix(0.850394,0,0,0.850394,323.691,12.934)" d="M4.39453,-2.75391 C5.01953,-2.75391 5.54688,-2.59115 5.97656,-2.26562 C6.38021,-1.91406 6.58203,-1.47135 6.58203,-0.9375 C6.58203,-0.0390625 6.11979,0.800781 5.19531,1.58203 C4.25781,2.36328 3.25521,2.75391 2.1875,2.75391 C1.5625,2.75391 1.03516,2.59115 0.605469,2.26562 C0.201823,1.91406 0,1.47135 0,0.9375 C0,0.0390625 0.46875,-0.800781 1.40625,-1.58203 C2.31771,-2.36328 3.3138,-2.75391 4.39453,-2.75391"/>
<path class="Note" transform="matrix(0.850394,0,0,0.850394,298.345,4.43002)" d="M4.39453,-2.75391 C5.01953,-2.75391 5.54688,-2.59115 5.97656,-2.26562 C6.38021,-1.91406 6.58203,-1.47135 6.58203,-0.9375 C6.58203,-0.0390625 6.11979,0.800781 5.19531,1.58203 C4.25781,2.36328 3.25521,2.75391 2.1875,2.75391 C1.5625,2.75391 1.03516,2.59115 0.605469,2.26562 C0.201823,1.91406 0,1.47135 0,0.9375 C0,0.0390625 0.46875,-0.800781 1.40625,-1.58203 C2.31771,-2.36328 3.3138,-2.75391 4.39453,-2.75391"/>
<path class="Note" transform="matrix(0.850394,0,0,0.850394,298.345,8.68199)" d="M4.39453,-2.75391 C5.01953,-2.75391 5.54688,-2.59115 5.97656,-2.26562 C6.38021,-1.91406 6.58203,-1.47135 6.58203,-0.9375 C6.58203,-0.0390625 6.11979,0.800781 5.19531,1.58203 C4.25781,2.36328 3.25521,2.75391 2.1875,2.75391 C1.5625,2.75391 1.03516,2.59115 0.605469,2.26562 C0.201823,1.91406 0,1.47135 0,0.9375 C0,0.0390625 0.46875,-0.800781 1.40625,-1.58203 C2.31771,-2.36328 3.3138,-2.75391 4.39453,-2.75391"/>
<path class="Note" transform="matrix(0.850394,0,0,0.850394,293.3,10.808)" d="M4.39453,-2.75391 C5.01953,-2.75391 5.54688,-2.59115 5.97656,-2.26562 C6.38021,-1.91406 6.58203,-1.47135 6.58203,-0.9375 C6.58203,-0.0390625 6.11979,0.800781 5.19531,1.58203 C4.25781,2.36328 3.25521,2.75391 2.1875,2.75391 C1.5625,2.75391 1.03516,2.59115 0.605469,2.26562 C0.201823,1.91406 0,1.47135 0,0.9375 C0,0.0390625 0.46875,-0.800781 1.40625,-1.58203 C2.31771,-2.36328 3.3138,-2.75391 4.39453,-2.75391"/>
<path class="Note" transform="matrix(0.850394,0,0,0.850394,298.345,12.934)" d="M4.39453,-2.75391 C5.01953,-2.75391 5.54688,-2.59115 5.97656,-2.26562 C6.38021,-1.91406 6.58203,-1.47135 6.58203,-0.9375 C6.58203,-0.0390625 6.11979,0.800781 5.19531,1.58203 C4.25781,2.36328 3.25521,2.75391 2.1875,2.75391 C1.5625,2.75391 1.03516,2.59115 0.605469,2.26562 C0.201823,1.91406 0,1.47135 0,0.9375 C0,0.0390625 0.46875,-0.800781 1.40625,-1.58203 C2.31771,-2.36328 3.3138,-2.75391 4.39453,-2.75391"/>
<path class="Note" transform="matrix(0.850394,0,0,0.850394,272.999,70.3355)" d="M4.39453,-2.75391 C5.01953,-2.75391 5.54688,-2.59115 5.97656,-2.26562 C6.38021,-1.91406 6.58203,-1.47135 6.58203,-0.9375 C6.58203,-0.0390625 6.11979,0.800781 5.19531,1.58203 C4.25781,2.36328 3.25521,2.75391 2.1875,2.75391 C1.5625,2.75391 1.03516,2.59115 0.605469,2.26562 C0.201823,1.91406 0,1.47135 0,0.9375 C0,0.0390625 0.46875,-0.800781 1.40625,-1.58203 C2.31771,-2.36328 3.3138,-2.75391 4.39453,-2.75391"/>
<path class="Note" transform="matrix(0.850394,0,0,0.850394,240.35,2.30404)" d="M4.39453,-2.75391 C5.01953,-2.75391 5.54688,-2.59115 5.97656,-2.26562 C6.38021,-1.91406 6.58203,-1.47135 6.58203,-0.9375 C6.58203,-0.0390625 6.11979,0.800781 5.19531,1.58203 C4.25781,2.36328 3.25521,2.75391 2.1875,2.75391 C1.5625,2.75391 1.03516,2.59115 0.605469,2.26562 C0.201823,1.91406 0,1.47135 0,0.9375 C0,0.0390625 0.46875,-0.800781 1.40625,-1.58203 C2.31771,-2.36328 3.3138,-2.75391 4.39453,-2.75391"/>
<path class="Note" transform="matrix(0.850394,0,0,0.850394,235.305,4.43002)" d="M4.39453,-2.75391 C5.01953,-2.75391 5.54688,-2.59115 5.97656,-2.26562 C6.38021,-1.91406 6.58203,-1.47135 6.58203,-0.9375 C6.58203,-0.0390625 6.11979,0.800781 5.19531,1.58203 C4.25781,2.36328 3.25521,2.75391 2.1875,2.75391 C1.5625,2.75391 1.03516,2.59115 0.605469,2.26562 C0.201823,1.91406 0,1.47135 0,0.9375 C0,0.0390625 0.46875,-0.800781 1.40625,-1.58203 C2.31771,-2.36328 3.3138,-2.75391 4.39453,-2.75391"/>
<path class="Note" transform="matrix(0.850394,0,0,0.850394,240.35,8.68199)" d="M4.39453,-2.75391 C5.01953,-2.75391 5.54688,-2.59115 5.97656,-2.26562 C6.38021,-1.91406 6.58203,-1.47135 6.58203,-0.9375 C6.58203,-0.0390625 6.11979,0.800781 5.19531,1.58203 C4.25781,2.36328 3.25521,2.75391 2.1875,2.75391 C1.5625,2.75391 1.03516,2.59115 0.605469,2.26562 C0.201823,1.91406 0,1.47135 0,0.9375 C0,0.0390625 0.46875,-0.800781 1.40625,-1.58203 C2.31771,-2.36328 3.3138,-2.75391 4.39453,-2.75391"/>
<path class="Note" transform="matrix(0.850394,0,0,0.850394,235.305,10.808)" d="M4.39453,-2.75391 C5.01953,-2.75391 5.54688,-2.59115 5.97656,-2.26562 C6.38021,-1.91406 6.58203,-1.47135 6.58203,-0.9375 C6.58203,-0.0390625 6.11979,0.800781 5.19531,1.58203 C4.25781,2.36328 3.25521,2.75391 2.1875,2.75391 C1.5625,2.75391 1.03516,2.59115 0.605469,2.26562 C0.201823,1.91406 0,1.47135 0,0.9375 C0,0.0390625 0.46875,-0.800781 1.40625,-1.58203 C2.31771,-2.36328 3.3138,-2.75391 4.39453,-2.75391"/>
<path class="Note" transform="matrix(0.850394,0,0,0.850394,215.525,72.4615)" d="M4.39453,-2.75391 C5.01953,-2.75391 5.54688,-2.59115 5.97656,-2.26562 C6.38021,-1.91406 6.58203,-1.47135 6.58203,-0.9375 C6.58203,-0.0390625 6.11979,0.800781 5.19531,1.58203 C4.25781,2.36328 3.25521,2.75391 2.1875,2.75391 C1.5625,2.75391 1.03516,2.59115 0.605469,2.26562 C0.201823,1.91406 0,1.47135 0,0.9375 C0,0.0390625 0.46875,-0.800781 1.40625,-1.58203 C2.31771,-2.36328 3.3138,-2.75391 4.39453,-2.75391"/>
<path class="Note" transform="matrix(0.850394,0,0,0.850394,190.7,2.30404)" d="M4.39453,-2.75391 C5.01953,-2.75391 5.54688,-2.59115 5.97656,-2.26562 C6.38021,-1.91406 6.58203,-1.47135 6.58203,-0.9375 C6.58203,-0.0390625 6.11979,0.800781 5.19531,1.58203 C4.25781,2.36328 3.25521,2.75391 2.1875,2.75391 C1.5625,2.75391 1.03516,2.59115 0.605469,2.26562 C0.201823,1.91406 0,1.47135 0,0.9375 C0,0.0390625 0.46875,-0.800781 1.40625,-1.58203 C2.31771,-2.36328 3.3138,-2.75391 4.39453,-2.75391"/>
<path class="Note" transform="matrix(0.850394,0,0,0.850394,185.655,4.43002)" d="M4.39453,-2.75391 C5.01953,-2.75391 5.54688,-2.59115 5.97656,-2.26562 C6.38021,-1.91406 6.58203,-1.47135 6.58203,-0.9375 C6.58203,-0.0390625 6.11979,0.800781 5.19531,1.58203 C4.25781,2.36328 3.25521,2.75391 2.1875,2.75391 C1.5625,2.75391 1.03516,2.59115 0.605469,2.26562 C0.201823,1.91406 0,1.47135 0,0.9375 C0,0.0390625 0.46875,-0.800781 1.40625,-1.58203 C2.31771,-2.36328 3.3138,-2.75391 4.39453,-2.75391"/>
<path class="Note" transform="matrix(0.850394,0,0,0.850394,190.7,8.68199)" d="M4.39453,-2.75391 C5.01953,-2.75391 5.54688,-2.59115 5.97656,-2.26562 C6.38021,-1.91406 6.58203,-1.47135 6.58203,-0.9375 C6.58203,-0.0390625 6.11979,0.800781 5.19531,1.58203 C4.25781,2.36328 3.25521,2.75391 2.1875,2.75391 C1.5625,2.75391 1.03516,2.59115 0.605469,2.26562 C0.201823,1.91406 0,1.47135 0,0.9375 C0,0.0390625 0.46875,-0.800781 1.40625,-1.58203 C2.31771,-2.36328 3.3138,-2.75391 4.39453,-2.75391"/>
<path class="Note" transform="matrix(0.850394,0,0,0.850394,185.655,10.808)" d="M4.39453,-2.75391 C5.01953,-2.75391 5.54688,-2.59115 5.97656,-2.26562 C6.38021,-1.91406 6.58203,-1.47135 6.58203,-0.9375 C6.58203,-0.0390625 6.11979,0.800781 5.19531,1.58203 C4.25781,2.36328 3.25521,2.75391 2.1875,2.75391 C1.5625,2.75391 1.03516,2.59115 0.605469,2.26562 C0.201823,1.91406 0,1.47135 0,0.9375 C0,0.0390625 0.46875,-0.800781 1.40625,-1.58203 C2.31771,-2.36328 3.3138,-2.75391 4.39453,-2.75391"/>
<path class="Note" transform="matrix(0.850394,0,0,0.850394,165.875,2.30404)" d="M4.39453,-2.75391 C5.01953,-2.75391 5.54688,-2.59115 5.97656,-2.26562 C6.38021,-1.91406 6.58203,-1.47135 6.58203,-0.9375 C6.58203,-0.0390625 6.11979,0.800781 5.19531,1.58203 C4.25781,2.36328 3.25521,2.75391 2.1875,2.75391 C1.5625,2.75391 1.03516,2.59115 0.605469,2.26562 C0.201823,1.91406 0,1.47135 0,0.9375 C0,0.0390625 0.46875,-0.800781 1.40625,-1.58203 C2.31771,-2.36328 3.3138,-2.75391 4.39453,-2.75391"/>
<path class="Note" transform="matrix(0.850394,0,0,0.850394,160.83,4.43002)" d="M4.39453,-2.75391 C5.01953,-2.75391 5.54688,-2.59115 5.97656,-2.26562 C6.38021,-1.91406 6.58203,-1.47135 6.58203,-0.9375 C6.58203,-0.0390625 6.11979,0.800781 5.19531,1.58203 C4.25781,2.36328 3.25521,2.75391 2.1875,2.75391 C1.5625,2.75391 1.03516,2.59115 0.605469,2.26562 C0.201823,1.91406 0,1.47135 0,0.9375 C0,0.0390625 0.46875,-0.800781 1.40625,-1.58203 C2.31771,-2.36328 3.3138,-2.75391 4.39453,-2.75391"/>
<path class="Note" transform="matrix(0.850394,0,0,0.850394,165.875,8.68199)" d="M4.39453,-2.75391 C5.01953,-2.75391 5.54688,-2.59115 5.97656,-2.26562 C6.38021,-1.91406 6.58203,-1.47135 6.58203,-0.9375 C6.58203,-0.0390625 6.11979,0.800781 5.19531,1.58203 C4.25781,2.36328 3.25521,2.75391 2.1875,2.75391 C1.5625,2.75391 1.03516,2.59115 0.605469,2.26562 C0.201823,1.91406 0,1.47135 0,0.9375 C0,0.0390625 0.46875,-0.800781 1.40625,-1.58203 C2.31771,-2.36328 3.3138,-2.75391 4.39453,-2.75391"/>
<path class="Note" transform="matrix(0.850394,0,0,0.850394,160.83,10.808)" d="M4.39453,-2.75391 C5.01953,-2.75391 5.54688,-2.59115 5.97656,-2.26562 C6.38021,-1.91406 6.58203,-1.47135 6.58203,-0.9375 C6.58203,-0.0390625 6.11979,0.800781 5.19531,1.58203 C4.25781,2.36328 3.25521,2.75391 2.1875,2.75391 C1.5625,2.75391 1.03516,2.59115 0.605469,2.26562 C0.201823,1.91406 0,1.47135 0,0.9375 C0,0.0390625 0.46875,-0.800781 1.40625,-1.58203 C2.31771,-2.36328 3.3138,-2.75391 4.39453,-2.75391"/>
<path class="Note" transform="matrix(0.850394,0,0,0.850394,141.05,57.5796)" d="M4.39453,-2.75391 C5.01953,-2.75391 5.54688,-2.59115 5.97656,-2.26562 C6.38021,-1.91406 6.58203,-1.47135 6.58203,-0.9375 C6.58203,-0.0390625 6.11979,0.800781 5.19531,1.58203 C4.25781,2.36328 3.25521,2.75391 2.1875,2.75391 C1.5625,2.75391 1.03516,2.59115 0.605469,2.26562 C0.201823,1.91406 0,1.47135 0,0.9375 C0,0.0390625 0.46875,-0.800781 1.40625,-1.58203 C2.31771,-2.36328 3.3138,-2.75391 4.39453,-2.75391"/>
<path class="Note" transform="matrix(0.850394,0,0,0.850394,116.225,2.30404)" d="M4.39453,-2.75391 C5.01953,-2.75391 5.54688,-2.59115 5.97656,-2.26562 C6.38021,-1.91406 6.58203,-1.47135 6.58203,-0.9375 C6.58203,-0.0390625 6.11979,0.800781 5.19531,1.58203 C4.25781,2.36328 3.25521,2.75391 2.1875,2.75391 C1.5625,2.75391 1.03516,2.59115 0.605469,2.26562 C0.201823,1.91406 0,1.47135 0,0.9375 C0,0.0390625 0.46875,-0.800781 1.40625,-1.58203 C2.31771,-2.36328 3.3138,-2.75391 4.39453,-2.75391"/>
<path class="Note" transform="matrix(0.850394,0,0,0.850394,111.18,4.43002)" d="M4.39453,-2.75391 C5.01953,-2.75391 5.54688,-2.59115 5.97656,-2.26562 C6.38021,-1.91406 6.58203,-1.47135 6.58203,-0.9375 C6.58203,-0.0390625 6.11979,0.800781 5.19531,1.58203 C4.25781,2.36328 3.25521,2.75391 2.1875,2.75391 C1.5625,2.75391 1.03516,2.59115 0.605469,2.26562 C0.201823,1.91406 0,1.47135 0,0.9375 C0,0.0390625 0.46875,-0.800781 1.40625,-1.58203 C2.31771,-2.36328 3.3138,-2.75391 4.39453,-2.75391"/>
<path class="Note" transform="matrix(0.850394,0,0,0.850394,116.225,8.68199)" d="M4.39453,-2.75391 C5.01953,-2.75391 5.54688,-2.59115 5.97656,-2.26562 C6.38021,-1.91406 6.58203,-1.47135 6.58203,-0.9375 C6.58203,-0.0390625 6.11979,0.800781 5.19531,1.58203 C4.25781,2.36328 3.25521,2.75391 2.1875,2.75391 C1.5625,2.75391 1.03516,2.59115 0.605469,2.26562 C0.201823,1.91406 0,1.47135 0,0.9375 C0,0.0390625 0.46875,-0.800781 1.40625,-1.58203 C2.31771,-2.36328 3.3138,-2.75391 4.39453,-2.75391"/>
<path class="Note" transform="matrix(0.850394,0,0,0.850394,111.18,10.808)" d="M4.39453,-2.75391 C5.01953,-2.75391 5.54688,-2.59115 5.97656,-2.26562 C6.38021,-1.91406 6.58203,-1.47135 6.58203,-0.9375 C6.58203,-0.0390625 6.11979,0.800781 5.19531,1.58203 C4.25781,2.36328 3.25521,2.75391 2.1875,2.75391 C1.5625,2.75391 1.03516,2.59115 0.605469,2.26562 C0.201823,1.91406 0,1.47135 0,0.9375 C0,0.0390625 0.46875,-0.800781 1.40625,-1.58203 C2.31771,-2.36328 3.3138,-2.75391 4.39453,-2.75391"/>
<path class="Note" transform="matrix(0.850394,0,0,0.850394,91.4002,2.30404)" d="M4.39453,-2.75391 C5.01953,-2.75391 5.54688,-2.59115 5.97656,-2.26562 C6.38021,-1.91406 6.58203,-1.47135 6.58203,-0.9375 C6.58203,-0.0390625 6.11979,0.800781 5.19531,1.58203 C4.25781,2.36328 3.25521,2.75391 2.1875,2.75391 C1.5625,2.75391 1.03516,2.59115 0.605469,2.26562 C0.201823,1.91406 0,1.47135 0,0.9375 C0,0.0390625 0.46875,-0.800781 1.40625,-1.58203 C2.31771,-2.36328 3.3138,-2.75391 4.39453,-2.75391"/>
<path class="Note" transform="matrix(0.850394,0,0,0.850394,86.355,4.43002)" d="M4.39453,-2.75391 C5.01953,-2.75391 5.54688,-2.59115 5.97656,-2.26562 C6.38021,-1.91406 6.58203,-1.47135 6.58203,-0.9375 C6.58203,-0.0390625 6.11979,0.800781 5.19531,1.58203 C4.25781,2.36328 3.25521,2.75391 2.1875,2.75391 C1.5625,2.75391 1.03516,2.59115 0.605469,2.26562 C0.201823,1.91406 0,1.47135 0,0.9375 C0,0.0390625 0.46875,-0.800781 1.40625,-1.58203 C2.31771,-2.36328 3.3138,-2.75391 4.39453,-2.75391"/>
<path class="Note" transform="matrix(0.850394,0,0,0.850394,91.4002,8.68199)" d="M4.39453,-2.75391 C5.01953,-2.75391 5.54688,-2.59115 5.97656,-2.26562 C6.38021,-1.91406 6.58203,-1.47135 6.58203,-0.9375 C6.58203,-0.0390625 6.11979,0.800781 5.19531,1.58203 C4.25781,2.36328 3.25521,2.75391 2.1875,2.75391 C1.5625,2.75391 1.03516,2.59115 0.605469,2.26562 C0.201823,1.91406 0,1.47135 0,0.9375 C0,0.0390625 0.46875,-0.800781 1.40625,-1.58203 C2.31771,-2.36328 3.3138,-2.75391 4.39453,-2.75391"/>
<path class="Note" transform="matrix(0.850394,0,0,0.850394,86.355,10.808)" d="M4.39453,-2.75391 C5.01953,-2.75391 5.54688,-2.59115 5.97656,-2.26562 C6.38021,-1.91406 6.58203,-1.47135 6.58203,-0.9375 C6.58203,-0.0390625 6.11979,0.800781 5.19531,1.58203 C4.25781,2.36328 3.25521,2.75391 2.1875,2.75391 C1.5625,2.75391 1.03516,2.59115 0.605469,2.26562 C0.201823,1.91406 0,1.47135 0,0.9375 C0,0.0390625 0.46875,-0.800781 1.40625,-1.58203 C2.31771,-2.36328 3.3138,-2.75391 4.39453,-2.75391"/>
<path class="Note" transform="matrix(0.850394,0,0,0.850394,66.5752,66.0836)" d="M4.39453,-2.75391 C5.01953,-2.75391 5.54688,-2.59115 5.97656,-2.26562 C6.38021,-1.91406 6.58203,-1.47135 6.58203,-0.9375 C6.58203,-0.0390625 6.11979,0.800781 5.19531,1.58203 C4.25781,2.36328 3.25521,2.75391 2.1875,2.75391 C1.5625,2.75391 1.03516,2.59115 0.605469,2.26562 C0.201823,1.91406 0,1.47135 0,0.9375 C0,0.0390625 0.46875,-0.800781 1.40625,-1.58203 C2.31771,-2.36328 3.3138,-2.75391 4.39453,-2.75391"/>
<path class="Clef" transform="matrix(0.850394,0,0,0.850394,10.5449,51.2017)" d="M11.4258,-1.77734 C11.2305,-1.97266 11.1328,-2.21354 11.1328,-2.5 C11.1328,-2.78646 11.2305,-3.02734 11.4258,-3.22266 C11.6211,-3.41797 11.862,-3.51562 12.1484,-3.51562 C12.4349,-3.51562 12.6758,-3.41797 12.8711,-3.22266 C13.0664,-3.02734 13.1641,-2.78646 13.1641,-2.5 C13.1641,-2.21354 13.0664,-1.97266 12.8711,-1.77734 C12.6758,-1.58203 12.4349,-1.48438 12.1484,-1.48438 C11.862,-1.48438 11.6211,-1.58203 11.4258,-1.77734 M11.4258,3.22266 C11.2305,3.02734 11.1328,2.78646 11.1328,2.5 C11.1328,2.21354 11.2305,1.97266 11.4258,1.77734 C11.6211,1.58203 11.862,1.48438 12.1484,1.48438 C12.4349,1.48438 12.6758,1.58203 12.8711,1.77734 C13.0664,1.97266 13.1641,2.21354 13.1641,2.5 C13.1641,2.78646 13.0664,3.02734 12.8711,3.22266 C12.6758,3.41797 12.4349,3.51562 12.1484,3.51562 C11.862,3.51562 11.6211,3.41797 11.4258,3.22266 M4.64844,-5.25391 C6.38021,-5.25391 7.79948,-4.81771 8.90625,-3.94531 C9.97396,-3.03385 10.5078,-1.79688 10.5078,-0.234375 C10.5078,0.820312 10.2995,1.78385 9.88281,2.65625 C9.49219,3.56771 8.97786,4.375 8.33984,5.07812 C7.6888,5.79427 6.90104,6.47135 5.97656,7.10938 C5.07812,7.73438 4.15365,8.29427 3.20312,8.78906 C1.27604,9.76562 0.208333,10.2539 0,10.2539 C-0.169271,10.2539 -0.253906,10.1693 -0.253906,10 C-0.253906,9.9349 -0.227865,9.8763 -0.175781,9.82422 C0.488281,9.43359 1.30208,8.93229 2.26562,8.32031 C2.89062,7.91667 3.61979,7.35677 4.45312,6.64062 C5.26042,5.96354 5.88542,5.32552 6.32812,4.72656 C6.78385,4.14062 7.20052,3.41146 7.57812,2.53906 C7.90365,1.66667 8.06641,0.807292 8.06641,-0.0390625 C8.06641,-1.30208 7.75391,-2.40234 7.12891,-3.33984 C6.50391,-4.27734 5.67708,-4.74609 4.64844,-4.74609 C3.91927,-4.74609 3.29427,-4.51172 2.77344,-4.04297 C2.21354,-3.5612 1.8099,-2.95573 1.5625,-2.22656 C1.8099,-2.33073 2.03776,-2.38281 2.24609,-2.38281 C2.79297,-2.38281 3.26172,-2.1875 3.65234,-1.79688 C4.04297,-1.38021 4.23828,-0.904948 4.23828,-0.371094 C4.23828,0.188802 4.04948,0.690104 3.67188,1.13281 C3.26823,1.53646 2.79297,1.73828 2.24609,1.73828 C1.66016,1.73828 1.13281,1.53646 0.664062,1.13281 C0.221354,0.690104 0,0.188802 0,-0.371094 C0,-1.71224 0.455729,-2.85807 1.36719,-3.80859 C2.26562,-4.77214 3.35938,-5.25391 4.64844,-5.25391"/>
<path class="Clef" transform="matrix(0.850394,0,0,0.850394,10.5449,12.934)" d="M11.4258,-1.77734 C11.2305,-1.97266 11.1328,-2.21354 11.1328,-2.5 C11.1328,-2.78646 11.2305,-3.02734 11.4258,-3.22266 C11.6211,-3.41797 11.862,-3.51562 12.1484,-3.51562 C12.4349,-3.51562 12.6758,-3.41797 12.8711,-3.22266 C13.0664,-3.02734 13.1641,-2.78646 13.1641,-2.5 C13.1641,-2.21354 13.0664,-1.97266 12.8711,-1.77734 C12.6758,-1.58203 12.4349,-1.48438 12.1484,-1.48438 C11.862,-1.48438 11.6211,-1.58203 11.4258,-1.77734 M11.4258,3.22266 C11.2305,3.02734 11.1328,2.78646 11.1328,2.5 C11.1328,2.21354 11.2305,1.97266 11.4258,1.77734 C11.6211,1.58203 11.862,1.48438 12.1484,1.48438 C12.4349,1.48438 12.6758,1.58203 12.8711,1.77734 C13.0664,1.97266 13.1641,2.21354 13.1641,2.5 C13.1641,2.78646 13.0664,3.02734 12.8711,3.22266 C12.6758,3.41797 12.4349,3.51562 12.1484,3.51562 C11.862,3.51562 11.6211,3.41797 11.4258,3.22266 M4.64844,-5.25391 C6.38021,-5.25391 7.79948,-4.81771 8.90625,-3.94531 C9.97396,-3.03385 10.5078,-1.79688 10.5078,-0.234375 C10.5078,0.820312 10.2995,1.78385 9.88281,2.65625 C9.49219,3.56771 8.97786,4.375 8.33984,5.07812 C7.6888,5.79427 6.90104,6.47135 5.97656,7.10938 C5.07812,7.73438 4.15365,8.29427 3.20312,8.78906 C1.27604,9.76562 0.208333,10.2539 0,10.2539 C-0.169271,10.2539 -0.253906,10.1693 -0.253906,10 C-0.253906,9.9349 -0.227865,9.8763 -0.175781,9.82422 C0.488281,9.43359 1.30208,8.93229 2.26562,8.32031 C2.89062,7.91667 3.61979,7.35677 4.45312,6.64062 C5.26042,5.96354 5.88542,5.32552 6.32812,4.72656 C6.78385,4.14062 7.20052,3.41146 7.57812,2.53906 C7.90365,1.66667 8.06641,0.807292 8.06641,-0.0390625 C8.06641,-1.30208 7.75391,-2.40234 7.12891,-3.33984 C6.50391,-4.27734 5.67708,-4.74609 4.64844,-4.74609 C3.91927,-4.74609 3.29427,-4.51172 2.77344,-4.04297 C2.21354,-3.5612 1.8099,-2.95573 1.5625,-2.22656 C1.8099,-2.33073 2.03776,-2.38281 2.24609,-2.38281 C2.79297,-2.38281 3.26172,-2.1875 3.65234,-1.79688 C4.04297,-1.38021 4.23828,-0.904948 4.23828,-0.371094 C4.23828,0.188802 4.04948,0.690104 3.67188,1.13281 C3.26823,1.53646 2.79297,1.73828 2.24609,1.73828 C1.66016,1.73828 1.13281,1.53646 0.664062,1.13281 C0.221354,0.690104 0,0.188802 0,-0.371094 C0,-1.71224 0.455729,-2.85807 1.36719,-3.80859 C2.26562,-4.77214 3.35938,-5.25391 4.64844,-5.25391"/>
<path class="KeySig" transform="matrix(0.850394,0,0,0.850394,44.8809,53.3277)" d="M4.31641,6.23047 C4.31641,6.47786 4.19271,6.60156 3.94531,6.60156 C3.69792,6.60156 3.57422,6.47786 3.57422,6.23047 L3.57422,3.33984 L1.91406,3.96484 L1.91406,7.12891 C1.91406,7.3763 1.79036,7.5 1.54297,7.5 C1.29557,7.5 1.17188,7.3763 1.17188,7.12891 L1.17188,4.21875 L0.546875,4.45312 C0.533854,4.46615 0.481771,4.47266 0.390625,4.47266 C0.286458,4.47266 0.195312,4.43359 0.117188,4.35547 C0.0390625,4.27734 0,4.1862 0,4.08203 L0,2.87109 C0,2.67578 0.0846354,2.55208 0.253906,2.5 L1.17188,2.1875 L1.17188,-1.01562 L0.546875,-0.800781 C0.533854,-0.78776 0.481771,-0.78125 0.390625,-0.78125 C0.286458,-0.78125 0.195312,-0.820312 0.117188,-0.898438 C0.0390625,-0.976562 0,-1.06771 0,-1.17188 L0,-2.38281 C0,-2.5651 0.0846354,-2.68229 0.253906,-2.73438 L1.17188,-3.08594 L1.17188,-6.23047 C1.17188,-6.47786 1.29557,-6.60156 1.54297,-6.60156 C1.79036,-6.60156 1.91406,-6.47786 1.91406,-6.23047 L1.91406,-3.33984 L3.57422,-3.96484 L3.57422,-7.12891 C3.57422,-7.3763 3.69792,-7.5 3.94531,-7.5 C4.19271,-7.5 4.31641,-7.3763 4.31641,-7.12891 L4.31641,-4.21875 L4.96094,-4.45312 C4.97396,-4.46615 5.01953,-4.47266 5.09766,-4.47266 C5.1888,-4.47266 5.28646,-4.43359 5.39062,-4.35547 C5.46875,-4.27734 5.50781,-4.1862 5.50781,-4.08203 L5.50781,-2.87109 C5.50781,-2.6888 5.41667,-2.5651 5.23438,-2.5 L4.31641,-2.1875 L4.31641,1.01562 L4.96094,0.800781 C4.97396,0.78776 5.01953,0.78125 5.09766,0.78125 C5.1888,0.78125 5.28646,0.820312 5.39062,0.898438 C5.46875,0.976562 5.50781,1.06771 5.50781,1.17188 L5.50781,2.38281 C5.50781,2.55208 5.41667,2.66927 5.23438,2.73438 L4.31641,3.08594 L4.31641,6.23047 M3.57422,-1.89453 L1.91406,-1.30859 L1.91406,1.89453 L3.57422,1.30859 L3.57422,-1.89453 "/>
<path class="KeySig" transform="matrix(0.850394,0,0,0.850394,40.6289,61.8316)" d="M4.31641,6.23047 C4.31641,6.47786 4.19271,6.60156 3.94531,6.60156 C3.69792,6.60156 3.57422,6.47786 3.57422,6.23047 L3.57422,3.33984 L1.91406,3.96484 L1.91406,7.12891 C1.91406,7.3763 1.79036,7.5 1.54297,7.5 C1.29557,7.5 1.17188,7.3763 1.17188,7.12891 L1.17188,4.21875 L0.546875,4.45312 C0.533854,4.46615 0.481771,4.47266 0.390625,4.47266 C0.286458,4.47266 0.195312,4.43359 0.117188,4.35547 C0.0390625,4.27734 0,4.1862 0,4.08203 L0,2.87109 C0,2.67578 0.0846354,2.55208 0.253906,2.5 L1.17188,2.1875 L1.17188,-1.01562 L0.546875,-0.800781 C0.533854,-0.78776 0.481771,-0.78125 0.390625,-0.78125 C0.286458,-0.78125 0.195312,-0.820312 0.117188,-0.898438 C0.0390625,-0.976562 0,-1.06771 0,-1.17188 L0,-2.38281 C0,-2.5651 0.0846354,-2.68229 0.253906,-2.73438 L1.17188,-3.08594 L1.17188,-6.23047 C1.17188,-6.47786 1.29557,-6.60156 1.54297,-6.60156 C1.79036,-6.60156 1.91406,-6.47786 1.91406,-6.23047 L1.91406,-3.33984 L3.57422,-3.96484 L3.57422,-7.12891 C3.57422,-7.3763 3.69792,-7.5 3.94531,-7.5 C4.19271,-7.5 4.31641,-7.3763 4.31641,-7.12891 L4.31641,-4.21875 L4.96094,-4.45312 C4.97396,-4.46615 5.01953,-4.47266 5.09766,-4.47266 C5.1888,-4.47266 5.28646,-4.43359 5.39062,-4.35547 C5.46875,-4.27734 5.50781,-4.1862 5.50781,-4.08203 L5.50781,-2.87109 C5.50781,-2.6888 5.41667,-2.5651 5.23438,-2.5 L4.31641,-2.1875 L4.31641,1.01562 L4.96094,0.800781 C4.97396,0.78776 5.01953,0.78125 5.09766,0.78125 C5.1888,0.78125 5.28646,0.820312 5.39062,0.898438 C5.46875,0.976562 5.50781,1.06771 5.50781,1.17188 L5.50781,2.38281 C5.50781,2.55208 5.41667,2.66927 5.23438,2.73438 L4.31641,3.08594 L4.31641,6.23047 M3.57422,-1.89453 L1.91406,-1.30859 L1.91406,1.89453 L3.57422,1.30859 L3.57422,-1.89453 "/>
<path class="KeySig" transform="matrix(0.850394,0,0,0.850394,36.3769,55.4536)" d="M4.31641,6.23047 C4.31641,6.47786 4.19271,6.60156 3.94531,6.60156 C3.69792,6.60156 3.57422,6.47786 3.57422,6.23047 L3.57422,3.33984 L1.91406,3.96484 L1.91406,7.12891 C1.91406,7.3763 1.79036,7.5 1.54297,7.5 C1.29557,7.5 1.17188,7.3763 1.17188,7.12891 L1.17188,4.21875 L0.546875,4.45312 C0.533854,4.46615 0.481771,4.47266 0.390625,4.47266 C0.286458,4.47266 0.195312,4.43359 0.117188,4.35547 C0.0390625,4.27734 0,4.1862 0,4.08203 L0,2.87109 C0,2.67578 0.0846354,2.55208 0.253906,2.5 L1.17188,2.1875 L1.17188,-1.01562 L0.546875,-0.800781 C0.533854,-0.78776 0.481771,-0.78125 0.390625,-0.78125 C0.286458,-0.78125 0.195312,-0.820312 0.117188,-0.898438 C0.0390625,-0.976562 0,-1.06771 0,-1.17188 L0,-2.38281 C0,-2.5651 0.0846354,-2.68229 0.253906,-2.73438 L1.17188,-3.08594 L1.17188,-6.23047 C1.17188,-6.47786 1.29557,-6.60156 1.54297,-6.60156 C1.79036,-6.60156 1.91406,-6.47786 1.91406,-6.23047 L1.91406,-3.33984 L3.57422,-3.96484 L3.57422,-7.12891 C3.57422,-7.3763 3.69792,-7.5 3.94531,-7.5 C4.19271,-7.5 4.31641,-7.3763 4.31641,-7.12891 L4.31641,-4.21875 L4.96094,-4.45312 C4.97396,-4.46615 5.01953,-4.47266 5.09766,-4.47266 C5.1888,-4.47266 5.28646,-4.43359 5.39062,-4.35547 C5.46875,-4.27734 5.50781,-4.1862 5.50781,-4.08203 L5.50781,-2.87109 C5.50781,-2.6888 5.41667,-2.5651 5.23438,-2.5 L4.31641,-2.1875 L4.31641,1.01562 L4.96094,0.800781 C4.97396,0.78776 5.01953,0.78125 5.09766,0.78125 C5.1888,0.78125 5.28646,0.820312 5.39062,0.898438 C5.46875,0.976562 5.50781,1.06771 5.50781,1.17188 L5.50781,2.38281 C5.50781,2.55208 5.41667,2.66927 5.23438,2.73438 L4.31641,3.08594 L4.31641,6.23047 M3.57422,-1.89453 L1.91406,-1.30859 L1.91406,1.89453 L3.57422,1.30859 L3.57422,-1.89453 "/>
<path class="KeySig" transform="matrix(0.850394,0,0,0.850394,32.125,49.0757)" d="M4.31641,6.23047 C4.31641,6.47786 4.19271,6.60156 3.94531,6.60156 C3.69792,6.60156 3.57422,6.47786 3.57422,6.23047 L3.57422,3.33984 L1.91406,3.96484 L1.91406,7.12891 C1.91406,7.3763 1.79036,7.5 1.54297,7.5 C1.29557,7.5 1.17188,7.3763 1.17188,7.12891 L1.17188,4.21875 L0.546875,4.45312 C0.533854,4.46615 0.481771,4.47266 0.390625,4.47266 C0.286458,4.47266 0.195312,4.43359 0.117188,4.35547 C0.0390625,4.27734 0,4.1862 0,4.08203 L0,2.87109 C0,2.67578 0.0846354,2.55208 0.253906,2.5 L1.17188,2.1875 L1.17188,-1.01562 L0.546875,-0.800781 C0.533854,-0.78776 0.481771,-0.78125 0.390625,-0.78125 C0.286458,-0.78125 0.195312,-0.820312 0.117188,-0.898438 C0.0390625,-0.976562 0,-1.06771 0,-1.17188 L0,-2.38281 C0,-2.5651 0.0846354,-2.68229 0.253906,-2.73438 L1.17188,-3.08594 L1.17188,-6.23047 C1.17188,-6.47786 1.29557,-6.60156 1.54297,-6.60156 C1.79036,-6.60156 1.91406,-6.47786 1.91406,-6.23047 L1.91406,-3.33984 L3.57422,-3.96484 L3.57422,-7.12891 C3.57422,-7.3763 3.69792,-7.5 3.94531,-7.5 C4.19271,-7.5 4.31641,-7.3763 4.31641,-7.12891 L4.31641,-4.21875 L4.96094,-4.45312 C4.97396,-4.46615 5.01953,-4.47266 5.09766,-4.47266 C5.1888,-4.47266 5.28646,-4.43359 5.39062,-4.35547 C5.46875,-4.27734 5.50781,-4.1862 5.50781,-4.08203 L5.50781,-2.87109 C5.50781,-2.6888 5.41667,-2.5651 5.23438,-2.5 L4.31641,-2.1875 L4.31641,1.01562 L4.96094,0.800781 C4.97396,0.78776 5.01953,0.78125 5.09766,0.78125 C5.1888,0.78125 5.28646,0.820312 5.39062,0.898438 C5.46875,0.976562 5.50781,1.06771 5.50781,1.17188 L5.50781,2.38281 C5.50781,2.55208 5.41667,2.66927 5.23438,2.73438 L4.31641,3.08594 L4.31641,6.23047 M3.57422,-1.89453 L1.91406,-1.30859 L1.91406,1.89453 L3.57422,1.30859 L3.57422,-1.89453 "/>
<path class="KeySig" transform="matrix(0.850394,0,0,0.850394,27.873,57.5796)" d="M4.31641,6.23047 C4.31641,6.47786 4.19271,6.60156 3.94531,6.60156 C3.69792,6.60156 3.57422,6.47786 3.57422,6.23047 L3.57422,3.33984 L1.91406,3.96484 L1.91406,7.12891 C1.91406,7.3763 1.79036,7.5 1.54297,7.5 C1.29557,7.5 1.17188,7.3763 1.17188,7.12891 L1.17188,4.21875 L0.546875,4.45312 C0.533854,4.46615 0.481771,4.47266 0.390625,4.47266 C0.286458,4.47266 0.195312,4.43359 0.117188,4.35547 C0.0390625,4.27734 0,4.1862 0,4.08203 L0,2.87109 C0,2.67578 0.0846354,2.55208 0.253906,2.5 L1.17188,2.1875 L1.17188,-1.01562 L0.546875,-0.800781 C0.533854,-0.78776 0.481771,-0.78125 0.390625,-0.78125 C0.286458,-0.78125 0.195312,-0.820312 0.117188,-0.898438 C0.0390625,-0.976562 0,-1.06771 0,-1.17188 L0,-2.38281 C0,-2.5651 0.0846354,-2.68229 0.253906,-2.73438 L1.17188,-3.08594 L1.17188,-6.23047 C1.17188,-6.47786 1.29557,-6.60156 1.54297,-6.60156 C1.79036,-6.60156 1.91406,-6.47786 1.91406,-6.23047 L1.91406,-3.33984 L3.57422,-3.96484 L3.57422,-7.12891 C3.57422,-7.3763 3.69792,-7.5 3.94531,-7.5 C4.19271,-7.5 4.31641,-7.3763 4.31641,-7.12891 L4.31641,-4.21875 L4.96094,-4.45312 C4.97396,-4.46615 5.01953,-4.47266 5.09766,-4.47266 C5.1888,-4.47266 5.28646,-4.43359 5.39062,-4.35547 C5.46875,-4.27734 5.50781,-4.1862 5.50781,-4.08203 L5.50781,-2.87109 C5.50781,-2.6888 5.41667,-2.5651 5.23438,-2.5 L4.31641,-2.1875 L4.31641,1.01562 L4.96094,0.800781 C4.97396,0.78776 5.01953,0.78125 5.09766,0.78125 C5.1888,0.78125 5.28646,0.820312 5.39062,0.898438 C5.46875,0.976562 5.50781,1.06771 5.50781,1.17188 L5.50781,2.38281 C5.50781,2.55208 5.41667,2.66927 5.23438,2.73438 L4.31641,3.08594 L4.31641,6.23047 M3.57422,-1.89453 L1.91406,-1.30859 L1.91406,1.89453 L3.57422,1.30859 L3.57422,-1.89453 "/>
<path class="KeySig" transform="matrix(0.850394,0,0,0.850394,23.621,51.2017)" d="M4.31641,6.23047 C4.31641,6.47786 4.19271,6.60156 3.94531,6.60156 C3.69792,6.60156 3.57422,6.47786 3.57422,6.23047 L3.57422,3.33984 L1.91406,3.96484 L1.91406,7.12891 C1.91406,7.3763 1.79036,7.5 1.54297,7.5 C1.29557,7.5 1.17188,7.3763 1.17188,7.12891 L1.17188,4.21875 L0.546875,4.45312 C0.533854,4.46615 0.481771,4.47266 0.390625,4.47266 C0.286458,4.47266 0.195312,4.43359 0.117188,4.35547 C0.0390625,4.27734 0,4.1862 0,4.08203 L0,2.87109 C0,2.67578 0.0846354,2.55208 0.253906,2.5 L1.17188,2.1875 L1.17188,-1.01562 L0.546875,-0.800781 C0.533854,-0.78776 0.481771,-0.78125 0.390625,-0.78125 C0.286458,-0.78125 0.195312,-0.820312 0.117188,-0.898438 C0.0390625,-0.976562 0,-1.06771 0,-1.17188 L0,-2.38281 C0,-2.5651 0.0846354,-2.68229 0.253906,-2.73438 L1.17188,-3.08594 L1.17188,-6.23047 C1.17188,-6.47786 1.29557,-6.60156 1.54297,-6.60156 C1.79036,-6.60156 1.91406,-6.47786 1.91406,-6.23047 L1.91406,-3.33984 L3.57422,-3.96484 L3.57422,-7.12891 C3.57422,-7.3763 3.69792,-7.5 3.94531,-7.5 C4.19271,-7.5 4.31641,-7.3763 4.31641,-7.12891 L4.31641,-4.21875 L4.96094,-4.45312 C4.97396,-4.46615 5.01953,-4.47266 5.09766,-4.47266 C5.1888,-4.47266 5.28646,-4.43359 5.39062,-4.35547 C5.46875,-4.27734 5.50781,-4.1862 5.50781,-4.08203 L5.50781,-2.87109 C5.50781,-2.6888 5.41667,-2.5651 5.23438,-2.5 L4.31641,-2.1875 L4.31641,1.01562 L4.96094,0.800781 C4.97396,0.78776 5.01953,0.78125 5.09766,0.78125 C5.1888,0.78125 5.28646,0.820312 5.39062,0.898438 C5.46875,0.976562 5.50781,1.06771 5.50781,1.17188 L5.50781,2.38281 C5.50781,2.55208 5.41667,2.66927 5.23438,2.73438 L4.31641,3.08594 L4.31641,6.23047 M3.57422,-1.89453 L1.91406,-1.30859 L1.91406,1.89453 L3.57422,1.30859 L3.57422,-1.89453 "/>
<path class="KeySig" transform="matrix(0.850394,0,0,0.850394,44.8809,15.0599)" d="M4.31641,6.23047 C4.31641,6.47786 4.19271,6.60156 3.94531,6.60156 C3.69792,6.60156 3.57422,6.47786 3.57422,6.23047 L3.57422,3.33984 L1.91406,3.96484 L1.91406,7.12891 C1.91406,7.3763 1.79036,7.5 1.54297,7.5 C1.29557,7.5 1.17188,7.3763 1.17188,7.12891 L1.17188,4.21875 L0.546875,4.45312 C0.533854,4.46615 0.481771,4.47266 0.390625,4.47266 C0.286458,4.47266 0.195312,4.43359 0.117188,4.35547 C0.0390625,4.27734 0,4.1862 0,4.08203 L0,2.87109 C0,2.67578 0.0846354,2.55208 0.253906,2.5 L1.17188,2.1875 L1.17188,-1.01562 L0.546875,-0.800781 C0.533854,-0.78776 0.481771,-0.78125 0.390625,-0.78125 C0.286458,-0.78125 0.195312,-0.820312 0.117188,-0.898438 C0.0390625,-0.976562 0,-1.06771 0,-1.17188 L0,-2.38281 C0,-2.5651 0.0846354,-2.68229 0.253906,-2.73438 L1.17188,-3.08594 L1.17188,-6.23047 C1.17188,-6.47786 1.29557,-6.60156 1.54297,-6.60156 C1.79036,-6.60156 1.91406,-6.47786 1.91406,-6.23047 L1.91406,-3.33984 L3.57422,-3.96484 L3.57422,-7.12891 C3.57422,-7.3763 3.69792,-7.5 3.94531,-7.5 C4.19271,-7.5 4.31641,-7.3763 4.31641,-7.12891 L4.31641,-4.21875 L4.96094,-4.45312 C4.97396,-4.46615 5.01953,-4.47266 5.09766,-4.47266 C5.1888,-4.47266 5.28646,-4.43359 5.39062,-4.35547 C5.46875,-4.27734 5.50781,-4.1862 5.50781,-4.08203 L5.50781,-2.87109 C5.50781,-2.6888 5.41667,-2.5651 5.23438,-2.5 L4.31641,-2.1875 L4.31641,1.01562 L4.96094,0.800781 C4.97396,0.78776 5.01953,0.78125 5.09766,0.78125 C5.1888,0.78125 5.28646,0.820312 5.39062,0.898438 C5.46875,0.976562 5.50781,1.06771 5.50781,1.17188 L5.50781,2.38281 C5.50781,2.55208 5.41667,2.66927 5.23438,2.73438 L4.31641,3.08594 L4.31641,6.23047 M3.57422,-1.89453 L1.91406,-1.30859 L1.91406,1.89453 L3.57422,1.30859 L3.57422,-1.89453 "/>
<path class="KeySig" transform="matrix(0.850394,0,0,0.850394,40.6289,23.5639)" d="M4.31641,6.23047 C4.31641,6.47786 4.19271,6.60156 3.94531,6.60156 C3.69792,6.60156 3.57422,6.47786 3.57422,6.23047 L3.57422,3.33984 L1.91406,3.96484 L1.91406,7.12891 C1.91406,7.3763 1.79036,7.5 1.54297,7.5 C1.29557,7.5 1.17188,7.3763 1.17188,7.12891 L1.17188,4.21875 L0.546875,4.45312 C0.533854,4.46615 0.481771,4.47266 0.390625,4.47266 C0.286458,4.47266 0.195312,4.43359 0.117188,4.35547 C0.0390625,4.27734 0,4.1862 0,4.08203 L0,2.87109 C0,2.67578 0.0846354,2.55208 0.253906,2.5 L1.17188,2.1875 L1.17188,-1.01562 L0.546875,-0.800781 C0.533854,-0.78776 0.481771,-0.78125 0.390625,-0.78125 C0.286458,-0.78125 0.195312,-0.820312 0.117188,-0.898438 C0.0390625,-0.976562 0,-1.06771 0,-1.17188 L0,-2.38281 C0,-2.5651 0.0846354,-2.68229 0.253906,-2.73438 L1.17188,-3.08594 L1.17188,-6.23047 C1.17188,-6.47786 1.29557,-6.60156 1.54297,-6.60156 C1.79036,-6.60156 1.91406,-6.47786 1.91406,-6.23047 L1.91406,-3.33984 L3.57422,-3.96484 L3.57422,-7.12891 C3.57422,-7.3763 3.69792,-7.5 3.94531,-7.5 C4.19271,-7.5 4.31641,-7.3763 4.31641,-7.12891 L4.31641,-4.21875 L4.96094,-4.45312 C4.97396,-4.46615 5.01953,-4.47266 5.09766,-4.47266 C5.1888,-4.47266 5.28646,-4.43359 5.39062,-4.35547 C5.46875,-4.27734 5.50781,-4.1862 5.50781,-4.08203 L5.50781,-2.87109 C5.50781,-2.6888 5.41667,-2.5651 5.23438,-2.5 L4.31641,-2.1875 L4.31641,1.01562 L4.96094,0.800781 C4.97396,0.78776 5.01953,0.78125 5.09766,0.78125 C5.1888,0.78125 5.28646,0.820312 5.39062,0.898438 C5.46875,0.976562 5.50781,1.06771 5.50781,1.17188 L5.50781,2.38281 C5.50781,2.55208 5.41667,2.66927 5.23438,2.73438 L4.31641,3.08594 L4.31641,6.23047 M3.57422,-1.89453 L1.91406,-1.30859 L1.91406,1.89453 L3.57422,1.30859 L3.57422,-1.89453 "/>
<path class="KeySig" transform="matrix(0.850394,0,0,0.850394,36.3769,17.1859)" d="M4.31641,6.23047 C4.31641,6.47786 4.19271,6.60156 3.94531,6.60156 C3.69792,6.60156 3.57422,6.47786 3.57422,6.23047 L3.57422,3.33984 L1.91406,3.96484 L1.91406,7.12891 C1.91406,7.3763 1.79036,7.5 1.54297,7.5 C1.29557,7.5 1.17188,7.3763 1.17188,7.12891 L1.17188,4.21875 L0.546875,4.45312 C0.533854,4.46615 0.481771,4.47266 0.390625,4.47266 C0.286458,4.47266 0.195312,4.43359 0.117188,4.35547 C0.0390625,4.27734 0,4.1862 0,4.08203 L0,2.87109 C0,2.67578 0.0846354,2.55208 0.253906,2.5 L1.17188,2.1875 L1.17188,-1.01562 L0.546875,-0.800781 C0.533854,-0.78776 0.481771,-0.78125 0.390625,-0.78125 C0.286458,-0.78125 0.195312,-0.820312 0.117188,-0.898438 C0.0390625,-0.976562 0,-1.06771 0,-1.17188 L0,-2.38281 C0,-2.5651 0.0846354,-2.68229 0.253906,-2.73438 L1.17188,-3.08594 L1.17188,-6.23047 C1.17188,-6.47786 1.29557,-6.60156 1.54297,-6.60156 C1.79036,-6.60156 1.91406,-6.47786 1.91406,-6.23047 L1.91406,-3.33984 L3.57422,-3.96484 L3.57422,-7.12891 C3.57422,-7.3763 3.69792,-7.5 3.94531,-7.5 C4.19271,-7.5 4.31641,-7.3763 4.31641,-7.12891 L4.31641,-4.21875 L4.96094,-4.45312 C4.97396,-4.46615 5.01953,-4.47266 5.09766,-4.47266 C5.1888,-4.47266 5.28646,-4.43359 5.39062,-4.35547 C5.46875,-4.27734 5.50781,-4.1862 5.50781,-4.08203 L5.50781,-2.87109 C5.50781,-2.6888 5.41667,-2.5651 5.23438,-2.5 L4.31641,-2.1875 L4.31641,1.01562 L4.96094,0.800781 C4.97396,0.78776 5.01953,0.78125 5.09766,0.78125 C5.1888,0.78125 5.28646,0.820312 5.39062,0.898438 C5.46875,0.976562 5.50781,1.06771 5.50781,1.17188 L5.50781,2.38281 C5.50781,2.55208 5.41667,2.66927 5.23438,2.73438 L4.31641,3.08594 L4.31641,6.23047 M3.57422,-1.89453 L1.91406,-1.30859 L1.91406,1.89453 L3.57422,1.30859 L3.57422,-1.89453 "/>
<path class="KeySig" transform="matrix(0.850394,0,0,0.850394,32.125,10.808)" d="M4.31641,6.23047 C4.31641,6.47786 4.19271,6.60156 3.94531,6.60156 C3.69792,6.60156 3.57422,6.47786 3.57422,6.23047 L3.57422,3.33984 L1.91406,3.96484 L1.91406,7.12891 C1.91406,7.3763 1.79036,7.5 1.54297,7.5 C1.29557,7.5 1.17188,7.3763 1.17188,7.12891 L1.17188,4.21875 L0.546875,4.45312 C0.533854,4.46615 0.481771,4.47266 0.390625,4.47266 C0.286458,4.47266 0.195312,4.43359 0.117188,4.35547 C0.0390625,4.27734 0,4.1862 0,4.08203 L0,2.87109 C0,2.67578 0.0846354,2.55208 0.253906,2.5 L1.17188,2.1875 L1.17188,-1.01562 L0.546875,-0.800781 C0.533854,-0.78776 0.481771,-0.78125 0.390625,-0.78125 C0.286458,-0.78125 0.195312,-0.820312 0.117188,-0.898438 C0.0390625,-0.976562 0,-1.06771 0,-1.17188 L0,-2.38281 C0,-2.5651 0.0846354,-2.68229 0.253906,-2.73438 L1.17188,-3.08594 L1.17188,-6.23047 C1.17188,-6.47786 1.29557,-6.60156 1.54297,-6.60156 C1.79036,-6.60156 1.91406,-6.47786 1.91406,-6.23047 L1.91406,-3.33984 L3.57422,-3.96484 L3.57422,-7.12891 C3.57422,-7.3763 3.69792,-7.5 3.94531,-7.5 C4.19271,-7.5 4.31641,-7.3763 4.31641,-7.12891 L4.31641,-4.21875 L4.96094,-4.45312 C4.97396,-4.46615 5.01953,-4.47266 5.09766,-4.47266 C5.1888,-4.47266 5.28646,-4.43359 5.39062,-4.35547 C5.46875,-4.27734 5.50781,-4.1862 5.50781,-4.08203 L5.50781,-2.87109 C5.50781,-2.6888 5.41667,-2.5651 5.23438,-2.5 L4.31641,-2.1875 L4.31641,1.01562 L4.96094,0.800781 C4.97396,0.78776 5.01953,0.78125 5.09766,0.78125 C5.1888,0.78125 5.28646,0.820312 5.39062,0.898438 C5.46875,0.976562 5.50781,1.06771 5.50781,1.17188 L5.50781,2.38281 C5.50781,2.55208 5.41667,2.66927 5.23438,2.73438 L4.31641,3.08594 L4.31641,6.23047 M3.57422,-1.89453 L1.91406,-1.30859 L1.91406,1.89453 L3.57422,1.30859 L3.57422,-1.89453 "/>
<path class="KeySig" transform="matrix(0.850394,0,0,0.850394,27.873,19.3119)" d="M4.31641,6.23047 C4.31641,6.47786 4.19271,6.60156 3.94531,6.60156 C3.69792,6.60156 3.57422,6.47786 3.57422,6.23047 L3.57422,3.33984 L1.91406,3.96484 L1.91406,7.12891 C1.91406,7.3763 1.79036,7.5 1.54297,7.5 C1.29557,7.5 1.17188,7.3763 1.17188,7.12891 L1.17188,4.21875 L0.546875,4.45312 C0.533854,4.46615 0.481771,4.47266 0.390625,4.47266 C0.286458,4.47266 0.195312,4.43359 0.117188,4.35547 C0.0390625,4.27734 0,4.1862 0,4.08203 L0,2.87109 C0,2.67578 0.0846354,2.55208 0.253906,2.5 L1.17188,2.1875 L1.17188,-1.01562 L0.546875,-0.800781 C0.533854,-0.78776 0.481771,-0.78125 0.390625,-0.78125 C0.286458,-0.78125 0.195312,-0.820312 0.117188,-0.898438 C0.0390625,-0.976562 0,-1.06771 0,-1.17188 L0,-2.38281 C0,-2.5651 0.0846354,-2.68229 0.253906,-2.73438 L1.17188,-3.08594 L1.17188,-6.23047 C1.17188,-6.47786 1.29557,-6.60156 1.54297,-6.60156 C1.79036,-6.60156 1.91406,-6.47786 1.91406,-6.23047 L1.91406,-3.33984 L3.57422,-3.96484 L3.57422,-7.12891 C3.57422,-7.3763 3.69792,-7.5 3.94531,-7.5 C4.19271,-7.5 4.31641,-7.3763 4.31641,-7.12891 L4.31641,-4.21875 L4.96094,-4.45312 C4.97396,-4.46615 5.01953,-4.47266 5.09766,-4.47266 C5.1888,-4.47266 5.28646,-4.43359 5.39062,-4.35547 C5.46875,-4.27734 5.50781,-4.1862 5.50781,-4.08203 L5.50781,-2.87109 C5.50781,-2.6888 5.41667,-2.5651 5.23438,-2.5 L4.31641,-2.1875 L4.31641,1.01562 L4.96094,0.800781 C4.97396,0.78776 5.01953,0.78125 5.09766,0.78125 C5.1888,0.78125 5.28646,0.820312 5.39062,0.898438 C5.46875,0.976562 5.50781,1.06771 5.50781,1.17188 L5.50781,2.38281 C5.50781,2.55208 5.41667,2.66927 5.23438,2.73438 L4.31641,3.08594 L4.31641,6.23047 M3.57422,-1.89453 L1.91406,-1.30859 L1.91406,1.89453 L3.57422,1.30859 L3.57422,-1.89453 "/>
<path class="KeySig" transform="matrix(0.850394,0,0,0.850394,23.621,12.934)" d="M4.31641,6.23047 C4.31641,6.47786 4.19271,6.60156 3.94531,6.60156 C3.69792,6.60156 3.57422,6.47786 3.57422,6.23047 L3.57422,3.33984 L1.91406,3.96484 L1.91406,7.12891 C1.91406,7.3763 1.79036,7.5 1.54297,7.5 C1.29557,7.5 1.17188,7.3763 1.17188,7.12891 L1.17188,4.21875 L0.546875,4.45312 C0.533854,4.46615 0.481771,4.47266 0.390625,4.47266 C0.286458,4.47266 0.195312,4.43359 0.117188,4.35547 C0.0390625,4.27734 0,4.1862 0,4.08203 L0,2.87109 C0,2.67578 0.0846354,2.55208 0.253906,2.5 L1.17188,2.1875 L1.17188,-1.01562 L0.546875,-0.800781 C0.533854,-0.78776 0.481771,-0.78125 0.390625,-0.78125 C0.286458,-0.78125 0.195312,-0.820312 0.117188,-0.898438 C0.0390625,-0.976562 0,-1.06771 0,-1.17188 L0,-2.38281 C0,-2.5651 0.0846354,-2.68229 0.253906,-2.73438 L1.17188,-3.08594 L1.17188,-6.23047 C1.17188,-6.47786 1.29557,-6.60156 1.54297,-6.60156 C1.79036,-6.60156 1.91406,-6.47786 1.91406,-6.23047 L1.91406,-3.33984 L3.57422,-3.96484 L3.57422,-7.12891 C3.57422,-7.3763 3.69792,-7.5 3.94531,-7.5 C4.19271,-7.5 4.31641,-7.3763 4.31641,-7.12891 L4.31641,-4.21875 L4.96094,-4.45312 C4.97396,-4.46615 5.01953,-4.47266 5.09766,-4.47266 C5.1888,-4.47266 5.28646,-4.43359 5.39062,-4.35547 C5.46875,-4.27734 5.50781,-4.1862 5.50781,-4.08203 L5.50781,-2.87109 C5.50781,-2.6888 5.41667,-2.5651 5.23438,-2.5 L4.31641,-2.1875 L4.31641,1.01562 L4.96094,0.800781 C4.97396,0.78776 5.01953,0.78125 5.09766,0.78125 C5.1888,0.78125 5.28646,0.820312 5.39062,0.898438 C5.46875,0.976562 5.50781,1.06771 5.50781,1.17188 L5.50781,2.38281 C5.50781,2.55208 5.41667,2.66927 5.23438,2.73438 L4.31641,3.08594 L4.31641,6.23047 M3.57422,-1.89453 L1.91406,-1.30859 L1.91406,1.89453 L3.57422,1.30859 L3.57422,-1.89453 "/>
<path class="TimeSig" transform="matrix(0.850394,0,0,0.850394,51.6906,55.4536)" d="M7.1875,-0.546875 C6.84896,-0.546875 6.51042,-0.677083 6.17188,-0.9375 C5.84635,-1.1849 5.68359,-1.54948 5.68359,-2.03125 C5.68359,-2.4349 5.82031,-2.79297 6.09375,-3.10547 C6.35417,-3.41797 6.69922,-3.57422 7.12891,-3.57422 C7.27214,-3.57422 7.36328,-3.56771 7.40234,-3.55469 C6.80339,-4.32292 6.0026,-4.72005 5,-4.74609 C4.24479,-4.74609 3.67188,-4.53125 3.28125,-4.10156 C3.15104,-3.93229 3.03385,-3.65885 2.92969,-3.28125 C2.82552,-2.90365 2.77344,-2.5651 2.77344,-2.26562 C2.7474,-2.05729 2.73438,-1.64062 2.73438,-1.01562 L2.73438,1.01562 C2.73438,1.64062 2.7474,2.0638 2.77344,2.28516 C2.82552,3.13151 2.99479,3.73698 3.28125,4.10156 C3.6849,4.54427 4.25781,4.76562 5,4.76562 C5.78125,4.76562 6.44531,4.47917 6.99219,3.90625 C7.55208,3.34635 7.94271,2.6237 8.16406,1.73828 C8.20312,1.60807 8.28125,1.54297 8.39844,1.54297 C8.56771,1.54297 8.65234,1.62109 8.65234,1.77734 C8.65234,1.86849 8.61328,2.04427 8.53516,2.30469 C8.35286,2.89062 7.99479,3.50911 7.46094,4.16016 C6.82292,4.88932 6.0026,5.25391 5,5.25391 C4.41406,5.25391 3.8151,5.16927 3.20312,5 C2.60417,4.79167 2.07682,4.50521 1.62109,4.14062 C1.11328,3.73698 0.716146,3.1901 0.429688,2.5 C0.143229,1.74479 0,0.911458 0,0 C0,-1.58854 0.429688,-2.85156 1.28906,-3.78906 C2.1224,-4.7526 3.35938,-5.23438 5,-5.23438 C6.06771,-5.23438 6.91406,-4.86979 7.53906,-4.14062 C8.1901,-3.41146 8.51562,-2.6888 8.51562,-1.97266 C8.51562,-1.55599 8.38542,-1.21745 8.125,-0.957031 C7.89062,-0.683594 7.57812,-0.546875 7.1875,-0.546875"/>
<path class="TimeSig" transform="matrix(0.850394,0,0,0.850394,51.6906,17.1859)" d="M7.1875,-0.546875 C6.84896,-0.546875 6.51042,-0.677083 6.17188,-0.9375 C5.84635,-1.1849 5.68359,-1.54948 5.68359,-2.03125 C5.68359,-2.4349 5.82031,-2.79297 6.09375,-3.10547 C6.35417,-3.41797 6.69922,-3.57422 7.12891,-3.57422 C7.27214,-3.57422 7.36328,-3.56771 7.40234,-3.55469 C6.80339,-4.32292 6.0026,-4.72005 5,-4.74609 C4.24479,-4.74609 3.67188,-4.53125 3.28125,-4.10156 C3.15104,-3.93229 3.03385,-3.65885 2.92969,-3.28125 C2.82552,-2.90365 2.77344,-2.5651 2.77344,-2.26562 C2.7474,-2.05729 2.73438,-1.64062 2.73438,-1.01562 L2.73438,1.01562 C2.73438,1.64062 2.7474,2.0638 2.77344,2.28516 C2.82552,3.13151 2.99479,3.73698 3.28125,4.10156 C3.6849,4.54427 4.25781,4.76562 5,4.76562 C5.78125,4.76562 6.44531,4.47917 6.99219,3.90625 C7.55208,3.34635 7.94271,2.6237 8.16406,1.73828 C8.20312,1.60807 8.28125,1.54297 8.39844,1.54297 C8.56771,1.54297 8.65234,1.62109 8.65234,1.77734 C8.65234,1.86849 8.61328,2.04427 8.53516,2.30469 C8.35286,2.89062 7.99479,3.50911 7.46094,4.16016 C6.82292,4.88932 6.0026,5.25391 5,5.25391 C4.41406,5.25391 3.8151,5.16927 3.20312,5 C2.60417,4.79167 2.07682,4.50521 1.62109,4.14062 C1.11328,3.73698 0.716146,3.1901 0.429688,2.5 C0.143229,1.74479 0,0.911458 0,0 C0,-1.58854 0.429688,-2.85156 1.28906,-3.78906 C2.1224,-4.7526 3.35938,-5.23438 5,-5.23438 C6.06771,-5.23438 6.91406,-4.86979 7.53906,-4.14062 C8.1901,-3.41146 8.51562,-2.6888 8.51562,-1.97266 C8.51562,-1.55599 8.38542,-1.21745 8.125,-0.957031 C7.89062,-0.683594 7.57812,-0.546875 7.1875,-0.546875"/>
<path class="Rest" transform="matrix(0.850394,0,0,0.850394,425.074,17.1859)" d="M1.40625,-4.10156 C1.78385,-4.10156 2.07031,-3.9974 2.26562,-3.78906 C2.46094,-3.55469 2.5651,-3.33333 2.57812,-3.125 C2.60417,-2.92969 2.66927,-2.70833 2.77344,-2.46094 C2.89062,-2.2526 3.04036,-2.14844 3.22266,-2.14844 C3.36589,-2.14844 3.58073,-2.3112 3.86719,-2.63672 C4.1276,-2.92318 4.31641,-3.17708 4.43359,-3.39844 C4.4987,-3.52865 4.58984,-3.59375 4.70703,-3.59375 L4.72656,-3.59375 C4.85677,-3.58073 4.94792,-3.51562 5,-3.39844 L2.53906,5 C2.40885,5.13021 2.22656,5.19531 1.99219,5.19531 C1.75781,5.19531 1.57552,5.13021 1.44531,5 L3.78906,-1.52344 C2.95573,-1.22396 2.2526,-1.07422 1.67969,-1.07422 C1.21094,-1.07422 0.807292,-1.22396 0.46875,-1.52344 C0.117188,-1.8099 -0.0585938,-2.1875 -0.0585938,-2.65625 C-0.0585938,-3.0599 0.0846354,-3.39844 0.371094,-3.67188 C0.657552,-3.95833 1.0026,-4.10156 1.40625,-4.10156"/>
<path class="Rest" transform="matrix(0.850394,0,0,0.850394,349.037,17.1859)" d="M1.40625,-4.10156 C1.78385,-4.10156 2.07031,-3.9974 2.26562,-3.78906 C2.46094,-3.55469 2.5651,-3.33333 2.57812,-3.125 C2.60417,-2.92969 2.66927,-2.70833 2.77344,-2.46094 C2.89062,-2.2526 3.04036,-2.14844 3.22266,-2.14844 C3.36589,-2.14844 3.58073,-2.3112 3.86719,-2.63672 C4.1276,-2.92318 4.31641,-3.17708 4.43359,-3.39844 C4.4987,-3.52865 4.58984,-3.59375 4.70703,-3.59375 L4.72656,-3.59375 C4.85677,-3.58073 4.94792,-3.51562 5,-3.39844 L2.53906,5 C2.40885,5.13021 2.22656,5.19531 1.99219,5.19531 C1.75781,5.19531 1.57552,5.13021 1.44531,5 L3.78906,-1.52344 C2.95573,-1.22396 2.2526,-1.07422 1.67969,-1.07422 C1.21094,-1.07422 0.807292,-1.22396 0.46875,-1.52344 C0.117188,-1.8099 -0.0585938,-2.1875 -0.0585938,-2.65625 C-0.0585938,-3.0599 0.0846354,-3.39844 0.371094,-3.67188 C0.657552,-3.95833 1.0026,-4.10156 1.40625,-4.10156"/>
<path class="Rest" transform="matrix(0.850394,0,0,0.850394,272.999,17.1859)" d="M1.40625,-4.10156 C1.78385,-4.10156 2.07031,-3.9974 2.26562,-3.78906 C2.46094,-3.55469 2.5651,-3.33333 2.57812,-3.125 C2.60417,-2.92969 2.66927,-2.70833 2.77344,-2.46094 C2.89062,-2.2526 3.04036,-2.14844 3.22266,-2.14844 C3.36589,-2.14844 3.58073,-2.3112 3.86719,-2.63672 C4.1276,-2.92318 4.31641,-3.17708 4.43359,-3.39844 C4.4987,-3.52865 4.58984,-3.59375 4.70703,-3.59375 L4.72656,-3.59375 C4.85677,-3.58073 4.94792,-3.51562 5,-3.39844 L2.53906,5 C2.40885,5.13021 2.22656,5.19531 1.99219,5.19531 C1.75781,5.19531 1.57552,5.13021 1.44531,5 L3.78906,-1.52344 C2.95573,-1.22396 2.2526,-1.07422 1.67969,-1.07422 C1.21094,-1.07422 0.807292,-1.22396 0.46875,-1.52344 C0.117188,-1.8099 -0.0585938,-2.1875 -0.0585938,-2.65625 C-0.0585938,-3.0599 0.0846354,-3.39844 0.371094,-3.67188 C0.657552,-3.95833 1.0026,-4.10156 1.40625,-4.10156"/>
<path class="Rest" transform="matrix(0.850394,0,0,0.850394,215.525,17.1859)" d="M1.40625,-4.10156 C1.78385,-4.10156 2.07031,-3.9974 2.26562,-3.78906 C2.46094,-3.55469 2.5651,-3.33333 2.57812,-3.125 C2.60417,-2.92969 2.66927,-2.70833 2.77344,-2.46094 C2.89062,-2.2526 3.04036,-2.14844 3.22266,-2.14844 C3.36589,-2.14844 3.58073,-2.3112 3.86719,-2.63672 C4.1276,-2.92318 4.31641,-3.17708 4.43359,-3.39844 C4.4987,-3.52865 4.58984,-3.59375 4.70703,-3.59375 L4.72656,-3.59375 C4.85677,-3.58073 4.94792,-3.51562 5,-3.39844 L2.53906,5 C2.40885,5.13021 2.22656,5.19531 1.99219,5.19531 C1.75781,5.19531 1.57552,5.13021 1.44531,5 L3.78906,-1.52344 C2.95573,-1.22396 2.2526,-1.07422 1.67969,-1.07422 C1.21094,-1.07422 0.807292,-1.22396 0.46875,-1.52344 C0.117188,-1.8099 -0.0585938,-2.1875 -0.0585938,-2.65625 C-0.0585938,-3.0599 0.0846354,-3.39844 0.371094,-3.67188 C0.657552,-3.95833 1.0026,-4.10156 1.40625,-4.10156"/>
<path class="Rest" transform="matrix(0.850394,0,0,0.850394,141.05,17.1859)" d="M1.40625,-4.10156 C1.78385,-4.10156 2.07031,-3.9974 2.26562,-3.78906 C2.46094,-3.55469 2.5651,-3.33333 2.57812,-3.125 C2.60417,-2.92969 2.66927,-2.70833 2.77344,-2.46094 C2.89062,-2.2526 3.04036,-2.14844 3.22266,-2.14844 C3.36589,-2.14844 3.58073,-2.3112 3.86719,-2.63672 C4.1276,-2.92318 4.31641,-3.17708 4.43359,-3.39844 C4.4987,-3.52865 4.58984,-3.59375 4.70703,-3.59375 L4.72656,-3.59375 C4.85677,-3.58073 4.94792,-3.51562 5,-3.39844 L2.53906,5 C2.40885,5.13021 2.22656,5.19531 1.99219,5.19531 C1.75781,5.19531 1.57552,5.13021 1.44531,5 L3.78906,-1.52344 C2.95573,-1.22396 2.2526,-1.07422 1.67969,-1.07422 C1.21094,-1.07422 0.807292,-1.22396 0.46875,-1.52344 C0.117188,-1.8099 -0.0585938,-2.1875 -0.0585938,-2.65625 C-0.0585938,-3.0599 0.0846354,-3.39844 0.371094,-3.67188 C0.657552,-3.95833 1.0026,-4.10156 1.40625,-4.10156"/>
<path class="Rest" transform="matrix(0.850394,0,0,0.850394,66.5752,17.1859)" d="M1.40625,-4.10156 C1.78385,-4.10156 2.07031,-3.9974 2.26562,-3.78906 C2.46094,-3.55469 2.5651,-3.33333 2.57812,-3.125 C2.60417,-2.92969 2.66927,-2.70833 2.77344,-2.46094 C2.89062,-2.2526 3.04036,-2.14844 3.22266,-2.14844 C3.36589,-2.14844 3.58073,-2.3112 3.86719,-2.63672 C4.1276,-2.92318 4.31641,-3.17708 4.43359,-3.39844 C4.4987,-3.52865 4.58984,-3.59375 4.70703,-3.59375 L4.72656,-3.59375 C4.85677,-3.58073 4.94792,-3.51562 5,-3.39844 L2.53906,5 C2.40885,5.13021 2.22656,5.19531 1.99219,5.19531 C1.75781,5.19531 1.57552,5.13021 1.44531,5 L3.78906,-1.52344 C2.95573,-1.22396 2.2526,-1.07422 1.67969,-1.07422 C1.21094,-1.07422 0.807292,-1.22396 0.46875,-1.52344 C0.117188,-1.8099 -0.0585938,-2.1875 -0.0585938,-2.65625 C-0.0585938,-3.0599 0.0846354,-3.39844 0.371094,-3.67188 C0.657552,-3.95833 1.0026,-4.10156 1.40625,-4.10156"/>
<path class="Beam" fill-rule="evenodd" d="M374.383,24.6269 L400.281,24.6269 L400.281,26.7529 L374.383,26.7529 L374.383,24.6269 "/>
<path class="Beam" fill-rule="evenodd" d="M298.345,24.6269 L324.244,24.6269 L324.244,26.7529 L298.345,26.7529 L298.345,24.6269 "/>
<path class="Beam" fill-rule="evenodd" d="M165.875,23.5639 L191.253,23.5639 L191.253,25.6899 L165.875,25.6899 L165.875,23.5639 "/>
<path class="Beam" fill-rule="evenodd" d="M91.4002,23.5639 L116.778,23.5639 L116.778,25.6899 L91.4002,25.6899 L91.4002,23.5639 "/>
<path class="Hook" transform="matrix(0.850394,0,0,0.850394,450.42,27.8158)" d="M4.55078,-14.4727 C4.85026,-14.4727 5.16927,-13.9844 5.50781,-13.0078 C5.83333,-12.0443 5.99609,-11.1263 5.99609,-10.2539 C5.99609,-9.51172 5.8138,-8.77604 5.44922,-8.04688 C5.07161,-7.26562 4.6224,-6.58854 4.10156,-6.01562 L2.5,-4.21875 C2.00521,-3.64583 1.5625,-2.98177 1.17188,-2.22656 C0.807292,-1.4974 0.625,-0.755208 0.625,0 L0,0 L0,-5 L0.625,-5 C0.976562,-5.22135 1.4974,-5.57292 2.1875,-6.05469 C2.5,-6.28906 2.96875,-6.67969 3.59375,-7.22656 C4.10156,-7.69531 4.48568,-8.17708 4.74609,-8.67188 C5.01953,-9.19271 5.15625,-9.72005 5.15625,-10.2539 C5.15625,-11.4909 4.79818,-12.7214 4.08203,-13.9453 C4.08203,-13.9453 4.08203,-13.9714 4.08203,-14.0234 C4.08203,-14.1406 4.12109,-14.2383 4.19922,-14.3164 C4.30339,-14.4206 4.42057,-14.4727 4.55078,-14.4727"/>
<path class="Hook" transform="matrix(0.850394,0,0,0.850394,240.35,25.6899)" d="M4.55078,-14.4727 C4.85026,-14.4727 5.16927,-13.9844 5.50781,-13.0078 C5.83333,-12.0443 5.99609,-11.1263 5.99609,-10.2539 C5.99609,-9.51172 5.8138,-8.77604 5.44922,-8.04688 C5.07161,-7.26562 4.6224,-6.58854 4.10156,-6.01562 L2.5,-4.21875 C2.00521,-3.64583 1.5625,-2.98177 1.17188,-2.22656 C0.807292,-1.4974 0.625,-0.755208 0.625,0 L0,0 L0,-5 L0.625,-5 C0.976562,-5.22135 1.4974,-5.57292 2.1875,-6.05469 C2.5,-6.28906 2.96875,-6.67969 3.59375,-7.22656 C4.10156,-7.69531 4.48568,-8.17708 4.74609,-8.67188 C5.01953,-9.19271 5.15625,-9.72005 5.15625,-10.2539 C5.15625,-11.4909 4.79818,-12.7214 4.08203,-13.9453 C4.08203,-13.9453 4.08203,-13.9714 4.08203,-14.0234 C4.08203,-14.1406 4.12109,-14.2383 4.19922,-14.3164 C4.30339,-14.4206 4.42057,-14.4727 4.55078,-14.4727"/>
<path class="NoteDot" transform="matrix(0.850394,0,0,0.850394,356.123,61.8316)" d="M0.332031,0.800781 C0.110677,0.579427 0,0.3125 0,0 C0,-0.3125 0.110677,-0.579427 0.332031,-0.800781 C0.553385,-1.02214 0.820312,-1.13281 1.13281,-1.13281 C1.44531,-1.13281 1.71224,-1.02214 1.93359,-0.800781 C2.15495,-0.579427 2.26562,-0.3125 2.26562,0 C2.26562,0.3125 2.15495,0.579427 1.93359,0.800781 C1.71224,1.02214 1.44531,1.13281 1.13281,1.13281 C0.820312,1.13281 0.553385,1.02214 0.332031,0.800781"/>
<path class="NoteDot" transform="matrix(0.850394,0,0,0.850394,280.085,70.3355)" d="M0.332031,0.800781 C0.110677,0.579427 0,0.3125 0,0 C0,-0.3125 0.110677,-0.579427 0.332031,-0.800781 C0.553385,-1.02214 0.820312,-1.13281 1.13281,-1.13281 C1.44531,-1.13281 1.71224,-1.02214 1.93359,-0.800781 C2.15495,-0.579427 2.26562,-0.3125 2.26562,0 C2.26562,0.3125 2.15495,0.579427 1.93359,0.800781 C1.71224,1.02214 1.44531,1.13281 1.13281,1.13281 C0.820312,1.13281 0.553385,1.02214 0.332031,0.800781"/>
<path class="NoteDot" transform="matrix(0.850394,0,0,0.850394,148.136,57.5796)" d="M0.332031,0.800781 C0.110677,0.579427 0,0.3125 0,0 C0,-0.3125 0.110677,-0.579427 0.332031,-0.800781 C0.553385,-1.02214 0.820312,-1.13281 1.13281,-1.13281 C1.44531,-1.13281 1.71224,-1.02214 1.93359,-0.800781 C2.15495,-0.579427 2.26562,-0.3125 2.26562,0 C2.26562,0.3125 2.15495,0.579427 1.93359,0.800781 C1.71224,1.02214 1.44531,1.13281 1.13281,1.13281 C0.820312,1.13281 0.553385,1.02214 0.332031,0.800781"/>
<path class="NoteDot" transform="matrix(0.850394,0,0,0.850394,73.6614,66.0836)" d="M0.332031,0.800781 C0.110677,0.579427 0,0.3125 0,0 C0,-0.3125 0.110677,-0.579427 0.332031,-0.800781 C0.553385,-1.02214 0.820312,-1.13281 1.13281,-1.13281 C1.44531,-1.13281 1.71224,-1.02214 1.93359,-0.800781 C2.15495,-0.579427 2.26562,-0.3125 2.26562,0 C2.26562,0.3125 2.15495,0.579427 1.93359,0.800781 C1.71224,1.02214 1.44531,1.13281 1.13281,1.13281 C0.820312,1.13281 0.553385,1.02214 0.332031,0.800781"/>
<path class="Bracket" fill-rule="evenodd" d="M5.36477,28.3476 C5.36477,23.8945 1.94376,19.5658 1.94376,15.2995 C1.94376,13.1507 2.87676,11.0643 5.75352,9.19582 C5.7924,9.17246 5.81183,9.13354 5.81183,9.11018 C5.81183,9.04011 5.59802,8.97783 5.44252,8.97783 C5.36477,8.97783 5.22871,8.98561 5.13152,9.04011 C1.39951,11.438 0.155501,14.2095 0.155501,17.0123 C0.155501,21.5277 3.80976,25.8875 3.80976,30.2161 C3.80976,32.3649 2.87676,34.389 1.39888e-14,36.2575 L1.39888e-14,36.3198 L1.39888e-14,36.3821 C2.87676,38.2505 3.80976,40.2747 3.80976,42.4235 C3.80976,46.7521 0.155501,51.1118 0.155501,55.6273 C0.155501,58.43 1.39951,61.2016 5.13152,63.5995 C5.22871,63.654 5.36477,63.6617 5.44252,63.6617 C5.59802,63.6617 5.81183,63.5995 5.81183,63.5294 C5.81183,63.506 5.7924,63.4671 5.75352,63.4437 C2.87676,61.5753 1.94376,59.4888 1.94376,57.3401 C1.94376,53.0737 5.36477,48.7451 5.36477,44.2919 C5.36477,41.4581 4.12076,38.7488 0.466502,36.3198 C4.12076,33.8908 5.36477,31.1815 5.36477,28.3476"/>
</svg>
